<svg width="30" height="30" viewBox="0 0 30 30" fill="none" xmlns="http://www.w3.org/2000/svg">
<path d="M29.297 27.6855L25.7989 7.11914C25.6993 6.55078 25.2071 6.12891 24.6271 6.12891H20.5899C19.4708 3.52148 17.5841 0.761719 14.9942 0.761719C12.4044 0.761719 10.5177 3.51562 9.39268 6.12891H5.35557C4.7755 6.12891 4.28331 6.54492 4.1837 7.11914L0.662216 27.8496C0.521591 28.4941 0.843856 29.2324 1.83409 29.2324H28.1603C28.1661 29.2324 28.1661 29.2324 28.172 29.2324C28.8224 29.2383 29.5138 28.4941 29.297 27.6855ZM14.9942 3.13477C16.0958 3.13477 17.1681 4.53516 17.9825 6.12891H12.006C12.8204 4.53516 13.8927 3.13477 14.9942 3.13477ZM3.23448 26.8652L6.35753 8.50781H8.54893C8.30284 9.38086 8.17979 10.084 8.17979 10.4473C8.17979 11.1035 8.713 11.6309 9.36339 11.6309C10.0196 11.6309 10.547 11.0977 10.547 10.4473C10.547 10.084 10.711 9.36328 10.9982 8.50781H18.9728C19.2599 9.36328 19.4239 10.084 19.4239 10.4473C19.4239 11.1035 19.9571 11.6309 20.6075 11.6309C21.2638 11.6309 21.7911 11.0977 21.7911 10.4473C21.7911 10.084 21.6681 9.38086 21.422 8.50781H23.6134L26.7364 26.8652H3.23448Z" fill="#56BA72"/>
</svg>
