<svg width="40" height="40" viewBox="0 0 40 40" fill="none" xmlns="http://www.w3.org/2000/svg">
<g clip-path="url(#clip0)">
<path d="M27.7107 32.9361L28.9426 39.6808H40L16.6734 3.50409C15.343 1.42092 13.0731 0.177246 10.6014 0.177246C6.62871 0.177246 3.39672 3.40924 3.39672 7.38198V8.2635H0V10.6111H3.39672V18.9841C3.39672 26.2405 8.96534 32.2198 16.0534 32.8755V35.9024C14.3671 36.4083 13.1345 37.9739 13.1345 39.8227H15.4821C15.4821 38.8604 16.2649 38.0776 17.2272 38.0776C18.1895 38.0776 18.9723 38.8604 18.9723 39.8227H21.3199C21.3199 37.9739 20.0872 36.4082 18.401 35.9024V32.9361H27.7107ZM30.9004 37.3333L30.0972 32.9361H32.6987L35.6211 37.3333H30.9004ZM18.576 10.8444L26.0213 22.5022H22.7641C20.4547 22.5022 18.576 20.6234 18.576 18.3141V10.8444ZM5.7443 18.9841V7.38198C5.7443 4.7037 7.92317 2.52483 10.6014 2.52483C12.2678 2.52483 13.7981 3.36323 14.695 4.76763L16.2284 7.16866V18.3142C16.2284 21.918 19.1603 24.85 22.7642 24.85H27.5207L31.1857 30.5886H17.3487C10.95 30.5885 5.7443 25.3828 5.7443 18.9841Z" fill="#56BA72"/>
<path d="M9.84372 7.03296C9.22975 7.03296 8.64153 7.57282 8.66993 8.20675C8.69842 8.84271 9.1857 9.38054 9.84372 9.38054C10.4577 9.38054 11.0459 8.84067 11.0175 8.20675C10.989 7.57079 10.5017 7.03296 9.84372 7.03296Z" fill="#56BA72"/>
</g>
<defs>
<clipPath id="clip0">
<rect width="40" height="40" fill="white"/>
</clipPath>
</defs>
</svg>
