<svg width="25" height="25" viewBox="0 0 25 25" fill="none" xmlns="http://www.w3.org/2000/svg">
<path d="M6.98351 16.976H7.77877H21.338C21.6656 16.976 21.9543 16.7608 22.0478 16.4468L24.9692 6.63775C25.0359 6.41363 24.9929 6.17115 24.8531 5.98365C24.7133 5.79615 24.4932 5.6857 24.2594 5.6857H5.40963L4.41295 2.33901C4.31944 2.02505 4.03072 1.80981 3.70308 1.80981H0.740675C0.331641 1.80977 0 2.14136 0 2.55044C0 2.95948 0.331641 3.29112 0.740675 3.29112H3.15088L4.14283 6.62174C4.14586 6.63272 4.14903 6.64361 4.15255 6.65436L6.78761 15.5021C5.28351 15.6033 4.09049 16.8585 4.09049 18.3878C4.09049 19.983 5.38829 21.2808 6.98346 21.2808H7.71876C8.0401 22.3825 9.05847 23.1901 10.2626 23.1901C11.4666 23.1901 12.485 22.3826 12.8064 21.2808H16.7362C17.0575 22.3825 18.0759 23.1901 19.28 23.1901C20.484 23.1901 21.5024 22.3826 21.8238 21.2808H22.778C23.1871 21.2808 23.5187 20.9492 23.5187 20.5401C23.5187 20.1311 23.1871 19.7995 22.778 19.7995H21.8238C21.5024 18.6977 20.4841 17.8902 19.28 17.8902C18.0759 17.8902 17.0575 18.6977 16.7362 19.7995H12.8064C12.485 18.6977 11.4667 17.8902 10.2626 17.8902C9.05847 17.8902 8.04005 18.6977 7.71876 19.7995H6.98346C6.20504 19.7995 5.57179 19.1661 5.57179 18.3877C5.57179 17.6093 6.20509 16.976 6.98351 16.976ZM17.849 7.16695H23.266L22.2465 10.5902H17.849V7.16695ZM17.8489 12.0715H21.8053L20.7858 15.4947H17.8489V12.0715ZM12.3684 7.16695H16.3677V10.5902H12.3684V7.16695ZM12.3683 12.0715H16.3676V15.4947H12.3683V12.0715ZM10.8871 15.4947H8.33102L7.31154 12.0715H10.8871V15.4947ZM5.85089 7.16695H10.8871V10.5902H6.87037L5.85089 7.16695ZM19.28 19.3715C19.9244 19.3715 20.4486 19.8957 20.4486 20.5401C20.4486 21.1845 19.9244 21.7087 19.28 21.7087C18.6356 21.7087 18.1114 21.1845 18.1114 20.5401C18.1114 19.8957 18.6356 19.3715 19.28 19.3715ZM10.2626 19.3715C10.907 19.3715 11.4312 19.8957 11.4312 20.5401C11.4312 21.1845 10.907 21.7087 10.2626 21.7087C9.61823 21.7087 9.09401 21.1845 9.09401 20.5401C9.09401 19.8957 9.61823 19.3715 10.2626 19.3715Z" fill="#56BA72"/>
</svg>
