<svg width="40" height="40" viewBox="0 0 40 40" fill="none" xmlns="http://www.w3.org/2000/svg">
<g clip-path="url(#clip0)">
<path d="M36.1547 19.2041C36.0377 15.7787 35.1593 12.9291 33.5358 10.6938L37.3281 1.62799C37.7298 0.668092 36.7687 -0.30118 35.8054 0.0906997C29.0897 2.82526 29.5028 2.65686 29.4807 2.66654C27.584 3.49897 23.8727 5.12554 23.4781 5.30011C21.3081 5.01196 18.7534 5.00392 16.5226 5.30011C16.2757 5.19076 12.4001 3.4917 10.5199 2.66654C10.4958 2.65592 10.9109 2.82526 4.19519 0.0906997C3.22935 -0.302352 2.2718 0.670357 2.67243 1.62799L6.46484 10.6937C4.84132 12.929 3.96289 15.7787 3.84588 19.2041C-2.20877 24.6547 -0.852694 31.894 6.07702 36.2974C13.8411 41.2309 26.155 41.2338 33.9234 36.2974C40.9099 31.8579 42.1649 24.6148 36.1547 19.2041ZM34.0786 3.324L31.796 8.78079C30.4824 7.61804 28.9613 6.77648 27.2862 6.18815C31.2433 4.45308 29.6395 5.13163 34.0786 3.324ZM12.7144 6.18815C11.0395 6.77648 9.51833 7.61804 8.20467 8.78079L5.92197 3.324C10.3563 5.1296 8.76089 4.45449 12.7144 6.18815ZM5.41675 32.8815L11.0886 30.4506C11.6833 30.1957 11.9589 29.5069 11.7039 28.9122C11.4491 28.3174 10.7604 28.0419 10.1655 28.2968L3.75808 31.0429C2.42614 29.1525 1.93702 26.9375 2.72726 24.7248L10.5049 25.5399C11.1468 25.6071 11.7247 25.1419 11.7924 24.4967C11.8598 23.8532 11.3927 23.2768 10.7492 23.2093L3.96757 22.4986C4.52903 21.7667 5.16641 21.1443 5.76052 20.6437C6.02117 20.4241 6.17333 20.1017 6.17708 19.7608C6.29128 9.56478 13.7572 7.42456 20.0003 7.42456C26.2434 7.42456 33.7093 9.56478 33.8235 19.7608C33.8273 20.1017 33.9794 20.424 34.24 20.6437C34.8341 21.1443 35.4715 21.7667 36.033 22.4986L29.2514 23.2093C28.6079 23.2768 28.1408 23.8532 28.2083 24.4967C28.2758 25.141 28.8528 25.6072 29.4957 25.5399L37.2734 24.7248C38.0638 26.9379 37.5743 29.1528 36.2425 31.0429L29.8351 28.2968C29.2405 28.0419 28.5516 28.3174 28.2967 28.9122C28.0418 29.507 28.3173 30.1958 28.912 30.4506L34.5839 32.8815C27.4353 39.2605 12.5246 39.2242 5.41675 32.8815Z" fill="#56BA72"/>
<path d="M14.9234 18.9473V17.5572C14.9234 16.9101 14.3988 16.3855 13.7517 16.3855C13.1047 16.3855 12.5801 16.9101 12.5801 17.5572V18.9473C12.5801 19.5943 13.1047 20.1189 13.7517 20.1189C14.3988 20.1189 14.9234 19.5943 14.9234 18.9473Z" fill="#56BA72"/>
<path d="M26.2488 16.3855C25.6017 16.3855 25.0771 16.9101 25.0771 17.5572V18.9473C25.0771 19.5943 25.6017 20.1189 26.2488 20.1189C26.8959 20.1189 27.4205 19.5943 27.4205 18.9473V17.5572C27.4205 16.91 26.8959 16.3855 26.2488 16.3855Z" fill="#56BA72"/>
<path d="M24.3741 28.827C23.7271 28.827 23.2025 29.3516 23.2025 29.9986C23.2025 30.5585 22.7469 31.0141 22.187 31.0141C21.6271 31.0141 21.1716 30.5585 21.1716 29.9986V27.4201L23.2674 25.6594C25.5212 23.7659 24.3273 20.0786 21.2497 20.0786H18.7425C15.6829 20.0786 14.4725 23.7607 16.7325 25.6594L18.8283 27.4201V29.9986C18.8283 30.5585 18.3727 31.0141 17.8128 31.0141C17.253 31.0141 16.7974 30.5585 16.7974 29.9986C16.7974 29.3516 16.2728 28.827 15.6258 28.827C14.9787 28.827 14.4541 29.3516 14.4541 29.9986C14.4541 31.8506 15.9609 33.3574 17.8128 33.3574C18.6477 33.3574 19.4118 33.0505 19.9999 32.5446C20.5881 33.0506 21.3522 33.3574 22.187 33.3574C24.039 33.3574 25.5458 31.8506 25.5458 29.9986C25.5458 29.3516 25.0212 28.827 24.3741 28.827ZM17.9595 22.9168C18.0268 22.7319 18.2191 22.4219 18.7502 22.4219H21.2497C21.7807 22.4219 21.9727 22.7311 22.0398 22.9154C22.1361 23.18 22.1133 23.5684 21.7601 23.8652L19.9999 25.344L18.2399 23.8652C17.8866 23.5683 17.8634 23.1807 17.9595 22.9168Z" fill="#56BA72"/>
</g>
<defs>
<clipPath id="clip0">
<rect width="40" height="40" fill="white"/>
</clipPath>
</defs>
</svg>
