<svg width="30" height="30" viewBox="0 0 30 30" fill="none" xmlns="http://www.w3.org/2000/svg">
<g clip-path="url(#clip0)">
<path d="M7.29609 14.0217H0.978281C0.437988 14.0217 0 14.4598 0 15V27.6356C0 28.1758 0.437988 28.6139 0.978281 28.6139H7.29609C7.83633 28.6139 8.27437 28.1759 8.27437 27.6356V15C8.27432 14.4597 7.83633 14.0217 7.29609 14.0217ZM6.31781 26.6573H1.9565V15.9783H6.31781V26.6573Z" fill="#56BA72"/>
<path d="M18.1593 1.38623H11.8416C11.3013 1.38623 10.8633 1.82416 10.8633 2.36451V27.6356C10.8633 28.1758 11.3013 28.6139 11.8416 28.6139H18.1594C18.6996 28.6139 19.1377 28.1759 19.1377 27.6356V2.36445C19.1376 1.82416 18.6996 1.38623 18.1593 1.38623ZM17.1811 26.6573H12.8198V3.34273H17.1811V26.6573Z" fill="#56BA72"/>
<path d="M29.0216 7.70386H22.7039C22.1636 7.70386 21.7256 8.14185 21.7256 8.68214V27.6355C21.7256 28.1757 22.1636 28.6138 22.7039 28.6138H29.0217C29.5619 28.6138 30 28.1758 30 27.6355V8.68214C29.9999 8.1419 29.5619 7.70386 29.0216 7.70386ZM28.0434 26.6572H23.6821V9.66042H28.0434V26.6572Z" fill="#56BA72"/>
</g>
<defs>
<clipPath id="clip0">
<rect width="30" height="30" fill="white"/>
</clipPath>
</defs>
</svg>
