<svg width="32" height="26" viewBox="0 0 32 26" fill="none" xmlns="http://www.w3.org/2000/svg">
<path d="M24.1684 16.0254C21.9442 16.0254 20.1348 17.8348 20.1348 20.059C20.1348 22.2832 21.9442 24.0926 24.1684 24.0926C26.393 24.0926 28.202 22.2832 28.202 20.059C28.202 17.8348 26.3926 16.0254 24.1684 16.0254ZM24.1684 22.0758C23.0561 22.0758 22.1516 21.1713 22.1516 20.059C22.1516 18.9468 23.0561 18.0422 24.1684 18.0422C25.2806 18.0422 26.1852 18.9468 26.1852 20.059C26.1852 21.1713 25.2806 22.0758 24.1684 22.0758Z" fill="#46382C"/>
<path d="M10.3862 16.0254C8.16198 16.0254 6.35254 17.8348 6.35254 20.059C6.35254 22.2832 8.16198 24.0926 10.3862 24.0926C12.6103 24.0926 14.4198 22.2832 14.4198 20.059C14.4198 17.8348 12.6103 16.0254 10.3862 16.0254ZM10.3862 22.0758C9.27391 22.0758 8.36935 21.1713 8.36935 20.059C8.36935 18.9468 9.27391 18.0422 10.3862 18.0422C11.4981 18.0422 12.403 18.9468 12.403 20.059C12.403 21.1713 11.4984 22.0758 10.3862 22.0758Z" fill="#46382C"/>
<path d="M26.884 4.47963C26.7126 4.13913 26.364 3.92432 25.9828 3.92432H20.6719V5.94113H25.3609L28.1068 11.4026L29.9092 10.4964L26.884 4.47963Z" fill="#46382C"/>
<path d="M21.142 19.084H13.5117V21.1008H21.142V19.084Z" fill="#46382C"/>
<path d="M7.36155 19.084H3.8658C3.3088 19.084 2.85742 19.5354 2.85742 20.0924C2.85742 20.6494 3.30886 21.1007 3.8658 21.1007H7.36161C7.91861 21.1007 8.36998 20.6493 8.36998 20.0924C8.36998 19.5354 7.91855 19.084 7.36155 19.084Z" fill="#46382C"/>
<path d="M31.7885 12.9195L29.805 10.3648C29.6144 10.1188 29.3203 9.9749 29.0087 9.9749H21.6809V2.91609C21.6809 2.35909 21.2295 1.90771 20.6725 1.90771H3.8658C3.3088 1.90771 2.85742 2.35915 2.85742 2.91609C2.85742 3.47303 3.30886 3.92446 3.8658 3.92446H19.6641V10.9833C19.6641 11.5403 20.1155 11.9917 20.6725 11.9917H28.5149L29.9834 13.8834V19.0841H27.1935C26.6365 19.0841 26.1851 19.5355 26.1851 20.0925C26.1851 20.6495 26.6365 21.1008 27.1935 21.1008H30.9918C31.5488 21.1008 32.0002 20.6494 32.0002 20.0925V13.538C32.0002 13.3141 31.9256 13.0963 31.7885 12.9195Z" fill="#46382C"/>
<path d="M7.29452 13.9746H2.65584C2.09884 13.9746 1.64746 14.426 1.64746 14.983C1.64746 15.54 2.0989 15.9914 2.65584 15.9914H7.29446C7.85146 15.9914 8.30284 15.5399 8.30284 14.983C8.3029 14.426 7.85146 13.9746 7.29452 13.9746Z" fill="#46382C"/>
<path d="M9.61344 10.0083H1.00838C0.451438 10.0083 0 10.4597 0 11.0167C0 11.5737 0.451438 12.0251 1.00838 12.0251H9.61344C10.1704 12.0251 10.6218 11.5737 10.6218 11.0167C10.6218 10.4598 10.1704 10.0083 9.61344 10.0083Z" fill="#46382C"/>
<path d="M11.2609 6.04199H2.65584C2.09884 6.04199 1.64746 6.49343 1.64746 7.05037C1.64746 7.60737 2.0989 8.05874 2.65584 8.05874H11.2609C11.8179 8.05874 12.2693 7.6073 12.2693 7.05037C12.2693 6.49343 11.8179 6.04199 11.2609 6.04199Z" fill="#46382C"/>
</svg>
