<svg width="40" height="40" viewBox="0 0 40 40" fill="none" xmlns="http://www.w3.org/2000/svg">
<g clip-path="url(#clip0)">
<path d="M12.9688 23.5156C13.616 23.5156 14.1406 22.991 14.1406 22.3438C14.1406 21.6965 13.616 21.1719 12.9688 21.1719C12.3215 21.1719 11.7969 21.6965 11.7969 22.3438C11.7969 22.991 12.3215 23.5156 12.9688 23.5156Z" fill="#56BA72"/>
<path d="M27.0312 23.5156C27.6785 23.5156 28.2031 22.991 28.2031 22.3438C28.2031 21.6965 27.6785 21.1719 27.0312 21.1719C26.384 21.1719 25.8594 21.6965 25.8594 22.3438C25.8594 22.991 26.384 23.5156 27.0312 23.5156Z" fill="#56BA72"/>
<path d="M36.9753 0.147504C36.6034 -0.0591363 36.1486 -0.0479645 35.7871 0.176879L26.8369 5.74499C25.1978 6.7646 24.0417 8.4696 23.6561 10.3921C23.3307 10.5599 23.0429 10.7208 22.6966 10.9087C22.6935 10.9104 22.6904 10.9119 22.6873 10.9137C21.7882 11.4012 20.9779 11.7969 20 11.7969C19.0218 11.7969 18.2114 11.401 17.312 10.9133C17.3094 10.9119 17.3068 10.9105 17.3042 10.909C16.9486 10.716 16.6657 10.558 16.344 10.3919C15.9583 8.46944 14.8022 6.76452 13.1631 5.74492L4.21281 0.176879C3.85133 -0.0480426 3.39648 -0.0591363 3.02461 0.147504C2.65258 0.354222 2.42188 0.746331 2.42188 1.17195V11.7969C2.42188 14.7986 4.34375 17.4478 7.10937 18.4266V27.0313C7.10937 29.2296 7.98538 31.3166 9.53288 32.8524C9.48061 33.2778 9.45311 33.708 9.45311 34.1406V36.4844C9.45311 38.4417 11.0647 40.0177 13.0338 39.9996C14.3876 39.9891 15.6648 39.6429 16.789 39.0411C17.7378 39.6633 18.8509 40 20 40C21.149 40 22.2621 39.6633 23.2109 39.0411C24.3351 39.6429 25.6124 39.9891 26.9662 39.9996C26.9758 39.9997 26.9853 39.9997 26.995 39.9997C28.9548 39.9996 30.5468 38.4316 30.5468 36.4844V34.1406C30.5468 33.7079 30.5193 33.2778 30.4671 32.8524C32.0146 31.3165 32.8906 29.2296 32.8906 27.0313V18.4266C35.6562 17.4478 37.5781 14.7986 37.5781 11.7969V1.17195C37.5781 0.746331 37.3474 0.354222 36.9753 0.147504ZM7.10937 15.5401V15.8558C5.69515 15.0353 4.76562 13.5016 4.76562 11.7969V3.28109L11.925 7.73499C12.5969 8.15304 13.1559 8.76655 13.5442 9.48124C13.278 9.45538 13.0016 9.44647 12.7134 9.45858C9.55194 9.59225 7.10937 12.3472 7.10937 15.5401ZM10.2801 30.033C9.74436 29.1357 9.45311 28.102 9.45311 27.0313C9.45311 25.269 9.45311 17.3229 9.45311 15.5401C9.45311 13.5562 10.9601 11.8786 12.8125 11.8003C13.5987 11.7666 14.274 11.9904 14.9604 12.3201C14.4265 13.2148 14.1406 14.2394 14.1406 15.3126C14.1406 16.5339 14.5129 17.7046 15.2172 18.698C16.139 19.9985 16.429 21.3848 16.0126 22.5014C15.5434 23.7595 14.7147 24.8528 13.5496 25.7509C12.099 26.869 10.9794 28.3579 10.2801 30.033ZM20 37.6563C19.6086 37.6563 19.2244 37.5908 18.8611 37.4664C19.2938 37.0144 19.6769 36.5136 20 35.9725C20.323 36.5136 20.7061 37.0143 21.1389 37.4664C20.7755 37.5907 20.3913 37.6563 20 37.6563ZM20 30.5469C19.3604 30.5469 18.839 30.0321 18.8282 29.3951C19.0494 29.3685 19.4174 29.3714 19.6809 29.3734C19.8897 29.375 20.1103 29.375 20.319 29.3734C20.5828 29.3714 20.9505 29.3685 21.1717 29.3951C21.161 30.0321 20.6395 30.5469 20 30.5469ZM28.2031 36.4844C28.2031 37.1331 27.6621 37.6559 26.9943 37.6559C26.991 37.6559 26.9877 37.6559 26.9843 37.6559C24.0957 37.6335 21.6932 35.4674 21.247 32.6613C22.5717 32.157 23.5156 30.8745 23.5156 29.375C23.5156 28.6764 23.3061 28.1143 22.893 27.7045C22.198 27.0149 21.2333 27.0261 20.3007 27.0336C20.1038 27.0352 19.896 27.0352 19.6992 27.0336C18.7658 27.0262 17.8018 27.015 17.1068 27.7045C16.6937 28.1144 16.4843 28.6764 16.4843 29.375C16.4843 30.8745 17.4283 32.157 18.7528 32.6613C18.3065 35.4674 15.9042 37.6335 13.0155 37.6559C13.0122 37.6559 13.0088 37.6559 13.0055 37.6559C12.3398 37.6559 11.7967 37.1352 11.7967 36.4844V34.1406C11.7967 31.5863 12.9868 29.1439 14.9804 27.6071C16.4977 26.4375 17.5838 24.9952 18.2084 23.3203C18.9002 21.465 18.5068 19.2862 17.1291 17.3425C16.7072 16.7475 16.4842 16.0454 16.4842 15.3126C16.4842 14.6252 16.6797 13.9711 17.0433 13.4094C17.8963 13.8134 18.8557 14.1407 19.9998 14.1407C21.1439 14.1407 22.1033 13.8135 22.9564 13.4094C23.3199 13.971 23.5154 14.6252 23.5154 15.3126C23.5154 16.0458 23.2922 16.7482 22.8699 17.3436C21.4914 19.2868 21.0979 21.4654 21.7901 23.3207C22.4148 24.9949 23.5012 26.4371 25.0193 27.6072C27.013 29.1439 28.2031 31.5863 28.2031 34.1406V36.4844ZM30.5468 27.0313C30.5468 28.102 30.2556 29.1357 29.7199 30.0331C29.0205 28.358 27.9009 26.869 26.4503 25.7509C25.2845 24.8521 24.4554 23.7589 23.9862 22.5014C23.5697 21.385 23.8597 19.9993 24.7818 18.6995C25.4868 17.7056 25.8593 16.5344 25.8593 15.3126C25.8593 14.2394 25.5735 13.2148 25.0395 12.32C25.7253 11.9904 26.3999 11.7666 27.1875 11.8003C29.0398 11.8786 30.5468 13.5563 30.5468 15.5401V27.0313ZM35.2343 11.7969C35.2343 13.5017 34.3048 15.0354 32.8906 15.8559V15.5401C32.8906 12.3503 30.4513 9.59248 27.2865 9.45866C26.9983 9.44663 26.7218 9.45569 26.4556 9.48163C26.8439 8.76686 27.4029 8.15319 28.075 7.73515L35.2343 3.28109V11.7969Z" fill="#56BA72"/>
</g>
<defs>
<clipPath id="clip0">
<rect width="40" height="40" fill="white"/>
</clipPath>
</defs>
</svg>
