<svg width="20" height="20" viewBox="0 0 20 20" fill="none" xmlns="http://www.w3.org/2000/svg">
<path d="M9.16667 13.333L5.83333 9.99967M5.83333 9.99967L9.16667 6.66634M5.83333 9.99967H17.5M13.3333 13.333V14.1663C13.3333 14.8294 13.0699 15.4653 12.6011 15.9341C12.1323 16.4029 11.4964 16.6663 10.8333 16.6663H5C4.33696 16.6663 3.70107 16.4029 3.23223 15.9341C2.76339 15.4653 2.5 14.8294 2.5 14.1663V5.83301C2.5 5.16997 2.76339 4.53408 3.23223 4.06524C3.70107 3.5964 4.33696 3.33301 5 3.33301H10.8333C11.4964 3.33301 12.1323 3.5964 12.6011 4.06524C13.0699 4.53408 13.3333 5.16997 13.3333 5.83301V6.66634" stroke="#92887B" stroke-width="1.3" stroke-linecap="round" stroke-linejoin="round"/>
</svg>
