<svg width="40" height="40" viewBox="0 0 40 40" fill="none" xmlns="http://www.w3.org/2000/svg">
<g clip-path="url(#clip0)">
<path d="M34.043 8.23738H28.252V5.18074C28.252 2.97293 26.4558 1.17676 24.248 1.17676H15.752C13.5442 1.17676 11.748 2.97293 11.748 5.18074V8.2373H5.95695C2.67227 8.23738 0 10.9096 0 14.1943V32.8664C0 36.151 2.67227 38.8233 5.95695 38.8233H34.043C37.3277 38.8233 40 36.151 40 32.8664V14.1943C40 10.9096 37.3277 8.23738 34.043 8.23738ZM14.0918 5.18074C14.0918 4.26527 14.8366 3.52051 15.752 3.52051H24.248C25.1634 3.52051 25.9082 4.26527 25.9082 5.18074V8.2373H14.0918V5.18074ZM2.34375 32.8663V14.1943C2.34375 12.6121 3.36641 11.2652 4.78508 10.7773V36.2835C3.36641 35.7954 2.34375 34.4485 2.34375 32.8663ZM7.12883 36.4796V10.5811H32.8712V36.4796H7.12883ZM37.6562 32.8663C37.6562 34.4485 36.6336 35.7954 35.2149 36.2833V10.7772C36.6336 11.2652 37.6562 12.6121 37.6562 14.1943V32.8663Z" fill="#56BA72"/>
<path d="M27.0605 20.0049H23.5254V16.4697C23.5254 15.8225 23.0007 15.2979 22.3535 15.2979H17.6465C16.9993 15.2979 16.4746 15.8225 16.4746 16.4697V20.0049H12.9395C12.2923 20.0049 11.7676 20.5296 11.7676 21.1768V25.8838C11.7676 26.531 12.2923 27.0557 12.9395 27.0557H16.4746V30.5908C16.4746 31.238 16.9993 31.7627 17.6465 31.7627H22.3535C23.0007 31.7627 23.5254 31.238 23.5254 30.5908V27.0557H27.0605C27.7077 27.0557 28.2324 26.531 28.2324 25.8838V21.1768C28.2324 20.5296 27.7077 20.0049 27.0605 20.0049ZM25.8887 24.7119H22.3535C21.7063 24.7119 21.1816 25.2366 21.1816 25.8838V29.4189H18.8184V25.8838C18.8184 25.2366 18.2937 24.7119 17.6465 24.7119H14.1113V22.3486H17.6465C18.2937 22.3486 18.8184 21.8239 18.8184 21.1768V17.6416H21.1816V21.1768C21.1816 21.8239 21.7063 22.3486 22.3535 22.3486H25.8887V24.7119Z" fill="#56BA72"/>
</g>
<defs>
<clipPath id="clip0">
<rect width="40" height="40" fill="white"/>
</clipPath>
</defs>
</svg>
