<svg width="40" height="40" viewBox="0 0 40 40" fill="none" xmlns="http://www.w3.org/2000/svg">
<g clip-path="url(#clip0)">
<path d="M31.2605 15.0874C30.5856 15.0874 30.0791 15.626 30.0791 16.2588C30.0791 16.8906 30.5846 17.4303 31.2605 17.4303C31.9074 17.4303 32.4319 16.9058 32.4319 16.2588C32.4319 15.6119 31.9075 15.0874 31.2605 15.0874Z" fill="#56BA72"/>
<path d="M39.9835 23.5733C38.6174 14.6721 33.8972 7.89262 25.0563 6.18068C24.4451 4.98808 23.3108 3.23724 21.449 1.90383C18.1427 -0.464198 14.172 -0.422572 10.287 0.932706C9.12054 1.33959 9.27415 2.96156 10.423 3.1932C13.1865 3.81468 14.3468 5.19854 15.0179 6.40411C12.6561 6.93079 11.2168 7.57719 9.56514 8.66874C1.27806 14.1391 -1.09052 21.5572 0.436885 27.7838C0.437041 27.7844 0.437275 27.7849 0.437431 27.7856C2.22778 35.0768 9.71305 39.6421 10.0308 39.8329C10.2093 39.94 10.4141 40 10.6436 40C10.9719 40 13.0328 39.9306 14.4634 38.2456C15.7278 36.7564 16.0876 34.5395 15.5327 31.6566C15.3921 30.9256 14.603 30.5027 13.9095 30.8062C13.8902 30.8147 11.9463 31.6525 9.57576 31.5635C6.72783 31.4563 4.48882 30.085 2.91237 27.4852C3.3191 26.7782 4.17159 25.4679 5.44799 24.3539C7.77557 22.3226 10.4279 21.8579 13.3316 22.9729C13.5783 23.0707 17.466 24.595 22.5488 25.6077C27.767 26.6473 33.9783 27.1133 38.895 25.0079C39.3033 24.833 39.5939 24.731 39.8138 24.3863C39.9681 24.1446 40.0282 23.8562 39.9835 23.5733ZM13.4157 33.437C13.525 34.8854 13.2813 36.003 12.6939 36.7096C12.1324 37.385 11.3572 37.5792 10.9422 37.6349C10.1473 37.1088 7.89162 35.5142 5.89822 33.1442C8.28116 34.1247 10.9481 34.1059 13.4157 33.437ZM25.904 23.7935C24.8991 21.9129 23.2797 18.1167 24.2719 14.6172C24.838 12.621 26.2127 10.9634 28.3616 9.68336C33.7034 12.1651 36.4212 17.2046 37.5143 23.0404C33.979 24.3956 29.6412 24.3031 25.904 23.7935ZM22.0962 5.81472C20.3268 5.71382 18.7184 5.82081 17.4349 5.98294C16.9436 4.95848 16.1596 3.52385 14.4819 2.38123C18.4129 2.05674 20.7689 3.9929 22.0962 5.81472ZM14.1908 20.7933C10.0628 19.1421 5.73109 20.1243 2.37585 24.1666C2.4092 20.6654 3.82336 15.2662 10.8564 10.6237C11.6924 10.0712 12.3931 9.695 13.128 9.40425C14.8826 8.71013 17.074 8.32543 18.9482 8.18455C21.1955 8.01961 23.492 8.15854 25.6389 8.71372C20.9811 12.3899 20.7257 17.8727 23.0777 23.3184C18.1331 22.3376 14.2671 20.8236 14.1908 20.7933Z" fill="#56BA72"/>
</g>
<defs>
<clipPath id="clip0">
<rect width="40" height="40" fill="white"/>
</clipPath>
</defs>
</svg>
