<svg width="40" height="40" viewBox="0 0 40 40" fill="none" xmlns="http://www.w3.org/2000/svg">
<path d="M15.3125 21.25C15.9597 21.25 16.4844 20.7253 16.4844 20.0781C16.4844 19.4309 15.9597 18.9062 15.3125 18.9062C14.6653 18.9062 14.1406 19.4309 14.1406 20.0781C14.1406 20.7253 14.6653 21.25 15.3125 21.25Z" fill="#56BA72"/>
<path d="M24.6875 18.9062C24.0403 18.9062 23.5156 19.4309 23.5156 20.0781C23.5156 20.7253 24.0403 21.25 24.6875 21.25C25.3347 21.25 25.9375 20.7253 25.9375 20.0781C25.9375 19.4309 25.3347 18.9062 24.6875 18.9062Z" fill="#56BA72"/>
<path d="M35.3125 18.9841V17.7344C35.3125 16.0631 35.043 14.4291 34.5252 12.8811C36.4544 11.589 37.6562 9.38969 37.6562 7.03125C37.6562 3.15422 34.502 0 30.625 0C28.2388 0 26.023 1.18852 24.7212 3.09844C23.2134 2.60211 21.6248 2.34375 20 2.34375C18.3745 2.34375 16.787 2.60281 15.282 3.10063C13.9872 1.18937 11.7991 0 9.45312 0C5.57609 0 2.42188 3.15422 2.42188 7.03125C2.42188 9.38711 3.62102 11.5839 5.54641 12.8766C5.03297 14.4254 4.76562 16.0609 4.76562 17.7344V18.9832C1.77016 21.2198 0 24.6512 0 28.2812C0 34.743 5.29203 40 11.7969 40C13.7041 40 15.5574 39.5332 17.2268 38.6413C17.8706 39.4673 18.874 40 20 40C21.1277 40 22.1323 39.4657 22.776 38.6377C24.4518 39.5219 26.3633 40 28.2812 40C34.743 40 40 34.743 40 28.2812C40 24.6232 38.2592 21.1931 35.3125 18.9841ZM30.625 2.34375C33.2097 2.34375 35.3125 4.44656 35.3125 7.03125C35.3125 8.45203 34.658 9.78602 33.583 10.6658C32.131 7.88313 29.8005 5.51648 26.9473 4.03586C27.8373 2.98297 29.1838 2.34375 30.625 2.34375ZM4.76562 7.03125C4.76562 4.44656 6.86844 2.34375 9.45312 2.34375C10.8596 2.34375 12.1813 2.98484 13.0613 4.0407C10.2192 5.52437 7.91742 7.88758 6.48328 10.6563C5.41516 9.77641 4.76562 8.44687 4.76562 7.03125ZM21.1719 36.4844C21.1719 37.1305 20.6462 37.6562 20 37.6562C19.3538 37.6562 18.8281 37.1305 18.8281 36.4844V35.1109C19.2646 34.9561 19.6617 34.7177 20 34.4145C20.3383 34.7177 20.7354 34.9561 21.1719 35.1109V36.4844ZM18.9025 26.6984C19.0694 26.2543 19.4984 25.9375 20 25.9375C20.5016 25.9375 20.9306 26.2543 21.0975 26.6984L20 27.7959L18.9025 26.6984ZM28.2812 37.6562C26.6042 37.6562 24.9363 37.2018 23.5156 36.3677V35.1109C24.8796 34.6272 25.8594 33.3246 25.8594 31.7969C25.8594 31.1497 25.3347 30.625 24.6875 30.625C24.0403 30.625 23.5156 31.1497 23.5156 31.7969C23.5156 32.443 22.9899 32.9688 22.3438 32.9688C21.6976 32.9688 21.1719 32.443 21.1719 31.7969V29.9385L23.1723 27.938C23.3922 27.7182 23.5156 27.4202 23.5156 27.1094C23.5156 25.1709 21.9385 23.5938 20 23.5938C18.0615 23.5938 16.4844 25.1709 16.4844 27.1094C16.4844 27.4202 16.6079 27.7182 16.8277 27.938L18.8281 29.9385V31.7969C18.8281 32.443 18.3024 32.9688 17.6562 32.9688C17.0101 32.9688 16.4844 32.443 16.4844 31.7969C16.4844 31.1497 15.9597 30.625 15.3125 30.625C14.6653 30.625 14.1406 31.1497 14.1406 31.7969C14.1406 33.3246 15.1204 34.6272 16.4844 35.1109V36.3695C15.062 37.2128 13.4547 37.6562 11.7969 37.6562C6.58437 37.6562 2.34375 33.4506 2.34375 28.2812C2.34375 25.2292 3.93102 22.3438 6.58969 20.5628C6.91445 20.3452 7.10938 19.9801 7.10938 19.5892V17.7344C7.10938 10.5403 12.8921 4.6875 20 4.6875C27.1509 4.6875 32.9688 10.5403 32.9688 17.7344V19.5892C32.9688 19.9801 33.1637 20.3453 33.4884 20.5628C36.0982 22.311 37.6562 25.1964 37.6562 28.2812C37.6562 33.4506 33.4506 37.6562 28.2812 37.6562Z" fill="#56BA72"/>
</svg>
