<svg width="25" height="23" viewBox="0 0 25 23" fill="none" xmlns="http://www.w3.org/2000/svg">
<path fill-rule="evenodd" clip-rule="evenodd" d="M13.1367 22.1597L13.1505 22.1454L22.9556 12.6081C25.6815 9.66794 25.6815 5.12392 22.9555 2.18381C21.6624 0.793912 19.8505 0.00307734 17.9521 0.000145606C16.1074 0.00228048 14.3438 0.747467 13.0575 2.0632C13.019 2.1026 12.9809 2.14251 12.9432 2.18292L12.5018 2.64933L12.0605 2.18292C12.0228 2.1424 11.9848 2.10243 11.9464 2.06302C10.6956 0.779431 9.05604 0.0901028 7.38804 0.00826461C7.16677 -0.00259188 6.94499 -0.00275768 6.72356 0.00779808C5.16811 0.0819472 3.6295 0.68514 2.39941 1.82808C2.27685 1.942 2.15848 2.06031 2.04457 2.18292C-0.340761 4.75579 -0.638927 8.55662 1.15007 11.4365C1.40564 11.8479 1.70381 12.2405 2.04457 12.6081L11.8532 22.1454C12.1925 22.5037 12.758 22.519 13.1163 22.1797L13.1303 22.1661L13.1367 22.1597Z" fill="#56BA72"/>
</svg>
