<svg width="30" height="30" viewBox="0 0 30 30" fill="none" xmlns="http://www.w3.org/2000/svg">
<path d="M27.5466 3.6821C25.9949 2.01422 23.8206 1.06522 21.5425 1.0617C19.2626 1.06434 17.086 2.01284 15.5319 3.68103L15.0022 4.24072L14.4725 3.68103C11.3888 0.362041 6.19822 0.171436 2.87929 3.25522C2.73222 3.39192 2.59018 3.5339 2.45348 3.68103C-0.817827 7.20954 -0.817827 12.6627 2.45348 16.1912L14.2238 27.636C14.631 28.0659 15.3097 28.0843 15.7395 27.6771C15.7536 27.6638 15.7673 27.6501 15.7806 27.636L27.5467 16.1912C30.8178 12.6631 30.8178 7.21023 27.5466 3.6821ZM25.9952 14.7148H25.9942L15.0022 25.3405L4.00922 14.7148C1.51013 12.0187 1.51013 7.85246 4.00922 5.15636C6.27869 2.6966 10.1126 2.54237 12.5723 4.81184C12.6918 4.92203 12.8067 5.03694 12.9169 5.15636L14.2238 6.5352C14.6545 6.96315 15.3499 6.96315 15.7806 6.5352L17.0876 5.15743C19.3571 2.69767 23.191 2.54344 25.6507 4.81291C25.7701 4.9231 25.885 5.038 25.9952 5.15743C28.5161 7.8578 28.5345 12.0316 25.9952 14.7148Z" fill="#56BA72"/>
<path fill-rule="evenodd" clip-rule="evenodd" d="M15.7395 27.6771C15.7536 27.6638 15.7673 27.6501 15.7806 27.636L27.5467 16.1912C30.8178 12.6631 30.8178 7.21023 27.5466 3.6821C25.9949 2.01422 23.8206 1.06522 21.5425 1.0617C19.3289 1.06426 17.2126 1.95848 15.669 3.53737C15.6227 3.58464 15.577 3.63253 15.5319 3.68103L15.0022 4.24072L14.4725 3.68103C14.4274 3.6324 14.3817 3.58444 14.3356 3.53715C11.237 0.357158 6.14959 0.216623 2.87929 3.25522C2.73222 3.39192 2.59018 3.5339 2.45348 3.68103C-0.817827 7.20954 -0.817827 12.6627 2.45348 16.1912L14.2238 27.636C14.631 28.0659 15.3097 28.0843 15.7395 27.6771ZM3.14659 15.5153L14.9127 26.9561L14.9264 26.9705C14.9661 27.0124 15.0322 27.0142 15.074 26.9745L15.0778 26.9708L15.0915 26.9563L26.8535 15.5154C29.7638 12.3581 29.7585 7.49178 26.8376 4.34072C25.4689 2.86989 23.5514 2.0329 21.5423 2.02944C19.531 2.03213 17.6109 2.86903 16.2399 4.34069L16.2348 4.34623L15.0022 5.64864L13.7636 4.33977C11.0436 1.41238 6.46554 1.24419 3.53815 3.96404M3.14659 15.5153C0.236072 12.3576 0.241469 7.49078 3.16278 4.33937C3.28311 4.20988 3.40841 4.08464 3.53815 3.96404M26.3854 15.6825L15.0022 26.6864L3.31755 15.3921L3.29949 15.3727C0.456648 12.3057 0.45639 7.56658 3.29871 4.49933C5.93071 1.64751 10.3763 1.46894 13.2286 4.10059C13.3654 4.22685 13.4972 4.35846 13.6235 4.49518L14.9114 5.8539C14.9632 5.89994 15.0414 5.89992 15.0931 5.85383L16.381 4.49612C19.0135 1.6484 23.4561 1.47132 26.3069 4.10165C26.4447 4.2288 26.5774 4.36137 26.7046 4.49912C29.5666 7.56707 29.5939 12.3201 26.6981 15.38L26.4118 15.6825H26.3854ZM15.7806 6.5352C15.3499 6.96315 14.6545 6.96315 14.2238 6.5352L12.9169 5.15636C12.8067 5.03694 12.6918 4.92203 12.5723 4.81184C10.1126 2.54237 6.27869 2.6966 4.00922 5.15636C1.51013 7.85246 1.51013 12.0187 4.00922 14.7148L15.0022 25.3405L25.9942 14.7148H25.9952C28.5345 12.0316 28.5161 7.8578 25.9952 5.15743C25.885 5.038 25.7701 4.9231 25.6507 4.81291C23.191 2.54344 19.3571 2.69767 17.0876 5.15743L15.7806 6.5352Z" fill="#56BA72"/>
</svg>
