<svg width="32" height="32" viewBox="0 0 32 32" fill="none" xmlns="http://www.w3.org/2000/svg">
<path d="M27.3137 4.68625C24.2917 1.66431 20.2738 0 16 0C11.7262 0 7.70831 1.66431 4.68625 4.68625C1.66431 7.70831 0 11.7262 0 16C0 20.2738 1.66431 24.2917 4.68625 27.3137C7.70831 30.3357 11.7262 32 16 32C20.2738 32 24.2917 30.3357 27.3137 27.3137C30.3357 24.2917 32 20.2738 32 16C32 11.7262 30.3357 7.70831 27.3137 4.68625ZM16 30.125C8.21144 30.125 1.875 23.7886 1.875 16C1.875 8.21144 8.21144 1.875 16 1.875C23.7886 1.875 30.125 8.21144 30.125 16C30.125 23.7886 23.7886 30.125 16 30.125Z" fill="#46382C"/>
<path d="M26.5625 20.8749L21.5625 17.1249C21.2785 16.9119 20.8984 16.8775 20.5807 17.0364C20.2631 17.1952 20.0625 17.5198 20.0625 17.8749V18.8124H19.0621C18.6918 18.8124 18.3553 18.5939 18.205 18.256L17.2025 15.9999L18.2048 13.7444C18.3553 13.4061 18.6918 13.1875 19.0621 13.1875H20.0625V14.125C20.0625 14.4801 20.2631 14.8048 20.5807 14.9635C20.8982 15.1223 21.2784 15.0881 21.5625 14.875L26.5625 11.125C26.7986 10.9479 26.9375 10.6701 26.9375 10.375C26.9375 10.0799 26.7986 9.80206 26.5625 9.625L21.5625 5.875C21.2785 5.662 20.8984 5.62763 20.5807 5.7865C20.2631 5.94519 20.0625 6.26981 20.0625 6.62494V7.56244H19.0621C17.1367 7.56244 15.3429 8.40744 14.1164 9.8125C12.8863 8.39938 11.0995 7.56244 9.18787 7.56244H7.25C6.73225 7.56244 6.3125 7.98219 6.3125 8.49994V12.2499C6.3125 12.7677 6.73225 13.1874 7.25 13.1874H9.18787C9.55812 13.1874 9.89469 13.406 10.045 13.7439L11.0475 15.9999L10.0452 18.2556C9.89463 18.5939 9.55812 18.8124 9.18787 18.8124H7.25C6.73225 18.8124 6.3125 19.2322 6.3125 19.7499V23.4999C6.3125 24.0177 6.73225 24.4374 7.25 24.4374H9.18787C11.1132 24.4374 12.9071 23.5924 14.1336 22.1874C15.3637 23.6005 17.1506 24.4374 19.0621 24.4374H20.0625V25.3749C20.0625 25.7301 20.2631 26.0547 20.5807 26.2134C20.7134 26.2798 20.8569 26.3124 20.9999 26.3124C21.1991 26.3124 21.3971 26.249 21.5625 26.1249L26.5625 22.3749C26.7986 22.1979 26.9375 21.9201 26.9375 21.6249C26.9375 21.3298 26.7986 21.052 26.5625 20.8749ZM11.7583 12.9821C11.307 11.9678 10.2981 11.3124 9.18787 11.3124H8.1875V9.43744H9.18787C10.7418 9.43744 12.1818 10.2145 13.0499 11.4938L12.0734 13.6913L11.7583 12.9821ZM9.18787 22.5624H8.1875V20.6874H9.18787C10.2981 20.6874 11.307 20.0321 11.7584 19.0173L14.7785 12.221C15.5297 10.53 17.2111 9.43744 19.0621 9.43744H21C21.5177 9.43744 21.9375 9.01769 21.9375 8.49994L24.4375 10.3749L21.9375 12.2499C21.9375 11.7322 21.5177 11.3124 21 11.3124H19.0621C17.9519 11.3124 16.9431 11.9678 16.4915 12.9826L13.4714 19.7789C12.7203 21.4699 11.0389 22.5624 9.18787 22.5624ZM21.9375 23.4999C21.9375 22.9822 21.5177 22.5624 21 22.5624H19.0621C17.5082 22.5624 16.0682 21.7854 15.2001 20.5061L16.1766 18.3086L16.4918 19.0178C16.9431 20.0321 17.9519 20.6874 19.0621 20.6874H21C21.5177 20.6874 21.9375 20.2677 21.9375 19.7499L24.4375 21.6249L21.9375 23.4999Z" fill="#46382C"/>
</svg>
