<svg width="31" height="24" viewBox="0 0 31 24" fill="none" xmlns="http://www.w3.org/2000/svg">
<g clip-path="url(#clip0)">
<path d="M26.1728 23.6742V23.7365H26.2306C26.2438 23.7365 26.2543 23.7338 26.2622 23.7289C26.2699 23.7238 26.2739 23.7158 26.2739 23.7049C26.2739 23.6948 26.2699 23.6872 26.2622 23.6818C26.2542 23.6769 26.2438 23.6741 26.2306 23.6741H26.1728V23.6742ZM26.2311 23.6305C26.2614 23.6305 26.2846 23.6372 26.3008 23.6504C26.3174 23.6639 26.3253 23.6819 26.3253 23.7049C26.3253 23.7243 26.3189 23.7405 26.3058 23.753C26.2928 23.7654 26.2745 23.773 26.2502 23.7759L26.3271 23.8641H26.267L26.1959 23.7767H26.1728V23.8641H26.1227V23.6305H26.2311H26.2311ZM26.2162 23.9444C26.2436 23.9444 26.2689 23.9394 26.2926 23.9291C26.3163 23.9187 26.3367 23.9047 26.3546 23.8872C26.3724 23.8695 26.3862 23.8486 26.3963 23.8247C26.4065 23.8009 26.4116 23.7754 26.4116 23.7481C26.4116 23.7211 26.4065 23.6958 26.3963 23.6719C26.3862 23.6481 26.3724 23.6272 26.3546 23.6094C26.3367 23.5919 26.3162 23.5782 26.2926 23.5679C26.2689 23.5578 26.2436 23.5528 26.2162 23.5528C26.1885 23.5528 26.1627 23.5578 26.1385 23.5679C26.1142 23.5782 26.0935 23.592 26.0757 23.6094C26.0578 23.6272 26.0441 23.6481 26.034 23.6719C26.0239 23.6958 26.0188 23.7211 26.0188 23.7481C26.0188 23.7754 26.0239 23.8009 26.034 23.8247C26.0441 23.8486 26.0579 23.8695 26.0757 23.8872C26.0935 23.9047 26.1143 23.9187 26.1385 23.9291C26.1627 23.9394 26.1885 23.9444 26.2162 23.9444ZM26.2162 23.4964C26.2519 23.4964 26.2851 23.5031 26.3165 23.5163C26.3477 23.5295 26.3748 23.5474 26.3982 23.5705C26.4214 23.5932 26.44 23.6199 26.4533 23.6504C26.4667 23.6811 26.4736 23.7137 26.4736 23.7481C26.4736 23.7828 26.4667 23.8154 26.4533 23.8459C26.44 23.876 26.4214 23.9028 26.3982 23.9256C26.3748 23.9484 26.3477 23.9664 26.3165 23.9799C26.2851 23.9931 26.2519 24 26.2162 24C26.1799 24 26.1459 23.9931 26.1142 23.9799C26.0829 23.9664 26.0554 23.9485 26.0322 23.9256C26.0091 23.9028 25.9907 23.876 25.9775 23.8459C25.9639 23.8154 25.9572 23.7829 25.9572 23.7481C25.9572 23.7137 25.9639 23.6811 25.9775 23.6504C25.9907 23.6199 26.0091 23.5932 26.0322 23.5705C26.0554 23.5474 26.0828 23.5296 26.1142 23.5163C26.1459 23.5031 26.1799 23.4964 26.2162 23.4964ZM22.3897 21.2727C22.5013 21.2727 22.6609 21.2938 22.783 21.3416L22.6129 21.8599C22.496 21.8123 22.3791 21.7965 22.2675 21.7965C21.906 21.7965 21.7253 22.0292 21.7253 22.4471V23.8647H21.1726V21.3363H21.72V21.643C21.8635 21.4209 22.0708 21.2727 22.3897 21.2727H22.3897ZM20.4769 21.8388H19.5734V22.9813C19.5734 23.2351 19.6637 23.4046 19.9402 23.4046C20.0836 23.4046 20.2644 23.3569 20.4291 23.2616L20.5885 23.7325C20.4131 23.8541 20.1368 23.9282 19.8976 23.9282C19.244 23.9282 19.0154 23.5791 19.0154 22.992V21.8388H18.4999V21.3363H19.0154L19.0153 20.5693H19.5733L19.5734 21.3363H20.4769V21.8388ZM17.821 21.9816C17.6669 21.8864 17.3533 21.7648 17.0291 21.7648C16.7262 21.7648 16.5455 21.8759 16.5455 22.0609C16.5455 22.2303 16.7369 22.2778 16.976 22.3096L17.2365 22.3465C17.7891 22.4258 18.1239 22.6587 18.1239 23.1029C18.1239 23.5842 17.6989 23.9282 16.9653 23.9282C16.5509 23.9282 16.1681 23.8223 15.8653 23.6L16.1257 23.1717C16.3118 23.3146 16.588 23.4361 16.9707 23.4361C17.348 23.4361 17.55 23.325 17.55 23.1293C17.55 22.9865 17.4064 22.9071 17.1036 22.865L16.8432 22.828C16.2745 22.7486 15.9663 22.4945 15.9663 22.082C15.9663 21.5795 16.3807 21.2727 17.0239 21.2727C17.4278 21.2727 17.7945 21.3626 18.0602 21.5373L17.821 21.9815L17.821 21.9816ZM13.6014 22.3782C13.6598 22.0133 13.883 21.7648 14.2762 21.7648C14.6323 21.7648 14.8608 21.9868 14.9194 22.3782H13.6014ZM15.4933 22.6005C15.488 21.8123 14.9992 21.2727 14.287 21.2727C13.5429 21.2727 13.0221 21.8123 13.0221 22.6005C13.0221 23.4046 13.5642 23.9282 14.3242 23.9282C14.7069 23.9282 15.0577 23.8329 15.3658 23.5738L15.0949 23.1665C14.8823 23.3358 14.6112 23.4309 14.356 23.4309C14 23.4309 13.6758 23.2668 13.596 22.8121H15.4826C15.488 22.7432 15.4933 22.6747 15.4933 22.6005ZM24.3126 21.7899C24.1996 21.7899 24.0942 21.8097 23.997 21.8493C23.8997 21.889 23.8159 21.9444 23.745 22.0156C23.6743 22.087 23.6187 22.1723 23.5779 22.2718C23.5372 22.3712 23.517 22.4808 23.517 22.6006C23.517 22.7202 23.5372 22.8299 23.5779 22.9293C23.6187 23.0285 23.6743 23.1141 23.745 23.1853C23.8159 23.2566 23.8997 23.312 23.997 23.3517C24.0942 23.3914 24.1996 23.4111 24.3126 23.4111C24.4257 23.4111 24.5311 23.3914 24.6282 23.3517C24.7256 23.3119 24.81 23.2566 24.8816 23.1853C24.9532 23.1141 25.0094 23.0286 25.05 22.9293C25.0908 22.8299 25.1113 22.7202 25.1113 22.6006C25.1113 22.4808 25.0908 22.3713 25.05 22.2718C25.0094 22.1723 24.9532 22.087 24.8816 22.0156C24.81 21.9444 24.7257 21.889 24.6282 21.8493C24.5311 21.8097 24.4257 21.7899 24.3126 21.7899ZM24.3126 21.2697C24.509 21.2697 24.6908 21.3037 24.8579 21.3714C25.025 21.4391 25.1695 21.5325 25.2914 21.6513C25.4135 21.7701 25.5091 21.9105 25.5781 22.0724C25.6469 22.2344 25.6816 22.4104 25.6816 22.6005C25.6816 22.7907 25.6469 22.9665 25.5781 23.1283C25.5091 23.2905 25.4135 23.4309 25.2914 23.5498C25.1695 23.6685 25.025 23.7617 24.8579 23.8295C24.6908 23.8973 24.509 23.9311 24.3126 23.9311C24.1165 23.9311 23.9348 23.8973 23.7676 23.8295C23.6002 23.7617 23.4563 23.6685 23.3352 23.5498C23.2139 23.4309 23.1188 23.2905 23.0499 23.1283C22.981 22.9665 22.9464 22.7907 22.9464 22.6005C22.9464 22.4104 22.981 22.2344 23.0499 22.0724C23.1188 21.9105 23.2139 21.7701 23.3352 21.6513C23.4563 21.5326 23.6002 21.4392 23.7676 21.3714C23.9348 21.3036 24.1165 21.2697 24.3126 21.2697ZM10.429 22.6005C10.429 22.1561 10.7213 21.7911 11.1996 21.7911C11.6567 21.7911 11.9649 22.1403 11.9649 22.6005C11.9649 23.0606 11.6567 23.4096 11.1996 23.4096C10.7213 23.4096 10.429 23.0447 10.429 22.6005ZM12.4858 22.6005V21.3362H11.933V21.643C11.7576 21.4155 11.4919 21.2727 11.1305 21.2727C10.4183 21.2727 9.86033 21.8282 9.86033 22.6004C9.86033 23.3728 10.4183 23.9282 11.1305 23.9282C11.4919 23.9282 11.7577 23.7851 11.933 23.5579V23.8646H12.4858V22.6004V22.6005ZM9.37141 23.8647V22.2777C9.37141 21.6801 8.98874 21.2779 8.37217 21.2727C8.04802 21.2674 7.71309 21.368 7.47935 21.7223C7.30396 21.442 7.02755 21.2727 6.6396 21.2727C6.36847 21.2727 6.10283 21.352 5.89549 21.6483V21.3362H5.34277V23.8646H5.90083V22.4629C5.90083 22.0238 6.14529 21.7911 6.52262 21.7911C6.8894 21.7911 7.07534 22.0291 7.07534 22.4575V23.8646H7.6335V22.4629C7.6335 22.0238 7.88853 21.7911 8.25525 21.7911C8.63258 21.7911 8.81325 22.0291 8.81325 22.4575V23.8646H9.37141V23.8647Z" fill="#92887B"/>
<path d="M11.3086 17.0318H19.6912V2.03882H11.3086V17.0318Z" fill="#E0E0E0"/>
<path d="M11.841 9.53525C11.841 6.49364 13.2718 3.78469 15.4999 2.03878C13.8704 0.761994 11.8144 0 9.57949 0C4.28883 0 0 4.26915 0 9.53525C0 14.8012 4.28883 19.0703 9.57949 19.0703C11.8144 19.0703 13.8704 18.3085 15.4999 17.0317C13.2718 15.2858 11.841 12.577 11.841 9.53525Z" fill="#F2F2F2"/>
<path d="M30.7007 15.4438V15.0737H30.6035L30.492 15.3282L30.3802 15.0737H30.2831V15.4438H30.3518V15.1648L30.4564 15.4053H30.5274L30.6323 15.1641V15.4439H30.7007L30.7007 15.4438ZM30.0859 15.4438V15.1369H30.2102V15.0745H29.8936V15.1369H30.0178V15.4438H30.086H30.0859Z" fill="#92887B"/>
<path d="M31.0001 9.53525C31.0001 14.8012 26.7113 19.0703 21.4206 19.0703C19.1857 19.0703 17.1295 18.3085 15.5 17.0317C17.7284 15.2858 19.1591 12.577 19.1591 9.53525C19.1591 6.49364 17.7284 3.78469 15.5 2.03878C17.1295 0.761994 19.1857 0 21.4206 0C26.7113 0 31.0001 4.26915 31.0001 9.53525Z" fill="#92887B"/>
</g>
<defs>
<clipPath id="clip0">
<rect width="31" height="24" fill="white"/>
</clipPath>
</defs>
</svg>
