<svg width="15" height="15" viewBox="0 0 15 15" fill="none" xmlns="http://www.w3.org/2000/svg">
<path d="M12.9375 4.55281L7.81846 1.90594C7.71941 1.85475 7.61044 1.82812 7.5 1.82812C7.38955 1.82812 7.28059 1.85475 7.18154 1.90594L2.0625 4.55281C1.86625 4.65355 1.7008 4.80976 1.58484 5.00382C1.46887 5.19787 1.40702 5.42203 1.40625 5.65097V11.317C1.40625 11.995 1.9377 12.5447 2.59336 12.5447H12.4078C13.0635 12.5447 13.5949 11.995 13.5949 11.317V5.65097C13.594 5.4219 13.532 5.19765 13.4158 5.00358C13.2997 4.80952 13.134 4.65338 12.9375 4.55281V4.55281Z" stroke="#92887B" stroke-linecap="round" stroke-linejoin="round"/>
<path d="M11.6406 10.5803L7.85371 7.49453C7.73029 7.39396 7.57838 7.33936 7.42202 7.33936C7.26566 7.33936 7.11375 7.39396 6.99033 7.49453L3.20312 10.5803" stroke="#92887B" stroke-linecap="round" stroke-linejoin="round"/>
<path d="M9.0625 8.33998L13.0469 5.17871" stroke="#92887B" stroke-linecap="round" stroke-linejoin="round"/>
<path d="M1.79688 5.17871L5.86914 8.40137" stroke="#92887B" stroke-linecap="round" stroke-linejoin="round"/>
</svg>
