<svg width="19" height="19" viewBox="0 0 19 19" fill="none" xmlns="http://www.w3.org/2000/svg">
<path d="M15.8071 3.30351C14.3566 1.20424 12.0578 0 9.50055 0C6.94331 0 4.64449 1.20424 3.194 3.30351C1.75063 5.39218 1.41735 8.03648 2.3007 10.3727C2.53698 11.0107 2.91256 11.6305 3.41436 12.2114L8.99479 18.7661C9.121 18.9145 9.30591 19 9.50055 19C9.69519 19 9.88011 18.9145 10.0063 18.7661L15.5852 12.2131C16.0892 11.629 16.4643 11.0098 16.6986 10.3769C17.5838 8.03648 17.2505 5.39218 15.8071 3.30351ZM15.4546 9.91165C15.2739 10.3999 14.9789 10.8827 14.5783 11.347C14.5772 11.3482 14.5761 11.3493 14.5752 11.3506L9.50055 17.311L4.4228 11.3469C4.02243 10.8829 3.72745 10.4002 3.54498 9.90724C2.81445 7.97514 3.09169 5.7888 4.28683 4.0591C5.48573 2.32386 7.38617 1.32866 9.50055 1.32866C11.6149 1.32866 13.5151 2.32383 14.714 4.0591C15.9094 5.7888 16.1869 7.97514 15.4546 9.91165Z" fill="#56BA72"/>
<path d="M9.50056 3.94165C7.44931 3.94165 5.78027 5.61046 5.78027 7.66194C5.78027 9.71342 7.44908 11.3822 9.50056 11.3822C11.552 11.3822 13.2209 9.71342 13.2209 7.66194C13.2209 5.61068 11.5518 3.94165 9.50056 3.94165ZM9.50056 10.0535C8.18184 10.0535 7.10894 8.98062 7.10894 7.6619C7.10894 6.34318 8.18184 5.27028 9.50056 5.27028C10.8193 5.27028 11.8922 6.34318 11.8922 7.6619C11.8922 8.98062 10.8193 10.0535 9.50056 10.0535Z" fill="#56BA72"/>
</svg>
