<svg width="15" height="15" viewBox="0 0 15 15" fill="none" xmlns="http://www.w3.org/2000/svg">
<path d="M7.49981 2.80005C7.0276 2.80005 6.566 2.94007 6.17338 3.20242C5.78076 3.46476 5.47475 3.83763 5.29404 4.27389C5.11334 4.71015 5.06606 5.1902 5.15818 5.65333C5.2503 6.11646 5.47769 6.54187 5.81159 6.87577C6.14549 7.20966 6.5709 7.43705 7.03403 7.52917C7.49716 7.6213 7.9772 7.57402 8.41346 7.39331C8.84972 7.21261 9.2226 6.9066 9.48494 6.51397C9.74728 6.12135 9.88731 5.65975 9.88731 5.18755C9.88731 4.55434 9.63577 3.94707 9.18802 3.49933C8.74028 3.05159 8.13301 2.80005 7.49981 2.80005ZM7.49981 6.74172C7.19242 6.74172 6.89194 6.65057 6.63636 6.47979C6.38078 6.30902 6.18157 6.06629 6.06394 5.7823C5.94631 5.49832 5.91553 5.18582 5.9755 4.88435C6.03547 4.58287 6.18349 4.30594 6.40084 4.08859C6.6182 3.87123 6.89512 3.72321 7.1966 3.66325C7.49808 3.60328 7.81057 3.63405 8.09456 3.75169C8.37855 3.86932 8.62127 4.06852 8.79205 4.3241C8.96282 4.57968 9.05397 4.88016 9.05397 5.18755C9.05287 5.59902 8.88864 5.99326 8.5973 6.28382C8.30595 6.57438 7.91128 6.73755 7.49981 6.73755V6.74172Z" fill="#92887B"/>
<path d="M7.50208 0.833496C6.20425 0.83458 4.95958 1.3492 4.03992 2.26495C3.12026 3.18071 2.60035 4.42318 2.59375 5.721C2.59375 7.66683 3.68542 9.296 4.48542 10.4835L4.63125 10.7002C5.4272 11.8538 6.28107 12.9663 7.18958 14.0335L7.50625 14.4043L7.82292 14.0335C8.73131 12.9662 9.58518 11.8537 10.3813 10.7002L10.5271 10.4793C11.3229 9.29183 12.4146 7.66683 12.4146 5.721C12.408 4.42246 11.8875 3.17936 10.9669 2.26348C10.0464 1.34761 8.80064 0.833479 7.50208 0.833496ZM9.83125 10.0002L9.68125 10.221C8.96458 11.296 8.01458 12.5002 7.50208 13.096C7.01042 12.5002 6.03958 11.296 5.32292 10.221L5.17708 10.0002C4.43958 8.90016 3.42708 7.396 3.42708 5.70433C3.42708 5.16919 3.53249 4.6393 3.73727 4.14489C3.94206 3.65049 4.24222 3.20127 4.62062 2.82287C4.99902 2.44447 5.44825 2.14431 5.94265 1.93952C6.43705 1.73473 6.96695 1.62933 7.50208 1.62933C8.03722 1.62933 8.56712 1.73473 9.06152 1.93952C9.55592 2.14431 10.0051 2.44447 10.3835 2.82287C10.7619 3.20127 11.0621 3.65049 11.2669 4.14489C11.4717 4.6393 11.5771 5.16919 11.5771 5.70433C11.5771 7.41266 10.5688 8.91683 9.83125 10.0002Z" fill="#92887B"/>
</svg>
