<svg width="31" height="24" viewBox="0 0 31 24" fill="none" xmlns="http://www.w3.org/2000/svg">
<g clip-path="url(#clip0)">
<path d="M30.3851 23.6745V23.7368H30.4426C30.456 23.7368 30.4666 23.7341 30.4743 23.7291C30.4823 23.724 30.486 23.7161 30.486 23.7052C30.486 23.6948 30.4823 23.6872 30.4743 23.6821C30.4666 23.6772 30.456 23.6745 30.4426 23.6745H30.3851ZM30.4434 23.6308C30.4735 23.6308 30.4966 23.6375 30.5132 23.6507C30.5294 23.6641 30.5377 23.6822 30.5377 23.7052C30.5377 23.7246 30.531 23.7407 30.518 23.7533C30.505 23.7656 30.4866 23.7733 30.4627 23.7762L30.5395 23.8644H30.4794L30.4081 23.7767H30.3852V23.8644H30.3349V23.6308H30.4435H30.4434ZM30.4285 23.9446C30.4557 23.9446 30.4812 23.9393 30.5046 23.9293C30.5283 23.9189 30.5488 23.9049 30.5666 23.8872C30.5845 23.8697 30.5983 23.8488 30.6084 23.8249C30.6185 23.8011 30.6236 23.7756 30.6236 23.7484C30.6236 23.7213 30.6185 23.696 30.6084 23.6721C30.5983 23.6483 30.5845 23.6274 30.5666 23.6096C30.5488 23.5921 30.5283 23.578 30.5046 23.568C30.4813 23.558 30.4557 23.5529 30.4285 23.5529C30.4008 23.5529 30.3748 23.558 30.3508 23.568C30.3266 23.578 30.3055 23.5921 30.2877 23.6096C30.2701 23.6274 30.256 23.6483 30.2459 23.6721C30.2358 23.696 30.2308 23.7214 30.2308 23.7484C30.2308 23.7756 30.2358 23.8011 30.2459 23.8249C30.256 23.8488 30.2701 23.8697 30.2877 23.8872C30.3055 23.9049 30.3266 23.9189 30.3508 23.9293C30.3748 23.9393 30.4008 23.9446 30.4285 23.9446ZM30.4285 23.4967C30.4639 23.4967 30.4975 23.5033 30.5286 23.5166C30.5597 23.5296 30.5872 23.5476 30.6103 23.5707C30.6337 23.5935 30.6521 23.6201 30.6656 23.6507C30.6789 23.6814 30.6856 23.714 30.6856 23.7484C30.6856 23.7831 30.679 23.8154 30.6656 23.8459C30.6521 23.8763 30.6337 23.903 30.6103 23.9259C30.5872 23.9487 30.5597 23.9666 30.5286 23.9801C30.4975 23.9934 30.4639 24 30.4285 24C30.3921 24 30.3583 23.9934 30.3266 23.9801C30.2949 23.9666 30.2675 23.9487 30.2444 23.9259C30.2212 23.903 30.2031 23.8763 30.1895 23.8459C30.1762 23.8154 30.1696 23.7831 30.1696 23.7484C30.1696 23.714 30.1762 23.6814 30.1895 23.6507C30.2031 23.6201 30.2212 23.5935 30.2444 23.5707C30.2675 23.5476 30.2949 23.5296 30.3266 23.5166C30.3583 23.5033 30.3921 23.4967 30.4285 23.4967ZM6.69741 22.5979C6.69741 22.153 6.99018 21.7876 7.46905 21.7876C7.92679 21.7876 8.2354 22.1371 8.2354 22.5979C8.2354 23.0587 7.92679 23.4083 7.46905 23.4083C6.99018 23.4083 6.69741 23.0429 6.69741 22.5979ZM8.75693 22.5979V21.3321H8.20346V21.6393C8.02777 21.4115 7.76178 21.2685 7.39991 21.2685C6.68681 21.2685 6.12809 21.8246 6.12809 22.5979C6.12809 23.3713 6.68685 23.9274 7.39991 23.9274C7.76178 23.9274 8.02777 23.7845 8.20346 23.5566V23.8639H8.75693V22.5979ZM27.4464 22.5979C27.4464 22.153 27.7392 21.7876 28.2182 21.7876C28.6756 21.7876 28.9843 22.1371 28.9843 22.5979C28.9843 23.0587 28.6756 23.4083 28.2182 23.4083C27.7392 23.4083 27.4464 23.0429 27.4464 22.5979ZM29.5059 22.5979V20.3152H28.9524V21.6392C28.7767 21.4115 28.5106 21.2685 28.1489 21.2685C27.4357 21.2685 26.8769 21.8246 26.8769 22.5978C26.8769 23.3712 27.4357 23.9274 28.1489 23.9274C28.5106 23.9274 28.7767 23.7844 28.9524 23.5566V23.8639H29.5059V22.5978V22.5979ZM15.6217 21.7611C15.9783 21.7611 16.2071 21.9835 16.2657 22.3754H14.9459C15.0046 22.01 15.2281 21.7611 15.6218 21.7611H15.6217ZM15.6325 21.2685C14.8874 21.2685 14.3659 21.8088 14.3659 22.5978C14.3659 23.403 14.9088 23.9274 15.6696 23.9274C16.0529 23.9274 16.404 23.8318 16.7128 23.5725L16.4414 23.1646C16.2284 23.3341 15.957 23.4295 15.7016 23.4295C15.3451 23.4295 15.0204 23.2653 14.9406 22.8097H16.8297C16.8351 22.7408 16.8404 22.672 16.8404 22.5978C16.8351 21.8088 16.3454 21.2685 15.6325 21.2685ZM22.311 22.5978C22.311 22.1529 22.6036 21.7875 23.0826 21.7875C23.5403 21.7875 23.849 22.137 23.849 22.5978C23.849 23.0587 23.5403 23.4082 23.0826 23.4082C22.6036 23.4082 22.311 23.0428 22.311 22.5978ZM24.3706 22.5978V21.3321H23.8171V21.6392C23.6414 21.4115 23.3753 21.2685 23.0134 21.2685C22.3003 21.2685 21.7416 21.8246 21.7416 22.5978C21.7416 23.3712 22.3004 23.9274 23.0134 23.9274C23.3753 23.9274 23.6414 23.7844 23.8171 23.5566V23.8639H24.3706V22.5978ZM19.1872 22.5978C19.1872 23.366 19.7247 23.9274 20.5443 23.9274C20.9274 23.9274 21.1828 23.8427 21.4596 23.6255L21.1935 23.1805C20.986 23.3288 20.7678 23.4082 20.5283 23.4082C20.0866 23.403 19.7619 23.0851 19.7619 22.5978C19.7619 22.1107 20.0866 21.7928 20.5283 21.7875C20.7678 21.7875 20.986 21.8669 21.1935 22.0152L21.4596 21.5704C21.1828 21.3532 20.9274 21.2684 20.5443 21.2684C19.7247 21.2684 19.1872 21.8299 19.1872 22.5978V22.5978ZM26.3183 21.2685C25.9989 21.2685 25.7914 21.4169 25.6477 21.6392V21.3321H25.0994V23.8639H25.653V22.4443C25.653 22.0259 25.834 21.7928 26.1959 21.7928C26.3077 21.7928 26.4248 21.8088 26.5418 21.8564L26.7122 21.3373C26.5895 21.2897 26.4298 21.2684 26.3183 21.2684V21.2685ZM11.4922 21.5333C11.2261 21.3586 10.8589 21.2685 10.4546 21.2685C9.81059 21.2685 9.39546 21.5757 9.39546 22.0788C9.39546 22.4919 9.70408 22.7462 10.2736 22.8256L10.5343 22.8628C10.8377 22.905 10.9814 22.9845 10.9814 23.1276C10.9814 23.3235 10.7791 23.4348 10.4013 23.4348C10.0182 23.4348 9.74141 23.313 9.55516 23.1699L9.29445 23.599C9.59764 23.8212 9.98092 23.9274 10.3959 23.9274C11.1303 23.9274 11.556 23.5831 11.556 23.1011C11.556 22.6561 11.2207 22.4231 10.6673 22.3437L10.4065 22.3066C10.167 22.2748 9.97549 22.2272 9.97549 22.0577C9.97549 21.8723 10.1564 21.7611 10.4598 21.7611C10.7843 21.7611 11.0984 21.883 11.2528 21.9783L11.4921 21.5333H11.4922ZM18.6285 21.2685C18.3092 21.2685 18.1016 21.4169 17.9579 21.6392V21.3321H17.4098V23.8639H17.9633V22.4443C17.9633 22.0259 18.1441 21.7928 18.5061 21.7928C18.6178 21.7928 18.7349 21.8088 18.8519 21.8564L19.0223 21.3373C18.8999 21.2897 18.7402 21.2684 18.6285 21.2684V21.2685ZM13.9083 21.3321H13.0036V20.5641H12.4448V21.3321H11.9285V21.8353H12.4448V22.9898C12.4448 23.5778 12.6736 23.9274 13.3282 23.9274C13.5676 23.9274 13.8443 23.853 14.02 23.7314L13.8603 23.26C13.6953 23.3552 13.5144 23.403 13.3707 23.403C13.094 23.403 13.0036 23.2335 13.0036 22.9792V21.8353H13.9083V21.3321ZM5.63844 23.8639V22.2747C5.63844 21.6763 5.2553 21.2738 4.638 21.2685C4.31333 21.2632 3.97809 21.3638 3.74393 21.7187C3.56832 21.438 3.29162 21.2685 2.90312 21.2685C2.6317 21.2685 2.36556 21.348 2.15811 21.6446V21.3321H1.60449V23.8639H2.16339V22.4602C2.16339 22.0206 2.40818 21.7875 2.78597 21.7875C3.15319 21.7875 3.33952 22.0259 3.33952 22.4548V23.8639H3.89827V22.4602C3.89827 22.0206 4.1537 21.7875 4.52092 21.7875C4.89871 21.7875 5.07961 22.0259 5.07961 22.4548V23.8639H5.63844Z" fill="#92887B"/>
<path d="M11.3086 17.0308H19.6912V2.03857H11.3086V17.0308Z" fill="#E0E0E0"/>
<path d="M11.841 9.53467C11.841 6.49312 13.2719 3.78435 15.5 2.03853C13.8706 0.761702 11.8144 0 9.57958 0C4.28894 0 0 4.2689 0 9.53467C0 14.8004 4.28894 19.0693 9.57958 19.0693C11.8144 19.0693 13.8705 18.3075 15.5 17.0308C13.2719 15.285 11.841 12.5762 11.841 9.53467Z" fill="#92887B"/>
<path d="M30.7009 15.4429V15.0729H30.6041L30.4923 15.3274L30.3805 15.0729H30.2834V15.4429H30.352V15.1638L30.4566 15.4044H30.5276L30.6325 15.1632V15.4429H30.7009ZM30.0861 15.4429V15.136H30.2104V15.0735H29.8937V15.136H30.018V15.4429H30.0861ZM31 9.53467C31 14.8004 26.7112 19.0693 21.4205 19.0693C19.1858 19.0693 17.1296 18.3075 15.5 17.0308C17.7282 15.285 19.1591 12.5762 19.1591 9.53467C19.1591 6.49312 17.7282 3.78435 15.5 2.03853C17.1296 0.761702 19.1858 0 21.4205 0C26.7112 0 31 4.2689 31 9.53467Z" fill="#92887B"/>
</g>
<defs>
<clipPath id="clip0">
<rect width="31" height="24" fill="white"/>
</clipPath>
</defs>
</svg>
