<svg width="55" height="16" viewBox="0 0 55 16" fill="none" xmlns="http://www.w3.org/2000/svg">
<g clip-path="url(#clip0)">
<path d="M30.6225 1.69012L27.1479 9.45465H26.7954V3.21702e-05H21.8594V16H26.0483C27.1485 16 28.1483 15.3403 28.6094 14.31L32.084 6.54551H32.4365V16H37.3724V0H33.1833C32.0833 0 31.0834 0.65981 30.6225 1.69009L30.6225 1.69012Z" fill="#92887B"/>
<path d="M12.1043 2.1028L10.0481 9.45449H9.69562L7.63957 2.1028C7.29123 0.857528 6.18617 0 4.92955 0H0V16H4.93603V6.5455H5.28855L8.10909 16H11.6348L14.4553 6.5455H14.8079V16H19.7439V0H14.8144C13.5577 0 12.4526 0.857528 12.1044 2.1028H12.1043Z" fill="#92887B"/>
<path d="M39.4873 7.27271V16H44.4136V10.9091H49.7118C52.0135 10.9091 53.9661 9.38976 54.6927 7.27271H39.4873H39.4873Z" fill="#92887B"/>
<path fill-rule="evenodd" clip-rule="evenodd" d="M46.1767 6.54155V6.5348H46.0105C45.8496 6.52647 45.6898 6.51331 45.5316 6.495V6.49185H45.5063C45.466 6.48706 45.426 6.48188 45.386 6.47647V6.47046H45.3416C45.3078 6.46566 45.2741 6.46036 45.2403 6.45511V6.44897H45.1999C45.0877 6.43089 44.9763 6.41027 44.8657 6.38726V6.38459H44.8521C44.8288 6.37974 44.8058 6.37424 44.7825 6.36922V6.36314H44.7552C44.7296 6.35741 44.7039 6.35201 44.6784 6.34599V6.34168H44.6608L44.5952 6.3255V6.32019H44.5738C44.5462 6.31331 44.5186 6.30645 44.4911 6.29922V6.29873H44.4893C44.4131 6.27872 44.3374 6.25743 44.2622 6.2351V6.23436H44.2598L44.1998 6.2166V6.2129H44.1871C44.1705 6.20779 44.154 6.20219 44.1374 6.19698V6.19151H44.1203L44.0749 6.17697V6.17002H44.0532L43.9917 6.14946V6.14856H43.989L43.9292 6.12794V6.1271H43.9268C43.9068 6.12016 43.8867 6.11346 43.8668 6.10642V6.10562H43.8645C43.7884 6.07837 43.713 6.04951 43.638 6.01988V6.01975H43.6377C43.603 6.00605 43.5684 5.99238 43.5339 5.97819V5.97684H43.5307L43.4923 5.96059V5.95535H43.4799L43.4299 5.93418V5.93389H43.4291L43.3882 5.91642V5.9124H43.3792L43.3466 5.8978V5.89098H43.3314L43.2841 5.86974V5.86949H43.2835C43.2699 5.86328 43.2561 5.85745 43.2426 5.85112V5.84803H43.236C43.1329 5.80026 43.031 5.7502 42.9304 5.69799V5.69779H42.9301C42.8672 5.66517 42.805 5.63152 42.7431 5.59723V5.59047H42.731L42.7015 5.57397V5.56898H42.6926L42.6598 5.55068V5.54753H42.6542L42.6182 5.52658V5.52604H42.6172C42.5119 5.46501 42.4083 5.40144 42.3061 5.33562V5.33289H42.3018C42.2824 5.32034 42.2629 5.30789 42.2436 5.29515V5.28997H42.2356L42.1812 5.25346V5.24703H42.1717L42.1188 5.21106V5.20411H42.1086C41.999 5.12861 41.8914 5.05024 41.7858 4.96927V4.96798H41.7842L41.765 4.95315V4.94652H41.7566L41.7026 4.90454V4.90364H41.7014L41.6818 4.8883V4.88215H41.674C41.6487 4.86195 41.6236 4.84126 41.5985 4.82077V4.81778H41.5948L41.5777 4.80391V4.79632H41.5683C41.5435 4.77583 41.519 4.75508 41.4944 4.73426V4.73195H41.4917C41.4507 4.69714 41.41 4.66198 41.3696 4.62633V4.62463H41.3677C41.3121 4.5756 41.2573 4.52577 41.2031 4.47513V4.47433H41.2023L41.1823 4.45583V4.4529H41.1791L41.1615 4.43611V4.43141H41.1567L41.1407 4.41597V4.40996H41.1344L41.1199 4.3959V4.38847H41.1122C40.9933 4.27365 40.8778 4.15501 40.7661 4.03273V4.02359H40.7578L40.7453 4.00989V4.0021H40.7382L40.7245 3.98708V3.98065H40.7186L40.7037 3.96414V3.95922H40.6994L40.6829 3.94037V3.93776H40.6806L40.662 3.9166V3.91631H40.6618C40.6126 3.86027 40.564 3.80358 40.5164 3.74613V3.74461H40.5151C40.4804 3.70276 40.4462 3.66052 40.4123 3.61796V3.61584H40.4106C40.3902 3.59016 40.37 3.56436 40.3499 3.53843V3.52997H40.3434L40.3291 3.51135V3.50848H40.3269C40.3067 3.4822 40.2865 3.45598 40.2667 3.42944V3.42262H40.2616C40.2423 3.39669 40.2232 3.37073 40.2042 3.34458V3.33679H40.1985L40.1834 3.3163V3.31533H40.1827C40.1187 3.22658 40.0566 3.13628 39.9961 3.04472V3.03632H39.9904C39.9782 3.01782 39.9665 2.9991 39.9545 2.98054V2.97195H39.949C39.9369 2.95323 39.9247 2.9346 39.9128 2.91575V2.90761H39.9076L39.8712 2.84916V2.84321H39.8676L39.8296 2.78134V2.77883H39.8281C39.8075 2.74489 39.7873 2.71063 39.7672 2.67631V2.67151H39.7644C39.7153 2.58761 39.6676 2.50268 39.6215 2.41679V2.41399H39.62L39.6008 2.37761V2.37104H39.5973L39.5799 2.33826V2.32816H39.5746L39.5591 2.29882V2.28518H39.5523C39.4813 2.14695 39.4143 2.00617 39.351 1.86327V1.8559H39.3477L39.3302 1.81598V1.81299H39.3289C39.3152 1.78146 39.3019 1.74984 39.2886 1.71815V1.70567H39.2833L39.2678 1.66854V1.66269H39.2654C39.2521 1.6302 39.2391 1.59748 39.2262 1.56473V1.55543H39.2224C39.2096 1.52272 39.197 1.48984 39.1845 1.45693V1.44811H39.1812C39.146 1.35498 39.1124 1.26098 39.0805 1.16617V1.14761H39.0744L39.0596 1.10277V1.08317H39.0532L39.0389 1.03949V1.0188H39.0324L39.018 0.971834V0.95443H39.0127L38.9972 0.90344V0.889993H38.9932L38.9764 0.832666V0.82562H38.9744C38.9455 0.725281 38.9184 0.624171 38.8932 0.522255V0.503629H38.8888C38.8831 0.480434 38.8778 0.457207 38.8724 0.433981V0.417799H38.8685L38.8516 0.344837V0.310447H38.8443L38.8307 0.24704V0.224585H38.826L38.8099 0.145253V0.138755H38.8087C38.802 0.104622 38.7954 0.0702967 38.7891 0.0360033V0.0314351H38.7882L38.7842 0.0100098H50.03C50.1126 0.0150605 50.1946 0.0221701 50.2761 0.0311134V0.0314029H50.2793C50.327 0.0366467 50.3744 0.0425338 50.4218 0.0490965V0.0528604H50.447C50.4803 0.0576216 50.5136 0.0624793 50.5466 0.0678839V0.0743179H50.5835C50.6199 0.0805268 50.6561 0.0870252 50.6923 0.0940383V0.0958076H50.7011C50.768 0.108837 50.8344 0.123056 50.9004 0.13869H50.9004C50.9283 0.145253 50.956 0.152395 50.9836 0.159376V0.16018H50.9867C51.0065 0.165231 51.0264 0.170153 51.046 0.175461V0.18167H51.0683L51.1293 0.198656V0.20316H51.1454C51.1679 0.209658 51.1902 0.216542 51.2125 0.223362V0.224585H51.2165C51.2992 0.249903 51.3812 0.277215 51.4622 0.30649V0.310447H51.4732L51.5247 0.329363V0.331905H51.5313C51.5639 0.344194 51.5965 0.356676 51.6287 0.36964V0.374884H51.6414L51.6912 0.395505V0.396341H51.6932C51.7414 0.416416 51.7893 0.437165 51.8368 0.458655V0.460714H51.8415L51.8785 0.477796V0.482171H51.8877C52.0266 0.546898 52.1624 0.617415 52.2946 0.693819V0.696747H52.2995C52.3328 0.716049 52.3658 0.735608 52.3987 0.75565V0.761183H52.4076L52.4403 0.781676V0.782641H52.4419C52.4622 0.795284 52.4826 0.807766 52.5027 0.820666V0.825524H52.5101C52.5425 0.846467 52.5748 0.867699 52.6068 0.889285V0.889896H52.6076C52.6778 0.937412 52.747 0.986696 52.8149 1.03749V1.04016H52.8184C52.8452 1.06024 52.8718 1.0805 52.8981 1.10106V1.10454H52.9027C52.9292 1.12522 52.9553 1.14632 52.9814 1.16749V1.16894H52.9832C53.0753 1.24383 53.1649 1.32188 53.2519 1.40282V1.40501H53.2543L53.2727 1.42199V1.42649H53.2776L53.2935 1.44184V1.44798H53.2999C53.3985 1.54192 53.4935 1.63975 53.5848 1.74105V1.74849H53.5916L53.6057 1.76406V1.76991H53.6109L53.6265 1.78738V1.7914H53.63L53.6473 1.81148V1.81286H53.6485C53.7198 1.8948 53.7889 1.9787 53.8553 2.06504V2.07038H53.8595C53.8792 2.09605 53.8985 2.12211 53.9178 2.14814V2.15624H53.9239L53.9386 2.17632V2.1777H53.9396C53.9533 2.19642 53.9668 2.21537 53.9802 2.23429V2.24207H53.9857L54.001 2.26337V2.26356H54.0012C54.0152 2.28357 54.0288 2.3039 54.0426 2.32417V2.328H54.0453C54.0872 2.38977 54.1279 2.45247 54.1675 2.51607V2.52118H54.1706C54.1835 2.542 54.1965 2.56268 54.2091 2.58366V2.58555H54.2102L54.2299 2.61908V2.62844H54.2354C54.2475 2.64893 54.2597 2.66939 54.2715 2.69008V2.69287H54.273L54.2923 2.72749V2.73576H54.2969C54.3387 2.81052 54.3788 2.88644 54.4172 2.96336V2.97189H54.4214L54.438 3.00515V3.01477H54.4427L54.4588 3.04842V3.05772H54.4631L54.4796 3.09275V3.10066H54.4833L54.5004 3.13718V3.14358H54.5032L54.5212 3.18414V3.18653H54.5222C54.5585 3.26817 54.5928 3.35091 54.6252 3.43469V3.44405H54.6289C54.6419 3.47783 54.6545 3.51177 54.6669 3.5459V3.55137H54.6689L54.6877 3.60339V3.61574H54.6919C54.7283 3.72058 54.7615 3.82703 54.7917 3.93474V3.93773H54.7925C54.7993 3.96205 54.806 3.98647 54.8125 4.01098V4.02356H54.8158C54.8217 4.04595 54.8277 4.06828 54.8333 4.09086V4.10942H54.8379C54.8435 4.13236 54.8488 4.15543 54.8541 4.17843V4.19529H54.8581C54.8639 4.22073 54.8695 4.24621 54.875 4.27175V4.28112H54.877C54.8913 4.34842 54.9046 4.41607 54.9165 4.48427V4.49575H54.9185C54.9251 4.53458 54.9315 4.57351 54.9374 4.61263V4.64602H54.942C54.9478 4.6863 54.9532 4.72677 54.9582 4.76734V4.79622H54.9615C54.9682 4.85317 54.9739 4.91043 54.979 4.96792V5.01086H54.9826C54.9928 5.13974 54.9986 5.26987 54.9998 5.40109V5.54193C54.9979 5.65916 54.9925 5.77555 54.9836 5.89085H54.979V5.94718C54.9737 6.0074 54.9675 6.06727 54.9603 6.12691H54.9582V6.14432C54.9536 6.18154 54.9486 6.21873 54.9433 6.25572H54.9374V6.29655C54.9319 6.33312 54.9259 6.36954 54.9197 6.40592H54.9165V6.42436C54.9101 6.46129 54.9034 6.49809 54.8962 6.53473H54.8957V6.53698L54.8941 6.54538H46.4065C46.3295 6.54538 46.2529 6.54381 46.1765 6.54149L46.1767 6.54155Z" fill="#92887B"/>
</g>
<defs>
<clipPath id="clip0">
<rect width="55" height="16" fill="white"/>
</clipPath>
</defs>
</svg>
