<svg width="12" height="12" viewBox="0 0 12 12" fill="none" xmlns="http://www.w3.org/2000/svg">
<path d="M9.33407 5.53176L3.99392 0.191706C3.8704 0.068097 3.70553 0 3.52972 0C3.35392 0 3.18904 0.068097 3.06553 0.191706L2.67227 0.584873C2.41637 0.841066 2.41637 1.25745 2.67227 1.51326L7.15652 5.99751L2.66729 10.4867C2.54378 10.6104 2.47559 10.7751 2.47559 10.9508C2.47559 11.1267 2.54378 11.2915 2.66729 11.4152L3.06056 11.8083C3.18417 11.9319 3.34894 12 3.52475 12C3.70055 12 3.86543 11.9319 3.98894 11.8083L9.33407 6.46336C9.45787 6.33936 9.52587 6.1738 9.52548 5.99781C9.52587 5.82112 9.45787 5.65566 9.33407 5.53176Z" fill="#46382C"/>
</svg>
