<svg width="18" height="20" viewBox="0 0 18 20" fill="none" xmlns="http://www.w3.org/2000/svg">
<path d="M15.9854 15.4779C15.2074 14.311 14.7962 12.953 14.7962 11.5505V7.56836C14.7962 5.93408 14.1587 4.39868 13.001 3.24502C12.0188 2.26611 10.7628 1.66304 9.40615 1.50615V0H7.94131V1.51172C4.93057 1.8874 2.58921 4.49004 2.58921 7.62666V11.5506C2.58921 12.953 2.17803 14.3111 1.4001 15.4779L0 17.5781H6.62144C6.92378 18.4306 7.73789 19.043 8.69273 19.043C9.64756 19.043 10.4617 18.4306 10.764 17.5781H17.3855L15.9854 15.4779ZM2.73394 16.1133C3.59824 14.7456 4.05405 13.1726 4.05405 11.5505V7.62661C4.05405 5.04551 6.12759 2.93848 8.67627 2.92969C8.68179 2.92969 8.68726 2.92969 8.69277 2.92969C9.92886 2.92969 11.0912 3.40981 11.9671 4.28262C12.8469 5.15937 13.3314 6.32627 13.3314 7.56836V11.5506C13.3314 13.1727 13.7871 14.7456 14.6515 16.1133H2.73394Z" fill="#92887B"/>
</svg>
