<svg width="32" height="32" viewBox="0 0 32 32" fill="none" xmlns="http://www.w3.org/2000/svg">
<g clip-path="url(#clip0)">
<path d="M12.6653 31.842C11.1917 31.842 9.71845 31.2946 8.59467 30.1987C8.06308 29.6803 7.64111 29.0767 7.34045 28.4045C6.56267 26.6653 5.1765 25.2792 3.43733 24.5014C2.76516 24.2008 2.16153 23.7788 1.64313 23.2472C-0.553586 20.9943 -0.546833 17.335 1.6582 15.0899C2.5553 14.1764 3.69697 13.5946 4.9597 13.4072C5.67808 13.3006 6.31685 12.9803 6.80692 12.4809L6.84494 12.4425C8.2116 11.0758 10.1609 10.4776 12.3336 10.758C14.4159 11.0269 16.4686 12.0808 18.1137 13.7259C19.7588 15.371 20.8128 17.4237 21.0816 19.506C21.362 21.6788 20.7638 23.628 19.3971 24.9947L19.3626 25.029C18.8618 25.5213 18.5412 26.1608 18.4351 26.8787C18.2483 28.1423 17.6666 29.2847 16.753 30.1825C15.6276 31.2885 14.1463 31.842 12.6653 31.842ZM11.319 12.5614C10.1003 12.5614 8.98632 12.9542 8.17145 13.769L8.14625 13.7945C7.36734 14.5882 6.36081 15.0959 5.23503 15.263C4.37933 15.39 3.60529 15.7847 2.99654 16.4044C1.50081 17.9273 1.49618 20.4094 2.98622 21.9375C3.33865 22.2989 3.74812 22.5854 4.20317 22.7889C6.36412 23.7554 8.08647 25.4777 9.05292 27.6387C9.25646 28.0938 9.54292 28.5033 9.9043 28.8556C11.4328 30.3461 13.9153 30.3411 15.4382 28.8446C16.0581 28.2354 16.4527 27.4608 16.5793 26.6045C16.7456 25.4793 17.2531 24.4721 18.047 23.6917L18.0706 23.6683C19.0168 22.7221 19.4253 21.3293 19.221 19.7463C19.0049 18.0729 18.1406 16.406 16.7871 15.0525C15.1581 13.4234 13.1239 12.5614 11.319 12.5614Z" fill="#46382C"/>
<path d="M18.9115 9.66341C17.8295 9.66341 16.8606 9.28171 16.1411 8.56227C15.3014 7.72264 14.9219 6.54295 15.0722 5.24052C15.2133 4.01919 15.8126 2.82493 16.7598 1.87768C17.707 0.930494 18.9013 0.331178 20.1226 0.190104C21.4251 0.0398996 22.6046 0.419412 23.4443 1.25898C24.284 2.09867 24.6636 3.27836 24.5133 4.58079C24.3723 5.80212 23.773 6.99638 22.8257 7.94357C21.8785 8.89082 20.6842 9.49013 19.4629 9.63114C19.2763 9.65272 19.0923 9.66341 18.9115 9.66341ZM20.6656 2.03445C20.5587 2.03445 20.4493 2.04083 20.3378 2.05371C19.5351 2.14639 18.7355 2.55498 18.0863 3.20413C17.4371 3.85335 17.0285 4.65296 16.9359 5.45563C16.8525 6.17726 17.0414 6.80941 17.4676 7.23569C17.8939 7.66198 18.5263 7.85077 19.2477 7.76754C20.0504 7.67486 20.85 7.26627 21.4992 6.61705C22.1484 5.96784 22.557 5.16829 22.6496 4.36562C22.733 3.64399 22.5441 3.01184 22.1178 2.58555C21.7575 2.22518 21.2499 2.03445 20.6656 2.03445Z" fill="#46382C"/>
<path d="M6.31875 10.1409C5.23674 10.1409 4.26785 9.75923 3.54841 9.03985C2.70872 8.20015 2.32908 7.02053 2.47947 5.7181C2.62048 4.49676 3.2198 3.30251 4.16705 2.35526C5.11424 1.40807 6.30855 0.808757 7.52982 0.667682C8.83245 0.517353 10.0119 0.896991 10.8516 1.73656C11.6913 2.57625 12.0709 3.75594 11.9205 5.05837C11.7795 6.2797 11.1802 7.47396 10.2329 8.42114C9.28575 9.36839 8.09143 9.96771 6.8701 10.1087C6.68369 10.1303 6.49959 10.1409 6.31875 10.1409ZM8.07286 2.51203C7.96599 2.51203 7.85662 2.51841 7.74506 2.53129C6.94239 2.62396 6.14278 3.03255 5.49362 3.68171C4.84435 4.33099 4.43582 5.1306 4.34308 5.93327C4.25979 6.6549 4.44864 7.28705 4.87492 7.71333C5.30115 8.13956 5.93317 8.3286 6.65499 8.24511C7.45766 8.15244 8.25727 7.74385 8.90649 7.09463C9.5557 6.44542 9.96429 5.64581 10.0569 4.8432C10.1403 4.12157 9.95135 3.48942 9.52513 3.06313C9.16475 2.70276 8.65717 2.51203 8.07286 2.51203Z" fill="#46382C"/>
<path d="M26.3656 17.1178C25.2837 17.1178 24.3147 16.7361 23.5953 16.0167C22.7556 15.177 22.376 13.9974 22.5263 12.6949C22.6674 11.4736 23.2667 10.2794 24.2139 9.3321C25.1611 8.38492 26.3554 7.7856 27.5768 7.64459C28.8791 7.49395 30.0588 7.87384 30.8985 8.71347C31.7382 9.55309 32.1179 10.7328 31.9675 12.0352C31.8265 13.2565 31.2271 14.4508 30.28 15.398C29.3327 16.3452 28.1384 16.9445 26.9171 17.0856C26.7306 17.1071 26.5465 17.1178 26.3656 17.1178ZM28.1198 9.48887C28.0129 9.48887 27.9035 9.49525 27.792 9.50813C26.9893 9.60081 26.1897 10.0094 25.5404 10.6586C24.8912 11.3078 24.4826 12.1074 24.39 12.91C24.3067 13.6317 24.4955 14.2638 24.9218 14.6901C25.3481 15.1164 25.9804 15.3054 26.7019 15.2219C27.5045 15.1292 28.3042 14.7206 28.9534 14.0715C29.6026 13.4223 30.0112 12.6226 30.1038 11.82C30.1872 11.0983 29.9982 10.4662 29.572 10.0399C29.2116 9.67954 28.7041 9.48887 28.1198 9.48887Z" fill="#46382C"/>
<path d="M25.7357 29.5572C24.6538 29.5572 23.6848 29.1755 22.9654 28.4561C22.1257 27.6164 21.7461 26.4368 21.8965 25.1344C22.0375 23.913 22.6368 22.7188 23.584 21.7715C24.5312 20.8244 25.7256 20.225 26.9469 20.084C28.2492 19.9334 29.4289 20.3133 30.2686 21.1529C31.1083 21.9925 31.488 23.1722 31.3376 24.4747C31.1966 25.696 30.5973 26.8902 29.6501 27.8375C28.7028 28.7847 27.5085 29.384 26.2872 29.5251C26.1007 29.5466 25.9166 29.5572 25.7357 29.5572ZM27.4899 21.9284C27.383 21.9284 27.2736 21.9348 27.1621 21.9476C26.3594 22.0403 25.5598 22.4489 24.9106 23.0981C24.2613 23.7473 23.8527 24.5469 23.7601 25.3496C23.6768 26.0712 23.8656 26.7033 24.2919 27.1296C24.7181 27.5559 25.3505 27.7448 26.072 27.6614C26.8747 27.5687 27.6743 27.1601 28.3235 26.511C28.9727 25.8618 29.3813 25.0622 29.4739 24.2595C29.5573 23.5378 29.3684 22.9057 28.9421 22.4794C28.5817 22.119 28.0742 21.9284 27.4899 21.9284Z" fill="#46382C"/>
</g>
<defs>
<clipPath id="clip0">
<rect width="32" height="32" fill="white"/>
</clipPath>
</defs>
</svg>
