<svg width="15" height="15" viewBox="0 0 15 15" fill="none" xmlns="http://www.w3.org/2000/svg">
<path d="M11.5541 14.0954C11.414 14.0951 11.2743 14.0804 11.1374 14.0517C8.53184 13.5372 6.13142 12.3309 4.21241 10.5716C2.33436 8.8084 1.03182 6.56351 0.46241 4.1085C0.395269 3.80254 0.411748 3.48522 0.510262 3.18709C0.608776 2.88897 0.786009 2.62005 1.02491 2.40623L2.69158 0.874981C2.77671 0.798135 2.87785 0.739288 2.98842 0.702281C3.09898 0.665274 3.21648 0.650938 3.33324 0.660209C3.45431 0.672265 3.57114 0.709492 3.67552 0.769273C3.7799 0.829053 3.86929 0.909935 3.93741 1.00623L6.02074 3.94544C6.09887 4.05948 6.13658 4.19445 6.12833 4.33049C6.12008 4.46652 6.0663 4.59644 5.97491 4.70112L4.92908 5.8943C5.3456 6.77425 5.93547 7.56956 6.66658 8.23691C7.39295 8.92848 8.25151 9.48068 9.19575 9.86362L10.4916 8.88123C10.6004 8.79913 10.7329 8.75058 10.8713 8.74206C11.0097 8.73353 11.1476 8.76543 11.2666 8.8335L14.4124 10.7744C14.5204 10.8359 14.6123 10.92 14.6814 11.0203C14.7505 11.1205 14.795 11.2344 14.8114 11.3534C14.8278 11.4724 14.8158 11.5934 14.7763 11.7073C14.7368 11.8213 14.6708 11.9252 14.5832 12.0113L12.9582 13.5466C12.7737 13.7219 12.5546 13.8607 12.3136 13.9549C12.0726 14.0491 11.8145 14.0968 11.5541 14.0954ZM3.26658 1.44771L1.59991 2.97896C1.46552 3.0985 1.36603 3.24936 1.31124 3.41673C1.25645 3.58409 1.24823 3.76219 1.28741 3.9335C1.81688 6.23719 3.03396 8.34522 4.79158 10.0028C6.59749 11.658 8.85642 12.7926 11.3082 13.2761C11.4938 13.3132 11.6861 13.3056 11.8679 13.2543C12.0497 13.2029 12.2153 13.1093 12.3499 12.9818L13.9749 11.4466L10.9374 9.57328L9.54575 10.6312C9.49247 10.6715 9.42969 10.6987 9.36287 10.7105C9.29606 10.7223 9.22724 10.7183 9.16241 10.6988C8.00687 10.2924 6.95968 9.64733 6.09574 8.80964C5.20214 8.01308 4.5085 7.03419 4.06658 5.946C4.04788 5.88013 4.04726 5.81076 4.06477 5.74459C4.08229 5.67842 4.11735 5.61766 4.16658 5.56816L5.29158 4.2835L3.26658 1.44771Z" fill="#92887B"/>
</svg>
