<svg width="22" height="22" viewBox="0 0 22 22" fill="none" xmlns="http://www.w3.org/2000/svg">
<path d="M20.361 6.05505C20.3573 6.05505 20.3537 6.05505 20.35 6.05505H15.873V1.6277C15.879 0.734772 15.1502 0.00596824 14.245 0C14.2413 0 14.2376 0 14.234 0H7.766C6.86084 0 6.127 0.723921 6.127 1.61685V6.0442H1.65C0.744837 6.03823 0.00605 6.75714 0 7.65007C0 7.65739 0 7.66458 0 7.67191V14.0416C0 14.9346 0.733837 15.6585 1.639 15.6585H6.127V20.075C6.12095 20.9679 6.84984 21.6967 7.755 21.7027C7.75871 21.7027 7.76243 21.7027 7.766 21.7027H14.223C15.1282 21.7027 15.862 20.9788 15.862 20.0858V15.6585H20.35C21.2552 15.6645 21.9939 14.9454 22 14.0525C22 14.0488 22 14.0452 22 14.0416V7.67191C22 6.77898 21.2663 6.05505 20.361 6.05505ZM19.8 13.4882H14.773C14.1655 13.4882 13.673 13.9741 13.673 14.5734V19.5324H8.327V14.5734C8.327 13.9741 7.83448 13.4882 7.227 13.4882H2.2V8.22532H7.227C7.83448 8.22532 8.327 7.73946 8.327 7.14019V2.17027H13.662V7.12934C13.662 7.7286 14.1545 8.21447 14.762 8.21447H19.8V13.4882Z" fill="#56BA72"/>
</svg>
