<svg width="25" height="25" viewBox="0 0 25 25" fill="none" xmlns="http://www.w3.org/2000/svg">
<g clip-path="url(#clip0)">
<path d="M23.3377 12.8239C23.2371 12.6181 23.2371 12.3821 23.3377 12.1763L24.2701 10.2688C24.7893 9.20679 24.3779 7.94092 23.3337 7.38687L21.4582 6.39176C21.2559 6.28444 21.1172 6.09342 21.0776 5.86789L20.7108 3.77664C20.5065 2.61229 19.4295 1.82987 18.2592 1.99544L16.157 2.29281C15.9301 2.32484 15.7058 2.25189 15.5412 2.09266L14.0153 0.616495C13.1656 -0.205474 11.8346 -0.205523 10.9849 0.616495L9.45898 2.09281C9.29433 2.25208 9.06997 2.32489 8.84311 2.29295L6.74093 1.99559C5.57028 1.82992 4.49363 2.61243 4.28938 3.77678L3.92259 5.86794C3.88299 6.09352 3.74427 6.28449 3.54197 6.39186L1.6665 7.38697C0.622265 7.94097 0.21094 9.20693 0.730077 10.269L1.66244 12.1764C1.76303 12.3822 1.76303 12.6182 1.66244 12.824L0.730028 14.7314C0.210891 15.7935 0.622216 17.0593 1.66645 17.6134L3.54193 18.6085C3.74427 18.7158 3.88299 18.9068 3.92259 19.1324L4.28938 21.2236C4.47532 22.2836 5.3842 23.0269 6.42877 23.0268C6.53165 23.0268 6.63605 23.0196 6.74098 23.0048L8.84316 22.7074C9.06987 22.6752 9.29438 22.7483 9.45903 22.9076L10.9849 24.3837C11.4098 24.7948 11.9549 25.0002 12.5001 25.0002C13.0451 25.0001 13.5905 24.7947 14.0152 24.3837L15.5412 22.9076C15.7058 22.7483 15.9302 22.6756 16.157 22.7074L18.2592 23.0048C19.43 23.1704 20.5065 22.3879 20.7108 21.2236L21.0776 19.1324C21.1172 18.9068 21.2559 18.7159 21.4582 18.6085L23.3337 17.6134C24.3779 17.0594 24.7893 15.7934 24.2701 14.7314L23.3377 12.8239ZM22.6579 16.3396L20.7824 17.3347C20.1845 17.6521 19.7743 18.2164 19.6574 18.8832L19.2906 20.9744C19.2215 21.3684 18.8573 21.6329 18.4612 21.577L16.359 21.2797C15.6886 21.1847 15.0252 21.4005 14.5386 21.8711L13.0127 23.3472C12.7253 23.6253 12.2749 23.6253 11.9874 23.3472L10.4615 21.8711C10.0503 21.4733 9.51269 21.2577 8.95146 21.2577C8.84863 21.2577 8.74497 21.2649 8.64116 21.2796L6.53898 21.577C6.14318 21.6329 5.77868 21.3683 5.70954 20.9744L5.3427 18.8831C5.22571 18.2163 4.81565 17.6519 4.21765 17.3347L2.34218 16.3396C1.98886 16.1521 1.8497 15.7238 2.02533 15.3645L2.95775 13.4571C3.25501 12.8489 3.25501 12.1513 2.95775 11.5431L2.02533 9.63564C1.8497 9.27632 1.98886 8.84805 2.34218 8.6606L4.21765 7.66549C4.8156 7.34815 5.22571 6.7838 5.34265 6.11701L5.70944 4.02581C5.77858 3.63186 6.14274 3.36721 6.53888 3.42317L8.64107 3.72053C9.31123 3.81541 9.97485 3.59973 10.4614 3.12908L11.9874 1.65292C12.2748 1.37489 12.7251 1.37489 13.0126 1.65292L14.5385 3.12908C15.0251 3.59978 15.6886 3.81541 16.3589 3.72053L18.4611 3.42317C18.8569 3.36717 19.2214 3.63186 19.2905 4.02581L19.6573 6.11706C19.7743 6.78385 20.1844 7.34825 20.7824 7.66549L22.6578 8.6606C23.0111 8.84805 23.1503 9.27632 22.9747 9.63564L22.0423 11.5431C21.745 12.1512 21.745 12.8489 22.0423 13.457L22.9747 15.3644C23.1504 15.7238 23.0112 16.1522 22.6579 16.3396Z" fill="#56BA72"/>
<path d="M17.7682 7.23215C17.4867 6.95061 17.0302 6.95061 16.7487 7.23215L7.23264 16.7482C6.9511 17.0298 6.9511 17.4862 7.23264 17.7678C7.37341 17.9086 7.55793 17.979 7.7424 17.979C7.92688 17.979 8.11145 17.9086 8.25217 17.7678L17.7682 8.25178C18.0498 7.97019 18.0498 7.51374 17.7682 7.23215Z" fill="#56BA72"/>
<path d="M9.61615 6.01147C8.15854 6.01147 6.97266 7.19736 6.97266 8.65497C6.97266 10.1126 8.15854 11.2985 9.61615 11.2985C11.0738 11.2985 12.2596 10.1126 12.2596 8.65497C12.2596 7.19736 11.0738 6.01147 9.61615 6.01147ZM9.61615 9.85652C8.9536 9.85652 8.41459 9.31751 8.41459 8.65492C8.41459 7.99237 8.9536 7.45336 9.61615 7.45336C10.2787 7.45336 10.8178 7.99237 10.8178 8.65492C10.8177 9.31751 10.2787 9.85652 9.61615 9.85652Z" fill="#56BA72"/>
<path d="M15.3837 13.7017C13.9261 13.7017 12.7402 14.8875 12.7402 16.3452C12.7402 17.8028 13.9261 18.9886 15.3837 18.9886C16.8413 18.9886 18.0272 17.8028 18.0272 16.3452C18.0272 14.8875 16.8413 13.7017 15.3837 13.7017ZM15.3837 17.5467C14.7212 17.5467 14.1821 17.0077 14.1821 16.3452C14.1821 15.6826 14.7211 15.1436 15.3837 15.1436C16.0463 15.1436 16.5853 15.6826 16.5853 16.3452C16.5853 17.0077 16.0463 17.5467 15.3837 17.5467Z" fill="#56BA72"/>
</g>
<defs>
<clipPath id="clip0">
<rect width="25" height="25" fill="white"/>
</clipPath>
</defs>
</svg>
