<svg width="24" height="24" viewBox="0 0 24 24" fill="none" xmlns="http://www.w3.org/2000/svg">
<path d="M18.1101 15.7578C19.2151 14.1571 19.8636 12.2166 19.8636 10.1239C19.8636 4.63884 15.4178 0.192139 9.93178 0.192139C4.44577 0.192139 0 4.6388 0 10.1239C0 15.609 4.44577 20.0557 9.93178 20.0557C12.2216 20.0557 14.3287 19.2789 16.0085 17.9773L21.8392 23.808L24 21.6475L18.1101 15.7578ZM9.93178 17.9165C5.63489 17.9165 2.13914 14.4209 2.13914 10.1239C2.13914 5.82699 5.6348 2.33123 9.93178 2.33123C14.2288 2.33123 17.7244 5.82689 17.7244 10.1239C17.7244 14.4209 14.2287 17.9165 9.93178 17.9165Z" fill="#56BA72"/>
</svg>
