<svg width="56" height="56" viewBox="0 0 56 56" fill="none" xmlns="http://www.w3.org/2000/svg">
<g clip-path="url(#clip0)">
<path d="M52.9094 56C54.6163 56 56 54.6163 56 52.9094V3.09103C56 1.38368 54.6163 -7.62939e-06 52.9094 -7.62939e-06H3.09064C1.38328 -7.62939e-06 0 1.38367 0 3.09103V52.9094C0 54.6163 1.38327 56 3.09064 56H52.9094Z" fill="#335FE8"/>
<path d="M38.6391 56V34.3141H45.9182L47.008 25.8625H38.6391V20.4664C38.6391 18.0197 39.3183 16.3523 42.8275 16.3523L47.3031 16.3502V8.79114C46.5286 8.68828 43.872 8.45824 40.7814 8.45824C34.3289 8.45824 29.9112 12.3969 29.9112 19.6297V25.8626H22.6133V34.3141H29.9112V56H38.6391V56Z" fill="#FEFEFE"/>
</g>
<defs>
<clipPath id="clip0">
<rect width="56" height="56" rx="12" fill="white"/>
</clipPath>
</defs>
</svg>
