<svg width="56" height="56" viewBox="0 0 56 56" fill="none" xmlns="http://www.w3.org/2000/svg">
<path fill-rule="evenodd" clip-rule="evenodd" d="M55.9995 47.8052C55.9995 52.3312 52.3494 56 47.8465 56H8.15294C3.65008 56 0 52.3312 0 47.8052V8.19478C0 3.66882 3.65008 0 8.15294 0H47.8465C52.3494 0 55.9995 3.66882 55.9995 8.19478V47.8052Z" fill="#FAAB62"/>
<path fill-rule="evenodd" clip-rule="evenodd" d="M55.7134 47.6013C55.7134 52.0806 52.1012 55.7122 47.6439 55.7122H8.35776C3.90132 55.7122 0.289062 52.0814 0.289062 47.6013V8.39782C0.289062 3.91851 3.90132 0.28685 8.35776 0.28685H47.6439C52.1003 0.28685 55.7134 3.91851 55.7134 8.39782V47.6013Z" fill="#F7931E"/>
<path fill-rule="evenodd" clip-rule="evenodd" d="M27.9712 8.36931C22.4213 8.36931 17.9219 12.8918 17.9219 18.4702C17.9219 24.0486 22.4213 28.5711 27.9712 28.5711C33.5211 28.5711 38.0205 24.0486 38.0205 18.4702C38.0205 12.8918 33.5211 8.36931 27.9712 8.36931ZM27.9712 22.6454C25.6768 22.6454 23.8174 20.7755 23.8174 18.4702C23.8174 16.164 25.6768 14.2951 27.9712 14.2951C30.2656 14.2951 32.125 16.1649 32.125 18.4702C32.125 20.7764 30.2648 22.6454 27.9712 22.6454Z" fill="white"/>
<path fill-rule="evenodd" clip-rule="evenodd" d="M31.5185 36.6087C35.5416 35.7852 37.9521 33.8696 38.0793 33.7676C39.2562 32.8189 39.4462 31.0899 38.5014 29.907C37.5575 28.7241 35.8382 28.5331 34.6605 29.4827C34.6356 29.5026 32.0643 31.4856 27.834 31.4882C23.6037 31.4848 20.9774 29.5026 20.9533 29.4827C19.7756 28.534 18.0563 28.7241 17.1124 29.907C16.1685 31.0899 16.3576 32.8189 17.5345 33.7676C17.6635 33.8722 20.1736 35.8362 24.3103 36.6406L18.5463 42.696C17.4984 43.7882 17.5302 45.5267 18.6168 46.5791C19.1472 47.0932 19.8298 47.349 20.5132 47.349C21.2293 47.349 21.9445 47.0682 22.4809 46.5082L27.8357 40.7743L33.7312 46.5454C34.7989 47.6168 36.5294 47.616 37.5954 46.5419C38.6613 45.4688 38.6596 43.7294 37.5919 42.658L31.5193 36.6087H31.5185Z" fill="white"/>
<path fill-rule="evenodd" clip-rule="evenodd" d="M27.8331 31.4865C27.8294 31.4865 27.8368 31.487 27.8331 31.487C27.8294 31.487 27.8368 31.4865 27.8331 31.4865Z" fill="white"/>
</svg>
