<svg width="56" height="56" viewBox="0 0 56 56" fill="none" xmlns="http://www.w3.org/2000/svg">
<path fill-rule="evenodd" clip-rule="evenodd" d="M8.62904 0H47.371C52.1367 0 56 3.86331 56 8.62904V47.371C56 52.1367 52.1367 56 47.371 56H8.62904C3.86331 56 0 52.1367 0 47.371V8.62904C0 3.86331 3.86331 0 8.62904 0Z" fill="#3B8BEE"/>
<path d="M40.6869 28.4667C40.6869 28.4667 45.5255 21.6409 46.0065 19.3975C46.1669 18.5966 45.8143 18.1474 44.9806 18.1474C44.9806 18.1474 42.1931 18.1474 40.7826 18.1474C39.8213 18.1474 39.4687 18.5638 39.1807 19.1725C39.1807 19.1725 36.9111 24.0086 34.1491 27.0563C33.263 28.0413 32.8122 28.3383 32.323 28.3383C31.9286 28.3383 31.7462 28.0094 31.7462 27.1209V19.3337C31.7462 18.2439 31.6185 17.924 30.721 17.924H23.9909C23.4779 17.924 23.158 18.2219 23.158 18.6285C23.158 19.6544 24.7281 19.8868 24.7281 22.6669V28.4029C24.7281 29.5565 24.6642 30.0049 24.1193 30.0049C22.6778 30.0049 19.2489 25.0379 17.3262 19.3975C16.9417 18.2439 16.5253 17.924 15.4355 17.924H11.2376C10.6289 17.924 10.1797 18.3405 10.1797 18.9492C10.1797 20.0709 11.4936 25.262 16.6529 32.2163C20.1137 36.8953 24.6642 39.4267 28.7656 39.4267C31.2651 39.4267 31.8738 39.0103 31.8738 37.9524V34.3632C31.8738 33.4656 32.2264 33.0811 32.7386 33.0811C33.3154 33.0811 34.3331 33.266 36.7123 35.6125C39.5325 38.305 39.7248 39.4259 41.2629 39.4259H45.973C46.4541 39.4259 46.9024 39.2017 46.9024 38.4007C46.9024 37.3429 45.5246 35.4529 43.4089 33.2087C42.5441 32.0552 41.1336 30.805 40.6853 30.229C40.0447 29.5557 40.2369 29.1712 40.6853 28.4667H40.6869Z" fill="#FEFEFE"/>
</svg>
