<svg width="25" height="25" viewBox="0 0 25 25" fill="none" xmlns="http://www.w3.org/2000/svg">
<g clip-path="url(#clip0)">
<path d="M19.6429 14.2857C17.8708 14.2857 16.3091 15.1605 15.3334 16.4901L10.458 14.0518C10.609 13.5573 10.7143 13.0432 10.7143 12.5C10.7143 11.9568 10.609 11.4426 10.458 10.9482L15.3334 8.50989C16.3091 9.83947 17.8708 10.7142 19.6429 10.7142C22.5969 10.7142 25 8.31118 25 5.35709C25 2.40301 22.597 0 19.6429 0C16.6887 0 14.2857 2.40306 14.2857 5.35715C14.2857 5.90034 14.3911 6.41445 14.5421 6.90887L9.66652 9.34723C8.69081 8.01765 7.12919 7.14288 5.35709 7.14288C2.40301 7.14288 0 9.54589 0 12.5C0 15.4542 2.40301 17.8572 5.35715 17.8572C7.12924 17.8572 8.69087 16.9824 9.66658 15.6528L14.542 18.0912C14.391 18.5855 14.2857 19.0997 14.2857 19.6429C14.2857 22.597 16.6887 25.0001 19.6429 25.0001C22.597 25.0001 25 22.597 25 19.6429C25 16.6888 22.5969 14.2857 19.6429 14.2857ZM19.6429 1.78573C21.6126 1.78573 23.2143 3.38836 23.2143 5.35715C23.2143 7.32598 21.6125 8.92856 19.6429 8.92856C17.6731 8.92856 16.0714 7.32593 16.0714 5.35715C16.0714 3.38836 17.6732 1.78573 19.6429 1.78573ZM5.35715 16.0714C3.38743 16.0714 1.78573 14.4688 1.78573 12.5C1.78573 10.5312 3.38748 8.92861 5.35715 8.92861C7.32686 8.92861 8.92856 10.5312 8.92856 12.5C8.92856 14.4688 7.32686 16.0714 5.35715 16.0714ZM19.6429 23.2143C17.6731 23.2143 16.0714 21.6116 16.0714 19.6429C16.0714 17.6741 17.6732 16.0714 19.6429 16.0714C21.6126 16.0714 23.2143 17.6741 23.2143 19.6429C23.2143 21.6117 21.6126 23.2143 19.6429 23.2143Z" fill="#92887B"/>
</g>
<defs>
<clipPath id="clip0">
<rect width="25" height="25" fill="white"/>
</clipPath>
</defs>
</svg>
