<svg width="32" height="32" viewBox="0 0 32 32" fill="none" xmlns="http://www.w3.org/2000/svg">
<g clip-path="url(#clip0)">
<path d="M29.5929 8.68241L29.592 8.65751C29.578 8.35013 29.5688 8.02494 29.5631 7.66313C29.537 5.89873 28.1344 4.43926 26.3698 4.34062C22.6906 4.1353 19.8444 2.9356 17.4125 0.565245L17.3918 0.54547C16.5986 -0.181823 15.4021 -0.181823 14.6086 0.54547L14.5878 0.565245C12.156 2.9356 9.30978 4.1353 5.63059 4.34087C3.8662 4.43926 2.46337 5.89873 2.43724 7.66337C2.43187 8.02274 2.42235 8.34794 2.40844 8.65751L2.40697 8.71537C2.33544 12.4671 2.24657 17.1362 3.80858 21.3743C4.66746 23.7048 5.96824 25.7307 7.67453 27.396C9.61789 29.2925 12.1633 30.7981 15.2399 31.8708C15.34 31.9057 15.444 31.9341 15.55 31.9553C15.6994 31.9851 15.8498 32 16.0002 32C16.1506 32 16.3012 31.9851 16.4504 31.9553C16.5563 31.9341 16.6611 31.9055 16.7617 31.8703C19.8347 30.7956 22.3774 29.2893 24.319 27.393C26.0246 25.7273 27.3254 23.7009 28.185 21.3699C29.7528 17.1192 29.6642 12.4412 29.5929 8.68241ZM26.4233 20.7202C24.7758 25.187 21.4128 28.2546 16.142 30.0979C16.1232 30.1042 16.1032 30.1098 16.0825 30.114C16.028 30.1247 15.9726 30.1247 15.9174 30.1137C15.8969 30.1096 15.8769 30.1042 15.8583 30.0979C10.582 28.258 7.21677 25.1921 5.57054 20.7251C4.13084 16.8186 4.21239 12.5325 4.28441 8.75126L4.2849 8.73026C4.29954 8.40531 4.30931 8.06498 4.31468 7.69096C4.3264 6.90751 4.95042 6.25932 5.73533 6.21562C7.81736 6.09941 9.64645 5.69707 11.3271 4.98564C13.0056 4.2752 14.4963 3.27373 15.884 1.92413C15.9545 1.86456 16.0461 1.86431 16.1164 1.92413C17.5043 3.27373 18.9951 4.2752 20.6733 4.98564C22.3539 5.69707 24.183 6.09941 26.2653 6.21562C27.0502 6.25932 27.6742 6.90751 27.6857 7.6912C27.6913 8.06718 27.7011 8.40751 27.7157 8.73026C27.7875 12.5159 27.8671 16.8054 26.4233 20.7202Z" fill="#46382C"/>
<path d="M16.0002 8.02588C11.6028 8.02588 8.02539 11.6035 8.02539 16.0007C8.02539 20.3982 11.6028 23.9758 16.0002 23.9758C20.3975 23.9758 23.9751 20.3982 23.9751 16.0007C23.9751 11.6035 20.3975 8.02588 16.0002 8.02588ZM16.0002 22.0979C12.6382 22.0979 9.90308 19.3628 9.90308 16.0007C9.90308 12.6387 12.6382 9.90356 16.0002 9.90356C19.3621 9.90356 22.0972 12.6387 22.0972 16.0007C22.0972 19.3628 19.3621 22.0979 16.0002 22.0979Z" fill="#46382C"/>
<path d="M18.2917 13.525L14.5876 17.2291L13.5822 16.2237C13.2155 15.857 12.621 15.857 12.2543 16.2237C11.8879 16.5904 11.8879 17.1849 12.2543 17.5513L13.9238 19.2208C14.1071 19.4041 14.3474 19.4957 14.5876 19.4957C14.8278 19.4957 15.0681 19.4041 15.2514 19.2208L19.6196 14.8526C19.986 14.4859 19.986 13.8914 19.6196 13.525C19.2529 13.158 18.6584 13.158 18.2917 13.525Z" fill="#46382C"/>
</g>
<defs>
<clipPath id="clip0">
<rect width="32" height="32" fill="white"/>
</clipPath>
</defs>
</svg>
