<svg width="40" height="40" viewBox="0 0 40 40" fill="none" xmlns="http://www.w3.org/2000/svg">
<g clip-path="url(#clip0)">
<path d="M7.1593 7.03125H9.29719C11.2357 7.03125 12.8128 5.45414 12.8128 3.51562C12.8128 1.57711 11.2357 0 9.29719 0C7.35867 0 5.78156 1.57711 5.78156 3.51562V5.06336C2.92734 6.32508 1.38101 8.63688 1.40656 11.6506C1.45601 17.4602 7.42992 24.7582 12.8128 25.7473V29.4531C12.8128 35.2687 17.5441 40 23.3597 40C29.1752 40 33.9066 35.2687 33.9066 29.4531V28.0852C36.5778 27.5409 38.5941 25.1734 38.5941 22.3438C38.5941 19.1129 35.9656 16.4844 32.7347 16.4844C29.5038 16.4844 26.8753 19.1129 26.8753 22.3438C26.8753 25.1734 28.8916 27.5408 31.5628 28.0852V29.4531C31.5628 33.9763 27.8829 37.6562 23.3597 37.6562C18.8365 37.6562 15.1566 33.9763 15.1566 29.4531V25.7502C20.1841 24.8384 25.5151 18.5348 26.4126 13.2241C27.0441 9.48781 25.5098 6.56313 22.1878 5.0782V3.51562C22.1878 1.57711 20.6107 0 18.6722 0C16.7337 0 15.1566 1.57711 15.1566 3.51562C15.1566 5.45414 16.7337 7.03125 18.6722 7.03125H20.7767C23.4642 8.03211 24.5834 9.98289 24.1016 12.8335C23.2181 18.0616 17.603 23.5156 13.9847 23.5156C9.80149 23.5156 3.79359 16.7231 3.75031 11.6306C3.73148 9.42789 4.87859 7.88148 7.1593 7.03125ZM8.12531 3.51562C8.12531 2.86945 8.65102 2.34375 9.29719 2.34375C9.94336 2.34375 10.4691 2.86945 10.4691 3.51562C10.4691 4.1618 9.94336 4.6875 9.29719 4.6875H8.12531V3.51562ZM29.2191 22.3438C29.2191 20.4052 30.7962 18.8281 32.7347 18.8281C34.6732 18.8281 36.2503 20.4052 36.2503 22.3438C36.2503 24.2823 34.6732 25.8594 32.7347 25.8594C30.7962 25.8594 29.2191 24.2823 29.2191 22.3438ZM19.8441 4.6875H18.6722C18.026 4.6875 17.5003 4.1618 17.5003 3.51562C17.5003 2.86945 18.026 2.34375 18.6722 2.34375C19.3184 2.34375 19.8441 2.86945 19.8441 3.51562V4.6875Z" fill="#56BA72"/>
<path d="M31.5625 21.1719H33.9062V23.5156H31.5625V21.1719Z" fill="#56BA72"/>
</g>
<defs>
<clipPath id="clip0">
<rect width="40" height="40" fill="white"/>
</clipPath>
</defs>
</svg>
