<svg width="17" height="15" viewBox="0 0 17 15" fill="none" xmlns="http://www.w3.org/2000/svg">
<path d="M14.3514 12.7581C14.8021 14.7574 12.5486 15.1913 11.539 14.9322C10.5294 14.6732 8.50582 14.6235 8.50582 14.6235C8.50582 14.6235 6.4619 14.6667 5.46361 14.9279C4.46531 15.1892 2.19605 14.753 2.649 12.7538C3.10196 10.7546 5.09854 10.8453 5.64614 8.14655C6.19374 5.44782 8.50582 5.6227 8.50582 5.6227C8.50582 5.6227 10.8156 5.44998 11.361 8.14655C11.9063 10.8431 13.8984 10.7568 14.3514 12.7581ZM10.5993 5.44998C11.8297 5.78894 13.1863 4.86058 13.6325 3.37304C14.0787 1.8855 13.4477 0.408751 12.2196 0.0697905C10.9914 -0.26917 9.63256 0.659193 9.18637 2.14673C8.74018 3.63427 9.37116 5.10886 10.5993 5.44998ZM15.6922 4.90807C14.5091 4.44605 13.0556 5.23192 12.4472 6.66333C11.8387 8.09474 12.3007 9.63193 13.4838 10.0918C14.6669 10.5517 16.1203 9.77011 16.731 8.3387C17.3417 6.90729 16.8775 5.37226 15.6922 4.90807ZM6.40106 5.44998C7.62921 5.10886 8.26018 3.62996 7.81399 2.14673C7.3678 0.663511 6.01121 -0.26917 4.7808 0.0719496C3.5504 0.413069 2.91942 1.88981 3.36561 3.3752C3.8118 4.86058 5.17066 5.78894 6.40106 5.44998ZM3.51659 10.0896C4.70193 9.62761 5.16615 8.09258 4.55545 6.66117C3.94476 5.22976 2.50478 4.44605 1.30818 4.90807C0.111575 5.3701 -0.339124 6.90729 0.271571 8.3387C0.882267 9.77011 2.33351 10.556 3.51659 10.0896Z" fill="#E0E0E0"/>
</svg>
