<svg width="24" height="19" viewBox="0 0 24 19" fill="none" xmlns="http://www.w3.org/2000/svg">
<g clip-path="url(#clip0)">
<path d="M23.9998 2.25061C23.3315 3.21944 22.5116 4.04533 21.5401 4.72826C21.5496 4.91142 21.5544 5.11844 21.5544 5.34932C21.5544 6.63211 21.3625 7.91645 20.9787 9.20235C20.5949 10.4883 20.0087 11.7191 19.22 12.8949C18.4312 14.0706 17.4917 15.1123 16.4014 16.0198C15.3111 16.9272 14.0005 17.6508 12.4697 18.1905C10.9388 18.7302 9.29809 19 7.54758 19C4.81563 19 2.29977 18.2812 0 16.8437C0.408182 16.8879 0.799662 16.9101 1.17444 16.9101C3.45677 16.9101 5.49525 16.2249 7.28989 14.8547C6.22574 14.8357 5.27272 14.5164 4.43082 13.8969C3.58891 13.2774 3.00954 12.4858 2.69268 11.5222C3.00587 11.5803 3.31498 11.6094 3.62 11.6094C4.05906 11.6094 4.4911 11.5536 4.9161 11.4419C3.78045 11.2203 2.83833 10.669 2.08975 9.78817C1.34119 8.90735 0.966913 7.8907 0.966913 6.73824V6.67884C1.66398 7.05499 2.40751 7.25507 3.1975 7.27909C2.52475 6.84199 1.99136 6.272 1.59734 5.56911C1.20328 4.86622 1.00625 4.10558 1.00625 3.28717C1.00625 2.42403 1.22818 1.62028 1.67204 0.875919C2.90704 2.35294 4.40349 3.53342 6.1614 4.41737C7.91934 5.30132 9.80527 5.79225 11.8192 5.89013C11.7333 5.54125 11.6903 5.17718 11.6901 4.79792C11.6901 3.47367 12.171 2.34295 13.1327 1.40577C14.0944 0.468591 15.2546 0 16.6134 0C18.036 0 19.2342 0.504836 20.2082 1.51451C21.321 1.2997 22.3629 0.911151 23.3339 0.348878C22.9598 1.49635 22.2389 2.38155 21.1713 3.00447C22.1526 2.89083 23.0954 2.63954 23.9998 2.25061H23.9998Z" fill="#92887B"/>
</g>
<defs>
<clipPath id="clip0">
<rect width="24" height="19" fill="white"/>
</clipPath>
</defs>
</svg>
