<svg width="34" height="34" viewBox="0 0 34 34" fill="none" xmlns="http://www.w3.org/2000/svg">
<path d="M17 5.3125C12.9041 5.3125 9.5625 8.65406 9.5625 12.75C9.5625 15.3106 10.8694 17.5844 12.8499 18.9263C9.05994 20.5519 6.375 24.3132 6.375 28.6875H8.5C8.49866 27.2349 8.87052 25.8064 9.57993 24.5388C10.2893 23.2712 11.3125 22.2072 12.5513 21.4487C12.9138 22.3312 13.5301 23.0863 14.322 23.6183C15.1139 24.1504 16.0459 24.4355 17 24.4375C17.9542 24.4357 18.8865 24.1507 19.6786 23.6186C20.4707 23.0865 21.0872 22.3314 21.4497 21.4487C22.6884 22.2073 23.7113 23.2714 24.4205 24.539C25.1298 25.8065 25.5015 27.235 25.5 28.6875H27.625C27.625 24.3132 24.9401 20.553 21.1501 18.9253C22.1609 18.2429 22.9891 17.3232 23.5622 16.2467C24.1353 15.1701 24.4358 13.9696 24.4375 12.75C24.4375 8.65406 21.0959 5.3125 17 5.3125ZM17 7.4375C19.9463 7.4375 22.3125 9.80369 22.3125 12.75C22.3125 15.6963 19.9463 18.0625 17 18.0625C14.0537 18.0625 11.6875 15.6963 11.6875 12.75C11.6875 9.80369 14.0537 7.4375 17 7.4375ZM17 20.1875C17.8713 20.1875 18.7021 20.3118 19.4905 20.553C19.309 21.0686 18.9719 21.5152 18.5258 21.831C18.0798 22.1469 17.5466 22.3166 17 22.3166C16.4534 22.3166 15.9202 22.1469 15.4742 21.831C15.0281 21.5152 14.691 21.0686 14.5095 20.553C15.3169 20.308 16.1563 20.1848 17 20.1875Z" fill="#92887B"/>
</svg>
