<svg width="54" height="17" viewBox="0 0 54 17" fill="none" xmlns="http://www.w3.org/2000/svg">
<path d="M26.7365 0.301281L23.1289 16.7414H18.7662L22.3741 0.301281H26.7365ZM45.0953 10.9165L47.3924 4.74188L48.7131 10.9165H45.0953H45.0953ZM49.9648 16.7414H54L50.4757 0.301276H46.7534C45.9136 0.301276 45.2072 0.774733 44.8935 1.50708L38.3471 16.7414H42.9302L43.8381 14.2862H49.4366L49.9648 16.7414H49.9648ZM38.5738 11.3745C38.5936 7.03576 32.4211 6.79387 32.4618 4.85599C32.4746 4.26692 33.0512 3.63926 34.3119 3.47889C34.936 3.39993 36.6613 3.33675 38.6147 4.21467L39.381 0.7275C38.3296 0.356875 36.9792 0 35.2986 0C30.9847 0 27.9512 2.23422 27.9263 5.43509C27.8977 7.80202 30.0939 9.1207 31.7443 9.90988C33.446 10.7151 34.0165 11.2324 34.008 11.951C33.9955 13.0549 32.65 13.5429 31.3983 13.5624C29.2032 13.5951 27.9311 12.9832 26.9173 12.5219L26.1248 16.127C27.1466 16.5826 29.0288 16.9783 30.9757 17C35.5627 17 38.5611 14.7926 38.5738 11.3745L38.5738 11.3745ZM20.5027 0.301281L13.432 16.7414H8.82022L5.34087 3.6197C5.13006 2.81369 4.94564 2.51736 4.30434 2.17607C3.25515 1.62128 1.52244 1.10139 0 0.778351L0.10369 0.301281H7.5283C8.47389 0.301281 9.32474 0.914229 9.54125 1.9756L11.3801 11.4911L15.9183 0.301281H20.5027H20.5027Z" fill="#92887B"/>
</svg>
