<svg width="98" height="19" viewBox="0 0 98 19" fill="none" xmlns="http://www.w3.org/2000/svg">
<path d="M0 9.25231C0.649522 6.54157 2.18634 4.22917 4.25719 2.59637V2.59033C6.32946 0.956802 8.9361 0 11.7239 0C15.0542 0 18.0704 1.34984 20.2525 3.53144C22.4349 5.71305 23.7853 8.7278 23.7853 12.0568C23.7853 13.2987 23.5928 14.5263 23.2213 15.698C22.8509 16.8662 22.2995 17.9816 21.5811 19L19.1171 17.2674C19.6525 16.5084 20.065 15.6716 20.3445 14.7908C20.6229 13.9124 20.7673 12.9905 20.7673 12.0568C20.7673 9.56057 19.7548 7.30025 18.1186 5.66458C16.4826 4.02891 14.2211 3.01686 11.7239 3.01686C9.63055 3.01686 7.67415 3.73422 6.12022 4.95937L6.11736 4.95578C4.56377 6.18165 3.41089 7.916 2.92392 9.94794L0 9.25231Z" fill="#92887B"/>
<path d="M11.7235 5.66772C13.4839 5.66772 15.0802 6.38291 16.237 7.5389L16.2431 7.54497C17.3995 8.70135 18.115 10.2971 18.115 12.0568C18.115 13.8164 17.3992 15.4125 16.2431 16.5685L16.237 16.5746C15.0802 17.7306 13.4839 18.4458 11.7235 18.4458C9.96319 18.4458 8.36647 17.7303 7.21 16.5746L7.20396 16.5685C6.04787 15.4125 5.33203 13.8164 5.33203 12.0568C5.33203 10.2928 6.04787 8.69493 7.20396 7.53928C8.3604 6.38326 9.95891 5.66772 11.7235 5.66772ZM14.112 9.66919C13.5017 9.06127 12.6575 8.68458 11.7235 8.68458C10.792 8.68458 9.94821 9.06234 9.33789 9.67239C8.72794 10.2821 8.35005 11.1256 8.35005 12.0568C8.35005 12.9904 8.72687 13.8342 9.33506 14.4443C9.94535 15.0522 10.7895 15.4289 11.7235 15.4289C12.6575 15.4289 13.5017 15.0522 14.112 14.4443C14.7202 13.8342 15.097 12.9904 15.097 12.0568C15.097 11.1231 14.7202 10.2793 14.112 9.66919Z" fill="#92887B"/>
<path d="M32.3572 7.34418H28.9014L31.1496 15.3305C31.4655 16.4262 31.9298 17.2992 33.7508 17.2992C35.5531 17.2992 36.0733 16.5749 36.2777 15.8692L37.5784 11.5786C37.6154 11.4674 37.6526 11.2815 37.7268 11.2815C37.8011 11.2815 37.8383 11.4674 37.8756 11.5786L39.1761 15.8692C39.3804 16.5749 39.9006 17.2992 41.7029 17.2992C43.5239 17.2992 43.9885 16.4262 44.3043 15.3305L46.5524 7.34418H43.0965L41.6101 13.0089C41.5914 13.0831 41.5172 13.306 41.4243 13.306C41.3314 13.306 41.2756 13.0831 41.2572 13.0275L39.8078 8.27277C39.6779 7.84559 39.3248 7.23274 37.7268 7.23274C36.1289 7.23274 35.7761 7.84559 35.646 8.27277L34.1967 13.0275C34.1781 13.0831 34.1225 13.306 34.0294 13.306C33.9365 13.306 33.8623 13.0831 33.8436 13.0089L32.3572 7.34418ZM56.6597 17.1877V14.5503H51.8848C51.2344 14.5503 50.5657 14.5876 50.2498 14.0862C50.1197 13.8819 50.0638 13.5475 50.0825 13.2874H55.4521C55.7866 13.2874 56.1025 13.2688 56.4183 13.0089C56.9755 12.5631 57.0128 11.8388 57.0128 11.2073C57.0128 10.13 56.9013 8.66273 55.9537 7.90143C55.1735 7.26995 53.8728 7.23274 51.8848 7.23274C50.0268 7.23274 48.1503 7.26995 47.2397 8.19857C46.348 9.10854 46.4409 10.5758 46.4409 12.3774C46.4409 14.1604 46.5151 15.2004 46.9425 15.9061C47.7229 17.1877 48.9678 17.1877 50.4356 17.1877H56.6597ZM50.0825 10.9844C50.0452 10.483 50.1011 10.093 50.4725 9.88871C50.7328 9.74005 51.3086 9.72142 51.736 9.72142C51.922 9.72142 52.405 9.74005 52.7022 9.79561C53.2411 9.90709 53.3712 10.2044 53.3712 10.4643C53.3712 10.65 53.297 10.9844 52.7765 10.9844H50.0825ZM57.9048 4.18677V15.4047C57.9048 15.8692 57.9976 16.2591 58.3321 16.6118C58.8151 17.1321 59.4282 17.1877 59.9114 17.1877H64.2404C65.2066 17.1877 66.8418 17.0207 67.7148 15.5534C68.1236 14.8661 68.3652 13.8819 68.3652 12.2473C68.3652 11.2445 68.3279 9.96293 67.6962 8.94149C66.7673 7.4184 65.2252 7.34418 64.1847 7.34418H61.5463V4.18677H57.9048ZM61.5463 9.90709H63.1999C63.4972 9.90709 64.0919 9.96293 64.4077 10.6686C64.482 10.836 64.6491 11.2815 64.6491 12.2101C64.6491 13.1946 64.5006 13.6404 64.3891 13.8819C64.1847 14.2905 63.8502 14.5503 63.1257 14.5503H62.3824C62.2153 14.5503 61.9178 14.5503 61.7321 14.3833C61.5463 14.1974 61.5463 13.826 61.5463 13.659V9.90709ZM79.253 17.1877V14.5503H74.4781C73.8277 14.5503 73.159 14.5876 72.8431 14.0862C72.713 13.8819 72.6571 13.5475 72.6758 13.2874H78.0454C78.3799 13.2874 78.6957 13.2688 79.0116 13.0089C79.5689 12.5631 79.6061 11.8388 79.6061 11.2073C79.6061 10.13 79.4946 8.66273 78.547 7.90143C77.7668 7.26995 76.4661 7.23274 74.4781 7.23274C72.6201 7.23274 70.7436 7.26995 69.833 8.19857C68.9413 9.10854 69.0342 10.5758 69.0342 12.3774C69.0342 14.1604 69.1084 15.2004 69.5358 15.9061C70.3162 17.1877 71.5611 17.1877 73.0289 17.1877H79.253ZM72.6758 10.9844C72.6385 10.483 72.6944 10.093 73.0659 9.88871C73.3261 9.74005 73.902 9.72142 74.3293 9.72142C74.5153 9.72142 74.9983 9.74005 75.2955 9.79561C75.8344 9.90709 75.9645 10.2044 75.9645 10.4643C75.9645 10.65 75.8902 10.9844 75.3698 10.9844H72.6758ZM80.3866 17.1877H87.4284C87.93 17.1877 88.5245 17.1321 89.0447 16.7233C89.7137 16.1849 89.8621 15.3491 89.8621 14.6246C89.8621 14.1974 89.8252 13.3988 89.3605 12.7301C88.8962 12.0431 88.1343 11.7459 87.0939 11.393L84.6043 10.5572C84.1769 10.4087 84.3068 10.4271 83.861 10.2787C83.7495 10.2414 83.6567 10.2044 83.6567 10.0558C83.6567 9.92571 83.7309 9.90709 83.8238 9.88871C83.9725 9.85149 84.121 9.87011 84.2512 9.87011H89.6022V7.34418H83.0249C82.0029 7.34418 81.2596 7.4926 80.7394 8.27277C80.3866 8.7928 80.2751 9.42427 80.2751 10.0372C80.2751 10.5202 80.368 11.2259 80.6465 11.6901C81.0183 12.3032 81.7799 12.6931 82.6718 12.9903L84.79 13.6774C85.5702 13.9375 85.7746 13.9931 85.9047 14.0676C85.979 14.1045 86.0721 14.1604 86.0721 14.2905C86.0721 14.3833 86.0348 14.4389 85.979 14.4761C85.9233 14.5131 85.8118 14.5503 85.7562 14.5503H80.3866V17.1877ZM97.9631 17.1877V14.5503H97.4242C96.9599 14.5503 96.3281 14.5317 95.8263 14.0862C95.2877 13.6031 95.1945 12.8416 95.1945 12.1173V9.87011H98.0003V7.34418H95.1945V4.18677H91.553V7.34418H90.1594V9.87011H91.553V14.1045C91.553 14.9962 91.9803 15.962 92.7978 16.519C93.8012 17.1877 95.1203 17.1877 95.8449 17.1877H97.9631Z" fill="#92887B"/>
</svg>
