<svg width="23" height="16" viewBox="0 0 23 16" fill="none" xmlns="http://www.w3.org/2000/svg">
<path d="M22.52 2.49936C22.389 2.01538 22.1323 1.57402 21.7756 1.21945C21.4188 0.864885 20.9744 0.609542 20.4869 0.478981C18.6926 9.71897e-08 11.5 0 11.5 0C11.5 0 4.30737 -9.71897e-08 2.51306 0.476433C2.02539 0.606571 1.5808 0.861772 1.22394 1.21641C0.867087 1.57104 0.610525 2.01263 0.480022 2.49682C-9.79219e-08 4.28025 0 8 0 8C0 8 -9.79219e-08 11.7197 0.480022 13.5006C0.74442 14.4841 1.52478 15.2586 2.51306 15.521C4.30737 16 11.5 16 11.5 16C11.5 16 18.6926 16 20.4869 15.521C21.4778 15.2586 22.2556 14.4841 22.52 13.5006C23 11.7197 23 8 23 8C23 8 23 4.28025 22.52 2.49936ZM9.2154 11.414V4.58599L15.1708 7.97452L9.2154 11.414Z" fill="#92887B"/>
</svg>
