<?xml version="1.0" encoding="UTF-8"?>
<svg width="97px" height="105px" viewBox="0 0 97 105" version="1.1" xmlns="http://www.w3.org/2000/svg" xmlns:xlink="http://www.w3.org/1999/xlink">
    <!-- Generator: Sketch 41.2 (35397) - http://www.bohemiancoding.com/sketch -->
    <title>Group 20</title>
    <desc>Created with Sketch.</desc>
    <defs>
        <path d="M50.1071429,0 L10.8928571,0 C4.88435714,0 0,4.90875 0,10.9375 L0,94.0625 C0,100.09125 4.88435714,105 10.8928571,105 L50.1071429,105 C56.1156429,105 61,100.09125 61,94.0625 L61,10.9375 C61,4.90875 56.1156429,0 50.1071429,0 Z M4.35714286,21.875 L56.6428571,21.875 L56.6428571,83.125 L4.35714286,83.125 L4.35714286,21.875 Z M10.8928571,4.375 L50.1071429,4.375 C53.7105,4.375 56.6428571,7.319375 56.6428571,10.9375 L56.6428571,17.5 L4.35714286,17.5 L4.35714286,10.9375 C4.35714286,7.319375 7.2895,4.375 10.8928571,4.375 Z M50.1071429,100.625 L10.8928571,100.625 C7.2895,100.625 4.35714286,97.680625 4.35714286,94.0625 L4.35714286,87.5 L56.6428571,87.5 L56.6428571,94.0625 C56.6428571,97.680625 53.7105,100.625 50.1071429,100.625 Z" id="path-1"></path>
    </defs>
    <g id="Page-1" stroke="none" stroke-width="1" fill="none" fill-rule="evenodd">
        <g id="Group-20" transform="translate(-1.000000, 0.000000)">
            <g id="mobile.1" transform="translate(26.000000, 0.000000)">
                <g id="Layer_1">
                    <g id="Group" transform="translate(11.000000, 0.000000)">
                        <g id="Rectangle-13">
                            <mask id="mask-2" fill="white">
                                <use xlink:href="#path-1"></use>
                            </mask>
                            <use id="Mask" fill="#999999" xlink:href="#path-1"></use>
                        </g>
                        <path d="M28.3214286,13.125 L32.6785714,13.125 C33.8811429,13.125 34.8571429,12.145 34.8571429,10.9375 C34.8571429,9.73 33.8811429,8.75 32.6785714,8.75 L28.3214286,8.75 C27.1188571,8.75 26.1428571,9.73 26.1428571,10.9375 C26.1428571,12.145 27.1188571,13.125 28.3214286,13.125 Z" id="Shape" fill="#999999"></path>
                        <path d="M45.8371429,13.125 C47.0397143,13.125 48.0157143,12.145 48.0157143,10.9375 C48.0157143,9.73 47.0397143,8.75 45.8371429,8.75 L45.7935714,8.75 C44.591,8.75 43.6367857,9.73 43.6367857,10.9375 C43.6367857,12.145 44.6389286,13.125 45.8371429,13.125 Z" id="Shape" fill="#999999"></path>
                        <path d="M19.6071429,91.875 L10.8928571,91.875 C9.69028571,91.875 8.71428571,92.855 8.71428571,94.0625 C8.71428571,95.27 9.69028571,96.25 10.8928571,96.25 L19.6071429,96.25 C20.8097143,96.25 21.7857143,95.27 21.7857143,94.0625 C21.7857143,92.855 20.8097143,91.875 19.6071429,91.875 Z" id="Shape" fill="#999999"></path>
                        <path d="M50.1071429,91.875 L41.3928571,91.875 C40.1902857,91.875 39.2142857,92.855 39.2142857,94.0625 C39.2142857,95.27 40.1902857,96.25 41.3928571,96.25 L50.1071429,96.25 C51.3097143,96.25 52.2857143,95.27 52.2857143,94.0625 C52.2857143,92.855 51.3097143,91.875 50.1071429,91.875 Z" id="Shape" fill="#999999"></path>
                    </g>
                    <rect id="Rectangle-13" fill="#FAFAFA" x="0" y="43" width="24" height="18"></rect>
                </g>
            </g>
            <path d="M13.5060425,51.9435425 C12.8680185,51.9435425 12.3439352,52.1486186 11.9337769,52.5587769 C11.5236186,52.9689352 11.3185425,53.4930185 11.3185425,54.1310425 L11.3185425,76.0060425 C11.3185425,76.2794814 11.364115,76.5529161 11.4552612,76.826355 C11.5464075,77.0997939 11.7286974,77.3276562 12.0021362,77.5099487 C12.1844288,77.7833876 12.4122911,77.9656775 12.68573,78.0568237 C12.9591689,78.14797 13.2326036,78.1935425 13.5060425,78.1935425 L35.3810425,78.1935425 C36.0190665,78.1935425 36.5431498,77.9884664 36.9533081,77.5783081 C37.3634664,77.1681498 37.5685425,76.6440665 37.5685425,76.0060425 C37.5685425,75.3680185 37.3634664,74.8439352 36.9533081,74.4337769 C36.5431498,74.0236186 36.0190665,73.8185425 35.3810425,73.8185425 L18.8380737,73.8185425 L63.1349487,29.3849487 C64.2287042,28.3823396 64.2514904,27.3569592 63.2033081,26.3087769 C62.1551258,25.2605945 61.1297454,25.2833808 60.1271362,26.3771362 L15.6935425,70.6740112 L15.6935425,54.1310425 C15.6935425,53.4930185 15.4884664,52.9689352 15.0783081,52.5587769 C14.6681498,52.1486186 14.1440665,51.9435425 13.5060425,51.9435425 Z" id="(" fill="#00BA00" transform="translate(37.645631, 51.866454) rotate(-135.000000) translate(-37.645631, -51.866454) "></path>
        </g>
    </g>
</svg>