<?xml version="1.0" encoding="UTF-8"?>
<svg width="68px" height="61px" viewBox="0 0 68 61" version="1.1" xmlns="http://www.w3.org/2000/svg" xmlns:xlink="http://www.w3.org/1999/xlink">
    <!-- Generator: Sketch 41.2 (35397) - http://www.bohemiancoding.com/sketch -->
    <title>Group 17</title>
    <desc>Created with Sketch.</desc>
    <defs></defs>
    <g id="ARABIC" stroke="none" stroke-width="1" fill="none" fill-rule="evenodd">
        <g id="headway_regular_english_desktop" transform="translate(-608.000000, -929.000000)" fill="#524D7A">
            <g id="Group-17" transform="translate(609.000000, 930.000000)">
                <g id="presentation.2" stroke-width="0.2" stroke="#524D7A">
                    <g id="Layer_1">
                        <g id="Group">
                            <path d="M64.7777778,0 L62.5079365,0 L3.49206349,0 L1.22222222,0 C0.595746032,0 0.0873015873,0.508307692 0.0873015873,1.13461538 C0.0873015873,1.76092308 0.595746032,2.26923077 1.22222222,2.26923077 L2.35714286,2.26923077 L2.35714286,41.9807692 C2.35714286,42.6070769 2.8655873,43.1153846 3.49206349,43.1153846 L31.8650794,43.1153846 L31.8650794,52.4010769 C30.5463016,52.8708077 29.5952381,54.1188846 29.5952381,55.5961538 C29.5952381,57.4728077 31.1228413,59 33,59 C34.8771587,59 36.4047619,57.4728077 36.4047619,55.5961538 C36.4047619,54.1188846 35.4536984,52.8708077 34.1349206,52.4010769 L34.1349206,43.1153846 L62.5079365,43.1153846 C63.1344127,43.1153846 63.6428571,42.6070769 63.6428571,41.9807692 L63.6428571,2.26923077 L64.7777778,2.26923077 C65.404254,2.26923077 65.9126984,1.76092308 65.9126984,1.13461538 C65.9126984,0.508307692 65.404254,0 64.7777778,0 Z M33,56.7307692 C32.3735238,56.7307692 31.8650794,56.2224615 31.8650794,55.5961538 C31.8650794,54.9698462 32.3735238,54.4615385 33,54.4615385 C33.6264762,54.4615385 34.1349206,54.9698462 34.1349206,55.5961538 C34.1349206,56.2224615 33.6264762,56.7307692 33,56.7307692 Z M61.3730159,40.8461538 L4.62698413,40.8461538 L4.62698413,2.26923077 L61.3730159,2.26923077 L61.3730159,40.8461538 Z" id="Shape"></path>
                        </g>
                    </g>
                </g>
                <path d="M22.2194298,23.2399994 L18.5714292,23.2399994 L20.3954295,18.2559986 L22.2194298,23.2399994 Z M22.7554299,24.7119996 L23.32343,26.2399999 C23.46743,26.6239999 23.53943,26.768 23.69943,26.896 C23.82743,27 23.9874301,27.064 24.1714301,27.064 C24.4114301,27.064 24.6514302,26.968 24.8034302,26.808 C25.1314303,26.4719999 25.0274302,26.1119999 24.8594302,25.6639998 L21.3714296,16.3759983 C21.2514296,16.0479982 21.1634296,15.9119982 21.0274296,15.7839982 C20.8594296,15.6239981 20.6674295,15.5439981 20.3954295,15.5439981 C20.1234294,15.5439981 19.9314294,15.6239981 19.7634294,15.7839982 C19.6274294,15.9119982 19.5394293,16.0479982 19.4194293,16.3759983 L15.9314288,25.6639998 C15.7634287,26.1119999 15.6594287,26.4719999 15.9874288,26.808 C16.1394288,26.968 16.3794288,27.064 16.6194289,27.064 C16.8034289,27.064 16.9634289,27 17.0914289,26.896 C17.251429,26.768 17.323429,26.6239999 17.467429,26.2399999 L18.0354291,24.7119996 L22.7554299,24.7119996 Z M29.6811431,15.4239981 L29.6811431,27.184 C29.6811431,27.4320001 29.6811431,27.7200001 29.9131432,27.9520002 C30.1451432,28.1840002 30.4331432,28.1840002 30.6811433,28.1840002 L32.2331435,28.1840002 C32.5851436,28.1840002 32.7371436,28.1600002 32.8971436,28.0720002 C33.0971437,27.9520002 33.2331437,27.7280001 33.2331437,27.4480001 C33.2331437,27.168 33.0971437,26.944 32.8971436,26.824 C32.7371436,26.728 32.5851436,26.712 32.2331435,26.712 L31.3131434,26.712 L31.3131434,15.8959982 L32.2331435,15.8959982 C32.5851436,15.8959982 32.7371436,15.8719982 32.8971436,15.7839982 C33.0971437,15.6639981 33.2331437,15.4399981 33.2331437,15.1599981 C33.2331437,14.879998 33.0971437,14.655998 32.8971436,14.535998 C32.7371436,14.4399979 32.5851436,14.4239979 32.2331435,14.4239979 L30.6811433,14.4239979 C30.4331432,14.4239979 30.1451432,14.4239979 29.9131432,14.655998 C29.6811431,14.887998 29.6811431,15.1759981 29.6811431,15.4239981 Z M35.3720001,22.9439993 C35.3720001,26.0319998 37.0040004,27.096 39.0280007,27.096 C39.9000009,27.096 40.636001,26.912 41.1480011,26.5759999 C41.5480012,26.3199999 41.9640012,25.9679998 41.9640012,25.5919998 C41.9640012,25.2159997 41.6200012,24.8959997 41.2920011,24.8959997 C41.0840011,24.8959997 40.876001,24.9919997 40.628001,25.1919997 C40.1880009,25.5439998 39.6360008,25.7039998 39.0680008,25.7039998 C37.7160005,25.7039998 36.9880004,24.7999996 36.9880004,23.4159994 L41.3000011,23.4159994 C41.5400012,23.4159994 41.8120012,23.4159994 42.0200012,23.2079994 C42.2200013,23.0079993 42.2520013,22.7199993 42.2440013,22.4799993 C42.1960013,20.3359989 40.9320011,18.7919987 38.8120007,18.7919987 C36.7400004,18.7919987 35.3720001,20.2719989 35.3720001,22.9439993 Z M40.636001,22.2799992 L36.9880004,22.2799992 C37.0040004,21.7839991 37.0360004,21.5279991 37.1960004,21.175999 C37.4680005,20.5679989 38.0280006,20.1519989 38.8120007,20.1519989 C39.5800008,20.1519989 40.1400009,20.5679989 40.412001,21.175999 C40.572001,21.5279991 40.604001,21.7839991 40.636001,22.2799992 Z M45.5628576,25.9519998 L45.5628576,19.9359988 C45.5628576,19.5439988 45.5388576,19.3999988 45.4428576,19.2079987 C45.3308576,18.9919987 45.0988575,18.8239987 44.7468575,18.8239987 C44.3948574,18.8239987 44.1628574,18.9919987 44.0508573,19.2079987 C43.9548573,19.3999988 43.9308573,19.5439988 43.9308573,19.9359988 L43.9308573,25.9519998 C43.9308573,26.3439999 43.9548573,26.4879999 44.0508573,26.6799999 C44.1628574,26.896 44.3948574,27.064 44.7468575,27.064 C45.0988575,27.064 45.3308576,26.896 45.4428576,26.6799999 C45.5388576,26.4879999 45.5628576,26.3439999 45.5628576,25.9519998 Z M43.7628573,16.2399982 C43.7628573,16.7839983 44.2028574,17.2239984 44.7468575,17.2239984 C45.2908575,17.2239984 45.7308576,16.7839983 45.7308576,16.2399982 C45.7308576,15.6959981 45.2908575,15.2559981 44.7468575,15.2559981 C44.2028574,15.2559981 43.7628573,15.6959981 43.7628573,16.2399982 Z M51.6697149,15.4239981 C51.6697149,15.1759981 51.6697149,14.887998 51.4377149,14.655998 C51.2057148,14.4239979 50.9177148,14.4239979 50.6697147,14.4239979 L49.1177145,14.4239979 C48.7657144,14.4239979 48.6137144,14.4399979 48.4537144,14.535998 C48.2537143,14.655998 48.1177143,14.879998 48.1177143,15.1599981 C48.1177143,15.4399981 48.2537143,15.6639981 48.4537144,15.7839982 C48.6137144,15.8719982 48.7657144,15.8959982 49.1177145,15.8959982 L50.0377146,15.8959982 L50.0377146,26.712 L49.1177145,26.712 C48.7657144,26.712 48.6137144,26.728 48.4537144,26.824 C48.2537143,26.944 48.1177143,27.168 48.1177143,27.4480001 C48.1177143,27.7280001 48.2537143,27.9520002 48.4537144,28.0720002 C48.6137144,28.1600002 48.7657144,28.1840002 49.1177145,28.1840002 L50.6697147,28.1840002 C50.9177148,28.1840002 51.2057148,28.1840002 51.4377149,27.9520002 C51.6697149,27.7200001 51.6697149,27.4320001 51.6697149,27.184 L51.6697149,15.4239981 Z" id="A-[ei]"></path>
            </g>
        </g>
    </g>
</svg>