<?xml version="1.0" encoding="UTF-8"?>
<svg width="68px" height="61px" viewBox="0 0 68 61" version="1.1" xmlns="http://www.w3.org/2000/svg" xmlns:xlink="http://www.w3.org/1999/xlink">
    <!-- Generator: Sketch 41.2 (35397) - http://www.bohemiancoding.com/sketch -->
    <title>Group 18</title>
    <desc>Created with Sketch.</desc>
    <defs></defs>
    <g id="ARABIC" stroke="none" stroke-width="1" fill="none" fill-rule="evenodd">
        <g id="headway_regular_russian_desktop" transform="translate(-608.000000, -929.000000)">
            <g id="Group-18" transform="translate(609.000000, 930.000000)">
                <g id="presentation.2" stroke-width="0.2" stroke="#534E7A" fill="#524D7A">
                    <g id="Layer_1">
                        <g id="Group">
                            <path d="M64.7777778,0 L62.5079365,0 L3.49206349,0 L1.22222222,0 C0.595746032,0 0.0873015873,0.508307692 0.0873015873,1.13461538 C0.0873015873,1.76092308 0.595746032,2.26923077 1.22222222,2.26923077 L2.35714286,2.26923077 L2.35714286,41.9807692 C2.35714286,42.6070769 2.8655873,43.1153846 3.49206349,43.1153846 L31.8650794,43.1153846 L31.8650794,52.4010769 C30.5463016,52.8708077 29.5952381,54.1188846 29.5952381,55.5961538 C29.5952381,57.4728077 31.1228413,59 33,59 C34.8771587,59 36.4047619,57.4728077 36.4047619,55.5961538 C36.4047619,54.1188846 35.4536984,52.8708077 34.1349206,52.4010769 L34.1349206,43.1153846 L62.5079365,43.1153846 C63.1344127,43.1153846 63.6428571,42.6070769 63.6428571,41.9807692 L63.6428571,2.26923077 L64.7777778,2.26923077 C65.404254,2.26923077 65.9126984,1.76092308 65.9126984,1.13461538 C65.9126984,0.508307692 65.404254,0 64.7777778,0 Z M33,56.7307692 C32.3735238,56.7307692 31.8650794,56.2224615 31.8650794,55.5961538 C31.8650794,54.9698462 32.3735238,54.4615385 33,54.4615385 C33.6264762,54.4615385 34.1349206,54.9698462 34.1349206,55.5961538 C34.1349206,56.2224615 33.6264762,56.7307692 33,56.7307692 Z M61.3730159,40.8461538 L4.62698413,40.8461538 L4.62698413,2.26923077 L61.3730159,2.26923077 L61.3730159,40.8461538 Z" id="Shape"></path>
                        </g>
                    </g>
                </g>
                <path d="M23.7725021,26.7180002 L23.7725021,25.1449999 C23.7725021,24.9369999 23.7725021,24.6899999 23.5710021,24.4884998 C23.369502,24.2869998 23.122502,24.2869998 22.914502,24.2869998 L22.6805019,24.2869998 L22.6805019,17.1824986 C22.6805019,16.8379986 22.6740019,16.7274986 22.5765019,16.5454985 C22.4725019,16.3569985 22.2580018,16.2269985 21.9785018,16.2269985 C21.6990018,16.2269985 21.4845017,16.3569985 21.3805017,16.5454985 C21.2830017,16.7274986 21.2765017,16.8379986 21.2765017,17.1824986 L21.2765017,24.2869998 L18.1370012,24.2869998 L18.1370012,17.1824986 C18.1370012,16.8379986 18.1305012,16.7274986 18.0330012,16.5454985 C17.9290011,16.3569985 17.7145011,16.2269985 17.4350011,16.2269985 C17.155501,16.2269985 16.941001,16.3569985 16.837001,16.5454985 C16.7395009,16.7274986 16.7330009,16.8379986 16.7330009,17.1824986 L16.7330009,24.2869998 L13.5935004,24.2869998 L13.5935004,17.1824986 C13.5935004,16.8379986 13.5870004,16.7274986 13.4895004,16.5454985 C13.3855004,16.3569985 13.1710004,16.2269985 12.8915003,16.2269985 C12.6120003,16.2269985 12.3975002,16.3569985 12.2935002,16.5454985 C12.1960002,16.7274986 12.1895002,16.8379986 12.1895002,17.1824986 L12.1895002,24.6769999 C12.1895002,24.8849999 12.1895002,25.1319999 12.3910002,25.3335 C12.5925003,25.535 12.8395003,25.535 13.0475003,25.535 L22.3685019,25.535 L22.3685019,26.7180002 C22.3685019,27.0625003 22.3750019,27.1730003 22.4725019,27.3550003 C22.5765019,27.5435003 22.7910019,27.6735004 23.070502,27.6735004 C23.350002,27.6735004 23.5645021,27.5435003 23.6685021,27.3550003 C23.7660021,27.1730003 23.7725021,27.0625003 23.7725021,26.7180002 Z M27.9395002,16.1294985 L27.9395002,25.6845 C27.9395002,25.8860001 27.9395002,26.1200001 28.1280002,26.3085001 C28.3165002,26.4970002 28.5505003,26.4970002 28.7520003,26.4970002 L30.0130005,26.4970002 C30.2990006,26.4970002 30.4225006,26.4775002 30.5525006,26.4060001 C30.7150006,26.3085001 30.8255007,26.1265001 30.8255007,25.8990001 C30.8255007,25.6715 30.7150006,25.4895 30.5525006,25.392 C30.4225006,25.314 30.2990006,25.301 30.0130005,25.301 L29.2655004,25.301 L29.2655004,16.5129985 L30.0130005,16.5129985 C30.2990006,16.5129985 30.4225006,16.4934985 30.5525006,16.4219985 C30.7150006,16.3244985 30.8255007,16.1424985 30.8255007,15.9149984 C30.8255007,15.6874984 30.7150006,15.5054984 30.5525006,15.4079983 C30.4225006,15.3299983 30.2990006,15.3169983 30.0130005,15.3169983 L28.7520003,15.3169983 C28.5505003,15.3169983 28.3165002,15.3169983 28.1280002,15.5054984 C27.9395002,15.6939984 27.9395002,15.9279984 27.9395002,16.1294985 Z M34.2545005,25.613 C35.8275008,25.613 36.997501,24.8979999 36.997501,23.5264997 C36.997501,22.3499995 36.2695009,21.7844994 35.0410006,21.6674994 L34.0010005,21.5699994 C33.3965004,21.5179993 33.0910003,21.3034993 33.0910003,20.8159992 C33.0910003,20.3154991 33.4875004,19.9514991 34.2740005,19.9514991 C34.7810006,19.9514991 35.2295007,20.0944991 35.6455007,20.2959991 C35.8210008,20.3804992 35.9510008,20.4324992 36.0745008,20.4324992 C36.2305008,20.4324992 36.3540009,20.3739992 36.4645009,20.2634991 C36.5555009,20.1659991 36.6270009,20.0034991 36.6270009,19.8734991 C36.6270009,19.723999 36.6010009,19.626499 36.5035009,19.509499 C36.4190009,19.418499 36.2955009,19.333999 36.0745008,19.229999 C35.5610007,18.9894989 35.0085006,18.8659989 34.3000005,18.8659989 C32.9220003,18.8659989 31.8105001,19.593999 31.8105001,20.8874992 C31.8105001,22.0314994 32.5320002,22.5839995 33.7605004,22.6944995 L34.8200006,22.7919996 C35.4570007,22.8504996 35.7105008,23.1299996 35.7105008,23.5719997 C35.7105008,24.2024998 35.1060007,24.5014998 34.2610005,24.5014998 C33.5915004,24.5014998 33.1300003,24.3584998 32.6685003,24.0594998 C32.4670002,23.9294997 32.3110002,23.8709997 32.1745002,23.8709997 C32.0315002,23.8709997 31.9145001,23.9164997 31.8105001,24.0074997 C31.6740001,24.1179998 31.5960001,24.2934998 31.5960001,24.4624998 C31.5960001,24.6899999 31.7520001,24.8719999 31.9600001,25.0149999 C32.5515002,25.418 33.2275004,25.613 34.2545005,25.613 Z M38.0345001,22.2394995 C38.0345001,24.7094999 39.4645004,25.613 40.9595006,25.613 C41.5640007,25.613 41.9865008,25.4635 42.4025008,25.1969999 C42.7340009,24.9824999 43.0460009,24.7354999 43.0460009,24.4039998 C43.0460009,24.2349998 42.9745009,24.0919998 42.8575009,23.9684997 C42.7600009,23.8709997 42.6040009,23.7929997 42.4480008,23.7929997 C42.2725008,23.7929997 42.1425008,23.8709997 41.9215008,24.0464998 C41.5900007,24.3064998 41.3235007,24.4169998 40.9595006,24.4169998 C40.4395005,24.4169998 40.0430004,24.2284998 39.7570004,23.8449997 C39.4710004,23.4744997 39.3605003,22.9999996 39.3605003,22.2394995 C39.3605003,21.4724993 39.4710004,21.0044993 39.7570004,20.6274992 C40.0430004,20.2504991 40.4395005,20.0619991 40.9595006,20.0619991 C41.3235007,20.0619991 41.5900007,20.1594991 41.9215008,20.4259992 C42.1425008,20.6079992 42.2725008,20.6794992 42.4480008,20.6794992 C42.6040009,20.6794992 42.7600009,20.6079992 42.8575009,20.5104992 C42.9745009,20.3869992 43.0460009,20.2374991 43.0460009,20.0749991 C43.0460009,19.736999 42.7470009,19.502999 42.4025008,19.281999 C41.9605008,18.9959989 41.5510007,18.8659989 40.9595006,18.8659989 C39.4645004,18.8659989 38.0345001,19.7694991 38.0345001,22.2394995 Z M45.7470004,21.5179993 C45.7470004,20.4974992 46.3580005,20.0619991 47.1055006,20.0619991 C47.8595007,20.0619991 48.4445008,20.4909992 48.4445008,21.5179993 L48.4445008,24.6834999 C48.4445008,25.0019999 48.4640008,25.1189999 48.5420008,25.275 C48.6330009,25.4505 48.8215009,25.587 49.1075009,25.587 C49.393501,25.587 49.582001,25.4505 49.673001,25.275 C49.751001,25.1189999 49.770501,25.0019999 49.770501,24.6834999 L49.770501,21.3229993 C49.770501,20.5884992 49.608001,19.9579991 49.1010009,19.463999 C48.7110009,19.0804989 48.1585008,18.8659989 47.4760007,18.8659989 C46.8195006,18.8659989 46.2150005,19.0869989 45.7470004,19.606999 L45.7470004,17.1304986 C45.7470004,16.8119986 45.7275004,16.6949986 45.6495004,16.5389985 C45.5585004,16.3634985 45.3700003,16.2269985 45.0840003,16.2269985 C44.7980002,16.2269985 44.6095002,16.3634985 44.5185002,16.5389985 C44.4405002,16.6949986 44.4210002,16.8119986 44.4210002,17.1304986 L44.4210002,24.6834999 C44.4210002,25.0019999 44.4405002,25.1189999 44.5185002,25.275 C44.6095002,25.4505 44.7980002,25.587 45.0840003,25.587 C45.3700003,25.587 45.5585004,25.4505 45.6495004,25.275 C45.7275004,25.1189999 45.7470004,25.0019999 45.7470004,24.6834999 L45.7470004,21.5179993 Z M53.8950006,16.1294985 C53.8950006,15.9279984 53.8950006,15.6939984 53.7065005,15.5054984 C53.5180005,15.3169983 53.2840005,15.3169983 53.0825004,15.3169983 L51.8215002,15.3169983 C51.5355002,15.3169983 51.4120001,15.3299983 51.2820001,15.4079983 C51.1195001,15.5054984 51.0090001,15.6874984 51.0090001,15.9149984 C51.0090001,16.1424985 51.1195001,16.3244985 51.2820001,16.4219985 C51.4120001,16.4934985 51.5355002,16.5129985 51.8215002,16.5129985 L52.5690003,16.5129985 L52.5690003,25.301 L51.8215002,25.301 C51.5355002,25.301 51.4120001,25.314 51.2820001,25.392 C51.1195001,25.4895 51.0090001,25.6715 51.0090001,25.8990001 C51.0090001,26.1265001 51.1195001,26.3085001 51.2820001,26.4060001 C51.4120001,26.4775002 51.5355002,26.4970002 51.8215002,26.4970002 L53.0825004,26.4970002 C53.2840005,26.4970002 53.5180005,26.4970002 53.7065005,26.3085001 C53.8950006,26.1200001 53.8950006,25.8860001 53.8950006,25.6845 L53.8950006,16.1294985 Z" id="Щ-[sch]" fill="#524E7B"></path>
            </g>
        </g>
    </g>
</svg>