<?xml version="1.0" encoding="UTF-8"?>
<svg width="14px" height="14px" viewBox="0 0 14 14" version="1.1" xmlns="http://www.w3.org/2000/svg" xmlns:xlink="http://www.w3.org/1999/xlink">
    <!-- Generator: Sketch 41.2 (35397) - http://www.bohemiancoding.com/sketch -->
    <title>clock</title>
    <desc>Created with Sketch.</desc>
    <defs></defs>
    <g id="Page-1" stroke="none" stroke-width="1" fill="none" fill-rule="evenodd" opacity="0.607450181">
        <g id="headway_ielts_toefl_desktop" transform="translate(-177.000000, -1994.000000)" fill="#000000">
            <g id="Group-9" transform="translate(143.000000, 1774.000000)">
                <g id="Group-8">
                    <g id="clock" transform="translate(34.000000, 220.000000)">
                        <g id="Layer_1">
                            <path d="M7,0 C3.13393182,0 0,3.13409091 0,7 C0,10.8660682 3.13393182,14 7,14 C10.8660682,14 14,10.8660682 14,7 C14,3.13409091 10.8660682,0 7,0 Z M7,12.7272727 C3.83695455,12.7272727 1.27272727,10.1632045 1.27272727,7 C1.27272727,3.83695455 3.83695455,1.27272727 7,1.27272727 C10.1630455,1.27272727 12.7272727,3.83695455 12.7272727,7 C12.7272727,10.1632045 10.1630455,12.7272727 7,12.7272727 Z M9.359,8.45918182 C9.6075,8.70768182 9.6075,9.11065909 9.359,9.35915909 C9.23490909,9.48325 9.07184091,9.54545455 8.90909091,9.54545455 C8.74634091,9.54561364 8.58343182,9.48340909 8.45918182,9.35915909 L6.55009091,7.45006818 C6.43077273,7.33075 6.36363636,7.16895455 6.36363636,7 L6.36363636,3.18181818 C6.36363636,2.83038636 6.64856818,2.54545455 7,2.54545455 C7.35143182,2.54545455 7.63636364,2.83038636 7.63636364,3.18181818 L7.63636364,6.73654545 L9.359,8.45918182 Z" id="Shape"></path>
                        </g>
                    </g>
                </g>
            </g>
        </g>
    </g>
</svg>