<?xml version="1.0" encoding="UTF-8"?>
<svg width="68px" height="61px" viewBox="0 0 68 61" version="1.1" xmlns="http://www.w3.org/2000/svg" xmlns:xlink="http://www.w3.org/1999/xlink">
    <!-- Generator: Sketch 41.2 (35397) - http://www.bohemiancoding.com/sketch -->
    <title>Group 15 Copy</title>
    <desc>Created with Sketch.</desc>
    <defs></defs>
    <g id="ARABIC" stroke="none" stroke-width="1" fill="none" fill-rule="evenodd">
        <g id="headway_regular_arabic_desktop" transform="translate(-718.000000, -859.000000)">
            <g id="Group-15-Copy" transform="translate(719.000000, 860.000000)">
                <path d="M24.7540235,19.8648282 C24.7540235,20.9184803 24.5507404,21.6056343 24.1441682,21.926311 C23.9895562,22.0465648 23.7204209,22.1582273 23.3367541,22.261302 C22.9530873,22.3643766 22.4520375,22.4703129 21.8335895,22.5791139 C21.2323207,22.6764622 20.6553976,22.7494723 20.1028029,22.7981465 C19.5502082,22.8468206 19.0133691,22.8711573 18.4922695,22.8711573 C14.8044873,22.8711573 12.9606239,21.9062785 12.9606239,19.9764919 C12.9606239,19.5069295 13.0808758,19.0488268 13.3213834,18.60217 C13.4015526,18.4532844 13.673551,18.0638971 14.137387,17.4339964 C13.8911531,18.2242354 13.768038,18.779685 13.768038,19.1003617 C13.768038,20.0452127 14.4179712,20.6693776 15.7178572,20.9728752 C16.0385339,21.047318 16.4522579,21.1031493 16.9590416,21.1403707 C17.4658253,21.1775921 18.0713799,21.1962025 18.7757233,21.1962025 C19.1765692,21.1962025 19.6103352,21.1833184 20.0770344,21.1575497 C20.5437335,21.1317811 21.0548043,21.0902655 21.6102622,21.0330018 C23.1334766,20.8841162 23.8950723,20.6636543 23.8950723,20.3716094 C23.8950723,20.0337536 23.6116213,19.5069355 23.0447107,18.7911392 L23.8349458,17.0646474 C24.4476673,18.0610357 24.7540235,18.99442 24.7540235,19.8648282 Z M20.0469711,25.2762206 L19.256736,26.624774 L17.3240959,25.4995479 L18.0713834,24.1509946 L20.0469711,25.2762206 Z" id="пе" fill="#524E7B"></path>
                <path d="M64.7777778,0 L62.5079365,0 L3.49206349,0 L1.22222222,0 C0.595746032,0 0.0873015873,0.508307692 0.0873015873,1.13461538 C0.0873015873,1.76092308 0.595746032,2.26923077 1.22222222,2.26923077 L2.35714286,2.26923077 L2.35714286,41.9807692 C2.35714286,42.6070769 2.8655873,43.1153846 3.49206349,43.1153846 L31.8650794,43.1153846 L31.8650794,52.4010769 C30.5463016,52.8708077 29.5952381,54.1188846 29.5952381,55.5961538 C29.5952381,57.4728077 31.1228413,59 33,59 C34.8771587,59 36.4047619,57.4728077 36.4047619,55.5961538 C36.4047619,54.1188846 35.4536984,52.8708077 34.1349206,52.4010769 L34.1349206,43.1153846 L62.5079365,43.1153846 C63.1344127,43.1153846 63.6428571,42.6070769 63.6428571,41.9807692 L63.6428571,2.26923077 L64.7777778,2.26923077 C65.404254,2.26923077 65.9126984,1.76092308 65.9126984,1.13461538 C65.9126984,0.508307692 65.404254,0 64.7777778,0 Z M33,56.7307692 C32.3735238,56.7307692 31.8650794,56.2224615 31.8650794,55.5961538 C31.8650794,54.9698462 32.3735238,54.4615385 33,54.4615385 C33.6264762,54.4615385 34.1349206,54.9698462 34.1349206,55.5961538 C34.1349206,56.2224615 33.6264762,56.7307692 33,56.7307692 Z M61.3730159,40.8461538 L4.62698413,40.8461538 L4.62698413,2.26923077 L61.3730159,2.26923077 L61.3730159,40.8461538 Z" id="Shape" stroke="#534E7A" stroke-width="0.2" fill="#524D7A"></path>
                <path d="M30.7777146,14.4239981 L30.7777146,26.184 C30.7777146,26.4320001 30.7777146,26.7200001 31.0097146,26.9520002 C31.2417146,27.1840002 31.5297147,27.1840002 31.7777147,27.1840002 L33.329715,27.1840002 C33.681715,27.1840002 33.8337151,27.1600002 33.9937151,27.0720002 C34.1937151,26.9520002 34.3297151,26.7280001 34.3297151,26.4480001 C34.3297151,26.168 34.1937151,25.944 33.9937151,25.824 C33.8337151,25.728 33.681715,25.712 33.329715,25.712 L32.4097148,25.712 L32.4097148,14.8959982 L33.329715,14.8959982 C33.681715,14.8959982 33.8337151,14.8719982 33.9937151,14.7839982 C34.1937151,14.6639981 34.3297151,14.4399981 34.3297151,14.1599981 C34.3297151,13.879998 34.1937151,13.655998 33.9937151,13.535998 C33.8337151,13.4399979 33.681715,13.4239979 33.329715,13.4239979 L31.7777147,13.4239979 C31.5297147,13.4239979 31.2417146,13.4239979 31.0097146,13.655998 C30.7777146,13.887998 30.7777146,14.1759981 30.7777146,14.4239981 Z M35.7845717,24.9439998 C35.7845717,25.3919999 35.8165717,25.5359999 35.9285717,25.72 C36.0645717,25.936 36.3285717,26.064 36.6005718,26.064 C36.8645718,26.064 37.1125719,25.96 37.2645719,25.744 C37.3525719,25.6239999 37.3925719,25.5039999 37.4085719,25.1679999 C38.008572,25.88 38.6805721,26.096 39.5285723,26.096 C40.3445724,26.096 41.0645725,25.824 41.5125726,25.3759999 C42.2965727,24.5759998 42.4085727,23.2799996 42.4085727,21.9359993 C42.4085727,20.6079991 42.2965727,19.3119989 41.5125726,18.5119988 C41.0645725,18.0639987 40.3605724,17.7919987 39.5445723,17.7919987 C38.6805721,17.7919987 38.008572,17.9999987 37.4165719,18.7039988 L37.4165719,15.6559983 C37.4165719,15.2639982 37.3925719,15.1199982 37.2965719,14.9279982 C37.1845719,14.7119981 36.9525718,14.5439981 36.6005718,14.5439981 C36.2485717,14.5439981 36.0165717,14.7119981 35.9045717,14.9279982 C35.8085717,15.1199982 35.7845717,15.2639982 35.7845717,15.6559983 L35.7845717,24.9439998 Z M40.7765725,21.9439993 C40.7765725,23.3839996 40.5685724,24.6239998 39.0965722,24.6239998 C37.616572,24.6239998 37.4085719,23.3839996 37.4085719,21.9439993 C37.4085719,20.5039991 37.616572,19.2639989 39.0965722,19.2639989 C40.5685724,19.2639989 40.7765725,20.5039991 40.7765725,21.9439993 Z M43.5354287,23.6159996 C43.5354287,24.3039997 43.7674287,24.9279998 44.1834288,25.3519999 C44.6714289,25.856 45.351429,26.088 46.3674291,26.088 C47.3594293,26.088 47.9034294,25.872 48.5434295,25.2479999 C48.5594295,25.5919999 48.6314295,25.72 48.7274295,25.832 C48.8554295,25.968 49.0554296,26.064 49.3194296,26.064 C49.6314297,26.064 49.8954297,25.912 50.0154297,25.6879999 C50.1194297,25.5039999 50.1354297,25.3519999 50.1354297,24.9519998 L50.1354297,20.5839991 C50.1354297,18.7439988 48.9914296,17.7919987 46.8154292,17.7919987 C45.9754291,17.7919987 45.319429,17.9519987 44.7514289,18.2799987 C44.3354288,18.5199988 43.9914287,18.8479988 43.9914287,19.2159989 C43.9914287,19.4319989 44.0474287,19.5679989 44.1834288,19.719999 C44.3034288,19.863999 44.4874288,19.935999 44.6554288,19.935999 C44.8074289,19.935999 45.0394289,19.879999 45.2474289,19.719999 C45.719429,19.3599989 46.1514291,19.1759989 46.7994292,19.1759989 C47.9914294,19.1759989 48.4954295,19.695999 48.4954295,20.7599991 L48.4954295,21.2639992 L46.3434291,21.2639992 C44.5034288,21.2639992 43.5354287,22.2559994 43.5354287,23.6159996 Z M45.1274289,23.5919996 C45.1274289,22.8399995 45.615429,22.4239994 46.5754292,22.4239994 L48.4954295,22.4239994 L48.4954295,23.0639995 C48.4954295,23.6639996 48.3914295,24.0319997 48.1354294,24.2719997 C47.7194293,24.6719998 47.2394293,24.7359998 46.6554292,24.7359998 C45.623429,24.7359998 45.1274289,24.3279997 45.1274289,23.5919996 Z M55.0622863,14.4239981 C55.0622863,14.1759981 55.0622863,13.887998 54.8302863,13.655998 C54.5982863,13.4239979 54.3102862,13.4239979 54.0622862,13.4239979 L52.5102859,13.4239979 C52.1582859,13.4239979 52.0062858,13.4399979 51.8462858,13.535998 C51.6462858,13.655998 51.5102858,13.879998 51.5102858,14.1599981 C51.5102858,14.4399981 51.6462858,14.6639981 51.8462858,14.7839982 C52.0062858,14.8719982 52.1582859,14.8959982 52.5102859,14.8959982 L53.4302861,14.8959982 L53.4302861,25.712 L52.5102859,25.712 C52.1582859,25.712 52.0062858,25.728 51.8462858,25.824 C51.6462858,25.944 51.5102858,26.168 51.5102858,26.4480001 C51.5102858,26.7280001 51.6462858,26.9520002 51.8462858,27.0720002 C52.0062858,27.1600002 52.1582859,27.1840002 52.5102859,27.1840002 L54.0622862,27.1840002 C54.3102862,27.1840002 54.5982863,27.1840002 54.8302863,26.9520002 C55.0622863,26.7200001 55.0622863,26.4320001 55.0622863,26.184 L55.0622863,14.4239981 Z" id="[ba]" fill="#524E7B"></path>
            </g>
        </g>
    </g>
</svg>