<?xml version="1.0" encoding="UTF-8"?>
<svg width="30px" height="30px" viewBox="0 0 30 30" version="1.1" xmlns="http://www.w3.org/2000/svg" xmlns:xlink="http://www.w3.org/1999/xlink">
    <!-- Generator: Sketch 41.2 (35397) - http://www.bohemiancoding.com/sketch -->
    <title>Group</title>
    <desc>Created with Sketch.</desc>
    <defs></defs>
    <g id="Page-1" stroke="none" stroke-width="1" fill="none" fill-rule="evenodd">
        <g id="headway_ielts_toefl_desktop" transform="translate(-304.000000, -4082.000000)" stroke="#FFFFFF">
            <g id="Group" transform="translate(305.000000, 4082.000000)">
                <path d="M4.5,8.7676 L4.5,10.4996 L1.212,11.3716 C0.545,11.5616 0,12.2846 0,12.9786 L0,13.4996 L7.435,13.4996" id="Stroke-2491"></path>
                <path d="M8,8.8027 L8,10.4997 L11.396,11.3707 C12.063,11.5617 12.5,12.3067 12.5,12.9997 L12.5,13.4997 L6.174,13.4997" id="Stroke-2492"></path>
                <path d="M10.0869,5.1245 C10.0869,7.4025 8.3929,9.2495 6.3039,9.2495 C4.2149,9.2495 2.5219,7.4025 2.5219,5.1245 C2.5219,2.8475 4.2149,0.9995 6.3039,0.9995 C8.3929,0.9995 10.0869,2.8475 10.0869,5.1245 L10.0869,5.1245 Z" id="Stroke-2493"></path>
                <path d="M10.0479,4.4023 C9.4169,5.0323 7.6139,5.0023 6.9349,3.7363 C5.6739,4.9973 3.6249,4.9973 2.6049,4.2773" id="Stroke-2494" stroke-linejoin="round"></path>
                <path d="M20.5,8.7676 L20.5,10.4996 L17.212,11.3716 C16.545,11.5616 16,12.2846 16,12.9786 L16,13.4996 L23.435,13.4996" id="Stroke-2495"></path>
                <path d="M24,8.8027 L24,10.4997 L27.396,11.3707 C28.063,11.5617 28.5,12.3067 28.5,12.9997 L28.5,13.4997 L22.174,13.4997" id="Stroke-2496"></path>
                <path d="M26.0869,5.1245 C26.0869,7.4025 24.3929,9.2495 22.3039,9.2495 C20.2149,9.2495 18.5219,7.4025 18.5219,5.1245 C18.5219,2.8475 20.2149,0.9995 22.3039,0.9995 C24.3929,0.9995 26.0869,2.8475 26.0869,5.1245 L26.0869,5.1245 Z" id="Stroke-2497"></path>
                <path d="M26.0479,4.4023 C25.4169,5.0323 23.6139,5.0023 22.9349,3.7363 C21.6739,4.9973 19.6249,4.9973 18.6049,4.2773" id="Stroke-2498" stroke-linejoin="round"></path>
                <path d="M12.1089,24.5889 L12.1089,26.3479 L8.9069,27.2629 C8.2409,27.4529 7.6959,28.1759 7.6959,28.8699 L7.6959,29.4999 L14.6299,29.4999" id="Stroke-2499"></path>
                <path d="M15.8916,24.5879 L15.8916,26.3479 L19.0916,27.2629 C19.7586,27.4529 20.3046,28.1759 20.3046,28.8699 L20.3046,29.4999 L13.3696,29.4999" id="Stroke-2500"></path>
                <path d="M17.7827,21.0156 C17.7827,23.2936 16.0887,25.1406 13.9997,25.1406 C11.9107,25.1406 10.2177,23.2936 10.2177,21.0156 C10.2177,18.7386 11.9107,16.8916 13.9997,16.8916 C16.0887,16.8916 17.7827,18.7386 17.7827,21.0156 L17.7827,21.0156 Z" id="Stroke-2501"></path>
                <path d="M17.7236,20.2583 C17.0936,20.8883 15.3096,20.8933 14.6306,19.6283 C13.3696,20.8883 11.3206,20.8883 10.3006,20.1693" id="Stroke-2502" stroke-linejoin="round"></path>
                <path d="M3.9131,15.6304 L7.0651,18.7824" id="Stroke-2503" stroke-linecap="round"></path>
                <path d="M24.0869,15.6304 L20.9349,18.7824" id="Stroke-2504" stroke-linecap="round"></path>
            </g>
        </g>
    </g>
</svg>