<?xml version="1.0" encoding="UTF-8"?>
<svg width="71px" height="72px" viewBox="0 0 71 72" version="1.1" xmlns="http://www.w3.org/2000/svg" xmlns:xlink="http://www.w3.org/1999/xlink">
    <!-- Generator: Sketch 41.2 (35397) - http://www.bohemiancoding.com/sketch -->
    <title>Group</title>
    <desc>Created with Sketch.</desc>
    <defs></defs>
    <g id="ARABIC" stroke="none" stroke-width="1" fill="none" fill-rule="evenodd">
        <g id="headway_regular_russian_desktop" transform="translate(-117.000000, -2058.000000)" stroke="#1CBA24" stroke-width="1.8">
            <g id="Group-10" transform="translate(65.000000, 2004.000000)">
                <g id="Group" transform="translate(53.000000, 55.000000)">
                    <path d="M10.8459472,19.4496974 L10.8459472,23.6464667 L2.9211751,25.7593897 C1.31356471,26.2197744 0,27.971659 0,29.6532744 L0,30.9156974 L17.9199149,30.9156974" id="Stroke-2491"></path>
                    <path d="M19.2816838,19.5347474 L19.2816838,23.646709 L27.4667586,25.757209 C29.074369,26.2200167 30.127631,28.025209 30.127631,29.7044013 L30.127631,30.9159397 L14.8806395,30.9159397" id="Stroke-2492"></path>
                    <path d="M24.3115521,10.6221859 C24.3115521,16.1419551 20.2286555,20.6173782 15.1937258,20.6173782 C10.1587961,20.6173782 6.07830981,16.1419551 6.07830981,10.6221859 C6.07830981,5.10483974 10.1587961,0.62699359 15.1937258,0.62699359 C20.2286555,0.62699359 24.3115521,5.10483974 24.3115521,10.6221859 L24.3115521,10.6221859 Z" id="Stroke-2493"></path>
                    <path d="M24.2175539,8.87223974 C22.6967111,10.3987782 18.3511016,10.3260859 16.7145687,7.25847051 C13.6752932,10.3139705 8.73677197,10.3139705 6.27835728,8.56935513" id="Stroke-2494" stroke-linejoin="round"></path>
                    <path d="M49.4093148,19.4496974 L49.4093148,23.6464667 L41.4845428,25.7593897 C39.8769324,26.2197744 38.5633677,27.971659 38.5633677,29.6532744 L38.5633677,30.9156974 L56.4832826,30.9156974" id="Stroke-2495"></path>
                    <path d="M57.8450515,19.5347474 L57.8450515,23.646709 L66.0301263,25.757209 C67.6377367,26.2200167 68.6909987,28.025209 68.6909987,29.7044013 L68.6909987,30.9159397 L53.4440072,30.9159397" id="Stroke-2496"></path>
                    <path d="M62.8749197,10.6221859 C62.8749197,16.1419551 58.7920232,20.6173782 53.7570935,20.6173782 C48.7221638,20.6173782 44.6416775,16.1419551 44.6416775,10.6221859 C44.6416775,5.10483974 48.7221638,0.62699359 53.7570935,0.62699359 C58.7920232,0.62699359 62.8749197,5.10483974 62.8749197,10.6221859 L62.8749197,10.6221859 Z" id="Stroke-2497"></path>
                    <path d="M62.7809215,8.87223974 C61.2600787,10.3987782 56.9144692,10.3260859 55.2779363,7.25847051 C52.2386609,10.3139705 47.3001396,10.3139705 44.8417249,8.56935513" id="Stroke-2498" stroke-linejoin="round"></path>
                    <path d="M29.1849977,57.7859244 L29.1849977,62.0481167 L21.4675037,64.2652321 C19.8623035,64.7256167 18.5487388,66.4775013 18.5487388,68.1591167 L18.5487388,69.6856551 L35.2611383,69.6856551" id="Stroke-2499"></path>
                    <path d="M38.3021009,57.7835013 L38.3021009,62.0481167 L46.0147744,64.2652321 C47.6223848,64.7256167 48.9383597,66.4775013 48.9383597,68.1591167 L48.9383597,69.6856551 L32.22355,69.6856551" id="Stroke-2500"></path>
                    <path d="M42.8600499,49.1275436 C42.8600499,54.6473128 38.7771533,59.1227359 33.7422236,59.1227359 C28.707294,59.1227359 24.6268076,54.6473128 24.6268076,49.1275436 C24.6268076,43.6101974 28.707294,39.1347744 33.7422236,39.1347744 C38.7771533,39.1347744 42.8600499,43.6101974 42.8600499,49.1275436 L42.8600499,49.1275436 Z" id="Stroke-2501"></path>
                    <path d="M42.7176064,47.2925474 C41.1991738,48.8190859 36.8993584,48.8312013 35.2628254,45.766009 C32.22355,48.8190859 27.2850288,48.8190859 24.8266141,47.0768936" id="Stroke-2502" stroke-linejoin="round"></path>
                    <path d="M9.43139463,36.0787897 L17.0283781,43.7163282" id="Stroke-2503" stroke-linecap="round"></path>
                    <path d="M58.0544988,36.0787897 L50.4575154,43.7163282" id="Stroke-2504" stroke-linecap="round"></path>
                </g>
            </g>
        </g>
    </g>
</svg>