<?xml version="1.0" encoding="UTF-8"?>
<svg width="61px" height="62px" viewBox="0 0 61 62" version="1.1" xmlns="http://www.w3.org/2000/svg" xmlns:xlink="http://www.w3.org/1999/xlink">
    <!-- Generator: Sketch 41.2 (35397) - http://www.bohemiancoding.com/sketch -->
    <title>Group</title>
    <desc>Created with Sketch.</desc>
    <defs></defs>
    <g id="ARABIC" stroke="none" stroke-width="1" fill="none" fill-rule="evenodd">
        <g id="headway_regular_spanish_desktop" transform="translate(-214.000000, -927.000000)" fill="#00BA00">
            <g id="Group" transform="translate(214.000000, 927.000000)">
                <path d="M54.5734928,0.00254945055 L29.1904729,0.00254945055 C25.6926928,0.00254945055 22.8447179,2.86303297 22.8447179,6.37617582 L22.8447179,8.92562637 C22.8447179,9.62927473 23.4132976,10.2003516 24.1138689,10.2003516 C24.8144403,10.2003516 25.3830199,9.62927473 25.3830199,8.92562637 L25.3830199,6.37617582 C25.3830199,4.26778022 27.0912972,2.552 29.1904729,2.552 L54.5734928,2.552 C56.6726686,2.552 58.3809458,4.26778022 58.3809458,6.37617582 L58.3809458,19.1234286 C58.3809458,21.2318242 56.6726686,22.9476044 54.5734928,22.9476044 L50.7660398,22.9476044 C50.4005243,22.9476044 50.052777,23.1056703 49.8116383,23.3835604 L43.6562559,30.4480879 L44.4101316,24.3803956 C44.4558211,24.0183736 44.3441358,23.6512527 44.1029971,23.3784615 C43.8618584,23.1056703 43.5166493,22.9476044 43.1511338,22.9476044 L41.8819829,22.9476044 C41.1814115,22.9476044 40.6128319,23.5186813 40.6128319,24.2223297 C40.6128319,24.8698901 41.0925709,25.4052747 41.7144549,25.4868571 L40.6229851,34.2620659 C40.5544509,34.8178462 40.8539705,35.3532308 41.3641692,35.5826813 C41.5316972,35.6591648 41.7093783,35.6948571 41.8845212,35.6948571 C42.2424217,35.6948571 42.5927074,35.5444396 42.8363844,35.2589011 L51.3422344,25.4970549 L54.5734928,25.4970549 C58.071273,25.4970549 60.9192478,22.6365714 60.9192478,19.1234286 L60.9192478,6.37617582 C60.9192478,2.86303297 58.071273,0.00254945055 54.5734928,0.00254945055 Z" id="Shape"></path>
                <path d="M39.5619748,48.7582418 L32.1120585,46.8869451 L31.5434788,44.6000879 C33.5208161,42.5834725 34.8838843,39.8657582 35.3280871,37.069011 C36.4779379,36.6738462 37.3511138,35.648967 37.5084885,34.3793407 L38.0059957,30.3894505 C38.1202193,29.4690989 37.8384678,28.5385495 37.2292753,27.84 C36.9196025,27.4830769 36.5388572,27.2000879 36.1149607,27.0088791 L36.2824887,23.5543736 L36.957677,22.8762198 C38.1456023,21.6091429 39.1304635,19.4421099 37.0947453,16.3164835 C35.5489194,13.948044 32.9395449,12.7472527 29.3376944,12.7472527 C27.9416283,12.7472527 24.7382912,12.7472527 21.7227884,14.7485714 C13.0951,14.9550769 11.9198662,19.0265495 11.9198662,23.0011429 C11.9198662,23.8654066 12.1127771,25.7061099 12.254922,26.9425934 C11.7827978,27.1287033 11.3563631,27.426989 11.0136923,27.8170549 C10.3943467,28.5181538 10.1075185,29.4563516 10.2217421,30.3869011 L10.7192493,34.3767912 C10.8867772,35.7305495 11.8716384,36.8115165 13.1382511,37.1378462 C13.5799157,39.8198681 14.8719114,42.4407033 16.7299484,44.4165275 L16.1156793,46.8869451 L8.665763,48.7582418 C3.563776,50.0380659 0,54.6245275 0,59.9095385 C0,60.2486154 0.131991704,60.5749451 0.370592091,60.812044 C0.609192478,61.0491429 0.934095133,61.1842637 1.269151,61.1842637 L46.9585868,61.1791648 C47.6591582,61.1791648 48.2277378,60.6080879 48.2277378,59.9044396 C48.2277378,54.621978 44.6639618,50.0380659 39.5619748,48.7582418 Z M2.62968086,58.6297143 C3.13480296,55.0732308 5.72894759,52.1235165 9.28510868,51.2286593 L17.4736709,49.1712527 C17.928027,49.0565275 18.2859275,48.6996044 18.3976128,48.2432527 L19.3723208,44.3298462 C19.4840061,43.8811429 19.3443995,43.4069451 19.0093436,43.0908132 C17.0497745,41.2475604 15.7527022,38.5451429 15.5420231,35.8631209 C15.4887187,35.2002637 14.9379072,34.6903736 14.2754104,34.6903736 L13.953046,34.6903736 C13.5926072,34.6903736 13.2880109,34.4175824 13.2423215,34.0581099 L12.7448143,30.0682198 C12.7092781,29.7852308 12.8387315,29.5914725 12.9199571,29.4996923 C12.9986445,29.4104615 13.1763256,29.2574945 13.6611413,29.2574945 C14.0266568,29.2574945 14.3718659,29.101978 14.6130046,28.8266374 C14.8541433,28.5538462 14.9658285,28.1892747 14.9201391,27.8247033 C14.793224,26.8074725 14.4632447,23.9571868 14.4632447,22.996044 C14.4632447,19.9137582 15.0394393,17.3592088 22.1441466,17.2878242 C22.4030534,17.2852747 22.6594219,17.2036923 22.8675626,17.0507253 C25.0200427,15.5032088 27.3476657,15.2941538 29.3402327,15.2941538 C32.0333711,15.2941538 33.9269444,16.1074286 34.9727248,17.711033 C36.1809566,19.5619341 35.7189856,20.4771868 35.1377145,21.0992527 L34.1427001,22.0986374 C33.9193295,22.322989 33.7873378,22.6212747 33.772108,22.9374066 L33.5309693,27.9292308 C33.5132012,28.275956 33.637578,28.6124835 33.8736401,28.8648791 C34.1097022,29.1147253 34.4371431,29.2625934 34.7823522,29.2651429 C35.0641037,29.2676923 35.2392465,29.4206593 35.3179339,29.5124396 C35.3966213,29.6016703 35.5235364,29.7954286 35.4880001,30.0707692 L34.9904929,34.0606593 C34.9448035,34.4226813 34.6402073,34.6929231 34.1807746,34.6929231 C33.5182778,34.6929231 32.9674663,35.2028132 32.9141619,35.8656703 C32.6984062,38.6318242 31.3404147,41.3877802 29.2843901,43.2412308 C28.9341044,43.5548132 28.7868829,44.0392088 28.9011065,44.4981099 L29.8352016,48.2458022 C29.9494252,48.7021538 30.3047875,49.0616264 30.7591435,49.1738022 L38.9477058,51.2312088 C42.5013285,52.1235165 45.0954732,55.0757802 45.6005953,58.6348132 L2.62968086,58.6297143 Z" id="Shape"></path>
            </g>
        </g>
    </g>
</svg>