<?xml version="1.0" encoding="UTF-8"?>
<svg width="68px" height="61px" viewBox="0 0 68 61" version="1.1" xmlns="http://www.w3.org/2000/svg" xmlns:xlink="http://www.w3.org/1999/xlink">
    <!-- Generator: Sketch 41.2 (35397) - http://www.bohemiancoding.com/sketch -->
    <title>Group 17</title>
    <desc>Created with Sketch.</desc>
    <defs></defs>
    <g id="ARABIC" stroke="none" stroke-width="1" fill="none" fill-rule="evenodd">
        <g id="headway_regular_spanish_desktop" transform="translate(-608.000000, -929.000000)">
            <g id="Group-17" transform="translate(609.000000, 930.000000)">
                <g id="presentation.2" stroke-width="0.2" stroke="#534E7A" fill="#524D7A">
                    <g id="Layer_1">
                        <g id="Group">
                            <path d="M64.7777778,0 L62.5079365,0 L3.49206349,0 L1.22222222,0 C0.595746032,0 0.0873015873,0.508307692 0.0873015873,1.13461538 C0.0873015873,1.76092308 0.595746032,2.26923077 1.22222222,2.26923077 L2.35714286,2.26923077 L2.35714286,41.9807692 C2.35714286,42.6070769 2.8655873,43.1153846 3.49206349,43.1153846 L31.8650794,43.1153846 L31.8650794,52.4010769 C30.5463016,52.8708077 29.5952381,54.1188846 29.5952381,55.5961538 C29.5952381,57.4728077 31.1228413,59 33,59 C34.8771587,59 36.4047619,57.4728077 36.4047619,55.5961538 C36.4047619,54.1188846 35.4536984,52.8708077 34.1349206,52.4010769 L34.1349206,43.1153846 L62.5079365,43.1153846 C63.1344127,43.1153846 63.6428571,42.6070769 63.6428571,41.9807692 L63.6428571,2.26923077 L64.7777778,2.26923077 C65.404254,2.26923077 65.9126984,1.76092308 65.9126984,1.13461538 C65.9126984,0.508307692 65.404254,0 64.7777778,0 Z M33,56.7307692 C32.3735238,56.7307692 31.8650794,56.2224615 31.8650794,55.5961538 C31.8650794,54.9698462 32.3735238,54.4615385 33,54.4615385 C33.6264762,54.4615385 34.1349206,54.9698462 34.1349206,55.5961538 C34.1349206,56.2224615 33.6264762,56.7307692 33,56.7307692 Z M61.3730159,40.8461538 L4.62698413,40.8461538 L4.62698413,2.26923077 L61.3730159,2.26923077 L61.3730159,40.8461538 Z" id="Shape"></path>
                        </g>
                    </g>
                </g>
                <path d="M18.0229816,21.6649192 C18.0229816,23.7100795 18.0571816,24.6813597 19.0011018,25.6252799 C19.6303819,26.25456 20.451182,26.61708 21.5113822,26.61708 C22.7357424,26.61708 23.4676225,26.24772 24.0627026,25.6115998 C24.6099027,25.0233598 24.8082628,24.3940796 24.8082628,24.0452396 C24.8082628,23.7921596 24.7467027,23.6279995 24.6099027,23.4911995 C24.4662627,23.3543995 24.3021027,23.2859995 24.0969026,23.2859995 C23.9122226,23.2859995 23.7617426,23.3475595 23.6591426,23.4296395 C23.5018225,23.5527595 23.4060625,23.7305995 23.2966225,23.9836796 C22.9409425,24.8181597 22.4005824,25.3037998 21.4840222,25.3037998 C20.9094621,25.3037998 20.437502,25.0780798 20.081822,24.6950397 C19.5688219,24.1409996 19.5004219,23.5185595 19.5004219,21.6649192 C19.5004219,19.8112789 19.5688219,19.1888388 20.081822,18.6347987 C20.437502,18.2517586 20.9094621,18.0260386 21.4840222,18.0260386 C22.4005824,18.0260386 22.9409425,18.5116787 23.2966225,19.3461588 C23.4060625,19.5992389 23.5018225,19.7770789 23.6591426,19.9001989 C23.7617426,19.9822789 23.9122226,20.0438389 24.0969026,20.0438389 C24.3021027,20.0438389 24.4662627,19.9754389 24.6099027,19.8386389 C24.7467027,19.7018389 24.8082628,19.5376789 24.8082628,19.2845988 C24.8082628,18.9357588 24.6099027,18.3064787 24.0627026,17.7182386 C23.4676225,17.0821185 22.7357424,16.7127584 21.5113822,16.7127584 C20.451182,16.7127584 19.6303819,17.0752784 19.0011018,17.7045586 C18.0571816,18.6484787 18.0229816,19.6197589 18.0229816,21.6649192 Z M29.3480673,16.6375184 L29.3480673,26.69232 C29.3480673,26.9043601 29.3480673,27.1506001 29.5464274,27.3489601 C29.7447874,27.5473202 29.9910275,27.5473202 30.2030675,27.5473202 L31.5300277,27.5473202 C31.8309878,27.5473202 31.9609478,27.5268002 32.0977478,27.4515602 C32.2687478,27.3489601 32.3850278,27.1574401 32.3850278,26.9180401 C32.3850278,26.67864 32.2687478,26.48712 32.0977478,26.38452 C31.9609478,26.30244 31.8309878,26.28876 31.5300277,26.28876 L30.7434276,26.28876 L30.7434276,17.0410784 L31.5300277,17.0410784 C31.8309878,17.0410784 31.9609478,17.0205584 32.0977478,16.9453184 C32.2687478,16.8427184 32.3850278,16.6511984 32.3850278,16.4117983 C32.3850278,16.1723983 32.2687478,15.9808783 32.0977478,15.8782783 C31.9609478,15.7961982 31.8309878,15.7825182 31.5300277,15.7825182 L30.2030675,15.7825182 C29.9910275,15.7825182 29.7447874,15.7825182 29.5464274,15.9808783 C29.3480673,16.1792383 29.3480673,16.4254783 29.3480673,16.6375184 Z M34.2137501,23.0671194 C34.2137501,25.6663199 35.7185504,26.61708 37.2917506,26.61708 C37.9278708,26.61708 38.3724708,26.45976 38.8102309,26.1793199 C39.159071,25.9535999 39.487391,25.6936799 39.487391,25.3448398 C39.487391,25.1669998 39.412151,25.0165198 39.289031,24.8865597 C39.186431,24.7839597 39.0222709,24.7018797 38.8581109,24.7018797 C38.6734309,24.7018797 38.5366309,24.7839597 38.3040708,24.9686397 C37.9552308,25.2422398 37.6747907,25.3585198 37.2917506,25.3585198 C36.7445506,25.3585198 36.3273105,25.1601598 36.0263504,24.7565997 C35.7253904,24.3667196 35.6091104,23.8673996 35.6091104,23.0671194 C35.6091104,22.2599993 35.7253904,21.7675192 36.0263504,21.3707992 C36.3273105,20.9740791 36.7445506,20.7757191 37.2917506,20.7757191 C37.6747907,20.7757191 37.9552308,20.8783191 38.3040708,21.1587591 C38.5366309,21.3502792 38.6734309,21.4255192 38.8581109,21.4255192 C39.0222709,21.4255192 39.186431,21.3502792 39.289031,21.2476791 C39.412151,21.1177191 39.487391,20.9603991 39.487391,20.7893991 C39.487391,20.433719 39.172751,20.187479 38.8102309,19.9549189 C38.3451108,19.6539589 37.9141907,19.5171588 37.2917506,19.5171588 C35.7185504,19.5171588 34.2137501,20.467919 34.2137501,23.0671194 Z M40.341413,23.0671194 C40.341413,25.7073599 41.7367732,26.61708 43.4672935,26.61708 C44.2128536,26.61708 44.8421337,26.45976 45.2798938,26.1724799 C45.6218938,25.9535999 45.9775739,25.6526399 45.9775739,25.3311598 C45.9775739,25.0096797 45.6834538,24.7360797 45.4030138,24.7360797 C45.2251738,24.7360797 45.0473337,24.8181597 44.8352937,24.9891597 C44.4590936,25.2901198 43.9871336,25.4269198 43.5014935,25.4269198 C42.3455333,25.4269198 41.7230932,24.6539997 41.7230932,23.4706795 L45.4098538,23.4706795 C45.6150538,23.4706795 45.8476139,23.4706795 46.0254539,23.2928395 C46.1964539,23.1218394 46.2238139,22.8755994 46.2169739,22.6703994 C46.1759339,20.8372791 45.0952138,19.5171588 43.2826135,19.5171588 C41.5110532,19.5171588 40.341413,20.7825591 40.341413,23.0671194 Z M44.8421337,22.4993993 L41.7230932,22.4993993 C41.7367732,22.0753193 41.7641332,21.8564392 41.9009332,21.5554792 C42.1334933,21.0356391 42.6122933,20.679959 43.2826135,20.679959 C43.9392536,20.679959 44.4180536,21.0356391 44.6506137,21.5554792 C44.7874137,21.8564392 44.8147737,22.0753193 44.8421337,22.4993993 Z M50.1147963,16.6375184 C50.1147963,16.4254783 50.1147963,16.1792383 49.9164362,15.9808783 C49.7180762,15.7825182 49.4718362,15.7825182 49.2597961,15.7825182 L47.9328359,15.7825182 C47.6318759,15.7825182 47.5019158,15.7961982 47.3651158,15.8782783 C47.1941158,15.9808783 47.0778358,16.1723983 47.0778358,16.4117983 C47.0778358,16.6511984 47.1941158,16.8427184 47.3651158,16.9453184 C47.5019158,17.0205584 47.6318759,17.0410784 47.9328359,17.0410784 L48.719436,17.0410784 L48.719436,26.28876 L47.9328359,26.28876 C47.6318759,26.28876 47.5019158,26.30244 47.3651158,26.38452 C47.1941158,26.48712 47.0778358,26.67864 47.0778358,26.9180401 C47.0778358,27.1574401 47.1941158,27.3489601 47.3651158,27.4515602 C47.5019158,27.5268002 47.6318759,27.5473202 47.9328359,27.5473202 L49.2597961,27.5473202 C49.4718362,27.5473202 49.7180762,27.5473202 49.9164362,27.3489601 C50.1147963,27.1506001 50.1147963,26.9043601 50.1147963,26.69232 L50.1147963,16.6375184 Z" id="C-[ce]" fill="#524E7B"></path>
            </g>
        </g>
    </g>
</svg>