<?xml version="1.0" encoding="UTF-8"?>
<svg width="73px" height="73px" viewBox="0 0 73 73" version="1.1" xmlns="http://www.w3.org/2000/svg" xmlns:xlink="http://www.w3.org/1999/xlink">
    <!-- Generator: Sketch 41.2 (35397) - http://www.bohemiancoding.com/sketch -->
    <title>Stroke 2472 + Stroke 2473</title>
    <desc>Created with Sketch.</desc>
    <defs></defs>
    <g id="ARABIC" stroke="none" stroke-width="1" fill="none" fill-rule="evenodd" stroke-linejoin="round">
        <g id="headway_regular_arabic_desktop" transform="translate(-697.000000, -1987.000000)" stroke="#524D7A" stroke-width="1.8">
            <g id="Group-10" transform="translate(65.000000, 1934.000000)">
                <g id="Stroke-2472-+-Stroke-2473" transform="translate(633.000000, 54.000000)">
                    <path d="M29.3813728,44.6790328 C29.3813728,44.6790328 24.7902791,43.1502859 24.7902791,35.499272 C22.264207,35.499272 22.264207,29.3818581 24.7902791,29.3818581 C24.7902791,28.3554138 20.201612,17.1421771 27.8501994,18.6733505 C29.3813728,12.55351 46.2097209,12.55351 47.7384677,18.6733505 C48.7988842,22.9174429 46.2097209,28.6296176 46.2097209,29.3818581 C48.735793,29.3818581 48.735793,35.499272 46.2097209,35.499272 C46.2097209,43.1502859 41.6186272,44.6790328 41.6186272,44.6790328 L41.6186272,52.3276201 C49.1992703,55.169148 56.7022627,57.5205062 60.5435424,60.2067328 C66.813831,53.8539404 70.6866563,45.1303771 70.6866563,35.499272 C70.6866563,16.0647746 54.9308576,0.313828987 35.5012133,0.313828987 C16.0667158,0.313828987 0.315770253,16.0647746 0.315770253,35.499272 C0.315770253,45.1473632 4.20072848,53.8854859 10.4880032,60.2431315 C14.5573816,57.4282961 22.5796627,54.8973708 29.3813728,52.3276201 L29.3813728,44.6790328 L29.3813728,44.6790328 Z" id="Stroke-2472"></path>
                    <path d="M10.4877605,60.2421609 C16.8672453,66.68959 25.7145643,70.686171 35.5009706,70.686171 C45.3019365,70.686171 54.1638149,66.6726039 60.5432997,60.2057622" id="Stroke-2473"></path>
                </g>
            </g>
        </g>
    </g>
</svg>