<?xml version="1.0" encoding="UTF-8"?>
<svg width="52px" height="62px" viewBox="0 0 52 62" version="1.1" xmlns="http://www.w3.org/2000/svg" xmlns:xlink="http://www.w3.org/1999/xlink">
    <!-- Generator: Sketch 41.2 (35397) - http://www.bohemiancoding.com/sketch -->
    <title>Group 17</title>
    <desc>Created with Sketch.</desc>
    <defs></defs>
    <g id="ARABIC" stroke="none" stroke-width="1" fill="none" fill-rule="evenodd">
        <g id="headway_regular_russian_desktop" transform="translate(-214.000000, -924.000000)" fill="#00BA00">
            <g id="Group-17" transform="translate(214.000000, 924.000000)">
                <path d="M51.9010732,9.97880412 C51.9010732,4.77016495 47.6966829,0.53243299 42.5296585,0.53243299 L9.6555122,0.53243299 C4.48658537,0.53243299 0.281560976,4.77016495 0.281560976,9.97880412 L0.281560976,49.3577526 C0.281560976,51.6389691 1.82570732,53.5584124 3.91458537,54.1240825 L3.91458537,60.5049691 C3.91458537,61.2106186 4.48278049,61.7833196 5.18287805,61.7833196 C5.88297561,61.7833196 6.45117073,61.2106186 6.45117073,60.5049691 L6.45117073,54.1240825 C8.53941463,53.5584124 10.0841951,51.6389691 10.0841951,49.3577526 L10.0841951,35.9913196 C11.1210244,37.0101649 12.5351707,37.6403918 14.0939024,37.6403918 L38.0868293,37.6403918 C39.6468293,37.6403918 41.0616098,37.0095258 42.0997073,35.9900412 L42.0997073,49.3583918 C42.0997073,51.6396082 43.6438537,53.5590515 45.7327317,54.1247216 L45.7327317,60.5056082 C45.7327317,61.2112577 46.3009268,61.7839588 47.0010244,61.7839588 C47.701122,61.7839588 48.2693171,61.2112577 48.2693171,60.5056082 L48.2693171,54.1247216 C50.357561,53.5590515 51.9017073,51.6396082 51.9017073,49.3583918 L51.9017073,9.97880412 L51.9010732,9.97880412 Z M2.8175122,9.97880412 C2.8175122,6.18018557 5.88487805,3.08913402 9.65487805,3.08913402 L42.5290244,3.08913402 C46.2977561,3.08913402 49.3638537,6.17954639 49.3638537,9.97880412 L49.3638537,21.9134845 C49.3638537,25.2602062 46.9839024,28.0540412 43.8410732,28.6734021 L43.8410732,22.8601031 C43.8410732,19.6623093 41.2594634,17.060866 38.0861951,17.060866 L14.0926341,17.060866 C10.9212683,17.060866 8.34092683,19.6623093 8.34092683,22.8601031 L8.34092683,28.6734021 C5.19746341,28.0540412 2.8175122,25.2602062 2.8175122,21.9141237 L2.8175122,9.97880412 L2.8175122,9.97880412 Z M5.1822439,51.7412371 C3.87843902,51.7412371 2.8175122,50.6718969 2.8175122,49.3577526 L2.8175122,28.3550928 C4.06868293,29.7031134 5.7022439,30.6810515 7.54697561,31.1105773 L7.54697561,49.3583918 C7.54634146,50.6718969 6.48604878,51.7412371 5.1822439,51.7412371 Z M38.0868293,35.0836907 L14.0926341,35.0836907 C12.319561,35.0836907 10.8775122,33.629567 10.8775122,31.8411546 L10.8775122,22.8601031 C10.8775122,21.0723299 12.319561,19.617567 14.0926341,19.617567 L38.0868293,19.617567 C39.8618049,19.617567 41.305122,21.0716907 41.305122,22.8601031 L41.305122,31.8411546 C41.305122,33.6289278 39.8611707,35.0836907 38.0868293,35.0836907 Z M49.3644878,49.3583918 C49.3644878,50.6725361 48.3041951,51.7418763 47.0003902,51.7418763 C45.6965854,51.7418763 44.6356585,50.6725361 44.6356585,49.3583918 L44.6356585,31.1105773 C46.479122,30.6816907 48.1126829,29.7037526 49.3638537,28.355732 L49.3638537,49.3583918 L49.3644878,49.3583918 Z" id="Shape"></path>
                <path d="M28.2436585,25.4123299 L26.8510732,25.2090722 L26.2289756,23.9371134 C26.0152683,23.5005567 25.5745366,23.224433 25.0913171,23.224433 C24.6087317,23.224433 24.1673659,23.5005567 23.9542927,23.9371134 L23.331561,25.2090722 L21.9396098,25.4123299 C21.4620976,25.482 21.065122,25.8194845 20.9154634,26.2822474 C20.7658049,26.7450103 20.8900976,27.2531546 21.2357073,27.5925567 L22.2433659,28.5832784 L22.005561,29.9817938 C21.9237561,30.4611753 22.1197073,30.9463093 22.5103415,31.2326598 C22.7310244,31.3943711 22.9929268,31.4768247 23.2554634,31.4768247 C23.4577561,31.4768247 23.6600488,31.4282474 23.8458537,31.3298144 L25.0919512,30.6695464 L26.3380488,31.3298144 C26.5232195,31.4282474 26.7261463,31.4768247 26.928439,31.4768247 C27.1909756,31.4768247 27.452878,31.3943711 27.6741951,31.2326598 C28.0648293,30.9463093 28.2601463,30.4618144 28.1783415,29.9817938 L27.9405366,28.5832784 L28.9488293,27.5925567 C29.294439,27.2525155 29.4187317,26.7443711 29.2697073,26.2822474 C29.1187805,25.8201237 28.7218049,25.4826392 28.2436585,25.4123299 Z M26.5758537,28.1377732 L26.9271707,30.1984742 L25.0906829,29.2250103 L23.2541951,30.1984742 L23.604878,28.1377732 L22.1203415,26.6778969 L24.172439,26.3774845 L25.0900488,24.5021443 L26.0076585,26.3774845 L28.0603902,26.6778969 L26.5758537,28.1377732 Z" id="Shape"></path>
            </g>
        </g>
    </g>
</svg>