<?xml version="1.0" encoding="UTF-8"?>
<svg width="55px" height="56px" viewBox="0 0 55 56" version="1.1" xmlns="http://www.w3.org/2000/svg" xmlns:xlink="http://www.w3.org/1999/xlink">
    <!-- Generator: Sketch 41.2 (35397) - http://www.bohemiancoding.com/sketch -->
    <title>Group</title>
    <desc>Created with Sketch.</desc>
    <defs></defs>
    <g id="ARABIC" stroke="none" stroke-width="1" fill="none" fill-rule="evenodd">
        <g id="headway_regular_english_desktop" transform="translate(-214.000000, -931.000000)" fill="#FF0000">
            <g id="Group" transform="translate(214.000000, 931.000000)">
                <path d="M0,0.413942857 L0,1.32822857 L0,55.2710857 L55,55.2710857 L55,0.413942857 L0,0.413942857 Z M1.83333333,2.24251429 L53.1666667,2.24251429 L53.1666667,53.4425143 L1.83333333,53.4425143 L1.83333333,2.24251429 L1.83333333,2.24251429 Z" id="Shape"></path>
                <path d="M6.60577397,0.452685714 L5.3108927,1.74708571 L23.71875,20.0635429 L23.71875,17.4805714 L6.60577397,0.452685714 L6.60577397,0.452685714 Z M48.2789714,0.452685714 L31.28125,17.3658286 L31.28125,19.9484571 L49.573629,1.74708571 L48.2789714,0.452685714 Z M1.33561198,5.8248 L0.0393880208,7.11782857 L17.0368859,24.0712 L19.6295573,24.0712 L1.33561198,5.8248 Z M53.5489098,5.8248 L35.2549645,24.0712 L37.8478593,24.0712 L54.8453572,7.11782857 L53.5489098,5.8248 L53.5489098,5.8248 Z M16.9619141,31.6140571 L0.0393880208,48.4526857 L1.3340454,49.7470857 L19.5574947,31.6140571 L16.9619141,31.6140571 L16.9619141,31.6140571 Z M35.3268025,31.6140571 L53.5504761,49.7470857 L54.8453572,48.4526857 L37.9228311,31.6140571 L35.3268025,31.6140571 L35.3268025,31.6140571 Z M23.71875,35.5774857 L5.30932623,53.9390857 L6.60577397,55.2321143 L23.71875,38.1635429 L23.71875,35.5774857 Z M31.28125,35.6925714 L31.28125,38.2787429 L48.2789714,55.2321143 L49.5751953,53.9390857 L31.28125,35.6925714 L31.28125,35.6925714 Z" id="Shape"></path>
                <polygon id="Shape" points="22.8020833 0.413942857 22.8020833 23.1568 0 23.1568 0 24.9853714 24.6354167 24.9853714 24.6354167 0.413942857"></polygon>
                <polygon id="Shape" points="30.3645833 0.413942857 30.3645833 24.9853714 55 24.9853714 55 23.1568 32.1979167 23.1568 32.1979167 0.413942857 30.3645833 0.413942857"></polygon>
                <polygon id="Shape" points="0 30.6996571 0 32.5282286 22.8020833 32.5282286 22.8020833 55.2710857 24.6354167 55.2710857 24.6354167 30.6996571"></polygon>
                <polygon id="Shape" points="30.3645833 30.6996571 30.3645833 55.2710857 32.1979167 55.2710857 32.1979167 32.5282286 55 32.5282286 55 30.6996571"></polygon>
            </g>
        </g>
    </g>
</svg>