<?xml version="1.0" encoding="UTF-8"?>
<svg width="54px" height="9px" viewBox="0 0 54 9" version="1.1" xmlns="http://www.w3.org/2000/svg" xmlns:xlink="http://www.w3.org/1999/xlink">
    <!-- Generator: Sketch 41.2 (35397) - http://www.bohemiancoding.com/sketch -->
    <title>Group 16</title>
    <desc>Created with Sketch.</desc>
    <defs></defs>
    <g id="Page-1" stroke="none" stroke-width="1" fill="none" fill-rule="evenodd">
        <g id="headway_ielts_toefl_desktop" transform="translate(-104.000000, -5289.000000)" fill="#FCC000">
            <g id="Group-16" transform="translate(104.000000, 5289.000000)">
                <polygon id="Star" points="4.95182569 7.46261646 2.02754842 9 2.58603568 5.74376941 0.220245677 3.4376941 3.48968705 2.96261646 4.95182569 0 6.41396432 2.96261646 9.68340569 3.4376941 7.31761569 5.74376941 7.87610295 9"></polygon>
                <polygon id="Star-Copy" points="15.9518257 7.46261646 13.0275484 9 13.5860357 5.74376941 11.2202457 3.4376941 14.4896871 2.96261646 15.9518257 0 17.4139643 2.96261646 20.6834057 3.4376941 18.3176157 5.74376941 18.876103 9"></polygon>
                <polygon id="Star-Copy-2" points="26.9518257 7.46261646 24.0275484 9 24.5860357 5.74376941 22.2202457 3.4376941 25.4896871 2.96261646 26.9518257 0 28.4139643 2.96261646 31.6834057 3.4376941 29.3176157 5.74376941 29.876103 9"></polygon>
                <polygon id="Star-Copy-3" points="37.9518257 7.46261646 35.0275484 9 35.5860357 5.74376941 33.2202457 3.4376941 36.4896871 2.96261646 37.9518257 0 39.4139643 2.96261646 42.6834057 3.4376941 40.3176157 5.74376941 40.876103 9"></polygon>
                <polygon id="Star-Copy-4" points="48.9518257 7.46261646 46.0275484 9 46.5860357 5.74376941 44.2202457 3.4376941 47.4896871 2.96261646 48.9518257 0 50.4139643 2.96261646 53.6834057 3.4376941 51.3176157 5.74376941 51.876103 9"></polygon>
            </g>
        </g>
    </g>
</svg>