<?xml version="1.0" encoding="UTF-8"?>
<svg width="84px" height="63px" viewBox="0 0 84 63" version="1.1" xmlns="http://www.w3.org/2000/svg" xmlns:xlink="http://www.w3.org/1999/xlink">
    <!-- Generator: Sketch 41.2 (35397) - http://www.bohemiancoding.com/sketch -->
    <title>Group 6</title>
    <desc>Created with Sketch.</desc>
    <defs></defs>
    <g id="Page-1" stroke="none" stroke-width="1" fill="none" fill-rule="evenodd">
        <g id="headway_ielts_toefl_desktop" transform="translate(-991.000000, -861.000000)">
            <g id="Group-6" transform="translate(992.074115, 861.813187)">
                <path d="M71.7435011,7.64835165 L51.0977696,7.64835165 C50.2178249,3.29261538 46.3832384,0 41.8090431,0 L9.48216261,0 C4.25559458,0 0,4.29072527 0,9.56043956 L0,25.4725275 C0,30.7422418 4.25559458,35.032967 9.48216261,35.032967 L10.6427793,35.032967 L7.68434458,43.9891868 C7.42263689,44.7846154 7.7033089,45.6565275 8.37464602,46.146022 C8.70462528,46.3869451 9.09149751,46.5054945 9.48216261,46.5054945 C9.88041344,46.5054945 10.2824571,46.3792967 10.6200221,46.1230769 L25.2870313,35.032967 L28.4141109,35.032967 L28.4141109,35.6535027 C28.4141109,37.0860828 28.3886769,42.1978347 28.4141109,42.6038805 C28.6844536,46.9198146 33.9372009,49.7142857 38.0161781,49.7142857 L56.6388537,49.7142857 L71.3058628,60.8043956 C71.6434278,61.0606154 72.0454715,61.1868132 72.4437223,61.1868132 C72.8343874,61.1868132 73.2212597,61.0682637 73.5512389,60.8273407 C74.2263689,60.3378462 74.5032481,59.4659341 74.2415404,58.6705055 L71.2831056,49.7142857 L72.4437223,49.7142857 C77.6702904,49.7142857 81.925885,45.4235604 81.925885,40.1538462 L81.925885,17.2087912 C81.925885,11.9390769 76.9700691,7.64835165 71.7435011,7.64835165 Z M24.6536228,31.2087912 C24.2402005,31.2087912 23.8419497,31.3426374 23.5157633,31.5912088 L13.1991704,39.3925275 L15.0728457,33.7289231 C15.2700747,33.1438242 15.1714602,32.5013626 14.8149309,32.0042198 C14.4584015,31.5032527 13.8856789,31.2087912 13.2750277,31.2087912 L9.48216261,31.2087912 C6.34546322,31.2087912 3.79286504,28.6351209 3.79286504,25.4725275 L3.79286504,9.56043956 C3.79286504,6.39784615 6.34546322,3.82417582 9.48216261,3.82417582 L41.8090431,3.82417582 C44.2781983,3.82417582 46.3642741,5.42650549 47.1493971,7.64835165 L38.0161781,7.64835165 C32.7896101,7.64835165 28.5340155,11.9390769 28.5340155,17.2087912 L28.5340155,31.2087912 L24.6536228,31.2087912 Z M78.1330199,40.1538462 C78.1330199,43.3164396 75.5804217,45.8901099 72.4437223,45.8901099 L68.6508573,45.8901099 C68.040206,45.8901099 67.4674834,46.1883956 67.1109541,46.6855385 C66.7582176,47.1865055 66.6596032,47.828967 66.8530393,48.4102418 L68.7267146,54.0738462 L58.4101217,46.2725275 C58.0801424,46.023956 57.6818916,45.8901099 57.2722622,45.8901099 L38.0161781,45.8901099 C34.8794787,45.8901099 32.3268805,43.3164396 32.3268805,40.1538462 L32.3268805,17.2087912 C32.3268805,14.0461978 34.8794787,11.4725275 38.0161781,11.4725275 L72.4437223,11.4725275 C75.5804217,11.4725275 78.1330199,14.0461978 78.1330199,17.2087912 L78.1330199,40.1538462 Z" id="Shape" stroke="#FFFFFF" stroke-width="1.05" fill="#00A5E8"></path>
                <ellipse id="Oval" fill="#00A5E8" cx="50.7660398" cy="23.5604396" rx="2.45077434" ry="2.46153846"></ellipse>
                <ellipse id="Oval-Copy" fill="#00A5E8" cx="60.5691372" cy="23.5604396" rx="2.45077434" ry="2.46153846"></ellipse>
                <path d="M45.3283843,32.2328026 C52.0901779,37.6777985 62.2437046,37.5300024 66.4936653,31.9841298" id="Path-2" stroke="#00A5E8" stroke-width="2.8" stroke-linecap="round" stroke-linejoin="round"></path>
            </g>
        </g>
    </g>
</svg>