<?xml version="1.0" encoding="UTF-8"?>
<svg width="38px" height="43px" viewBox="0 0 38 43" version="1.1" xmlns="http://www.w3.org/2000/svg" xmlns:xlink="http://www.w3.org/1999/xlink">
    <!-- Generator: Sketch 41.2 (35397) - http://www.bohemiancoding.com/sketch -->
    <title>Shape</title>
    <desc>Created with Sketch.</desc>
    <defs></defs>
    <g id="Page-1" stroke="none" stroke-width="1" fill="none" fill-rule="evenodd">
        <g id="headway_ielts_toefl_desktop" transform="translate(-363.000000, -1964.000000)" fill="#002F87">
            <g id="Group-9" transform="translate(143.000000, 1774.000000)">
                <g id="Group-8">
                    <path d="M227.2817,217.509052 C225.28379,217.509052 223.664209,219.12909 223.664209,221.126542 L223.664209,229.34399 C223.664209,231.341442 225.28379,232.96148 227.2817,232.96148 C229.27961,232.96148 230.899191,231.341442 230.899191,229.34399 L230.899191,221.127 C230.899649,219.12909 229.280068,217.509052 227.2817,217.509052 Z M250.42851,217.509052 C248.4306,217.509052 246.81102,219.12909 246.81102,221.126542 L246.81102,229.34399 C246.81102,231.341442 248.4306,232.96148 250.42851,232.96148 C252.426421,232.96148 254.046001,231.341442 254.046001,229.34399 L254.046001,221.127 C254.046001,219.12909 252.426421,217.509052 250.42851,217.509052 Z M238.855105,190 C228.458369,190 220,198.458369 220,208.855105 L220,226.002689 C220,226.761638 220.615129,227.376767 221.374079,227.376767 C222.133028,227.376767 222.748157,226.761638 222.748157,226.002689 L222.748157,208.855105 C222.748157,199.97352 229.97352,192.748157 238.855105,192.748157 C247.736691,192.748157 254.962053,199.97352 254.962053,208.855105 L254.962053,226.002689 C254.962053,226.761638 255.577183,227.376767 256.336132,227.376767 C257.095081,227.376767 257.71021,226.761638 257.71021,226.002689 L257.71021,208.855105 C257.71021,198.457911 249.251841,190 238.855105,190 Z" id="Shape"></path>
                </g>
            </g>
        </g>
    </g>
</svg>