<?xml version="1.0" encoding="UTF-8"?>
<svg width="110px" height="62px" viewBox="0 0 110 62" version="1.1" xmlns="http://www.w3.org/2000/svg" xmlns:xlink="http://www.w3.org/1999/xlink">
    <!-- Generator: Sketch 41.2 (35397) - http://www.bohemiancoding.com/sketch -->
    <title>Page 1</title>
    <desc>Created with Sketch.</desc>
    <defs></defs>
    <g id="ARABIC" stroke="none" stroke-width="1" fill="none" fill-rule="evenodd">
        <g id="Page-1" transform="translate(1.000000, -1.000000)">
            <g id="Group-7" transform="translate(0.000000, 3.000708)" stroke-width="3">
                <g id="Group-8">
                    <polyline id="Stroke-5" stroke="#999999" points="31.450624 22.7902527 31.450624 0 106.611801 0 106.611801 43.9520892 51.9494365 43.9520892"></polyline>
                    <path d="M18.3579458,29.0983969 C18.3579458,29.0983969 26.4716333,22.2471354 32.4507375,24.3885815 C38.8567583,17.9653815 43.1270604,13.2555662 47.3973625,10.2579969 C51.6676646,7.26042769 58.0214563,13.0586123 53.9759667,18.3934431 C49.1061646,24.8166431 41.8463104,33.8082123 45.6896958,39.3752892 C49.5330813,44.9412277 57.5003,44.6964585 61.9170708,44.0851046 C74.3010604,42.3728585 76.8636958,44.0851046 76.8636958,44.0851046 C76.8636958,44.0851046 60.6363208,57.7876277 55.51105,58.2156892 C50.3869146,58.6437508 32.8776542,57.3595662 15.7953104,52.2205508" id="Stroke-3" stroke="#FFC300" fill="#FAFAFA"></path>
                    <path d="M0.567708333,56.5029877 L0.567708333,23.5320031 C0.567708333,23.5320031 15.0874167,25.6723108 19.3577188,29.0979415 C19.3577188,29.0979415 17.2231354,50.0797877 15.0874167,52.6492954 C12.9516979,55.2188031 0.567708333,58.6444338 0.567708333,56.5029877 Z" id="Stroke-1" stroke="#FFC300" fill="#FAFAFA"></path>
                </g>
            </g>
            <path d="M89.3509439,11.1528461 C89.3509439,10.785346 89.1784439,10.515346 88.9234438,10.380346 C88.7359438,10.2828459 88.5634438,10.2678459 88.1209437,10.2678459 L84.3709431,10.2678459 C84.085943,10.2678459 83.725943,10.2678459 83.4559429,10.537846 C83.1859429,10.807846 83.1859429,11.1678461 83.1859429,11.4528461 L83.1859429,15.2628468 C83.1859429,15.6003468 83.2759429,15.9003469 83.4709429,16.0953469 C83.665943,16.2903469 83.883443,16.3503469 84.153443,16.3503469 C84.3934431,16.3503469 84.5359431,16.3128469 84.6784431,16.2303469 C84.8284432,16.1403469 84.9484432,16.0353469 85.0684432,15.9003469 C85.3534432,15.5853468 85.7059433,15.4278468 86.2459434,15.4278468 C87.2209435,15.4278468 87.5659436,16.1178469 87.5659436,17.3403471 C87.5659436,18.0228472 87.4984436,18.5853473 87.1534435,18.9303474 C86.9134435,19.1703474 86.6134434,19.2678474 86.2009434,19.2678474 C85.5784433,19.2678474 85.2334432,19.0578474 84.9934432,18.4578473 C84.8584432,18.1128472 84.7759431,17.9928472 84.6184431,17.8578472 C84.4684431,17.7228472 84.3034431,17.6628472 84.010943,17.6628472 C83.740943,17.6628472 83.4934429,17.7528472 83.3284429,17.9253472 C83.1559429,18.1053472 83.0584429,18.3453473 83.0584429,18.6603473 C83.0584429,19.3128474 83.4109429,19.9053475 83.860943,20.2953476 C84.4909431,20.8278477 85.2184432,21.0378477 86.2009434,21.0378477 C87.3559436,21.0378477 88.1059437,20.6403476 88.5784438,20.1678476 C89.3659439,19.3803474 89.5234439,18.5553473 89.5234439,17.3403471 C89.5234439,16.3353469 89.3959439,15.3228468 88.5634438,14.4903466 C88.1359437,14.0628466 87.4534436,13.7778465 86.5759434,13.7778465 C85.8334433,13.7778465 85.2634432,14.0253466 84.9559432,14.3028466 L84.9559432,12.0378462 L88.1209437,12.0378462 C88.5634438,12.0378462 88.7359438,12.0228462 88.9234438,11.9253462 C89.1784439,11.7903462 89.3509439,11.5203461 89.3509439,11.1528461 Z M97.5859439,13.3653465 C97.5859439,11.3178461 96.0709437,10.1778459 94.3309434,10.1778459 C92.5909431,10.1778459 91.0759428,11.3178461 91.0759428,13.3653465 L91.0759428,17.8503472 C91.0759428,19.8978475 92.5909431,21.0378477 94.3309434,21.0378477 C96.0709437,21.0378477 97.5859439,19.8978475 97.5859439,17.8503472 L97.5859439,13.3653465 Z M93.0409432,13.3503464 C93.0409432,12.4653463 93.5659433,11.9403462 94.3309434,11.9403462 C95.0959435,11.9403462 95.6209436,12.4653463 95.6209436,13.3503464 L95.6209436,17.8653472 C95.6209436,18.7503473 95.0959435,19.2753474 94.3309434,19.2753474 C93.5659433,19.2753474 93.0409432,18.7503473 93.0409432,17.8653472 L93.0409432,13.3503464 Z" id="50" fill="#999999"></path>
            <path d="M86.3010682,23.6881545 C86.2210682,23.4801545 86.1610682,23.3881545 86.0730682,23.3121545 C85.9650682,23.2161545 85.8450682,23.1761544 85.6730681,23.1761544 C85.5010681,23.1761544 85.3810681,23.2161545 85.2730681,23.3121545 C85.185068,23.3881545 85.125068,23.4801545 85.045068,23.6881545 L83.4010678,28.0481552 C83.2930677,28.3361553 83.2290677,28.5481553 83.4290678,28.7641554 C83.5330678,28.8761554 83.6810678,28.9361554 83.8290678,28.9361554 C83.9530678,28.9361554 84.0530679,28.9001554 84.1370679,28.8321554 C84.2330679,28.7521554 84.2770679,28.6681553 84.3730679,28.4121553 L84.5610679,27.8961552 L86.7850683,27.8961552 L86.9730683,28.4121553 C87.0690684,28.6681553 87.1130684,28.7521554 87.2090684,28.8321554 C87.2930684,28.9001554 87.3930684,28.9361554 87.5170684,28.9361554 C87.6650685,28.9361554 87.8130685,28.8761554 87.9170685,28.7641554 C88.1170685,28.5481553 88.0530685,28.3361553 87.9450685,28.0481552 L86.3010682,23.6881545 Z M85.6730681,24.8921547 L86.4370683,26.9601551 L84.909068,26.9601551 L85.6730681,24.8921547 Z M89.5570679,28.9041554 L91.9970683,28.9041554 C92.2330684,28.9041554 92.3250684,28.8961554 92.4330684,28.8401554 C92.5730684,28.7681554 92.6690684,28.6041553 92.6690684,28.4081553 C92.6690684,28.2121553 92.5730684,28.0481552 92.4330684,27.9761552 C92.3250684,27.9201552 92.2330684,27.9121552 91.9970683,27.9121552 L89.997068,27.9121552 L89.997068,26.528155 L91.6130683,26.528155 C91.8490683,26.528155 91.9410683,26.520155 92.0490683,26.464155 C92.1890684,26.392155 92.2850684,26.2281549 92.2850684,26.0321549 C92.2850684,25.8361549 92.1890684,25.6721549 92.0490683,25.6001548 C91.9410683,25.5441548 91.8490683,25.5361548 91.6130683,25.5361548 L89.997068,25.5361548 L89.997068,24.2001546 L91.9970683,24.2001546 C92.2330684,24.2001546 92.3250684,24.1921546 92.4330684,24.1361546 C92.5730684,24.0641546 92.6690684,23.9001546 92.6690684,23.7041545 C92.6690684,23.5081545 92.5730684,23.3441545 92.4330684,23.2721545 C92.3250684,23.2161545 92.2330684,23.2081545 91.9970683,23.2081545 L89.5570679,23.2081545 C89.3930679,23.2081545 89.1890679,23.2081545 89.0330678,23.3641545 C88.8770678,23.5201545 88.8770678,23.7241545 88.8770678,23.8881546 L88.8770678,28.2241553 C88.8770678,28.3881553 88.8770678,28.5921553 89.0330678,28.7481554 C89.1890679,28.9041554 89.3930679,28.9041554 89.5570679,28.9041554 Z M94.3850679,28.9041554 L95.7690682,28.9041554 C96.5450683,28.9041554 97.0610684,28.6561553 97.4890684,28.0721553 C97.8490685,27.5841552 97.8570685,27.0001551 97.8570685,26.0561549 C97.8570685,25.1121548 97.8490685,24.5281547 97.4890684,24.0401546 C97.0610684,23.4561545 96.5450683,23.2081545 95.7690682,23.2081545 L94.3850679,23.2081545 C94.2210679,23.2081545 94.0170679,23.2081545 93.8610678,23.3641545 C93.7050678,23.5201545 93.7050678,23.7241545 93.7050678,23.8881546 L93.7050678,28.2241553 C93.7050678,28.3881553 93.7050678,28.5921553 93.8610678,28.7481554 C94.0170679,28.9041554 94.2210679,28.9041554 94.3850679,28.9041554 Z M94.825068,24.2001546 L95.6730681,24.2001546 C96.0490682,24.2001546 96.3210682,24.3201546 96.5050683,24.5521547 C96.7130683,24.8121547 96.7370683,25.1601548 96.7370683,26.0561549 C96.7370683,26.9521551 96.7130683,27.3001551 96.5050683,27.5601552 C96.3210682,27.7921552 96.0490682,27.9121552 95.6730681,27.9121552 L94.825068,27.9121552 L94.825068,24.2001546 Z" id="AED" fill="#999999"></path>
        </g>
    </g>
</svg>