<svg width="90" height="90" viewBox="0 0 90 90" fill="none" xmlns="http://www.w3.org/2000/svg">
<g clip-path="url(#clip0)">
<path d="M83.4813 82.7314C75.3981 85.1254 63.9659 84.8061 48.5385 81.7571C48.1409 81.6787 47.7434 81.6004 47.3514 81.519C41.8272 80.3907 36.9386 79.1363 33.5731 78.2095C36.6502 77.9155 39.6965 77.504 42.6839 76.9804C54.6171 74.886 64.8423 71.1118 72.4076 66.0944C74.6782 66.0189 76.6886 65.7613 78.3153 65.2797C83.1366 63.8545 88.1989 66.6041 89.6241 71.4226C91.0522 76.244 88.2998 81.3062 83.4813 82.7314Z" fill="url(#paint0_radial)"/>
<path d="M25.6147 39.7387C21.6026 35.0922 22.0708 28.0839 26.6654 24.0125L34.06 17.46C35.5567 16.1338 36.0303 13.9952 35.2334 12.1609C33.5735 8.34035 37.4195 4.44706 41.2601 6.06018C49.2551 9.41823 54.6157 17.0638 55.0477 25.7246C55.5334 35.4628 47.7686 43.6246 38.0183 43.6246H34.1043C30.8444 43.6246 27.7456 42.2061 25.6147 39.7387Z" fill="url(#paint1_radial)"/>
<path d="M26.9702 52.3269C25.3688 52.1817 23.7927 51.9523 22.2537 51.6378C17.33 50.6314 14.1541 45.824 15.1605 40.9004C16.1665 35.9762 20.9727 32.7987 25.8978 33.8069C30.2988 34.7074 35.3032 34.4287 39.9872 33.0244C44.6602 31.6236 48.5464 29.1853 50.3833 26.502C53.2227 22.355 58.8858 21.2956 63.0325 24.1333C67.1794 26.9722 68.24 32.6353 65.4013 36.7825C61.1672 42.9674 53.9978 47.8241 45.2132 50.4574C39.2865 52.2339 32.9586 52.8701 26.9702 52.3269Z" fill="url(#paint2_radial)"/>
<path d="M21.4909 67.2254C18.8322 66.9844 16.2148 66.6201 13.665 66.1322C8.72891 65.1875 5.49315 60.4203 6.43797 55.4845C7.38244 50.5481 12.1494 47.3102 17.0859 48.2573C25.5612 49.8792 35.0442 49.7536 43.7882 47.9033C52.5889 46.041 59.8733 42.5195 63.274 38.4826C66.5119 34.6391 72.2525 34.1485 76.0962 37.386C79.9397 40.6239 80.4309 46.3646 77.1928 50.2082C71.0913 57.4509 60.5661 62.9557 47.5556 65.7086C39.1094 67.4956 30.091 68.0054 21.4909 67.2254Z" fill="url(#paint3_radial)"/>
<path d="M17.9782 83.8108C14.3967 83.4859 10.8678 83.004 7.43567 82.3648C2.49502 81.445 -0.76457 76.6941 0.155194 71.7534C1.07478 66.8126 5.82731 63.5481 10.7665 64.473C22.3552 66.6305 35.266 66.6721 47.1211 64.59C59.2102 62.4667 69.2251 58.2063 73.9107 53.1933C77.3431 49.5222 83.1006 49.3281 86.7724 52.7594C90.4437 56.1912 90.6382 61.9496 87.2064 65.6211C79.7013 73.65 66.5835 79.6496 50.2693 82.5148C39.8233 84.3494 28.667 84.7801 17.9782 83.8108Z" fill="url(#paint4_radial)"/>
<path d="M26.0647 24.5906C25.9644 24.6937 25.8667 24.7983 25.771 24.9042C25.7204 24.9605 25.669 25.0164 25.6196 25.0736C25.5174 25.1917 25.419 25.3119 25.3224 25.4331C25.2501 25.5241 25.18 25.6164 25.111 25.7093C25.0413 25.8028 24.972 25.8965 24.9054 25.9918C24.8435 26.0806 24.7838 26.1706 24.7247 26.2609C24.678 26.3322 24.6324 26.404 24.5874 26.4762C24.5262 26.5747 24.465 26.6731 24.4069 26.773C24.3748 26.8284 24.345 26.8847 24.3137 26.9407C24.2596 27.0379 24.2045 27.1348 24.1533 27.2333C24.457 27.6538 24.75 28.0826 25.0306 28.5203L80.0546 83.5443C81.2569 83.3213 82.3999 83.0514 83.4808 82.7313C87.906 81.4226 90.5857 77.0463 89.8883 72.6063L35.3839 18.1018C34.9909 17.8447 34.6053 17.5771 34.2263 17.3011C34.1717 17.3544 34.1184 17.409 34.0609 17.46L26.6663 24.0125C26.5074 24.1531 26.3555 24.2986 26.2066 24.4461C26.1586 24.4936 26.1118 24.5423 26.0647 24.5906Z" fill="url(#paint5_linear)"/>
<path d="M50.2705 82.5148C50.6576 82.4469 51.0415 82.3754 51.4249 82.3038C53.473 82.6747 55.4446 82.9927 57.3455 83.261L26.5867 52.4642C26.3463 52.089 25.7899 52.0892 25.5494 52.4642C24.4803 54.1322 23.0673 55.5589 21.4101 56.6434C21.0422 56.8841 21.0422 57.4329 21.4101 57.6734L46.7933 83.0668C47.9594 82.899 49.1199 82.7169 50.2705 82.5148Z" fill="url(#paint6_linear)"/>
<path d="M68.9814 84.2902L22.3564 37.6652C21.7471 37.2666 21.173 36.8192 20.6355 36.3322C20.528 36.2131 20.422 36.0925 20.3184 35.9699C20.3046 35.9784 20.2912 35.9877 20.2774 35.9964C19.9407 35.6692 19.6192 35.3265 19.316 34.9675C19.3093 34.9716 19.3028 34.976 19.2963 34.9801C19.1898 35.0459 19.0848 35.1138 18.9813 35.1839C18.9565 35.2005 18.9324 35.2178 18.9078 35.2345C18.8185 35.2961 18.7301 35.3593 18.643 35.4241C18.6195 35.4415 18.5958 35.459 18.5725 35.4768C18.4764 35.5499 18.3816 35.6245 18.2883 35.7013C18.2778 35.7098 18.2673 35.7181 18.257 35.7265C18.0417 35.9053 17.8345 36.0941 17.6362 36.2925C17.626 36.3025 17.6161 36.3131 17.606 36.3232C17.5188 36.4112 17.4334 36.5011 17.3496 36.5928C17.3355 36.6082 17.3215 36.6237 17.3074 36.6392C17.2224 36.7338 17.1389 36.83 17.0575 36.9283C17.051 36.9362 17.0443 36.9438 17.0378 36.9518C16.8565 37.1724 16.685 37.4023 16.5244 37.6407C16.5216 37.6448 16.519 37.649 16.5163 37.6532C16.4417 37.7644 16.3698 37.8775 16.3 37.9924C16.2903 38.0083 16.2809 38.0242 16.2714 38.0401C16.2052 38.1504 16.1413 38.2621 16.0795 38.3755C16.0735 38.3866 16.0672 38.3978 16.0612 38.4091C15.8572 38.7883 15.679 39.1855 15.5286 39.5985C15.5224 39.6154 15.5164 39.6325 15.5104 39.6495C15.4667 39.7719 15.4254 39.896 15.3865 40.0211C15.3816 40.037 15.3765 40.0529 15.3715 40.0689C15.3292 40.2084 15.2897 40.3492 15.2537 40.4919C15.9783 41.2125 16.6259 42.0101 17.1797 42.8741L57.6032 83.2977C61.7367 83.8732 65.5234 84.2037 68.9814 84.2902Z" fill="url(#paint7_linear)"/>
<path d="M35.3845 20.1621C32.07 22.3307 29.2438 25.1842 27.1055 28.5204C26.6246 29.2706 25.5118 29.2706 25.0311 28.5204C22.893 25.1842 20.067 22.3307 16.7523 20.1623C16.0166 19.6808 16.0166 18.5834 16.7523 18.102C20.0668 15.9333 22.893 13.0798 25.0311 9.74378C25.5118 8.99361 26.6246 8.99361 27.1055 9.74378C29.2436 13.08 32.07 15.9335 35.3845 18.1021C36.1202 18.5832 36.1202 19.6807 35.3845 20.1621Z" fill="url(#paint8_linear)"/>
<path d="M22.356 38.6952C20.6988 39.7794 19.2856 41.2062 18.2165 42.8744C17.9762 43.2496 17.4198 43.2496 17.1792 42.8744C16.1102 41.2064 14.6972 39.7796 13.0399 38.6952C12.672 38.4545 12.6722 37.9057 13.0399 37.6651C14.6972 36.5809 16.1103 35.1541 17.1792 33.486C17.4196 33.1108 17.976 33.1108 18.2165 33.486C19.2856 35.154 20.6988 36.5807 22.356 37.6651C22.7239 37.9059 22.7239 38.4547 22.356 38.6952Z" fill="url(#paint9_linear)"/>
<path d="M86.9765 33.7228C85.3193 34.807 83.9061 36.2338 82.8371 37.902C82.5967 38.2772 82.0403 38.2772 81.7998 37.902C80.7307 36.234 79.3177 34.8072 77.6605 33.7228C77.2927 33.4821 77.2927 32.9333 77.6605 32.6927C79.3177 31.6085 80.7309 30.1817 81.7998 28.5136C82.0401 28.1384 82.5965 28.1384 82.8371 28.5136C83.9061 30.1816 85.3193 31.6083 86.9765 32.6927C87.3443 32.9333 87.3443 33.4821 86.9765 33.7228Z" fill="url(#paint10_linear)"/>
<path d="M30.7254 57.6736C29.0681 58.7578 27.655 60.1846 26.5859 61.8528C26.3455 62.228 25.7891 62.228 25.5486 61.8528C24.4795 60.1848 23.0665 58.758 21.4093 57.6736C21.0414 57.4329 21.0415 56.8841 21.4093 56.6435C23.0665 55.5593 24.4797 54.1325 25.5486 52.4644C25.789 52.0892 26.3454 52.0892 26.5859 52.4644C27.655 54.1324 29.0681 55.5591 30.7254 56.6435C31.0931 56.8841 31.0931 57.4329 30.7254 57.6736Z" fill="url(#paint11_linear)"/>
<path d="M76.9591 24.1558C75.3018 25.24 73.8887 26.6668 72.8196 28.335C72.5792 28.7101 72.0228 28.7101 71.7823 28.335C70.7132 26.667 69.3002 25.2402 67.643 24.1558C67.2752 23.9151 67.2752 23.3663 67.643 23.1257C69.3002 22.0415 70.7134 20.6147 71.7823 18.9465C72.0227 18.5714 72.5791 18.5714 72.8196 18.9465C73.8887 20.6145 75.3018 22.0413 76.9591 23.1257C77.327 23.3663 77.327 23.9151 76.9591 24.1558Z" fill="url(#paint12_linear)"/>
</g>
<defs>
<radialGradient id="paint0_radial" cx="0" cy="0" r="1" gradientUnits="userSpaceOnUse" gradientTransform="translate(77.0583 54.2173) scale(27.4632)">
<stop stop-color="#C69C6D"/>
<stop offset="0.3092" stop-color="#B88E61"/>
<stop offset="0.8908" stop-color="#946A40"/>
<stop offset="1" stop-color="#8C6239"/>
</radialGradient>
<radialGradient id="paint1_radial" cx="0" cy="0" r="1" gradientUnits="userSpaceOnUse" gradientTransform="translate(26.9389 13.6188) scale(26.4452)">
<stop stop-color="#C69C6D"/>
<stop offset="0.3092" stop-color="#B88E61"/>
<stop offset="0.8908" stop-color="#946A40"/>
<stop offset="1" stop-color="#8C6239"/>
</radialGradient>
<radialGradient id="paint2_radial" cx="0" cy="0" r="1" gradientUnits="userSpaceOnUse" gradientTransform="translate(20.7802 21.7386) scale(35.8791)">
<stop stop-color="#C69C6D"/>
<stop offset="0.3092" stop-color="#B88E61"/>
<stop offset="0.8908" stop-color="#946A40"/>
<stop offset="1" stop-color="#8C6239"/>
</radialGradient>
<radialGradient id="paint3_radial" cx="0" cy="0" r="1" gradientUnits="userSpaceOnUse" gradientTransform="translate(18.8191 18.3787) scale(55.6532)">
<stop stop-color="#C69C6D"/>
<stop offset="0.3092" stop-color="#B88E61"/>
<stop offset="0.8908" stop-color="#946A40"/>
<stop offset="1" stop-color="#8C6239"/>
</radialGradient>
<radialGradient id="paint4_radial" cx="0" cy="0" r="1" gradientUnits="userSpaceOnUse" gradientTransform="translate(21.3389 30.6979) scale(56.9014)">
<stop stop-color="#C69C6D"/>
<stop offset="0.3092" stop-color="#B88E61"/>
<stop offset="0.8908" stop-color="#946A40"/>
<stop offset="1" stop-color="#8C6239"/>
</radialGradient>
<linearGradient id="paint5_linear" x1="46.608" y1="39.7117" x2="14.0613" y2="7.16503" gradientUnits="userSpaceOnUse">
<stop stop-color="#603813" stop-opacity="0"/>
<stop offset="1" stop-color="#42210B"/>
</linearGradient>
<linearGradient id="paint6_linear" x1="39.9641" y1="71.0337" x2="7.1541" y2="38.2237" gradientUnits="userSpaceOnUse">
<stop stop-color="#603813" stop-opacity="0"/>
<stop offset="1" stop-color="#42210B"/>
</linearGradient>
<linearGradient id="paint7_linear" x1="29.8248" y1="51.701" x2="0.308018" y2="26.2974" gradientUnits="userSpaceOnUse">
<stop stop-color="#603813" stop-opacity="0"/>
<stop offset="1" stop-color="#42210B"/>
</linearGradient>
<linearGradient id="paint8_linear" x1="16.3168" y1="6.87631" x2="30.6572" y2="24.8986" gradientUnits="userSpaceOnUse">
<stop stop-color="#FFE548"/>
<stop offset="0.1758" stop-color="#FFDE50"/>
<stop offset="0.4446" stop-color="#FFCA65"/>
<stop offset="0.7709" stop-color="#FFAA87"/>
<stop offset="1" stop-color="#FF90A4"/>
</linearGradient>
<linearGradient id="paint9_linear" x1="12.8222" y1="32.0523" x2="19.9923" y2="41.0636" gradientUnits="userSpaceOnUse">
<stop stop-color="#FFE548"/>
<stop offset="0.1758" stop-color="#FFDE50"/>
<stop offset="0.4446" stop-color="#FFCA65"/>
<stop offset="0.7709" stop-color="#FFAA87"/>
<stop offset="1" stop-color="#FF90A4"/>
</linearGradient>
<linearGradient id="paint10_linear" x1="77.4425" y1="27.0799" x2="84.6127" y2="36.091" gradientUnits="userSpaceOnUse">
<stop stop-color="#FFE548"/>
<stop offset="0.1758" stop-color="#FFDE50"/>
<stop offset="0.4446" stop-color="#FFCA65"/>
<stop offset="0.7709" stop-color="#FFAA87"/>
<stop offset="1" stop-color="#FF90A4"/>
</linearGradient>
<linearGradient id="paint11_linear" x1="21.1915" y1="51.0307" x2="28.3617" y2="60.0418" gradientUnits="userSpaceOnUse">
<stop stop-color="#FFE548"/>
<stop offset="0.1758" stop-color="#FFDE50"/>
<stop offset="0.4446" stop-color="#FFCA65"/>
<stop offset="0.7709" stop-color="#FFAA87"/>
<stop offset="1" stop-color="#FF90A4"/>
</linearGradient>
<linearGradient id="paint12_linear" x1="67.4252" y1="17.5129" x2="74.5954" y2="26.524" gradientUnits="userSpaceOnUse">
<stop stop-color="#FFE548"/>
<stop offset="0.1758" stop-color="#FFDE50"/>
<stop offset="0.4446" stop-color="#FFCA65"/>
<stop offset="0.7709" stop-color="#FFAA87"/>
<stop offset="1" stop-color="#FF90A4"/>
</linearGradient>
<clipPath id="clip0">
<rect width="90" height="90" fill="white"/>
</clipPath>
</defs>
</svg>
