<svg width="90" height="90" viewBox="0 0 90 90" fill="none" xmlns="http://www.w3.org/2000/svg">
<path d="M4.16396 44.2549C5.9119 44.2549 7.32889 42.8379 7.32889 41.09C7.32889 39.342 5.9119 37.925 4.16396 37.925C2.41601 37.925 0.999023 39.342 0.999023 41.09C0.999023 42.8379 2.41601 44.2549 4.16396 44.2549Z" fill="url(#paint0_linear)"/>
<path d="M87.0294 67.036L25.849 67.0851C23.4179 67.087 21.4385 65.1107 21.4365 62.6797L21.3959 28.0925C21.3905 21.3852 18.7736 15.0815 14.027 10.3426L12.5202 8.83831C11.3894 7.70927 9.54881 7.60679 8.36774 8.68328C7.10686 9.83253 7.07381 11.7876 8.26736 12.979L9.83375 14.5429C13.2587 17.9626 15.2308 22.4494 15.4412 27.2547H4.7071C2.91396 27.2547 1.39116 28.7221 1.42474 30.5147C1.45743 32.2534 2.87687 33.6526 4.62307 33.6526H13.3513C14.5204 33.6526 15.4686 34.5997 15.47 35.7688C15.4714 36.9399 14.5224 37.89 13.3513 37.89H11.7213C9.95451 37.89 8.52225 39.3222 8.52225 41.089C8.52225 42.8558 9.95451 44.2881 11.7213 44.2881H13.5188C14.6023 44.2881 15.4812 45.1657 15.4825 46.2494C15.4837 47.3347 14.6041 48.2153 13.5188 48.2153H11.7211C9.95433 48.2153 8.52207 49.6476 8.52207 51.4144C8.52207 53.1812 9.95433 54.6134 11.7211 54.6134H15.492L15.5015 62.6846C15.506 68.3883 20.15 73.0249 25.8539 73.0205L87.0343 72.9715C88.6731 72.9702 90.0008 71.6404 89.9995 70.0015C89.998 68.3623 88.6682 67.0348 87.0294 67.036Z" fill="url(#paint1_linear)"/>
<path d="M14.0286 10.3428L12.4623 8.77883C11.3024 7.62097 9.42335 7.62237 8.26548 8.78217C7.10726 9.94198 7.10884 11.8211 8.26882 12.9789L9.83521 14.5429C11.5028 16.2079 12.8252 18.1265 13.7685 20.2109L18.1795 15.7928C17.0654 13.8202 15.6755 11.987 14.0286 10.3428Z" fill="url(#paint2_linear)"/>
<path d="M1.37305 1.95999C3.20557 0.124661 6.17873 0.1222 8.01405 1.95472L11.7956 5.73031C13.631 7.56283 13.6334 10.536 11.8009 12.3713C9.96839 14.2066 6.99523 14.2091 5.1599 12.3766L1.37832 8.60099C-0.457004 6.76848 -0.459465 3.79532 1.37305 1.95999Z" fill="url(#paint3_linear)"/>
<path d="M32.958 89.4182C39.2365 89.4182 44.3263 84.3284 44.3263 78.0499C44.3263 71.7714 39.2365 66.6816 32.958 66.6816C26.6795 66.6816 21.5897 71.7714 21.5897 78.0499C21.5897 84.3284 26.6795 89.4182 32.958 89.4182Z" fill="url(#paint4_linear)"/>
<path d="M32.957 85.8746C37.2785 85.8746 40.7817 82.3714 40.7817 78.0499C40.7817 73.7285 37.2785 70.2252 32.957 70.2252C28.6356 70.2252 25.1323 73.7285 25.1323 78.0499C25.1323 82.3714 28.6356 85.8746 32.957 85.8746Z" fill="url(#paint5_linear)"/>
<path d="M32.9572 81.8165C35.0374 81.8165 36.7238 80.1301 36.7238 78.0498C36.7238 75.9696 35.0374 74.2832 32.9572 74.2832C30.8769 74.2832 29.1906 75.9696 29.1906 78.0498C29.1906 80.1301 30.8769 81.8165 32.9572 81.8165Z" fill="url(#paint6_linear)"/>
<path d="M71.8025 89.4182C78.081 89.4182 83.1708 84.3284 83.1708 78.0499C83.1708 71.7714 78.081 66.6816 71.8025 66.6816C65.524 66.6816 60.4342 71.7714 60.4342 78.0499C60.4342 84.3284 65.524 89.4182 71.8025 89.4182Z" fill="url(#paint7_linear)"/>
<path d="M71.8015 85.8746C76.123 85.8746 79.6262 82.3714 79.6262 78.0499C79.6262 73.7285 76.123 70.2252 71.8015 70.2252C67.4801 70.2252 63.9768 73.7285 63.9768 78.0499C63.9768 82.3714 67.4801 85.8746 71.8015 85.8746Z" fill="url(#paint8_linear)"/>
<path d="M71.8015 81.8165C73.8818 81.8165 75.5682 80.1301 75.5682 78.0498C75.5682 75.9696 73.8818 74.2832 71.8015 74.2832C69.7213 74.2832 68.0349 75.9696 68.0349 78.0498C68.0349 80.1301 69.7213 81.8165 71.8015 81.8165Z" fill="url(#paint9_linear)"/>
<path d="M68.7586 65.4783H28.3557C26.6231 65.4783 25.3662 64.2491 25.3513 62.5398L25.0502 27.8132H86.4942L72.8888 62.5398C72.2192 64.2491 70.4915 65.4783 68.7586 65.4783Z" fill="url(#paint10_linear)"/>
<path d="M64.583 61.498C64.4701 61.498 64.3578 61.4898 64.2465 61.4722C63.0361 61.284 62.4012 60.1145 62.8285 58.8601L70.0793 37.5778C70.5066 36.3234 71.8346 35.4589 73.0449 35.6474C74.2553 35.8356 74.8902 37.0051 74.4627 38.2595L67.2119 59.5418C66.824 60.6807 65.6939 61.498 64.583 61.498Z" fill="url(#paint11_linear)"/>
<path d="M34.0573 61.4981C32.9464 61.4981 32.1294 60.6808 32.1777 59.542L33.0805 38.2596C33.1336 37.0053 34.2166 35.8358 35.4992 35.6475C36.7814 35.4594 37.7786 36.3236 37.7252 37.578L36.8224 58.8603C36.7693 60.1147 35.6863 61.2841 34.4036 61.4724C34.2857 61.4894 34.1698 61.4981 34.0573 61.4981Z" fill="url(#paint12_linear)"/>
<path d="M54.5277 61.4978C54.4884 61.4978 54.449 61.4968 54.4098 61.4948C53.1633 61.4301 52.4017 60.3507 52.7088 59.0838L57.8674 37.8015C58.1745 36.5348 59.4354 35.5628 60.6801 35.6252C61.9265 35.6898 62.6882 36.7693 62.3811 38.0362L57.2225 59.3185C56.9252 60.5451 55.7347 61.4978 54.5277 61.4978Z" fill="url(#paint13_linear)"/>
<path d="M44.1132 61.4978C42.9061 61.4978 42.0807 60.5453 42.2533 59.3185L45.2484 38.0362C45.4266 36.7695 46.6017 35.6901 47.873 35.6252C49.1439 35.561 50.0303 36.5347 49.8521 37.8015L46.857 59.0838C46.6787 60.3505 45.5036 61.43 44.2324 61.4949C44.1923 61.4968 44.1524 61.4978 44.1132 61.4978Z" fill="url(#paint14_linear)"/>
<path d="M25.0977 33.1992L50.9924 65.4783H68.7592C70.4921 65.4783 72.2198 64.2491 72.8896 62.5398L86.495 27.8132H25.0511L25.0977 33.1992Z" fill="url(#paint15_linear)"/>
<path d="M86.2251 33.4348H25.3221C23.5405 33.4348 22.0963 31.9906 22.0963 30.209C22.0963 28.4275 23.5405 26.9833 25.3221 26.9833H86.2252C88.0068 26.9833 89.451 28.4275 89.451 30.209C89.4508 31.9907 88.0066 33.4348 86.2251 33.4348Z" fill="url(#paint16_linear)"/>
<defs>
<linearGradient id="paint0_linear" x1="5.09572" y1="41.6608" x2="9.93972" y2="44.6219" gradientUnits="userSpaceOnUse">
<stop stop-color="#C3C3C3"/>
<stop offset="1" stop-color="#777777"/>
</linearGradient>
<linearGradient id="paint1_linear" x1="2.90476" y1="39.8612" x2="91.4786" y2="43.4699" gradientUnits="userSpaceOnUse">
<stop stop-color="#C3C3C3"/>
<stop offset="1" stop-color="#777777"/>
</linearGradient>
<linearGradient id="paint2_linear" x1="15.4383" y1="16.8162" x2="8.83138" y2="10.2193" gradientUnits="userSpaceOnUse">
<stop stop-color="#C3C3C3" stop-opacity="0"/>
<stop offset="0.267" stop-color="#A4A4A4" stop-opacity="0.267"/>
<stop offset="0.542" stop-color="#8B8B8B" stop-opacity="0.542"/>
<stop offset="0.794" stop-color="#7C7C7C" stop-opacity="0.794"/>
<stop offset="1" stop-color="#777777"/>
</linearGradient>
<linearGradient id="paint3_linear" x1="9.91205" y1="3.83687" x2="3.27621" y2="10.483" gradientUnits="userSpaceOnUse">
<stop stop-color="#AD8BD7"/>
<stop offset="1" stop-color="#7149B7"/>
</linearGradient>
<linearGradient id="paint4_linear" x1="25.8131" y1="72.4917" x2="39.814" y2="83.385" gradientUnits="userSpaceOnUse">
<stop stop-color="#777777"/>
<stop offset="1" stop-color="#3B4041"/>
</linearGradient>
<linearGradient id="paint5_linear" x1="33.7303" y1="84.2494" x2="32.218" y2="72.135" gradientUnits="userSpaceOnUse">
<stop stop-color="#777777"/>
<stop offset="1" stop-color="#3B4041"/>
</linearGradient>
<linearGradient id="paint6_linear" x1="30.5931" y1="76.2111" x2="35.2307" y2="79.8198" gradientUnits="userSpaceOnUse">
<stop stop-color="#C3C3C3"/>
<stop offset="1" stop-color="#777777"/>
</linearGradient>
<linearGradient id="paint7_linear" x1="64.6576" y1="72.4927" x2="78.6567" y2="83.3842" gradientUnits="userSpaceOnUse">
<stop stop-color="#777777"/>
<stop offset="1" stop-color="#3B4041"/>
</linearGradient>
<linearGradient id="paint8_linear" x1="72.5738" y1="84.2499" x2="71.0615" y2="72.1355" gradientUnits="userSpaceOnUse">
<stop stop-color="#777777"/>
<stop offset="1" stop-color="#3B4041"/>
</linearGradient>
<linearGradient id="paint9_linear" x1="69.4368" y1="76.2113" x2="74.0743" y2="79.82" gradientUnits="userSpaceOnUse">
<stop stop-color="#C3C3C3"/>
<stop offset="1" stop-color="#777777"/>
</linearGradient>
<linearGradient id="paint10_linear" x1="51.9277" y1="47.885" x2="51.9277" y2="68.1267" gradientUnits="userSpaceOnUse">
<stop stop-color="#B058E0"/>
<stop offset="1" stop-color="#7149B7"/>
</linearGradient>
<linearGradient id="paint11_linear" x1="68.2847" y1="46.6671" x2="75.1842" y2="65.813" gradientUnits="userSpaceOnUse">
<stop stop-color="#7149B7"/>
<stop offset="1" stop-color="#563494"/>
</linearGradient>
<linearGradient id="paint12_linear" x1="34.5912" y1="46.6672" x2="41.4907" y2="65.8131" gradientUnits="userSpaceOnUse">
<stop stop-color="#7149B7"/>
<stop offset="1" stop-color="#563494"/>
</linearGradient>
<linearGradient id="paint13_linear" x1="57.426" y1="47.1946" x2="62.6054" y2="66.522" gradientUnits="userSpaceOnUse">
<stop stop-color="#7149B7"/>
<stop offset="1" stop-color="#563494"/>
</linearGradient>
<linearGradient id="paint14_linear" x1="45.9339" y1="47.1948" x2="51.1133" y2="66.5222" gradientUnits="userSpaceOnUse">
<stop stop-color="#7149B7"/>
<stop offset="1" stop-color="#563494"/>
</linearGradient>
<linearGradient id="paint15_linear" x1="49.7399" y1="59.3048" x2="49.7399" y2="11.8801" gradientUnits="userSpaceOnUse">
<stop stop-color="#563494" stop-opacity="0"/>
<stop offset="1" stop-color="#563494"/>
</linearGradient>
<linearGradient id="paint16_linear" x1="55.7724" y1="29.0526" x2="55.7724" y2="35.1866" gradientUnits="userSpaceOnUse">
<stop stop-color="#D118A3"/>
<stop offset="1" stop-color="#B6087E"/>
</linearGradient>
</defs>
</svg>
