<svg width="21" height="20" viewBox="0 0 21 20" fill="none" xmlns="http://www.w3.org/2000/svg">
<path d="M8.18178 18.2273C8.60855 18.2273 8.95451 17.8814 8.95451 17.4546C8.95451 17.0278 8.60855 16.6819 8.18178 16.6819C7.75502 16.6819 7.40906 17.0278 7.40906 17.4546C7.40906 17.8814 7.75502 18.2273 8.18178 18.2273Z" fill="#E1E1E1" stroke="#E1E1E1" stroke-width="2.5" stroke-linecap="round" stroke-linejoin="round"/>
<path d="M16.6818 18.2273C17.1086 18.2273 17.4545 17.8814 17.4545 17.4546C17.4545 17.0278 17.1086 16.6819 16.6818 16.6819C16.255 16.6819 15.9091 17.0278 15.9091 17.4546C15.9091 17.8814 16.255 18.2273 16.6818 18.2273Z" fill="#E1E1E1" stroke="#E1E1E1" stroke-width="2.5" stroke-linecap="round" stroke-linejoin="round"/>
<path d="M2 2H5.09091L7.16182 12.3468C7.23248 12.7026 7.42602 13.0221 7.70856 13.2496C7.9911 13.477 8.34463 13.5979 8.70727 13.5909H16.2182C16.5808 13.5979 16.9344 13.477 17.2169 13.2496C17.4994 13.0221 17.693 12.7026 17.7636 12.3468L19 5.86364H5.86364" stroke="#E1E1E1" stroke-width="2.5" stroke-linecap="round" stroke-linejoin="round"/>
</svg>
