<svg width="50" height="50" viewBox="0 0 50 50" fill="none" xmlns="http://www.w3.org/2000/svg">
<path d="M38.3679 36.5344C38.8101 37.7902 39.1769 39.0773 39.4973 40.3682C39.8431 41.7606 40.1871 43.1663 40.3028 44.5994C40.4204 46.054 40.2095 47.7485 39.1676 48.8696C37.9954 50.1308 35.6349 50.357 34.1829 49.4456C32.3475 48.2932 31.9251 45.993 31.3912 44.0784C30.87 42.2088 30.5915 40.2827 30.3535 38.3613L38.3679 36.5344Z" fill="#D473B5"/>
<path d="M39.1666 48.8692C38.2605 49.8431 36.648 50.2002 35.2908 49.8923C36.027 49.731 36.7091 49.3873 37.1908 48.8692C38.2319 47.7488 38.4439 46.0536 38.3259 44.5998C38.2095 43.1666 37.8659 41.7613 37.52 40.3686C37.2357 39.22 36.9138 38.0748 36.5354 36.9525L38.3669 36.5348C38.8088 37.7902 39.1759 39.0769 39.4959 40.3686C39.8414 41.7613 40.1853 43.167 40.3018 44.5998C40.4194 46.0536 40.2077 47.7488 39.1666 48.8692Z" fill="url(#paint0_linear)"/>
<path d="M19.6334 36.5344C19.1912 37.7902 18.8245 39.0773 18.5041 40.3682C18.1586 41.7606 17.8147 43.1663 17.6986 44.5994C17.581 46.054 17.7918 47.7485 18.8337 48.8696C20.006 50.1308 22.3668 50.357 23.8184 49.4456C25.6542 48.2932 26.0767 45.993 26.6102 44.0784C27.1314 42.2088 27.4103 40.2827 27.6479 38.3613L19.6334 36.5344Z" fill="#D473B5"/>
<path d="M18.8337 48.8692C19.7398 49.8431 21.3527 50.2002 22.7095 49.8923C21.9733 49.731 21.2912 49.3873 20.8095 48.8692C19.7684 47.7488 19.5568 46.0536 19.6744 44.5998C19.7909 43.1666 20.1348 41.7613 20.4803 40.3686C20.7647 39.22 21.0869 38.0748 21.4653 36.9525L19.6338 36.5348C19.1919 37.7902 18.8248 39.0769 18.5044 40.3686C18.159 41.7613 17.8154 43.167 17.6986 44.5998C17.5809 46.0536 17.7926 47.7488 18.8337 48.8692Z" fill="url(#paint1_linear)"/>
<path d="M42.3148 23.3334C44.4679 24.0849 47.108 25.4159 48.7322 27.0154C50.171 28.4329 50.4836 30.8949 49.1574 32.4685C47.385 34.5711 44.5534 33.741 42.5133 32.5924C41.6776 32.1217 40.8973 31.625 40.1494 31.0113C39.8302 30.7492 37.2466 28.5061 37.5089 28.1392C37.5097 28.1376 41.2176 22.9508 41.2176 22.9508C41.2176 22.9508 42.3133 23.333 42.3148 23.3334Z" fill="#D473B5"/>
<path d="M42.3148 23.3334C44.4679 24.0849 47.108 25.4159 48.7322 27.0154C50.171 28.4329 50.4836 30.8949 49.1574 32.4685C47.385 34.5711 44.5534 33.741 42.5133 32.5924C41.6776 32.1217 40.8973 31.625 40.1494 31.0113C39.8302 30.7492 37.2466 28.5061 37.5089 28.1392C37.5097 28.1376 41.2176 22.9508 41.2176 22.9508C41.2176 22.9508 42.3133 23.333 42.3148 23.3334Z" fill="url(#paint2_radial)"/>
<path d="M15.6855 23.3334C13.5321 24.0849 10.8919 25.4159 9.26817 27.0154C7.82894 28.4329 7.51633 30.8949 8.84259 32.4685C10.6153 34.5711 13.4466 33.741 15.4866 32.5924C16.3227 32.1217 17.1031 31.625 17.8509 31.0113C18.1697 30.7492 20.7538 28.5061 20.4914 28.1392C20.4903 28.1376 16.7823 22.9508 16.7823 22.9508C16.7823 22.9508 15.6867 23.333 15.6855 23.3334Z" fill="#D473B5"/>
<path d="M15.6855 23.3334C13.5321 24.0849 10.8919 25.4159 9.26817 27.0154C7.82894 28.4329 7.51633 30.8949 8.84259 32.4685C10.6153 34.5711 13.4466 33.741 15.4866 32.5924C16.3227 32.1217 17.1031 31.625 17.8509 31.0113C18.1697 30.7492 20.7538 28.5061 20.4914 28.1392C20.4903 28.1376 16.7823 22.9508 16.7823 22.9508C16.7823 22.9508 15.6867 23.333 15.6855 23.3334Z" fill="url(#paint3_radial)"/>
<path d="M39.9247 29.315C39.7042 28.9061 38.3219 26.1904 37.6986 26.1904C37.6924 26.1904 30.9292 26.1904 28.7761 26.1904C28.7761 26.1904 28.5328 26.1904 28.1254 26.1904C25.9724 26.1904 19.2091 26.1904 19.203 26.1904C18.5793 26.1904 17.1973 28.9061 16.9768 29.315C15.2017 32.6067 15.2938 36.9162 17.2991 40.119C20.8704 45.8243 30.0904 46.7543 35.8663 43.574C37.4038 42.7279 38.7057 41.5518 39.6021 40.1205C41.6077 36.9177 41.7002 32.6071 39.9247 29.315Z" fill="#DB8BC2"/>
<path d="M39.9247 29.315C39.7042 28.9061 38.3219 26.1904 37.6986 26.1904C37.6924 26.1904 30.9292 26.1904 28.7761 26.1904C28.7761 26.1904 28.5328 26.1904 28.1254 26.1904C25.9724 26.1904 19.2091 26.1904 19.203 26.1904C18.5793 26.1904 17.1973 28.9061 16.9768 29.315C15.2017 32.6067 15.2938 36.9162 17.2991 40.119C20.8704 45.8243 30.0904 46.7543 35.8663 43.574C37.4038 42.7279 38.7057 41.5518 39.6021 40.1205C41.6077 36.9177 41.7002 32.6071 39.9247 29.315Z" fill="url(#paint4_linear)"/>
<path d="M44.3797 5.33256C44.3797 8.27788 41.9585 10.6655 38.9713 10.6655C35.9841 10.6655 33.563 8.27788 33.563 5.33256C33.563 2.38762 35.9841 0 38.9713 0C41.9585 0 44.3797 2.38762 44.3797 5.33256Z" fill="#D881BC"/>
<path d="M44.3797 5.33256C44.3797 8.27788 41.9585 10.6655 38.9713 10.6655C35.9841 10.6655 33.563 8.27788 33.563 5.33256C33.563 2.38762 35.9841 0 38.9713 0C41.9585 0 44.3797 2.38762 44.3797 5.33256Z" fill="#D881BC"/>
<path d="M44.3797 5.33256C44.3797 8.27788 41.9585 10.6655 38.9713 10.6655C35.9841 10.6655 33.563 8.27788 33.563 5.33256C33.563 2.38762 35.9841 0 38.9713 0C41.9585 0 44.3797 2.38762 44.3797 5.33256Z" fill="#D881BC"/>
<path d="M44.3797 5.33256C44.3797 8.27788 41.9585 10.6655 38.9713 10.6655C35.9841 10.6655 33.563 8.27788 33.563 5.33256C33.563 2.38762 35.9841 0 38.9713 0C41.9585 0 44.3797 2.38762 44.3797 5.33256Z" fill="url(#paint5_linear)"/>
<path d="M41.4035 5.6289C41.4035 7.1174 40.1798 8.32398 38.6701 8.32398C37.1605 8.32398 35.9368 7.1174 35.9368 5.6289C35.9368 4.14079 37.1605 2.9342 38.6701 2.9342C40.1798 2.9342 41.4035 4.14079 41.4035 5.6289Z" fill="#FCEDED"/>
<path d="M41.4035 5.6289C41.4035 7.1174 40.1798 8.32398 38.6701 8.32398C37.1605 8.32398 35.9368 7.1174 35.9368 5.6289C35.9368 4.14079 37.1605 2.9342 38.6701 2.9342C40.1798 2.9342 41.4035 4.14079 41.4035 5.6289Z" fill="url(#paint6_radial)"/>
<path d="M24.0722 5.33256C24.0722 8.27788 21.6506 10.6655 18.6638 10.6655C15.6767 10.6655 13.2551 8.27788 13.2551 5.33256C13.2551 2.38762 15.6767 0 18.6638 0C21.6506 0 24.0722 2.38762 24.0722 5.33256Z" fill="#D881BC"/>
<path d="M24.0722 5.33256C24.0722 8.27788 21.6506 10.6655 18.6638 10.6655C15.6767 10.6655 13.2551 8.27788 13.2551 5.33256C13.2551 2.38762 15.6767 0 18.6638 0C21.6506 0 24.0722 2.38762 24.0722 5.33256Z" fill="url(#paint7_linear)"/>
<path d="M21.6951 5.6289C21.6951 7.1174 20.4714 8.32398 18.9617 8.32398C17.4525 8.32398 16.2288 7.1174 16.2288 5.6289C16.2288 4.14079 17.4525 2.9342 18.9617 2.9342C20.4714 2.9342 21.6951 4.14079 21.6951 5.6289Z" fill="#FCEDED"/>
<path d="M21.6951 5.6289C21.6951 7.1174 20.4714 8.32398 18.9617 8.32398C17.4525 8.32398 16.2288 7.1174 16.2288 5.6289C16.2288 4.14079 17.4525 2.9342 18.9617 2.9342C20.4714 2.9342 21.6951 4.14079 21.6951 5.6289Z" fill="url(#paint8_radial)"/>
<path d="M44.3564 16.9212C44.3564 9.52262 37.399 3.52478 28.8162 3.52478C20.2335 3.52478 13.2756 9.52262 13.2756 16.9212C13.2756 24.3202 20.2335 30.3177 28.8162 30.3177C37.399 30.3177 44.3564 24.3202 44.3564 16.9212Z" fill="#E3A4CF"/>
<path d="M44.382 16.9679C44.382 9.56925 37.4246 3.57141 28.8418 3.57141C20.2591 3.57141 13.3013 9.56925 13.3013 16.9679C13.3013 24.3668 20.2591 30.3643 28.8418 30.3643C37.4246 30.3643 44.382 24.3668 44.382 16.9679Z" fill="url(#paint9_linear)"/>
<path d="M44.357 16.9214C44.357 24.32 37.3995 30.3186 28.8172 30.3186C26.4374 30.3186 24.1822 29.8577 22.1658 29.033C23.7211 29.4835 25.387 29.7277 27.1187 29.7277C35.7019 29.7277 41.0702 23.8097 41.0702 17.8573C41.0702 12.511 39.0256 6.36915 33.7701 4.22034C39.9236 6.00294 44.357 11.0155 44.357 16.9214Z" fill="url(#paint10_linear)"/>
<path d="M29.5566 15.6008C29.1179 15.457 28.6397 15.4501 28.1967 15.5813C26.2657 16.1528 24.5889 17.5928 23.7432 19.3003C23.3381 20.1185 23.1083 21.0287 23.2016 21.9305C23.3002 22.8891 23.7819 23.7753 24.505 24.4688C26.9188 26.7832 31.0929 26.5852 33.3446 24.2033C35.9569 21.4403 33.3203 16.8344 29.5566 15.6008Z" fill="#FCEDED"/>
<path d="M33.3468 24.2029C31.8751 25.7585 29.5839 26.3834 27.4978 25.9828C28.7602 25.7433 29.9503 25.1436 30.839 24.2029C33.3282 21.5715 31.0525 17.2674 27.5783 15.7984C27.7814 15.716 27.9884 15.6435 28.1988 15.5809C28.6418 15.4501 29.1193 15.4573 29.5584 15.6012C33.322 16.8348 35.9583 21.4407 33.3468 24.2029Z" fill="#EAD7E9"/>
<path d="M23.3854 13.8664C22.9753 13.8664 22.6426 13.5383 22.6426 13.134V12.1284C22.6426 11.7241 22.9753 11.396 23.3854 11.396C23.7955 11.396 24.1282 11.7241 24.1282 12.1284V13.134C24.1282 13.5383 23.7955 13.8664 23.3854 13.8664Z" fill="#646C71"/>
<path d="M23.3854 13.8664C22.9753 13.8664 22.6426 13.5383 22.6426 13.134V12.1284C22.6426 11.7241 22.9753 11.396 23.3854 11.396C23.7955 11.396 24.1282 11.7241 24.1282 12.1284V13.134C24.1282 13.5383 23.7955 13.8664 23.3854 13.8664Z" fill="url(#paint11_linear)"/>
<path d="M34.2545 13.8664C33.8441 13.8664 33.5117 13.5383 33.5117 13.134V12.1284C33.5117 11.7241 33.8441 11.396 34.2545 11.396C34.6646 11.396 34.9974 11.7241 34.9974 12.1284V13.134C34.9974 13.5383 34.6646 13.8664 34.2545 13.8664Z" fill="#555C62"/>
<path d="M34.2545 13.8664C33.8441 13.8664 33.5117 13.5383 33.5117 13.134V12.1284C33.5117 11.7241 33.8441 11.396 34.2545 11.396C34.6646 11.396 34.9974 11.7241 34.9974 12.1284V13.134C34.9974 13.5383 34.6646 13.8664 34.2545 13.8664Z" fill="url(#paint12_linear)"/>
<path d="M31.0302 14.8411C30.0201 14.6095 28.818 14.6618 28.818 14.6618C28.818 14.6618 27.6159 14.6095 26.6058 14.8411C25.7426 15.0387 25.3128 15.9958 25.7198 16.7717C26.2239 17.733 27.1935 19.0048 28.818 19.0903C30.4425 19.0048 31.4121 17.7326 31.9162 16.7717C32.3232 15.9958 31.8934 15.0387 31.0302 14.8411Z" fill="#646C71"/>
<path d="M31.0302 14.8411C30.0201 14.6095 28.818 14.6618 28.818 14.6618C28.818 14.6618 27.6159 14.6095 26.6058 14.8411C25.7426 15.0387 25.3128 15.9958 25.7198 16.7717C26.2239 17.733 27.1935 19.0048 28.818 19.0903C30.4425 19.0048 31.4121 17.7326 31.9162 16.7717C32.3232 15.9958 31.8934 15.0387 31.0302 14.8411Z" fill="url(#paint13_radial)"/>
<path d="M28.8477 23.6831C27.9366 23.6831 27.0935 23.2754 26.5356 22.5639C26.2845 22.2442 26.3437 21.7842 26.6683 21.5366C26.9925 21.289 27.4595 21.3478 27.7102 21.6678C27.9849 22.0177 28.3997 22.2183 28.8477 22.2183C29.2957 22.2183 29.7104 22.0177 29.9851 21.6675C30.2358 21.3474 30.7024 21.2887 31.027 21.5362C31.3516 21.7838 31.4112 22.2439 31.1601 22.5635C30.6018 23.275 29.7592 23.6831 28.8477 23.6831Z" fill="#565E63"/>
<path d="M21.0528 18.4219C21.0528 19.3764 20.2678 20.1504 19.2998 20.1504C18.3314 20.1504 17.5464 19.3764 17.5464 18.4219C17.5464 17.4671 18.3314 16.6931 19.2998 16.6931C20.2678 16.6931 21.0528 17.4671 21.0528 18.4219Z" fill="#FFE34B"/>
<path d="M40.0891 18.4219C40.0891 19.3764 39.3045 20.1504 38.3361 20.1504C37.3678 20.1504 36.5828 19.3764 36.5828 18.4219C36.5828 17.4671 37.3678 16.6931 38.3361 16.6931C39.3045 16.6931 40.0891 17.4671 40.0891 18.4219Z" fill="#FFE34B"/>
<defs>
<linearGradient id="paint0_linear" x1="41.6756" y1="43.4523" x2="36.8461" y2="43.4523" gradientUnits="userSpaceOnUse">
<stop offset="0.182196" stop-color="#CC58A7"/>
<stop offset="0.828125" stop-color="#CC58A7" stop-opacity="0"/>
</linearGradient>
<linearGradient id="paint1_linear" x1="20.1895" y1="36.5348" x2="20.1895" y2="49.9998" gradientUnits="userSpaceOnUse">
<stop stop-color="#CC58A7"/>
<stop offset="1" stop-color="#CC58A7" stop-opacity="0"/>
</linearGradient>
<radialGradient id="paint2_radial" cx="0" cy="0" r="1" gradientUnits="userSpaceOnUse" gradientTransform="translate(46.5041 25.5953) rotate(109.543) scale(12.6325 14.5695)">
<stop offset="0.0405928" stop-color="#CC58A7"/>
<stop offset="1" stop-color="#E7B0D6"/>
</radialGradient>
<radialGradient id="paint3_radial" cx="0" cy="0" r="1" gradientUnits="userSpaceOnUse" gradientTransform="translate(13.9048 25.0001) rotate(90) scale(8.33333 9.64137)">
<stop stop-color="#CC58A7"/>
<stop offset="1" stop-color="#E9B5D9"/>
</radialGradient>
<linearGradient id="paint4_linear" x1="27.79" y1="25.5952" x2="37.2329" y2="44.7494" gradientUnits="userSpaceOnUse">
<stop stop-color="#CE5EAA"/>
<stop offset="0.372826" stop-color="#D678B0" stop-opacity="0.422549"/>
<stop offset="0.576562" stop-color="#DB8BC2" stop-opacity="0"/>
<stop offset="0.970982" stop-color="#CC58A7"/>
</linearGradient>
<linearGradient id="paint5_linear" x1="42.8804" y1="8.92856" x2="35.1343" y2="1.67677" gradientUnits="userSpaceOnUse">
<stop stop-color="#CC58A7"/>
<stop offset="0.407947" stop-color="#EAA5D4" stop-opacity="0.975523"/>
<stop offset="1" stop-color="#E4A6D0" stop-opacity="0.94"/>
</linearGradient>
<radialGradient id="paint6_radial" cx="0" cy="0" r="1" gradientUnits="userSpaceOnUse" gradientTransform="translate(35.0318 2.97613) rotate(47.0867) scale(9.75287 9.76454)">
<stop offset="0.277594" stop-color="#FCEDED" stop-opacity="0"/>
<stop offset="0.485613" stop-color="#EAD7E9"/>
<stop offset="0.611792" stop-color="#E7CAE5"/>
</radialGradient>
<linearGradient id="paint7_linear" x1="16.3204" y1="9.5238" x2="21.6417" y2="0.528994" gradientUnits="userSpaceOnUse">
<stop offset="0.213542" stop-color="#D881BC"/>
<stop offset="0.755208" stop-color="#E39DCD" stop-opacity="0.588542"/>
<stop offset="1" stop-color="#D881BC" stop-opacity="0"/>
</linearGradient>
<radialGradient id="paint8_radial" cx="0" cy="0" r="1" gradientUnits="userSpaceOnUse" gradientTransform="translate(15.7144 7.73803) rotate(-44.5958) scale(5.93456 5.93397)">
<stop offset="0.178571" stop-color="#E7CAE5"/>
<stop offset="0.459821" stop-color="#E7CAE5"/>
<stop offset="1" stop-color="#FCEDED" stop-opacity="0"/>
</radialGradient>
<linearGradient id="paint9_linear" x1="21.753" y1="6.5476" x2="37.7486" y2="29.3797" gradientUnits="userSpaceOnUse">
<stop stop-color="#E3A4CF" stop-opacity="0"/>
<stop offset="0.177083" stop-color="#FFF3FB" stop-opacity="0.192708"/>
<stop offset="1" stop-color="#CC58A7"/>
</linearGradient>
<linearGradient id="paint10_linear" x1="50.7293" y1="21.4287" x2="39.885" y2="18.3736" gradientUnits="userSpaceOnUse">
<stop offset="0.531801" stop-color="#D881BC"/>
<stop offset="1" stop-color="#D881BC" stop-opacity="0"/>
</linearGradient>
<linearGradient id="paint11_linear" x1="22.9626" y1="13.6904" x2="22.9626" y2="11.3095" gradientUnits="userSpaceOnUse">
<stop stop-color="#303032"/>
<stop offset="1" stop-color="#8B83D1" stop-opacity="0"/>
</linearGradient>
<linearGradient id="paint12_linear" x1="34.2545" y1="11.396" x2="34.2545" y2="13.8664" gradientUnits="userSpaceOnUse">
<stop stop-color="#2B3894" stop-opacity="0"/>
<stop offset="1" stop-color="#0F0F0F" stop-opacity="0.49"/>
</linearGradient>
<radialGradient id="paint13_radial" cx="0" cy="0" r="1" gradientUnits="userSpaceOnUse" gradientTransform="translate(30.8066 18.4524) rotate(-148.517) scale(9.55662 13.7404)">
<stop offset="0.333734" stop-color="#3B4449"/>
<stop offset="0.71875" stop-color="#C8C8C8" stop-opacity="0.16"/>
<stop offset="0.9124" stop-color="#D1D1D1" stop-opacity="0.02"/>
<stop offset="1" stop-color="#565D63"/>
</radialGradient>
</defs>
</svg>
