<svg width="16" height="18" viewBox="0 0 16 18" fill="none" xmlns="http://www.w3.org/2000/svg">
<path d="M11.5 6.75359L4.5 2.71692" stroke="#E1E1E1" stroke-width="2" stroke-linecap="round" stroke-linejoin="round"/>
<path d="M15 11.8873V5.66507C14.9997 5.39229 14.9277 5.12437 14.7912 4.8882C14.6547 4.65203 14.4585 4.45591 14.2222 4.31952L8.77778 1.2084C8.5413 1.07188 8.27306 1 8 1C7.72694 1 7.4587 1.07188 7.22222 1.2084L1.77778 4.31952C1.54154 4.45591 1.34532 4.65203 1.2088 4.8882C1.07229 5.12437 1.00028 5.39229 1 5.66507V11.8873C1.00028 12.1601 1.07229 12.428 1.2088 12.6642C1.34532 12.9003 1.54154 13.0965 1.77778 13.2329L7.22222 16.344C7.4587 16.4805 7.72694 16.5524 8 16.5524C8.27306 16.5524 8.5413 16.4805 8.77778 16.344L14.2222 13.2329C14.4585 13.0965 14.6547 12.9003 14.7912 12.6642C14.9277 12.428 14.9997 12.1601 15 11.8873Z" stroke="#E1E1E1" stroke-width="2" stroke-linecap="round" stroke-linejoin="round"/>
<path d="M1.21008 4.8562L8.00008 8.78398L14.7901 4.8562" stroke="#E1E1E1" stroke-width="2" stroke-linecap="round" stroke-linejoin="round"/>
<path d="M8 16.6161V8.77612" stroke="#E1E1E1" stroke-width="2" stroke-linecap="round" stroke-linejoin="round"/>
</svg>
