<svg width="15" height="16" viewBox="0 0 15 16" fill="none" xmlns="http://www.w3.org/2000/svg">
<path d="M10.75 6.34294L4.25 2.5946" stroke="#E1E1E1" stroke-linecap="round" stroke-linejoin="round"/>
<path d="M14 11.1096V5.33185C13.9997 5.07855 13.9329 4.82977 13.8061 4.61047C13.6793 4.39117 13.4971 4.20906 13.2778 4.08241L8.22222 1.19352C8.00264 1.06674 7.75355 1 7.5 1C7.24645 1 6.99736 1.06674 6.77778 1.19352L1.72222 4.08241C1.50286 4.20906 1.32065 4.39117 1.19389 4.61047C1.06713 4.82977 1.00026 5.07855 1 5.33185V11.1096C1.00026 11.3629 1.06713 11.6117 1.19389 11.831C1.32065 12.0503 1.50286 12.2324 1.72222 12.3591L6.77778 15.248C6.99736 15.3747 7.24645 15.4415 7.5 15.4415C7.75355 15.4415 8.00264 15.3747 8.22222 15.248L13.2778 12.3591C13.4971 12.2324 13.6793 12.0503 13.8061 11.831C13.9329 11.6117 13.9997 11.3629 14 11.1096Z" stroke="#E1E1E1" stroke-linecap="round" stroke-linejoin="round"/>
<path d="M1.19507 4.58081L7.50007 8.22803L13.8051 4.58081" stroke="#E1E1E1" stroke-linecap="round" stroke-linejoin="round"/>
<path d="M7.5 15.5008V8.22083" stroke="#E1E1E1" stroke-linecap="round" stroke-linejoin="round"/>
</svg>
