<svg width="45" height="41" viewBox="0 0 45 41" fill="none" xmlns="http://www.w3.org/2000/svg">
<path d="M24.1831 40.9503H13.4157L0 32.4503L10.3933 26.2377L24.1831 40.9503Z" fill="#B29AB2"/>
<path d="M24.0546 23.8031L8.93311 14.9419L8.98222 32.1369L24.0546 41V23.8031Z" fill="#C13030"/>
<path d="M24.0074 23.8031L24.0566 41L38.8494 32.3604L38.8362 27.2142L38.8022 15.1636L24.0074 23.8031Z" fill="#FF6248"/>
<path d="M24.0074 23.8031V34.904L38.8362 26.4402L38.8022 15.1636L24.0074 23.8031Z" fill="#EA5050"/>
<path d="M8.98598 15.1712L24.0603 6.31004L18.7559 0L3.68164 8.8612L8.98598 15.1712Z" fill="#F9D641"/>
<path d="M38.8531 14.9553L45 15.5707L30.2071 6.92922L24.0603 6.3158L38.8531 14.9553Z" fill="#FFDF57"/>
<path d="M8.98035 15.1713L24.1038 23.9751L24.0603 6.31006L8.98035 15.1713Z" fill="#FFEDE1"/>
<path opacity="0.2" d="M24.0547 6.55652L18.4481 24.233L24.0547 23.784V6.55652Z" fill="#532100"/>
<path d="M38.8494 14.9496L24.0547 6.31006V23.784L23.7751 23.8127L38.8494 14.9496Z" fill="#EAD0C3"/>
<path d="M29.9257 30.9846L45 22.1215L38.8003 14.8999L23.726 23.763L29.9257 30.9846Z" fill="#F9D641"/>
<path d="M18.0514 30.9311L23.7845 23.8127L8.99169 15.1732L3.25854 22.2916L18.0514 30.9311Z" fill="#EDA229"/>
</svg>
