<svg width="20" height="24" viewBox="0 0 20 24" fill="none" xmlns="http://www.w3.org/2000/svg">
<path d="M14.103 0H6.6038C5.04322 0 3.7736 1.26169 3.7736 2.81254V3.74709H2.8302C1.26963 3.74709 0 5.00896 0 6.56V21.1871C0 22.7381 1.26963 24 2.8302 24H13.8679C15.4285 24 16.6981 22.7381 16.6981 21.1871V20.2496L17.1698 20.2494C18.7304 20.2494 20 18.9878 20 17.4369V5.89433L14.103 0ZM14.6226 3.17896L16.7857 5.34102H15.566C15.0458 5.34102 14.6226 4.92041 14.6226 4.40338V3.17896ZM14.8113 21.187C14.8113 21.7041 14.3881 22.1247 13.8679 22.1247H2.8302C2.30999 22.1247 1.8868 21.7041 1.8868 21.187V6.55996C1.8868 6.04293 2.30999 5.62232 2.8302 5.62232H3.7736V17.4403C3.7736 18.9912 5.04322 20.2529 6.60413 20.2529L14.8113 20.2501V21.187ZM18.1132 17.4369C18.1132 17.9537 17.69 18.3742 17.1695 18.3742L6.6038 18.3776C6.08359 18.3776 5.6604 17.9572 5.6604 17.4404V2.81254C5.6604 2.29575 6.08359 1.87528 6.6038 1.87528H12.7359V4.40343C12.7359 5.95447 14.0055 7.21635 15.5661 7.21635H18.1132V17.4369H18.1132Z" fill="#563494"/>
</svg>
