<svg width="50" height="50" viewBox="0 0 50 50" fill="none" xmlns="http://www.w3.org/2000/svg">
<path d="M27.6474 2.99414H22.0591V9.71876H27.6474V2.99414Z" fill="url(#paint0_linear)"/>
<path d="M28.8988 9.1355H20.7323V10.3596H28.8988V9.1355Z" fill="#B7B7B7"/>
<path d="M29.3608 10.3596H20.2728V14.6199H29.3608V10.3596Z" fill="url(#paint1_linear)"/>
<path d="M28.7766 14.6216H20.8569V15.4543H28.7766V14.6216Z" fill="#B7B7B7"/>
<path d="M36.8589 24.2198V44.2522C36.8589 45.0626 36.1947 45.7212 35.3776 45.7212H14.2545C13.4374 45.7212 12.7732 45.0626 12.7732 44.2522V24.2198C12.7732 24.1371 12.7767 24.0578 12.7801 23.975C12.8984 21.1716 15.0352 18.4648 17.9596 17.6079C19.2254 17.2406 20.3799 16.532 20.3799 15.4545C21.3674 15.4545 24.8169 15.4545 24.8169 15.4545C24.8169 15.4545 28.2664 15.4545 29.254 15.4545C29.254 16.532 30.4102 17.2406 31.6742 17.6079C34.6873 18.4889 36.8589 21.3302 36.8589 24.2198Z" fill="url(#paint2_linear)"/>
<path d="M19.7466 24.7111H12.7732V41.5349H19.7466V24.7111Z" fill="#FFEBCA"/>
<path d="M28.7433 4.1216C27.5576 4.1216 17.7793 3.97505 16.9395 4.1216C16.0998 4.26815 12.5929 5.64054 12.5929 5.64054L12 4.84745C12 4.84745 15.0618 3.23885 16.4458 2.99403C17.8297 2.74921 23.3882 2.99403 24.4349 2.99403C25.4833 2.99403 27.1125 2.35783 27.3594 2.21128C27.6062 2.06474 28.5938 1.81991 28.7416 2.21128C28.8911 2.60266 28.7433 4.1216 28.7433 4.1216Z" fill="#C5C5C5"/>
<path d="M12.7732 44.2522V24.2198C12.7732 24.1371 12.7767 24.0578 12.7801 23.975C12.8984 21.1716 15.0352 18.4648 17.9596 17.6079C19.2254 17.2406 20.3799 16.532 20.3799 15.4545C21.3674 15.4545 24.8169 15.4545 24.8169 15.4545C24.8169 15.4545 28.2664 15.4545 29.254 15.4545C29.254 16.532 30.4102 17.2406 31.6742 17.6079L12.7732 44.2522Z" fill="url(#paint3_linear)"/>
<path d="M45.2926 41.5867V47.3297C45.2926 47.7124 43.3366 47.9331 41.1059 47.9883C38.8735 48.0383 36.3698 47.928 35.2849 47.6486C34.9319 47.559 34.7302 47.4521 34.7302 47.3297V41.5867H45.2926Z" fill="#D2D2D2"/>
<path opacity="0.1" d="M41.1059 47.1416C38.8735 47.1916 36.3698 47.0796 35.2849 46.802C34.9319 46.7106 34.7302 46.6054 34.7302 46.483V47.3296C34.7302 47.4537 34.9319 47.5589 35.2849 47.6485C36.3698 47.9278 38.8752 48.0382 41.1059 47.9882C43.3366 47.933 45.2926 47.7123 45.2926 47.3296V46.483C45.2926 46.8658 43.3349 47.0865 41.1059 47.1416Z" fill="black"/>
<path d="M49.9987 4.15308H30.0249V6.86855H49.9987V4.15308Z" fill="#F76231"/>
<path d="M30.3883 4.15308H30.0249V6.86855H30.3883V4.15308Z" fill="#D93F0E"/>
<path d="M31.6144 4.15308H31.1206V6.86855H31.6144V4.15308Z" fill="#D93F0E"/>
<path d="M32.8416 4.15308H32.3461V6.86855H32.8416V4.15308Z" fill="#D93F0E"/>
<path d="M34.068 4.15308H33.5725V6.86855H34.068V4.15308Z" fill="#D93F0E"/>
<path d="M35.2935 4.15308H34.798V6.86855H35.2935V4.15308Z" fill="#D93F0E"/>
<path d="M36.519 4.15308H36.0234V6.86855H36.519V4.15308Z" fill="#D93F0E"/>
<path d="M37.7426 4.15308H37.2488V6.86855H37.7426V4.15308Z" fill="#D93F0E"/>
<path d="M38.9685 4.15308H38.4747V6.86855H38.9685V4.15308Z" fill="#D93F0E"/>
<path d="M40.1945 4.15308H39.7007V6.86855H40.1945V4.15308Z" fill="#D93F0E"/>
<path d="M41.4199 4.15308H40.9261V6.86855H41.4199V4.15308Z" fill="#D93F0E"/>
<path d="M42.6457 4.15308H42.1501V6.86855H42.6457V4.15308Z" fill="#D93F0E"/>
<path d="M43.8731 4.15308H43.3776V6.86855H43.8731V4.15308Z" fill="#D93F0E"/>
<path d="M45.0985 4.15308H44.603V6.86855H45.0985V4.15308Z" fill="#D93F0E"/>
<path d="M46.325 4.15308H45.8295V6.86855H46.325V4.15308Z" fill="#D93F0E"/>
<path d="M47.5487 4.15308H47.0549V6.86855H47.5487V4.15308Z" fill="#D93F0E"/>
<path d="M48.7727 4.15308H48.2789V6.86855H48.7727V4.15308Z" fill="#D93F0E"/>
<path d="M49.9982 4.15308H49.5044V6.86855H49.9982V4.15308Z" fill="#D93F0E"/>
<path d="M36.0108 46.6587C35.7795 46.6415 35.5935 46.4432 35.5935 46.2156C35.5935 45.0088 35.5935 43.8036 35.5935 42.595C35.5935 42.3674 35.7795 42.1985 36.0108 42.214C36.2403 42.2295 36.4263 42.4278 36.4263 42.6554C36.4263 43.8622 36.4263 45.0674 36.4263 46.2725C36.4263 46.5036 36.2403 46.676 36.0108 46.6587Z" fill="#9E9E9E"/>
<path d="M37.6082 46.7503C37.377 46.7417 37.1909 46.5469 37.1909 46.3193C37.1909 45.1124 37.1909 43.9056 37.1909 42.6987C37.1909 42.4728 37.377 42.297 37.6082 42.3056C37.8394 42.3159 38.0255 42.5073 38.0255 42.7349C38.0255 43.9401 38.0255 45.1469 38.0255 46.3538C38.0255 46.5814 37.8377 46.7607 37.6082 46.7503Z" fill="#9E9E9E"/>
<path d="M39.2088 46.7935C38.9775 46.7918 38.7915 46.6021 38.7915 46.3745C38.7915 45.1677 38.7915 43.9625 38.7915 42.7556C38.7915 42.5281 38.9775 42.3488 39.2088 42.3505C39.4383 42.3539 39.6261 42.5401 39.6261 42.766C39.6261 43.9729 39.6261 45.1797 39.6261 46.3866C39.6261 46.6142 39.4383 46.7987 39.2088 46.7935Z" fill="#9E9E9E"/>
<path d="M40.8082 46.7936C40.5787 46.797 40.3927 46.6142 40.3927 46.3867C40.3927 45.1798 40.3927 43.9729 40.3927 42.766C40.3927 42.5384 40.5787 42.354 40.8082 42.3505C41.0377 42.3471 41.2238 42.5281 41.2238 42.7557C41.2238 43.9626 41.2238 45.1677 41.2238 46.3746C41.2238 46.6039 41.0377 46.7918 40.8082 46.7936Z" fill="#9E9E9E"/>
<path d="M42.4073 46.7503C42.176 46.7607 41.99 46.5814 41.99 46.3538C41.99 45.1469 41.99 43.9401 41.99 42.7349C41.99 42.5056 42.176 42.3142 42.4073 42.3056C42.635 42.297 42.8211 42.4728 42.8211 42.6987C42.8211 43.9056 42.8211 45.1124 42.8211 46.3193C42.8211 46.5452 42.6368 46.74 42.4073 46.7503Z" fill="#9E9E9E"/>
<path d="M44.0047 46.6593C43.7751 46.6748 43.5891 46.5024 43.5891 46.2731C43.5891 45.0679 43.5891 43.861 43.5891 42.6559C43.5891 42.4283 43.7751 42.2317 44.0047 42.2145C44.2342 42.199 44.4185 42.3679 44.4185 42.5955C44.4185 43.8024 44.4185 45.0093 44.4185 46.2162C44.4185 46.4437 44.2342 46.6437 44.0047 46.6593Z" fill="#9E9E9E"/>
<g opacity="0.1">
<path opacity="0.1" d="M37.3767 46.5088C37.3767 45.3037 37.3767 44.0968 37.3767 42.89C37.3767 42.6641 37.5628 42.4882 37.7905 42.4951C37.8566 42.4986 37.9192 42.5175 37.9766 42.5486C37.9088 42.4107 37.7697 42.3124 37.6062 42.3055C37.375 42.2969 37.189 42.4727 37.189 42.6986C37.189 43.9054 37.189 45.1123 37.189 46.3192C37.189 46.4813 37.2846 46.6226 37.4219 46.6985C37.3941 46.6382 37.3767 46.5778 37.3767 46.5088Z" fill="black"/>
<path opacity="0.1" d="M38.9758 46.5624C38.9758 45.3555 38.9758 44.1486 38.9758 42.9418C38.9758 42.7142 39.1636 42.5331 39.3931 42.5349C39.4609 42.5366 39.5217 42.5538 39.5791 42.5814C39.5096 42.4469 39.3722 42.3538 39.2088 42.3504C38.9775 42.3469 38.7915 42.528 38.7915 42.7556C38.7915 43.9624 38.7915 45.1676 38.7915 46.3745C38.7915 46.5348 38.8854 46.6762 39.0227 46.7452C38.9949 46.6917 38.9758 46.6296 38.9758 46.5624Z" fill="black"/>
<path opacity="0.1" d="M35.7795 46.4139C35.7795 45.2071 35.7795 44.0002 35.7795 42.7933C35.7795 42.5657 35.9656 42.395 36.1951 42.4105C36.2612 42.414 36.3237 42.4364 36.3811 42.4674C36.3116 42.3278 36.1725 42.2261 36.0108 42.214C35.7795 42.1985 35.5935 42.3674 35.5935 42.595C35.5935 43.8019 35.5935 45.0088 35.5935 46.2157C35.5935 46.376 35.6891 46.5225 35.8247 46.6001C35.7969 46.5432 35.7795 46.4794 35.7795 46.4139Z" fill="black"/>
<path opacity="0.1" d="M43.7734 46.4452C43.7734 45.2383 43.7734 44.0315 43.7734 42.8246C43.7734 42.597 43.9594 42.4005 44.189 42.3832C44.255 42.3781 44.3176 42.3901 44.375 42.4143C44.3054 42.285 44.1663 42.2022 44.0047 42.2125C43.7751 42.2281 43.5891 42.4263 43.5891 42.6539C43.5891 43.8608 43.5891 45.0659 43.5891 46.2711C43.5891 46.4332 43.683 46.5642 43.8186 46.6245C43.7908 46.5728 43.7734 46.5125 43.7734 46.4452Z" fill="black"/>
<path opacity="0.1" d="M42.1741 46.5296C42.1741 45.3227 42.1741 44.1159 42.1741 42.909C42.1741 42.6814 42.3619 42.49 42.5896 42.4814C42.6557 42.478 42.72 42.4918 42.7757 42.5159C42.7061 42.3849 42.567 42.2987 42.4053 42.3056C42.1741 42.3159 41.988 42.5073 41.988 42.7349C41.988 43.94 41.988 45.1469 41.988 46.3538C41.988 46.5141 42.0837 46.6503 42.2193 46.7124C42.1932 46.6572 42.1741 46.5969 42.1741 46.5296Z" fill="black"/>
<path opacity="0.1" d="M40.5768 46.5676C40.5768 45.3608 40.5768 44.1556 40.5768 42.9505C40.5768 42.7212 40.7628 42.535 40.9923 42.5315C41.0601 42.5315 41.1227 42.547 41.1766 42.5729C41.1088 42.4401 40.9697 42.3505 40.8063 42.3522C40.5768 42.3556 40.3907 42.5419 40.3907 42.7677C40.3907 43.9746 40.3907 45.1815 40.3907 46.3883C40.3907 46.5504 40.4846 46.6883 40.6203 46.7539C40.5942 46.697 40.5768 46.6349 40.5768 46.5676Z" fill="black"/>
</g>
<path d="M50 6.86511L46.4792 39.6421L46.4166 40.2145L45.2952 41.5783L45.2882 41.5869H34.7258L33.6061 40.2145L33.5435 39.6421L30.021 6.86511H50Z" fill="url(#paint4_linear)"/>
<path d="M42.0447 9.76855H37.9692V38.8026H42.0447V9.76855Z" fill="#FEEDD3"/>
<path d="M27.6475 8.5977L22.618 4.11462H27.6475V8.5977Z" fill="url(#paint5_linear)"/>
<defs>
<linearGradient id="paint0_linear" x1="22.0598" y1="6.35656" x2="27.6489" y2="6.35656" gradientUnits="userSpaceOnUse">
<stop stop-color="#D2D2D2"/>
<stop offset="1" stop-color="#9E9E9E"/>
</linearGradient>
<linearGradient id="paint1_linear" x1="20.273" y1="12.4906" x2="29.3609" y2="12.4906" gradientUnits="userSpaceOnUse">
<stop stop-color="#D2D2D2"/>
<stop offset="1" stop-color="#9E9E9E"/>
</linearGradient>
<linearGradient id="paint2_linear" x1="16.2098" y1="27.7844" x2="37.4373" y2="39.0728" gradientUnits="userSpaceOnUse">
<stop offset="0.1134" stop-color="#74BAD7"/>
<stop offset="1" stop-color="#5C94AB"/>
</linearGradient>
<linearGradient id="paint3_linear" x1="15.3524" y1="22.0471" x2="24.2556" y2="27.7108" gradientUnits="userSpaceOnUse">
<stop offset="0.1134" stop-color="white" stop-opacity="0.62"/>
<stop offset="1" stop-color="white" stop-opacity="0"/>
</linearGradient>
<linearGradient id="paint4_linear" x1="36.0293" y1="21.4871" x2="47.2438" y2="35.4663" gradientUnits="userSpaceOnUse">
<stop stop-color="#F94910"/>
<stop offset="1" stop-color="#D33400"/>
</linearGradient>
<linearGradient id="paint5_linear" x1="22.0599" y1="6.35624" x2="27.6471" y2="6.35624" gradientUnits="userSpaceOnUse">
<stop stop-color="#A8A7A7"/>
</linearGradient>
</defs>
</svg>
