<svg width="50" height="50" viewBox="0 0 50 50" fill="none" xmlns="http://www.w3.org/2000/svg">
<g clip-path="url(#clip0)">
<path d="M27.7611 2.99402H22.1321V9.71866H27.7611V2.99402Z" fill="url(#paint0_linear)"/>
<path d="M29.0229 9.13562H20.7969V10.3597H29.0229V9.13562Z" fill="#B7B7B7"/>
<path d="M29.487 10.3597H20.3328V14.62H29.487V10.3597Z" fill="url(#paint1_linear)"/>
<path d="M28.8984 14.6217H20.9211V15.4545H28.8984V14.6217Z" fill="#B7B7B7"/>
<path d="M37.0404 24.2199V44.2524C37.0404 45.0627 36.3714 45.7213 35.5483 45.7213H14.2714C13.4483 45.7213 12.7793 45.0627 12.7793 44.2524V24.2199C12.7793 24.1371 12.7828 24.0578 12.7863 23.975C12.9054 21.1716 15.0578 18.4648 18.0035 17.6079C19.2785 17.2407 20.4414 16.532 20.4414 15.4545C21.4361 15.4545 24.9107 15.4545 24.9107 15.4545C24.9107 15.4545 28.3854 15.4545 29.3801 15.4545C29.3801 16.532 30.5448 17.2407 31.818 17.6079C34.853 18.4889 37.0404 21.3303 37.0404 24.2199Z" fill="url(#paint2_linear)"/>
<path d="M19.8035 24.7113H12.7793V41.5352H19.8035V24.7113Z" fill="#EC144D"/>
<path d="M28.8653 4.12161C27.6709 4.12161 17.8214 3.97506 16.9755 4.12161C16.1296 4.26816 12.5972 5.64055 12.5972 5.64055L12 4.84746C12 4.84746 15.0841 3.23886 16.4781 2.99403C17.8722 2.74921 23.4712 2.99403 24.5255 2.99403C25.5815 2.99403 27.2225 2.35784 27.4712 2.21129C27.7199 2.06474 28.7147 1.81991 28.8635 2.21129C29.0141 2.60266 28.8653 4.12161 28.8653 4.12161Z" fill="#A4A4A4"/>
<path d="M12.7793 44.2524V24.2199C12.7793 24.1371 12.7828 24.0578 12.7863 23.975C12.9054 21.1716 15.0578 18.4648 18.0035 17.6079C19.2785 17.2407 20.4414 16.532 20.4414 15.4545C21.4361 15.4545 24.9107 15.4545 24.9107 15.4545C24.9107 15.4545 28.3854 15.4545 29.3801 15.4545C29.3801 16.532 30.5448 17.2407 31.818 17.6079L12.7793 44.2524Z" fill="url(#paint3_linear)"/>
<path d="M45.5346 41.5867V47.3297C45.5346 47.7125 43.5643 47.9331 41.3174 47.9883C39.0687 48.0383 36.5468 47.928 35.4539 47.6487C35.0984 47.559 34.8953 47.4521 34.8953 47.3297V41.5867H45.5346Z" fill="#BFBFBF"/>
<path opacity="0.1" d="M41.3174 47.1418C39.0687 47.1918 36.5468 47.0797 35.4539 46.8021C35.0984 46.7107 34.8953 46.6056 34.8953 46.4832V47.3297C34.8953 47.4538 35.0984 47.559 35.4539 47.6487C36.5468 47.928 39.0704 48.0383 41.3174 47.9883C43.5643 47.9331 45.5346 47.7125 45.5346 47.3297V46.4832C45.5346 46.8659 43.5626 47.0866 41.3174 47.1418Z" fill="black"/>
<path d="M50.2753 4.15271H30.156V6.86819H50.2753V4.15271Z" fill="#FF4874"/>
<path d="M30.522 4.15271H30.156V6.86819H30.522V4.15271Z" fill="#EB124B"/>
<path d="M31.7566 4.15271H31.2593V6.86819H31.7566V4.15271Z" fill="#EB124B"/>
<path d="M32.993 4.15271H32.4939V6.86819H32.993V4.15271Z" fill="#EB124B"/>
<path d="M34.2279 4.15271H33.7288V6.86819H34.2279V4.15271Z" fill="#EB124B"/>
<path d="M35.4625 4.15271H34.9634V6.86819H35.4625V4.15271Z" fill="#EB124B"/>
<path d="M36.6971 4.15271H36.198V6.86819H36.6971V4.15271Z" fill="#EB124B"/>
<path d="M37.93 4.15271H37.4326V6.86819H37.93V4.15271Z" fill="#EB124B"/>
<path d="M39.1649 4.15271H38.6675V6.86819H39.1649V4.15271Z" fill="#EB124B"/>
<path d="M40.3995 4.15271H39.9021V6.86819H40.3995V4.15271Z" fill="#EB124B"/>
<path d="M41.6341 4.15271H41.1367V6.86819H41.6341V4.15271Z" fill="#EB124B"/>
<path d="M42.8688 4.15271H42.3696V6.86819H42.8688V4.15271Z" fill="#EB124B"/>
<path d="M44.1053 4.15271H43.6062V6.86819H44.1053V4.15271Z" fill="#EB124B"/>
<path d="M45.3399 4.15271H44.8408V6.86819H45.3399V4.15271Z" fill="#EB124B"/>
<path d="M46.5746 4.15271H46.0754V6.86819H46.5746V4.15271Z" fill="#EB124B"/>
<path d="M47.8077 4.15271H47.3103V6.86819H47.8077V4.15271Z" fill="#EB124B"/>
<path d="M49.0406 4.15271H48.5432V6.86819H49.0406V4.15271Z" fill="#EB124B"/>
<path d="M50.2752 4.15271H49.7778V6.86819H50.2752V4.15271Z" fill="#EB124B"/>
<path d="M36.1859 46.6588C35.953 46.6415 35.7656 46.4432 35.7656 46.2157C35.7656 45.0088 35.7656 43.8036 35.7656 42.595C35.7656 42.3674 35.953 42.1985 36.1859 42.214C36.4171 42.2295 36.6045 42.4278 36.6045 42.6554C36.6045 43.8623 36.6045 45.0674 36.6045 46.2726C36.6045 46.5036 36.4171 46.676 36.1859 46.6588Z" fill="#9E9E9E"/>
<path d="M37.7953 46.7505C37.5624 46.7419 37.375 46.547 37.375 46.3195C37.375 45.1126 37.375 43.9057 37.375 42.6988C37.375 42.473 37.5624 42.2971 37.7953 42.3057C38.0282 42.3161 38.2156 42.5074 38.2156 42.735C38.2156 43.9402 38.2156 45.1471 38.2156 46.3539C38.2156 46.5815 38.0265 46.7608 37.7953 46.7505Z" fill="#9E9E9E"/>
<path d="M39.4066 46.7937C39.1737 46.7919 38.9863 46.6023 38.9863 46.3747C38.9863 45.1678 38.9863 43.9626 38.9863 42.7558C38.9863 42.5282 39.1737 42.3489 39.4066 42.3506C39.6378 42.354 39.827 42.5402 39.827 42.7661C39.827 43.973 39.827 45.1799 39.827 46.3868C39.827 46.6143 39.6378 46.7988 39.4066 46.7937Z" fill="#9E9E9E"/>
<path d="M41.0179 46.7936C40.7868 46.797 40.5994 46.6143 40.5994 46.3867C40.5994 45.1798 40.5994 43.9729 40.5994 42.766C40.5994 42.5384 40.7868 42.354 41.0179 42.3505C41.2491 42.3471 41.4365 42.5281 41.4365 42.7557C41.4365 43.9626 41.4365 45.1677 41.4365 46.3746C41.4365 46.6039 41.2491 46.7919 41.0179 46.7936Z" fill="#9E9E9E"/>
<path d="M42.6291 46.7505C42.3961 46.7608 42.2087 46.5815 42.2087 46.3539C42.2087 45.1471 42.2087 43.9402 42.2087 42.735C42.2087 42.5057 42.3961 42.3143 42.6291 42.3057C42.8585 42.2971 43.0459 42.473 43.0459 42.6988C43.0459 43.9057 43.0459 45.1126 43.0459 46.3195C43.0459 46.5453 42.8602 46.7401 42.6291 46.7505Z" fill="#9E9E9E"/>
<path d="M44.2386 46.6592C44.0075 46.6747 43.8201 46.5023 43.8201 46.2729C43.8201 45.0678 43.8201 43.8609 43.8201 42.6557C43.8201 42.4282 44.0075 42.2316 44.2386 42.2144C44.4698 42.1989 44.6555 42.3678 44.6555 42.5954C44.6555 43.8023 44.6555 45.0092 44.6555 46.2161C44.6555 46.4436 44.4698 46.6436 44.2386 46.6592Z" fill="#9E9E9E"/>
<g opacity="0.1">
<path opacity="0.1" d="M37.5624 46.509C37.5624 45.3038 37.5624 44.097 37.5624 42.8901C37.5624 42.6642 37.7498 42.4884 37.9793 42.4953C38.0458 42.4987 38.1088 42.5177 38.1666 42.5487C38.0983 42.4108 37.9582 42.3125 37.7936 42.3056C37.5607 42.297 37.3733 42.4728 37.3733 42.6987C37.3733 43.9056 37.3733 45.1125 37.3733 46.3193C37.3733 46.4814 37.4696 46.6228 37.608 46.6986C37.5799 46.6383 37.5624 46.578 37.5624 46.509Z" fill="black"/>
<path opacity="0.1" d="M39.172 46.5625C39.172 45.3557 39.172 44.1488 39.172 42.9419C39.172 42.7143 39.3611 42.5333 39.5923 42.535C39.6606 42.5367 39.7219 42.554 39.7797 42.5815C39.7096 42.4471 39.5713 42.354 39.4066 42.3505C39.1737 42.3471 38.9863 42.5281 38.9863 42.7557C38.9863 43.9626 38.9863 45.1677 38.9863 46.3746C38.9863 46.5349 39.0809 46.6763 39.2193 46.7453C39.1912 46.6918 39.172 46.6298 39.172 46.5625Z" fill="black"/>
<path opacity="0.1" d="M35.953 46.4139C35.953 45.2071 35.953 44.0002 35.953 42.7933C35.953 42.5657 36.1404 42.395 36.3716 42.4106C36.4381 42.414 36.5012 42.4364 36.559 42.4674C36.4889 42.3278 36.3488 42.2261 36.1859 42.214C35.953 42.1985 35.7656 42.3674 35.7656 42.595C35.7656 43.8019 35.7656 45.0088 35.7656 46.2157C35.7656 46.376 35.8619 46.5226 35.9986 46.6002C35.9705 46.5433 35.953 46.4795 35.953 46.4139Z" fill="black"/>
<path opacity="0.1" d="M44.0057 46.4452C44.0057 45.2384 44.0057 44.0315 44.0057 42.8246C44.0057 42.597 44.1931 42.4005 44.4243 42.3832C44.4908 42.3781 44.5539 42.3901 44.6117 42.4143C44.5416 42.285 44.4015 42.2022 44.2386 42.2125C44.0075 42.2281 43.8201 42.4263 43.8201 42.6539C43.8201 43.8608 43.8201 45.066 43.8201 46.2711C43.8201 46.4332 43.9146 46.5642 44.0512 46.6245C44.0232 46.5728 44.0057 46.5125 44.0057 46.4452Z" fill="black"/>
<path opacity="0.1" d="M42.3944 46.5298C42.3944 45.3229 42.3944 44.116 42.3944 42.9091C42.3944 42.6815 42.5836 42.4902 42.813 42.4815C42.8795 42.4781 42.9443 42.4919 43.0004 42.516C42.9303 42.385 42.7902 42.2988 42.6274 42.3057C42.3944 42.316 42.207 42.5074 42.207 42.735C42.207 43.9401 42.207 45.147 42.207 46.3539C42.207 46.5142 42.3034 46.6504 42.44 46.7125C42.4137 46.6573 42.3944 46.597 42.3944 46.5298Z" fill="black"/>
<path opacity="0.1" d="M40.7851 46.5677C40.7851 45.3608 40.7851 44.1556 40.7851 42.9505C40.7851 42.7212 40.9724 42.535 41.2036 42.5315C41.2719 42.5315 41.335 42.547 41.3893 42.5729C41.321 42.4401 41.1809 42.3505 41.0162 42.3522C40.785 42.3556 40.5977 42.5419 40.5977 42.7677C40.5977 43.9746 40.5977 45.1815 40.5977 46.3884C40.5977 46.5504 40.6922 46.6884 40.8288 46.7539C40.8026 46.697 40.7851 46.6349 40.7851 46.5677Z" fill="black"/>
</g>
<path d="M50.2771 6.86475L46.7307 39.6419L46.6676 40.2143L45.538 41.5781L45.531 41.5867H34.8917L33.7638 40.2143L33.7008 39.6419L30.1526 6.86475H50.2771Z" fill="url(#paint4_linear)"/>
<path d="M27.7611 8.59797L22.6951 4.11487H27.7611V8.59797Z" fill="url(#paint5_linear)"/>
</g>
<defs>
<linearGradient id="paint0_linear" x1="22.1328" y1="6.35645" x2="27.7626" y2="6.35645" gradientUnits="userSpaceOnUse">
<stop stop-color="#D2D2D2"/>
<stop offset="1" stop-color="#9E9E9E"/>
</linearGradient>
<linearGradient id="paint1_linear" x1="20.333" y1="12.4907" x2="29.4871" y2="12.4907" gradientUnits="userSpaceOnUse">
<stop stop-color="#D2D2D2"/>
<stop offset="1" stop-color="#9E9E9E"/>
</linearGradient>
<linearGradient id="paint2_linear" x1="16.2409" y1="27.7844" x2="37.5544" y2="39.2011" gradientUnits="userSpaceOnUse">
<stop offset="0.1134" stop-color="#FF99D2"/>
<stop offset="1" stop-color="#FF42B1"/>
</linearGradient>
<linearGradient id="paint3_linear" x1="15.3773" y1="22.0472" x2="24.3078" y2="27.7695" gradientUnits="userSpaceOnUse">
<stop offset="0.1134" stop-color="white" stop-opacity="0.62"/>
<stop offset="1" stop-color="white" stop-opacity="0"/>
</linearGradient>
<linearGradient id="paint4_linear" x1="36.2047" y1="21.4868" x2="47.4013" y2="35.5453" gradientUnits="userSpaceOnUse">
<stop stop-color="#FF4874"/>
<stop offset="1" stop-color="#EB124B"/>
</linearGradient>
<linearGradient id="paint5_linear" x1="22.1329" y1="6.35649" x2="27.7608" y2="6.35649" gradientUnits="userSpaceOnUse">
<stop stop-color="#A8A7A7"/>
</linearGradient>
<clipPath id="clip0">
<rect width="50" height="50" fill="white"/>
</clipPath>
</defs>
</svg>
