<svg width="50" height="50" viewBox="0 0 50 50" fill="none" xmlns="http://www.w3.org/2000/svg">
<path d="M49.9987 6.0111L38.8783 3.11753C37.0116 2.62884 35.092 3.70911 34.6022 5.52241L30.0481 22.0222L32.0736 22.5494L36.5483 6.30689C36.7866 5.44525 37.7 4.93083 38.587 5.16232L49.4427 7.97872L49.9987 6.0111Z" fill="#E1DFDE"/>
<path d="M49.5487 7.6315L49.6017 7.4386L38.6666 4.58362C37.5016 4.27497 36.2968 4.95656 35.9791 6.08827L31.4912 22.3951L31.6898 22.4466L36.1777 6.15257C36.3101 5.65102 36.641 5.23949 37.1044 4.98228C37.5677 4.72508 38.0973 4.66078 38.6136 4.78938L49.5487 7.6315Z" fill="#DB0015"/>
<path d="M38.865 3.68347L49.853 6.53846L49.906 6.34555L38.9179 3.49057C37.1704 3.0276 35.3567 4.05642 34.8934 5.75398L30.4187 21.9965L30.6173 22.048L35.0919 5.79256C35.5288 4.19788 37.2234 3.24622 38.865 3.68347Z" fill="#DB0015"/>
<path d="M38.7591 4.22353L49.7074 7.06566L49.7604 6.87275L38.812 4.03063C37.3161 3.63196 35.7671 4.50646 35.3567 5.97253L30.8821 22.2279L31.0807 22.2794L35.5686 6.01111C35.9392 4.66078 37.369 3.86344 38.7591 4.22353Z" fill="#DB0015"/>
<path d="M42.7571 46.5854C42.7571 46.5854 41.0096 48 33.7946 48C26.5795 48 24.832 46.4568 24.832 46.4568L21.2576 16.5309H46.3316L42.7571 46.5854Z" fill="url(#paint0_linear)"/>
<path d="M45.8286 14.5118H21.7739L22.4359 10.6537C22.4359 10.6537 26.3545 10.1393 33.7946 10.1393C41.2347 10.1393 45.1534 10.6537 45.1534 10.6537L45.8286 14.5118Z" fill="url(#paint1_linear)"/>
<path d="M47.5893 16.698H20L20.7546 14.0102C20.7546 14.0102 25.2425 13.6501 33.7947 13.6501C42.3468 13.6501 46.8347 14.0102 46.8347 14.0102L47.5893 16.698Z" fill="url(#paint2_linear)"/>
<defs>
<linearGradient id="paint0_linear" x1="23.5292" y1="22.854" x2="41.1755" y2="36.9711" gradientUnits="userSpaceOnUse">
<stop offset="0.0195584" stop-color="#FF0018"/>
<stop offset="0.515625" stop-color="#DB0015"/>
<stop offset="1" stop-color="#AA0010"/>
</linearGradient>
<linearGradient id="paint1_linear" x1="27.9408" y1="11.3838" x2="40.7344" y2="14.4719" gradientUnits="userSpaceOnUse">
<stop stop-color="#F0F0F0"/>
<stop offset="1" stop-color="#C6C6C6"/>
</linearGradient>
<linearGradient id="paint2_linear" x1="24.8527" y1="15.3543" x2="44.2637" y2="16.2366" gradientUnits="userSpaceOnUse">
<stop offset="0.170973" stop-color="#F1F1F1"/>
<stop offset="1" stop-color="#ACACAC"/>
</linearGradient>
</defs>
</svg>
