<svg width="50" height="50" viewBox="0 0 50 50" fill="none" xmlns="http://www.w3.org/2000/svg">
<path d="M35.276 12.8371C35.276 12.8371 37.7551 10.9402 42.3063 11.5422C46.8574 12.1441 50 17.2666 50 23.8122C50 30.9698 45.9097 37.4968 40.3347 37.4968C33.8312 37.4968 31.8579 33.5833 31.8579 33.5833L35.5099 31.3812C35.5099 31.3812 36.8733 33.8935 41.1369 33.8935C44.2535 33.8935 47.4811 29.3022 47.5244 24.3349C47.5677 19.3675 45.2168 14.0478 40.9324 14.0478C36.6481 14.0478 35.6589 19.3726 35.6589 19.3726L35.276 12.8371Z" fill="url(#paint0_linear)"/>
<path d="M5 40.8016C5 40.8016 6.33398 45.9999 20.8051 45.9999C35.2761 45.9999 36.5651 40.8016 36.5651 40.8016V7.67249H5V40.8016Z" fill="url(#paint1_linear)"/>
<path d="M36.5651 8.96768V7.67078H36.3052C36.3052 7.68089 36.2549 8.65716 31.9065 9.52046C28.9371 10.1089 24.9872 10.4343 20.7825 10.4343C16.5779 10.4343 12.6279 10.1106 9.65853 9.52046C5.31011 8.65885 5.25987 7.68089 5.25987 7.67246H5V8.96937C5.42965 9.50556 6.56613 10.1868 9.58577 10.787C12.5794 11.3789 16.5554 11.706 20.7825 11.706C25.0097 11.706 28.9856 11.3789 31.9793 10.7853C34.9989 10.1868 36.1371 9.50387 36.5651 8.96768Z" fill="url(#paint2_linear)"/>
<path d="M5 40.8015L36.5651 7.67249H5V40.8015Z" fill="url(#paint3_linear)" fill-opacity="0.5"/>
<path d="M20.7825 10.345C29.499 10.345 36.5651 9.14851 36.5651 7.67252C36.5651 6.19653 29.499 5 20.7825 5C12.0661 5 5 6.19653 5 7.67252C5 9.14851 12.0661 10.345 20.7825 10.345Z" fill="url(#paint4_linear)"/>
<defs>
<linearGradient id="paint0_linear" x1="34.4979" y1="24.4367" x2="50.1066" y2="24.5034" gradientUnits="userSpaceOnUse">
<stop stop-color="#2E5B44"/>
<stop offset="0.8234" stop-color="#88B19D"/>
</linearGradient>
<linearGradient id="paint1_linear" x1="7.79493" y1="18.2499" x2="36.9783" y2="34.0619" gradientUnits="userSpaceOnUse">
<stop offset="0.1134" stop-color="#AFE5B2"/>
<stop offset="1" stop-color="#7D9F92"/>
</linearGradient>
<linearGradient id="paint2_linear" x1="12.5299" y1="3.92777" x2="31.3596" y2="14.13" gradientUnits="userSpaceOnUse">
<stop offset="0.00558659" stop-color="#D6F1D8"/>
<stop offset="1" stop-color="#6D9781"/>
</linearGradient>
<linearGradient id="paint3_linear" x1="7.64707" y1="12.2741" x2="20.8749" y2="22.8641" gradientUnits="userSpaceOnUse">
<stop stop-color="white"/>
<stop offset="0.911458" stop-color="white" stop-opacity="0"/>
</linearGradient>
<linearGradient id="paint4_linear" x1="12.6482" y1="3.49687" x2="31.3141" y2="13.6103" gradientUnits="userSpaceOnUse">
<stop stop-color="#6D9781"/>
<stop offset="1" stop-color="#8AB29F"/>
</linearGradient>
</defs>
</svg>
