<svg width="50" height="50" viewBox="0 0 50 50" fill="none" xmlns="http://www.w3.org/2000/svg">
<path d="M49.7213 13.3083H20.8292C20.1759 18.267 20.4185 44.5087 25.8125 47.2387H44.738C50.132 44.5272 50.3746 18.2855 49.7213 13.3083Z" fill="#D7F0FF"/>
<path d="M25.3854 42.7631H45.5241C46.2893 40.3673 46.9985 36.5602 47.4465 31.0072C47.7078 27.7758 47.8384 24.4143 47.8758 21.4614H23.0337C23.071 24.4143 23.2017 27.7758 23.463 31.0072C23.9109 36.5602 24.6201 40.3673 25.3854 42.7631Z" fill="#720067"/>
<path d="M36.484 31.0876C36.484 32.9361 34.9596 34.4701 33.1055 34.4701C31.2515 34.4701 29.7271 32.9755 29.7271 31.0876C29.7271 29.239 31.2515 27.7051 33.1055 27.7051C34.9596 27.7444 36.484 29.239 36.484 31.0876Z" fill="#FF00DB"/>
<path d="M41.8911 37.1763C41.8911 39.3946 40.0617 41.2353 37.8369 41.2353C35.612 41.2353 33.7827 39.4418 33.7827 37.1763C33.7827 34.958 35.612 33.1173 37.8369 33.1173C40.1112 33.1173 41.8911 34.958 41.8911 37.1763Z" fill="#49003A"/>
<path d="M33.782 26.3519C33.782 27.8358 32.591 29.0579 31.0792 29.0579C29.5675 29.0579 28.3765 27.8358 28.3765 26.3519C28.3765 24.8679 29.5675 23.6459 31.0792 23.6459C32.5452 23.6459 33.782 24.8243 33.782 26.3519Z" fill="#49003A"/>
<path d="M40.9685 28.3699C40.9685 28.8899 40.5766 29.2984 40.0726 29.2984C39.5874 29.2984 39.1768 28.8899 39.1768 28.3699C39.1768 27.8499 39.5687 27.4413 40.0726 27.4413C40.5579 27.4413 40.9685 27.8499 40.9685 28.3699Z" fill="#49003A"/>
<path d="M31.0805 28.3815C31.0805 29.5181 30.1937 30.411 29.0535 30.411C27.9554 30.411 27.0264 29.5181 27.0264 28.3815C27.0264 27.245 27.9132 26.3521 29.0535 26.3521C30.1937 26.3521 31.0805 27.2856 31.0805 28.3815Z" fill="#990087"/>
<path d="M45.9467 27.7049C45.9467 29.9308 44.1601 31.7639 41.8925 31.7639C39.625 31.7639 37.8384 29.9308 37.8384 27.7049C37.8384 25.479 39.625 23.6459 41.8925 23.6459C44.0914 23.7113 45.9467 25.479 45.9467 27.7049Z" fill="#FF00DB"/>
<path opacity="0.5" d="M33.4834 21.443C33.7634 24.7859 37.1416 28.8159 40.4078 26.2902C41.901 25.1387 42.0503 23.263 41.7517 21.443H33.4834Z" fill="#FF00DB"/>
<path opacity="0.5" d="M37.623 36.5403C41.1445 39.8502 44.9181 34.9134 43.5146 31.4145C42.2534 28.2704 36.6632 25.4885 34.5826 29.3732C33.6197 31.1651 34.5334 33.0358 35.7777 34.6129C36.3799 35.3238 37.0434 35.9781 37.623 36.5403Z" fill="#FF00DB"/>
<path opacity="0.3" d="M36.3555 22.8353C34.0412 19.3624 29.6924 23.0953 30.159 26.3825C30.5696 29.3354 34.8064 32.6783 37.438 29.6139C38.6512 28.2025 38.2779 26.4011 37.5314 24.841C37.1767 24.0982 36.7475 23.4296 36.3555 22.8353Z" fill="#FF00DB"/>
<path d="M31.7445 21.443C31.9125 22.1487 32.5097 22.6687 33.219 22.6687C33.9282 22.6687 34.5441 22.1487 34.6935 21.443H31.7445Z" fill="#990087"/>
<path d="M33.7833 36.4998C33.7833 38.3602 32.3144 39.8823 30.4048 39.8823C28.5687 39.8823 27.0264 38.3602 27.0264 36.4998C27.0264 34.6394 28.4953 33.1173 30.4048 33.1173C32.241 33.1173 33.7833 34.6394 33.7833 36.4998Z" fill="#990087"/>
<path opacity="0.2" d="M45.4086 39.5867L42.9262 41.221L29.6187 21.3679H33.1835L45.4086 39.5867Z" fill="#FFB600"/>
<path opacity="0.6" d="M33.1834 21.3677L27.9761 13.5862H24.3926L29.6186 21.3677H33.1834Z" fill="#FFB600"/>
<path d="M49.9997 12.8439C49.9997 13.2525 49.7571 13.5868 49.4585 13.5868H21.0515C20.7529 13.5868 20.5103 13.2525 20.5103 12.8439C20.5103 12.4354 20.7529 12.1011 21.0515 12.1011H49.4585C49.7571 12.1011 49.9997 12.4354 49.9997 12.8439Z" fill="#CDEAF9"/>
<path d="M46.0275 47.2572C46.0275 47.6657 45.6356 48 45.1503 48H25.5716C25.0863 48 24.6943 47.6657 24.6943 47.2572C24.6943 46.8486 25.0863 46.5143 25.5716 46.5143H45.169C45.6356 46.4957 46.0275 46.83 46.0275 47.2572Z" fill="#CDEAF9"/>
<path d="M26.9698 12.1019L21.5012 3.96754C20.1387 1.94324 17.3764 1.38609 15.342 2.74182L0 12.9191L1.66111 15.3705L16.9471 5.23041C17.6563 4.76612 18.6082 4.95184 19.0935 5.65756L23.4236 12.1019H26.9698Z" fill="#FFB600"/>
<path d="M49.7213 13.3083H20.8292C20.1759 18.267 20.4185 44.5087 25.8125 47.2387H44.738C50.132 44.5272 50.3746 18.2855 49.7213 13.3083Z" fill="url(#paint0_linear)"/>
<defs>
<linearGradient id="paint0_linear" x1="20.2707" y1="17.5577" x2="50.0124" y2="30.3854" gradientUnits="userSpaceOnUse">
<stop offset="0.0625" stop-color="white" stop-opacity="0"/>
<stop offset="0.208333" stop-color="white" stop-opacity="0.65"/>
<stop offset="0.322917" stop-color="white" stop-opacity="0"/>
<stop offset="0.526042" stop-color="white" stop-opacity="0"/>
<stop offset="0.802083" stop-color="white" stop-opacity="0.49"/>
</linearGradient>
</defs>
</svg>
