<svg width="50" height="50" viewBox="0 0 50 50" fill="none" xmlns="http://www.w3.org/2000/svg">
<g clip-path="url(#clip0)">
<path d="M11.3948 35.5851V15.8255C11.3948 15.0468 12.2456 14.5669 12.912 14.9697L29.8594 25.213C30.159 25.3941 30.3421 25.7187 30.3421 26.0688V46.1942C30.3421 46.98 29.4776 47.4587 28.8115 47.0418L11.8642 36.4327C11.5721 36.2499 11.3948 35.9296 11.3948 35.5851Z" fill="#C4C4C4"/>
<path d="M49.2896 35.5851V15.8255C49.2896 15.0468 48.4387 14.5669 47.7723 14.9697L30.8249 25.213C30.5253 25.3941 30.3422 25.7187 30.3422 26.0688V46.1942C30.3422 46.98 31.2068 47.4587 31.8728 47.0418L48.8202 36.4327C49.1122 36.2499 49.2896 35.9296 49.2896 35.5851Z" fill="#EBE9E9"/>
<path d="M30.4568 3.26551L12.5335 13.0173C11.8547 13.3867 11.8335 14.3536 12.4956 14.7523L29.8314 25.1924C30.146 25.3819 30.5392 25.3837 30.8555 25.197L48.5905 14.7301C49.2528 14.3393 49.2445 13.3784 48.5756 12.9991L31.4281 3.27407C31.1275 3.10362 30.7603 3.10039 30.4568 3.26551Z" fill="white"/>
<circle cx="30.3421" cy="14.0526" r="2.36842" fill="url(#paint0_linear)"/>
<circle cx="15.9737" cy="32.9737" r="1.97368" fill="#3B4449"/>
<circle cx="25.9737" cy="28.9737" r="1.97368" fill="#3B4449"/>
<circle cx="34.8948" cy="28.8685" r="1.97368" fill="#3B4449"/>
<circle cx="34.9737" cy="39.9737" r="1.97368" fill="#3B4449"/>
<circle cx="39.9737" cy="30.9737" r="1.97368" fill="#3B4449"/>
<circle cx="44.9737" cy="21.9737" r="1.97368" fill="#3B4449"/>
<circle cx="44.9737" cy="32.9737" r="1.97368" fill="#3B4449"/>
</g>
<defs>
<linearGradient id="paint0_linear" x1="30.3421" y1="11.6842" x2="30.3421" y2="16.421" gradientUnits="userSpaceOnUse">
<stop stop-color="#E85757"/>
<stop offset="1" stop-color="#AA0010"/>
</linearGradient>
<clipPath id="clip0">
<rect width="46.9149" height="45" fill="white" transform="translate(3 3)"/>
</clipPath>
</defs>
</svg>
