<svg width="50" height="36" viewBox="0 0 50 36" fill="none" xmlns="http://www.w3.org/2000/svg">
<path d="M6.06801 14.6502C6.09272 14.7628 6.11811 14.8751 6.14497 14.987C6.15948 15.0472 6.17448 15.1072 6.18958 15.1672C6.21634 15.2732 6.24419 15.3789 6.27291 15.4843C6.28899 15.5432 6.30487 15.6022 6.32154 15.6608C6.35399 15.7751 6.38801 15.8888 6.42272 16.0023C6.43713 16.0494 6.45076 16.0967 6.46556 16.1435C6.51527 16.3014 6.56703 16.4585 6.62105 16.6149C6.63321 16.65 6.64625 16.6846 6.6586 16.7197C6.70164 16.8419 6.74566 16.9638 6.79134 17.0851C6.8133 17.1434 6.83615 17.2014 6.8587 17.2595C6.89674 17.3575 6.93526 17.4553 6.97487 17.5527C7.00036 17.6154 7.02624 17.678 7.05252 17.7404C7.09193 17.8345 7.13242 17.9283 7.1733 18.0218C7.20007 18.0829 7.22654 18.1441 7.25389 18.205C7.30026 18.308 7.34801 18.4105 7.39605 18.5129C7.41918 18.5621 7.44154 18.6117 7.46507 18.6607C7.53418 18.8048 7.60516 18.9481 7.67762 19.0907C7.70811 19.1506 7.73967 19.21 7.77075 19.2697C7.81624 19.3572 7.86193 19.4447 7.90869 19.5317C7.94565 19.6005 7.9834 19.669 8.02124 19.7374C8.06369 19.8145 8.10654 19.8913 8.14997 19.9679C8.19036 20.0391 8.23095 20.1102 8.27212 20.181C8.31457 20.254 8.35771 20.3266 8.40095 20.3992C8.44379 20.4712 8.48644 20.5432 8.53006 20.6146C8.57291 20.6848 8.61673 20.7543 8.66036 20.8241C8.74987 20.9673 8.84085 21.1097 8.9334 21.2513C8.96938 21.3063 9.00487 21.3617 9.04134 21.4165C9.09653 21.4995 9.15281 21.5817 9.20889 21.6641C9.24545 21.7177 9.28193 21.7715 9.31889 21.8248C9.37692 21.9085 9.43565 21.9919 9.49467 22.0749C9.52967 22.1242 9.56477 22.1733 9.60006 22.2223C9.66251 22.3089 9.72516 22.3953 9.78859 22.4813C9.81722 22.52 9.84614 22.5584 9.87496 22.597C10.1243 22.931 10.3809 23.2601 10.6448 23.5835C10.6458 23.5847 10.6469 23.5861 10.648 23.5874C10.7327 23.6912 10.8185 23.7943 10.9046 23.8971L10.956 23.9585C11.0413 24.0598 11.1273 24.1605 11.2139 24.2607L11.2562 24.3095C11.8429 24.9855 12.457 25.6367 13.0894 26.2619L13.1051 26.2776C17.979 31.0909 23.92 34.3684 26.5312 35.6816C27.3752 36.1061 28.3665 36.1061 29.2105 35.6816C31.049 34.757 34.5387 32.8582 38.1441 30.1357L22.4019 14.3152C21.4011 13.2071 20.0138 12.4724 18.3899 12.3929C15.6701 12.2597 13.3226 13.9365 12.4319 16.3281L10.4901 14.3874C9.33271 13.1011 7.63556 12.3146 5.75684 12.3917C5.76272 12.5144 5.77086 12.6373 5.78037 12.7603C5.78311 12.7959 5.78654 12.8314 5.78958 12.867C5.79713 12.9549 5.80546 13.0428 5.81487 13.1308C5.81929 13.1724 5.82399 13.2141 5.82889 13.2557C5.83899 13.3421 5.85017 13.4286 5.86213 13.515C5.86733 13.5528 5.87223 13.5907 5.87782 13.6285C5.89586 13.7511 5.91517 13.8736 5.93693 13.9963C5.96635 14.1624 5.99899 14.3276 6.0334 14.4923C6.04438 14.5452 6.05654 14.5976 6.06801 14.6502Z" fill="url(#paint0_linear)"/>
<path d="M39.5169 0.0136087C33.2217 -0.294676 28.0074 4.67433 27.8738 10.9008C27.8735 10.9144 27.8688 10.9144 27.8686 10.9008C27.7349 4.67433 22.5206 -0.294577 16.2255 0.0136087C9.31156 0.352239 4.72284 7.14809 5.93686 13.9965C7.97882 25.5147 22.0847 33.4453 26.5315 35.6817C27.3755 36.1061 28.3668 36.1061 29.2108 35.6817C33.6577 33.4453 47.7635 25.5147 49.8054 13.9965C51.0195 7.14809 46.4307 0.352239 39.5169 0.0136087Z" fill="url(#paint1_radial)"/>
<path d="M18.3898 12.393C14.9622 12.2252 12.1231 14.9307 12.0503 18.3209C12.0502 18.3283 12.0475 18.3283 12.0474 18.3209C11.9747 14.9306 9.13557 12.2252 5.70794 12.393C1.94344 12.5774 -0.55499 16.2776 0.105988 20.0064C1.21775 26.2778 8.89812 30.5959 11.3194 31.8136C11.7789 32.0447 12.3187 32.0447 12.7782 31.8136C15.1995 30.5959 22.8799 26.2778 23.9916 20.0064C24.6527 16.2776 22.1543 12.5774 18.3898 12.393Z" fill="url(#paint2_linear)"/>
<defs>
<linearGradient id="paint0_linear" x1="29.1465" y1="32.1107" x2="17.2145" y2="19.14" gradientUnits="userSpaceOnUse">
<stop stop-color="#E4003D" stop-opacity="0"/>
<stop offset="1" stop-color="#E4003D"/>
</linearGradient>
<radialGradient id="paint1_radial" cx="0" cy="0" r="1" gradientUnits="userSpaceOnUse" gradientTransform="translate(23.6492 9.87348) scale(24.336 24.4566)">
<stop stop-color="#FF4974"/>
<stop offset="0.4497" stop-color="#FE4773"/>
<stop offset="0.6292" stop-color="#FC406D"/>
<stop offset="0.7605" stop-color="#F73464"/>
<stop offset="0.8683" stop-color="#F12257"/>
<stop offset="0.9606" stop-color="#E80C46"/>
<stop offset="1" stop-color="#E4003D"/>
</radialGradient>
<linearGradient id="paint2_linear" x1="6.77783" y1="12.8966" x2="18.0125" y2="26.172" gradientUnits="userSpaceOnUse">
<stop stop-color="#FF90A4"/>
<stop offset="0.1758" stop-color="#F77F94"/>
<stop offset="0.4446" stop-color="#E45E76"/>
<stop offset="0.7709" stop-color="#CF3E58"/>
<stop offset="1" stop-color="#E84865"/>
</linearGradient>
</defs>
</svg>
