<svg width="50" height="50" viewBox="0 0 50 50" fill="none" xmlns="http://www.w3.org/2000/svg">
<g clip-path="url(#clip0)">
<g clip-path="url(#clip1)">
<path fill-rule="evenodd" clip-rule="evenodd" d="M42.6642 6.93645L42.6642 6.9364C44.1486 10.9067 44.4628 15.7208 43.2673 20.6194C42.0729 25.5154 38.0212 36.0251 34.873 38.8839L34.8646 38.8933L34.8646 38.8933C33.3802 34.923 34.6262 23.719 35.8217 18.8186C37.0172 13.9165 39.5147 9.78422 42.6642 6.93645Z" fill="url(#paint0_linear)"/>
<path fill-rule="evenodd" clip-rule="evenodd" d="M34.1856 2.93555C31.8018 6.44354 30.3535 11.0453 30.3535 16.0896C30.3535 21.1339 31.8018 32.3145 34.1856 35.8225L34.1856 36.9883C36.5694 33.4803 38.0177 21.1339 38.0177 16.0896C38.0177 11.0453 36.5712 6.44354 34.1856 2.93555Z" fill="url(#paint1_linear)"/>
<path fill-rule="evenodd" clip-rule="evenodd" d="M26.3373 10.2573H26.3373C24.8528 14.2277 24.5386 19.0417 25.7341 23.9403C26.9296 28.8407 30.9874 39.3647 34.1368 42.2124C35.6213 38.2421 34.3752 27.0381 33.1798 22.1377C31.9843 17.2391 29.4867 13.1051 26.3373 10.2573Z" fill="url(#paint2_linear)"/>
<path fill-rule="evenodd" clip-rule="evenodd" d="M26.6569 11.5688C29.1995 14.4148 31.3052 18.448 32.4519 23.1487C33.5986 27.8476 35.083 38.5226 34.1368 42.2141L34.1368 42.2142C34.1368 42.2142 34.1368 42.2142 34.1368 42.2142C34.1368 42.2142 34.1368 42.2142 34.1368 42.2142L34.1368 42.2141C31.5941 39.3681 27.9932 29.2058 26.8447 24.5069C25.6961 19.808 25.7106 15.2603 26.6568 11.5688L26.6568 11.5687C26.6568 11.5687 26.6568 11.5687 26.6569 11.5688C26.6569 11.5687 26.6569 11.5687 26.6569 11.5687L26.6569 11.5688Z" fill="url(#paint3_linear)"/>
<path fill-rule="evenodd" clip-rule="evenodd" d="M34.5769 48H26.9909C22.2253 45.38 19 40.3606 19 34.6044C19 31.162 20.1498 27.4775 22.0951 24.3164H34.5769H47.0551C49.0004 27.4775 50.1502 31.162 50.1502 34.6044C50.1502 40.3606 46.9285 45.3764 42.1593 48.0001V48.0036H34.5769V48Z" fill="url(#paint4_linear)"/>
<path fill-rule="evenodd" clip-rule="evenodd" d="M34.577 31.8562H19.2351C19.4991 30.2436 19.9908 28.6203 20.667 27.0575H34.577L34.5811 27.0611H48.487C49.1632 28.6203 49.6549 30.2436 49.9189 31.8562L34.577 31.8562Z" fill="url(#paint5_linear)"/>
</g>
</g>
<defs>
<linearGradient id="paint0_linear" x1="39.0935" y1="6.9364" x2="39.0935" y2="38.8933" gradientUnits="userSpaceOnUse">
<stop offset="0.00520833" stop-color="#88AB33"/>
<stop offset="0.338377" stop-color="#607C1C"/>
<stop offset="1" stop-color="#41570B"/>
</linearGradient>
<linearGradient id="paint1_linear" x1="34.1856" y1="2.93555" x2="34.1856" y2="36.9883" gradientUnits="userSpaceOnUse">
<stop stop-color="#D0DF78"/>
<stop offset="0.567191" stop-color="#607C1C"/>
</linearGradient>
<linearGradient id="paint2_linear" x1="29.9079" y1="10.2573" x2="30" y2="27.4999" gradientUnits="userSpaceOnUse">
<stop stop-color="#ABBC46"/>
<stop offset="1" stop-color="#607C1C"/>
</linearGradient>
<linearGradient id="paint3_linear" x1="30.2009" y1="11.5687" x2="29.9999" y2="26.9999" gradientUnits="userSpaceOnUse">
<stop stop-color="#ABBC46"/>
<stop offset="1" stop-color="#607C1C"/>
</linearGradient>
<linearGradient id="paint4_linear" x1="50.1538" y1="39.7789" x2="20.2981" y2="39.7789" gradientUnits="userSpaceOnUse">
<stop stop-color="#BA3A12"/>
<stop offset="0.286458" stop-color="#F7825D"/>
<stop offset="0.703125" stop-color="#CF532B"/>
<stop offset="1" stop-color="#B13007"/>
</linearGradient>
<linearGradient id="paint5_linear" x1="49.2885" y1="31.1251" x2="17.702" y2="31.1251" gradientUnits="userSpaceOnUse">
<stop stop-color="#FE9C00"/>
<stop offset="0.261986" stop-color="#F6F37D"/>
<stop offset="0.583904" stop-color="#FCD100"/>
<stop offset="0.938356" stop-color="#FDB300"/>
</linearGradient>
<clipPath id="clip0">
<rect width="50" height="50" fill="white"/>
</clipPath>
<clipPath id="clip1">
<rect width="31.1538" height="45" fill="white" transform="translate(19 3)"/>
</clipPath>
</defs>
</svg>
