<svg width="50" height="50" viewBox="0 0 50 50" fill="none" xmlns="http://www.w3.org/2000/svg">
<g clip-path="url(#clip0)">
<g clip-path="url(#clip1)">
<path d="M34.7107 3V32.9597C41.6422 32.9597 47.2576 24.3591 47.2576 16.086C47.2576 7.81291 41.6386 3 34.7107 3Z" fill="url(#paint0_linear)"/>
<path d="M34.7107 3V32.9597C27.7792 32.9597 22.1638 24.3591 22.1638 16.086C22.1638 7.81291 27.7792 3 34.7107 3Z" fill="url(#paint1_linear)"/>
<path d="M34.7107 3L33.1667 20.9772L34.7107 32.9597C38.8978 32.9597 42.2931 24.3591 42.2931 16.086C42.2931 7.81291 38.8942 3 34.7107 3Z" fill="url(#paint2_linear)"/>
<path d="M34.7105 3V32.9597C30.5234 32.9597 27.1282 24.3591 27.1282 16.086C27.1282 7.81291 30.5234 3 34.7105 3Z" fill="url(#paint3_linear)"/>
<path d="M26.8137 6.73075H25.2335C24.9262 6.73075 24.6731 6.48512 24.6731 6.17897C24.6731 5.87639 24.9226 5.6272 25.2335 5.6272H26.8137V6.73075Z" fill="#607C1C"/>
<path d="M23.7873 11.622H22.2072C21.8998 11.622 21.6467 11.3764 21.6467 11.0702C21.6467 10.7676 21.8962 10.5184 22.2072 10.5184H23.7873V11.622Z" fill="#607C1C"/>
<path d="M22.717 16.5132H21.1369C20.8295 16.5132 20.5764 16.2676 20.5764 15.9614C20.5764 15.6589 20.8259 15.4097 21.1369 15.4097H22.717V16.5132Z" fill="#607C1C"/>
<path d="M23.7873 21.4045H22.2072C21.8998 21.4045 21.6467 21.1588 21.6467 20.8527C21.6467 20.5501 21.8962 20.3009 22.2072 20.3009H23.7873V21.4045Z" fill="#607C1C"/>
<path d="M25.5336 26.2957H23.9535C23.6462 26.2957 23.3931 26.0501 23.3931 25.7439C23.3931 25.4413 23.6426 25.1921 23.9535 25.1921H25.5336V26.2957Z" fill="#607C1C"/>
<path d="M29.5039 31.1869H27.7791C27.5514 31.1869 27.3669 31.0054 27.3669 30.7811V30.4927C27.3669 30.2685 27.5514 30.0869 27.7791 30.0869H29.5039V31.1869Z" fill="#607C1C"/>
<path d="M42.6365 6.73075H44.2166C44.5239 6.73075 44.777 6.48512 44.777 6.17897C44.777 5.87639 44.5275 5.6272 44.2166 5.6272H42.6365V6.73075Z" fill="#839E2E"/>
<path d="M45.6665 11.622H47.2466C47.554 11.622 47.8071 11.3764 47.8071 11.0702C47.8071 10.7676 47.5576 10.5184 47.2466 10.5184H45.6665V11.622Z" fill="#839E2E"/>
<path d="M46.7332 16.5132H48.3133C48.6206 16.5132 48.8737 16.2676 48.8737 15.9614C48.8737 15.6589 48.6242 15.4097 48.3133 15.4097H46.7332V16.5132Z" fill="#839E2E"/>
<path d="M45.6665 21.4045H47.2466C47.554 21.4045 47.8071 21.1588 47.8071 20.8527C47.8071 20.5501 47.5576 20.3009 47.2466 20.3009H45.6665V21.4045Z" fill="#839E2E"/>
<path d="M43.9165 26.2957H45.4966C45.804 26.2957 46.0571 26.0501 46.0571 25.7439C46.0571 25.4413 45.8076 25.1921 45.4966 25.1921H43.9165V26.2957Z" fill="#839E2E"/>
<path d="M39.9463 31.1869H41.5264C41.8337 31.1869 42.0868 30.9413 42.0868 30.6351C42.0868 30.3326 41.8374 30.0834 41.5264 30.0834H39.9463V31.1869Z" fill="#839E2E"/>
<path d="M30.1113 6.73075H28.5312C28.2238 6.73075 27.9707 6.48512 27.9707 6.17897C27.9707 5.87639 28.2202 5.6272 28.5312 5.6272H30.1113V6.73075Z" fill="#839E2E"/>
<path d="M28.1984 11.622H26.6183C26.311 11.622 26.0579 11.3764 26.0579 11.0702C26.0579 10.7676 26.3074 10.5184 26.6183 10.5184H28.1984V11.622Z" fill="#839E2E"/>
<path d="M27.497 16.5132H25.9169C25.6096 16.5132 25.3564 16.2676 25.3564 15.9614C25.3564 15.6589 25.6059 15.4097 25.9169 15.4097H27.497V16.5132Z" fill="#839E2E"/>
<path d="M28.1984 21.4045H26.6183C26.311 21.4045 26.0579 21.1588 26.0579 20.8527C26.0579 20.5501 26.3074 20.3009 26.6183 20.3009H28.1984V21.4045Z" fill="#839E2E"/>
<path d="M29.5038 26.2957H27.9237C27.6164 26.2957 27.3633 26.0501 27.3633 25.7439C27.3633 25.4413 27.6128 25.1921 27.9237 25.1921H29.5038V26.2957Z" fill="#839E2E"/>
<path d="M31.9877 31.1869H30.4076C30.1003 31.1869 29.8472 30.9413 29.8472 30.6351C29.8472 30.3326 30.0967 30.0834 30.4076 30.0834H31.9877V31.1869Z" fill="#839E2E"/>
<path d="M39.2773 6.73075H40.8575C41.1648 6.73075 41.4179 6.48512 41.4179 6.17897C41.4179 5.87639 41.1684 5.6272 40.8575 5.6272H39.2773V6.73075Z" fill="#ABBC46"/>
<path d="M41.1902 11.622H42.7703C43.0776 11.622 43.3307 11.3764 43.3307 11.0702C43.3307 10.7676 43.0813 10.5184 42.7703 10.5184H41.1902V11.622Z" fill="#ABBC46"/>
<path d="M41.8879 16.5132H43.468C43.7754 16.5132 44.0285 16.2676 44.0285 15.9614C44.0285 15.6589 43.779 15.4097 43.468 15.4097H41.8879V16.5132Z" fill="#ABBC46"/>
<path d="M41.1902 21.4045H42.7703C43.0776 21.4045 43.3307 21.1588 43.3307 20.8527C43.3307 20.5501 43.0813 20.3009 42.7703 20.3009H41.1902V21.4045Z" fill="#ABBC46"/>
<path d="M39.8813 26.2957H41.4615C41.7688 26.2957 42.0219 26.0501 42.0219 25.7439C42.0219 25.4413 41.7724 25.1921 41.4615 25.1921H39.8813V26.2957Z" fill="#ABBC46"/>
<path d="M37.3972 31.1869H39.122C39.3498 31.1869 39.5342 31.0054 39.5342 30.7811V30.4927C39.5342 30.2685 39.3498 30.0869 39.122 30.0869H37.3972V31.1869Z" fill="#ABBC46"/>
<path fill-rule="evenodd" clip-rule="evenodd" d="M34.5769 48H26.9909C22.2253 45.38 19 40.3606 19 34.6044C19 31.162 20.1498 27.4775 22.0951 24.3164H34.5769H47.0551C49.0004 27.4775 50.1502 31.162 50.1502 34.6044C50.1502 40.3606 46.9285 45.3764 42.1593 48.0001V48.0036H34.5769V48Z" fill="url(#paint4_linear)"/>
<path fill-rule="evenodd" clip-rule="evenodd" d="M34.577 31.8562H19.2351C19.4991 30.2436 19.9908 28.6203 20.667 27.0575H34.577L34.5811 27.0611H48.487C49.1632 28.6203 49.6549 30.2436 49.9189 31.8562L34.577 31.8562Z" fill="url(#paint5_linear)"/>
</g>
</g>
<defs>
<linearGradient id="paint0_linear" x1="40.9841" y1="3" x2="40.9841" y2="32.9597" gradientUnits="userSpaceOnUse">
<stop stop-color="#92B033"/>
<stop offset="1" stop-color="#5C7914"/>
</linearGradient>
<linearGradient id="paint1_linear" x1="28.4373" y1="3" x2="28.4373" y2="32.9597" gradientUnits="userSpaceOnUse">
<stop stop-color="#607C1C"/>
<stop offset="0.0001" stop-color="#759625"/>
<stop offset="1" stop-color="#466105"/>
</linearGradient>
<linearGradient id="paint2_linear" x1="37.7299" y1="3" x2="37.7299" y2="32.9597" gradientUnits="userSpaceOnUse">
<stop stop-color="#ABBC46"/>
<stop offset="1" stop-color="#607C1C"/>
</linearGradient>
<linearGradient id="paint3_linear" x1="30.9194" y1="3" x2="30.9194" y2="32.9597" gradientUnits="userSpaceOnUse">
<stop stop-color="#91A637"/>
<stop offset="1" stop-color="#607C1C"/>
</linearGradient>
<linearGradient id="paint4_linear" x1="50.1538" y1="39.7789" x2="20.2981" y2="39.7789" gradientUnits="userSpaceOnUse">
<stop stop-color="#BA3A12"/>
<stop offset="0.286458" stop-color="#F7825D"/>
<stop offset="0.703125" stop-color="#CF532B"/>
<stop offset="1" stop-color="#B13007"/>
</linearGradient>
<linearGradient id="paint5_linear" x1="49.2885" y1="31.1251" x2="17.702" y2="31.1251" gradientUnits="userSpaceOnUse">
<stop stop-color="#FE9C00"/>
<stop offset="0.261986" stop-color="#F6F37D"/>
<stop offset="0.583904" stop-color="#FCD100"/>
<stop offset="0.938356" stop-color="#FDB300"/>
</linearGradient>
<clipPath id="clip0">
<rect width="50" height="50" fill="white"/>
</clipPath>
<clipPath id="clip1">
<rect width="31.1538" height="45" fill="white" transform="translate(19 3)"/>
</clipPath>
</defs>
</svg>
