<svg width="30" height="30" viewBox="0 0 30 30" fill="none" xmlns="http://www.w3.org/2000/svg">
<path d="M15 30C23.2843 30 30 23.2843 30 15C30 6.71573 23.2843 0 15 0C6.71573 0 0 6.71573 0 15C0 23.2843 6.71573 30 15 30Z" fill="url(#paint0_linear)"/>
<path d="M17.6802 8H12.0988C9.8314 8 8 9.8314 8 12.0988V17.6802C8 19.9477 9.8314 21.7791 12.0988 21.7791H17.6802C19.9477 21.7791 21.7791 19.9477 21.7791 17.6802V12.0988C21.7791 9.8314 19.9477 8 17.6802 8ZM20.3837 17.6802C20.3837 19.1628 19.1628 20.3837 17.6802 20.3837H12.0988C10.6163 20.3837 9.39535 19.1628 9.39535 17.6802V12.0988C9.39535 10.6163 10.6163 9.39535 12.0988 9.39535H17.6802C19.1628 9.39535 20.3837 10.6163 20.3837 12.0988V17.6802Z" fill="white"/>
<path d="M14.8895 11.3138C12.9709 11.3138 11.314 12.8836 11.314 14.8894C11.314 16.808 12.8837 18.465 14.8895 18.465C16.8082 18.465 18.4651 16.8952 18.4651 14.8894C18.4651 12.8836 16.8954 11.3138 14.8895 11.3138ZM14.8895 16.9824C13.7558 16.9824 12.7093 16.0231 12.7093 14.8022C12.7093 13.5813 13.6686 12.622 14.8895 12.622C16.1105 12.622 17.0698 13.5813 17.0698 14.8022C17.0698 16.0231 16.1105 16.9824 14.8895 16.9824Z" fill="white"/>
<path d="M18.4651 12.1861C18.9468 12.1861 19.3372 11.7956 19.3372 11.314C19.3372 10.8323 18.9468 10.4419 18.4651 10.4419C17.9835 10.4419 17.593 10.8323 17.593 11.314C17.593 11.7956 17.9835 12.1861 18.4651 12.1861Z" fill="white"/>
<defs>
<linearGradient id="paint0_linear" x1="5" y1="3.30005" x2="25" y2="25.3" gradientUnits="userSpaceOnUse">
<stop offset="0.00291368" stop-color="#9372E4"/>
<stop offset="0.5146" stop-color="#B6087E"/>
<stop offset="1" stop-color="#E27A00"/>
</linearGradient>
</defs>
</svg>
