<svg width="50" height="50" viewBox="0 0 50 50" fill="none" xmlns="http://www.w3.org/2000/svg">
<path d="M44.8052 25.7717C44.8052 22.1298 42.339 19.0018 38.8348 18.0092C37.4325 17.6117 36.1092 16.861 35.0052 15.757C33.9009 14.653 33.1505 13.3297 32.753 11.927C31.7601 8.42324 28.632 5.95703 24.9905 5.95703H24.7189C19.4172 5.95703 15.569 10.9951 16.9548 16.1125C18.0657 20.2145 20.2313 24.0902 23.4517 27.3106C26.672 30.5306 30.5478 32.6962 34.6493 33.807C39.7668 35.1929 44.8052 31.345 44.8052 26.043V25.7717Z" fill="url(#paint0_radial)"/>
<path d="M23.4516 27.3106C26.6719 30.531 30.5477 32.6962 34.6492 33.807C37.4057 34.5536 40.1378 33.7799 42.0734 32.0797L25.9841 15.9905C24.533 14.4203 22.4555 13.4121 20.0858 13.4121H19.8146C18.7042 13.4121 17.6422 13.6425 16.6732 14.0606C16.6793 14.7354 16.7678 15.4228 16.9547 16.1125C18.0656 20.2145 20.2312 24.0902 23.4516 27.3106Z" fill="url(#paint1_linear)"/>
<path d="M19.8147 13.4121C16.1728 13.4121 13.0448 15.8783 12.0518 19.3825C11.6547 20.7848 10.9039 22.1081 9.79997 23.2121C8.69561 24.3164 7.37229 25.0668 5.97001 25.4643C2.4662 26.4569 0 29.5849 0 33.2268V33.4984C0 38.8001 5.03808 42.6484 10.1559 41.2625C14.2574 40.1516 18.1332 37.986 21.3535 34.7657C24.5739 31.5453 26.7395 27.6696 27.85 23.568C29.2359 18.4502 25.388 13.4121 20.0859 13.4121H19.8147Z" fill="url(#paint2_radial)"/>
<path d="M48.1636 29.6303C45.9431 26.7438 42.0807 25.7683 38.6982 27.118C37.3444 27.6581 35.8379 27.8702 34.2895 27.6684C32.7412 27.4666 31.3393 26.8754 30.1693 26.006C27.2461 23.8343 23.2628 23.787 20.3766 26.0075L20.1614 26.1731C15.9591 29.406 15.9813 35.7457 20.2003 38.9565C23.5817 41.5303 27.6611 43.2816 32.1773 43.8702C36.6936 44.4592 41.0858 43.8122 45.0138 42.1918C49.9149 40.1696 51.5617 34.0474 48.3288 29.8455L48.1636 29.6303Z" fill="url(#paint3_radial)"/>
<path d="M48.1636 29.6303C45.9431 26.7438 42.0807 25.7683 38.6982 27.118C37.3444 27.6581 35.8379 27.8702 34.2895 27.6684C32.7412 27.4666 31.3393 26.8754 30.1693 26.006C27.2461 23.8343 23.2628 23.787 20.3766 26.0075L20.1614 26.1731C15.9591 29.406 15.9813 35.7457 20.2003 38.9565C23.5817 41.5303 27.6611 43.2816 32.1773 43.8702C36.6936 44.4592 41.0858 43.8122 45.0138 42.1918C49.9149 40.1696 51.5617 34.0474 48.3288 29.8455L48.1636 29.6303Z" fill="url(#paint4_radial)"/>
<defs>
<radialGradient id="paint0_radial" cx="0" cy="0" r="1" gradientUnits="userSpaceOnUse" gradientTransform="translate(33.7905 7.60524) rotate(45) scale(25.2454)">
<stop stop-color="#FAA4BD"/>
<stop offset="0.3523" stop-color="#F8A2BC"/>
<stop offset="0.5175" stop-color="#F29AB9"/>
<stop offset="0.6438" stop-color="#E78DB5"/>
<stop offset="0.7502" stop-color="#D87BAE"/>
<stop offset="0.8441" stop-color="#C563A5"/>
<stop offset="0.9278" stop-color="#AD479B"/>
<stop offset="1" stop-color="#93278F"/>
</radialGradient>
<linearGradient id="paint1_linear" x1="34.5047" y1="27.6895" x2="14.6241" y2="15.9674" gradientUnits="userSpaceOnUse">
<stop stop-color="#93278F" stop-opacity="0"/>
<stop offset="1" stop-color="#93278F"/>
</linearGradient>
<radialGradient id="paint2_radial" cx="0" cy="0" r="1" gradientUnits="userSpaceOnUse" gradientTransform="translate(3.89887 15.8931) rotate(-45) scale(25.2452)">
<stop stop-color="#CFFFB4"/>
<stop offset="0.4168" stop-color="#CDFEB3"/>
<stop offset="0.6122" stop-color="#C5FBAD"/>
<stop offset="0.7614" stop-color="#B9F5A5"/>
<stop offset="0.8865" stop-color="#A6ED98"/>
<stop offset="0.9966" stop-color="#8FE389"/>
<stop offset="1" stop-color="#8EE388"/>
</radialGradient>
<radialGradient id="paint3_radial" cx="0" cy="0" r="1" gradientUnits="userSpaceOnUse" gradientTransform="translate(33.2623 18.767) rotate(7.42917) scale(25.2455)">
<stop stop-color="#FFF465"/>
<stop offset="0.4261" stop-color="#FFF463"/>
<stop offset="0.5919" stop-color="#FFF35C"/>
<stop offset="0.7124" stop-color="#FFF150"/>
<stop offset="0.8108" stop-color="#FFEF3F"/>
<stop offset="0.8959" stop-color="#FFEC28"/>
<stop offset="0.9704" stop-color="#FFE80D"/>
<stop offset="1" stop-color="#FFE600"/>
</radialGradient>
<radialGradient id="paint4_radial" cx="0" cy="0" r="1" gradientUnits="userSpaceOnUse" gradientTransform="translate(32.1555 22.8734) rotate(7.42917) scale(22.9753)">
<stop stop-color="#FFE600" stop-opacity="0"/>
<stop offset="0.3789" stop-color="#FFE400" stop-opacity="0.380392"/>
<stop offset="0.5665" stop-color="#FEDC00" stop-opacity="0.564706"/>
<stop offset="0.712" stop-color="#FCCF00" stop-opacity="0.713725"/>
<stop offset="0.8358" stop-color="#FABC00" stop-opacity="0.835294"/>
<stop offset="0.9448" stop-color="#F7A400" stop-opacity="0.945098"/>
<stop offset="1" stop-color="#F59500"/>
</radialGradient>
</defs>
</svg>
