<svg width="21" height="19" viewBox="0 0 21 19" fill="none" xmlns="http://www.w3.org/2000/svg">
<path d="M17.6891 3.32611C17.2738 2.90569 16.7806 2.57219 16.2377 2.34465C15.6949 2.11711 15.1131 2 14.5255 2C13.9379 2 13.3561 2.11711 12.8133 2.34465C12.2704 2.57219 11.7772 2.90569 11.3619 3.32611L10.4998 4.19821L9.63771 3.32611C8.79866 2.4773 7.66066 2.00044 6.47407 2.00044C5.28747 2.00044 4.14947 2.4773 3.31042 3.32611C2.47137 4.17492 2 5.32616 2 6.52656C2 7.72696 2.47137 8.87819 3.31042 9.727L4.1725 10.5991L10.4998 17L16.8271 10.5991L17.6891 9.727C18.1047 9.30679 18.4344 8.80785 18.6593 8.25871C18.8842 7.70957 19 7.12097 19 6.52656C19 5.93214 18.8842 5.34355 18.6593 4.7944C18.4344 4.24526 18.1047 3.74633 17.6891 3.32611V3.32611Z" stroke="#E1E1E1" stroke-width="2.5" stroke-linecap="round" stroke-linejoin="round"/>
</svg>
