<svg width="17" height="15" viewBox="0 0 17 15" fill="none" xmlns="http://www.w3.org/2000/svg">
<path d="M14.8434 2.1701C14.4768 1.79914 14.0417 1.50487 13.5627 1.30411C13.0837 1.10334 12.5704 1 12.0519 1C11.5335 1 11.0201 1.10334 10.5411 1.30411C10.0621 1.50487 9.62698 1.79914 9.26046 2.1701L8.49981 2.9396L7.73916 2.1701C6.99882 1.42114 5.9947 1.00039 4.94771 1.00039C3.90071 1.00039 2.89659 1.42114 2.15626 2.1701C1.41592 2.91905 1 3.93484 1 4.99402C1 6.0532 1.41592 7.06899 2.15626 7.81794L2.91691 8.58745L8.49981 14.2353L14.0827 8.58745L14.8434 7.81794C15.21 7.44716 15.5009 7.00693 15.6994 6.52239C15.8979 6.03785 16 5.51851 16 4.99402C16 4.46953 15.8979 3.95019 15.6994 3.46565C15.5009 2.98111 15.21 2.54088 14.8434 2.1701V2.1701Z" stroke="#AD8BD7" stroke-linecap="round" stroke-linejoin="round"/>
</svg>
