<svg width="50" height="50" viewBox="0 0 50 50" fill="none" xmlns="http://www.w3.org/2000/svg">
<g clip-path="url(#clip0)">
<path d="M26.3778 27.3785L22.5955 28.1338C16.9345 29.2649 11.4288 25.5924 10.2981 19.9314L9.70606 16.9686C8.57538 11.3075 12.2478 5.80178 17.9088 4.6711L21.6911 3.91541C27.3521 2.78473 32.8578 6.45714 33.9885 12.1178L34.5806 15.0807C35.7112 20.7417 32.0388 26.2474 26.3778 27.3785Z" fill="url(#paint0_linear)"/>
<path d="M35.1135 13.4338C35.1543 13.6383 35.1917 13.8427 35.2261 14.0468C35.3195 14.608 34.948 15.1416 34.3903 15.2534L10.54 20.0176C9.98228 20.129 9.43411 19.7792 9.30479 19.2249C9.25787 19.0235 9.214 18.8201 9.17318 18.6157C9.13237 18.4108 9.09498 18.2064 9.06065 18.0023C8.96719 17.4411 9.33874 16.9075 9.89683 16.7961L33.7467 12.0319C34.3044 11.9205 34.8526 12.2703 34.9819 12.8246C35.0285 13.026 35.0727 13.2289 35.1135 13.4338Z" fill="url(#paint1_linear)"/>
<path d="M10.6416 21.217C10.7984 21.6847 10.9857 22.1363 11.202 22.5682L11.2146 22.5666L19.8308 28.3135C20.7357 28.3753 21.6634 28.3199 22.5957 28.1338L26.378 27.3785C31.5976 26.3355 35.1266 21.5733 34.7585 16.3994L10.6416 21.217Z" fill="url(#paint2_linear)"/>
<path d="M34.3899 15.253C34.948 15.1416 35.3196 14.6079 35.2261 14.0468C35.1918 13.8427 35.1544 13.6383 35.1136 13.4334C35.0728 13.2289 35.0285 13.026 34.9816 12.8242C34.8526 12.2703 34.3045 11.9201 33.7464 12.0315L9.89652 16.7957C9.54938 16.8651 9.27434 17.0982 9.13892 17.3992L12.4821 19.6292L34.3899 15.253Z" fill="url(#paint3_linear)"/>
<path d="M34.2705 12.3425L9.53218 17.2844C8.71087 17.4484 7.91207 16.9155 7.74804 16.0942C7.58401 15.2729 8.11692 14.4741 8.93823 14.3105L33.6765 9.36852C34.4979 9.20449 35.2967 9.73741 35.4607 10.5587C35.6247 11.3796 35.0918 12.1784 34.2705 12.3425Z" fill="url(#paint4_linear)"/>
<path d="M35.3485 17.7391L10.6102 22.6807C9.78887 22.8447 8.99008 22.3118 8.82604 21.4905C8.66201 20.6696 9.19493 19.8708 10.0162 19.7067L34.7546 14.7648C35.5759 14.6011 36.3747 15.1337 36.5387 15.955C36.7027 16.7763 36.1698 17.5747 35.3485 17.7391Z" fill="url(#paint5_linear)"/>
<path d="M16.0583 46.3993H12.2013C6.42853 46.3993 1.74866 41.7198 1.74866 35.9467V32.9254C1.74866 27.1526 6.42853 22.4731 12.2013 22.4731H16.0583C21.8311 22.4731 26.511 27.1526 26.511 32.9254V35.9467C26.511 41.7198 21.8311 46.3993 16.0583 46.3993Z" fill="url(#paint6_linear)"/>
<path d="M27.3563 34.4364C27.3563 34.6447 27.3529 34.8526 27.3464 35.0598C27.3285 35.6282 26.8593 36.0787 26.2905 36.0787H1.96953C1.40038 36.0787 0.931549 35.6282 0.913238 35.0598C0.906753 34.8526 0.90332 34.6451 0.90332 34.4364C0.90332 34.2274 0.906753 34.0199 0.913238 33.8131C0.931549 33.2443 1.40038 32.7938 1.96953 32.7938H26.2905C26.8597 32.7938 27.3285 33.2443 27.3464 33.8131C27.3529 34.0199 27.3563 34.2274 27.3563 34.4364Z" fill="url(#paint7_linear)"/>
<path d="M1.83374 37.2749C1.89592 37.7643 1.99129 38.2438 2.1187 38.71L2.13167 38.7104L9.45513 46.0342C10.3302 46.2718 11.2511 46.3993 12.2013 46.3993H16.0584C21.3814 46.3993 25.7752 42.4205 26.4275 37.2749H1.83374Z" fill="url(#paint8_linear)"/>
<path d="M26.2905 36.0787C26.8597 36.0787 27.3285 35.6282 27.3464 35.0598C27.3529 34.8526 27.3563 34.6447 27.3563 34.4364C27.3563 34.2274 27.3529 34.0199 27.3464 33.8131C27.3285 33.2443 26.8593 32.7938 26.2905 32.7938H1.96951C1.61513 32.7938 1.30003 32.9682 1.10815 33.2371L3.94972 36.0787H26.2905Z" fill="url(#paint9_linear)"/>
<path d="M26.7437 33.2013H1.51634C0.679016 33.2013 0 32.5222 0 31.6849C0 30.8472 0.679016 30.1686 1.51634 30.1686H26.7437C27.581 30.1686 28.2601 30.8472 28.2601 31.6849C28.2601 32.5222 27.581 33.2013 26.7437 33.2013Z" fill="url(#paint10_linear)"/>
<path d="M26.7437 38.7039H1.51634C0.679016 38.7039 0 38.0253 0 37.1876C0 36.3503 0.679016 35.6713 1.51634 35.6713H26.7437C27.581 35.6713 28.2601 36.3503 28.2601 37.1876C28.2601 38.0253 27.581 38.7039 26.7437 38.7039Z" fill="url(#paint11_linear)"/>
<path d="M32.4326 45.3411L28.9654 43.6516C23.7759 41.1232 21.6187 34.8663 24.147 29.6768L25.4704 26.9607C27.9987 21.7712 34.2556 19.614 39.4451 22.1424L42.9123 23.8319C48.1022 26.3603 50.2594 32.6172 47.7306 37.8067L46.4073 40.5228C43.8789 45.7123 37.6221 47.8695 32.4326 45.3411Z" fill="url(#paint12_linear)"/>
<path d="M47.829 39.5351C47.7375 39.7224 47.6437 39.9078 47.5471 40.0909C47.282 40.5945 46.6629 40.794 46.1513 40.5449L24.2874 29.8919C23.7758 29.6428 23.5515 29.0325 23.7846 28.5133C23.8693 28.3245 23.9574 28.136 24.0486 27.9484C24.1402 27.7611 24.234 27.5757 24.3305 27.3926C24.5956 26.889 25.2148 26.6895 25.7263 26.9386L47.5902 37.5915C48.1018 37.8406 48.3261 38.451 48.093 38.9702C48.0083 39.159 47.9206 39.3474 47.829 39.5351Z" fill="url(#paint13_linear)"/>
<path d="M23.6416 30.9078C23.4833 31.3751 23.3589 31.8478 23.2693 32.3227L23.2803 32.3292L26.6564 42.1204C27.3392 42.7174 28.1109 43.2354 28.9654 43.6516L32.4326 45.3411C37.2177 47.6727 42.9104 46.0201 45.7508 41.6802L23.6416 30.9078Z" fill="url(#paint14_linear)"/>
<path d="M46.1514 40.5449C46.663 40.794 47.2821 40.5945 47.5472 40.091C47.6437 39.9079 47.7376 39.7225 47.8291 39.5352C47.9203 39.3475 48.0084 39.159 48.0931 38.9702C48.3262 38.451 48.1019 37.8407 47.5903 37.5916L25.7264 26.9386C25.4082 26.7837 25.0481 26.8024 24.7578 26.96L26.0678 30.7594L46.1514 40.5449Z" fill="url(#paint15_linear)"/>
<path d="M47.8191 38.1561L25.1407 27.1065C24.3877 26.7399 24.0749 25.832 24.4415 25.0793C24.8085 24.3263 25.716 24.0135 26.469 24.3801L49.1474 35.4298C49.9004 35.7967 50.2132 36.7043 49.8466 37.4573C49.4797 38.2103 48.5718 38.5231 47.8191 38.1561Z" fill="url(#paint16_linear)"/>
<path d="M45.4086 43.1035L22.7303 32.0538C21.9776 31.6868 21.6644 30.7793 22.0314 30.0263C22.398 29.2736 23.3059 28.9605 24.0585 29.3274L46.7373 40.3771C47.4899 40.7437 47.8031 41.6516 47.4362 42.4042C47.0692 43.1572 46.1617 43.4701 45.4086 43.1035Z" fill="url(#paint17_linear)"/>
</g>
<defs>
<linearGradient id="paint0_linear" x1="19.542" y1="13.9174" x2="38.4805" y2="29.2596" gradientUnits="userSpaceOnUse">
<stop stop-color="#CFFFB4"/>
<stop offset="1" stop-color="#8EE388"/>
</linearGradient>
<linearGradient id="paint1_linear" x1="21.935" y1="14.9821" x2="23.1617" y2="21.1222" gradientUnits="userSpaceOnUse">
<stop stop-color="#F8EBE1"/>
<stop offset="1" stop-color="#FBD1A2"/>
</linearGradient>
<linearGradient id="paint2_linear" x1="24.0406" y1="24.2325" x2="21.5115" y2="13.998" gradientUnits="userSpaceOnUse">
<stop stop-color="#53D6BE" stop-opacity="0"/>
<stop offset="1" stop-color="#4E6D79"/>
</linearGradient>
<linearGradient id="paint3_linear" x1="22.7042" y1="17.0708" x2="21.54" y2="13.5173" gradientUnits="userSpaceOnUse">
<stop stop-color="#F8EBE1" stop-opacity="0"/>
<stop offset="1" stop-color="#FBD1A2"/>
</linearGradient>
<linearGradient id="paint4_linear" x1="21.3927" y1="12.267" x2="22.1969" y2="16.2927" gradientUnits="userSpaceOnUse">
<stop stop-color="#CFFFB4"/>
<stop offset="1" stop-color="#8EE388"/>
</linearGradient>
<linearGradient id="paint5_linear" x1="22.4706" y1="17.6633" x2="23.2748" y2="21.689" gradientUnits="userSpaceOnUse">
<stop stop-color="#CFFFB4"/>
<stop offset="1" stop-color="#8EE388"/>
</linearGradient>
<linearGradient id="paint6_linear" x1="11.9919" y1="31.8602" x2="27.5579" y2="50.6153" gradientUnits="userSpaceOnUse">
<stop stop-color="#FAA4BD"/>
<stop offset="0.1419" stop-color="#F49DBA"/>
<stop offset="0.3557" stop-color="#E388B3"/>
<stop offset="0.615" stop-color="#C766A6"/>
<stop offset="0.9074" stop-color="#A03795"/>
<stop offset="1" stop-color="#93278F"/>
</linearGradient>
<linearGradient id="paint7_linear" x1="14.13" y1="33.3733" x2="14.13" y2="39.634" gradientUnits="userSpaceOnUse">
<stop stop-color="#F8EBE1"/>
<stop offset="1" stop-color="#FBD1A2"/>
</linearGradient>
<linearGradient id="paint8_linear" x1="14.3825" y1="42.8567" x2="13.9074" y2="32.3254" gradientUnits="userSpaceOnUse">
<stop stop-color="#93278F" stop-opacity="0"/>
<stop offset="1" stop-color="#93278F"/>
</linearGradient>
<linearGradient id="paint9_linear" x1="14.475" y1="35.572" x2="14.0295" y2="31.8595" gradientUnits="userSpaceOnUse">
<stop stop-color="#F8EBE1" stop-opacity="0"/>
<stop offset="1" stop-color="#FBD1A2"/>
</linearGradient>
<linearGradient id="paint10_linear" x1="14.1299" y1="30.6046" x2="14.1299" y2="34.7092" gradientUnits="userSpaceOnUse">
<stop stop-color="#FAA4BD"/>
<stop offset="0.1419" stop-color="#F49DBA"/>
<stop offset="0.3557" stop-color="#E388B3"/>
<stop offset="0.615" stop-color="#C766A6"/>
<stop offset="0.9074" stop-color="#A03795"/>
<stop offset="1" stop-color="#93278F"/>
</linearGradient>
<linearGradient id="paint11_linear" x1="14.1299" y1="36.1075" x2="14.1299" y2="40.2122" gradientUnits="userSpaceOnUse">
<stop stop-color="#FAA4BD"/>
<stop offset="0.1419" stop-color="#F49DBA"/>
<stop offset="0.3557" stop-color="#E388B3"/>
<stop offset="0.615" stop-color="#C766A6"/>
<stop offset="0.9074" stop-color="#A03795"/>
<stop offset="1" stop-color="#93278F"/>
</linearGradient>
<linearGradient id="paint12_linear" x1="35.1451" y1="30.4896" x2="40.924" y2="54.1677" gradientUnits="userSpaceOnUse">
<stop stop-color="#FFB92D"/>
<stop offset="1" stop-color="#F59500"/>
</linearGradient>
<linearGradient id="paint13_linear" x1="36.4045" y1="32.786" x2="33.662" y2="38.415" gradientUnits="userSpaceOnUse">
<stop stop-color="#F8EBE1"/>
<stop offset="1" stop-color="#FBD1A2"/>
</linearGradient>
<linearGradient id="paint14_linear" x1="32.4777" y1="41.4222" x2="36.6634" y2="31.7464" gradientUnits="userSpaceOnUse">
<stop stop-color="#BE3F45" stop-opacity="0"/>
<stop offset="1" stop-color="#BE3F45"/>
</linearGradient>
<linearGradient id="paint15_linear" x1="35.7516" y1="34.914" x2="36.9772" y2="31.3812" gradientUnits="userSpaceOnUse">
<stop stop-color="#F8EBE1" stop-opacity="0"/>
<stop offset="1" stop-color="#FBD1A2"/>
</linearGradient>
<linearGradient id="paint16_linear" x1="37.6172" y1="30.297" x2="35.8191" y2="33.9875" gradientUnits="userSpaceOnUse">
<stop stop-color="#FFB92D"/>
<stop offset="1" stop-color="#F59500"/>
</linearGradient>
<linearGradient id="paint17_linear" x1="35.2069" y1="35.2441" x2="33.4089" y2="38.9346" gradientUnits="userSpaceOnUse">
<stop stop-color="#FFB92D"/>
<stop offset="1" stop-color="#F59500"/>
</linearGradient>
<clipPath id="clip0">
<rect width="50" height="50" fill="white"/>
</clipPath>
</defs>
</svg>
