<svg width="39" height="30" viewBox="0 0 39 30" fill="none" xmlns="http://www.w3.org/2000/svg">
<g clip-path="url(#clip0)">
<path d="M32.9275 29.5929V29.6708H33.0001C33.0168 29.6708 33.03 29.6674 33.0399 29.6612C33.0496 29.6548 33.0547 29.6448 33.0547 29.6312C33.0547 29.6187 33.0496 29.6091 33.0399 29.6024C33.0299 29.5962 33.0168 29.5928 33.0001 29.5928H32.9275V29.5929ZM33.0008 29.5383C33.0389 29.5383 33.0681 29.5466 33.0885 29.5632C33.1093 29.58 33.1193 29.6024 33.1193 29.6313C33.1193 29.6555 33.1113 29.6757 33.0948 29.6913C33.0784 29.7068 33.0553 29.7164 33.0248 29.7201L33.1216 29.8303H33.046L32.9566 29.721H32.9274V29.8303H32.8645V29.5383H33.0007H33.0008ZM32.982 29.9306C33.0165 29.9306 33.0483 29.9244 33.0781 29.9114C33.108 29.8985 33.1337 29.881 33.1561 29.8591C33.1785 29.8369 33.1959 29.8109 33.2086 29.781C33.2214 29.7512 33.2278 29.7194 33.2278 29.6853C33.2278 29.6515 33.2214 29.6199 33.2086 29.59C33.1959 29.5602 33.1785 29.5341 33.1561 29.5119C33.1336 29.49 33.1079 29.4729 33.0781 29.4599C33.0483 29.4474 33.0165 29.4411 32.982 29.4411C32.9472 29.4411 32.9147 29.4474 32.8843 29.4599C32.8538 29.4729 32.8277 29.4901 32.8053 29.5119C32.7828 29.5342 32.7655 29.5603 32.7528 29.59C32.7401 29.6199 32.7337 29.6515 32.7337 29.6853C32.7337 29.7194 32.7401 29.7512 32.7528 29.781C32.7655 29.8109 32.7829 29.8369 32.8053 29.8591C32.8277 29.881 32.8538 29.8985 32.8843 29.9114C32.9148 29.9244 32.9472 29.9306 32.982 29.9306ZM32.982 29.3706C33.0269 29.3706 33.0688 29.379 33.1082 29.3956C33.1474 29.412 33.1816 29.4343 33.211 29.4632C33.2402 29.4917 33.2636 29.525 33.2803 29.5632C33.2971 29.6015 33.3058 29.6423 33.3058 29.6852C33.3058 29.7287 33.2971 29.7694 33.2803 29.8074C33.2636 29.8452 33.2402 29.8787 33.211 29.9071C33.1816 29.9356 33.1474 29.9581 33.1082 29.975C33.0688 29.9915 33.0269 30.0001 32.982 30.0001C32.9364 30.0001 32.8936 29.9915 32.8538 29.975C32.8143 29.9581 32.7798 29.9357 32.7506 29.9071C32.7216 29.8787 32.6984 29.8452 32.6817 29.8074C32.6646 29.7694 32.6562 29.7287 32.6562 29.6852C32.6562 29.6423 32.6646 29.6015 32.6817 29.5632C32.6984 29.525 32.7216 29.4917 32.7506 29.4632C32.7798 29.4343 32.8142 29.4121 32.8538 29.3956C32.8936 29.3791 32.9364 29.3706 32.982 29.3706ZM28.1681 26.591C28.3085 26.591 28.5092 26.6174 28.6628 26.6771L28.4489 27.3251C28.3018 27.2655 28.1548 27.2458 28.0143 27.2458C27.5595 27.2458 27.3322 27.5366 27.3322 28.059V29.831H26.6369V26.6705H27.3256V27.0539C27.5061 26.7763 27.7669 26.591 28.168 26.591H28.1681ZM25.7616 27.2986H24.625V28.7268C24.625 29.044 24.7386 29.2559 25.0864 29.2559C25.2669 29.2559 25.4942 29.1963 25.7015 29.0771L25.902 29.6657C25.6814 29.8177 25.3338 29.9104 25.0329 29.9104C24.2105 29.9104 23.923 29.474 23.923 28.7401V27.2986H23.2744V26.6705H23.923L23.9228 25.7118H24.6249L24.625 26.6705H25.7616V27.2986ZM22.4203 27.4771C22.2265 27.3581 21.8319 27.2061 21.4241 27.2061C21.043 27.2061 20.8157 27.345 20.8157 27.5763C20.8157 27.7879 21.0565 27.8473 21.3573 27.8871L21.685 27.9332C22.3802 28.0324 22.8014 28.3235 22.8014 28.8787C22.8014 29.4804 22.2667 29.9104 21.3438 29.9104C20.8224 29.9104 20.3409 29.778 19.9599 29.5001L20.2875 28.9648C20.5216 29.1433 20.8692 29.2952 21.3506 29.2952C21.8253 29.2952 22.0794 29.1564 22.0794 28.9118C22.0794 28.7333 21.8987 28.634 21.5178 28.5814L21.1902 28.5351C20.4748 28.4358 20.087 28.1182 20.087 27.6026C20.087 26.9745 20.6084 26.591 21.4175 26.591C21.9256 26.591 22.387 26.7034 22.7213 26.9217L22.4204 27.477L22.4203 27.4771ZM17.1118 27.9729C17.1853 27.5168 17.4661 27.2061 17.9608 27.2061C18.4088 27.2061 18.6963 27.4837 18.77 27.9729H17.1118ZM19.4919 28.2507C19.4852 27.2655 18.8703 26.591 17.9743 26.591C17.0382 26.591 16.383 27.2655 16.383 28.2507C16.383 29.2559 17.065 29.9104 18.0212 29.9104C18.5026 29.9104 18.9439 29.7913 19.3316 29.4674L18.9907 28.9583C18.7233 29.1699 18.3821 29.2887 18.0612 29.2887C17.6132 29.2887 17.2054 29.0837 17.105 28.5152H19.4785C19.4852 28.4291 19.4919 28.3435 19.4919 28.2507ZM30.5872 27.2375C30.445 27.2375 30.3124 27.2622 30.1902 27.3118C30.0677 27.3613 29.9622 27.4306 29.8732 27.5197C29.7841 27.6088 29.7142 27.7155 29.6629 27.8399C29.6117 27.9641 29.5863 28.1011 29.5863 28.2508C29.5863 28.4004 29.6117 28.5375 29.6629 28.6617C29.7142 28.7858 29.7841 28.8928 29.8732 28.9818C29.9622 29.0709 30.0677 29.1401 30.1902 29.1897C30.3125 29.2394 30.445 29.2639 30.5872 29.2639C30.7295 29.2639 30.8621 29.2394 30.9843 29.1897C31.1068 29.14 31.2129 29.0709 31.303 28.9818C31.3931 28.8928 31.4638 28.7858 31.5149 28.6617C31.5662 28.5375 31.592 28.4004 31.592 28.2508C31.592 28.1011 31.5662 27.9642 31.5149 27.8399C31.4638 27.7155 31.3931 27.6088 31.303 27.5197C31.2129 27.4306 31.1069 27.3613 30.9843 27.3118C30.862 27.2622 30.7295 27.2375 30.5872 27.2375ZM30.5872 26.5873C30.8343 26.5873 31.063 26.6297 31.2732 26.7144C31.4834 26.799 31.6652 26.9158 31.8186 27.0642C31.9722 27.2127 32.0924 27.3882 32.1792 27.5906C32.2658 27.7931 32.3094 28.0132 32.3094 28.2507C32.3094 28.4885 32.2658 28.7082 32.1792 28.9105C32.0924 29.1132 31.9722 29.2887 31.8186 29.4373C31.6652 29.5857 31.4834 29.7022 31.2732 29.7869C31.063 29.8718 30.8343 29.914 30.5872 29.914C30.3405 29.914 30.1119 29.8718 29.9016 29.7869C29.691 29.7022 29.5099 29.5858 29.3575 29.4373C29.2049 29.2888 29.0853 29.1133 28.9987 28.9105C28.9119 28.7083 28.8684 28.4885 28.8684 28.2507C28.8684 28.0131 28.912 27.7931 28.9987 27.5906C29.0853 27.3882 29.2049 27.2127 29.3575 27.0642C29.5099 26.9159 29.691 26.7991 29.9016 26.7144C30.1119 26.6297 30.3405 26.5873 30.5872 26.5873ZM13.1207 28.2507C13.1207 27.6952 13.4885 27.2391 14.0901 27.2391C14.6652 27.2391 15.0529 27.6755 15.0529 28.2507C15.0529 28.8258 14.6652 29.2622 14.0901 29.2622C13.4885 29.2622 13.1207 28.806 13.1207 28.2507ZM15.7084 28.2507V26.6704H15.0128V27.0538C14.7922 26.7695 14.4579 26.591 14.0032 26.591C13.1073 26.591 12.4053 27.2854 12.4053 28.2507C12.4053 29.2161 13.1073 29.9103 14.0032 29.9103C14.4579 29.9103 14.7923 29.7316 15.0128 29.4475V29.8309H15.7084V28.2507V28.2507ZM11.7902 29.831V27.8473C11.7902 27.1002 11.3088 26.5975 10.5331 26.591C10.1253 26.5844 9.70393 26.7101 9.40987 27.153C9.18923 26.8026 8.84148 26.591 8.35342 26.591C8.01231 26.591 7.67812 26.6902 7.41728 27.0605V26.6703H6.72192V29.8309H7.42399V28.0787C7.42399 27.5299 7.73154 27.239 8.20625 27.239C8.66768 27.239 8.90161 27.5365 8.90161 28.072V29.8309H9.60381V28.0787C9.60381 27.5299 9.92465 27.239 10.386 27.239C10.8607 27.239 11.088 27.5365 11.088 28.072V29.8309H11.7902V29.831Z" fill="black"/>
<path d="M14.2271 21.2895H24.773V2.54834H14.2271V21.2895Z" fill="#7673C0"/>
<path d="M14.8968 11.9191C14.8968 8.11704 16.6967 4.73086 19.4999 2.54848C17.4499 0.952492 14.8633 0 12.0516 0C5.39563 0 0 5.33644 0 11.9191C0 18.5016 5.39563 23.8379 12.0516 23.8379C14.8633 23.8379 17.4499 22.8856 19.4999 21.2896C16.6967 19.1072 14.8968 15.7212 14.8968 11.9191Z" fill="#EB001B"/>
<path d="M38.6237 19.3047V18.842H38.5014L38.3612 19.1602L38.2205 18.842H38.0984V19.3047H38.1848V18.9558L38.3163 19.2566H38.4057L38.5376 18.955V19.3047H38.6237L38.6237 19.3047ZM37.8503 19.3047V18.921H38.0066V18.843H37.6083V18.921H37.7646V19.3047H37.8504H37.8503Z" fill="#00A1DF"/>
<path d="M38.9999 11.9191C38.9999 18.5016 33.6043 23.8379 26.9482 23.8379C24.1366 23.8379 21.5498 22.8856 19.4998 21.2896C22.3032 19.1072 24.1032 15.7212 24.1032 11.9191C24.1032 8.11704 22.3032 4.73086 19.4998 2.54848C21.5498 0.952492 24.1366 0 26.9482 0C33.6043 0 38.9999 5.33644 38.9999 11.9191Z" fill="#00A1DF"/>
</g>
<defs>
<clipPath id="clip0">
<rect width="39" height="30" fill="white"/>
</clipPath>
</defs>
</svg>
