<svg width="18" height="18" viewBox="0 0 18 18" fill="none" xmlns="http://www.w3.org/2000/svg">
<path d="M16 7.54545C16 12.6364 9.5 17 9.5 17C9.5 17 3 12.6364 3 7.54545C3 5.80949 3.68482 4.14463 4.90381 2.91712C6.12279 1.68961 7.77609 1 9.5 1C11.2239 1 12.8772 1.68961 14.0962 2.91712C15.3152 4.14463 16 5.80949 16 7.54545Z" stroke="#563494" stroke-width="2" stroke-linecap="round" stroke-linejoin="round"/>
<path d="M9.5 10C10.8807 10 12 8.88071 12 7.5C12 6.11929 10.8807 5 9.5 5C8.11929 5 7 6.11929 7 7.5C7 8.88071 8.11929 10 9.5 10Z" stroke="#563494" stroke-width="2" stroke-linecap="round" stroke-linejoin="round"/>
</svg>
