<svg width="20" height="20" viewBox="0 0 20 20" fill="none" xmlns="http://www.w3.org/2000/svg">
<path d="M17 8.54545C17 13.6364 10.5 18 10.5 18C10.5 18 4 13.6364 4 8.54545C4 6.80949 4.68482 5.14463 5.90381 3.91712C7.12279 2.68961 8.77609 2 10.5 2C12.2239 2 13.8772 2.68961 15.0962 3.91712C16.3152 5.14463 17 6.80949 17 8.54545Z" stroke="#B7A9D0" stroke-width="2" stroke-linecap="round" stroke-linejoin="round"/>
<path d="M10.5 11C11.8807 11 13 9.88071 13 8.5C13 7.11929 11.8807 6 10.5 6C9.11929 6 8 7.11929 8 8.5C8 9.88071 9.11929 11 10.5 11Z" stroke="#B7A9D0" stroke-width="2" stroke-linecap="round" stroke-linejoin="round"/>
</svg>
