<svg width="40" height="30" viewBox="0 0 40 30" fill="none" xmlns="http://www.w3.org/2000/svg">
<g clip-path="url(#clip0)">
<path d="M39.2071 29.5932V29.6711H39.2813C39.2985 29.6711 39.3122 29.6677 39.3222 29.6615C39.3325 29.6551 39.3373 29.6451 39.3373 29.6315C39.3373 29.6186 39.3325 29.609 39.3222 29.6027C39.3122 29.5965 39.2985 29.5932 39.2813 29.5932H39.2071ZM39.2824 29.5386C39.3211 29.5386 39.351 29.5469 39.3723 29.5634C39.3932 29.5802 39.404 29.6028 39.404 29.6316C39.404 29.6558 39.3953 29.676 39.3786 29.6916C39.3617 29.7071 39.338 29.7167 39.3071 29.7203L39.4064 29.8306H39.3288L39.2368 29.7209H39.2072V29.8306H39.1423V29.5386H39.2824H39.2824ZM39.2631 29.9308C39.2981 29.9308 39.3311 29.9242 39.3613 29.9117C39.3919 29.8987 39.4184 29.8812 39.4413 29.859C39.4644 29.8371 39.4822 29.8111 39.4952 29.7812C39.5083 29.7514 39.5148 29.7196 39.5148 29.6855C39.5148 29.6517 39.5083 29.6201 39.4952 29.5902C39.4822 29.5604 39.4644 29.5343 39.4413 29.5121C39.4184 29.4902 39.3919 29.4726 39.3613 29.4601C39.3311 29.4475 39.2981 29.4412 39.2631 29.4412C39.2274 29.4412 39.1938 29.4475 39.1628 29.4601C39.1316 29.4726 39.1044 29.4902 39.0814 29.5121C39.0587 29.5343 39.0405 29.5604 39.0275 29.5902C39.0145 29.6201 39.008 29.6518 39.008 29.6855C39.008 29.7196 39.0145 29.7514 39.0275 29.7812C39.0405 29.8111 39.0587 29.8372 39.0814 29.859C39.1044 29.8812 39.1316 29.8987 39.1628 29.9117C39.1938 29.9242 39.2273 29.9308 39.2631 29.9308ZM39.2631 29.3709C39.3087 29.3709 39.3521 29.3792 39.3923 29.3958C39.4324 29.4121 39.4678 29.4346 39.4977 29.4635C39.5278 29.4919 39.5516 29.5252 39.569 29.5634C39.5862 29.6018 39.5948 29.6426 39.5948 29.6856C39.5948 29.729 39.5863 29.7694 39.569 29.8074C39.5516 29.8454 39.5278 29.8789 39.4977 29.9074C39.4678 29.9359 39.4324 29.9584 39.3923 29.9751C39.3521 29.9918 39.3087 30 39.2631 30C39.2161 30 39.1725 29.9918 39.1316 29.9751C39.0907 29.9584 39.0553 29.9359 39.0255 29.9074C38.9956 29.8789 38.9722 29.8455 38.9547 29.8074C38.9376 29.7693 38.929 29.729 38.929 29.6856C38.929 29.6426 38.9376 29.6018 38.9547 29.5634C38.9722 29.5252 38.9956 29.4919 39.0255 29.4635C39.0553 29.4346 39.0907 29.412 39.1316 29.3958C39.1725 29.3792 39.2161 29.3709 39.2631 29.3709ZM8.64231 28.2474C8.64231 27.6913 9.02007 27.2345 9.63797 27.2345C10.2286 27.2345 10.6268 27.6714 10.6268 28.2474C10.6268 28.8234 10.2286 29.2604 9.63797 29.2604C9.02007 29.2604 8.64231 28.8036 8.64231 28.2474ZM11.2998 28.2474V26.6652H10.5856V27.0491C10.3589 26.7645 10.0157 26.5857 9.54876 26.5857C8.62863 26.5857 7.9077 27.2808 7.9077 28.2474C7.9077 29.2141 8.62868 29.9093 9.54876 29.9093C10.0157 29.9093 10.3589 29.7307 10.5856 29.4458V29.8299H11.2998V28.2474ZM35.4152 28.2474C35.4152 27.6913 35.793 27.2345 36.4111 27.2345C37.0013 27.2345 37.3996 27.6714 37.3996 28.2474C37.3996 28.8234 37.0013 29.2604 36.4111 29.2604C35.793 29.2604 35.4152 28.8036 35.4152 28.2474ZM38.0726 28.2474V25.394H37.3584V27.0491C37.1317 26.7644 36.7884 26.5857 36.3217 26.5857C35.4014 26.5857 34.6804 27.2808 34.6804 28.2474C34.6804 29.2141 35.4014 29.9093 36.3217 29.9093C36.7884 29.9093 37.1317 29.7306 37.3584 29.4458V29.8299H38.0726V28.2474V28.2474ZM20.1576 27.2014C20.6177 27.2014 20.9129 27.4795 20.9884 27.9693H19.2856C19.3612 27.5126 19.6496 27.2014 20.1576 27.2014H20.1576ZM20.1714 26.5857C19.21 26.5857 18.5372 27.2611 18.5372 28.2474C18.5372 29.2538 19.2376 29.9093 20.2194 29.9093C20.7139 29.9093 21.167 29.7898 21.5654 29.4657L21.2151 28.9558C20.9404 29.1677 20.5901 29.2869 20.2607 29.2869C19.8006 29.2869 19.3817 29.0817 19.2787 28.5122H21.7163C21.7232 28.4261 21.73 28.3401 21.73 28.2474C21.7232 27.261 21.0914 26.5857 20.1714 26.5857ZM28.7889 28.2474C28.7889 27.6912 29.1664 27.2345 29.7845 27.2345C30.3751 27.2345 30.7734 27.6713 30.7734 28.2474C30.7734 28.8234 30.3751 29.2604 29.7845 29.2604C29.1664 29.2604 28.7889 28.8036 28.7889 28.2474ZM31.4464 28.2474V26.6652H30.7322V27.0491C30.5056 26.7644 30.1622 26.5857 29.6952 26.5857C28.7751 26.5857 28.0542 27.2808 28.0542 28.2474C28.0542 29.2141 28.7752 29.9093 29.6952 29.9093C30.1622 29.9093 30.5056 29.7306 30.7322 29.4458V29.8299H31.4464V28.2474ZM24.7582 28.2474C24.7582 29.2075 25.4517 29.9093 26.5093 29.9093C27.0036 29.9093 27.3331 29.8034 27.6903 29.5319L27.3469 28.9757C27.0792 29.1611 26.7977 29.2604 26.4886 29.2604C25.9186 29.2538 25.4998 28.8564 25.4998 28.2474C25.4998 27.6384 25.9186 27.241 26.4886 27.2345C26.7977 27.2345 27.0792 27.3337 27.3469 27.5191L27.6903 26.9631C27.3331 26.6916 27.0036 26.5856 26.5093 26.5856C25.4517 26.5856 24.7582 27.2874 24.7582 28.2473V28.2474ZM33.9596 26.5857C33.5475 26.5857 33.2797 26.7712 33.0943 27.0491V26.6652H32.3869V29.8299H33.1011V28.0554C33.1011 27.5324 33.3346 27.241 33.8017 27.241C33.9459 27.241 34.097 27.261 34.248 27.3205L34.4678 26.6717C34.3096 26.6122 34.1035 26.5856 33.9596 26.5856V26.5857ZM14.8291 26.9167C14.4858 26.6983 14.012 26.5857 13.4903 26.5857C12.6593 26.5857 12.1237 26.9697 12.1237 27.5986C12.1237 28.115 12.5219 28.4328 13.2568 28.5321L13.5932 28.5785C13.9846 28.6313 14.1701 28.7307 14.1701 28.9096C14.1701 29.1544 13.909 29.2935 13.4216 29.2935C12.9272 29.2935 12.5701 29.1413 12.3297 28.9624L11.9933 29.4989C12.3845 29.7766 12.8791 29.9093 13.4146 29.9093C14.3622 29.9093 14.9114 29.479 14.9114 28.8765C14.9114 28.3202 14.4788 28.0289 13.7648 27.9296L13.4283 27.8833C13.1192 27.8435 12.8721 27.7841 12.8721 27.5722C12.8721 27.3405 13.1055 27.2014 13.497 27.2014C13.9157 27.2014 14.321 27.3538 14.5202 27.4729L14.8291 26.9167H14.8291ZM24.0372 26.5857C23.6253 26.5857 23.3574 26.7712 23.172 27.0491V26.6652H22.4648V29.8299H23.1789V28.0554C23.1789 27.5324 23.4122 27.241 23.8794 27.241C24.0235 27.241 24.1746 27.261 24.3256 27.3205L24.5453 26.6717C24.3875 26.6122 24.1814 26.5856 24.0372 26.5856V26.5857ZM17.9467 26.6652H16.7793V25.7052H16.0583V26.6652H15.3922V27.2942H16.0583V28.7373C16.0583 29.4723 16.3535 29.9093 17.1981 29.9093C17.5071 29.9093 17.8641 29.8163 18.0908 29.6644L17.8848 29.0751C17.6719 29.1941 17.4384 29.2538 17.253 29.2538C16.8959 29.2538 16.7793 29.042 16.7793 28.724V27.2942H17.9467V26.6652ZM7.27589 29.8299V27.8435C7.27589 27.0955 6.78152 26.5923 5.98501 26.5857C5.56607 26.5791 5.1335 26.7049 4.83137 27.1484C4.60477 26.7976 4.24774 26.5857 3.74645 26.5857C3.39623 26.5857 3.05283 26.685 2.78515 27.0558V26.6652H2.0708V29.8299H2.79196V28.0753C2.79196 27.5258 3.10782 27.2345 3.59529 27.2345C4.06912 27.2345 4.30954 27.5324 4.30954 28.0686V29.8299H5.03052V28.0753C5.03052 27.5258 5.3601 27.2345 5.83394 27.2345C6.32141 27.2345 6.55482 27.5324 6.55482 28.0686V29.8299H7.27589Z" fill="black"/>
<path d="M14.5919 21.2885H25.4082V2.54822H14.5919V21.2885Z" fill="#FF5F00"/>
<path d="M15.2787 11.9183C15.2787 8.1164 17.1251 4.73044 20 2.54816C17.8975 0.952128 15.2443 0 12.3608 0C5.53412 0 0 5.33613 0 11.9183C0 18.5006 5.53412 23.8366 12.3608 23.8366C15.2443 23.8366 17.8975 22.8844 20 21.2884C17.1251 19.1062 15.2787 15.7202 15.2787 11.9183Z" fill="#EB001B"/>
<path d="M39.6141 19.3036V18.8411H39.4891L39.3448 19.1593L39.2006 18.8411H39.0753V19.3036H39.1639V18.9548L39.2988 19.2555H39.3905L39.5258 18.954V19.3036H39.6141ZM38.8208 19.3036V18.92H38.9812V18.8419H38.5726V18.92H38.7329V19.3036H38.8208ZM40 11.9183C40 18.5006 34.4661 23.8366 27.6394 23.8366C24.7558 23.8366 22.1027 22.8844 20 21.2884C22.8751 19.1062 24.7215 15.7202 24.7215 11.9183C24.7215 8.1164 22.8751 4.73044 20 2.54816C22.1027 0.952128 24.7558 0 27.6394 0C34.4661 0 40 5.33613 40 11.9183Z" fill="#F79E1B"/>
</g>
<defs>
<clipPath id="clip0">
<rect width="40" height="30" fill="white"/>
</clipPath>
</defs>
</svg>
