<svg width="52" height="15" viewBox="0 0 52 15" fill="none" xmlns="http://www.w3.org/2000/svg">
<g clip-path="url(#clip0)">
<path d="M28.952 1.58437L25.667 8.86362H25.3337V-9.19108e-05H20.6669V14.9999H24.6273C25.6675 14.9999 26.6127 14.3814 27.0487 13.4155L30.3338 6.13629H30.6671V14.9999H35.3337V-0.00012207H31.3732C30.3332 -0.00012207 29.3878 0.61845 28.952 1.58434L28.952 1.58437Z" fill="#35973F"/>
<path d="M11.4441 1.97138L9.50006 8.86359H9.16677L7.22287 1.97138C6.89353 0.803933 5.84874 0 4.66066 0H0V15H4.6668V6.13641H5.00009L7.66678 15H11.0001L13.6668 6.13641H14.0002V15H18.6669V0H14.0064C12.8182 0 11.7734 0.803933 11.4442 1.97138H11.4441Z" fill="#35973F"/>
<path d="M37.3339 6.81812V14.9999H41.9915V10.2272H47.0006C49.1768 10.2272 51.0229 8.80285 51.7099 6.81812H37.3339H37.3339Z" fill="#35973F"/>
<path fill-rule="evenodd" clip-rule="evenodd" d="M43.6579 6.13272V6.12639H43.5007C43.3486 6.11858 43.1975 6.10624 43.048 6.08908V6.08612H43.024C42.986 6.08163 42.9481 6.07678 42.9103 6.07171V6.06607H42.8684C42.8363 6.06158 42.8045 6.0566 42.7726 6.05168V6.04592H42.7344C42.6283 6.02897 42.5229 6.00964 42.4184 5.98808V5.98557H42.4055C42.3835 5.98102 42.3617 5.97586 42.3397 5.97116V5.96546H42.3139C42.2897 5.96009 42.2654 5.95502 42.2413 5.94938V5.94534H42.2247L42.1626 5.93017V5.92519H42.1424C42.1163 5.91874 42.0902 5.91232 42.0642 5.90553V5.90508H42.0625C41.9905 5.88632 41.9189 5.86635 41.8478 5.84542V5.84473H41.8455L41.7888 5.82808V5.82461H41.7768C41.7611 5.81982 41.7455 5.81457 41.7298 5.80968V5.80456H41.7136L41.6708 5.79092V5.78441H41.6502L41.5921 5.76514V5.76429H41.5895L41.533 5.74496V5.74418H41.5307C41.5118 5.73766 41.4928 5.73139 41.474 5.72478V5.72403H41.4718C41.3998 5.69848 41.3286 5.67143 41.2576 5.64365V5.64353H41.2573C41.2246 5.63069 41.1918 5.61787 41.1592 5.60457V5.6033H41.1562L41.1199 5.58807V5.58315H41.1082L41.0609 5.56331V5.56304H41.0601L41.0215 5.54666V5.54289H41.013L40.9821 5.5292V5.52281H40.9678L40.9231 5.5029V5.50266H40.9225C40.9096 5.49684 40.8966 5.49138 40.8838 5.48544V5.48254H40.8776C40.7801 5.43776 40.6838 5.39083 40.5886 5.34188V5.3417H40.5883C40.5289 5.31112 40.4701 5.27957 40.4116 5.24742V5.24109H40.4001L40.3722 5.22561V5.22094H40.3638L40.3328 5.20378V5.20082H40.3275L40.2934 5.18119V5.18068H40.2926C40.193 5.12346 40.095 5.06387 39.9984 5.00216V4.9996H39.9944C39.976 4.98783 39.9576 4.97616 39.9393 4.96422V4.95936H39.9318L39.8803 4.92513V4.9191H39.8713L39.8213 4.88538V4.87887H39.8117C39.708 4.80808 39.6063 4.73462 39.5065 4.6587V4.6575H39.5049L39.4868 4.64359V4.63738H39.4788L39.4278 4.59802V4.59718H39.4267L39.4081 4.58279V4.57703H39.4008C39.3768 4.55809 39.3532 4.5387 39.3294 4.51949V4.51668H39.3259L39.3098 4.50368V4.49657H39.3009C39.2774 4.47735 39.2543 4.4579 39.231 4.43839V4.43622H39.2284C39.1896 4.40358 39.1511 4.37062 39.113 4.3372V4.3356H39.1111C39.0587 4.28964 39.0068 4.24292 38.9556 4.19545V4.1947H38.9548L38.9359 4.17736V4.17461H38.9329L38.9162 4.15887V4.15447H38.9117L38.8966 4.13999V4.13435H38.8907L38.8769 4.12117V4.1142H38.8696C38.7572 4.00656 38.648 3.89534 38.5424 3.7807V3.77213H38.5345L38.5227 3.75929V3.75199H38.516L38.5031 3.7379V3.73187H38.4975L38.4834 3.7164V3.71178H38.4793L38.4637 3.69411V3.69167H38.4615L38.444 3.67182V3.67155H38.4438C38.3973 3.61901 38.3513 3.56587 38.3063 3.51201V3.51059H38.3051C38.2723 3.47135 38.2399 3.43175 38.2079 3.39185V3.38986H38.2063C38.187 3.36579 38.1679 3.34161 38.1489 3.3173V3.30937H38.1428L38.1292 3.2919V3.28922H38.1271C38.1081 3.26458 38.089 3.24 38.0702 3.21512V3.20872H38.0654C38.0472 3.18442 38.0291 3.16008 38.0111 3.13556V3.12826H38.0057L37.9915 3.10905V3.10814H37.9908C37.9303 3.02493 37.8715 2.94027 37.8144 2.85444V2.84657H37.809C37.7975 2.82923 37.7864 2.81167 37.775 2.79427V2.78622H37.7698C37.7584 2.76867 37.7469 2.7512 37.7357 2.73353V2.7259H37.7307L37.6964 2.6711V2.66552H37.6929L37.657 2.60752V2.60517H37.6555C37.6361 2.57335 37.617 2.54123 37.598 2.50905V2.50456H37.5953C37.5489 2.4259 37.5038 2.34628 37.4602 2.26576V2.26313H37.4588L37.4406 2.22902V2.22287H37.4373L37.4209 2.19214V2.18267H37.4158L37.4012 2.15516V2.14237H37.3948C37.3277 2.01278 37.2643 1.8808 37.2045 1.74683V1.73992H37.2014L37.1849 1.7025V1.69969H37.1836C37.1707 1.67013 37.158 1.64049 37.1455 1.61078V1.59908H37.1404L37.1258 1.56427V1.55879H37.1235C37.111 1.52832 37.0987 1.49765 37.0864 1.46695V1.45823H37.0829C37.0708 1.42756 37.0589 1.39674 37.0471 1.36589V1.35762H37.044C37.0107 1.27031 36.9789 1.18218 36.9487 1.0933V1.0759H36.943L36.929 1.03386V1.01549H36.9229L36.9094 0.974535V0.955142H36.9032L36.8897 0.911109V0.894793H36.8846L36.87 0.84699V0.834384H36.8662L36.8503 0.780639V0.774034H36.8484C36.8211 0.679967 36.7954 0.585175 36.7716 0.48963V0.472167H36.7675C36.7621 0.450422 36.7571 0.428647 36.7519 0.406872V0.391702H36.7483L36.7323 0.3233V0.291059H36.7254L36.7126 0.231615V0.210564H36.7081L36.6929 0.13619V0.130098H36.6918C36.6854 0.0980986 36.6792 0.0659184 36.6732 0.0337683V0.0294857H36.6724L36.6686 0.00939941H47.301C47.3791 0.0141345 47.4566 0.0207997 47.5337 0.0291841V0.0294555H47.5367C47.5818 0.0343715 47.6266 0.0398907 47.6714 0.0460433V0.0495719H47.6953C47.7267 0.0540355 47.7582 0.0585896 47.7894 0.0636564V0.0696883H47.8243C47.8587 0.0755091 47.893 0.0816014 47.9271 0.0881761V0.0898349H47.9354C47.9987 0.10205 48.0615 0.11538 48.1239 0.130038H48.1239C48.1503 0.13619 48.1764 0.142886 48.2026 0.14943V0.150184H48.2055C48.2242 0.154919 48.243 0.159534 48.2616 0.16451V0.170331H48.2827L48.3403 0.186255V0.190477H48.3556C48.3768 0.19657 48.3979 0.203024 48.419 0.209418V0.210564H48.4228C48.501 0.234299 48.5785 0.259905 48.6551 0.28735V0.291059H48.6655L48.7141 0.308793V0.311176H48.7204C48.7512 0.322697 48.782 0.334399 48.8125 0.346553V0.351469H48.8245L48.8716 0.370801V0.371585H48.8735C48.919 0.390405 48.9644 0.409858 49.0093 0.430004V0.431935H49.0136L49.0486 0.447949V0.452051H49.0574C49.1887 0.512732 49.3171 0.578842 49.4421 0.650471V0.653215H49.4467C49.4782 0.671311 49.5094 0.689648 49.5405 0.708437V0.713625H49.5489L49.5798 0.732836V0.733741H49.5814C49.6006 0.745594 49.6198 0.757296 49.6389 0.76939V0.773944H49.6458C49.6765 0.793578 49.707 0.813483 49.7372 0.83372V0.834293H49.738C49.8044 0.878839 49.8698 0.925043 49.934 0.972665V0.975168H49.9373C49.9627 0.993988 49.9877 1.01299 50.0127 1.03226V1.03552H50.017C50.042 1.05491 50.0667 1.07469 50.0914 1.09454V1.0959H50.0931C50.1802 1.16611 50.2649 1.23928 50.3471 1.31516V1.31721H50.3494L50.3668 1.33313V1.33735H50.3715L50.3865 1.35174V1.3575H50.3926C50.4857 1.44557 50.5755 1.53728 50.6619 1.63225V1.63922H50.6683L50.6816 1.65382V1.65931H50.6866L50.7013 1.67568V1.67945H50.7046L50.721 1.69827V1.69957H50.7221C50.7895 1.77639 50.8549 1.85504 50.9177 1.93599V1.941H50.9216C50.9402 1.96506 50.9585 1.98949 50.9767 2.01389V2.02149H50.9825L50.9964 2.04031V2.04161H50.9974C51.0103 2.05916 51.023 2.07693 51.0357 2.09466V2.10196H51.041L51.0554 2.12192V2.12211H51.0555C51.0688 2.14086 51.0817 2.15993 51.0948 2.17893V2.18252H51.0973C51.1369 2.24042 51.1754 2.2992 51.2128 2.35883V2.36362H51.2158C51.2279 2.38314 51.2403 2.40253 51.2521 2.42219V2.42397H51.2532L51.2718 2.4554V2.46417H51.277C51.2884 2.48339 51.3 2.50257 51.3112 2.52196V2.52458H51.3126L51.3308 2.55704V2.56479H51.3352C51.3747 2.63488 51.4126 2.70605 51.4488 2.77817V2.78616H51.4529L51.4685 2.81734V2.82636H51.473L51.4882 2.85791V2.86662H51.4923L51.5079 2.89947V2.90689H51.5114L51.5276 2.94112V2.94712H51.5302L51.5472 2.98515V2.98738H51.5482C51.5825 3.06393 51.6149 3.1415 51.6456 3.22003V3.22881H51.649C51.6613 3.26048 51.6732 3.2923 51.6849 3.3243V3.32942H51.6868L51.7046 3.37819V3.38977H51.7086C51.743 3.48806 51.7744 3.58786 51.8029 3.68883V3.69164H51.8037C51.8102 3.71444 51.8165 3.73733 51.8226 3.76031V3.7721H51.8257C51.8313 3.7931 51.837 3.81403 51.8423 3.8352V3.8526H51.8466C51.852 3.8741 51.8569 3.89573 51.862 3.91729V3.9331H51.8657C51.8713 3.95695 51.8765 3.98084 51.8817 4.00478V4.01356H51.8836C51.8971 4.07665 51.9097 4.14008 51.921 4.20402V4.21479H51.9228C51.9291 4.25119 51.9351 4.28768 51.9407 4.32436V4.35566H51.9451C51.9506 4.39342 51.9557 4.43136 51.9604 4.46939V4.49648H51.9635C51.9698 4.54986 51.9753 4.60354 51.98 4.65744V4.6977H51.9835C51.9931 4.81852 51.9986 4.94052 51.9997 5.06354V5.19557C51.9979 5.30548 51.9928 5.41459 51.9844 5.52268H51.98V5.57549C51.9751 5.63195 51.9691 5.68808 51.9624 5.744H51.9604V5.76031C51.956 5.79521 51.9513 5.83007 51.9463 5.86475H51.9407V5.90303C51.9355 5.93732 51.9298 5.97146 51.924 6.00557H51.921V6.02285C51.9149 6.05747 51.9086 6.09198 51.9018 6.12633H51.9013V6.12844L51.8998 6.13631H43.8751C43.8024 6.13631 43.73 6.13483 43.6577 6.13266L43.6579 6.13272Z" fill="url(#paint0_linear)"/>
</g>
<defs>
<linearGradient id="paint0_linear" x1="36.6819" y1="-0.401736" x2="52.0004" y2="-0.401736" gradientUnits="userSpaceOnUse">
<stop stop-color="#31A3DC"/>
<stop offset="1" stop-color="#3373B8"/>
</linearGradient>
<clipPath id="clip0">
<rect width="52" height="15" fill="white"/>
</clipPath>
</defs>
</svg>
