<svg width="50" height="50" viewBox="0 0 50 50" fill="none" xmlns="http://www.w3.org/2000/svg">
<g clip-path="url(#clip0)">
<path d="M35.896 12.4549C35.896 12.4549 38.2707 10.6505 42.6302 11.2231C46.9897 11.7957 50 16.6683 50 22.8945C50 29.703 46.082 35.9116 40.7417 35.9116C34.512 35.9116 32.6218 32.189 32.6218 32.189L36.12 30.0943C36.12 30.0943 37.426 32.4841 41.5101 32.4841C44.4955 32.4841 47.5871 28.1168 47.6286 23.3917C47.6701 18.6667 45.4182 13.6065 41.3142 13.6065C37.2103 13.6065 36.2627 18.6715 36.2627 18.6715L35.896 12.4549Z" fill="url(#paint0_linear)"/>
<path d="M6.89478 39.0552C6.89478 39.0552 8.17258 44 22.0343 44C35.896 44 37.1307 39.0552 37.1307 39.0552V7.54211H6.89478V39.0552Z" fill="url(#paint1_linear)"/>
<path d="M37.1307 8.77417V7.54053H36.8818C36.8818 7.55015 36.8336 8.4788 32.6683 9.29999C29.8239 9.85974 26.0403 10.1693 22.0127 10.1693C17.9851 10.1693 14.2015 9.86134 11.3571 9.29999C7.19182 8.4804 7.1437 7.55015 7.1437 7.54213H6.89478V8.77578C7.30633 9.28581 8.39495 9.93378 11.2874 10.5048C14.155 11.0677 17.9636 11.3789 22.0127 11.3789C26.0619 11.3789 29.8704 11.0677 32.738 10.5032C35.6305 9.93378 36.7208 9.28421 37.1307 8.77417Z" fill="url(#paint2_linear)"/>
<path d="M6.89478 39.0552L37.1307 7.54211H6.89478V39.0552Z" fill="url(#paint3_linear)" fill-opacity="0.5"/>
<path d="M22.0127 10.0843C30.3621 10.0843 37.1307 8.94615 37.1307 7.54215C37.1307 6.13816 30.3621 5 22.0127 5C13.6633 5 6.89478 6.13816 6.89478 7.54215C6.89478 8.94615 13.6633 10.0843 22.0127 10.0843Z" fill="url(#paint4_linear)"/>
</g>
<defs>
<linearGradient id="paint0_linear" x1="35.1507" y1="23.4887" x2="50.1021" y2="23.553" gradientUnits="userSpaceOnUse">
<stop stop-color="#0071BB"/>
<stop offset="0.8234" stop-color="#19B6F3"/>
</linearGradient>
<linearGradient id="paint1_linear" x1="9.57201" y1="17.6036" x2="37.4375" y2="32.8074" gradientUnits="userSpaceOnUse">
<stop offset="0.1134" stop-color="#52D7FA"/>
<stop offset="1" stop-color="#0071BB"/>
</linearGradient>
<linearGradient id="paint2_linear" x1="14.1076" y1="3.9801" x2="32.087" y2="13.7899" gradientUnits="userSpaceOnUse">
<stop offset="0.00558659" stop-color="#C7F3FF"/>
<stop offset="1" stop-color="#09ADF1"/>
</linearGradient>
<linearGradient id="paint3_linear" x1="9.43038" y1="11.9193" x2="22.032" y2="22.0786" gradientUnits="userSpaceOnUse">
<stop stop-color="white"/>
<stop offset="0.911458" stop-color="white" stop-opacity="0"/>
</linearGradient>
<linearGradient id="paint4_linear" x1="14.221" y1="3.57019" x2="32.0439" y2="13.2947" gradientUnits="userSpaceOnUse">
<stop stop-color="#0071BB"/>
<stop offset="1" stop-color="#47CFF9"/>
</linearGradient>
<clipPath id="clip0">
<rect width="50" height="50" fill="white"/>
</clipPath>
</defs>
</svg>
