<svg width="90" height="90" viewBox="0 0 90 90" fill="none" xmlns="http://www.w3.org/2000/svg">
<g clip-path="url(#clip0)">
<path d="M71.3484 42.5258L67.9919 29.22C65.9969 21.3113 62.5028 13.8587 57.6993 7.26667L53.1765 1.05967C52.1009 -0.416505 49.8737 -0.336741 48.9065 1.21249C46.9386 4.36426 47.0491 8.38779 49.1865 11.4268L51.6545 14.9357C51.6524 14.934 51.6504 14.9322 51.6483 14.9306C51.2897 14.6347 50.9223 14.3391 50.5547 14.0521L44.4952 9.3372C43.0521 8.20779 40.9367 8.89797 40.4346 10.6549C40.1925 11.4974 40.0761 12.358 40.0761 13.2097C40.0761 15.9616 41.3041 18.6148 43.5181 20.3986L49.0577 24.8716C50.0966 25.7089 51.0793 26.6096 52.0016 27.5668L46.6441 25.4753C42.7619 23.9597 38.4896 23.7598 34.4828 24.9063L23.0147 28.8732C21.5382 29.2957 20.8535 30.9949 21.6246 32.3232C23.8669 36.1849 28.5271 37.9221 32.7501 36.4704L38.0588 34.0747C40.4214 33.2626 43.0293 33.6183 45.088 35.0336L50.8658 39.006C52.6427 40.2275 53.5738 42.3506 53.2688 44.485C53.0177 46.2425 51.9587 47.7811 50.4068 48.6434L42.1423 53.2348C38.9331 55.0178 34.9342 54.4851 32.3036 51.9241C30.7397 50.4019 29.8371 48.3259 29.7903 46.144L29.8563 45.6443C30.6428 39.6877 25.9025 34.446 19.8972 34.6316C18.2417 34.6828 16.9598 36.0986 17.0726 37.7511L17.8872 49.6791C18.046 52.0055 18.9054 54.2292 20.3523 56.058L29.9309 68.1638C31.6379 70.3212 33.9617 71.9075 36.5927 72.7115C43.5458 74.8362 50.9465 75.0257 57.9991 73.26L59.0786 72.9898C62.9135 72.0296 66.1374 69.4415 67.9037 65.9048L70.6221 60.4623C73.5488 54.6028 73.5912 48.1087 71.3484 42.5258Z" fill="url(#paint0_radial)"/>
<path d="M43.5185 20.3987L49.0581 24.8717C50.0969 25.709 51.0797 26.6097 52.0019 27.5669L58.6545 30.164L58.3344 28.7138C57.4254 24.5959 55.7082 20.6992 53.2821 17.2497L51.6548 14.936C51.6527 14.9343 51.6508 14.9325 51.6487 14.9309C51.2901 14.635 50.9226 14.3394 50.5551 14.0524L44.4956 9.33751C43.0524 8.2081 40.9371 8.89827 40.435 10.6552C40.1929 11.4977 40.0764 12.3583 40.0764 13.21C40.0762 15.9617 41.3043 18.6149 43.5185 20.3987Z" fill="url(#paint1_linear)"/>
<path d="M53.2812 17.2498C55.7073 20.6993 57.4246 24.5959 58.3336 28.7139L58.6537 30.1641L59.0027 30.3003C64.891 32.599 69.1835 37.138 71.3479 42.5259L67.9914 29.22C65.9964 21.3113 62.5023 13.8587 57.6988 7.26667L53.176 1.05967C52.1004 -0.416505 49.8732 -0.336741 48.906 1.2125C46.9381 4.36426 47.0486 8.38779 49.186 11.4268L53.2812 17.2498Z" fill="url(#paint2_linear)"/>
<path d="M72.1573 84.7592V75.7569C72.1573 72.8625 69.811 70.5161 66.9165 70.5161H28.6997C25.8052 70.5161 23.4589 72.8625 23.4589 75.7569V84.7592C23.4589 87.6537 25.8052 90.0001 28.6997 90.0001H66.9167C69.811 90.0001 72.1573 87.6537 72.1573 84.7592Z" fill="url(#paint3_linear)"/>
<path d="M66.9172 70.5161H32.2125L32.5579 70.6915L51.8662 89.9999H66.9172C69.8117 89.9999 72.1581 87.6535 72.1581 84.7591V75.7569C72.1579 72.8625 69.8115 70.5161 66.9172 70.5161Z" fill="url(#paint4_linear)"/>
</g>
<defs>
<radialGradient id="paint0_radial" cx="0" cy="0" r="1" gradientUnits="userSpaceOnUse" gradientTransform="translate(45.064 31.2776) scale(36.7804)">
<stop stop-color="#FCCECE"/>
<stop offset="0.5379" stop-color="#FCCCCD"/>
<stop offset="0.7317" stop-color="#FCC5CB"/>
<stop offset="0.8694" stop-color="#FBBAC8"/>
<stop offset="0.9803" stop-color="#FBA9C3"/>
<stop offset="1" stop-color="#FBA5C2"/>
</radialGradient>
<linearGradient id="paint1_linear" x1="52.0976" y1="16.4671" x2="46.9199" y2="24.2337" gradientUnits="userSpaceOnUse">
<stop stop-color="#FCCECE"/>
<stop offset="1" stop-color="#FBA5C2"/>
</linearGradient>
<linearGradient id="paint2_linear" x1="62.5346" y1="20.4524" x2="50.8876" y2="26.2759" gradientUnits="userSpaceOnUse">
<stop stop-color="#FCCECE"/>
<stop offset="1" stop-color="#FBA5C2"/>
</linearGradient>
<linearGradient id="paint3_linear" x1="29.3609" y1="69.9837" x2="67.3808" y2="91.1593" gradientUnits="userSpaceOnUse">
<stop stop-color="#3FA9F5"/>
<stop offset="1" stop-color="#666AD6"/>
</linearGradient>
<linearGradient id="paint4_linear" x1="73.7189" y1="88.1212" x2="11.9542" y2="52.4741" gradientUnits="userSpaceOnUse">
<stop stop-color="#3B8EAC" stop-opacity="0"/>
<stop offset="1" stop-color="#343168"/>
</linearGradient>
<clipPath id="clip0">
<rect width="90" height="90" fill="white"/>
</clipPath>
</defs>
</svg>
