<svg width="50" height="50" viewBox="0 0 50 50" fill="none" xmlns="http://www.w3.org/2000/svg">
<g clip-path="url(#clip0)">
<path d="M36.1715 41.728H10.978V5.27515H36.1715C37.5674 5.27515 38.7007 6.40509 38.7007 7.79704V39.1897C38.7007 40.598 37.5674 41.728 36.1715 41.728Z" fill="url(#paint0_radial)"/>
<path d="M34.5291 40.0904H9.33569V3.63757H34.5291C35.9251 3.63757 37.0583 4.76751 37.0583 6.15947V37.5521C37.0583 38.9605 35.9251 40.0904 34.5291 40.0904Z" fill="url(#paint1_radial)"/>
<path d="M32.8868 38.4528H7.69336V2H32.8868C34.2828 2 35.416 3.12994 35.416 4.52189V35.9146C35.416 37.3229 34.2828 38.4528 32.8868 38.4528Z" fill="url(#paint2_radial)"/>
<path d="M30.2592 20.472L10.0256 8.37019V5.71729L30.2592 17.8191V20.472Z" fill="url(#paint3_radial)"/>
<path d="M30.2592 27.0224L10.0256 14.9206V12.2677L30.2592 24.3695V27.0224Z" fill="url(#paint4_radial)"/>
<path d="M30.2592 33.5073L10.0256 21.4055V18.7362L30.2592 30.838V33.5073Z" fill="url(#paint5_radial)"/>
<path d="M30.2592 40.0576L10.0256 27.9558V25.2865L30.2592 37.3883V40.0576Z" fill="url(#paint6_radial)"/>
<path d="M29.4381 16.4927H15.0348C14.5749 16.4927 14.2136 16.1324 14.2136 15.6739V9.18904C14.2136 8.73051 14.5749 8.37024 15.0348 8.37024H29.4381C29.8979 8.37024 30.2592 8.73051 30.2592 9.18904V15.6739C30.2592 16.1324 29.8979 16.4927 29.4381 16.4927Z" fill="url(#paint7_linear)"/>
<path d="M10.0255 8.3702H6.14963C5.50912 8.3702 5 7.86255 5 7.22389V6.84724C5 6.20858 5.50912 5.70093 6.14963 5.70093H10.0255C10.6661 5.70093 11.1752 6.20858 11.1752 6.84724V7.22389C11.1752 7.86255 10.6661 8.3702 10.0255 8.3702Z" fill="url(#paint8_linear)"/>
<path d="M10.0255 14.9206H6.14963C5.50912 14.9206 5 14.413 5 13.7743V13.3977C5 12.759 5.50912 12.2513 6.14963 12.2513H10.0255C10.6661 12.2513 11.1752 12.759 11.1752 13.3977V13.7743C11.1752 14.413 10.6661 14.9206 10.0255 14.9206Z" fill="url(#paint9_linear)"/>
<path d="M10.0255 21.4055H6.14963C5.50912 21.4055 5 20.8978 5 20.2592V19.8825C5 19.2439 5.50912 18.7362 6.14963 18.7362H10.0255C10.6661 18.7362 11.1752 19.2439 11.1752 19.8825V20.2592C11.1752 20.8978 10.6661 21.4055 10.0255 21.4055Z" fill="url(#paint10_linear)"/>
<path d="M10.0255 28.0213H6.14963C5.50912 28.0213 5 27.5137 5 26.875V26.4984C5 25.8597 5.50912 25.3521 6.14963 25.3521H10.0255C10.6661 25.3521 11.1752 25.8597 11.1752 26.4984V26.875C11.1752 27.5137 10.6661 28.0213 10.0255 28.0213Z" fill="url(#paint11_linear)"/>
<path d="M10.0255 34.6537H6.14963C5.50912 34.6537 5 34.146 5 33.5073V33.1307C5 32.492 5.50912 31.9844 6.14963 31.9844H10.0255C10.6661 31.9844 11.1752 32.492 11.1752 33.1307V33.5073C11.1752 34.1296 10.6661 34.6537 10.0255 34.6537Z" fill="url(#paint12_linear)"/>
<path d="M38.2243 22.1588L28.2554 39.1079L28.863 48L36.9926 44.2008L46.9452 27.2517L38.2243 22.1588Z" fill="#FF9855"/>
<path d="M38.8647 21.078L40.6877 17.983C41.9031 15.9032 44.5801 15.2154 46.6658 16.4273L47.8483 17.115C49.9341 18.3269 50.6239 20.9961 49.4085 23.0759L47.5855 26.1709L38.8647 21.078Z" fill="url(#paint13_radial)"/>
<path d="M28.6331 44.5283L28.863 48L32.0655 46.5098L28.6331 44.5283Z" fill="#352B2A"/>
<path d="M28.2554 39.0916L30.5875 38.4856L31.1952 40.7619L33.4287 40.1887L34.0364 42.465L36.3028 41.8755L36.9926 44.2009L47.3393 26.5967L38.5857 21.4874L28.2554 39.0916Z" fill="#FFC231"/>
<path d="M31.1787 40.7456L41.2627 23.5836L38.3557 21.8805L28.2554 39.0916L30.5875 38.4857L31.1787 40.7456Z" fill="#FA9F10"/>
<path d="M34.1021 42.4486L36.3028 41.8754L36.9926 44.1845L47.0929 26.9897L44.186 25.2866L34.1021 42.4486Z" fill="#FCA112"/>
<path d="M37.1568 43.9225L36.467 41.5971L34.2006 42.1866L33.593 39.894L31.3594 40.4835L30.7517 38.1909L28.4196 38.7968L28.2554 39.0916L28.3046 39.3209L30.4233 38.7641L31.0145 41.0567L33.2645 40.4672L33.8557 42.7598L36.1386 42.1703L36.7791 44.2664L36.9926 44.2009L37.1568 43.9225Z" fill="#FF8839"/>
<path d="M47.8977 26.2364L38.6513 20.8324C38.4871 20.7341 38.29 20.7996 38.2079 20.947L37.6824 21.8313C37.5838 21.9951 37.6495 22.1916 37.7973 22.2734L47.0437 27.6775C47.2079 27.7758 47.405 27.7103 47.4871 27.5629L48.0126 26.6786C48.1112 26.5312 48.0455 26.3347 47.8977 26.2364Z" fill="url(#paint14_linear)"/>
</g>
<defs>
<radialGradient id="paint0_radial" cx="0" cy="0" r="1" gradientUnits="userSpaceOnUse" gradientTransform="translate(-3.58388 10.9704) scale(43.8881 43.7614)">
<stop offset="0.6337" stop-color="#FE4773"/>
<stop offset="1" stop-color="#8C0136"/>
</radialGradient>
<radialGradient id="paint1_radial" cx="0" cy="0" r="1" gradientUnits="userSpaceOnUse" gradientTransform="translate(12.4403 7.6952) scale(29.912 29.8256)">
<stop stop-color="white"/>
<stop offset="1" stop-color="#D4D4D4"/>
</radialGradient>
<radialGradient id="paint2_radial" cx="0" cy="0" r="1" gradientUnits="userSpaceOnUse" gradientTransform="translate(-6.86854 7.69522) scale(43.8881 43.7614)">
<stop offset="0.6337" stop-color="#FE4773"/>
<stop offset="1" stop-color="#C2014B"/>
</radialGradient>
<radialGradient id="paint3_radial" cx="0" cy="0" r="1" gradientUnits="userSpaceOnUse" gradientTransform="translate(4.50008 -1.50005) rotate(23.4986) scale(25.0799 25.0075)">
<stop stop-color="#EF165E" stop-opacity="0.7"/>
<stop offset="0.3405" stop-color="#F91E61" stop-opacity="0.3693"/>
<stop offset="0.7209" stop-color="#FF2263" stop-opacity="0"/>
</radialGradient>
<radialGradient id="paint4_radial" cx="0" cy="0" r="1" gradientUnits="userSpaceOnUse" gradientTransform="translate(2.50008 8.49999) rotate(19.44) scale(27.0416 26.9635)">
<stop stop-color="#EF165E" stop-opacity="0.7"/>
<stop offset="0.3405" stop-color="#F91E61" stop-opacity="0.3693"/>
<stop offset="0.7209" stop-color="#FF2263" stop-opacity="0"/>
</radialGradient>
<radialGradient id="paint5_radial" cx="0" cy="0" r="1" gradientUnits="userSpaceOnUse" gradientTransform="translate(5.8171 17.9253) rotate(-7.59749) scale(18.344 18.2911)">
<stop stop-color="#EF165E" stop-opacity="0.7"/>
<stop offset="0.3405" stop-color="#F91E61" stop-opacity="0.3693"/>
<stop offset="0.7209" stop-color="#FF2263" stop-opacity="0"/>
</radialGradient>
<radialGradient id="paint6_radial" cx="0" cy="0" r="1" gradientUnits="userSpaceOnUse" gradientTransform="translate(5.8171 24.4755) rotate(-26.1894) scale(15.8056 15.7599)">
<stop stop-color="#EF165E" stop-opacity="0.7"/>
<stop offset="0.3405" stop-color="#F91E61" stop-opacity="0.3693"/>
<stop offset="0.519532" stop-color="#FB2062" stop-opacity="0.230773"/>
<stop offset="0.7209" stop-color="#FF2263" stop-opacity="0"/>
</radialGradient>
<linearGradient id="paint7_linear" x1="30.1219" y1="14.2555" x2="14.4856" y2="10.6306" gradientUnits="userSpaceOnUse">
<stop stop-color="#FCA112"/>
<stop offset="1" stop-color="#FFC231"/>
</linearGradient>
<linearGradient id="paint8_linear" x1="5.74013" y1="6.06107" x2="10.8271" y2="8.20413" gradientUnits="userSpaceOnUse">
<stop stop-color="#BFBFBF"/>
<stop offset="0.0392615" stop-color="#C3C3C3"/>
<stop offset="0.2919" stop-color="#D9D9D9"/>
<stop offset="0.5456" stop-color="#C7C7C7"/>
<stop offset="1" stop-color="#ABABAB"/>
</linearGradient>
<linearGradient id="paint9_linear" x1="5.74013" y1="12.6115" x2="10.8271" y2="14.7545" gradientUnits="userSpaceOnUse">
<stop stop-color="#BFBFBF"/>
<stop offset="0.0392615" stop-color="#C3C3C3"/>
<stop offset="0.2919" stop-color="#D9D9D9"/>
<stop offset="0.5456" stop-color="#C7C7C7"/>
<stop offset="1" stop-color="#ABABAB"/>
</linearGradient>
<linearGradient id="paint10_linear" x1="5.74013" y1="19.0896" x2="10.8271" y2="21.2327" gradientUnits="userSpaceOnUse">
<stop stop-color="#BFBFBF"/>
<stop offset="0.0392615" stop-color="#C3C3C3"/>
<stop offset="0.2919" stop-color="#D9D9D9"/>
<stop offset="0.5456" stop-color="#C7C7C7"/>
<stop offset="1" stop-color="#ABABAB"/>
</linearGradient>
<linearGradient id="paint11_linear" x1="5.74013" y1="25.7122" x2="10.8271" y2="27.8553" gradientUnits="userSpaceOnUse">
<stop stop-color="#BFBFBF"/>
<stop offset="0.0392615" stop-color="#C3C3C3"/>
<stop offset="0.2919" stop-color="#D9D9D9"/>
<stop offset="0.5456" stop-color="#C7C7C7"/>
<stop offset="1" stop-color="#ABABAB"/>
</linearGradient>
<linearGradient id="paint12_linear" x1="5.74013" y1="32.3349" x2="10.8271" y2="34.4779" gradientUnits="userSpaceOnUse">
<stop stop-color="#BFBFBF"/>
<stop offset="0.0392615" stop-color="#C3C3C3"/>
<stop offset="0.2919" stop-color="#D9D9D9"/>
<stop offset="0.5456" stop-color="#C7C7C7"/>
<stop offset="1" stop-color="#ABABAB"/>
</linearGradient>
<radialGradient id="paint13_radial" cx="0" cy="0" r="1" gradientUnits="userSpaceOnUse" gradientTransform="translate(41.0794 15.5992) rotate(30.2931) scale(10.7516 10.7363)">
<stop stop-color="#FF2423"/>
<stop offset="1" stop-color="#C90001"/>
</radialGradient>
<linearGradient id="paint14_linear" x1="37.9322" y1="21.3897" x2="47.7386" y2="27.1517" gradientUnits="userSpaceOnUse">
<stop stop-color="#D5CBC9"/>
<stop offset="1" stop-color="#A69797"/>
</linearGradient>
<clipPath id="clip0">
<rect width="50" height="50" fill="white"/>
</clipPath>
</defs>
</svg>
