<svg width="36" height="36" viewBox="0 0 36 36" fill="none" xmlns="http://www.w3.org/2000/svg">
<g clip-path="url(#clip0)">
<path d="M1.06434 36.0002H20.223C20.7557 36.0002 21.1955 35.5864 21.2301 35.0548C21.7081 27.7185 27.7065 21.8502 35.0534 21.3825C35.5856 21.3486 36.0003 20.9085 36.0003 20.3752V1.06434C36.0003 0.466743 35.5075 -0.0170688 34.9102 0.000719443C15.8856 0.566272 0.566273 15.8856 0.00071951 34.9101C-0.0170687 35.5075 0.466673 36.0002 1.06434 36.0002Z" fill="url(#paint0_radial)"/>
<path d="M5.49634 36H20.2227C20.7553 36 21.1952 35.5861 21.2298 35.0546C21.7078 27.7181 27.706 21.8499 35.0531 21.3822C35.5853 21.3483 36 20.9082 36 20.3749V5.49634C19.1534 5.49634 5.49634 19.1534 5.49634 36Z" fill="url(#paint1_radial)"/>
<path d="M10.5328 35.9999H20.2226C20.7553 35.9999 21.1951 35.5861 21.2298 35.0546C21.7077 27.718 27.706 21.8499 35.053 21.3822C35.5852 21.3483 35.9999 20.9082 35.9999 20.3749V10.5328C21.9346 10.5328 10.5328 21.9346 10.5328 35.9999Z" fill="url(#paint2_radial)"/>
<path d="M16.0587 36H20.2227C20.7554 36 21.1952 35.5861 21.2299 35.0546C21.7078 27.7181 27.7061 21.8499 35.0531 21.3822C35.5853 21.3483 36 20.9082 36 20.3749V16.0587C24.9865 16.0586 16.0587 24.9865 16.0587 36Z" fill="url(#paint3_radial)"/>
<path d="M29.6796 22.7675C27.8641 23.6251 26.2455 24.8392 24.9219 26.3181L10.0116 11.4084C9.96783 11.3399 9.92406 11.2729 9.87818 11.2058C9.8083 11.0999 9.73559 10.9962 9.66077 10.8931C9.68124 10.8536 9.70383 10.8148 9.725 10.7759C9.73771 10.7541 9.74971 10.7315 9.76241 10.7089C9.78571 10.6694 9.81041 10.6298 9.83441 10.5903C9.85277 10.5614 9.87112 10.5331 9.88947 10.5042C9.91347 10.4682 9.93677 10.4322 9.96218 10.3969C9.9883 10.3588 10.0165 10.3214 10.0441 10.2839C10.0716 10.2465 10.0998 10.2098 10.1288 10.1731C10.1676 10.1244 10.2064 10.0764 10.2474 10.0291C10.2671 10.0065 10.2876 9.98394 10.3081 9.96135C10.3462 9.919 10.3857 9.87735 10.4252 9.83641C10.4443 9.81665 10.4634 9.79759 10.4824 9.77853C10.5417 9.71923 10.6024 9.66135 10.6659 9.60488L13.6243 6.98394C13.6469 6.96347 13.6681 6.94159 13.6899 6.92041C13.8417 7.03053 13.9963 7.13782 14.153 7.24088L29.6796 22.7675Z" fill="url(#paint4_linear)"/>
<path d="M21.7354 32.1006C21.6444 32.4232 21.5646 32.7508 21.4968 33.0825C21.1919 33.0317 20.8827 32.978 20.5693 32.9216C20.4161 32.9498 20.2622 32.9787 20.1076 33.0056C19.6474 33.0868 19.1829 33.1595 18.7171 33.2265L8.56365 23.0696C8.41612 22.9729 8.41612 22.7533 8.56365 22.6573C9.22647 22.2232 9.79189 21.6529 10.2189 20.9858C10.3157 20.8355 10.538 20.8355 10.634 20.9858L21.7354 32.1006Z" fill="url(#paint5_linear)"/>
<path d="M22.9644 29.088C22.4583 30.0141 22.0503 31.0002 21.7545 32.0322L6.87168 17.1501C6.65003 16.8042 6.39097 16.4852 6.10156 16.1972C6.11568 16.14 6.13121 16.0835 6.14815 16.0278C6.15027 16.0214 6.15239 16.0151 6.1545 16.0087C6.17003 15.9586 6.18627 15.9092 6.20392 15.8598C6.20603 15.8534 6.20886 15.8464 6.21097 15.8393C6.2378 15.7666 6.26674 15.6946 6.2978 15.6247C6.33662 15.5351 6.37897 15.4482 6.42415 15.3635C6.42697 15.3593 6.42909 15.3551 6.43192 15.3501C6.45592 15.3049 6.48203 15.2605 6.50815 15.216C6.51239 15.2096 6.51592 15.2033 6.51944 15.1969C6.54768 15.1511 6.57662 15.1059 6.60627 15.0614C6.60768 15.06 6.60839 15.0579 6.6098 15.0565C6.67403 14.9612 6.7425 14.8694 6.81521 14.7812C6.81733 14.7776 6.82015 14.7748 6.82297 14.7713C6.85544 14.7325 6.88862 14.6936 6.9225 14.6555C6.92815 14.6499 6.9338 14.6435 6.93944 14.6372C6.97333 14.6005 7.00721 14.5645 7.0425 14.5292L7.0545 14.5172C7.09544 14.4762 7.13639 14.4367 7.17944 14.3979C7.21968 14.3612 7.26062 14.3259 7.30227 14.2906C7.3065 14.2871 7.31074 14.2842 7.31497 14.2807C7.35239 14.2496 7.3905 14.22 7.42862 14.1911C7.4378 14.184 7.44768 14.1769 7.45686 14.1699C7.49215 14.1438 7.52744 14.1184 7.56274 14.0936C7.57262 14.0873 7.5825 14.0802 7.59239 14.0739C7.63403 14.0456 7.67568 14.0181 7.71803 13.992C7.72086 13.9906 7.72368 13.9885 7.7265 13.9871C7.84721 14.1304 7.97639 14.268 8.1105 14.3986L8.12744 14.388C8.16839 14.4367 8.21074 14.4854 8.2538 14.5327C8.46909 14.7275 8.6985 14.9068 8.94203 15.0664L22.9644 29.088Z" fill="url(#paint6_linear)"/>
<path d="M36 14.4772L29.1282 7.57869C29.0321 7.42869 28.8095 7.42869 28.7133 7.57869C28.2857 8.24589 27.7205 8.81659 27.0576 9.25036C26.9105 9.34664 26.9105 9.56617 27.0576 9.66238L36 18.5911V14.4772Z" fill="url(#paint7_linear)"/>
<path d="M29.4638 12.8469C29.3677 12.6969 29.1451 12.6969 29.0489 12.8469C28.6213 13.5141 28.0561 14.0848 27.3932 14.5185C27.2461 14.6148 27.2461 14.8344 27.3932 14.9306L33.9652 21.4925C34.3242 21.4429 34.6868 21.4056 35.0531 21.3822C35.5852 21.3483 36 20.9082 36 20.3749V19.4083L29.4638 12.8469Z" fill="url(#paint8_linear)"/>
<path d="M14.1532 8.06486C12.8274 8.93232 11.6969 10.0737 10.8416 11.4082C10.6492 11.7083 10.2041 11.7083 10.0118 11.4082C9.15659 10.0737 8.02619 8.93232 6.70033 8.06493C6.40604 7.87236 6.40604 7.43337 6.70033 7.24081C8.02611 6.37335 9.15659 5.23194 10.0118 3.89754C10.2041 3.59747 10.6492 3.59747 10.8416 3.89754C11.6968 5.23201 12.8274 6.37342 14.1532 7.24088C14.4475 7.4333 14.4475 7.87229 14.1532 8.06486Z" fill="url(#paint9_linear)"/>
<path d="M8.94249 15.478C8.2796 15.9117 7.71433 16.4824 7.2867 17.1497C7.19056 17.2997 6.968 17.2997 6.87179 17.1497C6.44416 16.4825 5.87896 15.9117 5.21607 15.478C5.06889 15.3817 5.06896 15.1622 5.21607 15.066C5.87896 14.6323 6.44423 14.0616 6.87179 13.3943C6.96793 13.2442 7.19049 13.2442 7.2867 13.3943C7.71433 14.0615 8.2796 14.6322 8.94249 15.066C9.08967 15.1622 9.08967 15.3818 8.94249 15.478Z" fill="url(#paint10_linear)"/>
<path d="M31.1196 14.9305C30.4567 15.3642 29.8914 15.9349 29.4638 16.6022C29.3677 16.7522 29.1451 16.7522 29.0489 16.6022C28.6213 15.935 28.0561 15.3643 27.3932 14.9305C27.246 14.8342 27.2461 14.6147 27.3932 14.5185C28.0561 14.0848 28.6214 13.5141 29.0489 12.8468C29.145 12.6967 29.3676 12.6967 29.4638 12.8468C29.8914 13.514 30.4567 14.0847 31.1196 14.5185C31.2667 14.6147 31.2667 14.8342 31.1196 14.9305Z" fill="url(#paint11_linear)"/>
<path d="M12.2899 23.0694C11.627 23.5031 11.0618 24.0738 10.6341 24.7411C10.538 24.8912 10.3154 24.8912 10.2192 24.7411C9.7916 24.0739 9.2264 23.5032 8.56351 23.0694C8.41633 22.9731 8.41633 22.7536 8.56351 22.6574C9.2264 22.2237 9.79167 21.653 10.2192 20.9857C10.3154 20.8357 10.5379 20.8357 10.6341 20.9857C11.0618 21.6529 11.627 22.2236 12.2899 22.6574C12.437 22.7536 12.437 22.9731 12.2899 23.0694Z" fill="url(#paint12_linear)"/>
<path d="M30.7839 9.66231C30.121 10.096 29.5558 10.6667 29.1281 11.334C29.032 11.4841 28.8094 11.4841 28.7132 11.334C28.2856 10.6668 27.7204 10.0961 27.0575 9.66231C26.9103 9.56603 26.9104 9.3465 27.0575 9.25029C27.7204 8.8166 28.2857 8.24589 28.7132 7.57862C28.8094 7.42855 29.0319 7.42855 29.1281 7.57862C29.5558 8.24582 30.121 8.81652 30.7839 9.25029C30.9311 9.3465 30.9311 9.56603 30.7839 9.66231Z" fill="url(#paint13_linear)"/>
</g>
<defs>
<radialGradient id="paint0_radial" cx="0" cy="0" r="1" gradientUnits="userSpaceOnUse" gradientTransform="translate(18.8153 19.6305) scale(24.7972)">
<stop stop-color="#E4003D"/>
<stop offset="0.0394" stop-color="#E80C46"/>
<stop offset="0.1317" stop-color="#F12257"/>
<stop offset="0.2395" stop-color="#F73464"/>
<stop offset="0.3708" stop-color="#FC406D"/>
<stop offset="0.5503" stop-color="#FE4773"/>
<stop offset="1" stop-color="#FF4974"/>
</radialGradient>
<radialGradient id="paint1_radial" cx="0" cy="0" r="1" gradientUnits="userSpaceOnUse" gradientTransform="translate(28.699 29.8203) scale(21.2353)">
<stop stop-color="#FF90A4"/>
<stop offset="0.2011" stop-color="#FF94A0"/>
<stop offset="0.4131" stop-color="#FFA093"/>
<stop offset="0.6301" stop-color="#FFB37E"/>
<stop offset="0.8491" stop-color="#FFCE61"/>
<stop offset="1" stop-color="#FFE548"/>
</radialGradient>
<radialGradient id="paint2_radial" cx="0" cy="0" r="1" gradientUnits="userSpaceOnUse" gradientTransform="translate(34.683 34.4791) scale(24.7486)">
<stop stop-color="#3B8EAC"/>
<stop offset="1" stop-color="#C4F8B6"/>
</radialGradient>
<radialGradient id="paint3_radial" cx="0" cy="0" r="1" gradientUnits="userSpaceOnUse" gradientTransform="translate(33.2667 33.5724) scale(15.5322)">
<stop stop-color="#666AD6"/>
<stop offset="1" stop-color="#3FA9F5"/>
</radialGradient>
<linearGradient id="paint4_linear" x1="16.9872" y1="13.9608" x2="9.473" y2="5.7401" gradientUnits="userSpaceOnUse">
<stop stop-color="#E4003D" stop-opacity="0"/>
<stop offset="1" stop-color="#E4003D"/>
</linearGradient>
<linearGradient id="paint5_linear" x1="16.2595" y1="28.6541" x2="6.34584" y2="18.938" gradientUnits="userSpaceOnUse">
<stop stop-color="#FFD00D" stop-opacity="0"/>
<stop offset="1" stop-color="#DB722B"/>
</linearGradient>
<linearGradient id="paint6_linear" x1="13.2173" y1="21.4183" x2="4.74422" y2="12.9453" gradientUnits="userSpaceOnUse">
<stop stop-color="#E4003D" stop-opacity="0"/>
<stop offset="1" stop-color="#E4003D"/>
</linearGradient>
<linearGradient id="paint7_linear" x1="33.0162" y1="13.4937" x2="24.5456" y2="5.72899" gradientUnits="userSpaceOnUse">
<stop stop-color="#FFD00D" stop-opacity="0"/>
<stop offset="1" stop-color="#DB722B"/>
</linearGradient>
<linearGradient id="paint8_linear" x1="32.4304" y1="17.8204" x2="25.4929" y2="11.461" gradientUnits="userSpaceOnUse">
<stop stop-color="#3B8EAC" stop-opacity="0"/>
<stop offset="1" stop-color="#343168"/>
</linearGradient>
<linearGradient id="paint9_linear" x1="6.52611" y1="2.75055" x2="12.2623" y2="9.95945" gradientUnits="userSpaceOnUse">
<stop stop-color="#FFE548"/>
<stop offset="0.1758" stop-color="#FFDE50"/>
<stop offset="0.4446" stop-color="#FFCA65"/>
<stop offset="0.7709" stop-color="#FFAA87"/>
<stop offset="1" stop-color="#FF90A4"/>
</linearGradient>
<linearGradient id="paint10_linear" x1="5.12896" y1="12.8208" x2="7.99703" y2="16.4253" gradientUnits="userSpaceOnUse">
<stop stop-color="#FFE548"/>
<stop offset="0.1758" stop-color="#FFDE50"/>
<stop offset="0.4446" stop-color="#FFCA65"/>
<stop offset="0.7709" stop-color="#FFAA87"/>
<stop offset="1" stop-color="#FF90A4"/>
</linearGradient>
<linearGradient id="paint11_linear" x1="27.306" y1="12.2733" x2="30.1741" y2="15.8778" gradientUnits="userSpaceOnUse">
<stop stop-color="#FFE548"/>
<stop offset="0.1758" stop-color="#FFDE50"/>
<stop offset="0.4446" stop-color="#FFCA65"/>
<stop offset="0.7709" stop-color="#FFAA87"/>
<stop offset="1" stop-color="#FF90A4"/>
</linearGradient>
<linearGradient id="paint12_linear" x1="8.4764" y1="20.4123" x2="11.3445" y2="24.0167" gradientUnits="userSpaceOnUse">
<stop stop-color="#FFE548"/>
<stop offset="0.1758" stop-color="#FFDE50"/>
<stop offset="0.4446" stop-color="#FFCA65"/>
<stop offset="0.7709" stop-color="#FFAA87"/>
<stop offset="1" stop-color="#FF90A4"/>
</linearGradient>
<linearGradient id="paint13_linear" x1="26.9704" y1="7.00516" x2="29.8385" y2="10.6096" gradientUnits="userSpaceOnUse">
<stop stop-color="#FFE548"/>
<stop offset="0.1758" stop-color="#FFDE50"/>
<stop offset="0.4446" stop-color="#FFCA65"/>
<stop offset="0.7709" stop-color="#FFAA87"/>
<stop offset="1" stop-color="#FF90A4"/>
</linearGradient>
<clipPath id="clip0">
<rect width="36" height="36" fill="white"/>
</clipPath>
</defs>
</svg>
