<svg width="38" height="45" viewBox="0 0 38 45" fill="none" xmlns="http://www.w3.org/2000/svg">
<path d="M37.4702 30.857L25.7989 8.48544C25.1445 7.23121 23.8873 6.41579 22.484 6.32993L20.4253 6.20645L12.8398 5.74873L12.6925 5.73933C12.6178 5.73467 12.5441 5.7323 12.4705 5.7323C12.4319 5.7323 12.3923 5.73344 12.3525 5.73467C11.5275 5.75471 10.74 6.02997 10.0893 6.50887C9.66862 6.81717 9.30415 7.21011 9.02364 7.67372L3.88717 16.171C3.15456 17.3841 3.10551 18.896 3.7621 20.1538L15.429 42.517C16.025 43.6583 17.0262 44.4454 18.1596 44.7949C19.0838 45.0808 20.0969 45.0749 21.0515 44.7313C21.2547 44.6584 21.4557 44.5702 21.6533 44.4666L23.483 43.4983L35.533 37.1236C37.7869 35.9316 38.6539 33.1255 37.4702 30.857ZM14.3412 16.6204C14.2875 16.6722 14.2348 16.7217 14.18 16.7687C14.1566 16.7899 14.131 16.811 14.1064 16.8298C14.0258 16.8934 13.9417 16.9522 13.8564 17.0052C13.8272 17.024 13.7991 17.0417 13.7699 17.0569C13.7407 17.0758 13.7103 17.0923 13.6811 17.1063C12.6739 17.6334 11.4039 17.4722 10.5579 16.6204C9.51213 15.5662 9.51213 13.8624 10.5579 12.8106C11.5102 11.8505 13.0011 11.7658 14.0503 12.5577C14.1204 12.6106 14.1905 12.6682 14.2583 12.7306C14.2852 12.7577 14.3132 12.7824 14.3413 12.8107C15.3858 13.8624 15.3858 15.5662 14.3412 16.6204Z" fill="url(#paint0_linear)"/>
<path d="M15.4291 42.5165C16.0251 43.6578 17.0263 44.4449 18.1597 44.7943C19.0839 45.0802 20.097 45.0744 21.0516 44.7308C21.2548 44.6579 21.4558 44.5696 21.6533 44.4661L23.4831 43.4978L35.5331 37.1231C37.787 35.9311 38.654 33.125 37.4704 30.8566L32.018 20.4054L23.9719 12.3032C23.6891 11.9598 23.349 11.6603 22.9587 11.4225L21.1927 10.3478L14.5632 6.3142C14.0193 5.98339 13.4168 5.79479 12.8055 5.74592L12.703 5.73942C12.6713 5.73766 12.6395 5.73705 12.6077 5.73608C12.5676 5.7345 12.5271 5.73248 12.4873 5.7323C12.4156 5.7323 12.3439 5.73529 12.272 5.73916C12.243 5.74047 12.214 5.74267 12.1851 5.7446C11.5725 5.7911 10.968 5.97786 10.4219 6.30761L10.0877 6.50948C9.66775 6.81761 9.3038 7.21012 9.02364 7.6731L3.88717 16.1704C3.15456 17.3835 3.10551 18.8954 3.7621 20.1532L15.4291 42.5165ZM10.5579 12.81C11.5102 11.8499 13.0011 11.7652 14.0503 12.5571C14.1204 12.61 14.1905 12.6676 14.2583 12.73C14.2852 12.7571 14.3132 12.7818 14.3413 12.8101C15.3859 13.862 15.3859 15.5656 14.3413 16.6199C14.2876 16.6716 14.2349 16.7211 14.1801 16.7681C14.1567 16.7893 14.131 16.8105 14.1065 16.8293C14.0259 16.8929 13.9418 16.9517 13.8565 17.0047C13.8273 17.0235 13.7992 17.0411 13.77 17.0564C13.7408 17.0752 13.7104 17.0917 13.6812 17.1058C12.674 17.6329 11.404 17.4717 10.558 16.6199C9.51222 15.5657 9.51222 13.8619 10.5579 12.81Z" fill="url(#paint1_linear)"/>
<path d="M22.9586 11.4228L21.1926 10.3481L14.5631 6.31453C13.2906 5.54069 11.6971 5.53797 10.4219 6.30794L1.95013 11.4254C0.740814 12.1555 0 13.4713 0 14.8918V40.1538C0 42.7165 2.06333 44.7942 4.60958 44.7942H20.2886C22.8336 44.7942 24.8969 42.7165 24.8969 40.1538V14.8825C24.8969 13.466 24.1613 12.1555 22.9586 11.4228ZM10.5575 16.6198C9.51258 15.5663 9.51258 13.8622 10.5575 12.8102C11.5102 11.8508 13.0011 11.7661 14.0499 12.557C14.1209 12.61 14.1907 12.6684 14.2578 12.7306C14.2854 12.7571 14.313 12.7823 14.3407 12.8102C15.3855 13.8622 15.3855 15.5664 14.3407 16.6198C14.2881 16.6715 14.2354 16.7218 14.1802 16.7682C14.1565 16.7894 14.1315 16.8107 14.1065 16.8292C14.0262 16.8928 13.9421 16.9524 13.8565 17.0054C13.8276 17.024 13.7985 17.0413 13.7696 17.0571C13.7408 17.0756 13.7104 17.0916 13.6815 17.1061C12.6734 17.6335 11.4036 17.4718 10.5575 16.6198Z" fill="url(#paint2_linear)"/>
<path d="M24.8969 40.1518C24.8969 40.1518 24.8969 40.0401 24.8969 39.8339L9.43825 24.2713C8.83847 23.7884 8.04442 23.5465 7.05574 23.5465C4.88401 23.5465 3.7981 24.554 3.7981 26.5688V30.2054C3.7981 31.2962 4.11919 32.0891 4.75571 32.5894L16.8741 44.7923H20.2886C22.8335 44.7922 24.8969 42.7145 24.8969 40.1518Z" fill="url(#paint3_linear)"/>
<path d="M17.5704 22.859C17.3572 22.6789 17.1198 22.5886 16.8574 22.5886C16.5005 22.5886 16.2573 22.7361 16.1276 23.031L7.20212 41.0853C7.13736 41.2 7.10498 41.3229 7.10498 41.4538C7.10498 41.683 7.19496 41.8918 7.37519 42.0804L10.0688 44.7928H20.2885C22.8336 44.7928 24.8968 42.715 24.8968 40.1524C24.8968 40.1524 24.8968 36.8569 24.8968 32.7518V30.2728L17.5704 22.859Z" fill="url(#paint4_linear)"/>
<path d="M20.1995 32.5523C19.5997 32.0694 18.8056 31.8275 17.817 31.8275C15.6452 31.8275 14.5593 32.835 14.5593 34.8499V38.4864C14.5593 39.5772 14.8804 40.3701 15.5169 40.8704L19.4121 44.7927H20.2887C22.8337 44.7927 24.8969 42.7149 24.8969 40.1522C24.8969 40.1522 24.8969 39.0302 24.8969 37.2816L20.1995 32.5523Z" fill="url(#paint5_linear)"/>
<path d="M3.7981 30.2059V26.5693C3.7981 24.5544 4.88401 23.5469 7.05574 23.5469C8.04433 23.5469 8.83856 23.7888 9.43825 24.2717C10.0376 24.7551 10.3376 25.5211 10.3376 26.5692V30.2058C10.3376 31.2543 10.0377 32.0202 9.43825 32.5032C8.83847 32.9866 8.04433 33.228 7.05574 33.228C4.88401 33.2281 3.7981 32.2207 3.7981 30.2059ZM5.53056 30.1648C5.53056 31.1097 6.03887 31.5819 7.05565 31.5819C8.08841 31.5819 8.60501 31.1097 8.60501 30.1648V26.6103C8.60501 25.6659 8.08841 25.1933 7.05565 25.1933C6.03878 25.1933 5.53056 25.6659 5.53056 26.6103C5.53065 26.6103 5.53065 30.1648 5.53056 30.1648ZM7.10496 41.4538C7.10496 41.3228 7.13734 41.2 7.2021 41.0853L16.1276 23.031C16.2573 22.7361 16.5006 22.5886 16.8575 22.5886C17.1197 22.5886 17.3572 22.6789 17.5704 22.859C17.7836 23.0394 17.8903 23.2605 17.8903 23.5223C17.8903 23.6537 17.8659 23.7846 17.8174 23.9154L8.89119 41.8961C8.745 42.2071 8.46946 42.363 8.06414 42.363C7.7852 42.363 7.55566 42.2686 7.37517 42.0805C7.19495 41.8919 7.10496 41.6831 7.10496 41.4538ZM14.5592 38.5372V34.8729C14.5592 32.8427 15.6451 31.8276 17.8168 31.8276C18.8054 31.8276 19.5996 32.0714 20.1993 32.5582C20.7987 33.045 21.0987 33.8168 21.0987 34.8729V38.5372C21.0987 39.5937 20.7987 40.3654 20.1993 40.8523C19.5996 41.3391 18.8054 41.5824 17.8168 41.5824C15.645 41.5824 14.5592 40.5673 14.5592 38.5372ZM16.2916 38.503C16.2916 39.4585 16.7999 39.9362 17.8167 39.9362C18.8495 39.9362 19.3661 39.4587 19.3661 38.503V34.907C19.3661 33.9518 18.8495 33.4737 17.8167 33.4737C16.7999 33.4737 16.2916 33.9518 16.2916 34.907V38.503Z" fill="url(#paint6_linear)"/>
<path d="M24.8969 14.8823V23.4726L14.5586 13.0622C14.492 12.9751 14.4196 12.8904 14.3413 12.8104C14.3133 12.7822 14.2852 12.7575 14.2583 12.7303C14.2396 12.7127 14.2209 12.6962 14.2011 12.6809C14.152 12.6362 14.1005 12.5951 14.0503 12.5575C13.0501 11.8032 11.6492 11.8444 10.6958 12.6823V6.15685C11.7976 5.60378 13.0911 5.59095 14.2011 6.11915C14.3238 6.1768 14.4453 6.24263 14.5633 6.31452L21.193 10.3478L22.9585 11.4232C24.1608 12.155 24.8969 13.4657 24.8969 14.8823Z" fill="url(#paint7_linear)"/>
<path d="M12.4484 15.8879C11.4805 15.8879 10.6958 15.0977 10.6958 14.123V1.76485C10.6958 0.79019 11.4805 0 12.4484 0C13.4163 0 14.201 0.79019 14.201 1.76485V14.123C14.2011 15.0977 13.4163 15.8879 12.4484 15.8879Z" fill="url(#paint8_linear)"/>
<defs>
<linearGradient id="paint0_linear" x1="4.58346" y1="20.5704" x2="27.1016" y2="27.5284" gradientUnits="userSpaceOnUse">
<stop stop-color="#C70030"/>
<stop offset="1" stop-color="#A30027"/>
</linearGradient>
<linearGradient id="paint1_linear" x1="35.3335" y1="31.0664" x2="-6.31301" y2="5.64778" gradientUnits="userSpaceOnUse">
<stop stop-color="#BC003F" stop-opacity="0"/>
<stop offset="1" stop-color="#6B0013"/>
</linearGradient>
<linearGradient id="paint2_linear" x1="0.534625" y1="15.6458" x2="17.3049" y2="32.2999" gradientUnits="userSpaceOnUse">
<stop stop-color="#FD2C6B"/>
<stop offset="1" stop-color="#D00334"/>
</linearGradient>
<linearGradient id="paint3_linear" x1="23.2755" y1="37.2538" x2="-0.360958" y2="21.0409" gradientUnits="userSpaceOnUse">
<stop stop-color="#BC003F" stop-opacity="0"/>
<stop offset="1" stop-color="#6B0013"/>
</linearGradient>
<linearGradient id="paint4_linear" x1="23.5296" y1="36.9142" x2="1.09266" y2="24.4964" gradientUnits="userSpaceOnUse">
<stop stop-color="#BC003F" stop-opacity="0"/>
<stop offset="1" stop-color="#6B0013"/>
</linearGradient>
<linearGradient id="paint5_linear" x1="24.1025" y1="40.1923" x2="11.0359" y2="32.9961" gradientUnits="userSpaceOnUse">
<stop stop-color="#BC003F" stop-opacity="0"/>
<stop offset="1" stop-color="#6B0013"/>
</linearGradient>
<linearGradient id="paint6_linear" x1="12.448" y1="27.2022" x2="12.448" y2="49.2781" gradientUnits="userSpaceOnUse">
<stop stop-color="white"/>
<stop offset="1" stop-color="#E2EDF2"/>
</linearGradient>
<linearGradient id="paint7_linear" x1="23.8055" y1="17.1779" x2="5.88866" y2="7.27147" gradientUnits="userSpaceOnUse">
<stop stop-color="#F49DBA" stop-opacity="0"/>
<stop offset="1" stop-color="#FF6B9D"/>
</linearGradient>
<linearGradient id="paint8_linear" x1="11.5879" y1="7.94477" x2="14.8586" y2="7.94477" gradientUnits="userSpaceOnUse">
<stop stop-color="#62E1FB"/>
<stop offset="1" stop-color="#00A2F3"/>
</linearGradient>
</defs>
</svg>
