<svg width="50" height="50" viewBox="0 0 50 50" fill="none" xmlns="http://www.w3.org/2000/svg">
<path d="M35.3856 3.9854C36.3582 3.31633 44.1217 4.94384 44.3502 6.48144C44.5786 8.01904 41.8416 18.4372 41.1159 23.9544C40.3887 29.4737 47.8694 39.8427 48.2005 41.0071C48.53 42.1737 49.5445 45.666 46.4992 47.339C43.454 49.0119 40.7818 47.7071 37.3453 43.5599C33.9088 39.4127 33.0724 35.7987 31.2538 34.3167C29.4353 32.8366 27.0756 32.1714 27.06 29.0916C27.0467 26.0135 28.4842 26.5136 29.8499 22.8028C31.2156 19.0921 31.9698 11.9833 32.9473 8.96726C33.9251 5.95313 34.2946 4.7336 35.3856 3.9854Z" fill="#F2E026"/>
<path d="M34.4001 5.08132C33.9366 5.88754 33.5622 7.07144 32.9485 8.96614C32.6656 9.83572 32.4032 11.0483 32.138 12.4218C33.2103 13.197 37.0565 15.6072 42.7468 14.9734C42.7733 14.9698 42.7999 14.9662 42.8264 14.9626C43.5141 11.749 44.165 8.77167 44.3257 7.28437C41.4223 9.36794 37.2785 6.53775 34.4001 5.08132Z" fill="#A32DD9"/>
<path d="M33.0982 8.50066C35.1078 9.39688 41.0816 10.4613 43.6876 10.8982C43.9902 9.41835 44.2244 8.16943 44.3188 7.34649C41.1704 7.28522 36.2246 5.61679 34.4582 4.98558C34.007 5.72709 33.6483 6.80185 33.0982 8.50066Z" fill="#DD2885"/>
<path d="M38.816 12.0378C40.4428 12.3574 42.2197 12.3261 43.4053 12.2472C43.6301 11.1811 43.8347 10.1922 43.9945 9.33935C42.8127 9.4178 40.887 9.4483 38.7332 9.09903C36.4726 8.73177 34.6195 7.73977 33.5712 7.06829C33.3856 7.60939 33.1847 8.23473 32.9466 8.96828C32.8544 9.25021 32.7653 9.56803 32.6784 9.91611C33.39 10.3716 35.2113 11.3297 38.816 12.0378Z" fill="#60DCF8"/>
<path d="M41.1152 23.9517C41.1952 23.3447 41.2996 22.6771 41.4217 21.9707L30.6854 19.8778C30.431 20.9671 30.1552 21.9714 29.8495 22.802C29.0965 24.8475 28.3207 25.614 27.7798 26.404C28.3976 26.406 30.228 26.4954 31.2496 27.4762C32.4916 28.6678 31.7163 28.9088 34.3313 28.7694C36.4234 28.6589 40.059 27.6949 41.4304 27.3136C41.1204 26.0928 40.9844 24.9439 41.1152 23.9517Z" fill="#A32DD9"/>
<path d="M30.4605 20.793L41.3928 22.1408C41.616 20.8265 41.9036 19.364 42.2122 17.8719C42.1838 17.8757 42.1573 17.8793 42.127 17.8835C36.3925 18.7697 32.8972 16.7475 31.5309 15.7028C31.2067 17.4587 30.8602 19.2483 30.4605 20.793Z" fill="#DD2885"/>
<path d="M41.0805 24.3041C41.089 24.1845 41.0996 24.0665 41.1146 23.9517C41.215 23.1853 41.3561 22.3235 41.5201 21.4032C40.5176 21.5223 33.7091 22.2202 30.7607 19.5485C30.5322 20.5597 30.2867 21.5045 30.0157 22.3208C30.9409 23.4829 33.7007 25.6146 41.0805 24.3041Z" fill="#60DCF8"/>
<path d="M42.4438 40.4548C39.2951 41.3527 38.905 43.817 39.004 45.3951C41.6807 48.0559 43.9592 48.7341 46.4967 47.3384C49.5417 45.6636 48.5291 42.1709 48.1979 41.0065C48.1534 40.8521 47.9816 40.5315 47.7205 40.0817C46.6609 39.8302 44.952 39.7395 42.4438 40.4548Z" fill="#A32DD9"/>
<path d="M46.0445 37.2735C44.8819 35.303 43.4821 32.8049 42.4637 30.343C39.3952 30.1065 33.1279 32.4122 32.7971 33.145C32.5918 33.599 32.1089 34.2645 31.7207 34.7644C33.0449 36.2295 33.9559 38.9468 36.2322 42.1168C36.7986 40.9527 37.7761 39.3161 39.2181 38.1343C41.0534 36.6296 44.4205 36.9878 46.0445 37.2735Z" fill="#DD2885"/>
<path d="M34.3672 39.1718C38.5873 34.542 42.4275 34.387 44.6899 34.9068C44.205 34.025 43.7189 33.0937 43.2676 32.1482C38.7036 31.6621 34.7239 34.4461 32.7206 36.1876C33.2213 37.029 33.7301 38.0413 34.3672 39.1718Z" fill="#60DCF8"/>
<path d="M48.1996 41.0044C47.8701 39.8378 40.3894 29.4689 41.1151 23.9517C41.8423 18.4323 44.5796 8.01605 44.3493 6.47871C44.2724 5.96564 43.3606 5.44375 42.1412 4.99996C41.7794 5.24402 41.6793 5.58051 41.6793 5.58051C41.6793 5.58051 36.7439 23.4643 37.4377 27.3862C38.0225 30.6885 47.7289 42.9007 46.3166 47.4317C46.376 47.4007 46.4357 47.3716 46.4967 47.3384C49.5436 45.6633 48.5291 42.171 48.1996 41.0044Z" fill="url(#paint0_radial)"/>
<path d="M38.5403 40.0969C36.6529 36.7958 32.4974 30.7458 32.3655 26.2546C32.248 22.2296 35.9191 6.96329 36.6845 3.83664C36.0527 3.80403 35.5818 3.84511 35.3844 3.98083C34.2937 4.73091 33.9242 5.95044 32.9467 8.96645C31.9691 11.9825 31.2169 19.091 29.8493 22.802C28.4817 26.513 27.0441 26.0129 27.0594 29.0908C27.0728 32.1689 29.4347 32.8358 31.2531 34.3159C33.0715 35.796 33.9082 39.4119 37.3447 43.5591C38.4546 44.8986 39.4846 45.9394 40.4733 46.682C40.0962 44.4194 39.4849 41.7474 38.5403 40.0969Z" fill="url(#paint1_radial)"/>
<path d="M30.37 0.000303378C31.5535 -0.0470195 37.2187 5.45568 36.5763 6.87537C35.9338 8.29506 27.9724 15.6244 24.3664 19.8911C20.7604 24.1577 21.4411 36.8837 21.0854 38.0422C20.7298 39.2007 19.6916 42.6855 16.2137 42.4773C12.7359 42.2691 11.1929 39.7458 10.5447 34.4211C9.89657 29.0963 11.1527 25.6001 10.4224 23.3854C9.69199 21.1707 8.06299 19.3516 9.72067 16.7469C11.3784 14.1423 12.321 15.3291 15.4872 12.927C18.6534 10.5249 23.1466 4.92945 25.6073 2.90593C28.068 0.882402 29.0431 0.053305 30.37 0.000303378Z" fill="#F2E026"/>
<path d="M28.941 0.403442C28.1131 0.83692 27.1533 1.63573 25.6084 2.90777C24.899 3.49268 24.0176 4.37478 23.0502 5.39127C23.532 6.6141 25.4688 10.6952 30.612 13.1863C30.6369 13.1977 30.6598 13.209 30.6847 13.2204C33.0096 10.875 35.1721 8.71144 36.1166 7.54162C32.5374 7.75552 30.5776 3.16331 28.941 0.403442Z" fill="#A32DD9"/>
<path d="M25.9883 2.59546C27.1966 4.42212 31.6573 8.49568 33.6171 10.2504C34.6763 9.16387 35.5501 8.23445 36.0759 7.59086C33.4545 5.86452 30.187 1.82504 29.0417 0.354248C28.2597 0.73851 27.3726 1.45592 25.9883 2.59546Z" fill="#DD2885"/>
<path d="M28.8909 8.6206C30.0897 9.75445 31.604 10.6744 32.6479 11.2404C33.4166 10.4605 34.1259 9.73552 34.7243 9.1014C33.6842 8.53731 32.0438 7.53974 30.4167 6.09923C28.7093 4.5868 27.6845 2.76581 27.1663 1.63953C26.717 1.99729 26.2084 2.41751 25.6081 2.90967C25.3786 3.09896 25.1301 3.31854 24.8662 3.56651C25.218 4.32747 26.2352 6.10491 28.8909 8.6206Z" fill="#60DCF8"/>
<path d="M24.3632 19.8909C24.7609 19.4215 25.2102 18.9142 25.6958 18.3823L17.7764 10.9053C16.9715 11.6889 16.1933 12.3874 15.484 12.9269C13.7383 14.2519 12.6695 14.4848 11.7843 14.8653C12.3044 15.1946 13.7995 16.2452 14.1284 17.6157C14.528 19.2814 13.7441 19.0713 16.027 20.3471C17.851 21.3674 21.4398 22.488 22.803 22.8969C23.2064 21.6987 23.715 20.6595 24.3632 19.8909Z" fill="#A32DD9"/>
<path d="M17.0941 11.5583L25.5814 18.511C26.4838 17.521 27.5201 16.4402 28.5889 15.346C28.5621 15.3347 28.5373 15.3233 28.5105 15.312C23.1933 13.0083 21.3444 9.44205 20.7575 7.83496C19.5319 9.14296 18.2681 10.4699 17.0941 11.5583Z" fill="#DD2885"/>
<path d="M24.1457 20.1711C24.2164 20.0745 24.2891 19.9799 24.3655 19.8909C24.8665 19.2984 25.4535 18.6454 26.0901 17.9583C25.18 17.5248 19.0598 14.4904 18.0216 10.6705C17.2798 11.4012 16.559 12.0675 15.8898 12.6127C16.037 14.0835 17.209 17.3506 24.1457 20.1711Z" fill="#60DCF8"/>
<path d="M16.5303 34.5176C13.3889 33.6015 11.7217 35.4717 10.9492 36.8554C11.7618 40.5239 13.3162 42.307 16.2129 42.4812C19.6908 42.6894 20.7309 39.2045 21.0846 38.046C21.1324 37.8908 21.1611 37.5293 21.184 37.0125C20.425 36.2345 19.033 35.2483 16.5303 34.5176Z" fill="#A32DD9"/>
<path d="M21.2908 33.7509C21.3788 31.47 21.5547 28.6192 22.0307 25.9994C19.5719 24.1671 13.0349 22.7777 12.3562 23.2206C11.9374 23.4932 11.1669 23.798 10.5704 24.0138C10.8916 25.954 10.1861 28.7309 10.3868 32.6152C11.4958 31.9337 13.2089 31.0743 15.0654 30.8453C17.4324 30.5519 20.0767 32.6436 21.2908 33.7509Z" fill="#DD2885"/>
<path d="M10.4133 29.1379C16.4858 27.4779 19.8069 29.3897 21.4339 31.0328C21.5047 30.0314 21.5984 28.9884 21.7322 27.9492C18.1473 25.1117 13.2794 25.3407 10.6466 25.7458C10.6103 26.7226 10.4898 27.8451 10.4133 29.1379Z" fill="#60DCF8"/>
<path d="M21.0844 38.044C21.4381 36.8856 20.7574 24.1595 24.3653 19.8929C27.9732 15.6244 35.9347 8.2969 36.5752 6.87721C36.7894 6.40399 36.3018 5.47835 35.516 4.45618C35.0781 4.46943 34.8105 4.70036 34.8105 4.70036C34.8105 4.70036 20.9429 17.1595 19.4019 20.8337C18.1017 23.9286 19.6619 39.3937 16.01 42.464C16.0769 42.4697 16.1438 42.4773 16.2127 42.481C19.6886 42.6874 20.7307 39.2025 21.0844 38.044Z" fill="url(#paint2_radial)"/>
<path d="M13.431 32.1401C13.6298 28.3524 13.4099 21.0382 15.7349 17.1804C17.8208 13.7239 29.2009 2.80181 31.5431 0.570064C31.0288 0.208517 30.6062 -0.00916805 30.3691 0.000296525C29.0422 0.0532982 28.069 0.884288 25.6083 2.90781C23.1476 4.93134 18.6545 10.5268 15.4863 12.9289C12.3201 15.331 11.3794 14.1442 9.71981 16.7488C8.06022 19.3535 9.69113 21.1707 10.4215 23.3873C11.1519 25.6039 9.8938 29.0982 10.5439 34.423C10.7542 36.1436 11.0563 37.569 11.4884 38.7199C12.3966 36.6131 13.3315 34.033 13.431 32.1401Z" fill="url(#paint3_radial)"/>
<defs>
<radialGradient id="paint0_radial" cx="0" cy="0" r="1" gradientUnits="userSpaceOnUse" gradientTransform="translate(65.9992 22.7914) rotate(-172.283) scale(39.2794 38.8564)">
<stop offset="0.2546"/>
<stop offset="0.7209" stop-opacity="0"/>
</radialGradient>
<radialGradient id="paint1_radial" cx="0" cy="0" r="1" gradientUnits="userSpaceOnUse" gradientTransform="translate(18.5044 19.2687) rotate(22.6679) scale(22.9797 22.7183)">
<stop offset="0.220573" stop-color="white"/>
<stop offset="0.778779" stop-color="white" stop-opacity="0"/>
</radialGradient>
<radialGradient id="paint2_radial" cx="0" cy="0" r="1" gradientUnits="userSpaceOnUse" gradientTransform="translate(42.7644 31.398) rotate(-132.308) scale(34.5935 34.4221)">
<stop offset="0.2546"/>
<stop offset="0.7209" stop-opacity="0"/>
</radialGradient>
<radialGradient id="paint3_radial" cx="0" cy="0" r="1" gradientUnits="userSpaceOnUse" gradientTransform="translate(7.83655 -4.06984) rotate(82.7546) scale(36.9256 36.7808)">
<stop offset="0.183146" stop-color="white"/>
<stop offset="0.7209" stop-color="white" stop-opacity="0"/>
</radialGradient>
</defs>
</svg>
