<svg width="50" height="50" viewBox="0 0 50 50" fill="none" xmlns="http://www.w3.org/2000/svg">
<path d="M23.9331 2.36602C25.0429 1.39145 37.4474 2.47097 37.9795 4.33015C38.5115 6.20432 37.6146 10.5074 37.6146 17.4344C37.5994 24.3463 45.9299 31.2133 46.5228 32.6077C47.1157 34.0021 48.9399 38.1402 45.4283 40.6741C41.9167 43.208 38.4051 42.0385 33.4798 37.4655C28.5545 32.8926 28.0376 33.1774 25.5597 31.6481C23.0819 30.1188 20.0415 29.654 19.5095 25.8607C18.9926 22.0523 20.8472 22.4572 21.9417 17.6593C23.0514 12.8614 21.6225 3.62546 23.9331 2.36602Z" fill="url(#paint0_radial)"/>
<path d="M39.302 32.8176C35.5624 34.4219 35.456 37.5256 35.836 39.4447C39.5908 42.2935 42.5096 42.7733 45.4131 40.6592C48.9095 38.1103 47.0853 33.9721 46.5076 32.5927C46.4164 32.4128 46.1732 32.038 45.7627 31.5282C44.4402 31.3783 42.3119 31.5432 39.302 32.8176Z" fill="#0071BB"/>
<path d="M38.1163 7.2988C38.1923 5.97939 38.1771 5.00482 37.9947 4.33011C37.4474 2.47093 25.0428 1.4064 23.9331 2.36598C23.2034 2.75581 22.8538 3.94029 22.6714 5.51459C25.9245 5.66453 33.6318 6.11433 38.1163 7.2988Z" fill="#0071BB"/>
<path d="M21.4553 19.3835C20.376 22.4122 19.0686 22.5921 19.5095 25.8607C20.0111 29.3542 22.6106 30.0139 24.9517 31.2883C27.8248 26.1905 23.1579 21.0178 21.4553 19.3835Z" fill="#0071BB"/>
<path d="M35.0304 15.3053C36.0631 15.3053 36.9003 14.4796 36.9003 13.4611C36.9003 12.4426 36.0631 11.6169 35.0304 11.6169C33.9978 11.6169 33.1606 12.4426 33.1606 13.4611C33.1606 14.4796 33.9978 15.3053 35.0304 15.3053Z" fill="#0071BB"/>
<path d="M27.5055 12.0218C28.5382 12.0218 29.3754 11.1961 29.3754 10.1776C29.3754 9.15905 28.5382 8.33337 27.5055 8.33337C26.4729 8.33337 25.6357 9.15905 25.6357 10.1776C25.6357 11.1961 26.4729 12.0218 27.5055 12.0218Z" fill="#0071BB"/>
<path d="M27.4599 19.9083C28.4926 19.9083 29.3297 19.0827 29.3297 18.0642C29.3297 17.0456 28.4926 16.22 27.4599 16.22C26.4272 16.22 25.5901 17.0456 25.5901 18.0642C25.5901 19.0827 26.4272 19.9083 27.4599 19.9083Z" fill="#0071BB"/>
<path d="M34.9697 23.0869C36.0023 23.0869 36.8395 22.2613 36.8395 21.2427C36.8395 20.2242 36.0023 19.3986 34.9697 19.3986C33.937 19.3986 33.0999 20.2242 33.0999 21.2427C33.0999 22.2613 33.937 23.0869 34.9697 23.0869Z" fill="#0071BB"/>
<path d="M31.1235 29.744C32.1561 29.744 32.9933 28.9184 32.9933 27.8999C32.9933 26.8813 32.1561 26.0557 31.1235 26.0557C30.0908 26.0557 29.2537 26.8813 29.2537 27.8999C29.2537 28.9184 30.0908 29.744 31.1235 29.744Z" fill="#0071BB"/>
<path d="M39.3325 30.4637C40.3651 30.4637 41.2023 29.638 41.2023 28.6195C41.2023 27.6009 40.3651 26.7753 39.3325 26.7753C38.2998 26.7753 37.4626 27.6009 37.4626 28.6195C37.4626 29.638 38.2998 30.4637 39.3325 30.4637Z" fill="#0071BB"/>
<path d="M13.3554 8.06799C14.5409 7.1835 26.8071 9.25232 27.2023 11.1412C27.5671 13.0452 26.3359 17.2727 25.7735 24.1688C25.1959 31.0649 32.9326 38.5606 33.4038 39.9998C33.875 41.4389 35.3493 45.6965 31.6558 47.9602C27.9623 50.2239 24.5424 48.7698 19.9976 43.8076C15.4529 38.8454 14.9361 39.1003 12.5802 37.3763C10.2242 35.6373 7.24508 34.9477 7.01708 31.1248C6.81949 27.287 8.62825 27.8417 10.1178 23.1494C11.6074 18.4571 10.9386 9.14738 13.3554 8.06799Z" fill="url(#paint1_linear)"/>
<path d="M26.1686 39.64C22.3079 40.9443 21.9431 44.0175 22.1711 45.9664C25.6823 49.1146 28.555 49.8192 31.6253 47.9453C35.3189 45.6816 33.8445 41.409 33.3733 39.9848C33.2973 39.8049 33.0845 39.4151 32.7197 38.8604C31.3974 38.6206 29.2694 38.6056 26.1686 39.64Z" fill="#0071BB"/>
<path d="M27.0805 14.1096C27.2629 12.8053 27.3389 11.8159 27.2021 11.1412C26.8069 9.25232 14.5256 7.1835 13.3552 8.06799C12.5952 8.39781 12.1544 9.55215 11.8352 11.0963C15.0575 11.501 22.703 12.5804 27.0805 14.1096Z" fill="#0071BB"/>
<path d="M9.47928 24.8285C8.15691 27.7668 6.83454 27.8268 7.01693 31.1249C7.22973 34.6479 9.76808 35.5024 12.0024 36.9716C15.2856 32.1143 11.0449 26.5975 9.47928 24.8285Z" fill="#0071BB"/>
<path d="M23.5087 21.8451C24.5413 21.8451 25.3783 21.0195 25.3783 20.0012C25.3783 18.9828 24.5413 18.1572 23.5087 18.1572C22.4762 18.1572 21.6392 18.9828 21.6392 20.0012C21.6392 21.0195 22.4762 21.8451 23.5087 21.8451Z" fill="#0071BB"/>
<path d="M16.2736 17.9774C17.3061 17.9774 18.1432 17.1519 18.1432 16.1335C18.1432 15.1151 17.3061 14.2896 16.2736 14.2896C15.2411 14.2896 14.4041 15.1151 14.4041 16.1335C14.4041 17.1519 15.2411 17.9774 16.2736 17.9774Z" fill="#0071BB"/>
<path d="M15.5744 25.8329C16.6069 25.8329 17.444 25.0074 17.444 23.989C17.444 22.9706 16.6069 22.145 15.5744 22.145C14.5419 22.145 13.7048 22.9706 13.7048 23.989C13.7048 25.0074 14.5419 25.8329 15.5744 25.8329Z" fill="#0071BB"/>
<path d="M22.7944 29.6107C23.8269 29.6107 24.6639 28.7852 24.6639 27.7668C24.6639 26.7484 23.8269 25.9229 22.7944 25.9229C21.7618 25.9229 20.9248 26.7484 20.9248 27.7668C20.9248 28.7852 21.7618 29.6107 22.7944 29.6107Z" fill="#0071BB"/>
<path d="M18.4167 35.9221C19.4492 35.9221 20.2863 35.0966 20.2863 34.0782C20.2863 33.0598 19.4492 32.2343 18.4167 32.2343C17.3842 32.2343 16.5471 33.0598 16.5471 34.0782C16.5471 35.0966 17.3842 35.9221 18.4167 35.9221Z" fill="#0071BB"/>
<path d="M26.5334 37.3013C27.5659 37.3013 28.4029 36.4757 28.4029 35.4574C28.4029 34.439 27.5659 33.6134 26.5334 33.6134C25.5009 33.6134 24.6638 34.439 24.6638 35.4574C24.6638 36.4757 25.5009 37.3013 26.5334 37.3013Z" fill="#0071BB"/>
<defs>
<radialGradient id="paint0_radial" cx="0" cy="0" r="1" gradientUnits="userSpaceOnUse" gradientTransform="translate(29.1755 27.8852) rotate(-96.2034) scale(21.7718 15.303)">
<stop stop-color="#F2B900"/>
<stop offset="1" stop-color="#FFEF00"/>
</radialGradient>
<linearGradient id="paint1_linear" x1="13.1179" y1="13.2392" x2="27.2319" y2="46.1719" gradientUnits="userSpaceOnUse">
<stop offset="0.044507" stop-color="#FFEF00"/>
<stop offset="1" stop-color="#FBBF27"/>
</linearGradient>
</defs>
</svg>
