<svg width="12" height="12" viewBox="0 0 12 12" fill="none" xmlns="http://www.w3.org/2000/svg">
<path fill-rule="evenodd" clip-rule="evenodd" d="M4.51698 10.8269L0.3389 6.6488C0.121837 6.43044 0 6.13506 0 5.82717C0 5.51927 0.121837 5.22389 0.3389 5.00554L5.34444 0H11.1716V5.82717L6.16607 10.8269C6.05783 10.9352 5.92929 11.0212 5.78781 11.0798C5.64633 11.1385 5.49468 11.1687 5.34152 11.1687C5.18837 11.1687 5.03671 11.1385 4.89523 11.0798C4.75375 11.0212 4.62522 10.9352 4.51698 10.8269ZM8.25801 4.07818C7.61436 4.07818 7.09258 3.5564 7.09258 2.91275C7.09258 2.2691 7.61436 1.74731 8.25801 1.74731C8.90166 1.74731 9.42345 2.2691 9.42345 2.91275C9.42345 3.5564 8.90166 4.07818 8.25801 4.07818Z" fill="#E1E1E1"/>
</svg>
