<svg width="50" height="50" viewBox="0 0 50 50" fill="none" xmlns="http://www.w3.org/2000/svg">
<path d="M25.4097 44.455L47.5825 44.9453C48.8278 44.9816 49.8686 43.9829 49.8686 42.7664V20.9961C49.8686 20.9961 50.9651 16.9107 46.8205 17.5281C46.8205 17.5281 46.9878 12.6075 42.3785 13.8059C42.3785 13.8059 41.4864 10.3923 37.4161 11.1912C37.6949 10.1926 32.082 7.46904 31.3199 12.9343C30.3721 19.6524 25.4097 44.455 25.4097 44.455Z" fill="url(#paint0_linear)"/>
<path d="M4 42.803V27.8597C4 27.0426 4.46464 26.2982 5.22666 25.9169L31.3211 12.9346C31.3211 12.9346 43.5134 14.8047 46.8216 24.1012V42.8211C46.8216 44.0195 45.818 45 44.5914 45H6.23029C5.00363 44.9818 4 44.0195 4 42.803Z" fill="#F9EBBA"/>
<path d="M4 27.8597C4 27.0426 4.46464 26.2982 5.22666 25.9169L31.3211 12.9346C31.3211 12.9346 43.5134 14.8047 46.8216 24.1012C46.8216 24.1012 41.7477 26.5342 28.5332 27.0245C18.9801 27.3695 4 27.8597 4 27.8597Z" fill="url(#paint1_linear)"/>
<path d="M13.4821 27.5616C9.29436 27.5616 6.49601 27.4938 6.41773 27.4712C6.20247 27.4712 6.02635 27.2676 6.04592 26.9963C6.04592 26.7475 6.24161 26.544 6.45687 26.5666C6.71126 26.5666 31.2311 27.2676 44.4401 24.4861C44.6554 24.4409 44.8511 24.5992 44.8902 24.8479C44.9294 25.0967 44.7924 25.3228 44.5771 25.368C35.6928 27.245 21.8185 27.5616 13.4821 27.5616Z" fill="#FFFCF3"/>
<path d="M22.5879 22.2494C22.5879 22.2494 27.3644 26.4437 31.8808 26.4618C36.3971 26.48 43.5155 25.445 45.2997 24.6098C47.0839 23.7746 40.6719 19.0901 32.6428 17.8009C24.6137 16.5118 22.5879 22.2494 22.5879 22.2494Z" fill="url(#paint2_linear)"/>
<path d="M46.8216 31.3644H4V36.0126H46.8216V31.3644Z" fill="url(#paint3_linear)"/>
<path d="M44.5914 44.9817H6.23029C5.00363 44.9817 4 44.0012 4 42.8029V40.3335H46.8216V42.8029C46.8216 44.0194 45.818 44.9817 44.5914 44.9817Z" fill="url(#paint4_linear)"/>
<path d="M34.0731 13.897C34.0731 18.8175 30.0028 22.7939 24.966 22.7939C19.9293 22.7939 15.859 18.8175 15.859 13.897C15.859 8.9764 19.9293 5 24.966 5C30.0028 5 34.0731 8.9764 34.0731 13.897Z" fill="url(#paint5_radial)"/>
<path d="M24.9661 13.8966C24.9661 13.8966 28.9992 17.7096 27.4937 22.4486C27.4937 22.4486 29.4824 22.1036 31.5083 20.0882C31.5083 20.0882 32.2145 16.2389 24.9661 13.8966Z" fill="url(#paint6_radial)"/>
<path d="M24.9839 13.8966C24.9839 13.8966 22.9023 18.9806 17.8469 19.4164C17.8469 19.4164 18.9249 21.0868 21.6198 22.1581C21.6013 22.1581 25.5043 21.341 24.9839 13.8966Z" fill="url(#paint7_radial)"/>
<path d="M24.9275 13.8965C24.9275 13.8965 20.2624 10.8643 20.8572 5.92554C20.8572 5.92554 18.9614 6.61551 17.3445 8.95777C17.3445 8.97593 17.3817 12.8797 24.9275 13.8965Z" fill="url(#paint8_radial)"/>
<path d="M24.9654 13.8973C24.9654 13.8973 26.3036 8.57726 31.266 7.46968C31.266 7.46968 29.965 5.96264 27.1585 5.25452C27.1585 5.25452 23.4042 6.6163 24.9654 13.8973Z" fill="url(#paint9_radial)"/>
<path d="M24.9661 13.9153C24.9661 13.9153 30.1887 11.8999 33.9802 15.2226C33.9802 15.2226 34.482 13.298 33.4412 10.6652C33.4412 10.6652 30.1515 8.45004 24.9661 13.9153Z" fill="url(#paint10_radial)"/>
<path d="M24.9844 13.9153C24.9844 13.9153 19.6689 15.6947 16.0446 12.2267C16.0446 12.2267 15.4499 14.115 16.3792 16.8023C16.3792 16.8023 19.5573 19.1445 24.9844 13.9153Z" fill="url(#paint11_radial)"/>
<path d="M34.0731 13.897C34.0731 18.8175 30.0028 22.7939 24.966 22.7939C19.9293 22.7939 15.859 18.8175 15.859 13.897C15.859 8.9764 19.9293 5 24.966 5C30.0028 5 34.0731 8.9764 34.0731 13.897Z" fill="url(#paint12_radial)"/>
<path opacity="0.6" d="M21.4357 6.03503C18.7779 6.94289 16.8264 9.53935 16.5476 12.6805C16.8264 11.4095 17.4026 10.2293 18.1832 9.21252C19.0195 7.94153 20.1347 6.8521 21.4357 6.03503Z" fill="url(#paint13_linear)"/>
<path opacity="0.6" d="M32.8266 11.3369C32.8824 11.7182 32.901 12.1177 32.901 12.5171C32.901 17.0564 29.5184 20.942 25.1135 21.8499C25.4852 21.9225 25.8755 21.9588 26.2844 21.9588C30.1689 21.9588 33.3284 18.4726 33.3284 14.1876C33.3099 13.1708 33.1426 12.2085 32.8266 11.3369Z" fill="url(#paint14_linear)"/>
<defs>
<linearGradient id="paint0_linear" x1="27.6346" y1="24.0922" x2="47.6314" y2="38.0759" gradientUnits="userSpaceOnUse">
<stop stop-color="#C77C4C"/>
<stop offset="0.0973152" stop-color="#C0784A"/>
<stop offset="0.6751" stop-color="#986441"/>
<stop offset="0.9758" stop-color="#895C3D"/>
</linearGradient>
<linearGradient id="paint1_linear" x1="4" y1="20.3936" x2="46.8132" y2="20.3936" gradientUnits="userSpaceOnUse">
<stop offset="0.0242424" stop-color="#FFF2F2"/>
<stop offset="1" stop-color="white" stop-opacity="0"/>
</linearGradient>
<linearGradient id="paint2_linear" x1="22.5958" y1="22.0371" x2="45.6131" y2="22.0371" gradientUnits="userSpaceOnUse">
<stop stop-color="#F0E2B3"/>
<stop offset="1" stop-color="#F9EBBA" stop-opacity="0"/>
</linearGradient>
<linearGradient id="paint3_linear" x1="25.4066" y1="31.361" x2="25.4066" y2="36.0014" gradientUnits="userSpaceOnUse">
<stop stop-color="#FF4874"/>
<stop offset="1" stop-color="#F42C5E"/>
</linearGradient>
<linearGradient id="paint4_linear" x1="25.4066" y1="40.3475" x2="25.4066" y2="44.9879" gradientUnits="userSpaceOnUse">
<stop stop-color="#FE4873"/>
<stop offset="1" stop-color="#F3285B"/>
</linearGradient>
<radialGradient id="paint5_radial" cx="0" cy="0" r="1" gradientUnits="userSpaceOnUse" gradientTransform="translate(24.9672 13.9007) scale(11.2713 11.0113)">
<stop offset="0.0242424" stop-color="#895A94"/>
<stop offset="0.2419" stop-color="#8A4B92"/>
<stop offset="0.6597" stop-color="#8E238D"/>
<stop offset="0.9879" stop-color="#910088"/>
</radialGradient>
<radialGradient id="paint6_radial" cx="0" cy="0" r="1" gradientUnits="userSpaceOnUse" gradientTransform="translate(25.1653 14.0295) scale(9.53553 9.31559)">
<stop stop-color="#DA6B9A"/>
<stop offset="0.2432" stop-color="#DF6295"/>
<stop offset="0.6383" stop-color="#EE4A89"/>
<stop offset="1" stop-color="#FF2E7B"/>
</radialGradient>
<radialGradient id="paint7_radial" cx="0" cy="0" r="1" gradientUnits="userSpaceOnUse" gradientTransform="translate(25.1967 14) rotate(-8.16447) scale(9.53134 9.32046)">
<stop stop-color="#DA6B9A"/>
<stop offset="0.2432" stop-color="#DF6295"/>
<stop offset="0.6383" stop-color="#EE4A89"/>
<stop offset="1" stop-color="#FF2E7B"/>
</radialGradient>
<radialGradient id="paint8_radial" cx="0" cy="0" r="1" gradientUnits="userSpaceOnUse" gradientTransform="translate(25.1138 14.0514) rotate(5.70899) scale(9.53288 9.3174)">
<stop stop-color="#DA6B9A"/>
<stop offset="0.2432" stop-color="#DF6295"/>
<stop offset="0.6383" stop-color="#EE4A89"/>
<stop offset="1" stop-color="#FF2E7B"/>
</radialGradient>
<radialGradient id="paint9_radial" cx="0" cy="0" r="1" gradientUnits="userSpaceOnUse" gradientTransform="translate(25.1654 14.0302) scale(9.5345 9.31459)">
<stop stop-color="#DA6B9A"/>
<stop offset="0.2432" stop-color="#DF6295"/>
<stop offset="0.6383" stop-color="#EE4A89"/>
<stop offset="1" stop-color="#FF2E7B"/>
</radialGradient>
<radialGradient id="paint10_radial" cx="0" cy="0" r="1" gradientUnits="userSpaceOnUse" gradientTransform="translate(25.1652 14.0302) scale(9.5363 9.31635)">
<stop stop-color="#DA6B9A"/>
<stop offset="0.2432" stop-color="#DF6295"/>
<stop offset="0.6383" stop-color="#EE4A89"/>
<stop offset="1" stop-color="#FF2E7B"/>
</radialGradient>
<radialGradient id="paint11_radial" cx="0" cy="0" r="1" gradientUnits="userSpaceOnUse" gradientTransform="translate(24.7951 13.7966) rotate(-177.525) scale(9.53498 9.31588)">
<stop stop-color="#DA6B9A"/>
<stop offset="0.2432" stop-color="#DF6295"/>
<stop offset="0.6383" stop-color="#EE4A89"/>
<stop offset="1" stop-color="#FF2E7B"/>
</radialGradient>
<radialGradient id="paint12_radial" cx="0" cy="0" r="1" gradientUnits="userSpaceOnUse" gradientTransform="translate(30.578 19.8651) rotate(-136.19) scale(16.2899 15.8702)">
<stop offset="0.807292" stop-color="white" stop-opacity="0"/>
<stop offset="1" stop-color="white" stop-opacity="0.75"/>
</radialGradient>
<linearGradient id="paint13_linear" x1="19.7587" y1="9.95462" x2="17.7262" y2="8.30963" gradientUnits="userSpaceOnUse">
<stop stop-color="white"/>
<stop offset="0.0001" stop-color="white" stop-opacity="0"/>
<stop offset="1" stop-color="white"/>
</linearGradient>
<linearGradient id="paint14_linear" x1="30.6271" y1="17.8998" x2="32.2334" y2="19.2296" gradientUnits="userSpaceOnUse">
<stop offset="0.0416667" stop-color="white" stop-opacity="0.27"/>
<stop offset="0.9925" stop-color="#FCFCFC"/>
<stop offset="0.9926" stop-color="white"/>
</linearGradient>
</defs>
</svg>
