<svg width="50" height="50" viewBox="0 0 50 50" fill="none" xmlns="http://www.w3.org/2000/svg">
<path d="M25.1145 24.8858L36.5659 47.1103C36.5659 47.1103 39.1504 47.4164 39.6276 45.154L25.976 24.4067L25.1145 24.8858Z" fill="#A676FF"/>
<path d="M6.6383 11.1647C4.19958 18.391 9.03726 26.0298 16.2474 27.7865C17.374 28.066 18.5271 28.1857 19.6802 28.1458C26.3071 27.9063 32.2714 22.0907 32.616 15.4632C32.9739 8.40996 26.7313 2.28824 19.7199 2.00878C12.9207 1.75592 7.19497 6.9993 6.1214 13.6134" fill="#D9186D"/>
<path d="M22.6892 4.41801C20.2108 3.12713 17.2021 2.83435 14.5513 3.72599C12.5632 4.39139 10.827 5.68228 9.44855 7.26594C8.32197 8.57013 7.19538 10.38 6.42666 12.2165C6.4134 12.2698 6.40015 12.3097 6.38689 12.3629L6.4134 12.2698C6.36039 12.4029 6.29412 12.5492 6.2411 12.6823C5.88324 14.4922 5.94951 16.3154 6.38689 18.0189C7.23515 15.0645 8.64006 12.2698 10.5089 9.82109C12.2451 7.54541 14.5646 5.48266 17.4009 5.07011C19.1504 4.81725 20.9662 5.2298 22.5037 6.09483C24.0411 6.95985 25.3268 8.25074 26.3076 9.72793C27.845 12.0568 28.6535 14.9979 27.9643 17.7128C27.2751 20.4276 24.8761 22.7565 22.0928 22.8896C20.6084 22.9562 19.1372 22.4238 17.8516 21.6786C16.3141 20.8003 14.9489 19.6025 14.0344 18.0721C13.1199 16.5417 12.7223 14.6918 13.1066 12.9751C13.438 11.5112 14.3525 10.1671 15.6514 9.40854C16.9503 8.66329 18.6203 8.55682 19.9722 9.22223C21.6024 10.0207 22.5832 11.9637 22.2916 13.747C22.1326 14.7185 21.5627 15.6766 20.6481 16.0093C19.7336 16.342 18.395 15.5436 18.3154 14.5588C19.0842 14.8515 20.0119 14.2261 20.118 13.4143C20.2373 12.6025 19.6276 11.7774 18.8456 11.5378C18.0636 11.2983 17.1756 11.5911 16.5792 12.15C15.6249 13.0416 15.3863 14.5854 15.9297 15.7831C16.4731 16.9808 17.6925 17.8059 18.9914 17.9656C21.0458 18.2318 23.1399 16.8611 23.8953 14.9314C24.6508 13.0017 24.1074 10.6728 22.6892 9.15568C21.0988 7.45225 18.5805 6.76023 16.3406 7.31917C13.8356 7.94465 12.0596 10.1538 11.3571 12.5626C10.4956 15.5436 11.3969 17.9922 13.491 20.1748C15.2935 22.0512 17.5335 23.6748 20.118 23.9276C23.2194 24.2337 26.3208 22.3573 27.8318 19.6158C29.3427 16.8744 29.3295 13.4542 28.1764 10.5397C27.1161 7.94465 25.1677 5.70889 22.6892 4.41801Z" fill="#FFB4E7"/>
<path d="M6.6383 11.1647C4.19958 18.391 9.03726 26.0298 16.2474 27.7865C17.374 28.066 18.5271 28.1857 19.6802 28.1458C26.3071 27.9063 32.2714 22.0907 32.616 15.4632C32.9739 8.40996 26.7313 2.28824 19.7199 2.00878C12.9207 1.75592 7.19497 6.9993 6.1214 13.6134" fill="url(#paint0_radial)"/>
<path d="M17.2547 35.5721L16.9233 35.9048L31.0918 49C32.7088 48.6673 32.3774 47.3897 32.3774 47.3897L17.2547 35.5721Z" fill="#88D0FF"/>
<path d="M15.941 39.83C18.8605 39.7429 21.1569 37.2959 21.0701 34.3645C20.9833 31.4331 18.5463 29.1273 15.6268 29.2145C12.7073 29.3016 10.4109 31.7486 10.4977 34.68C10.5844 37.6114 13.0215 39.9172 15.941 39.83Z" fill="url(#paint1_radial)"/>
<path d="M43.5642 24.6729H43.0208L44.3064 47.3631C45.9499 48.4144 46.7054 47.057 46.7054 47.057L43.5642 24.6729Z" fill="#88D0FF"/>
<path d="M49.5274 22.5036C49.5274 26.1101 46.6248 29.0246 43.033 29.0246C39.4412 29.0246 36.5386 26.1101 36.5386 22.5036C36.5386 18.8971 39.4412 15.9827 43.033 15.9827C46.6248 15.9827 49.5274 18.8971 49.5274 22.5036Z" fill="#B954BD"/>
<path d="M43.0339 22.5037C43.0339 22.5037 45.91 25.2984 44.8365 28.7718C44.8365 28.7718 46.2546 28.5189 47.6993 27.0417C47.6993 27.0417 48.203 24.2204 43.0339 22.5037Z" fill="#FFB4E7"/>
<path d="M43.047 22.5037C43.047 22.5037 41.5626 26.2299 37.9575 26.5493C37.9575 26.5493 38.7262 27.7736 40.6481 28.5588C40.6348 28.5588 43.4181 27.9466 43.047 22.5037Z" fill="#FFB4E7"/>
<path d="M43.0074 22.5036C43.0074 22.5036 39.6807 20.2812 40.1048 16.6614C40.1048 16.6614 38.7529 17.1671 37.5999 18.8838C37.5999 18.8838 37.6264 21.7584 43.0074 22.5036Z" fill="#FFB4E7"/>
<path d="M43.0339 22.5037C43.0339 22.5037 43.9882 18.6044 47.527 17.7927C47.527 17.7927 46.5992 16.6881 44.5979 16.1691C44.5979 16.1691 41.9206 17.1539 43.0339 22.5037Z" fill="#FFB4E7"/>
<path d="M43.0339 22.517C43.0339 22.517 46.7583 21.0398 49.4621 23.4752C49.4621 23.4752 49.82 22.0646 49.0777 20.1349C49.0777 20.1349 46.7318 18.5113 43.0339 22.517Z" fill="#FFB4E7"/>
<path d="M43.0471 22.5169C43.0471 22.5169 39.2565 23.8211 36.672 21.2793C36.672 21.2793 36.2479 22.6633 36.9106 24.6329C36.9106 24.6329 39.177 26.3497 43.0471 22.5169Z" fill="#FFB4E7"/>
<defs>
<radialGradient id="paint0_radial" cx="0" cy="0" r="1" gradientUnits="userSpaceOnUse" gradientTransform="translate(9.43835 8.30364) rotate(36.1582) scale(18.4539 18.7908)">
<stop stop-color="#FFC7DF" stop-opacity="0.69"/>
<stop offset="1" stop-color="#FF91C1" stop-opacity="0"/>
</radialGradient>
<radialGradient id="paint1_radial" cx="0" cy="0" r="1" gradientUnits="userSpaceOnUse" gradientTransform="translate(10.5844 30.653) rotate(45) scale(12.9668 12.9142)">
<stop offset="0.233292" stop-color="#FFF500"/>
<stop offset="0.698211" stop-color="#FF9500"/>
</radialGradient>
</defs>
</svg>
