<svg width="50" height="50" viewBox="0 0 50 50" fill="none" xmlns="http://www.w3.org/2000/svg">
<path d="M39.0463 35.881C39.4387 37.0112 39.7641 38.1696 40.0484 39.3314C40.3553 40.5845 40.6606 41.8496 40.7632 43.1395C40.8676 44.4486 40.6805 45.9736 39.7559 46.9827C38.7156 48.1177 36.621 48.3213 35.3325 47.5011C33.7038 46.4639 33.3289 44.3937 32.8551 42.6705C32.3927 40.9879 32.1455 39.2545 31.9343 37.5252L39.0463 35.881Z" fill="url(#paint0_linear)"/>
<path d="M22.4242 35.881C22.0318 37.0112 21.7064 38.1696 21.4221 39.3314C21.1155 40.5845 20.8103 41.8496 20.7073 43.1395C20.6029 44.4486 20.79 45.9736 21.7146 46.9827C22.7549 48.1177 24.8498 48.3213 26.138 47.5011C27.767 46.4639 28.1419 44.3937 28.6154 42.6705C29.0778 40.9879 29.3254 39.2545 29.5362 37.5252L22.4242 35.881Z" fill="url(#paint1_linear)"/>
<path d="M42.6509 24C44.5615 24.6763 46.9044 25.8742 48.3456 27.3137C49.6224 28.5895 49.8999 30.8053 48.7229 32.2215C47.1502 34.1139 44.6374 33.3669 42.8271 32.3331C42.0855 31.9095 41.393 31.4625 40.7294 30.91C40.4461 30.6742 38.1534 28.6554 38.3862 28.3252C38.3869 28.3238 41.6773 23.6556 41.6773 23.6556C41.6773 23.6556 42.6496 23.9996 42.6509 24Z" fill="url(#paint2_radial)"/>
<path d="M18.8201 24C16.9091 24.6763 14.5663 25.8742 13.1254 27.3137C11.8482 28.5895 11.5708 30.8053 12.7477 32.2215C14.3208 34.1139 16.8332 33.3669 18.6436 32.3331C19.3855 31.9095 20.078 31.4625 20.7416 30.91C21.0245 30.6742 23.3176 28.6554 23.0848 28.3252C23.0838 28.3238 19.7934 23.6556 19.7934 23.6556C19.7934 23.6556 18.8211 23.9996 18.8201 24Z" fill="url(#paint3_radial)"/>
<path d="M40.4296 29.3836C40.2339 29.0155 39.0072 26.5714 38.4541 26.5714C38.4486 26.5714 32.447 26.5714 30.5364 26.5714C30.5364 26.5714 30.3205 26.5714 29.959 26.5714C28.0484 26.5714 22.0468 26.5714 22.0413 26.5714C21.4878 26.5714 20.2615 29.0155 20.0658 29.3836C18.4906 32.3461 18.5723 36.2246 20.3518 39.1072C23.521 44.2419 31.7027 45.0789 36.8282 42.2166C38.1925 41.4551 39.3478 40.3967 40.1433 39.1085C41.9231 36.226 42.0051 32.3464 40.4296 29.3836Z" fill="url(#paint4_linear)"/>
<path d="M44.3845 7.79931C44.3845 10.4501 42.236 12.599 39.5852 12.599C36.9344 12.599 34.7859 10.4501 34.7859 7.79931C34.7859 5.14886 36.9344 3 39.5852 3C42.236 3 44.3845 5.14886 44.3845 7.79931Z" fill="#D881BC"/>
<path d="M44.3845 7.79931C44.3845 10.4501 42.236 12.599 39.5852 12.599C36.9344 12.599 34.7859 10.4501 34.7859 7.79931C34.7859 5.14886 36.9344 3 39.5852 3C42.236 3 44.3845 5.14886 44.3845 7.79931Z" fill="#D881BC"/>
<path d="M44.3845 7.79931C44.3845 10.4501 42.236 12.599 39.5852 12.599C36.9344 12.599 34.7859 10.4501 34.7859 7.79931C34.7859 5.14886 36.9344 3 39.5852 3C42.236 3 44.3845 5.14886 44.3845 7.79931Z" fill="#D881BC"/>
<path d="M44.3845 7.79931C44.3845 10.4501 42.236 12.599 39.5852 12.599C36.9344 12.599 34.7859 10.4501 34.7859 7.79931C34.7859 5.14886 36.9344 3 39.5852 3C42.236 3 44.3845 5.14886 44.3845 7.79931Z" fill="url(#paint5_linear)"/>
<path d="M41.7442 8.0661C41.7442 9.40574 40.6583 10.4917 39.3186 10.4917C37.979 10.4917 36.8931 9.40574 36.8931 8.0661C36.8931 6.7268 37.979 5.64087 39.3186 5.64087C40.6583 5.64087 41.7442 6.7268 41.7442 8.0661Z" fill="#FFE34B"/>
<path d="M26.3617 7.79931C26.3617 10.4501 24.2128 12.599 21.5623 12.599C18.9116 12.599 16.7627 10.4501 16.7627 7.79931C16.7627 5.14886 18.9116 3 21.5623 3C24.2128 3 26.3617 5.14886 26.3617 7.79931Z" fill="#D881BC"/>
<path d="M26.3617 7.79931C26.3617 10.4501 24.2128 12.599 21.5623 12.599C18.9116 12.599 16.7627 10.4501 16.7627 7.79931C16.7627 5.14886 18.9116 3 21.5623 3C24.2128 3 26.3617 5.14886 26.3617 7.79931Z" fill="url(#paint6_linear)"/>
<path d="M24.2541 8.0661C24.2541 9.40574 23.1682 10.4917 21.8286 10.4917C20.4892 10.4917 19.4033 9.40574 19.4033 8.0661C19.4033 6.7268 20.4892 5.64087 21.8286 5.64087C23.1682 5.64087 24.2541 6.7268 24.2541 8.0661Z" fill="#FFE34B"/>
<path d="M44.364 18.2292C44.364 11.5704 38.1901 6.17236 30.5738 6.17236C22.9575 6.17236 16.7832 11.5704 16.7832 18.2292C16.7832 24.8883 22.9575 30.286 30.5738 30.286C38.1901 30.286 44.364 24.8883 44.364 18.2292Z" fill="url(#paint7_linear)"/>
<path d="M31.2302 17.0409C30.8409 16.9114 30.4166 16.9053 30.0235 17.0234C28.3099 17.5377 26.822 18.8337 26.0715 20.3704C25.712 21.1068 25.5081 21.926 25.5908 22.7376C25.6784 23.6004 26.1058 24.3979 26.7475 25.0221C28.8895 27.105 32.5936 26.9269 34.5917 24.7831C36.9098 22.2965 34.5701 18.1512 31.2302 17.0409Z" fill="#FCEDED"/>
<path d="M34.592 24.7828C33.286 26.1829 31.2528 26.7453 29.4016 26.3848C30.5219 26.1692 31.5779 25.6295 32.3665 24.7828C34.5755 22.4146 32.5561 18.5409 29.473 17.2187C29.6533 17.1446 29.8369 17.0793 30.0237 17.023C30.4168 16.9053 30.8405 16.9118 31.2301 17.0412C34.57 18.1515 36.9094 22.2968 34.592 24.7828Z" fill="#EAD7E9"/>
<path d="M25.7507 15.4798C25.3868 15.4798 25.0916 15.1846 25.0916 14.8206V13.9156C25.0916 13.5517 25.3868 13.2565 25.7507 13.2565C26.1147 13.2565 26.4099 13.5517 26.4099 13.9156V14.8206C26.4099 15.1846 26.1147 15.4798 25.7507 15.4798Z" fill="#646C71"/>
<path d="M25.7507 15.4798C25.3868 15.4798 25.0916 15.1846 25.0916 14.8206V13.9156C25.0916 13.5517 25.3868 13.2565 25.7507 13.2565C26.1147 13.2565 26.4099 13.5517 26.4099 13.9156V14.8206C26.4099 15.1846 26.1147 15.4798 25.7507 15.4798Z" fill="url(#paint8_linear)"/>
<path d="M35.3967 15.4798C35.0325 15.4798 34.7375 15.1846 34.7375 14.8206V13.9156C34.7375 13.5517 35.0325 13.2565 35.3967 13.2565C35.7606 13.2565 36.0559 13.5517 36.0559 13.9156V14.8206C36.0559 15.1846 35.7606 15.4798 35.3967 15.4798Z" fill="#555C62"/>
<path d="M35.3967 15.4798C35.0325 15.4798 34.7375 15.1846 34.7375 14.8206V13.9156C34.7375 13.5517 35.0325 13.2565 35.3967 13.2565C35.7606 13.2565 36.0559 13.5517 36.0559 13.9156V14.8206C36.0559 15.1846 35.7606 15.4798 35.3967 15.4798Z" fill="url(#paint9_linear)"/>
<path d="M32.5383 16.3571C31.6419 16.1487 30.5752 16.1957 30.5752 16.1957C30.5752 16.1957 29.5085 16.1487 28.6121 16.3571C27.8461 16.5349 27.4647 17.3963 27.8259 18.0946C28.2732 18.9598 29.1336 20.1044 30.5752 20.1813C32.0168 20.1044 32.8772 18.9595 33.3245 18.0946C33.6857 17.3963 33.3043 16.5349 32.5383 16.3571Z" fill="#646C71"/>
<path d="M32.5383 16.3571C31.6419 16.1487 30.5752 16.1957 30.5752 16.1957C30.5752 16.1957 29.5085 16.1487 28.6121 16.3571C27.8461 16.5349 27.4647 17.3963 27.8259 18.0946C28.2732 18.9598 29.1336 20.1044 30.5752 20.1813C32.0168 20.1044 32.8772 18.9595 33.3245 18.0946C33.6857 17.3963 33.3043 16.5349 32.5383 16.3571Z" fill="url(#paint10_radial)"/>
<path d="M30.5974 24.3148C29.7889 24.3148 29.0408 23.9478 28.5457 23.3075C28.3229 23.0198 28.3754 22.6058 28.6635 22.383C28.9512 22.1601 29.3656 22.213 29.588 22.5011C29.8318 22.8159 30.1998 22.9965 30.5974 22.9965C30.995 22.9965 31.363 22.8159 31.6068 22.5007C31.8292 22.2127 32.2433 22.1598 32.5313 22.3826C32.8194 22.6054 32.8723 23.0195 32.6494 23.3072C32.154 23.9475 31.4063 24.3148 30.5974 24.3148Z" fill="#565E63"/>
<path d="M23.6818 19.5797C23.6818 20.4387 22.9852 21.1353 22.1263 21.1353C21.2669 21.1353 20.5703 20.4387 20.5703 19.5797C20.5703 18.7204 21.2669 18.0238 22.1263 18.0238C22.9852 18.0238 23.6818 18.7204 23.6818 19.5797Z" fill="#FFE34B"/>
<path d="M40.5769 19.5797C40.5769 20.4387 39.8806 21.1353 39.0213 21.1353C38.1619 21.1353 37.4653 20.4387 37.4653 19.5797C37.4653 18.7204 38.1619 18.0238 39.0213 18.0238C39.8806 18.0238 40.5769 18.7204 40.5769 19.5797Z" fill="#FFE34B"/>
<defs>
<linearGradient id="paint0_linear" x1="36.3617" y1="35.881" x2="36.3617" y2="48" gradientUnits="userSpaceOnUse">
<stop offset="0.0729167" stop-color="#EA714B"/>
<stop offset="1" stop-color="#AB2900"/>
</linearGradient>
<linearGradient id="paint1_linear" x1="24.9999" y1="40" x2="25.1088" y2="48" gradientUnits="userSpaceOnUse">
<stop stop-color="#EA714B"/>
<stop offset="1" stop-color="#AB2900"/>
</linearGradient>
<radialGradient id="paint2_radial" cx="0" cy="0" r="1" gradientUnits="userSpaceOnUse" gradientTransform="translate(46.3685 26.0357) rotate(115.812) scale(7.73612 8.82479)">
<stop offset="0.0405928" stop-color="#EA714B"/>
<stop offset="1" stop-color="#AB2900"/>
</radialGradient>
<radialGradient id="paint3_radial" cx="0" cy="0" r="1" gradientUnits="userSpaceOnUse" gradientTransform="translate(17.2399 25.5) rotate(90) scale(7.5 8.55568)">
<stop stop-color="#EA714B"/>
<stop offset="1" stop-color="#AB2900"/>
</radialGradient>
<linearGradient id="paint4_linear" x1="23.8" y1="24.6" x2="38.2327" y2="43.1785" gradientUnits="userSpaceOnUse">
<stop stop-color="#FF8A65"/>
<stop offset="0.288213" stop-color="#EA714B"/>
<stop offset="0.945041" stop-color="#AB2900"/>
</linearGradient>
<linearGradient id="paint5_linear" x1="43.0541" y1="11.0357" x2="36.0898" y2="4.60714" gradientUnits="userSpaceOnUse">
<stop stop-color="#D93F0E"/>
<stop offset="1" stop-color="#EA714B"/>
</linearGradient>
<linearGradient id="paint6_linear" x1="19.4828" y1="11.5714" x2="24.3042" y2="3.53571" gradientUnits="userSpaceOnUse">
<stop offset="0.213542" stop-color="#D93F0E"/>
<stop offset="1" stop-color="#EA714B"/>
</linearGradient>
<linearGradient id="paint7_linear" x1="20.2" y1="8.40006" x2="39.55" y2="26.8501" gradientUnits="userSpaceOnUse">
<stop stop-color="#FF8C68"/>
<stop offset="0.388672" stop-color="#EA714B"/>
<stop offset="1" stop-color="#AB2900"/>
</linearGradient>
<linearGradient id="paint8_linear" x1="25.3755" y1="15.3215" x2="25.3755" y2="13.1786" gradientUnits="userSpaceOnUse">
<stop stop-color="#303032"/>
<stop offset="1" stop-color="#8B83D1" stop-opacity="0"/>
</linearGradient>
<linearGradient id="paint9_linear" x1="35.3967" y1="13.2565" x2="35.3967" y2="15.4798" gradientUnits="userSpaceOnUse">
<stop stop-color="#2B3894" stop-opacity="0"/>
<stop offset="1" stop-color="#0F0F0F" stop-opacity="0.49"/>
</linearGradient>
<radialGradient id="paint10_radial" cx="0" cy="0" r="1" gradientUnits="userSpaceOnUse" gradientTransform="translate(32.3399 19.6072) rotate(-148.156) scale(8.5135 12.3184)">
<stop offset="0.333734" stop-color="#3B4449"/>
<stop offset="0.71875" stop-color="#C8C8C8" stop-opacity="0.16"/>
<stop offset="0.9124" stop-color="#D1D1D1" stop-opacity="0.02"/>
<stop offset="1" stop-color="#565D63"/>
</radialGradient>
</defs>
</svg>
