<svg width="50" height="50" viewBox="0 0 50 50" fill="none" xmlns="http://www.w3.org/2000/svg">
<path d="M11.4047 13.8862C11.4047 13.8862 10.5738 15.3558 11.3511 16.5892C12.2357 18.0062 19.7004 23.0185 19.7004 23.0185L20.9602 21.1553L11.4047 13.8862Z" fill="#831947"/>
<path d="M21.3757 22.297L30.8909 17.1666C30.8909 17.1666 23.2922 13.0466 19.1644 11.4721C15.0367 9.88446 10.8956 12.5874 11.1502 15.3297C11.4048 18.0851 21.3757 22.297 21.3757 22.297Z" fill="#E22351"/>
<path d="M48.0989 14.1226C47.402 13.9127 46.5175 13.6765 45.5526 13.519C43.3279 13.1648 42.6444 11.8789 39.2672 11.236C35.8899 10.593 20.947 15.3691 15.5595 18.7937C11.2442 21.536 4.04748 24.4226 5.21343 26.9944C5.21343 26.9944 6.21856 31.7836 16.6183 32.0329C27.018 32.2953 34.3755 28.0178 34.3755 28.0178C41.3578 24.3045 47.4288 20.9718 49.5061 18.1508C50.5648 16.7074 49.8411 14.6474 48.0989 14.1226Z" fill="url(#paint0_radial)"/>
<path d="M7.58541 25.9183L5.57515 25.1967L0.964966 17.1797L1.59485 16.8517L7.58541 25.9183Z" fill="#6AC3EF"/>
<path d="M5.72793 25.059C2.08294 26.1004 10.9351 35.9939 23.4321 30.2661C35.9292 24.5383 31.7635 20.3726 31.7635 20.3726L14.0593 21.414C14.0593 21.414 9.37292 24.0175 5.72793 25.059Z" fill="url(#paint1_linear)"/>
<path d="M16.6048 22.2838C16.6048 22.2838 12.0616 17.2059 9.58229 16.6024C7.08957 15.9988 1.60828 16.8517 1.60828 16.8517L7.59884 25.9183C7.58544 25.9183 14.5409 24.4225 16.6048 22.2838Z" fill="#BBE5FF"/>
<path d="M3.2836 19.3973L8.36285 18.2558C8.53707 18.2164 8.64428 18.0458 8.60408 17.8884C8.56387 17.7178 8.38965 17.6128 8.22883 17.6522L2.92175 18.8462L3.2836 19.3973Z" fill="#E22351"/>
<path d="M4.12781 20.6701L10.239 19.2268C10.4132 19.1874 10.507 19.0168 10.4668 18.8463C10.4266 18.6757 10.2524 18.5707 10.0782 18.6232L3.75256 20.119L4.12781 20.6701Z" fill="#E22351"/>
<path d="M5.01248 22.0345L12.2226 20.3026C12.3968 20.2632 12.4906 20.0926 12.4504 19.922C12.4102 19.7515 12.236 19.6596 12.0618 19.699L4.65063 21.4835L5.01248 22.0345Z" fill="#E22351"/>
<path d="M44.2795 17.4159C45.6063 16.9567 45.9949 15.2509 45.9011 13.5977C45.7805 13.5714 45.6599 13.5583 45.5393 13.5321C43.8104 13.2434 43.0332 12.4037 41.1703 11.7607C41.2641 12.4299 41.3847 13.309 41.1569 14.0044C40.9023 14.8048 40.7951 15.6446 41.2775 16.34C41.8672 17.1535 42.8187 17.9145 44.2795 17.4159Z" fill="#516489"/>
<path d="M29.1619 27.3224L25.6372 27.1649L25.9052 28.2277C25.9052 28.2277 35.7019 33.7648 36.9482 34.2897C39.776 35.4705 42.6708 34.3028 44.1986 32.4002C44.346 32.2296 44.815 31.4949 44.815 31.4949L29.1619 27.3224Z" fill="#831947"/>
<path d="M35.3802 22.1526L25.6372 27.1648C25.6372 27.1648 33.0483 31.6654 37.1091 33.4367C41.1698 35.2081 45.4315 32.5445 45.2975 29.6841C45.1769 26.8368 35.3802 22.1526 35.3802 22.1526Z" fill="#FE4773"/>
<path d="M35.3802 22.1526L25.6372 27.1648C25.6372 27.1648 33.0483 31.6654 37.1091 33.4367C41.1698 35.2081 45.4315 32.5445 45.2975 29.6841C45.1769 26.8368 35.3802 22.1526 35.3802 22.1526Z" fill="url(#paint2_linear)"/>
<path d="M20.8932 23.6221C20.9603 24.3175 21.5901 24.8161 22.287 24.7505C22.9839 24.6849 23.5066 24.0682 23.4396 23.3859C23.3726 22.6905 22.7427 22.1919 22.0458 22.2575C21.3355 22.31 20.8262 22.9267 20.8932 23.6221Z" fill="#516489"/>
<path d="M25.6375 21.5098C25.7045 22.2052 26.3344 22.7038 27.0313 22.6382C27.7416 22.5726 28.2509 21.9559 28.1838 21.2736C28.1168 20.5782 27.487 20.0796 26.7901 20.1452C26.0932 20.1977 25.5705 20.8144 25.6375 21.5098Z" fill="#516489"/>
<path d="M30.0331 19.0692C30.1001 19.7647 30.73 20.2633 31.4269 20.1977C32.1372 20.132 32.6465 19.5154 32.5795 18.8331C32.5124 18.1376 31.8826 17.639 31.1857 17.7046C30.4754 17.7571 29.9661 18.3738 30.0331 19.0692Z" fill="#516489"/>
<path d="M5.82983 34.0141C7.63581 34.0141 9.09985 32.5807 9.09985 30.8125C9.09985 29.0443 7.63581 27.611 5.82983 27.611C4.02385 27.611 2.55981 29.0443 2.55981 30.8125C2.55981 32.5807 4.02385 34.0141 5.82983 34.0141Z" fill="url(#paint3_linear)"/>
<path d="M8.08134 39.1182C10.6719 39.1182 12.7719 37.0621 12.7719 34.5258C12.7719 31.9895 10.6719 29.9335 8.08134 29.9335C5.4908 29.9335 3.39075 31.9895 3.39075 34.5258C3.39075 37.0621 5.4908 39.1182 8.08134 39.1182Z" fill="url(#paint4_linear)"/>
<path d="M2.88137 37.347C4.4727 37.347 5.76273 36.084 5.76273 34.526C5.76273 32.968 4.4727 31.705 2.88137 31.705C1.29003 31.705 0 32.968 0 34.526C0 36.084 1.29003 37.347 2.88137 37.347Z" fill="url(#paint5_linear)"/>
<path d="M11.1368 33.03C12.6616 33.03 13.8976 31.8199 13.8976 30.3271C13.8976 28.8343 12.6616 27.6241 11.1368 27.6241C9.61213 27.6241 8.3761 28.8343 8.3761 30.3271C8.3761 31.8199 9.61213 33.03 11.1368 33.03Z" fill="url(#paint6_linear)"/>
<path d="M5.88502 40.3584C7.40974 40.3584 8.64576 39.1482 8.64576 37.6555C8.64576 36.1627 7.40974 34.9525 5.88502 34.9525C4.3603 34.9525 3.12427 36.1627 3.12427 37.6555C3.12427 39.1482 4.3603 40.3584 5.88502 40.3584Z" fill="url(#paint7_linear)"/>
<defs>
<radialGradient id="paint0_radial" cx="0" cy="0" r="1" gradientUnits="userSpaceOnUse" gradientTransform="translate(22.9115 12.5619) rotate(52.7652) scale(16.3507 49.0467)">
<stop offset="0.431232" stop-color="#BBE5FF"/>
<stop offset="1" stop-color="#83C6F0"/>
</radialGradient>
<linearGradient id="paint1_linear" x1="11.9765" y1="23.4968" x2="20.8286" y2="25.5797" gradientUnits="userSpaceOnUse">
<stop stop-color="#6AC3EF"/>
<stop offset="0.848958" stop-color="#6AC3EF" stop-opacity="0"/>
</linearGradient>
<linearGradient id="paint2_linear" x1="29.6803" y1="26.1003" x2="37.491" y2="29.7453" gradientUnits="userSpaceOnUse">
<stop stop-color="#D3093A"/>
<stop offset="1" stop-color="#E21B4B" stop-opacity="0"/>
</linearGradient>
<linearGradient id="paint3_linear" x1="5.82983" y1="27.611" x2="5.82983" y2="34.0141" gradientUnits="userSpaceOnUse">
<stop stop-color="#F3F3F3"/>
<stop offset="1" stop-color="#F3F3F3" stop-opacity="0"/>
</linearGradient>
<linearGradient id="paint4_linear" x1="8.08134" y1="29.9335" x2="8.08134" y2="39.1182" gradientUnits="userSpaceOnUse">
<stop stop-color="#F3F3F3"/>
<stop offset="1" stop-color="#F3F3F3" stop-opacity="0"/>
</linearGradient>
<linearGradient id="paint5_linear" x1="2.88137" y1="31.705" x2="2.88137" y2="37.347" gradientUnits="userSpaceOnUse">
<stop stop-color="#F3F3F3"/>
<stop offset="1" stop-color="#F3F3F3" stop-opacity="0"/>
</linearGradient>
<linearGradient id="paint6_linear" x1="11.1368" y1="27.6241" x2="11.1368" y2="33.03" gradientUnits="userSpaceOnUse">
<stop stop-color="#F3F3F3"/>
<stop offset="1" stop-color="#F3F3F3" stop-opacity="0"/>
</linearGradient>
<linearGradient id="paint7_linear" x1="5.88502" y1="34.9525" x2="5.88502" y2="40.3584" gradientUnits="userSpaceOnUse">
<stop stop-color="#F3F3F3"/>
<stop offset="1" stop-color="#F3F3F3" stop-opacity="0"/>
</linearGradient>
</defs>
</svg>
