<svg width="29" height="31" viewBox="0 0 29 31" fill="none" xmlns="http://www.w3.org/2000/svg">
<path d="M24.3148 5.10938C23.3777 4.02558 21.9721 3.5611 20.5665 3.09661C19.3171 2.78695 17.9115 2.47729 16.1936 2.47729C15.5689 2.47729 14.788 2.47729 14.0071 2.47729C11.1959 2.47729 9.00947 2.78695 7.13535 3.40627C4.94888 4.18041 3.5433 5.7287 3.07477 8.05113C2.45006 10.6832 2.29388 13.4701 2.76241 16.7215C2.91859 18.2698 3.38712 19.5084 4.01182 20.5922C4.79271 21.8309 5.88594 22.605 7.4477 23.0695C8.54094 23.3792 8.85329 24.1533 8.85329 24.7726C8.85329 25.0823 8.85329 25.8564 8.85329 26.6306C9.478 26.0113 10.2589 25.3919 10.8836 24.7726C11.1959 24.463 11.6645 23.8436 12.7577 23.9985C13.2262 23.9985 13.5386 23.9985 14.0071 23.9985C16.5059 23.9985 19.0048 23.6888 21.1912 23.0695C23.3777 22.4502 24.7833 21.3664 25.5642 19.3536C26.0327 18.2698 26.1889 17.0312 26.1889 15.7926C26.5012 12.5412 26.345 10.2187 25.7203 7.8963C25.408 6.65767 24.9395 5.88353 24.3148 5.10938Z" fill="url(#paint0_linear)"/>
<path d="M7.76001 30.5012C7.60384 30.5012 7.44766 30.5012 7.29148 30.3464C6.82295 30.1916 6.5106 29.7271 6.5106 29.2626C6.5106 28.6433 6.5106 27.7143 6.35443 26.7854C6.35443 26.3209 6.35443 25.7016 6.35443 25.3919C4.48031 24.7726 2.91855 23.534 1.98149 21.9857C1.04443 20.5922 0.419724 19.0439 0.263548 17.0312C-0.204981 13.4701 -0.0488051 10.3735 0.732077 7.43178C1.51296 4.3352 3.38707 2.1676 6.35443 1.0838C8.54089 0.309657 10.8835 0 14.0071 0C14.7879 0 15.4127 0 16.5059 0C18.38 0 19.9418 0.309657 21.5035 0.774143C23.2215 1.23863 25.0956 1.85794 26.5012 3.56106C27.4382 4.49003 28.0629 5.72866 28.3753 7.27695C29 9.7542 29.1562 12.5411 28.8438 15.9474C28.6876 17.3408 28.5315 18.7343 28.0629 20.2826C26.9697 23.0695 24.9394 24.7726 21.9721 25.5467C19.4732 26.166 16.8182 26.4757 14.1632 26.4757C13.8509 26.4757 13.3824 26.4757 12.9138 26.4757C11.6644 27.7143 9.79031 29.2626 9.00942 29.8819C8.85325 30.0368 8.69707 30.0368 8.69707 30.0368C8.38472 30.3464 8.07237 30.5012 7.76001 30.5012ZM14.0071 2.47726C11.1959 2.47726 9.00942 2.78692 7.13531 3.40623C4.94884 4.18037 3.54325 5.72866 3.07472 8.05109C2.45002 10.6832 2.29384 13.4701 2.76237 16.7215C2.91855 18.2698 3.38707 19.5084 4.01178 20.5922C4.79266 21.8308 5.8859 22.605 7.44766 23.0695C8.5409 23.3791 8.85325 24.1533 8.85325 24.7726C8.85325 25.0822 8.85325 25.8564 8.85325 26.6305C9.47795 26.0112 10.2588 25.3919 10.8835 24.7726C11.1959 24.4629 11.6644 23.8436 12.7577 23.9984C13.2262 23.9984 13.5385 23.9984 14.0071 23.9984C16.5059 23.9984 19.0047 23.6888 21.1912 23.0695C23.3776 22.4502 24.7832 21.3664 25.5641 19.3536C26.0326 18.2698 26.1888 17.0312 26.1888 15.7925C26.5012 12.5411 26.345 10.2187 25.7203 7.89626C25.4079 6.65763 24.9394 5.88349 24.3147 5.10934C23.3776 4.02554 21.9721 3.56106 20.5665 3.09657C19.3171 2.78692 17.9115 2.47726 16.1935 2.47726C15.5688 2.47726 14.7879 2.47726 14.0071 2.47726Z" fill="white"/>
<path d="M21.0349 18.4243C20.8787 19.3533 20.4102 19.9726 19.9417 20.4371C19.317 21.0564 18.6923 21.3661 17.7552 21.0564C17.1305 20.7468 16.5058 20.4371 15.8811 20.1274C13.8508 19.1985 12.1328 17.805 10.7273 16.2567C9.00932 14.3988 7.60373 12.2312 6.82285 9.75392C6.66667 9.13461 6.66667 8.51529 7.29138 8.05081C7.75991 7.58632 8.22844 7.27666 8.85314 6.96701C9.16549 6.65735 9.63402 6.81218 10.1026 7.12184C11.0396 8.05081 11.8205 8.97978 12.4452 10.2184C12.6014 10.6829 12.6014 10.9926 12.1328 11.3022C11.9767 11.457 11.8205 11.6119 11.5081 11.7667C11.0396 12.2312 10.8834 12.5408 11.0396 13.1602C11.5081 14.5536 12.6014 15.6374 13.8508 16.4116C14.3193 16.7212 14.7878 16.876 15.2564 17.0309C15.7249 17.1857 16.0373 17.0309 16.1934 16.7212C16.3496 16.5664 16.5058 16.4116 16.662 16.2567C17.1305 15.7922 17.7552 15.6374 18.2237 15.9471C19.1608 16.5664 20.0978 17.1857 20.8787 17.805C20.8787 17.9598 20.8787 18.2695 21.0349 18.4243Z" fill="white"/>
<path d="M22.2844 14.3992C21.9721 14.3992 21.6597 14.0895 21.6597 13.7799C21.6597 9.44466 18.0677 6.03843 13.8509 6.03843C13.5385 6.03843 13.2262 5.72878 13.2262 5.41912C13.2262 5.10946 13.5385 4.7998 13.8509 4.7998C18.8485 4.7998 22.9091 8.82535 22.9091 13.7799C22.9091 14.0895 22.753 14.3992 22.2844 14.3992Z" fill="white"/>
<path d="M20.098 14.399C19.7857 14.399 19.4733 14.0894 19.4733 13.7797C19.4733 10.6831 16.9745 8.3607 14.0072 8.3607C13.6948 8.3607 13.3824 8.05104 13.3824 7.74138C13.3824 7.43173 13.6948 7.12207 14.0072 7.12207C17.7554 7.12207 20.7227 10.0638 20.7227 13.7797C20.7227 14.0894 20.4104 14.399 20.098 14.399Z" fill="white"/>
<path d="M17.7553 14.3991C17.443 14.3991 17.1306 14.0895 17.1306 13.7798C17.1306 12.0767 15.725 10.5284 13.8509 10.5284C13.5385 10.5284 13.2262 10.2188 13.2262 9.90911C13.2262 9.59945 13.5385 9.28979 13.8509 9.28979C16.3497 9.28979 18.38 11.3026 18.38 13.7798C18.38 14.0895 18.0677 14.3991 17.7553 14.3991Z" fill="white"/>
<defs>
<linearGradient id="paint0_linear" x1="6.48722" y1="3.58826" x2="21.7378" y2="23.1962" gradientUnits="userSpaceOnUse">
<stop stop-color="#AD7EC7"/>
<stop offset="0.489583" stop-color="#8850A7"/>
<stop offset="1" stop-color="#5B1880"/>
</linearGradient>
</defs>
</svg>
