<svg width="48" height="15" viewBox="0 0 48 15" fill="none" xmlns="http://www.w3.org/2000/svg">
<path d="M23.7658 0.265836L20.559 14.7718H16.6811L19.8881 0.265836H23.7658ZM40.0847 9.63224L42.1266 4.18401L43.3005 9.63224H40.0847H40.0847ZM44.4131 14.7718H48L44.8673 0.265832H41.5586C40.8121 0.265832 40.1842 0.683588 39.9053 1.32977L34.0863 14.7718H38.1602L38.9672 12.6055H43.9437L44.4131 14.7718H44.4131ZM34.2878 10.0363C34.3054 6.20802 28.8187 5.99459 28.855 4.2847C28.8663 3.76493 29.3789 3.21111 30.4994 3.06961C31.0542 2.99994 32.5878 2.94419 34.3242 3.71882L35.0053 0.641912C34.0707 0.31489 32.8704 0 31.3765 0C27.5419 0 24.8455 1.97137 24.8234 4.79567C24.7979 6.88413 26.7501 8.04767 28.2172 8.74401C29.7298 9.4545 30.2369 9.9109 30.2293 10.545C30.2182 11.519 29.0223 11.9496 27.9096 11.9669C25.9584 11.9957 24.8277 11.4557 23.9265 11.0487L23.2221 14.2297C24.1303 14.6317 25.8034 14.9809 27.534 15C31.6113 15 34.2765 13.0523 34.2878 10.0363L34.2878 10.0363ZM18.2246 0.265836L11.9396 14.7718H7.8402L4.74744 3.19386C4.56005 2.48267 4.39613 2.2212 3.82608 1.92006C2.89346 1.43054 1.35328 0.971816 0 0.68678L0.0921693 0.265836H6.69182C7.53235 0.265836 8.28866 0.806673 8.48112 1.74318L10.1156 10.1392L14.1496 0.265836H18.2246H18.2246Z" fill="#2A2A6C"/>
</svg>
