<svg width="30" height="30" viewBox="0 0 30 30" fill="none" xmlns="http://www.w3.org/2000/svg">
<path d="M15 30C23.2843 30 30 23.2843 30 15C30 6.71573 23.2843 0 15 0C6.71573 0 0 6.71573 0 15C0 23.2843 6.71573 30 15 30Z" fill="url(#paint0_linear)"/>
<path fill-rule="evenodd" clip-rule="evenodd" d="M23.7035 11.5849C23.7907 11.1489 23.7035 10.8873 23.093 10.8873H21.0872C20.564 10.8873 20.3895 11.1489 20.2151 11.4105C20.2151 11.4105 19.1686 13.8524 17.7733 15.5094C17.3372 15.9454 17.0756 16.1198 16.814 16.1198C16.7267 16.1198 16.4651 15.9454 16.4651 15.5094V11.5849C16.4651 11.0617 16.2907 10.8873 15.9419 10.8873H12.8023C12.4535 10.8873 12.2791 11.1489 12.2791 11.3233C12.2791 11.7594 12.9767 11.9338 13.064 13.2419V16.1198C13.064 16.7303 12.9767 16.9047 12.7151 16.9047C12.0174 16.9047 10.4477 14.4628 9.40116 11.5849C9.22674 11.0617 9.05232 10.8 8.52907 10.8H6.69767C6.17442 10.8 6 11.0617 6 11.3233C6 11.8466 6.69767 14.4628 9.13953 17.864C10.7965 20.2187 13.064 21.5268 15.157 21.5268C16.3779 21.5268 16.5523 21.2652 16.5523 20.7419V18.9977C16.5523 18.4745 16.6395 18.3 17.0756 18.3C17.3372 18.3 17.8605 18.4745 19.0814 19.6082C20.3895 20.9163 20.7384 21.7012 21.5233 21.7012H23.5291C24.0523 21.7012 24.4012 21.4396 24.2267 20.8291C24.0523 20.3059 23.2674 19.3466 22.3953 18.3873C21.9593 17.864 21.2616 17.2535 21 16.9919C20.7384 16.6431 20.8256 16.4687 21 16.1198C21.0872 16.207 23.5291 12.8059 23.7035 11.5849Z" fill="url(#paint1_linear)"/>
<defs>
<linearGradient id="paint0_linear" x1="4.5" y1="4.30005" x2="23.5" y2="26.8" gradientUnits="userSpaceOnUse">
<stop stop-color="#76A3D7"/>
<stop offset="0.5" stop-color="#4B76A8"/>
<stop offset="1" stop-color="#2B619F"/>
</linearGradient>
<linearGradient id="paint1_linear" x1="15.1361" y1="10.8" x2="15.1361" y2="21.7012" gradientUnits="userSpaceOnUse">
<stop stop-color="white"/>
<stop offset="1" stop-color="#D8D8D8"/>
</linearGradient>
</defs>
</svg>
