<svg width="29" height="29" viewBox="0 0 29 29" fill="none" xmlns="http://www.w3.org/2000/svg">
<path d="M14.2548 2.38232C7.55361 2.38232 2.02515 7.91079 2.02515 14.612C2.02515 17.2924 2.86279 19.6378 4.37055 21.6482L2.86279 26.1715L7.55361 24.6637C9.56396 26.0039 11.7418 26.6741 14.2548 26.6741C20.9559 26.6741 26.4844 21.1456 26.4844 14.4444C26.4844 7.74326 21.1235 2.38232 14.2548 2.38232Z" fill="url(#paint0_linear)"/>
<path d="M28.9974 14.6119C28.9974 20.978 24.3066 26.5065 18.2756 28.3493C14.2549 29.522 10.5692 28.6844 7.38617 27.0091L1.69017 28.8519C0.684998 29.187 -0.152648 28.1818 0.182411 27.3441L2.02523 21.8157C0.852527 19.8053 0.182411 17.4599 0.0148815 14.947C-0.320177 7.74323 5.04076 1.37712 12.2445 0.204417C21.1236 -1.30335 29.165 5.73288 28.9974 14.6119ZM14.2549 2.3823C7.55369 2.3823 2.02523 7.91076 2.02523 14.6119C2.02523 17.2924 2.86288 19.6378 4.37064 21.6481L2.86288 26.1714L7.55369 24.6637C9.56404 26.0039 11.7419 26.674 14.2549 26.674C20.956 26.674 26.4845 21.1456 26.4845 14.4444C26.4845 7.74323 21.1236 2.3823 14.2549 2.3823ZM21.7937 17.795C21.7937 17.6275 21.4586 17.6274 21.1236 17.4599C20.7885 17.2924 18.9457 16.2872 18.7781 16.2872C18.4431 16.1197 18.2756 16.1197 18.108 16.4547C17.9405 16.7898 17.2704 17.6274 16.9353 17.9625C16.7678 18.13 16.6003 18.13 16.2652 17.9625C15.9302 17.795 14.7574 17.4599 13.4172 16.1197C12.2445 15.282 11.5744 13.9418 11.4069 13.7743C11.2393 13.4392 11.4069 13.2717 11.5744 13.1042C11.7419 12.9366 11.9095 12.7691 12.077 12.6016C12.2445 12.434 12.2445 12.2665 12.412 12.099C12.5796 11.9315 12.412 11.7639 12.412 11.5964C12.412 11.4289 11.7419 9.58605 11.2393 9.08346C10.9043 8.41335 10.7367 8.58088 10.5692 8.58088C10.4017 8.58088 10.2342 8.58088 9.8991 8.58088C9.73157 8.58088 9.39652 8.58088 9.06146 8.91593C8.7264 9.25099 7.72122 10.2562 7.72122 11.7639C7.72122 13.6068 9.06146 15.282 9.22899 15.4496C9.39652 15.6171 11.7419 19.4703 15.4276 20.8105C19.1132 22.3183 19.1132 21.6481 19.7833 21.6481C20.4534 21.6481 21.9612 20.8105 22.1287 19.9729C21.7937 18.8002 21.7937 17.9625 21.7937 17.795Z" fill="white"/>
<defs>
<linearGradient id="paint0_linear" x1="5.35367" y1="6.0934" x2="21.3703" y2="22.8728" gradientUnits="userSpaceOnUse">
<stop stop-color="#67F39A"/>
<stop offset="0.484375" stop-color="#00D04C"/>
<stop offset="1" stop-color="#019738"/>
</linearGradient>
</defs>
</svg>
