<svg width="90" height="90" viewBox="0 0 90 90" fill="none" xmlns="http://www.w3.org/2000/svg">
<g clip-path="url(#clip0)">
<path d="M81.2046 34.9583L79.0166 34.4572C74.7421 33.4779 70.2961 35.1461 67.7209 38.6955L63.9795 43.8518C63.8187 44.0732 63.6746 44.3063 63.5498 44.5499C63.0837 45.4585 62.3761 46.2015 61.5236 46.7139C61.5236 46.7139 61.3414 40.5569 61.1182 39.5595L60.652 37.4753C60.176 35.3482 60.1711 33.1446 60.632 31.014C62.0946 24.2524 63.6712 11.8137 63.3499 7.64899C63.0398 3.62952 56.6969 3.00146 55.403 6.86193C54.4813 9.61222 53.2208 23.4978 52.1606 31.1032C52.108 31.4806 51.5498 31.4379 51.5556 31.0568C51.6906 22.2715 51.2544 6.87499 50.6879 3.5194C49.8756 -1.29313 43.5038 -1.12036 42.7049 3.73575C42.1579 7.06099 41.8803 22.2516 41.6237 30.9696C41.6124 31.3508 41.0524 31.3689 41.0173 30.9892C40.304 23.2901 38.8563 9.2644 37.8945 6.51005C36.5655 2.70411 30.2733 3.72128 30.0112 7.78452C29.821 10.734 31.3312 26.0108 32.1776 33.4982C32.219 33.8646 31.6951 33.9747 31.5853 33.6226C29.6982 27.563 26.7631 15.0805 25.5998 13.0887C23.5667 9.60764 17.5856 11.8107 18.1063 15.8489C18.5242 19.0896 21.7144 30.2423 23.7165 36.7268L22.4016 42.6043C20.6055 50.633 21.1889 55.8948 23.6325 63.8741C24.6419 67.1706 24.7983 70.7051 23.6597 73.9592V79.3306H58.4851V73.9589C58.4789 73.9414 58.4729 73.9239 58.4669 73.9065C57.5016 71.1075 58.5829 68.0093 61.0423 66.3609L62.8005 65.5028C66.3753 63.758 69.1614 60.7301 70.6035 57.0228L72.0222 53.3759C73.9522 48.4146 76.9497 43.9382 80.8025 40.2645L82.2769 38.8585C83.6009 37.5959 82.9884 35.3669 81.2046 34.9583Z" fill="url(#paint0_linear)"/>
<path d="M82.2769 38.8587L80.8021 40.2643C77.7296 43.1951 75.1999 46.635 73.324 50.4255C72.847 51.3877 72.4122 52.3721 72.0211 53.3766L70.6037 57.0237C69.1611 60.7299 66.3752 63.7585 62.8004 65.5029L61.0426 66.3607C58.5819 68.009 57.5015 71.1067 58.4673 73.9063C58.4724 73.923 58.4792 73.9417 58.4843 73.9585V79.3299H41.6557C39.9365 76.2237 38.9423 72.6558 38.9102 68.8569C38.8039 56.685 48.586 46.7312 60.7579 46.6266C61.0124 46.6248 61.2669 46.6266 61.5197 46.6317C61.5215 46.6857 61.5231 46.7143 61.5231 46.7143C61.5653 46.689 61.6074 46.6638 61.6479 46.635C62.445 46.1277 63.1074 45.4132 63.549 44.5502C63.6753 44.3058 63.8186 44.0732 63.9787 43.8507L67.7202 38.6951C70.2954 35.1457 74.7416 33.4772 79.0157 34.4563L81.205 34.9585C82.9883 35.3665 83.6017 37.5962 82.2769 38.8587Z" fill="url(#paint1_linear)"/>
<path d="M62.6096 85.4087V77.5225C62.6096 74.9869 60.554 72.9314 58.0185 72.9314H24.4088C21.8733 72.9314 19.8177 74.9869 19.8177 77.5225V85.4087C19.8177 87.9443 21.8733 89.9998 24.4088 89.9998H58.0187C60.554 89.9998 62.6096 87.9443 62.6096 85.4087Z" fill="url(#paint2_linear)"/>
<path d="M61.5235 46.7135C61.5235 46.7135 61.3414 40.5565 61.1182 39.5591L60.652 37.475C60.3666 36.1992 60.2519 34.896 60.3041 33.5975C57.9618 32.5332 55.1648 31.7292 52.0818 31.274C51.9456 31.4183 51.6807 31.3869 51.5888 31.2046C49.8645 30.9729 48.0557 30.8494 46.1907 30.8494C44.6108 30.8494 43.0714 30.9387 41.5891 31.1065C41.4939 31.2923 41.2236 31.3158 41.0907 31.1661C37.7402 31.5895 34.6997 32.4201 32.1784 33.5513C32.1682 33.8068 31.8676 33.9113 31.691 33.7775C27.47 35.7912 24.8263 38.6721 24.8263 41.8721C24.8263 47.9598 34.3915 52.8948 46.1907 52.8948C50.6729 52.8948 54.8325 52.1825 58.268 50.9656C60.097 50.3179 61.3672 48.6473 61.5235 46.7135Z" fill="url(#paint3_linear)"/>
<path d="M41.3541 31.2617C41.3206 31.267 41.2853 31.2652 41.2535 31.2582C41.2871 31.2652 41.3206 31.2652 41.3541 31.2617Z" fill="url(#paint4_linear)"/>
<path d="M41.3982 31.253C41.4247 31.2477 41.4511 31.2371 41.4741 31.2247C41.4494 31.2389 41.4247 31.2494 41.3982 31.253Z" fill="url(#paint5_linear)"/>
<path d="M41.0167 30.9882C41.0238 31.0623 41.0503 31.1223 41.0909 31.1664C37.7397 31.5899 34.6991 32.4193 32.1791 33.5505C32.1791 33.5329 32.1791 33.5152 32.1773 33.4976C31.3797 26.4441 29.9944 12.4764 29.9944 8.41758C29.9944 8.167 29.9997 7.95523 30.0103 7.78406C30.1603 5.4617 32.2814 4.13464 34.3179 4.13464C35.8444 4.13464 37.325 4.87935 37.895 6.50994C38.8567 9.26464 40.3038 23.2888 41.0167 30.9882Z" fill="url(#paint6_linear)"/>
<path d="M51.556 31.0571C51.556 31.1135 51.5666 31.1647 51.5878 31.2053C49.8637 30.9724 48.0566 30.8488 46.1913 30.8488C44.6119 30.8488 43.0713 30.9388 41.589 31.1065C41.6102 31.0677 41.6225 31.0218 41.6243 30.9688C41.7513 26.61 41.8855 20.6329 42.0549 15.33C42.226 10.0271 42.4325 5.39824 42.7043 3.73588C43.1119 1.25824 44.9702 0 46.8002 0C48.5578 0 50.2908 1.16118 50.6878 3.51882C51.2543 6.8753 51.6902 22.2706 51.556 31.0571Z" fill="url(#paint7_linear)"/>
<path d="M60.6318 31.013C60.4394 31.8989 60.33 32.7971 60.3 33.6954C60.3018 33.6636 60.3018 33.6301 60.3036 33.5983C57.9618 32.5324 55.1647 31.7295 52.0818 31.2742C52.1224 31.2336 52.1506 31.1754 52.1612 31.103C52.6906 27.3001 53.2712 21.9283 53.8341 17.1618C54.3971 12.3954 54.9424 8.23771 55.403 6.86124C55.9924 5.10359 57.6283 4.27771 59.2659 4.27771C61.223 4.27771 63.1818 5.46006 63.3494 7.6483C63.6706 11.813 62.0947 24.2524 60.6318 31.013Z" fill="url(#paint8_linear)"/>
<path d="M40.3648 42.8423C33.1109 42.8423 26.4919 44.9973 21.4634 48.5439C21.0506 53.6336 21.8406 58.0239 23.632 63.8737C24.6414 67.1702 24.7978 70.7047 23.6592 73.9588V79.3302H58.4846V73.9588C58.4784 73.9413 58.4724 73.9239 58.4664 73.9064C57.5011 71.1074 58.5824 68.0093 61.0418 66.3609L62.8 65.5027C64.9655 64.4456 66.8387 62.9156 68.302 61.0512C65.7179 50.6705 54.1932 42.8423 40.3648 42.8423Z" fill="url(#paint9_linear)"/>
<path d="M73.2199 66.8089C72.0333 68.2525 70.4779 69.2135 68.8021 69.6683C67.6139 69.9909 66.4201 69.1703 66.3003 67.945L66.2834 67.7721C66.1881 66.7973 66.8248 65.9238 67.7668 65.6553C68.6207 65.412 69.412 64.9154 70.0187 64.1776C70.6252 63.4396 70.9593 62.5671 71.0327 61.6823C71.1137 60.7062 71.8475 59.9125 72.8223 59.8173L72.9952 59.8004C74.2206 59.6807 75.2567 60.6932 75.1702 61.9212C75.0483 63.6533 74.4065 65.3654 73.2199 66.8089Z" fill="url(#paint10_linear)"/>
<path d="M13.4109 10.761C14.3045 9.11997 15.6515 7.88344 17.2117 7.12144C18.318 6.58108 19.6449 7.16238 19.993 8.34332L20.0421 8.50991C20.319 9.44944 19.8582 10.4271 18.9834 10.8679C18.1904 11.2676 17.5067 11.9041 17.0499 12.7431C16.593 13.582 16.429 14.5016 16.5234 15.3847C16.6276 16.3586 16.0563 17.2761 15.1168 17.5531L14.9502 17.6022C13.7693 17.9504 12.5612 17.1508 12.415 15.9284C12.2089 14.2043 12.517 12.402 13.4109 10.761Z" fill="url(#paint11_linear)"/>
<path d="M8.06697 7.19785C8.96062 5.55686 10.3076 4.32033 11.8678 3.55833C12.9741 3.01797 14.301 3.59927 14.6492 4.78021L14.6982 4.9468C14.9751 5.88633 14.5143 6.86397 13.6396 7.3048C12.8465 7.7045 12.1629 8.34103 11.706 9.17997C11.2491 10.0189 11.0851 10.9385 11.1796 11.8216C11.2837 12.7955 10.7124 13.713 9.77291 13.99L9.60633 14.0391C8.42538 14.3873 7.21727 13.5877 7.07115 12.3653C6.86503 10.6411 7.17332 8.83885 8.06697 7.19785Z" fill="url(#paint12_linear)"/>
<path d="M78.0673 71.656C76.8807 73.0995 75.3253 74.0606 73.6495 74.5153C72.4614 74.8379 71.2675 74.0173 71.1477 72.7921L71.1308 72.6192C71.0355 71.6443 71.6722 70.7708 72.6142 70.5024C73.4681 70.259 74.2594 69.7625 74.8661 69.0246C75.4728 68.2868 75.8067 67.4142 75.8801 66.5293C75.9611 65.5533 76.6949 64.7595 77.6697 64.6644L77.8426 64.6474C79.0681 64.5278 80.1041 65.5402 80.0177 66.7683C79.8957 68.5003 79.2539 70.2124 78.0673 71.656Z" fill="url(#paint13_linear)"/>
</g>
<defs>
<linearGradient id="paint0_linear" x1="33.2059" y1="19.2235" x2="64.1267" y2="78.7942" gradientUnits="userSpaceOnUse">
<stop stop-color="#FCCECE"/>
<stop offset="1" stop-color="#FBA5C2"/>
</linearGradient>
<linearGradient id="paint1_linear" x1="59.1386" y1="57.0602" x2="13.4084" y2="58.7457" gradientUnits="userSpaceOnUse">
<stop stop-color="#FCCECE" stop-opacity="0"/>
<stop offset="1" stop-color="#BB4966"/>
</linearGradient>
<linearGradient id="paint2_linear" x1="25.0097" y1="72.4406" x2="58.4062" y2="91.0412" gradientUnits="userSpaceOnUse">
<stop stop-color="#3FA9F5"/>
<stop offset="1" stop-color="#666AD6"/>
</linearGradient>
<linearGradient id="paint3_linear" x1="42.7231" y1="38.9398" x2="39.272" y2="17.6923" gradientUnits="userSpaceOnUse">
<stop stop-color="#FCCECE" stop-opacity="0"/>
<stop offset="1" stop-color="#BB4966"/>
</linearGradient>
<linearGradient id="paint4_linear" x1="41.303" y1="31.2543" x2="41.301" y2="31.2423" gradientUnits="userSpaceOnUse">
<stop stop-color="#FBA5C2" stop-opacity="0"/>
<stop offset="1" stop-color="#A34A9E"/>
</linearGradient>
<linearGradient id="paint5_linear" x1="41.4354" y1="31.2344" x2="41.4338" y2="31.2247" gradientUnits="userSpaceOnUse">
<stop stop-color="#FBA5C2" stop-opacity="0"/>
<stop offset="1" stop-color="#A34A9E"/>
</linearGradient>
<linearGradient id="paint6_linear" x1="36.8236" y1="18.7363" x2="48.8236" y2="18.3834" gradientUnits="userSpaceOnUse">
<stop stop-color="#FCCECE" stop-opacity="0"/>
<stop offset="1" stop-color="#BB4966"/>
</linearGradient>
<linearGradient id="paint7_linear" x1="45.5103" y1="15.7421" x2="64.2162" y2="18.8008" gradientUnits="userSpaceOnUse">
<stop stop-color="#FCCECE" stop-opacity="0"/>
<stop offset="1" stop-color="#BB4966"/>
</linearGradient>
<linearGradient id="paint8_linear" x1="58.8579" y1="18.6978" x2="69.9168" y2="22.3448" gradientUnits="userSpaceOnUse">
<stop stop-color="#FCCECE" stop-opacity="0"/>
<stop offset="1" stop-color="#BB4966"/>
</linearGradient>
<linearGradient id="paint9_linear" x1="44.6246" y1="55.9048" x2="52.675" y2="21.3471" gradientUnits="userSpaceOnUse">
<stop stop-color="#FCCECE" stop-opacity="0"/>
<stop offset="1" stop-color="#BB4966"/>
</linearGradient>
<linearGradient id="paint10_linear" x1="71.6053" y1="65.3258" x2="73.656" y2="67.0103" gradientUnits="userSpaceOnUse">
<stop stop-color="#A34A9E"/>
<stop offset="1" stop-color="#343168"/>
</linearGradient>
<linearGradient id="paint11_linear" x1="19.2021" y1="14.3888" x2="15.3197" y2="11.6536" gradientUnits="userSpaceOnUse">
<stop stop-color="#343168"/>
<stop offset="1" stop-color="#A34A9E"/>
</linearGradient>
<linearGradient id="paint12_linear" x1="13.8584" y1="10.8257" x2="9.97603" y2="8.09044" gradientUnits="userSpaceOnUse">
<stop stop-color="#343168"/>
<stop offset="1" stop-color="#A34A9E"/>
</linearGradient>
<linearGradient id="paint13_linear" x1="76.4559" y1="70.1731" x2="78.5066" y2="71.8577" gradientUnits="userSpaceOnUse">
<stop stop-color="#A34A9E"/>
<stop offset="1" stop-color="#343168"/>
</linearGradient>
<clipPath id="clip0">
<rect width="90" height="90" fill="white"/>
</clipPath>
</defs>
</svg>
