<svg width="98" height="19" viewBox="0 0 98 19" fill="none" xmlns="http://www.w3.org/2000/svg">
<path d="M0 9.25231C0.649522 6.54157 2.18634 4.22917 4.25719 2.59637V2.59033C6.32946 0.956802 8.9361 0 11.7239 0C15.0542 0 18.0704 1.34984 20.2525 3.53144C22.4349 5.71305 23.7853 8.7278 23.7853 12.0568C23.7853 13.2987 23.5928 14.5263 23.2213 15.698C22.8509 16.8662 22.2995 17.9816 21.5811 19L19.1171 17.2674C19.6525 16.5084 20.065 15.6716 20.3445 14.7908C20.6229 13.9124 20.7673 12.9905 20.7673 12.0568C20.7673 9.56057 19.7548 7.30025 18.1186 5.66458C16.4826 4.02891 14.2211 3.01686 11.7239 3.01686C9.63055 3.01686 7.67415 3.73422 6.12022 4.95937L6.11736 4.95578C4.56377 6.18165 3.41089 7.916 2.92392 9.94794L0 9.25231Z" fill="#37AADE"/>
<path d="M11.7238 5.66779C13.4841 5.66779 15.0805 6.38297 16.2373 7.53896L16.2433 7.54504C17.3998 8.70141 18.1153 10.2972 18.1153 12.0568C18.1153 13.8165 17.3994 15.4126 16.2433 16.5686L16.2373 16.5747C15.0805 17.7307 13.4841 18.4459 11.7238 18.4459C9.96343 18.4459 8.36671 17.7303 7.21024 16.5747L7.20421 16.5686C6.04812 15.4126 5.33228 13.8165 5.33228 12.0568C5.33228 10.2929 6.04812 8.69499 7.20421 7.53934C8.36064 6.38332 9.95915 5.66779 11.7238 5.66779ZM14.1122 9.66925C13.5019 9.06133 12.6578 8.68464 11.7238 8.68464C10.7922 8.68464 9.94846 9.0624 9.33813 9.67245C8.72819 10.2822 8.35029 11.1257 8.35029 12.0568C8.35029 12.9905 8.72712 13.8343 9.3353 14.4444C9.94559 15.0523 10.7898 15.429 11.7238 15.429C12.6578 15.429 13.5019 15.0523 14.1122 14.4444C14.7204 13.8343 15.0972 12.9905 15.0972 12.0568C15.0972 11.1232 14.7204 10.2793 14.1122 9.66925Z" fill="#3F70AB"/>
<path d="M32.357 7.3443H28.9011L31.1494 15.3306C31.4653 16.4263 31.9296 17.2993 33.7505 17.2993C35.5528 17.2993 36.0731 16.575 36.2774 15.8693L37.5781 11.5788C37.6151 11.4675 37.6524 11.2816 37.7266 11.2816C37.8009 11.2816 37.8381 11.4675 37.8754 11.5788L39.1758 15.8693C39.3802 16.575 39.9004 17.2993 41.7027 17.2993C43.5236 17.2993 43.9882 16.4263 44.3041 15.3306L46.5521 7.3443H43.0962L41.6098 13.009C41.5912 13.0832 41.5169 13.3061 41.4241 13.3061C41.3312 13.3061 41.2753 13.0832 41.257 13.0276L39.8075 8.27289C39.6777 7.84571 39.3245 7.23286 37.7266 7.23286C36.1287 7.23286 35.7758 7.84571 35.6457 8.27289L34.1965 13.0276C34.1779 13.0832 34.1222 13.3061 34.0292 13.3061C33.9363 13.3061 33.862 13.0832 33.8434 13.009L32.357 7.3443ZM56.6594 17.1878V14.5505H51.8845C51.2342 14.5505 50.5654 14.5877 50.2496 14.0863C50.1195 13.882 50.0636 13.5476 50.0822 13.2875H55.4519C55.7863 13.2875 56.1022 13.2689 56.4181 13.009C56.9753 12.5632 57.0126 11.8389 57.0126 11.2074C57.0126 10.1301 56.9011 8.66285 55.9535 7.90155C55.1733 7.27007 53.8726 7.23286 51.8845 7.23286C50.0266 7.23286 48.15 7.27007 47.2395 8.1987C46.3477 9.10866 46.4406 10.5759 46.4406 12.3775C46.4406 14.1605 46.5149 15.2006 46.9422 15.9063C47.7227 17.1878 48.9675 17.1878 50.4353 17.1878H56.6594ZM50.0822 10.9845C50.045 10.4831 50.1008 10.0931 50.4723 9.88883C50.7326 9.74017 51.3084 9.72154 51.7358 9.72154C51.9218 9.72154 52.4048 9.74017 52.702 9.79573C53.2408 9.90721 53.3709 10.2046 53.3709 10.4645C53.3709 10.6501 53.2967 10.9845 52.7762 10.9845H50.0822ZM57.9045 4.18689V15.4049C57.9045 15.8693 57.9974 16.2592 58.3319 16.612C58.8149 17.1323 59.4279 17.1878 59.9112 17.1878H64.2401C65.2063 17.1878 66.8415 17.0208 67.7146 15.5535C68.1233 14.8662 68.3649 13.882 68.3649 12.2474C68.3649 11.2446 68.3277 9.96305 67.696 8.94161C66.767 7.41853 65.225 7.3443 64.1845 7.3443H61.5461V4.18689H57.9045ZM61.5461 9.90721H63.1996C63.4969 9.90721 64.0916 9.96305 64.4075 10.6688C64.4817 10.8361 64.6489 11.2816 64.6489 12.2102C64.6489 13.1947 64.5003 13.6405 64.3889 13.882C64.1845 14.2906 63.85 14.5505 63.1254 14.5505H62.3822C62.2151 14.5505 61.9176 14.5505 61.7318 14.3834C61.5461 14.1975 61.5461 13.8262 61.5461 13.6591V9.90721ZM79.2527 17.1878V14.5505H74.4778C73.8275 14.5505 73.1588 14.5877 72.8429 14.0863C72.7128 13.882 72.6569 13.5476 72.6755 13.2875H78.0451C78.3796 13.2875 78.6955 13.2689 79.0113 13.009C79.5686 12.5632 79.6058 11.8389 79.6058 11.2074C79.6058 10.1301 79.4944 8.66285 78.5468 7.90155C77.7665 7.27007 76.4659 7.23286 74.4778 7.23286C72.6199 7.23286 70.7433 7.27007 69.8327 8.1987C68.941 9.10866 69.0339 10.5759 69.0339 12.3775C69.0339 14.1605 69.1081 15.2006 69.5355 15.9063C70.316 17.1878 71.5608 17.1878 73.0286 17.1878H79.2527ZM72.6755 10.9845C72.6383 10.4831 72.6941 10.0931 73.0656 9.88883C73.3259 9.74017 73.9017 9.72154 74.3291 9.72154C74.515 9.72154 74.998 9.74017 75.2953 9.79573C75.8341 9.90721 75.9643 10.2046 75.9643 10.4645C75.9643 10.6501 75.89 10.9845 75.3695 10.9845H72.6755ZM80.3863 17.1878H87.4281C87.9298 17.1878 88.5242 17.1323 89.0444 16.7234C89.7134 16.185 89.8619 15.3493 89.8619 14.6247C89.8619 14.1975 89.8249 13.399 89.3603 12.7303C88.896 12.0432 88.1341 11.746 87.0937 11.3931L84.604 10.5573C84.1767 10.4089 84.3065 10.4272 83.8608 10.2788C83.7493 10.2415 83.6564 10.2046 83.6564 10.0559C83.6564 9.92584 83.7307 9.90721 83.8236 9.88883C83.9723 9.85161 84.1208 9.87024 84.2509 9.87024H89.6019V7.3443H83.0247C82.0026 7.3443 81.2594 7.49272 80.7392 8.27289C80.3863 8.79292 80.2748 9.4244 80.2748 10.0373C80.2748 10.5203 80.3677 11.226 80.6463 11.6902C81.018 12.3033 81.7796 12.6932 82.6716 12.9904L84.7897 13.6775C85.57 13.9376 85.7743 13.9932 85.9045 14.0677C85.9787 14.1047 86.0718 14.1605 86.0718 14.2906C86.0718 14.3834 86.0346 14.439 85.9787 14.4763C85.9231 14.5132 85.8116 14.5505 85.756 14.5505H80.3863V17.1878ZM97.9628 17.1878V14.5505H97.424C96.9596 14.5505 96.3279 14.5319 95.826 14.0863C95.2874 13.6032 95.1943 12.8417 95.1943 12.1174V9.87024H98.0001V7.3443H95.1943V4.18689H91.5527V7.3443H90.1592V9.87024H91.5527V14.1047C91.5527 14.9963 91.9801 15.9621 92.7976 16.5191C93.801 17.1878 95.12 17.1878 95.8447 17.1878H97.9628Z" fill="#37AADE"/>
</svg>
