<svg width="270" height="147" viewBox="0 0 270 147" fill="none" xmlns="http://www.w3.org/2000/svg">
<g clip-path="url(#clip0)">
<path d="M165.704 115.653L164.602 115.744C164.972 115.769 165.344 115.738 165.704 115.653Z" fill="#F2F2F2"/>
<path d="M268.527 18.1983C267.79 16.5522 266.722 15.0733 265.388 13.853C265.613 12.3686 265.405 10.8514 264.789 9.48077C264.665 8.5357 264.254 7.64107 263.525 7.01438C263.492 6.98748 263.424 7.01438 263.452 7.06147C263.642 7.37874 263.809 7.70919 263.951 8.05027C263.473 7.42065 262.904 6.86328 262.265 6.39554C262.172 6.32155 262.08 6.24868 261.985 6.17805C262.115 6.15003 262.21 6.0211 262.085 5.91684C259.369 3.74975 256.252 2.13185 252.91 1.15447C253.028 0.999763 253.013 0.773304 252.744 0.715008C250.823 0.308663 248.866 0.0927295 246.902 0.070384C246.413 0.0367514 245.925 0.0132087 245.434 0.00536108C241.964 -0.0473084 238.516 0.558066 235.274 1.78901C235.149 1.81143 235.025 1.83609 234.899 1.86524C233.77 2.13318 232.745 2.73184 231.768 3.35965C231.636 3.44485 231.502 3.53005 231.367 3.61525C230.674 4.00763 229.996 4.42804 229.335 4.87647C229.211 4.96168 229.088 5.048 228.965 5.13432C224.193 8.16686 219.051 11.7599 218.344 16.8754C218.272 16.9438 218.2 17.0145 218.133 17.0884C218.205 16.9237 218.279 16.7589 218.35 16.5929C218.463 16.3205 217.998 16.2084 217.881 16.4595C217.596 17.0728 217.317 17.6927 217.045 18.3093C216.984 18.3324 216.928 18.3672 216.881 18.4119C216.833 18.4565 216.796 18.5101 216.769 18.5694C214.91 22.7443 212.705 26.7432 209.936 30.3946C207.49 33.6126 204.73 36.5822 201.695 39.2601C200.788 39.7445 199.884 40.2336 198.986 40.7276C191.438 44.3431 184.085 48.3903 176.915 52.6717C172.038 55.5865 167.248 58.6437 162.544 61.8433C162.475 61.8558 162.41 61.8842 162.353 61.9262L161.877 62.2973C158.039 64.9319 154.271 67.6673 150.572 70.5037C148.202 72.3254 145.876 74.2032 143.573 76.1091C141.747 77.6225 139.89 79.1293 138.13 80.728L137.351 81.0878C135.936 81.5833 134.522 82.0811 133.109 82.5811C131.884 82.915 130.687 83.3419 129.528 83.858C119.234 87.5161 108.966 91.2426 98.6862 94.9377C97.1201 95.5005 95.5547 96.0644 93.9901 96.6294C93.9627 96.5888 93.9203 96.5606 93.8721 96.5509C93.8239 96.5413 93.7737 96.5509 93.7327 96.5779L93.3455 96.8626L92.9233 97.0151L91.7176 97.329L91.8982 97.2023C91.9411 97.1731 91.8813 97.1249 91.844 97.1496L91.4851 97.3884C90.612 97.6126 89.739 97.8316 88.866 98.0453L88.892 98.0184C88.9134 97.9971 88.8796 97.9669 88.8593 97.9871L88.7735 98.0689C87.5972 98.3566 86.4186 98.6377 85.2378 98.9119L85.038 98.8906C84.9872 98.8906 84.9781 98.9389 85.0086 98.9646C84.6462 99.0476 84.2839 99.1317 83.9215 99.2135C83.9086 99.217 83.8965 99.2229 83.8859 99.231C83.8754 99.2391 83.8665 99.2492 83.8598 99.2607C83.8532 99.2722 83.8488 99.2849 83.8471 99.2981C83.8454 99.3112 83.8463 99.3246 83.8498 99.3374C83.8533 99.3502 83.8593 99.3622 83.8674 99.3727C83.8756 99.3832 83.8857 99.392 83.8973 99.3986C83.9089 99.4053 83.9217 99.4095 83.9349 99.4112C83.9482 99.4129 83.9617 99.412 83.9746 99.4086C84.5014 99.2935 85.0282 99.1761 85.555 99.0566L86.7403 99.2404C86.2685 99.4153 86.6083 100.127 87.0632 99.9826C87.3544 99.8918 87.6446 99.7998 87.9358 99.7068C87.5475 99.9568 87.1659 100.216 86.8069 100.492L86.6432 100.604C85.8982 100.89 85.1535 101.177 84.4092 101.464C83.9158 101.655 84.2884 102.267 84.7241 102.197C85.7906 102.023 86.8562 101.844 87.9212 101.66C88.4066 101.622 88.8909 101.579 89.374 101.529C89.3932 101.593 89.4355 101.648 89.493 101.684C89.5504 101.719 89.6189 101.733 89.6856 101.721C89.7176 101.733 89.7518 101.737 89.7856 101.733C89.8194 101.73 89.852 101.719 89.8809 101.701L90.0175 101.624C90.0234 101.658 90.0368 101.69 90.0567 101.718C90.0766 101.746 90.1025 101.77 90.1326 101.787C90.1627 101.804 90.1963 101.814 90.2308 101.817C90.2654 101.819 90.3001 101.814 90.3325 101.802C91.1227 101.57 91.8994 101.331 92.6839 101.1C92.6845 101.104 92.6845 101.109 92.6839 101.113C91.0478 101.644 89.409 102.167 87.7676 102.682L86.5428 103.01C85.4139 103.247 84.2876 103.484 83.164 103.72C83.33 103.422 83.0511 102.948 82.5894 103.032C73.1553 104.727 63.7369 106.487 54.3085 108.225C44.9289 109.955 35.5489 111.685 26.1686 113.415C24.2574 113.767 22.3417 114.105 20.4259 114.445C20.1008 114.402 19.778 114.348 19.454 114.294C19.4337 114.294 19.4212 114.32 19.4438 114.325C19.5115 114.336 20.1426 114.381 20.1742 114.454C20.1795 114.465 20.1833 114.476 20.1855 114.488L18.5802 114.774C18.5395 114.721 18.4916 114.674 18.438 114.634C18.4041 114.608 18.3488 114.662 18.386 114.69C18.4245 114.72 18.4593 114.754 18.4899 114.791L17.5484 114.961C14.9143 115.315 12.2769 115.66 9.63602 115.996C9.60102 115.996 9.6157 116.045 9.64843 116.042C11.5246 115.83 13.3997 115.609 15.2737 115.38C13.5883 115.696 11.9062 116.024 10.2321 116.381C9.74552 116.485 9.68343 117.182 10.1993 117.299C11.7346 117.649 13.2722 118.029 14.8278 118.308C13.656 118.426 12.4876 118.583 11.3226 118.779C9.64757 119.071 7.9895 119.453 6.35546 119.921C4.77501 120.37 3.03991 120.801 1.64799 121.677H1.64122L1.18966 121.557C0.512326 121.377 0.187206 122.251 0.850993 122.516C1.25739 122.679 1.67395 122.824 2.09277 122.956C1.39432 123.248 0.715581 123.586 0.06077 123.965C-0.0848569 124.052 0.0415788 124.218 0.18269 124.167C0.987138 123.86 1.77105 123.502 2.52965 123.096C3.72204 123.422 4.93135 123.684 6.15226 123.881C7.92015 124.192 9.70857 124.374 11.5032 124.426C12.141 124.444 12.7879 124.447 13.4381 124.435L13.2643 124.495C13.1751 124.525 13.2394 124.661 13.3241 124.633L13.9642 124.421C14.8447 124.392 15.7309 124.329 16.6103 124.225L15.7433 124.544C15.6654 124.574 15.7207 124.692 15.7952 124.667C16.3288 124.487 16.8617 124.306 17.3937 124.122L17.6613 124.081C18.5938 123.994 19.5232 123.875 20.4497 123.725C20.111 123.986 19.7622 124.251 19.4201 124.51C18.8549 124.734 18.2905 124.955 17.7268 125.174C17.6274 125.214 17.7144 125.336 17.8047 125.303L18.9505 124.875L18.5599 125.177C18.0519 125.568 18.6254 126.115 19.0939 126.061C20.5061 125.901 21.9161 125.747 23.3306 125.57C23.7821 125.513 24.2653 125.473 24.7473 125.421C24.7698 125.43 24.7949 125.43 24.8173 125.421L24.8512 125.407C25.1131 125.379 25.3761 125.346 25.6414 125.305C24.7056 126.096 23.7957 126.923 22.8723 127.724C21.7355 128.708 20.54 129.664 19.4506 130.71C19.0318 130.682 18.6141 130.662 18.1941 130.662C17.9187 130.662 17.8182 131.036 18.1095 131.111C18.3578 131.178 18.6084 131.239 18.8613 131.293C18.7574 131.431 18.9494 131.57 19.0871 131.476C19.1368 131.442 19.1853 131.407 19.235 131.372L19.4754 131.419L19.2214 131.659C18.99 131.883 19.3456 132.179 19.5601 131.986C19.7328 131.834 19.9055 131.679 20.0771 131.525C21.5571 131.761 23.0766 131.862 24.5453 131.995C24.771 132.015 24.9968 132.033 25.2305 132.051C29.3351 133.099 33.6351 132.836 37.8063 132.112C40.0009 131.983 42.1898 131.784 44.3731 131.514C53.1517 130.442 61.7551 128.253 69.9718 125.002C73.2345 123.705 76.4231 122.232 79.5233 120.588L89.6066 117.496C89.6385 117.496 89.67 117.489 89.6992 117.476L89.7624 117.449C91.4933 116.918 93.2243 116.39 94.9553 115.863C98.4469 114.8 101.961 113.791 105.437 112.67L105.729 112.727C105.877 112.756 106.109 112.633 106.056 112.469L106.568 112.303C107.396 112.276 108.22 112.246 109.039 112.211C110.005 112.431 110.981 112.601 111.964 112.72C112.612 112.803 113.262 112.862 113.914 112.897C113.844 112.938 113.775 112.977 113.708 113.01L113.305 113.112C113.195 113.136 113.095 113.192 113.018 113.274L112.905 113.306C112.819 113.326 112.741 113.367 112.676 113.426C112.612 113.485 112.563 113.559 112.535 113.642C112.084 113.887 111.632 114.133 111.181 114.372C111.102 114.412 111.039 114.478 111.003 114.559C110.967 114.639 110.96 114.73 110.983 114.815C111.005 114.9 111.056 114.975 111.128 115.028C111.199 115.08 111.286 115.107 111.375 115.104C113.129 115.028 114.885 114.847 116.638 114.655C116.668 114.688 116.7 114.718 116.734 114.746C116.621 114.839 116.508 114.932 116.395 115.028L115.605 115.665C114.081 116.331 112.532 117.176 112.176 118.431C111.943 118.611 111.707 118.79 111.47 118.966C111.101 119.239 111.405 119.79 111.808 119.784C119.267 119.68 126.767 118.845 134.146 117.802C136.668 117.446 139.184 117.046 141.696 116.603C141.703 116.651 141.72 116.697 141.746 116.739C141.772 116.78 141.806 116.816 141.846 116.844C141.886 116.872 141.932 116.891 141.98 116.901C142.028 116.91 142.078 116.91 142.126 116.9C145.732 116.256 149.325 115.539 152.907 114.748C152.912 114.774 152.926 114.797 152.947 114.812C152.968 114.828 152.994 114.835 153.02 114.832C156.096 114.547 159.169 114.219 162.239 113.881L162.062 113.95C161.859 114.031 162.037 114.286 162.222 114.216L163.415 113.75L164.902 113.584L165.128 113.736C165.019 113.806 164.912 113.88 164.806 113.96C164.05 114.364 163.307 114.789 162.611 115.254C162.469 115.349 162.651 115.528 162.781 115.466C163.089 115.319 163.396 115.162 163.7 114.998C163.62 115.096 163.542 115.195 163.468 115.297C163.676 115.201 163.885 115.107 164.095 115.016C163.252 115.465 162.41 115.913 161.572 116.362C161.333 116.492 161.544 116.788 161.771 116.69C163.361 116.008 164.948 115.312 166.537 114.626C166.898 114.828 167.165 114.94 167.231 114.885C166.783 115.251 166.257 115.51 165.692 115.641L166.828 115.548C166.276 116.003 165.699 116.487 165.361 117.041C165.237 117.245 165.487 117.466 165.689 117.356C165.782 117.306 165.873 117.244 165.962 117.189C165.641 117.469 165.327 117.76 165.028 118.065C164.847 118.207 165.117 118.442 165.276 118.302C165.983 117.679 166.721 117.092 167.489 116.544L165.971 118.539L168.035 117.852C167.568 118.197 167.099 118.541 166.623 118.876C166.33 119.083 166.706 119.429 166.973 119.311C167.481 119.087 167.989 118.855 168.488 118.621C168.407 118.702 168.326 118.785 168.244 118.867C168.043 119.067 168.357 119.338 168.551 119.161C168.823 118.91 169.087 118.652 169.341 118.387C169.286 118.452 169.385 118.535 169.443 118.477C169.5 118.419 169.55 118.365 169.603 118.315C169.555 118.483 169.503 118.651 169.446 118.812L169.383 118.896C168.838 119.262 168.291 119.628 167.743 119.989C167.578 120.102 167.792 120.261 167.924 120.214C168.17 120.131 168.415 120.046 168.659 119.96C168.367 120.441 168.112 120.944 167.896 121.464C167.819 121.648 167.982 121.8 168.158 121.825C168.088 121.977 168.022 122.133 167.957 122.288L167.804 122.322C167.797 122.324 167.791 122.326 167.786 122.33C167.781 122.333 167.776 122.338 167.773 122.343C167.769 122.348 167.767 122.354 167.766 122.361C167.765 122.367 167.766 122.373 167.767 122.379C167.769 122.386 167.772 122.391 167.776 122.396C167.78 122.401 167.785 122.405 167.79 122.408C167.796 122.411 167.802 122.413 167.809 122.413C167.815 122.414 167.821 122.413 167.827 122.411L167.912 122.393C167.677 122.97 167.478 123.56 167.315 124.161C167.23 124.468 167.673 124.629 167.848 124.385C168.172 123.934 168.519 123.5 168.887 123.084C168.887 123.213 168.887 123.342 168.887 123.47C168.999 123.195 169.128 122.926 169.275 122.667C169.515 122.416 169.765 122.176 170.026 121.945L171.202 121.697C170.842 122.28 170.419 122.863 170.186 123.504C170.05 123.882 170.597 124.001 170.805 123.762C171.289 123.213 171.617 122.495 171.985 121.865L172.048 121.753L171.913 122.845C171.249 123.704 170.584 124.56 169.91 125.41C169.669 125.715 170.164 125.946 170.406 125.778C170.914 125.424 171.422 125.065 171.928 124.697C171.737 125.084 171.541 125.47 171.348 125.858C171.277 125.944 171.205 126.028 171.129 126.111C170.501 126.8 169.709 127.211 168.984 127.773C168.664 128.021 169.012 128.44 169.342 128.368C169.689 128.291 170.024 128.167 170.337 128C170.256 128.188 170.177 128.377 170.102 128.568C170.058 128.68 170.256 128.756 170.309 128.654C170.464 128.358 170.61 128.057 170.752 127.757C171.178 127.471 171.565 127.132 171.904 126.748C171.637 127.678 171.3 128.587 170.896 129.466C170.602 129.948 170.287 130.418 169.952 130.871L170.186 130.858C169.722 131.681 169.196 132.468 168.614 133.213C168.237 133.696 169.057 134.209 169.453 133.835L170.974 132.399C170.99 132.517 171.019 132.633 171.062 132.745C171.081 132.792 171.116 132.83 171.161 132.855C171.205 132.879 171.257 132.888 171.307 132.88C171.14 133.806 170.972 134.733 170.804 135.66C170.747 135.983 171.201 136.233 171.469 136.147L172.01 135.974C171.739 136.401 171.469 136.829 171.199 137.258C171.18 137.29 171.164 137.325 171.153 137.361C170.733 137.668 170.313 137.976 169.892 138.286C169.66 138.458 169.725 138.745 169.909 138.903L169.886 138.914C166.285 138.502 162.613 139.139 159.29 140.596C158.861 140.786 158.438 140.989 158.021 141.205C157.42 141.38 156.858 141.665 156.362 142.045C156.2 142.178 156.053 142.328 155.924 142.493C155.473 142.844 155.086 143.268 154.924 143.816C154.698 144.569 155.363 145.577 156.089 145.682C156.036 145.862 156.244 146.019 156.413 145.974L156.914 145.854C157.107 145.916 157.311 145.932 157.51 145.901C157.71 145.87 157.9 145.793 158.064 145.676C158.273 145.762 158.498 145.805 158.724 145.801C158.95 145.797 159.174 145.747 159.38 145.654C159.4 145.645 159.419 145.632 159.433 145.616C159.448 145.599 159.46 145.58 159.467 145.558C159.473 145.537 159.476 145.515 159.474 145.493C159.471 145.471 159.464 145.45 159.453 145.43C159.093 144.869 158.729 144.308 158.361 143.749L158.407 143.718C158.768 143.516 159.16 143.373 159.567 143.293C159.545 143.302 159.522 143.312 159.501 143.324C159.18 143.469 159.465 143.862 159.757 143.746L160.19 143.575C161.771 143.401 163.351 143.066 164.921 142.79C166.114 142.578 167.307 142.363 168.498 142.145C168.496 142.188 168.505 142.229 168.522 142.268C168.54 142.306 168.566 142.34 168.599 142.367C168.631 142.393 168.67 142.412 168.711 142.422C168.752 142.431 168.795 142.431 168.837 142.421L170.093 142.023C171.222 141.978 172.351 141.922 173.48 141.875C174.359 141.839 175.241 141.811 176.122 141.781C177.282 141.927 178.443 142.095 179.603 142.263L181.797 142.651C181.79 142.699 181.794 142.749 181.81 142.795C181.826 142.842 181.852 142.884 181.888 142.918C181.923 142.952 181.966 142.978 182.013 142.992C182.06 143.006 182.11 143.009 182.159 143.001L182.891 142.842C183.277 142.909 183.662 142.977 184.048 143.043L186.343 143.436C186.378 143.471 186.421 143.495 186.469 143.507C186.517 143.518 186.567 143.516 186.613 143.5L186.655 143.489C187.295 143.597 187.935 143.705 188.574 143.813C188.975 143.879 189.377 143.952 189.78 144.026C189.808 144.06 189.844 144.086 189.886 144.102L189.037 144.394C188.721 144.506 188.947 144.969 189.246 144.883L191.292 144.288C191.588 144.335 191.885 144.379 192.182 144.416C191.832 144.422 191.483 144.431 191.133 144.444C190.783 144.456 190.745 144.958 191.115 144.958C191.774 144.958 192.432 144.95 193.09 144.935C193.117 144.991 193.164 145.036 193.223 145.06C193.281 145.084 193.346 145.086 193.406 145.065L194 144.91L194.451 144.895C194.458 144.934 194.472 144.972 194.494 145.005C194.515 145.038 194.543 145.067 194.576 145.089C194.609 145.111 194.646 145.126 194.685 145.134C194.724 145.141 194.764 145.14 194.803 145.132L195.869 144.842C196.329 144.821 196.789 144.801 197.249 144.779L198.675 145.029C198.685 145.075 198.705 145.119 198.734 145.156C198.763 145.194 198.8 145.224 198.843 145.246C198.885 145.267 198.932 145.279 198.98 145.28C199.027 145.282 199.074 145.272 199.118 145.253C199.208 145.216 199.301 145.182 199.392 145.151L202.412 145.679C202.528 145.904 202.709 146.089 202.931 146.211C203.077 146.316 203.249 146.378 203.429 146.389C203.682 146.437 203.943 146.433 204.195 146.376C204.334 146.535 204.462 146.702 204.577 146.879C204.616 146.934 204.672 146.974 204.738 146.992C204.803 147.01 204.873 147.004 204.934 146.975C205.763 146.649 206.239 145.833 206.273 145.011C206.487 145.142 206.817 144.934 206.682 144.675C206.052 143.463 204.69 142.569 203.369 142.058C203.456 142.013 203.544 141.968 203.63 141.922L204.256 142.01C204.257 142.036 204.264 142.062 204.277 142.084C204.29 142.107 204.308 142.127 204.33 142.141C204.352 142.156 204.377 142.165 204.404 142.168C204.43 142.172 204.456 142.169 204.481 142.16C204.568 142.134 204.654 142.104 204.74 142.076C205.468 142.175 206.197 142.271 206.926 142.358C206.776 142.452 206.627 142.546 206.483 142.644C206.314 142.756 206.53 142.955 206.68 142.891C206.759 142.858 206.837 142.821 206.916 142.787C206.93 142.831 206.957 142.869 206.994 142.896C207.032 142.923 207.077 142.937 207.123 142.937C207.269 142.937 207.416 142.937 207.563 142.937C207.543 142.963 207.532 142.994 207.531 143.027C207.531 143.06 207.54 143.092 207.559 143.119C207.577 143.146 207.604 143.166 207.635 143.177C207.666 143.188 207.7 143.188 207.731 143.179C208.019 143.092 208.304 142.992 208.587 142.887C208.824 142.87 209.061 142.848 209.299 142.826C209.203 142.878 209.108 142.929 209.015 142.984C208.978 143.002 208.949 143.033 208.935 143.071C208.921 143.11 208.922 143.152 208.938 143.189C208.954 143.227 208.984 143.257 209.021 143.273C209.059 143.289 209.102 143.291 209.14 143.277C209.657 143.107 210.163 142.908 210.656 142.681C211.055 142.638 211.452 142.595 211.846 142.56C212.35 142.56 212.855 142.549 213.359 142.527L213.797 142.505C213.814 142.542 213.843 142.57 213.88 142.587C213.916 142.603 213.957 142.605 213.996 142.593C214.119 142.555 214.243 142.513 214.367 142.473C215.408 142.409 216.458 142.321 217.503 142.264C217.33 142.347 217.164 142.438 216.995 142.538C216.971 142.553 216.949 142.572 216.932 142.595C216.915 142.618 216.903 142.644 216.896 142.671C216.89 142.699 216.888 142.728 216.893 142.756C216.897 142.784 216.907 142.811 216.922 142.835C216.937 142.859 216.956 142.88 216.979 142.897C217.002 142.914 217.028 142.926 217.056 142.933C217.084 142.94 217.113 142.941 217.141 142.937C217.169 142.932 217.196 142.923 217.221 142.908C217.786 142.591 218.395 142.355 219.027 142.208H219.422C219.474 142.228 219.531 142.228 219.582 142.208C219.921 142.208 220.253 142.218 220.587 142.236C220.542 142.268 220.497 142.299 220.453 142.332C220.216 142.501 220.549 142.764 220.76 142.626C220.929 142.514 221.099 142.402 221.259 142.284C221.654 142.32 222.049 142.37 222.437 142.438L222.339 142.531C222.141 142.723 222.39 142.967 222.614 142.867C222.837 142.768 223.032 142.689 223.241 142.598L223.372 142.631C224.108 142.981 224.797 143.42 225.423 143.938C225.436 143.949 225.45 143.958 225.465 143.963C225.481 143.968 225.498 143.97 225.514 143.969C225.53 143.967 225.546 143.963 225.561 143.955C225.575 143.947 225.588 143.936 225.598 143.924C225.751 143.713 225.913 143.514 226.079 143.312C226.107 143.278 226.047 143.24 226.018 143.267C225.892 143.385 225.656 143.715 225.471 143.652C225.38 143.62 225.151 143.316 225.076 143.249C225.034 143.212 224.991 143.177 224.948 143.137C225.323 143.26 225.708 143.341 226.077 143.223C226.22 143.177 226.351 143.1 226.461 142.999C226.461 143.051 226.461 143.104 226.461 143.159C226.45 143.409 226.893 143.484 226.946 143.235C227.031 142.817 227 142.383 226.857 141.981C226.862 141.515 226.684 141.065 226.36 140.727C226.002 140.394 225.563 140.157 225.086 140.04C224.673 139.832 224.231 139.688 223.775 139.611C223.785 139.572 223.784 139.532 223.771 139.495C223.758 139.457 223.734 139.424 223.702 139.4C223.67 139.376 223.632 139.362 223.592 139.36C223.552 139.357 223.513 139.367 223.478 139.386L223.208 139.54C222.463 139.49 221.714 139.501 220.97 139.573C219.82 139.486 218.668 139.43 217.517 139.446C215.929 139.257 214.343 139.054 212.758 138.837C212.951 138.708 212.739 138.422 212.52 138.521C212.358 138.594 212.193 138.664 212.028 138.736C211.537 138.668 211.048 138.598 210.56 138.527C210.465 138.498 210.366 138.478 210.267 138.467L209.859 138.425C208.461 138.221 207.069 138.006 205.682 137.782C205.803 137.67 205.627 137.485 205.491 137.558L205.243 137.705C204.502 137.574 203.722 137.391 202.927 137.214C203.098 137.193 203.271 137.173 203.443 137.151C203.648 137.124 203.556 136.847 203.368 136.872C202.955 136.926 202.541 136.982 202.126 137.042C201.195 136.832 200.246 136.702 199.292 136.654C199.351 136.525 199.405 136.395 199.467 136.266C199.523 136.273 199.579 136.258 199.624 136.224C200.957 135.228 200.52 133.235 199.511 132.101L199.521 131.954C199.531 131.818 199.378 131.754 199.262 131.788C199.215 131.579 199.17 131.37 199.128 131.16C199.154 131.152 199.176 131.135 199.19 131.113C199.204 131.09 199.21 131.063 199.206 131.037C199.066 129.565 198.867 128.122 198.885 126.633C198.907 125.134 199.083 123.641 199.409 122.178C199.726 120.748 200.171 119.35 200.738 117.998L201.302 117.237C201.319 117.213 201.333 117.187 201.344 117.16C201.57 116.872 201.798 116.583 202.029 116.293C202.877 115.834 203.724 115.372 204.57 114.909C211.637 111.866 218.132 107.495 223.729 102.225C224.464 101.635 225.152 101.007 225.69 100.303C226.505 99.4721 227.298 98.6235 228.071 97.7572C235.797 89.0632 241.139 78.4746 243.752 67.1897C243.777 67.0844 243.801 66.979 243.824 66.8747C244.469 64.776 245.101 62.6721 245.719 60.563C245.831 60.1975 245.528 59.9576 245.217 59.9329C245.259 59.2782 245.269 58.6224 245.248 57.9654C245.585 54.3752 245.599 50.7623 245.292 47.1694C245.282 47.0681 245.244 46.9716 245.182 46.8909C245.12 46.8102 245.036 46.7485 244.94 46.7131C245.36 45.0919 245.946 43.5172 246.687 42.0135C247.247 40.8788 247.9 39.7915 248.639 38.7624L248.963 38.4261C249.629 37.8135 250.255 37.1597 250.838 36.4686L251.402 35.8756C251.476 35.9103 251.559 35.9195 251.639 35.9018C251.719 35.8842 251.79 35.8406 251.842 35.7781L254.306 32.8072C254.886 32.6155 255.386 32.2769 255.872 31.9103L256.012 31.9496C256.159 31.9899 256.248 31.7881 256.153 31.6951C256.428 31.4821 256.703 31.2679 256.987 31.0751C257.342 31.0529 257.685 30.9431 257.986 30.7556C258.315 30.6511 258.635 30.5179 258.94 30.3576H258.964C258.982 30.3567 258.999 30.3507 259.013 30.3403C259.027 30.33 259.039 30.3158 259.045 30.2993C259.113 30.2601 259.181 30.2175 259.246 30.1726C259.478 30.012 259.683 29.816 259.853 29.5919C260.006 29.4876 260.153 29.3789 260.294 29.2623C260.365 29.25 260.437 29.2365 260.508 29.2276C260.834 29.2329 261.157 29.2936 261.463 29.4069C262.11 29.6457 262.661 30.0796 263.149 30.5695C263.28 30.7937 263.396 31.0179 263.509 31.2511L264.638 33.5292C264.668 33.7945 264.681 34.0615 264.677 34.3285C264.658 34.8484 264.563 35.3627 264.395 35.8554C264.373 35.9137 264.351 35.9675 264.327 36.0281C263.933 36.4462 263.525 36.8543 263.105 37.2612C262.714 37.6368 263.284 38.0617 263.669 37.8027C266.618 35.8251 268.643 32.3397 269.504 28.9641C270.413 25.3689 270.068 21.5741 268.527 18.1983ZM162.51 142.949C162.367 142.976 162.225 143.004 162.082 143.033L162.445 142.892C162.464 142.914 162.486 142.933 162.51 142.949ZM162.648 139.939C163.149 139.803 163.655 139.685 164.164 139.585L163.128 140.102L162.885 140.138C162.865 140.088 162.833 140.043 162.792 140.009C162.75 139.974 162.701 139.95 162.648 139.939ZM168.631 117.862L168.761 117.815L168.589 117.898L168.631 117.862ZM159.398 113.926L157.992 114.084C158.653 113.85 159.311 113.614 159.968 113.375C160.158 113.362 160.346 113.348 160.533 113.338C160.183 113.479 159.834 113.621 159.487 113.766C159.471 113.771 159.455 113.778 159.442 113.789C159.428 113.799 159.417 113.812 159.409 113.827C159.4 113.842 159.395 113.858 159.393 113.875C159.391 113.892 159.393 113.909 159.398 113.926ZM85.4669 118.234L82.1616 119.263L83.6765 118.715C83.6877 118.721 83.7003 118.725 83.7132 118.725C83.7261 118.725 83.7387 118.721 83.7499 118.715L83.9215 118.622L84.2861 118.489C84.2992 118.49 84.3121 118.487 84.3234 118.48L84.3369 118.472L85.4003 118.087L86.4615 117.77L86.3746 117.803C86.3421 117.814 86.3137 117.834 86.2934 117.861C86.2731 117.888 86.262 117.921 86.2617 117.955L85.844 118.112L85.4669 118.234ZM2.65722 121.729L3.33455 121.936C3.37858 122.041 3.49485 122.149 3.69918 122.257C3.17989 122.12 2.66173 121.975 2.14244 121.833C2.31742 121.802 2.48788 121.768 2.65722 121.729ZM15.8652 118.02L16.0075 117.918C16.012 117.928 16.0186 117.937 16.0269 117.944C16.0352 117.952 16.045 117.958 16.0556 117.961C16.0663 117.965 16.0775 117.966 16.0887 117.965C16.0998 117.964 16.1106 117.96 16.1204 117.955L16.3258 117.843C16.4667 117.884 16.6135 117.903 16.7604 117.898C16.7835 117.898 16.806 117.891 16.825 117.878C16.844 117.865 16.8585 117.846 16.8666 117.825C17.0765 117.849 17.2865 117.868 17.4976 117.887L17.352 117.967C17.3438 117.97 17.3364 117.975 17.3302 117.981C17.3239 117.987 17.3191 117.995 17.3159 118.003C17.3127 118.011 17.3113 118.02 17.3116 118.028C17.312 118.037 17.3142 118.046 17.3181 118.053C16.9659 118.088 16.6141 118.125 16.2626 118.165C16.1328 118.117 16.0007 118.068 15.8686 118.02H15.8652ZM88.0668 100.064L87.543 100.266C87.902 100.023 88.253 99.7662 88.603 99.5117L88.7893 99.5375L88.165 100.002L88.0668 100.064ZM88.9293 100.804L88.4246 100.875L88.717 100.71L89.4892 100.418L88.9293 100.804ZM89.6946 99.4119L89.6472 99.4052L89.9407 99.2169L89.6946 99.4119ZM201.022 141.517C200.811 141.5 200.599 141.487 200.387 141.487C200.387 141.462 200.382 141.438 200.372 141.415C200.591 141.282 200.811 141.149 201.03 141.013L201.256 141.075C201.17 141.141 201.087 141.208 201.007 141.279C200.988 141.293 200.973 141.312 200.963 141.333C200.953 141.355 200.949 141.378 200.951 141.402C200.952 141.425 200.96 141.448 200.972 141.468C200.985 141.488 201.002 141.505 201.022 141.517ZM196.272 140.823L195.86 140.788L196.117 140.503L196.456 140.487L196.308 140.617C196.292 140.628 196.278 140.642 196.267 140.658C196.256 140.675 196.249 140.693 196.246 140.712C196.242 140.731 196.243 140.751 196.247 140.77C196.252 140.789 196.26 140.807 196.272 140.823ZM182.057 136.879C182.072 136.903 182.093 136.923 182.117 136.939L181.736 137.621C181.704 137.515 181.68 137.406 181.663 137.297C181.749 137.125 181.848 136.961 181.96 136.805C181.988 136.835 182.02 136.86 182.057 136.879ZM181.699 138.51L181.651 138.519C181.622 138.523 181.596 138.535 181.574 138.554C181.536 138.453 181.51 138.35 181.494 138.244C181.556 138.337 181.625 138.426 181.699 138.51ZM181.713 138.793H181.725L181.963 138.769L182.019 138.814L181.793 138.874C181.772 138.841 181.745 138.813 181.713 138.791V138.793ZM185.447 132.587L185.483 132.602L185.269 132.857L185.182 132.909C185.269 132.8 185.362 132.691 185.447 132.587ZM187.391 133.537C187.391 133.547 187.401 133.558 187.408 133.568L187.375 133.611C187.38 133.586 187.385 133.561 187.394 133.537H187.391ZM183.933 139.16H183.89C183.878 139.139 183.859 139.122 183.837 139.111C183.815 139.1 183.791 139.095 183.766 139.097C183.313 139.123 182.865 138.988 182.501 138.718C183.07 138.666 183.635 138.58 184.194 138.46C184.233 138.452 184.268 138.43 184.291 138.398C184.315 138.366 184.325 138.326 184.321 138.287C184.316 138.247 184.297 138.211 184.267 138.185C184.237 138.159 184.198 138.145 184.158 138.145C183.493 138.197 182.831 138.29 182.178 138.423C182.078 138.308 181.989 138.182 181.915 138.049C181.976 138.067 182.041 138.066 182.102 138.046C182.163 138.026 182.216 137.988 182.253 137.937C182.884 137.082 183.51 136.222 184.132 135.358C184.304 135.621 184.479 135.88 184.663 136.134C184.745 136.246 184.971 136.164 184.888 136.022C184.702 135.716 184.506 135.416 184.304 135.125C184.651 134.643 184.998 134.161 185.344 133.678C185.41 133.681 185.473 133.659 185.523 133.616C185.727 133.439 185.934 133.264 186.139 133.088C186.129 133.212 186.12 133.334 186.11 133.456C186.087 133.754 186.511 133.802 186.664 133.611L186.854 133.372C186.86 133.372 186.866 133.372 186.873 133.372L187.116 133.385C187.054 133.658 186.996 133.932 186.945 134.208C186.917 134.357 187.161 134.389 187.231 134.288L187.536 133.839C187.673 134.314 187.81 134.788 187.948 135.262C187.969 135.456 187.976 135.651 187.97 135.846C187.752 136.639 187.545 137.434 187.372 138.237C187.365 138.282 187.372 138.328 187.392 138.369C187.412 138.409 187.444 138.443 187.483 138.466C187.523 138.488 187.568 138.498 187.614 138.494C187.659 138.491 187.702 138.473 187.738 138.445C187.867 138.321 188.001 138.201 188.132 138.08C188.331 138.381 188.593 138.636 188.9 138.828C187.665 138.922 186.435 139.059 185.208 139.24C184.784 139.214 184.359 139.188 183.933 139.16ZM195.548 140.546C195.489 140.613 195.428 140.679 195.367 140.745C195.169 140.727 194.973 140.71 194.776 140.691C194.517 140.667 194.257 140.645 193.997 140.622L195.548 140.546ZM197.653 141.667C197.622 141.613 197.575 141.571 197.518 141.547C197.461 141.523 197.398 141.517 197.338 141.532L197.054 141.611L196.811 141.585C196.801 141.55 196.785 141.518 196.763 141.49C196.74 141.462 196.712 141.439 196.68 141.423C196.648 141.407 196.613 141.397 196.577 141.395C196.541 141.393 196.505 141.399 196.472 141.411L196.186 141.486L195.848 141.397C195.825 141.329 195.777 141.272 195.715 141.238C195.652 141.203 195.579 141.192 195.509 141.207L195.318 141.261C195.079 141.2 194.841 141.141 194.601 141.084H194.594L194.184 140.985C194.331 141.006 194.479 141.029 194.628 141.049C196.074 141.245 197.535 141.497 198.995 141.629C198.914 141.645 198.835 141.667 198.754 141.687L197.653 141.667ZM200.006 141.265C198.878 141.062 197.736 140.949 196.59 140.851L197.042 140.514L199.555 140.652C199.868 140.723 200.181 140.799 200.495 140.876L200.056 141.206C200.035 141.222 200.018 141.242 200.006 141.265ZM78.4622 105.887C80.449 105.303 82.4314 104.705 84.4092 104.094L87.762 103.197C84.7061 104.446 81.6174 105.644 78.4622 105.887ZM18.4402 117.958C18.1535 117.98 17.8679 118.006 17.5823 118.032L17.8464 117.92C18.044 117.939 18.2415 117.948 18.4402 117.958ZM20.2227 122.922L20.1437 122.95L19.3422 123.038C19.635 122.991 19.9285 122.952 20.2227 122.922ZM203.538 114.484V114.493L203.199 114.684C203.19 114.677 203.179 114.67 203.168 114.662C203.287 114.6 203.412 114.54 203.538 114.484ZM74.1916 105.567C73.6542 105.679 73.1169 105.783 72.5784 105.89L72.2668 105.92L74.2266 105.557L74.1916 105.567ZM200.766 142.092C200.781 142.04 200.781 141.986 200.766 141.935C201.21 141.973 201.649 142.052 202.078 142.17C201.997 142.222 201.916 142.274 201.837 142.328C201.484 142.238 201.127 142.159 200.766 142.092ZM202.72 141.792L202.673 141.818L202.603 141.798L202.421 141.75L202.72 141.792ZM202.081 141.669C201.808 141.612 201.528 141.566 201.246 141.536C201.443 141.449 201.636 141.352 201.824 141.246L202.208 141.348C202.169 141.346 202.132 141.357 202.099 141.377C202.067 141.398 202.042 141.428 202.028 141.464C202.014 141.499 202.012 141.538 202.022 141.575C202.031 141.612 202.052 141.645 202.081 141.669ZM265.331 14.5514C265.299 14.5279 265.266 14.5055 265.236 14.4819C265.244 14.4708 265.251 14.4592 265.257 14.4472L265.331 14.5514ZM240.28 0.688102C239.035 0.936044 237.806 1.25648 236.599 1.64775L236.307 1.66905C237.603 1.23939 238.932 0.911405 240.28 0.688102ZM218.266 17.4607C218.221 17.5402 218.176 17.621 218.132 17.7017C217.962 17.9259 217.792 18.1501 217.622 18.3743L217.582 18.3508C217.614 18.279 217.646 18.2084 217.678 18.1378C217.848 17.8928 218.044 17.6659 218.261 17.4607H218.266ZM90.4499 97.9018L88.2485 98.6945C88.3524 98.5823 88.4574 98.4702 88.5612 98.3581C89.1912 98.2079 89.8207 98.0558 90.4499 97.9018ZM88.4269 98.3906L87.9957 98.7853L87.1095 99.1048L85.8937 98.977C86.7396 98.7856 87.584 98.5902 88.4269 98.3906ZM90.4589 100.594L90.2399 100.624C90.5763 100.419 90.915 100.215 91.2559 100.011L90.4589 100.594ZM91.1701 98.8862L91.0516 98.931L91.1645 98.8514L91.3044 98.811L91.1701 98.8862ZM79.9105 104.791L80.212 104.679L80.6771 104.582L79.9105 104.791ZM13.0599 117.116C14.035 117.373 15.024 117.574 16.0221 117.718L16.0515 117.734C15.9499 117.815 15.8472 117.894 15.7467 117.976C14.8639 117.656 13.9642 117.378 13.0599 117.116ZM20.7703 123.365C20.8617 123.336 20.9531 123.309 21.0434 123.279V123.29L20.9847 123.334L20.7703 123.365ZM20.076 130.775C20.2724 130.626 20.4677 130.476 20.6619 130.327L20.1663 130.788L20.076 130.775ZM21.0017 130.709C21.1876 130.779 21.3757 130.845 21.5661 130.907C21.3298 130.887 21.0939 130.866 20.8583 130.844L21.0017 130.709ZM26.8155 132.177C28.2706 132.257 29.728 132.297 31.1831 132.306C32.4061 132.314 33.6287 132.299 34.8509 132.262C32.1721 132.566 29.4785 132.589 26.8155 132.177ZM106.741 112.249L106.899 112.198C107.266 112.078 107.159 111.591 106.826 111.613L106.864 111.597L107.3 111.737C107.8 111.897 108.306 112.036 108.814 112.159C108.125 112.194 107.435 112.225 106.744 112.252L106.741 112.249ZM158.277 113.522L158.629 113.486C158.178 113.659 157.723 113.833 157.265 114.01C157.248 114.013 157.231 114.02 157.217 114.03C157.203 114.041 157.191 114.055 157.183 114.071C157.175 114.087 157.171 114.105 157.172 114.122C157.172 114.14 157.177 114.158 157.185 114.173C156.012 114.309 154.84 114.449 153.668 114.594C155.21 114.251 156.747 113.895 158.28 113.524L158.277 113.522ZM160.309 113.821C160.817 113.646 161.323 113.465 161.827 113.28C162.493 113.26 163.16 113.256 163.827 113.267L163.231 113.504C162.26 113.61 161.288 113.717 160.315 113.823L160.309 113.821ZM164.406 113.378L164.528 113.33L164.571 113.36L164.406 113.378ZM166.002 114.317L166.157 114.412L164.841 114.973C165.233 114.755 165.622 114.537 166.008 114.319L166.002 114.317ZM167 116.307L167.017 116.298L166.816 116.491C166.884 116.432 166.945 116.369 167.006 116.309L167 116.307ZM167.239 116.186L167.272 116.17L167.243 116.19L167.239 116.186ZM169.384 118.366C169.476 118.273 169.565 118.178 169.654 118.083L169.681 118.07C169.592 118.171 169.491 118.269 169.393 118.368L169.384 118.366ZM168.954 119.478L169.022 119.43L169.001 119.459L168.954 119.478ZM168.615 121.905C168.593 121.994 168.57 122.083 168.55 122.172L168.509 122.181C168.549 122.087 168.584 121.998 168.62 121.908L168.615 121.905ZM168.466 122.291L168.525 122.279C168.5 122.391 168.478 122.503 168.457 122.624C168.397 122.692 168.338 122.762 168.279 122.833C168.341 122.648 168.404 122.473 168.471 122.293L168.466 122.291ZM171.802 120.669L171.851 120.662L171.317 121.544L170.231 121.792C170.723 121.374 171.25 120.999 171.807 120.671L171.802 120.669ZM171.824 123.739C171.816 123.809 171.807 123.88 171.798 123.949L171.557 124.132C171.65 124.003 171.74 123.872 171.828 123.742L171.824 123.739ZM172.147 124.567L172.22 124.513C172.136 124.69 172.047 124.863 171.95 125.032C172.019 124.879 172.084 124.724 172.154 124.569L172.147 124.567ZM171.404 132.016L171.427 131.993L171.455 132.164C171.455 132.179 171.454 132.194 171.447 132.208C171.439 132.147 171.424 132.083 171.408 132.019L171.404 132.016ZM169.243 139.128L168.919 139.16C168.899 139.146 168.877 139.135 168.854 139.126L169.243 139.128ZM168.638 139.128L167.946 139.269C166.968 139.381 165.996 139.532 165.032 139.717L165.285 139.582C165.324 139.564 165.357 139.536 165.38 139.501C165.404 139.465 165.416 139.424 165.417 139.382C166.484 139.228 167.56 139.143 168.638 139.128ZM162.429 140.006L161.942 140.299C161.588 140.363 161.234 140.43 160.88 140.504C161.245 140.371 161.614 140.246 161.987 140.134C162.133 140.084 162.281 140.042 162.429 140.001V140.006ZM155.578 144.817C155.499 144.706 155.446 144.58 155.421 144.447C155.436 144.464 155.454 144.479 155.473 144.491C155.55 144.718 155.68 144.923 155.851 145.092C155.742 145.017 155.649 144.922 155.578 144.811V144.817ZM158.862 145.523C158.749 145.715 158.569 145.755 158.329 145.648C158.274 145.636 158.221 145.621 158.169 145.602C158.212 145.564 158.254 145.524 158.293 145.481L158.326 145.472C158.361 145.465 158.394 145.451 158.422 145.429C158.451 145.408 158.474 145.38 158.49 145.349C158.506 145.317 158.514 145.282 158.515 145.247C158.515 145.211 158.507 145.176 158.491 145.144C158.556 144.954 158.55 144.748 158.476 144.561C158.628 144.75 158.753 144.96 158.845 145.185C159.034 145.304 159.039 145.417 158.862 145.518V145.523ZM158.103 144.095C158.073 144.075 158.042 144.057 158.011 144.04L158.038 144.013C158.059 144.034 158.082 144.06 158.103 144.089V144.095ZM161.234 143.171C161.247 143.184 161.261 143.196 161.276 143.206L160.969 143.276L161.234 143.171ZM164.985 142.499C164.427 142.604 163.866 142.704 163.305 142.806L165.867 141.89C165.898 141.924 165.938 141.949 165.983 141.961C166.027 141.974 166.075 141.973 166.119 141.96L167.895 141.453C168.019 141.441 168.142 141.43 168.265 141.421C168.306 141.44 168.348 141.459 168.388 141.481C168.358 141.502 168.335 141.53 168.32 141.564C168.306 141.597 168.301 141.634 168.306 141.67L166.072 141.997C166.029 142.004 166.044 142.054 166.079 142.059C166.077 142.065 166.077 142.071 166.079 142.076C166.08 142.082 166.082 142.087 166.086 142.092C166.089 142.097 166.094 142.1 166.099 142.103C166.104 142.106 166.11 142.107 166.116 142.107C166.433 142.107 166.749 142.107 167.065 142.107L164.985 142.499ZM168.372 141.81C168.379 141.819 168.387 141.827 168.395 141.835C168.133 141.854 167.871 141.873 167.605 141.894L168.372 141.81ZM173.371 141.546C172.668 141.586 171.964 141.622 171.259 141.658L171.365 141.624L172.461 141.422C172.89 141.449 173.32 141.482 173.75 141.521L173.371 141.546ZM204.503 143.317C205.051 143.704 205.482 144.185 205.931 144.662C205.951 145.305 205.691 145.961 205.176 146.329C205.129 146.194 205.081 146.058 205.023 145.925C205.058 145.886 205.09 145.845 205.119 145.802L205.153 145.796C205.168 145.759 205.181 145.721 205.193 145.684C205.201 145.671 205.209 145.658 205.216 145.644C205.228 145.616 205.233 145.584 205.229 145.554C205.302 145.2 205.273 144.833 205.143 144.495C205.15 144.463 205.149 144.43 205.141 144.399C205.132 144.367 205.116 144.338 205.094 144.314C205.075 144.288 205.054 144.265 205.032 144.241C204.926 144.031 204.79 143.838 204.628 143.667C204.094 143.106 203.352 142.787 202.612 142.546L202.447 142.495C202.538 142.457 202.63 142.417 202.721 142.375C203.352 142.611 203.949 142.926 204.498 143.312L204.503 143.317ZM207.682 142.42C207.787 142.427 207.892 142.431 207.997 142.435C207.857 142.447 207.718 142.459 207.578 142.475C207.608 142.447 207.643 142.429 207.677 142.41L207.682 142.42ZM200.061 133.855C200.081 134.64 199.772 135.224 199.402 135.865C199.362 135.864 199.323 135.875 199.29 135.897L199.262 135.916L199.286 135.629C199.367 135.503 199.446 135.376 199.52 135.246C199.7 134.961 199.813 134.639 199.851 134.305C199.87 133.984 199.772 133.669 199.68 133.361C199.612 133.127 199.546 132.891 199.483 132.654C199.493 132.511 199.502 132.368 199.512 132.226C199.849 132.701 200.038 133.264 200.056 133.845L200.061 133.855Z" fill="#F2F2F2"/>
</g>
<defs>
<clipPath id="clip0">
<rect width="270" height="147" fill="white"/>
</clipPath>
</defs>
</svg>
