<svg width="165" height="186" viewBox="0 0 165 186" fill="none" xmlns="http://www.w3.org/2000/svg">
<path d="M0.0258864 176.356C0.575715 180.188 4.65094 182.383 8.33802 183.496C10.0613 184.015 11.8102 184.441 13.5775 184.774C25.3503 187.066 37.7054 185.592 49.7369 184.774C53.6828 184.512 57.6609 184.282 61.6067 184.151C72.7574 183.785 83.9193 183.993 95.0492 184.774C98.8333 185.036 102.617 185.33 106.369 185.723C108.633 185.953 111.318 186.051 112.838 184.217C113.42 183.209 113.607 182.017 113.362 180.876C113.116 179.735 112.456 178.73 111.512 178.059C109.575 176.797 107.344 176.074 105.043 175.963C102.175 175.614 99.2969 175.286 96.4076 174.98C99.1568 174.98 101.874 174.98 104.623 174.98C107.372 174.98 111.576 174.98 113.646 174.98C118.045 174.98 122.476 175.242 126.875 174.98H129.365C131.246 175.193 133.144 175.193 135.025 174.98H138.486C140.632 175.272 142.808 175.272 144.954 174.98C145.553 174.945 146.133 174.754 146.636 174.424C147.192 173.898 147.547 173.19 147.639 172.426C148.247 170.421 148.245 168.277 147.633 166.274C147.022 164.27 145.829 162.499 144.21 161.191C143.434 160.667 142.561 160.307 141.785 159.75C140.534 158.553 139.565 157.087 138.949 155.46C138.333 153.833 138.087 152.086 138.227 150.35C137.726 143.011 137.726 135.645 138.227 128.307C138.906 127.52 139.618 126.767 140.297 126.014C143.657 122.57 146.6 118.733 149.062 114.583C149.547 113.666 150 112.749 150.388 111.799V111.57V111.406C150.582 110.947 150.776 110.456 150.938 109.997L151.326 108.818L151.585 108.13C151.585 108.13 151.585 108.13 151.585 107.934L151.973 106.689C151.991 106.515 151.991 106.339 151.973 106.165C152.393 104.79 152.781 103.348 153.137 101.94C155.675 93.4589 156.618 84.5707 155.918 75.7372C155.886 75.2745 155.821 74.8148 155.724 74.3615L155.53 73.0841V72.8876C155.546 72.6586 155.546 72.4288 155.53 72.1998C155.548 72.0914 155.548 71.9807 155.53 71.8722V71.5447C155.53 71.3154 155.53 71.0534 155.369 70.7914C155.207 70.5293 155.369 70.7914 155.369 70.5949L155.175 69.776V69.3175C155.175 68.8589 154.948 68.4004 154.819 67.9418V67.7453L154.528 66.6972C154.528 66.1404 154.237 65.6163 154.075 65.0595C153.913 64.5027 153.913 64.5027 153.816 64.2407V63.8476C153.622 63.2253 153.46 62.603 153.266 61.9807L152.781 60.343C152.361 59.0001 151.973 57.6245 151.649 56.2816C151.326 54.9387 151.002 53.7923 150.744 52.5477V52.0891C150.517 50.91 150.323 49.7309 150.194 48.5517C150.178 48.3774 150.178 48.202 150.194 48.0277C150.194 48.0277 150.194 47.7329 150.194 47.5691L150.614 47.3071C152.701 46.217 154.448 44.5615 155.66 42.5251C156.723 39.9843 157.134 37.2127 156.856 34.4677V33.8126C156.856 32.437 156.856 31.0613 156.63 29.6857L157.342 28.3428C159.185 24.8382 160.867 21.268 162.355 17.5996C162.98 16.1513 163.478 14.6497 163.842 13.1124C164.094 11.8473 164.267 10.5674 164.36 9.28025L164.942 2.13998C165.068 1.61659 164.987 1.06411 164.716 0.600568C164.536 0.369783 164.29 0.201514 164.012 0.119296C163.734 0.0370778 163.437 0.0450247 163.163 0.14202C162.607 0.308432 162.09 0.586956 161.643 0.960858L156.921 4.46548L150.453 9.34576C149.259 10.2644 148.017 11.1172 146.733 11.9005L146.183 12.2608C144.922 12.9486 143.628 13.5055 142.334 14.1278C138.948 12.889 135.355 12.3327 131.758 12.4901C129.134 12.3369 126.502 12.6134 123.964 13.3089L122.799 13.6365L121.182 14.1278C119.921 13.5382 118.659 12.9486 117.463 12.2936C115.973 11.4096 114.536 10.4362 113.161 9.37851L105.076 4.07244L100.839 0.79709C100.466 0.513998 100.065 0.272405 99.6419 0.0765117H99.3185C99.0395 -0.018248 98.7387 -0.0251504 98.4558 0.0567111C98.1729 0.138573 97.9211 0.305354 97.7337 0.535062C97.4955 1.00979 97.416 1.55005 97.5073 2.07448C97.7337 4.43273 97.9277 6.82374 98.1218 9.21474C98.2038 10.5012 98.3658 11.7811 98.6069 13.0469C98.9819 14.5851 99.4906 16.0867 100.127 17.5341C101.615 21.2025 103.361 24.7727 105.108 28.2773C105.367 28.7031 105.593 29.1616 105.819 29.6202C105.819 31.1924 105.625 32.8955 105.593 34.4022C105.495 36.3434 105.625 38.2896 105.981 40.1996C106.165 40.9863 106.447 41.7458 106.822 42.4596C107.168 43.1003 107.591 43.6946 108.083 44.2283L108.374 44.5886C108.883 45.0925 109.423 45.563 109.992 45.997C109.7 47.0123 109.442 47.9949 109.183 49.0103C109.183 49.3051 109.021 49.5998 108.957 49.8619C108.636 51.1868 108.147 52.464 107.501 53.6613C106.391 55.4129 104.951 56.9264 103.264 58.1158C102.456 58.7381 101.615 59.3276 100.774 59.9172C99.3509 60.8998 97.8307 61.8497 96.3106 62.734C92.6882 64.863 88.8717 66.7627 85.1523 68.7279C82.5972 70.1036 80.1068 71.512 77.6811 73.0514C75.5292 74.417 73.4855 75.9501 71.5684 77.6369L70.404 78.7177C63.3132 86.0353 58.3551 95.1934 56.0761 105.183C54.4698 111.276 53.1958 117.454 52.2597 123.688C52.098 124.638 51.9685 125.621 51.8068 126.603C51.1276 130.96 50.4485 135.349 49.931 139.705C49.4782 143.242 49.09 146.78 48.7666 150.284C48.4432 153.789 48.2815 157.195 48.1844 160.667C42.0912 160.459 35.9914 160.58 29.9107 161.027L25.2534 161.42L23.0217 161.65C16.596 161.939 10.3549 163.914 4.90969 167.382C4.40439 167.748 3.91853 168.142 3.45422 168.561C2.28876 169.47 1.36517 170.658 0.766649 172.019C0.16813 173.38 -0.0864753 174.871 0.0258864 176.356Z" fill="#F2F2F2"/>
</svg>
