<svg width="235" height="200" viewBox="0 0 235 200" fill="none" xmlns="http://www.w3.org/2000/svg">
<path d="M54.1489 199.122C63.588 199.13 72.8465 196.548 80.9066 191.661C81.9005 193.725 83.5446 195.41 85.5892 196.46C85.8446 196.616 86.116 196.746 86.3989 196.845L87.1031 197.125C88.1374 197.464 89.2182 197.641 90.3069 197.651H154.736C162.236 196.46 157.166 185.952 146.146 186.407L133.506 187.248H133.084C138.323 184.693 142.759 180.761 145.911 175.877C149.064 170.993 150.813 165.344 150.969 159.542C150.976 155.873 150.283 152.236 148.927 148.824H149.244C150.336 148.439 151.427 147.983 152.518 147.528L152.8 150.856L153.117 154.113C155.441 158.912 157.236 177.441 157.905 185.216C157.588 190.68 157.905 197.476 167.728 197.896H172.903C176.424 197.686 178.079 196.74 178.818 195.479C179.875 193.658 178.607 191.171 176.847 189.42C175.086 187.668 171.882 186.267 170.122 184.586C170.122 176.215 169.77 156.355 170.369 152.852L174.417 136.075L174.91 134.008C176.553 132.677 178.173 131.276 179.769 129.805L205.787 126.477C206.808 129.63 207.9 132.852 208.885 135.794C209.836 140.068 207.618 142.8 208.181 144.796C210.998 155.304 221.912 160.628 223.039 152.432C223.21 151.083 223.21 149.718 223.039 148.369L220.293 135.97L219.765 132.467C219.448 130.646 217.476 124.271 216.244 119.192C215.791 117.387 214.786 115.766 213.367 114.555C211.947 113.344 210.184 112.602 208.322 112.432C206.204 112.235 204.075 112.177 201.95 112.257L194.662 111.836C194.979 111.381 195.26 110.926 195.542 110.47L195.788 110.05C200.034 102.869 201.825 94.5119 200.893 86.2323C200.681 84.41 200.328 82.6068 199.837 80.8383C200.189 79.2271 200.506 77.3357 200.753 75.2692C201.004 73.2241 201.121 71.1648 201.105 69.1045C201.105 60.2079 194.767 53.4478 198.006 50.2254C200.4 46.5126 203.323 47.8436 210.435 49.4898C211.693 49.7833 212.98 49.936 214.272 49.9452C214.776 49.9793 215.282 49.9793 215.786 49.9452H216.772C219.25 50.1092 221.717 49.4834 223.813 48.1588C225.235 47.2671 226.438 46.0704 227.334 44.6562C227.507 44.4241 227.66 44.1781 227.792 43.9207C228.001 43.5579 228.189 43.1837 228.355 42.7998L232.439 36.4251L234.692 32.9225C235.056 32.114 235.099 31.1984 234.811 30.3601C234.524 29.5217 233.928 28.8227 233.143 28.404L229.059 26.1624L219.765 21.0486L218.462 20.278C215.531 18.7332 213.192 16.2714 211.808 13.2728L211.068 10.7859C210.912 10.0346 210.664 9.30523 210.329 8.61426C204.766 -2.59412 176.6 -2.45401 169.664 6.65281C169.146 7.3793 168.698 8.15339 168.327 8.96455C164.806 16.215 157.764 35.6895 152.8 47.9487L150.089 54.6037L139.949 68.2639C135.901 71.1711 132.415 73.6929 129.387 76.1798C125.829 78.9483 122.497 81.9935 119.423 85.2866C115.779 89.2478 112.436 93.4743 109.425 97.931L95.3416 117.931C88.9095 126.185 84.5629 135.855 82.6669 146.127C81.7036 148.869 81.0656 151.714 80.7658 154.604C80.7658 154.954 80.7658 155.304 80.7658 155.654C79.8611 162.12 78.2678 168.473 76.0128 174.603C74.1409 178.842 70.8925 182.333 66.7884 184.516C60.944 187.843 56.4374 187.143 49.9241 188.544C48.551 188.859 47.1779 189.069 45.7696 189.279C43.613 189.29 41.4641 189.536 39.3618 190.015L30.6304 190.68C20.2442 191.451 9.506 192.782 0 199.367L4.92902 199.612C21.4061 200.383 37.7423 199.892 54.1489 199.122Z" fill="#F2F2F2"/>
</svg>
