<svg width="210" height="221" viewBox="0 0 210 221" fill="none" xmlns="http://www.w3.org/2000/svg">
<path d="M154.519 113.245C154.519 113.245 159.143 105.914 146.449 94.9432C146.449 94.9432 141.102 91.0119 140.424 89.2441C139.747 87.4763 133.809 79.4902 133.703 80.8299C133.597 82.1696 133.413 85.346 133.413 85.346C133.413 85.346 116.977 79.5113 114.734 74.1291C114.734 74.1291 114.707 59.9155 113.151 61.2462C111.595 62.5768 111.3 71.1648 110.363 70.9145C109.426 70.6642 98.747 68.0048 99.7879 70.0367C100.829 72.0686 110.788 73.5365 113.009 75.6569C115.229 77.7774 121.516 92.8593 121.953 93.4929L121.516 92.8593C121.516 92.8593 118.623 92.3102 117.525 91.3C116.428 90.2897 118.433 94.549 122.632 96.4179C125.067 97.4296 127.376 98.7186 129.515 100.26C130.697 101.05 146.025 117.566 154.519 113.245Z" fill="#F2F2F2"/>
<path d="M172.22 62.8844C172.22 62.8844 179.166 50.1758 179.559 51.015C179.952 51.8542 174.612 68.0689 175.199 70.1997C175.785 72.3305 191.996 88.8556 193.414 89.3261C194.833 89.7965 196.018 86.9797 196.018 86.9797C198.304 88.7952 200.171 96.7351 201.197 100.192C206.103 116.56 205.456 125.122 205.18 128.095C205.037 130.582 204.059 132.953 202.403 134.832C201.047 136.168 197.043 138.695 193.54 133.794C190.036 128.894 180.068 109.913 177.997 107.772C175.927 105.631 167.72 96.3575 170.232 97.7798C172.744 99.2022 178.305 99.9701 177.528 98.2763C176.752 96.5826 176.584 78.6838 172.594 73.7387C168.604 68.7936 152.382 63.4609 155.913 63.1142C159.443 62.7674 167.087 65.6731 172.22 62.8844Z" fill="#F2F2F2"/>
<path d="M112.01 12.1055C112.01 12.1055 103.322 11.4656 103.617 11.9382C103.913 12.4107 113.849 15.0069 114.734 15.999C115.619 16.991 118.675 30.5764 118.449 31.4466C118.224 32.3168 116.414 31.996 116.414 31.996C116.584 33.7436 119.986 37.2793 121.398 38.9266C128.065 46.7493 132.602 49.218 134.195 50.0491C135.498 50.7887 137.015 51.0692 138.504 50.8459C139.623 50.5969 142.206 49.3993 140.874 46.0291C139.542 42.659 133.208 31.4253 132.802 29.6804C132.396 27.9356 130.391 20.7611 130.289 22.4946C130.188 24.2281 128.76 27.2883 128.158 26.3432C127.555 25.398 118.568 19.4688 117.372 15.8384C116.176 12.2079 118.778 2.27154 117.451 3.94188C116.123 5.61222 115.095 10.4226 112.01 12.1055Z" fill="#F2F2F2"/>
<path d="M193 151.962L189.492 147.035L173.732 144.352L168.875 145.173L155.436 150.976L154.95 149.717L150.633 150.429L148.96 150.703L143.563 152.345L142.267 152.893L139.407 150.703L135.899 148.075L120.247 134.826L107.996 126.066L104.596 125.299L94.3412 123L72.4829 124.04L51.8121 129.515L36.4844 139.863L34.9192 140.903L15.8675 162.802L10.4704 173.752L2.80643 179.719L0 181.909L0.431695 187.001H1.51118C1.78103 188.863 2.10489 191.326 2.21283 191.655C5.37107 193.884 8.65053 195.931 12.0356 197.787L8.85114 204.302L9.22898 211.638L12.4673 214.704H16.5691L17.6484 218.098L19.4834 217.715V214.594H23.8012L24.8805 217.332H26.3378V214.759H27.4712L31.2492 214.321L32.2747 216.565H33.8937V213.171L36.3225 209.229L33.1381 206.163L32.2747 205.342L32.0047 203.864L35.5128 204.575L51.7041 206.984L60.1235 205.999L98.8747 205.178L113.933 202.331L123.431 200.031L122.568 203.316L120.139 214.923H120.787L119.546 219.193L120.733 220.015L122.676 215.416L124.187 215.854L122.946 220.233L124.349 220.836L126.292 216.401L127.965 216.894L126.778 220.836H127.965L129.584 217.113L132.013 217.77L132.499 217.441L132.013 221L133.416 220.179L134.172 216.346L135.791 215.306L136.169 214.375L143.185 194.83L144.048 202.878L146.855 211.255H147.934L148.852 214.978H150.687V211.419H152.954L153.817 214.649L155.058 214.211V211.364L157.595 208.846L158.458 212.185L159.646 211.364L158.89 207.641L160.078 206.492L160.671 195.87L158.458 183.661L156.839 182.019L151.442 181.033L151.982 180.431L150.795 179.665L168.227 173.095L169.199 172.438L170.872 171.234L170.548 169.865L178.158 167.292L187.819 163.24L189.924 160.777V156.561L192.406 156.999L193 151.962Z" fill="#F2F2F2"/>
</svg>
