<svg width="118" height="145" viewBox="0 0 118 145" fill="none" xmlns="http://www.w3.org/2000/svg">
<path fill-rule="evenodd" clip-rule="evenodd" d="M4.11124 44.602C3.66385 44.5661 3.22836 44.4396 2.83104 44.2302C2.43372 44.0208 2.08281 43.7328 1.79949 43.3835C1.51617 43.0343 1.30631 42.6311 1.18258 42.1983C1.05884 41.7655 1.0238 41.312 1.07957 40.8652C1.13533 40.4185 1.28075 39.9876 1.50704 39.5988C1.73333 39.21 2.0358 38.8711 2.3962 38.6028C2.75661 38.3344 3.16747 38.1421 3.60399 38.0375C4.04051 37.9328 4.49364 37.918 4.93603 37.9938C20.4446 39.9168 24.5569 46.3968 23.523 55.2076C22.6982 61.3962 18.9924 68.284 15.1473 75.4399C4.80825 94.1571 3.70465 115.776 20.3051 115.38C24.9519 115.52 34.3035 121.72 40.7508 119.098C41.1539 118.907 41.5922 118.802 42.0378 118.79C42.4834 118.777 42.9268 118.858 43.3396 119.027C43.7525 119.196 44.1259 119.449 44.4361 119.77C44.7464 120.091 44.9868 120.473 45.142 120.893C45.469 121.732 45.4508 122.667 45.0915 123.493C44.7322 124.319 44.061 124.968 43.2252 125.298C37.1664 127.986 30.6345 129.436 24.0109 129.564C-8.78349 128.853 -1.91792 92.374 9.19942 72.13C12.7658 65.5219 16.1695 59.1935 16.7388 54.3801C17.308 49.5668 14.5432 45.9772 4.11124 44.602Z" fill="#F2F2F2"/>
<path fill-rule="evenodd" clip-rule="evenodd" d="M21.2693 137.803C14.6826 140.134 14.1366 143.165 14.1366 144.412C14.1366 145.659 60.7899 144.68 62.3001 143.724C66.0059 141.242 31.1437 134.225 21.2693 137.803Z" fill="#F2F2F2"/>
<path fill-rule="evenodd" clip-rule="evenodd" d="M111.01 137.803C117.457 140.134 118.142 143.165 117.98 144.412C117.817 145.659 71.3264 144.68 69.9556 143.724C66.2499 141.242 101.112 134.225 110.986 137.803H111.01Z" fill="#F2F2F2"/>
<path fill-rule="evenodd" clip-rule="evenodd" d="M43.2252 144.819C53.0996 144.551 61.6147 144.132 62.3001 143.724C65.4483 141.661 41.3898 136.428 27.7167 136.836C32.2639 140.57 37.5502 143.291 43.2252 144.819Z" fill="#F2F2F2"/>
<path fill-rule="evenodd" clip-rule="evenodd" d="M88.9144 144.819C79.1794 144.551 70.5249 144.132 69.9789 143.724C66.8307 141.661 90.8892 136.428 104.423 136.836C99.8772 140.572 94.5904 143.294 88.9144 144.819Z" fill="#F2F2F2"/>
<path fill-rule="evenodd" clip-rule="evenodd" d="M33.2115 52.4455C33.2115 52.4455 16.3322 112.466 21.1299 123.212C27.0313 136.836 46.931 143.351 66.1337 142.617C85.348 143.304 105.248 136.789 111.149 123.212C115.807 112.466 98.9397 52.4455 98.9397 52.4455C88.0896 40.3364 77.1116 35.2434 66.1337 35.6513C55.1674 35.2434 44.143 40.3364 33.2115 52.4455Z" fill="#F2F2F2"/>
<path fill-rule="evenodd" clip-rule="evenodd" d="M33.2115 52.4455C33.2115 52.4455 31.9685 57.1073 30.1911 64.0185C34.9889 70.8946 46.6522 78.3302 66.1337 78.1904C85.6268 78.3302 97.1507 70.8946 102.088 64.0185C100.311 57.1073 98.9397 52.4455 98.9397 52.4455C88.0896 40.3364 77.1116 35.2434 66.1337 35.6513C55.1674 35.2434 44.143 40.3364 33.2115 52.4455Z" fill="#F2F2F2"/>
<path fill-rule="evenodd" clip-rule="evenodd" d="M41.8196 52.4455C41.8196 52.4455 29.3315 112.466 32.7584 123.212C37.1728 136.836 51.8682 143.351 66.1337 142.617C80.2714 143.304 95.0945 136.789 99.3463 123.212C102.773 112.466 90.4246 52.4455 90.4246 52.4455C82.2927 40.3364 74.2306 35.2434 66.1337 35.6513C58.0832 35.2434 49.9514 40.3364 41.8196 52.4455Z" fill="#F2F2F2"/>
<path fill-rule="evenodd" clip-rule="evenodd" d="M37.0451 77.6426C35.8137 85.3463 34.4429 93.7492 33.4787 101.325C39.926 108.481 51.8682 105.858 52.2748 103.656C52.6814 101.453 48.9872 100.905 43.7712 92.642C40.8797 87.9617 38.618 82.9181 37.0451 77.6426Z" fill="#F2F2F2"/>
<path fill-rule="evenodd" clip-rule="evenodd" d="M98.8003 101.325C97.8361 93.7492 96.4769 85.3463 95.0945 77.6426C93.5822 82.9172 91.3666 87.9626 88.5078 92.642C83.2918 100.905 79.4466 101.453 79.8648 103.656C80.283 105.858 92.2136 108.481 98.8003 101.325Z" fill="#F2F2F2"/>
<path fill-rule="evenodd" clip-rule="evenodd" d="M41.8196 52.4455C41.8196 52.4455 40.17 60.6037 38.1138 71.3142C44.4218 75.3001 53.7501 78.3069 66.0988 78.1904C78.4592 78.3302 87.6481 75.3001 93.9793 71.3142C92.0742 60.6037 90.4246 52.4455 90.4246 52.4455C82.2927 40.3364 74.2306 35.2434 66.1337 35.6513C58.0832 35.2434 49.9514 40.3364 41.8196 52.4455Z" fill="#F2F2F2"/>
<path fill-rule="evenodd" clip-rule="evenodd" d="M42.1216 17.7615C37.8699 30.3018 38.3345 41.7116 28.9481 48.8675C23.3255 53.273 34.1641 73.6451 66.1221 73.3421C98.1033 73.6102 108.942 53.238 103.18 48.8675C93.9909 41.7116 94.4091 30.3018 90.1574 17.7615C82.1882 10.3259 74.1029 7.27244 66.1337 7.43561C58.0019 7.29575 50.0792 10.3259 42.1216 17.7615Z" fill="#F2F2F2"/>
<path fill-rule="evenodd" clip-rule="evenodd" d="M37.4633 60.1608C39.1179 60.1362 40.6955 59.4556 41.8514 58.2676C43.0072 57.0795 43.6474 55.4808 43.6318 53.8207C43.5628 52.2244 42.8821 50.7164 41.7317 49.6113C40.5814 48.5061 39.0502 47.8893 37.4575 47.8893C35.8647 47.8893 34.3335 48.5061 33.1832 49.6113C32.0328 50.7164 31.3521 52.2244 31.2831 53.8207C31.2706 55.4819 31.9134 57.0806 33.0711 58.2683C34.2288 59.456 35.8076 60.1362 37.4633 60.1608Z" fill="#F2F2F2"/>
<path fill-rule="evenodd" clip-rule="evenodd" d="M94.8157 60.1608C96.4714 60.1362 98.0502 59.456 99.2079 58.2683C100.366 57.0806 101.008 55.4819 100.996 53.8207C100.997 53.0066 100.839 52.2002 100.528 51.4479C100.218 50.6957 99.7628 50.0123 99.1885 49.4372C98.6142 48.8621 97.9322 48.4065 97.1817 48.0967C96.4313 47.787 95.6272 47.6291 94.8157 47.6322C93.163 47.6197 91.5724 48.2632 90.3908 49.4225C89.2091 50.5818 88.5323 52.1628 88.5078 53.8207C88.5258 55.4946 89.1959 57.0949 90.3746 58.2797C91.5534 59.4645 93.1473 60.1396 94.8157 60.1608Z" fill="#F2F2F2"/>
<path fill-rule="evenodd" clip-rule="evenodd" d="M51.8682 46.2569C52.3856 46.2592 52.8921 46.1074 53.3235 45.8207C53.7548 45.5339 54.0917 45.1252 54.2913 44.6463C54.4909 44.1673 54.5443 43.6397 54.4448 43.1302C54.3452 42.6208 54.0972 42.1525 53.7321 41.7846C53.3671 41.4167 52.9013 41.1658 52.394 41.0636C51.8867 40.9615 51.3605 41.0128 50.8822 41.2109C50.404 41.409 49.995 41.7451 49.7073 42.1766C49.4196 42.6081 49.266 43.1155 49.266 43.6346C49.2863 44.3217 49.5666 44.9752 50.05 45.4623C50.5333 45.9494 51.1835 46.2335 51.8682 46.2569Z" fill="#F2F2F2"/>
<path fill-rule="evenodd" clip-rule="evenodd" d="M80.4108 46.2569C80.9292 46.2639 81.4379 46.116 81.8723 45.8321C82.3067 45.5482 82.6472 45.1411 82.8503 44.6626C83.0535 44.1841 83.1103 43.6558 83.0134 43.1448C82.9165 42.6339 82.6704 42.1634 82.3063 41.7931C81.9421 41.4229 81.4765 41.1697 80.9685 41.0656C80.4606 40.9616 79.9333 41.0114 79.4536 41.2088C78.974 41.4062 78.5637 41.7423 78.2749 42.1742C77.9861 42.6062 77.8319 43.1145 77.8319 43.6346C77.8272 43.9793 77.8913 44.3214 78.0202 44.6409C78.1492 44.9604 78.3405 45.2509 78.5829 45.4951C78.8253 45.7394 79.114 45.9327 79.4319 46.0635C79.7497 46.1943 80.0905 46.2601 80.434 46.2569H80.4108Z" fill="#F2F2F2"/>
<path fill-rule="evenodd" clip-rule="evenodd" d="M36.7779 0C30.3305 0 25.161 7.57546 25.161 17.0739C25.161 26.5724 30.377 34.1362 36.7779 34.1362C43.1788 34.1362 42.6792 41.024 42.6792 31.6654C42.6792 22.3068 43.2252 0 36.7779 0Z" fill="#F2F2F2"/>
<path fill-rule="evenodd" clip-rule="evenodd" d="M95.5011 0C101.948 0 107.118 7.57546 107.118 17.0739C107.118 26.5724 101.902 34.1362 95.5011 34.1362C89.1002 34.1362 89.4487 41.024 89.4487 31.6654C89.4487 22.3068 89.0538 0 95.5011 0Z" fill="#F2F2F2"/>
<path fill-rule="evenodd" clip-rule="evenodd" d="M46.4663 54.1004C49.0801 51.35 57.7231 50.1146 66.0872 50.2428C74.463 50.1146 83.1059 51.4082 85.5803 54.1004C88.6007 57.4103 82.8387 72.13 66.0872 71.862C49.266 72.13 43.6318 57.4103 46.4663 54.1004Z" fill="#F2F2F2"/>
<path fill-rule="evenodd" clip-rule="evenodd" d="M60.1045 72.2582C60.9293 73.5053 63.5315 74.1929 66.1337 74.053C68.6081 74.1929 71.3497 73.5053 72.0351 72.2582C72.4533 71.5706 72.3139 69.9273 71.7679 68.2724C70.7382 68.0858 69.7576 67.6891 68.8869 67.1069C68.213 66.8173 67.6214 66.3643 67.1652 65.7887C66.709 65.213 66.4024 64.5326 66.2731 63.8087H66.0059C65.8169 64.5277 65.4721 65.196 64.9962 65.7661C64.5204 66.3362 63.9251 66.794 63.2527 67.1069C62.4431 67.7066 61.5037 68.1059 60.5111 68.2724C59.9335 69.5176 59.7903 70.9215 60.1045 72.2582Z" fill="#F2F2F2"/>
<path fill-rule="evenodd" clip-rule="evenodd" d="M29.3663 43.2267C29.2096 43.1941 29.0692 43.1075 28.9695 42.9819C28.8697 42.8563 28.817 42.6997 28.8203 42.5391C28.9481 42.2594 29.2269 41.9914 29.5057 42.1196C29.7845 42.2478 57.9089 48.5995 61.7541 51.2101C62.4395 51.7579 62.5673 52.1774 62.3001 52.7252C61.7541 53.5527 59.0009 53.6925 55.4346 54.1004C49.9514 54.52 42.4004 55.2076 38.5552 57.8182C38.2881 57.9581 37.8699 57.9581 37.7304 57.6784C37.6574 57.5449 37.6314 57.3905 37.6567 57.2403C37.682 57.0901 37.7571 56.9529 37.8699 56.8509C41.9938 54.1004 49.812 53.3545 55.2951 53.0049C58.5943 52.5853 61.1036 52.4455 61.3359 52.0376C61.4753 52.0376 61.1965 52.1774 61.0571 52.1774C57.4907 49.695 29.3663 43.2267 29.3663 43.2267Z" fill="#F2F2F2"/>
<path fill-rule="evenodd" clip-rule="evenodd" d="M102.913 43.2267C103.191 43.0869 103.459 42.8188 103.331 42.5391C103.318 42.4627 103.289 42.3899 103.245 42.3259C103.202 42.2618 103.145 42.208 103.079 42.1681C103.013 42.1282 102.938 42.1032 102.862 42.0948C102.785 42.0865 102.707 42.0949 102.634 42.1196C102.634 42.1196 74.3468 48.5995 70.5249 51.2101C69.8395 51.7579 69.5723 52.1774 69.9789 52.7252C70.5249 53.5527 73.2781 53.6925 76.705 54.1004C82.1882 54.52 89.8786 55.2076 93.7237 57.8182C93.855 57.8983 94.0107 57.9282 94.1621 57.9025C94.3136 57.8769 94.4508 57.7973 94.5485 57.6784C94.6763 57.4103 94.5485 57.1306 94.2697 56.8509C90.2852 54.1004 82.467 53.3545 76.8444 53.0049C73.5452 52.5853 71.036 52.4455 70.9431 52.0376C70.8037 52.0376 71.0825 52.1774 71.2219 52.1774C74.7883 49.695 102.913 43.2267 102.913 43.2267Z" fill="#F2F2F2"/>
<path d="M66.6797 52.7252H65.5877V64.5662H66.6797V52.7252Z" fill="#F2F2F2"/>
<path fill-rule="evenodd" clip-rule="evenodd" d="M78.0758 63.459C78.0793 63.3798 78.1024 63.3027 78.1431 63.2346C78.1837 63.1666 78.2406 63.1097 78.3086 63.0693C78.3767 63.0288 78.4536 63.0059 78.5326 63.0028C78.6117 62.9996 78.6902 63.0162 78.7612 63.0511C78.8267 63.0751 78.8864 63.1126 78.9366 63.1612C78.9867 63.2097 79.0262 63.2682 79.0524 63.333C79.0787 63.3978 79.0911 63.4673 79.089 63.5372C79.0869 63.6071 79.0702 63.6757 79.04 63.7388C78.8179 64.796 78.3186 65.7745 77.5936 66.5735C76.8687 67.3725 75.9444 67.963 74.916 68.284C73.8217 68.6891 72.6475 68.8288 71.4891 68.6919C70.3166 68.6215 69.183 68.2438 68.2015 67.5964C67.3539 67.0845 66.644 66.3723 66.1337 65.5219C65.5642 66.3848 64.795 67.0966 63.8916 67.5964C62.9511 68.2221 61.8681 68.5989 60.7435 68.6919C59.5851 68.8361 58.4091 68.6961 57.3165 68.284C56.2699 67.9701 55.3244 67.3845 54.5758 66.5863C53.8272 65.7882 53.3019 64.8059 53.0531 63.7388C53.0513 63.5963 53.0896 63.4562 53.1636 63.3346C53.2375 63.2129 53.3442 63.1147 53.4713 63.0511C53.543 63.0264 53.6192 63.0176 53.6946 63.0253C53.77 63.0331 53.8429 63.0572 53.9081 63.096C53.9733 63.1348 54.0293 63.1874 54.0722 63.2501C54.1151 63.3128 54.144 63.3841 54.1567 63.459C54.3701 64.343 54.8008 65.1592 55.4096 65.8331C56.0184 66.5069 56.7858 67.017 57.6418 67.3167C58.6199 67.6111 59.6468 67.7062 60.6621 67.5964C61.636 67.4812 62.5724 67.1509 63.4037 66.6291C64.0034 66.3253 64.5182 65.8764 64.9015 65.3229C65.2849 64.7694 65.5247 64.1289 65.5993 63.459V63.191L65.7387 63.0511V62.9346H66.4241V63.0744H66.5635V63.2143H66.7029V63.4824C66.7499 64.1422 66.9632 64.7793 67.3229 65.3338C67.6825 65.8883 68.1767 66.342 68.7591 66.6524C69.631 67.196 70.6177 67.5273 71.6401 67.6197C72.6093 67.7298 73.5908 67.6345 74.5211 67.34C75.3848 67.0388 76.1616 66.5296 76.7834 65.857C77.4052 65.1844 77.853 64.369 78.0874 63.4824L78.0758 63.459Z" fill="#F2F2F2"/>
<path fill-rule="evenodd" clip-rule="evenodd" d="M60.1045 49.5552C60.9293 48.3198 63.5315 47.6322 66.1337 47.772C68.6081 47.6322 71.3497 48.3198 72.0351 49.5552C72.9993 51.0703 71.2219 58.0979 66.1337 57.9581C60.9293 58.0979 59.2797 51.0703 60.1045 49.5552Z" fill="#F2F2F2"/>
<path fill-rule="evenodd" clip-rule="evenodd" d="M36.3597 73.0974C37.9432 79.2643 40.4416 85.1574 43.7712 90.5792C48.9872 98.8423 52.693 99.39 52.2748 101.593C51.8566 103.795 38.6946 106.686 32.5261 98.0148C26.3575 89.3438 36.3597 73.0974 36.3597 73.0974Z" fill="#F2F2F2"/>
<path fill-rule="evenodd" clip-rule="evenodd" d="M95.7799 73.0974C94.2815 79.2701 91.8277 85.169 88.5078 90.5792C83.2918 98.8423 79.4466 99.39 79.8648 101.593C80.283 103.795 93.5843 106.686 99.7529 98.0148C105.921 89.3438 95.7799 73.0974 95.7799 73.0974Z" fill="#F2F2F2"/>
<path fill-rule="evenodd" clip-rule="evenodd" d="M48.4412 102.141C48.4412 102.141 53.6572 98.5626 56.573 101.325C59.4888 104.087 60.546 106.138 58.8964 106.546C57.2468 106.954 55.6088 104.343 55.33 106.546C55.0512 108.749 54.784 109.716 53.1344 107.933C51.4848 106.15 50.9388 105.45 50.114 107.513C49.2892 109.576 46.8265 104.483 48.476 102.141H48.4412Z" fill="#F2F2F2"/>
<path fill-rule="evenodd" clip-rule="evenodd" d="M83.6984 102.141C83.6984 102.141 78.494 98.5626 75.5666 101.325C72.6391 104.087 71.7214 106.138 73.371 106.546C75.0206 106.954 76.6586 104.343 76.9374 106.546C77.2162 108.749 77.4834 109.716 79.133 107.933C80.7826 106.15 81.1891 105.45 82.1417 107.513C83.0943 109.576 85.4409 104.483 83.6519 102.141H83.6984Z" fill="#F2F2F2"/>
<path fill-rule="evenodd" clip-rule="evenodd" d="M30.7371 15.0111C33.6181 11.4215 37.6027 22.3068 38.1487 28.2157C39.2406 37.7141 24.0109 23.4023 30.7371 15.0111Z" fill="#F2F2F2"/>
<path fill-rule="evenodd" clip-rule="evenodd" d="M101.402 15.0111C98.6609 11.4215 94.6763 22.3068 93.9909 28.2157C93.0384 37.7141 108.129 23.4023 101.402 15.0111Z" fill="#F2F2F2"/>
</svg>
