<svg width="202" height="202" viewBox="0 0 202 202" fill="none" xmlns="http://www.w3.org/2000/svg">
<path d="M0 90.8316C0 77.2265 11.122 66.1974 24.8418 66.1974H177.158C190.878 66.1974 202 77.2265 202 90.8316V109.851C202 123.456 190.878 134.486 177.158 134.486H24.8418C11.122 134.486 0 123.456 0 109.851V90.8316Z" fill="#F2F2F2"/>
<path d="M109.304 8.61434e-07C123.023 1.45613e-06 134.145 11.0291 134.145 24.6341L134.145 177.366C134.145 190.971 123.023 202 109.304 202H89.4303C75.7106 202 64.5886 190.971 64.5886 177.366L64.5886 24.6341C64.5886 11.0291 75.7106 -5.94696e-07 89.4303 0L109.304 8.61434e-07Z" fill="#F2F2F2"/>
</svg>
