<svg width="424" height="107" viewBox="0 0 424 107" fill="none" xmlns="http://www.w3.org/2000/svg">
<path d="M117.525 48.4336V54H115.65V39.7812H120.895C122.451 39.7812 123.668 40.1784 124.547 40.9727C125.432 41.7669 125.875 42.8184 125.875 44.127C125.875 45.5072 125.442 46.5716 124.576 47.3203C123.717 48.0625 122.483 48.4336 120.875 48.4336H117.525ZM117.525 46.9004H120.895C121.897 46.9004 122.665 46.666 123.199 46.1973C123.733 45.722 124 45.0384 124 44.1465C124 43.3001 123.733 42.623 123.199 42.1152C122.665 41.6074 121.933 41.3438 121.002 41.3242H117.525V46.9004Z" fill="white"/>
<path d="M133.092 45.0547C132.818 45.0091 132.522 44.9863 132.203 44.9863C131.018 44.9863 130.214 45.4909 129.791 46.5V54H127.984V43.4336H129.742L129.771 44.6543C130.364 43.7103 131.204 43.2383 132.291 43.2383C132.643 43.2383 132.91 43.2839 133.092 43.375V45.0547Z" fill="white"/>
<path d="M138.951 54.1953C137.519 54.1953 136.354 53.7266 135.455 52.7891C134.557 51.8451 134.107 50.5853 134.107 49.0098V48.6777C134.107 47.6296 134.306 46.6953 134.703 45.875C135.107 45.0482 135.667 44.4036 136.383 43.9414C137.105 43.4727 137.887 43.2383 138.727 43.2383C140.1 43.2383 141.168 43.6908 141.93 44.5957C142.691 45.5007 143.072 46.7962 143.072 48.4824V49.2344H135.914C135.94 50.276 136.243 51.1191 136.822 51.7637C137.408 52.4017 138.15 52.7207 139.049 52.7207C139.687 52.7207 140.227 52.5905 140.67 52.3301C141.113 52.0697 141.5 51.7246 141.832 51.2949L142.936 52.1543C142.05 53.515 140.722 54.1953 138.951 54.1953ZM138.727 44.7227C137.997 44.7227 137.385 44.9896 136.891 45.5234C136.396 46.0508 136.09 46.793 135.973 47.75H141.266V47.6133C141.214 46.6953 140.966 45.9857 140.523 45.4844C140.081 44.9766 139.482 44.7227 138.727 44.7227Z" fill="white"/>
<path d="M148.932 48.6973H144.166V47.2227H148.932V48.6973Z" fill="white"/>
<path d="M156.852 51.1973C156.852 50.709 156.666 50.3314 156.295 50.0645C155.93 49.791 155.289 49.5566 154.371 49.3613C153.46 49.166 152.734 48.9316 152.193 48.6582C151.66 48.3848 151.262 48.0592 151.002 47.6816C150.748 47.304 150.621 46.8548 150.621 46.334C150.621 45.4681 150.986 44.7357 151.715 44.1367C152.451 43.5378 153.388 43.2383 154.527 43.2383C155.725 43.2383 156.695 43.5475 157.438 44.166C158.186 44.7845 158.561 45.5755 158.561 46.5391H156.744C156.744 46.0443 156.533 45.6178 156.109 45.2598C155.693 44.9017 155.165 44.7227 154.527 44.7227C153.87 44.7227 153.355 44.8659 152.984 45.1523C152.613 45.4388 152.428 45.8132 152.428 46.2754C152.428 46.7116 152.6 47.0404 152.945 47.2617C153.29 47.4831 153.912 47.6947 154.811 47.8965C155.715 48.0983 156.448 48.3392 157.008 48.6191C157.568 48.8991 157.981 49.2376 158.248 49.6348C158.521 50.0254 158.658 50.5039 158.658 51.0703C158.658 52.0143 158.281 52.7728 157.525 53.3457C156.77 53.9121 155.79 54.1953 154.586 54.1953C153.74 54.1953 152.991 54.0456 152.34 53.7461C151.689 53.4466 151.178 53.0299 150.807 52.4961C150.442 51.9557 150.26 51.373 150.26 50.748H152.066C152.099 51.3535 152.34 51.8353 152.789 52.1934C153.245 52.5449 153.844 52.7207 154.586 52.7207C155.27 52.7207 155.816 52.584 156.227 52.3105C156.643 52.0306 156.852 51.6595 156.852 51.1973Z" fill="white"/>
<path d="M165.25 52.7207C165.895 52.7207 166.458 52.5254 166.939 52.1348C167.421 51.7441 167.688 51.2559 167.74 50.6699H169.449C169.417 51.2754 169.208 51.8516 168.824 52.3984C168.44 52.9453 167.926 53.3815 167.281 53.707C166.643 54.0326 165.966 54.1953 165.25 54.1953C163.811 54.1953 162.665 53.7168 161.812 52.7598C160.966 51.7962 160.543 50.4811 160.543 48.8145V48.5117C160.543 47.4831 160.732 46.5684 161.109 45.7676C161.487 44.9668 162.027 44.3451 162.73 43.9023C163.44 43.4596 164.277 43.2383 165.24 43.2383C166.425 43.2383 167.408 43.5931 168.189 44.3027C168.977 45.0124 169.397 45.9336 169.449 47.0664H167.74C167.688 46.3828 167.428 45.8229 166.959 45.3867C166.497 44.944 165.924 44.7227 165.24 44.7227C164.322 44.7227 163.609 45.0547 163.102 45.7188C162.6 46.3763 162.35 47.3301 162.35 48.5801V48.9219C162.35 50.1393 162.6 51.0768 163.102 51.7344C163.603 52.3919 164.319 52.7207 165.25 52.7207Z" fill="white"/>
<path d="M173.287 44.7129C174.088 43.7298 175.13 43.2383 176.412 43.2383C178.645 43.2383 179.771 44.498 179.791 47.0176V54H177.984V47.0078C177.978 46.2461 177.802 45.6829 177.457 45.3184C177.118 44.9538 176.588 44.7715 175.865 44.7715C175.279 44.7715 174.765 44.9277 174.322 45.2402C173.88 45.5527 173.535 45.9629 173.287 46.4707V54H171.48V39H173.287V44.7129Z" fill="white"/>
<path d="M182.018 48.6191C182.018 47.584 182.219 46.653 182.623 45.8262C183.033 44.9993 183.6 44.3613 184.322 43.9121C185.051 43.4629 185.882 43.2383 186.812 43.2383C188.251 43.2383 189.413 43.7363 190.299 44.7324C191.191 45.7285 191.637 47.0534 191.637 48.707V48.834C191.637 49.8626 191.438 50.7871 191.041 51.6074C190.65 52.4212 190.087 53.056 189.352 53.5117C188.622 53.9674 187.783 54.1953 186.832 54.1953C185.4 54.1953 184.238 53.6973 183.346 52.7012C182.46 51.7051 182.018 50.3867 182.018 48.7461V48.6191ZM183.834 48.834C183.834 50.0059 184.104 50.9466 184.645 51.6562C185.191 52.3659 185.921 52.7207 186.832 52.7207C187.75 52.7207 188.479 52.3626 189.02 51.6465C189.56 50.9238 189.83 49.9147 189.83 48.6191C189.83 47.4603 189.553 46.5228 189 45.8066C188.453 45.084 187.724 44.7227 186.812 44.7227C185.921 44.7227 185.201 45.0775 184.654 45.7871C184.107 46.4967 183.834 47.5124 183.834 48.834Z" fill="white"/>
<path d="M193.424 48.6191C193.424 47.584 193.626 46.653 194.029 45.8262C194.439 44.9993 195.006 44.3613 195.729 43.9121C196.458 43.4629 197.288 43.2383 198.219 43.2383C199.658 43.2383 200.82 43.7363 201.705 44.7324C202.597 45.7285 203.043 47.0534 203.043 48.707V48.834C203.043 49.8626 202.844 50.7871 202.447 51.6074C202.057 52.4212 201.493 53.056 200.758 53.5117C200.029 53.9674 199.189 54.1953 198.238 54.1953C196.806 54.1953 195.644 53.6973 194.752 52.7012C193.867 51.7051 193.424 50.3867 193.424 48.7461V48.6191ZM195.24 48.834C195.24 50.0059 195.51 50.9466 196.051 51.6562C196.598 52.3659 197.327 52.7207 198.238 52.7207C199.156 52.7207 199.885 52.3626 200.426 51.6465C200.966 50.9238 201.236 49.9147 201.236 48.6191C201.236 47.4603 200.96 46.5228 200.406 45.8066C199.859 45.084 199.13 44.7227 198.219 44.7227C197.327 44.7227 196.607 45.0775 196.061 45.7871C195.514 46.4967 195.24 47.5124 195.24 48.834Z" fill="white"/>
<path d="M207.271 54H205.465V39H207.271V54Z" fill="white"/>
<path d="M212.135 54H210.328V43.4336H212.135V54ZM210.182 40.6309C210.182 40.3379 210.27 40.0905 210.445 39.8887C210.628 39.6868 210.895 39.5859 211.246 39.5859C211.598 39.5859 211.865 39.6868 212.047 39.8887C212.229 40.0905 212.32 40.3379 212.32 40.6309C212.32 40.9238 212.229 41.168 212.047 41.3633C211.865 41.5586 211.598 41.6562 211.246 41.6562C210.895 41.6562 210.628 41.5586 210.445 41.3633C210.27 41.168 210.182 40.9238 210.182 40.6309Z" fill="white"/>
<path d="M216.744 43.4336L216.803 44.7617C217.61 43.7461 218.665 43.2383 219.967 43.2383C222.2 43.2383 223.326 44.498 223.346 47.0176V54H221.539V47.0078C221.533 46.2461 221.357 45.6829 221.012 45.3184C220.673 44.9538 220.143 44.7715 219.42 44.7715C218.834 44.7715 218.32 44.9277 217.877 45.2402C217.434 45.5527 217.089 45.9629 216.842 46.4707V54H215.035V43.4336H216.744Z" fill="white"/>
<path d="M225.641 48.6289C225.641 46.9818 226.021 45.6732 226.783 44.7031C227.545 43.7266 228.554 43.2383 229.811 43.2383C231.1 43.2383 232.105 43.694 232.828 44.6055L232.916 43.4336H234.566V53.7461C234.566 55.1133 234.16 56.1908 233.346 56.9785C232.538 57.7663 231.451 58.1602 230.084 58.1602C229.322 58.1602 228.577 57.9974 227.848 57.6719C227.118 57.3464 226.562 56.9004 226.178 56.334L227.115 55.25C227.89 56.207 228.837 56.6855 229.957 56.6855C230.836 56.6855 231.52 56.4382 232.008 55.9434C232.503 55.4486 232.75 54.752 232.75 53.8535V52.9453C232.027 53.7786 231.041 54.1953 229.791 54.1953C228.554 54.1953 227.551 53.6973 226.783 52.7012C226.021 51.7051 225.641 50.3477 225.641 48.6289ZM227.457 48.834C227.457 50.0254 227.701 50.9629 228.189 51.6465C228.678 52.3236 229.361 52.6621 230.24 52.6621C231.38 52.6621 232.216 52.1445 232.75 51.1094V46.2852C232.197 45.276 231.367 44.7715 230.26 44.7715C229.381 44.7715 228.694 45.1133 228.199 45.7969C227.704 46.4805 227.457 47.4928 227.457 48.834Z" fill="white"/>
<path d="M25.3135 55.3335C25.3135 60.342 24.3724 64.1222 22.4902 66.6743C20.624 69.2104 17.7769 70.4785 13.9487 70.4785C10.1844 70.4785 7.34521 69.2424 5.43115 66.77C3.53304 64.2817 2.56006 60.6051 2.51221 55.7402V49.7109C2.51221 44.7025 3.44531 40.9461 5.31152 38.4419C7.19368 35.9377 10.0568 34.6855 13.9009 34.6855C17.7131 34.6855 20.5522 35.9058 22.4185 38.3462C24.3006 40.7866 25.2656 44.4393 25.3135 49.3042V55.3335ZM19.4995 48.8257C19.4995 45.5558 19.0529 43.1632 18.1597 41.6479C17.2664 40.1167 15.8468 39.3511 13.9009 39.3511C12.0028 39.3511 10.6071 40.0768 9.71387 41.5283C8.82064 42.9639 8.3501 45.2129 8.30225 48.2754V56.1709C8.30225 59.4248 8.75684 61.8493 9.66602 63.4443C10.5752 65.0394 12.0028 65.8369 13.9487 65.8369C15.8149 65.8369 17.1947 65.1032 18.0879 63.6357C18.9811 62.1523 19.4517 59.8395 19.4995 56.6973V48.8257ZM46.2007 70H40.4106V42.0308L31.8691 44.9497V40.0449L45.459 35.0444H46.2007V70Z" fill="white"/>
<rect x="114" y="69" width="310" height="1" fill="white"/>
</svg>
