<svg width="424" height="107" viewBox="0 0 424 107" fill="none" xmlns="http://www.w3.org/2000/svg">
<path d="M119.84 47.6621C118.232 47.1999 117.06 46.6335 116.324 45.9629C115.595 45.2858 115.23 44.4525 115.23 43.4629C115.23 42.3431 115.676 41.4186 116.568 40.6895C117.467 39.9538 118.632 39.5859 120.064 39.5859C121.041 39.5859 121.91 39.7747 122.672 40.1523C123.44 40.5299 124.033 41.0508 124.449 41.7148C124.872 42.3789 125.084 43.1048 125.084 43.8926H123.199C123.199 43.0332 122.926 42.3594 122.379 41.8711C121.832 41.3763 121.061 41.1289 120.064 41.1289C119.14 41.1289 118.417 41.334 117.896 41.7441C117.382 42.1478 117.125 42.7109 117.125 43.4336C117.125 44.013 117.369 44.5046 117.857 44.9082C118.352 45.3053 119.189 45.6699 120.367 46.002C121.552 46.334 122.477 46.7018 123.141 47.1055C123.811 47.5026 124.306 47.9681 124.625 48.502C124.951 49.0358 125.113 49.6641 125.113 50.3867C125.113 51.5391 124.664 52.4635 123.766 53.1602C122.867 53.8503 121.666 54.1953 120.162 54.1953C119.186 54.1953 118.274 54.0098 117.428 53.6387C116.581 53.2611 115.927 52.7467 115.465 52.0957C115.009 51.4447 114.781 50.7057 114.781 49.8789H116.666C116.666 50.7383 116.982 51.4186 117.613 51.9199C118.251 52.4147 119.101 52.6621 120.162 52.6621C121.152 52.6621 121.91 52.4603 122.438 52.0566C122.965 51.653 123.229 51.1029 123.229 50.4062C123.229 49.7096 122.984 49.1725 122.496 48.7949C122.008 48.4108 121.122 48.0332 119.84 47.6621Z" fill="white"/>
<path d="M131.48 52.7207C132.125 52.7207 132.688 52.5254 133.17 52.1348C133.652 51.7441 133.919 51.2559 133.971 50.6699H135.68C135.647 51.2754 135.439 51.8516 135.055 52.3984C134.671 52.9453 134.156 53.3815 133.512 53.707C132.874 54.0326 132.197 54.1953 131.48 54.1953C130.042 54.1953 128.896 53.7168 128.043 52.7598C127.197 51.7962 126.773 50.4811 126.773 48.8145V48.5117C126.773 47.4831 126.962 46.5684 127.34 45.7676C127.717 44.9668 128.258 44.3451 128.961 43.9023C129.671 43.4596 130.507 43.2383 131.471 43.2383C132.656 43.2383 133.639 43.5931 134.42 44.3027C135.208 45.0124 135.628 45.9336 135.68 47.0664H133.971C133.919 46.3828 133.658 45.8229 133.189 45.3867C132.727 44.944 132.154 44.7227 131.471 44.7227C130.553 44.7227 129.84 45.0547 129.332 45.7188C128.831 46.3763 128.58 47.3301 128.58 48.5801V48.9219C128.58 50.1393 128.831 51.0768 129.332 51.7344C129.833 52.3919 130.549 52.7207 131.48 52.7207Z" fill="white"/>
<path d="M139.518 44.7129C140.318 43.7298 141.36 43.2383 142.643 43.2383C144.876 43.2383 146.002 44.498 146.021 47.0176V54H144.215V47.0078C144.208 46.2461 144.033 45.6829 143.688 45.3184C143.349 44.9538 142.818 44.7715 142.096 44.7715C141.51 44.7715 140.995 44.9277 140.553 45.2402C140.11 45.5527 139.765 45.9629 139.518 46.4707V54H137.711V39H139.518V44.7129Z" fill="white"/>
<path d="M148.248 48.6191C148.248 47.584 148.45 46.653 148.854 45.8262C149.264 44.9993 149.83 44.3613 150.553 43.9121C151.282 43.4629 152.112 43.2383 153.043 43.2383C154.482 43.2383 155.644 43.7363 156.529 44.7324C157.421 45.7285 157.867 47.0534 157.867 48.707V48.834C157.867 49.8626 157.669 50.7871 157.271 51.6074C156.881 52.4212 156.318 53.056 155.582 53.5117C154.853 53.9674 154.013 54.1953 153.062 54.1953C151.63 54.1953 150.468 53.6973 149.576 52.7012C148.691 51.7051 148.248 50.3867 148.248 48.7461V48.6191ZM150.064 48.834C150.064 50.0059 150.335 50.9466 150.875 51.6562C151.422 52.3659 152.151 52.7207 153.062 52.7207C153.98 52.7207 154.71 52.3626 155.25 51.6465C155.79 50.9238 156.061 49.9147 156.061 48.6191C156.061 47.4603 155.784 46.5228 155.23 45.8066C154.684 45.084 153.954 44.7227 153.043 44.7227C152.151 44.7227 151.432 45.0775 150.885 45.7871C150.338 46.4967 150.064 47.5124 150.064 48.834Z" fill="white"/>
<path d="M159.654 48.6191C159.654 47.584 159.856 46.653 160.26 45.8262C160.67 44.9993 161.236 44.3613 161.959 43.9121C162.688 43.4629 163.518 43.2383 164.449 43.2383C165.888 43.2383 167.05 43.7363 167.936 44.7324C168.827 45.7285 169.273 47.0534 169.273 48.707V48.834C169.273 49.8626 169.075 50.7871 168.678 51.6074C168.287 52.4212 167.724 53.056 166.988 53.5117C166.259 53.9674 165.419 54.1953 164.469 54.1953C163.036 54.1953 161.874 53.6973 160.982 52.7012C160.097 51.7051 159.654 50.3867 159.654 48.7461V48.6191ZM161.471 48.834C161.471 50.0059 161.741 50.9466 162.281 51.6562C162.828 52.3659 163.557 52.7207 164.469 52.7207C165.387 52.7207 166.116 52.3626 166.656 51.6465C167.197 50.9238 167.467 49.9147 167.467 48.6191C167.467 47.4603 167.19 46.5228 166.637 45.8066C166.09 45.084 165.361 44.7227 164.449 44.7227C163.557 44.7227 162.838 45.0775 162.291 45.7871C161.744 46.4967 161.471 47.5124 161.471 48.834Z" fill="white"/>
<path d="M173.502 54H171.695V39H173.502V54Z" fill="white"/>
<path d="M185.602 52.7207C186.246 52.7207 186.809 52.5254 187.291 52.1348C187.773 51.7441 188.04 51.2559 188.092 50.6699H189.801C189.768 51.2754 189.56 51.8516 189.176 52.3984C188.792 52.9453 188.277 53.3815 187.633 53.707C186.995 54.0326 186.318 54.1953 185.602 54.1953C184.163 54.1953 183.017 53.7168 182.164 52.7598C181.318 51.7962 180.895 50.4811 180.895 48.8145V48.5117C180.895 47.4831 181.083 46.5684 181.461 45.7676C181.839 44.9668 182.379 44.3451 183.082 43.9023C183.792 43.4596 184.628 43.2383 185.592 43.2383C186.777 43.2383 187.76 43.5931 188.541 44.3027C189.329 45.0124 189.749 45.9336 189.801 47.0664H188.092C188.04 46.3828 187.779 45.8229 187.311 45.3867C186.848 44.944 186.275 44.7227 185.592 44.7227C184.674 44.7227 183.961 45.0547 183.453 45.7188C182.952 46.3763 182.701 47.3301 182.701 48.5801V48.9219C182.701 50.1393 182.952 51.0768 183.453 51.7344C183.954 52.3919 184.671 52.7207 185.602 52.7207Z" fill="white"/>
<path d="M198.355 54C198.251 53.7917 198.167 53.4206 198.102 52.8867C197.262 53.7591 196.259 54.1953 195.094 54.1953C194.052 54.1953 193.196 53.9023 192.525 53.3164C191.861 52.724 191.529 51.9753 191.529 51.0703C191.529 49.9701 191.946 49.1172 192.779 48.5117C193.619 47.8997 194.798 47.5938 196.314 47.5938H198.072V46.7637C198.072 46.1322 197.883 45.6309 197.506 45.2598C197.128 44.8822 196.572 44.6934 195.836 44.6934C195.191 44.6934 194.651 44.8561 194.215 45.1816C193.779 45.5072 193.561 45.901 193.561 46.3633H191.744C191.744 45.8359 191.93 45.3281 192.301 44.8398C192.678 44.3451 193.186 43.9544 193.824 43.668C194.469 43.3815 195.175 43.2383 195.943 43.2383C197.161 43.2383 198.115 43.5443 198.805 44.1562C199.495 44.7617 199.853 45.5983 199.879 46.666V51.5293C199.879 52.4993 200.003 53.2708 200.25 53.8438V54H198.355ZM195.357 52.623C195.924 52.623 196.461 52.4766 196.969 52.1836C197.477 51.8906 197.844 51.5098 198.072 51.041V48.873H196.656C194.443 48.873 193.336 49.5208 193.336 50.8164C193.336 51.3828 193.525 51.8255 193.902 52.1445C194.28 52.4635 194.765 52.623 195.357 52.623Z" fill="white"/>
<path d="M205.162 40.875V43.4336H207.135V44.8301H205.162V51.3828C205.162 51.806 205.25 52.125 205.426 52.3398C205.602 52.5482 205.901 52.6523 206.324 52.6523C206.533 52.6523 206.819 52.6133 207.184 52.5352V54C206.708 54.1302 206.246 54.1953 205.797 54.1953C204.99 54.1953 204.381 53.9512 203.971 53.4629C203.561 52.9746 203.355 52.2812 203.355 51.3828V44.8301H201.432V43.4336H203.355V40.875H205.162Z" fill="white"/>
<path d="M213.492 52.7207C214.137 52.7207 214.7 52.5254 215.182 52.1348C215.663 51.7441 215.93 51.2559 215.982 50.6699H217.691C217.659 51.2754 217.451 51.8516 217.066 52.3984C216.682 52.9453 216.168 53.3815 215.523 53.707C214.885 54.0326 214.208 54.1953 213.492 54.1953C212.053 54.1953 210.908 53.7168 210.055 52.7598C209.208 51.7962 208.785 50.4811 208.785 48.8145V48.5117C208.785 47.4831 208.974 46.5684 209.352 45.7676C209.729 44.9668 210.27 44.3451 210.973 43.9023C211.682 43.4596 212.519 43.2383 213.482 43.2383C214.667 43.2383 215.65 43.5931 216.432 44.3027C217.219 45.0124 217.639 45.9336 217.691 47.0664H215.982C215.93 46.3828 215.67 45.8229 215.201 45.3867C214.739 44.944 214.166 44.7227 213.482 44.7227C212.564 44.7227 211.852 45.0547 211.344 45.7188C210.842 46.3763 210.592 47.3301 210.592 48.5801V48.9219C210.592 50.1393 210.842 51.0768 211.344 51.7344C211.845 52.3919 212.561 52.7207 213.492 52.7207Z" fill="white"/>
<path d="M221.529 44.7129C222.33 43.7298 223.372 43.2383 224.654 43.2383C226.887 43.2383 228.014 44.498 228.033 47.0176V54H226.227V47.0078C226.22 46.2461 226.044 45.6829 225.699 45.3184C225.361 44.9538 224.83 44.7715 224.107 44.7715C223.521 44.7715 223.007 44.9277 222.564 45.2402C222.122 45.5527 221.777 45.9629 221.529 46.4707V54H219.723V39H221.529V44.7129Z" fill="white"/>
<path d="M242.223 52.9551C241.52 53.7819 240.488 54.1953 239.127 54.1953C238.001 54.1953 237.141 53.8698 236.549 53.2188C235.963 52.5612 235.667 51.5911 235.66 50.3086V43.4336H237.467V50.2598C237.467 51.8613 238.118 52.6621 239.42 52.6621C240.8 52.6621 241.718 52.1478 242.174 51.1191V43.4336H243.98V54H242.262L242.223 52.9551Z" fill="white"/>
<path d="M255.66 48.834C255.66 50.4421 255.292 51.7376 254.557 52.7207C253.821 53.7038 252.825 54.1953 251.568 54.1953C250.286 54.1953 249.277 53.7884 248.541 52.9746V58.0625H246.734V43.4336H248.385L248.473 44.6055C249.208 43.694 250.23 43.2383 251.539 43.2383C252.809 43.2383 253.811 43.7168 254.547 44.6738C255.289 45.6309 255.66 46.9622 255.66 48.668V48.834ZM253.854 48.6289C253.854 47.4375 253.6 46.4967 253.092 45.8066C252.584 45.1165 251.887 44.7715 251.002 44.7715C249.908 44.7715 249.088 45.2565 248.541 46.2266V51.2754C249.081 52.2389 249.908 52.7207 251.021 52.7207C251.887 52.7207 252.574 52.3789 253.082 51.6953C253.596 51.0052 253.854 49.9831 253.854 48.6289Z" fill="white"/>
<path d="M269.078 51.1973C269.078 50.709 268.893 50.3314 268.521 50.0645C268.157 49.791 267.516 49.5566 266.598 49.3613C265.686 49.166 264.96 48.9316 264.42 48.6582C263.886 48.3848 263.489 48.0592 263.229 47.6816C262.975 47.304 262.848 46.8548 262.848 46.334C262.848 45.4681 263.212 44.7357 263.941 44.1367C264.677 43.5378 265.615 43.2383 266.754 43.2383C267.952 43.2383 268.922 43.5475 269.664 44.166C270.413 44.7845 270.787 45.5755 270.787 46.5391H268.971C268.971 46.0443 268.759 45.6178 268.336 45.2598C267.919 44.9017 267.392 44.7227 266.754 44.7227C266.096 44.7227 265.582 44.8659 265.211 45.1523C264.84 45.4388 264.654 45.8132 264.654 46.2754C264.654 46.7116 264.827 47.0404 265.172 47.2617C265.517 47.4831 266.139 47.6947 267.037 47.8965C267.942 48.0983 268.674 48.3392 269.234 48.6191C269.794 48.8991 270.208 49.2376 270.475 49.6348C270.748 50.0254 270.885 50.5039 270.885 51.0703C270.885 52.0143 270.507 52.7728 269.752 53.3457C268.997 53.9121 268.017 54.1953 266.812 54.1953C265.966 54.1953 265.217 54.0456 264.566 53.7461C263.915 53.4466 263.404 53.0299 263.033 52.4961C262.669 51.9557 262.486 51.373 262.486 50.748H264.293C264.326 51.3535 264.566 51.8353 265.016 52.1934C265.471 52.5449 266.07 52.7207 266.812 52.7207C267.496 52.7207 268.043 52.584 268.453 52.3105C268.87 52.0306 269.078 51.6595 269.078 51.1973Z" fill="white"/>
<path d="M277.623 54.1953C276.191 54.1953 275.025 53.7266 274.127 52.7891C273.229 51.8451 272.779 50.5853 272.779 49.0098V48.6777C272.779 47.6296 272.978 46.6953 273.375 45.875C273.779 45.0482 274.339 44.4036 275.055 43.9414C275.777 43.4727 276.559 43.2383 277.398 43.2383C278.772 43.2383 279.84 43.6908 280.602 44.5957C281.363 45.5007 281.744 46.7962 281.744 48.4824V49.2344H274.586C274.612 50.276 274.915 51.1191 275.494 51.7637C276.08 52.4017 276.822 52.7207 277.721 52.7207C278.359 52.7207 278.899 52.5905 279.342 52.3301C279.785 52.0697 280.172 51.7246 280.504 51.2949L281.607 52.1543C280.722 53.515 279.394 54.1953 277.623 54.1953ZM277.398 44.7227C276.669 44.7227 276.057 44.9896 275.562 45.5234C275.068 46.0508 274.762 46.793 274.645 47.75H279.938V47.6133C279.885 46.6953 279.638 45.9857 279.195 45.4844C278.753 44.9766 278.154 44.7227 277.398 44.7227Z" fill="white"/>
<path d="M289.996 51.1973C289.996 50.709 289.811 50.3314 289.439 50.0645C289.075 49.791 288.434 49.5566 287.516 49.3613C286.604 49.166 285.878 48.9316 285.338 48.6582C284.804 48.3848 284.407 48.0592 284.146 47.6816C283.893 47.304 283.766 46.8548 283.766 46.334C283.766 45.4681 284.13 44.7357 284.859 44.1367C285.595 43.5378 286.533 43.2383 287.672 43.2383C288.87 43.2383 289.84 43.5475 290.582 44.166C291.331 44.7845 291.705 45.5755 291.705 46.5391H289.889C289.889 46.0443 289.677 45.6178 289.254 45.2598C288.837 44.9017 288.31 44.7227 287.672 44.7227C287.014 44.7227 286.5 44.8659 286.129 45.1523C285.758 45.4388 285.572 45.8132 285.572 46.2754C285.572 46.7116 285.745 47.0404 286.09 47.2617C286.435 47.4831 287.057 47.6947 287.955 47.8965C288.86 48.0983 289.592 48.3392 290.152 48.6191C290.712 48.8991 291.126 49.2376 291.393 49.6348C291.666 50.0254 291.803 50.5039 291.803 51.0703C291.803 52.0143 291.425 52.7728 290.67 53.3457C289.915 53.9121 288.935 54.1953 287.73 54.1953C286.884 54.1953 286.135 54.0456 285.484 53.7461C284.833 53.4466 284.322 53.0299 283.951 52.4961C283.587 51.9557 283.404 51.373 283.404 50.748H285.211C285.243 51.3535 285.484 51.8353 285.934 52.1934C286.389 52.5449 286.988 52.7207 287.73 52.7207C288.414 52.7207 288.961 52.584 289.371 52.3105C289.788 52.0306 289.996 51.6595 289.996 51.1973Z" fill="white"/>
<path d="M300.309 51.1973C300.309 50.709 300.123 50.3314 299.752 50.0645C299.387 49.791 298.746 49.5566 297.828 49.3613C296.917 49.166 296.191 48.9316 295.65 48.6582C295.117 48.3848 294.719 48.0592 294.459 47.6816C294.205 47.304 294.078 46.8548 294.078 46.334C294.078 45.4681 294.443 44.7357 295.172 44.1367C295.908 43.5378 296.845 43.2383 297.984 43.2383C299.182 43.2383 300.152 43.5475 300.895 44.166C301.643 44.7845 302.018 45.5755 302.018 46.5391H300.201C300.201 46.0443 299.99 45.6178 299.566 45.2598C299.15 44.9017 298.622 44.7227 297.984 44.7227C297.327 44.7227 296.812 44.8659 296.441 45.1523C296.07 45.4388 295.885 45.8132 295.885 46.2754C295.885 46.7116 296.057 47.0404 296.402 47.2617C296.747 47.4831 297.369 47.6947 298.268 47.8965C299.173 48.0983 299.905 48.3392 300.465 48.6191C301.025 48.8991 301.438 49.2376 301.705 49.6348C301.979 50.0254 302.115 50.5039 302.115 51.0703C302.115 52.0143 301.738 52.7728 300.982 53.3457C300.227 53.9121 299.247 54.1953 298.043 54.1953C297.197 54.1953 296.448 54.0456 295.797 53.7461C295.146 53.4466 294.635 53.0299 294.264 52.4961C293.899 51.9557 293.717 51.373 293.717 50.748H295.523C295.556 51.3535 295.797 51.8353 296.246 52.1934C296.702 52.5449 297.301 52.7207 298.043 52.7207C298.727 52.7207 299.273 52.584 299.684 52.3105C300.1 52.0306 300.309 51.6595 300.309 51.1973Z" fill="white"/>
<path d="M306.432 54H304.625V43.4336H306.432V54ZM304.479 40.6309C304.479 40.3379 304.566 40.0905 304.742 39.8887C304.924 39.6868 305.191 39.5859 305.543 39.5859C305.895 39.5859 306.161 39.6868 306.344 39.8887C306.526 40.0905 306.617 40.3379 306.617 40.6309C306.617 40.9238 306.526 41.168 306.344 41.3633C306.161 41.5586 305.895 41.6562 305.543 41.6562C305.191 41.6562 304.924 41.5586 304.742 41.3633C304.566 41.168 304.479 40.9238 304.479 40.6309Z" fill="white"/>
<path d="M308.854 48.6191C308.854 47.584 309.055 46.653 309.459 45.8262C309.869 44.9993 310.436 44.3613 311.158 43.9121C311.887 43.4629 312.717 43.2383 313.648 43.2383C315.087 43.2383 316.249 43.7363 317.135 44.7324C318.027 45.7285 318.473 47.0534 318.473 48.707V48.834C318.473 49.8626 318.274 50.7871 317.877 51.6074C317.486 52.4212 316.923 53.056 316.188 53.5117C315.458 53.9674 314.618 54.1953 313.668 54.1953C312.236 54.1953 311.074 53.6973 310.182 52.7012C309.296 51.7051 308.854 50.3867 308.854 48.7461V48.6191ZM310.67 48.834C310.67 50.0059 310.94 50.9466 311.48 51.6562C312.027 52.3659 312.757 52.7207 313.668 52.7207C314.586 52.7207 315.315 52.3626 315.855 51.6465C316.396 50.9238 316.666 49.9147 316.666 48.6191C316.666 47.4603 316.389 46.5228 315.836 45.8066C315.289 45.084 314.56 44.7227 313.648 44.7227C312.757 44.7227 312.037 45.0775 311.49 45.7871C310.943 46.4967 310.67 47.5124 310.67 48.834Z" fill="white"/>
<path d="M322.447 43.4336L322.506 44.7617C323.313 43.7461 324.368 43.2383 325.67 43.2383C327.903 43.2383 329.029 44.498 329.049 47.0176V54H327.242V47.0078C327.236 46.2461 327.06 45.6829 326.715 45.3184C326.376 44.9538 325.846 44.7715 325.123 44.7715C324.537 44.7715 324.023 44.9277 323.58 45.2402C323.137 45.5527 322.792 45.9629 322.545 46.4707V54H320.738V43.4336H322.447Z" fill="white"/>
<path d="M337.926 51.1973C337.926 50.709 337.74 50.3314 337.369 50.0645C337.005 49.791 336.363 49.5566 335.445 49.3613C334.534 49.166 333.808 48.9316 333.268 48.6582C332.734 48.3848 332.337 48.0592 332.076 47.6816C331.822 47.304 331.695 46.8548 331.695 46.334C331.695 45.4681 332.06 44.7357 332.789 44.1367C333.525 43.5378 334.462 43.2383 335.602 43.2383C336.799 43.2383 337.77 43.5475 338.512 44.166C339.26 44.7845 339.635 45.5755 339.635 46.5391H337.818C337.818 46.0443 337.607 45.6178 337.184 45.2598C336.767 44.9017 336.24 44.7227 335.602 44.7227C334.944 44.7227 334.43 44.8659 334.059 45.1523C333.688 45.4388 333.502 45.8132 333.502 46.2754C333.502 46.7116 333.674 47.0404 334.02 47.2617C334.365 47.4831 334.986 47.6947 335.885 47.8965C336.79 48.0983 337.522 48.3392 338.082 48.6191C338.642 48.8991 339.055 49.2376 339.322 49.6348C339.596 50.0254 339.732 50.5039 339.732 51.0703C339.732 52.0143 339.355 52.7728 338.6 53.3457C337.844 53.9121 336.865 54.1953 335.66 54.1953C334.814 54.1953 334.065 54.0456 333.414 53.7461C332.763 53.4466 332.252 53.0299 331.881 52.4961C331.516 51.9557 331.334 51.373 331.334 50.748H333.141C333.173 51.3535 333.414 51.8353 333.863 52.1934C334.319 52.5449 334.918 52.7207 335.66 52.7207C336.344 52.7207 336.891 52.584 337.301 52.3105C337.717 52.0306 337.926 51.6595 337.926 51.1973Z" fill="white"/>
<path d="M25.3135 55.3335C25.3135 60.342 24.3724 64.1222 22.4902 66.6743C20.624 69.2104 17.7769 70.4785 13.9487 70.4785C10.1844 70.4785 7.34521 69.2424 5.43115 66.77C3.53304 64.2817 2.56006 60.6051 2.51221 55.7402V49.7109C2.51221 44.7025 3.44531 40.9461 5.31152 38.4419C7.19368 35.9377 10.0568 34.6855 13.9009 34.6855C17.7131 34.6855 20.5522 35.9058 22.4185 38.3462C24.3006 40.7866 25.2656 44.4393 25.3135 49.3042V55.3335ZM19.4995 48.8257C19.4995 45.5558 19.0529 43.1632 18.1597 41.6479C17.2664 40.1167 15.8468 39.3511 13.9009 39.3511C12.0028 39.3511 10.6071 40.0768 9.71387 41.5283C8.82064 42.9639 8.3501 45.2129 8.30225 48.2754V56.1709C8.30225 59.4248 8.75684 61.8493 9.66602 63.4443C10.5752 65.0394 12.0028 65.8369 13.9487 65.8369C15.8149 65.8369 17.1947 65.1032 18.0879 63.6357C18.9811 62.1523 19.4517 59.8395 19.4995 56.6973V48.8257ZM53.8809 70H30.4575V66.0044L42.0615 53.3477C43.7363 51.4814 44.9246 49.9263 45.6265 48.6821C46.3442 47.422 46.7031 46.1619 46.7031 44.9019C46.7031 43.243 46.2326 41.9032 45.2915 40.8823C44.3664 39.8615 43.1143 39.3511 41.5352 39.3511C39.653 39.3511 38.1935 39.9253 37.1567 41.0737C36.12 42.2222 35.6016 43.7933 35.6016 45.7871H29.7876C29.7876 43.6657 30.2661 41.7596 31.2231 40.0688C32.1961 38.3621 33.5758 37.0382 35.3623 36.0972C37.1647 35.1561 39.2383 34.6855 41.583 34.6855C44.9645 34.6855 47.6283 35.5389 49.5742 37.2456C51.5361 38.9364 52.5171 41.2811 52.5171 44.2798C52.5171 46.0184 52.0226 47.8447 51.0337 49.7588C50.0607 51.6569 48.4577 53.8182 46.2246 56.2427L37.707 65.3584H53.8809V70Z" fill="white"/>
<rect x="114" y="69" width="310" height="1" fill="white"/>
</svg>
