<svg width="424" height="107" viewBox="0 0 424 107" fill="none" xmlns="http://www.w3.org/2000/svg">
<path d="M120.865 49.248H117.525V55H115.641V40.7812H120.348C121.949 40.7812 123.18 41.1458 124.039 41.875C124.905 42.6042 125.338 43.6654 125.338 45.0586C125.338 45.944 125.097 46.7155 124.615 47.373C124.14 48.0306 123.476 48.5221 122.623 48.8477L125.963 54.8828V55H123.951L120.865 49.248ZM117.525 47.7148H120.406C121.337 47.7148 122.076 47.474 122.623 46.9922C123.176 46.5104 123.453 45.8659 123.453 45.0586C123.453 44.1797 123.189 43.5059 122.662 43.0371C122.141 42.5684 121.386 42.3307 120.396 42.3242H117.525V47.7148Z" fill="white"/>
<path d="M134.215 53.9551C133.512 54.7819 132.48 55.1953 131.119 55.1953C129.993 55.1953 129.133 54.8698 128.541 54.2188C127.955 53.5612 127.659 52.5911 127.652 51.3086V44.4336H129.459V51.2598C129.459 52.8613 130.11 53.6621 131.412 53.6621C132.792 53.6621 133.71 53.1478 134.166 52.1191V44.4336H135.973V55H134.254L134.215 53.9551Z" fill="white"/>
<path d="M144.879 52.1973C144.879 51.709 144.693 51.3314 144.322 51.0645C143.958 50.791 143.316 50.5566 142.398 50.3613C141.487 50.166 140.761 49.9316 140.221 49.6582C139.687 49.3848 139.29 49.0592 139.029 48.6816C138.775 48.304 138.648 47.8548 138.648 47.334C138.648 46.4681 139.013 45.7357 139.742 45.1367C140.478 44.5378 141.415 44.2383 142.555 44.2383C143.753 44.2383 144.723 44.5475 145.465 45.166C146.214 45.7845 146.588 46.5755 146.588 47.5391H144.771C144.771 47.0443 144.56 46.6178 144.137 46.2598C143.72 45.9017 143.193 45.7227 142.555 45.7227C141.897 45.7227 141.383 45.8659 141.012 46.1523C140.641 46.4388 140.455 46.8132 140.455 47.2754C140.455 47.7116 140.628 48.0404 140.973 48.2617C141.318 48.4831 141.939 48.6947 142.838 48.8965C143.743 49.0983 144.475 49.3392 145.035 49.6191C145.595 49.8991 146.008 50.2376 146.275 50.6348C146.549 51.0254 146.686 51.5039 146.686 52.0703C146.686 53.0143 146.308 53.7728 145.553 54.3457C144.798 54.9121 143.818 55.1953 142.613 55.1953C141.767 55.1953 141.018 55.0456 140.367 54.7461C139.716 54.4466 139.205 54.0299 138.834 53.4961C138.469 52.9557 138.287 52.373 138.287 51.748H140.094C140.126 52.3535 140.367 52.8353 140.816 53.1934C141.272 53.5449 141.871 53.7207 142.613 53.7207C143.297 53.7207 143.844 53.584 144.254 53.3105C144.671 53.0306 144.879 52.6595 144.879 52.1973Z" fill="white"/>
<path d="M155.191 52.1973C155.191 51.709 155.006 51.3314 154.635 51.0645C154.27 50.791 153.629 50.5566 152.711 50.3613C151.799 50.166 151.074 49.9316 150.533 49.6582C149.999 49.3848 149.602 49.0592 149.342 48.6816C149.088 48.304 148.961 47.8548 148.961 47.334C148.961 46.4681 149.326 45.7357 150.055 45.1367C150.79 44.5378 151.728 44.2383 152.867 44.2383C154.065 44.2383 155.035 44.5475 155.777 45.166C156.526 45.7845 156.9 46.5755 156.9 47.5391H155.084C155.084 47.0443 154.872 46.6178 154.449 46.2598C154.033 45.9017 153.505 45.7227 152.867 45.7227C152.21 45.7227 151.695 45.8659 151.324 46.1523C150.953 46.4388 150.768 46.8132 150.768 47.2754C150.768 47.7116 150.94 48.0404 151.285 48.2617C151.63 48.4831 152.252 48.6947 153.15 48.8965C154.055 49.0983 154.788 49.3392 155.348 49.6191C155.908 49.8991 156.321 50.2376 156.588 50.6348C156.861 51.0254 156.998 51.5039 156.998 52.0703C156.998 53.0143 156.62 53.7728 155.865 54.3457C155.11 54.9121 154.13 55.1953 152.926 55.1953C152.079 55.1953 151.331 55.0456 150.68 54.7461C150.029 54.4466 149.518 54.0299 149.146 53.4961C148.782 52.9557 148.6 52.373 148.6 51.748H150.406C150.439 52.3535 150.68 52.8353 151.129 53.1934C151.585 53.5449 152.184 53.7207 152.926 53.7207C153.609 53.7207 154.156 53.584 154.566 53.3105C154.983 53.0306 155.191 52.6595 155.191 52.1973Z" fill="white"/>
<path d="M161.314 55H159.508V44.4336H161.314V55ZM159.361 41.6309C159.361 41.3379 159.449 41.0905 159.625 40.8887C159.807 40.6868 160.074 40.5859 160.426 40.5859C160.777 40.5859 161.044 40.6868 161.227 40.8887C161.409 41.0905 161.5 41.3379 161.5 41.6309C161.5 41.9238 161.409 42.168 161.227 42.3633C161.044 42.5586 160.777 42.6562 160.426 42.6562C160.074 42.6562 159.807 42.5586 159.625 42.3633C159.449 42.168 159.361 41.9238 159.361 41.6309Z" fill="white"/>
<path d="M170.738 55C170.634 54.7917 170.549 54.4206 170.484 53.8867C169.645 54.7591 168.642 55.1953 167.477 55.1953C166.435 55.1953 165.579 54.9023 164.908 54.3164C164.244 53.724 163.912 52.9753 163.912 52.0703C163.912 50.9701 164.329 50.1172 165.162 49.5117C166.002 48.8997 167.18 48.5938 168.697 48.5938H170.455V47.7637C170.455 47.1322 170.266 46.6309 169.889 46.2598C169.511 45.8822 168.954 45.6934 168.219 45.6934C167.574 45.6934 167.034 45.8561 166.598 46.1816C166.161 46.5072 165.943 46.901 165.943 47.3633H164.127C164.127 46.8359 164.312 46.3281 164.684 45.8398C165.061 45.3451 165.569 44.9544 166.207 44.668C166.852 44.3815 167.558 44.2383 168.326 44.2383C169.544 44.2383 170.497 44.5443 171.188 45.1562C171.878 45.7617 172.236 46.5983 172.262 47.666V52.5293C172.262 53.4993 172.385 54.2708 172.633 54.8438V55H170.738ZM167.74 53.623C168.307 53.623 168.844 53.4766 169.352 53.1836C169.859 52.8906 170.227 52.5098 170.455 52.041V49.873H169.039C166.826 49.873 165.719 50.5208 165.719 51.8164C165.719 52.3828 165.908 52.8255 166.285 53.1445C166.663 53.4635 167.148 53.623 167.74 53.623Z" fill="white"/>
<path d="M176.803 44.4336L176.861 45.7617C177.669 44.7461 178.723 44.2383 180.025 44.2383C182.258 44.2383 183.385 45.498 183.404 48.0176V55H181.598V48.0078C181.591 47.2461 181.415 46.6829 181.07 46.3184C180.732 45.9538 180.201 45.7715 179.479 45.7715C178.893 45.7715 178.378 45.9277 177.936 46.2402C177.493 46.5527 177.148 46.9629 176.9 47.4707V55H175.094V44.4336H176.803Z" fill="white"/>
<path d="M201.871 53.1348C201.389 53.8249 200.715 54.3424 199.85 54.6875C198.99 55.026 197.988 55.1953 196.842 55.1953C195.683 55.1953 194.654 54.9251 193.756 54.3848C192.857 53.8379 192.161 53.0632 191.666 52.0605C191.178 51.0579 190.927 49.8958 190.914 48.5742V47.334C190.914 45.1921 191.412 43.5319 192.408 42.3535C193.411 41.1751 194.817 40.5859 196.627 40.5859C198.111 40.5859 199.306 40.9668 200.211 41.7285C201.116 42.4837 201.669 43.5579 201.871 44.9512H199.996C199.645 43.0697 198.525 42.1289 196.637 42.1289C195.38 42.1289 194.426 42.5716 193.775 43.457C193.131 44.3359 192.805 45.612 192.799 47.2852V48.4473C192.799 50.0423 193.163 51.3118 193.893 52.2559C194.622 53.1934 195.608 53.6621 196.852 53.6621C197.555 53.6621 198.17 53.584 198.697 53.4277C199.225 53.2715 199.661 53.0078 200.006 52.6367V49.4434H196.715V47.9199H201.871V53.1348Z" fill="white"/>
<path d="M209.195 48.6621C207.587 48.1999 206.415 47.6335 205.68 46.9629C204.951 46.2858 204.586 45.4525 204.586 44.4629C204.586 43.3431 205.032 42.4186 205.924 41.6895C206.822 40.9538 207.988 40.5859 209.42 40.5859C210.396 40.5859 211.266 40.7747 212.027 41.1523C212.796 41.5299 213.388 42.0508 213.805 42.7148C214.228 43.3789 214.439 44.1048 214.439 44.8926H212.555C212.555 44.0332 212.281 43.3594 211.734 42.8711C211.188 42.3763 210.416 42.1289 209.42 42.1289C208.495 42.1289 207.773 42.334 207.252 42.7441C206.738 43.1478 206.48 43.7109 206.48 44.4336C206.48 45.013 206.725 45.5046 207.213 45.9082C207.708 46.3053 208.544 46.6699 209.723 47.002C210.908 47.334 211.832 47.7018 212.496 48.1055C213.167 48.5026 213.661 48.9681 213.98 49.502C214.306 50.0358 214.469 50.6641 214.469 51.3867C214.469 52.5391 214.02 53.4635 213.121 54.1602C212.223 54.8503 211.021 55.1953 209.518 55.1953C208.541 55.1953 207.63 55.0098 206.783 54.6387C205.937 54.2611 205.283 53.7467 204.82 53.0957C204.365 52.4447 204.137 51.7057 204.137 50.8789H206.021C206.021 51.7383 206.337 52.4186 206.969 52.9199C207.607 53.4147 208.456 53.6621 209.518 53.6621C210.507 53.6621 211.266 53.4603 211.793 53.0566C212.32 52.653 212.584 52.1029 212.584 51.4062C212.584 50.7096 212.34 50.1725 211.852 49.7949C211.363 49.4108 210.478 49.0332 209.195 48.6621Z" fill="white"/>
<path d="M224.918 48.4277H218.756V53.4668H225.914V55H216.881V40.7812H225.816V42.3242H218.756V46.8945H224.918V48.4277Z" fill="white"/>
<path d="M233.287 56.2207H231.734L237.672 40.7812H239.215L233.287 56.2207Z" fill="white"/>
<path d="M248.424 55H246.549V40.7812H248.424V55Z" fill="white"/>
<path d="M251.861 55V40.7812H256.51C258.053 40.7812 259.212 41.1003 259.986 41.7383C260.768 42.3763 261.158 43.3203 261.158 44.5703C261.158 45.2344 260.969 45.8236 260.592 46.3379C260.214 46.8457 259.7 47.2396 259.049 47.5195C259.817 47.7344 260.423 48.1445 260.865 48.75C261.314 49.349 261.539 50.0651 261.539 50.8984C261.539 52.1745 261.126 53.1771 260.299 53.9062C259.472 54.6354 258.303 55 256.793 55H251.861ZM253.736 48.3496V53.4668H256.832C257.704 53.4668 258.391 53.2422 258.893 52.793C259.4 52.3372 259.654 51.7122 259.654 50.918C259.654 49.2057 258.723 48.3496 256.861 48.3496H253.736ZM253.736 46.8457H256.568C257.389 46.8457 258.043 46.6406 258.531 46.2305C259.026 45.8203 259.273 45.2637 259.273 44.5605C259.273 43.7793 259.046 43.2129 258.59 42.8613C258.134 42.5033 257.441 42.3242 256.51 42.3242H253.736V46.8457Z" fill="white"/>
<path d="M273.385 55.1953C271.952 55.1953 270.787 54.7266 269.889 53.7891C268.99 52.8451 268.541 51.5853 268.541 50.0098V49.6777C268.541 48.6296 268.74 47.6953 269.137 46.875C269.54 46.0482 270.1 45.4036 270.816 44.9414C271.539 44.4727 272.32 44.2383 273.16 44.2383C274.534 44.2383 275.602 44.6908 276.363 45.5957C277.125 46.5007 277.506 47.7962 277.506 49.4824V50.2344H270.348C270.374 51.276 270.676 52.1191 271.256 52.7637C271.842 53.4017 272.584 53.7207 273.482 53.7207C274.12 53.7207 274.661 53.5905 275.104 53.3301C275.546 53.0697 275.934 52.7246 276.266 52.2949L277.369 53.1543C276.484 54.515 275.156 55.1953 273.385 55.1953ZM273.16 45.7227C272.431 45.7227 271.819 45.9896 271.324 46.5234C270.829 47.0508 270.523 47.793 270.406 48.75H275.699V48.6133C275.647 47.6953 275.4 46.9857 274.957 46.4844C274.514 45.9766 273.915 45.7227 273.16 45.7227Z" fill="white"/>
<path d="M283.15 48.291L285.494 44.4336H287.604L284.146 49.6582L287.711 55H285.621L283.18 51.0449L280.738 55H278.639L282.203 49.6582L278.746 44.4336H280.836L283.15 48.291Z" fill="white"/>
<path d="M296.051 55C295.947 54.7917 295.862 54.4206 295.797 53.8867C294.957 54.7591 293.954 55.1953 292.789 55.1953C291.747 55.1953 290.891 54.9023 290.221 54.3164C289.557 53.724 289.225 52.9753 289.225 52.0703C289.225 50.9701 289.641 50.1172 290.475 49.5117C291.314 48.8997 292.493 48.5938 294.01 48.5938H295.768V47.7637C295.768 47.1322 295.579 46.6309 295.201 46.2598C294.824 45.8822 294.267 45.6934 293.531 45.6934C292.887 45.6934 292.346 45.8561 291.91 46.1816C291.474 46.5072 291.256 46.901 291.256 47.3633H289.439C289.439 46.8359 289.625 46.3281 289.996 45.8398C290.374 45.3451 290.882 44.9544 291.52 44.668C292.164 44.3815 292.87 44.2383 293.639 44.2383C294.856 44.2383 295.81 44.5443 296.5 45.1562C297.19 45.7617 297.548 46.5983 297.574 47.666V52.5293C297.574 53.4993 297.698 54.2708 297.945 54.8438V55H296.051ZM293.053 53.623C293.619 53.623 294.156 53.4766 294.664 53.1836C295.172 52.8906 295.54 52.5098 295.768 52.041V49.873H294.352C292.138 49.873 291.031 50.5208 291.031 51.8164C291.031 52.3828 291.22 52.8255 291.598 53.1445C291.975 53.4635 292.46 53.623 293.053 53.623Z" fill="white"/>
<path d="M302.105 44.4336L302.154 45.6055C302.929 44.694 303.974 44.2383 305.289 44.2383C306.767 44.2383 307.773 44.8047 308.307 45.9375C308.658 45.4297 309.114 45.0195 309.674 44.707C310.24 44.3945 310.908 44.2383 311.676 44.2383C313.993 44.2383 315.172 45.4655 315.211 47.9199V55H313.404V48.0273C313.404 47.2721 313.232 46.709 312.887 46.3379C312.542 45.9603 311.962 45.7715 311.148 45.7715C310.478 45.7715 309.921 45.9733 309.479 46.377C309.036 46.7741 308.779 47.3112 308.707 47.9883V55H306.891V48.0762C306.891 46.5397 306.139 45.7715 304.635 45.7715C303.45 45.7715 302.639 46.276 302.203 47.2852V55H300.396V44.4336H302.105Z" fill="white"/>
<path d="M331.832 49.834C331.832 51.4421 331.464 52.7376 330.729 53.7207C329.993 54.7038 328.997 55.1953 327.74 55.1953C326.458 55.1953 325.449 54.7884 324.713 53.9746V59.0625H322.906V44.4336H324.557L324.645 45.6055C325.38 44.694 326.402 44.2383 327.711 44.2383C328.98 44.2383 329.983 44.7168 330.719 45.6738C331.461 46.6309 331.832 47.9622 331.832 49.668V49.834ZM330.025 49.6289C330.025 48.4375 329.771 47.4967 329.264 46.8066C328.756 46.1165 328.059 45.7715 327.174 45.7715C326.08 45.7715 325.26 46.2565 324.713 47.2266V52.2754C325.253 53.2389 326.08 53.7207 327.193 53.7207C328.059 53.7207 328.746 53.3789 329.254 52.6953C329.768 52.0052 330.025 50.9831 330.025 49.6289Z" fill="white"/>
<path d="M339.244 46.0547C338.971 46.0091 338.674 45.9863 338.355 45.9863C337.171 45.9863 336.367 46.4909 335.943 47.5V55H334.137V44.4336H335.895L335.924 45.6543C336.516 44.7103 337.356 44.2383 338.443 44.2383C338.795 44.2383 339.062 44.2839 339.244 44.375V46.0547Z" fill="white"/>
<path d="M345.104 55.1953C343.671 55.1953 342.506 54.7266 341.607 53.7891C340.709 52.8451 340.26 51.5853 340.26 50.0098V49.6777C340.26 48.6296 340.458 47.6953 340.855 46.875C341.259 46.0482 341.819 45.4036 342.535 44.9414C343.258 44.4727 344.039 44.2383 344.879 44.2383C346.253 44.2383 347.32 44.6908 348.082 45.5957C348.844 46.5007 349.225 47.7962 349.225 49.4824V50.2344H342.066C342.092 51.276 342.395 52.1191 342.975 52.7637C343.561 53.4017 344.303 53.7207 345.201 53.7207C345.839 53.7207 346.38 53.5905 346.822 53.3301C347.265 53.0697 347.652 52.7246 347.984 52.2949L349.088 53.1543C348.202 54.515 346.874 55.1953 345.104 55.1953ZM344.879 45.7227C344.15 45.7227 343.538 45.9896 343.043 46.5234C342.548 47.0508 342.242 47.793 342.125 48.75H347.418V48.6133C347.366 47.6953 347.118 46.9857 346.676 46.4844C346.233 45.9766 345.634 45.7227 344.879 45.7227Z" fill="white"/>
<path d="M360.25 49.834C360.25 51.4421 359.882 52.7376 359.146 53.7207C358.411 54.7038 357.415 55.1953 356.158 55.1953C354.876 55.1953 353.867 54.7884 353.131 53.9746V59.0625H351.324V44.4336H352.975L353.062 45.6055C353.798 44.694 354.82 44.2383 356.129 44.2383C357.398 44.2383 358.401 44.7168 359.137 45.6738C359.879 46.6309 360.25 47.9622 360.25 49.668V49.834ZM358.443 49.6289C358.443 48.4375 358.189 47.4967 357.682 46.8066C357.174 46.1165 356.477 45.7715 355.592 45.7715C354.498 45.7715 353.678 46.2565 353.131 47.2266V52.2754C353.671 53.2389 354.498 53.7207 355.611 53.7207C356.477 53.7207 357.164 53.3789 357.672 52.6953C358.186 52.0052 358.443 50.9831 358.443 49.6289Z" fill="white"/>
<path d="M369.078 55C368.974 54.7917 368.889 54.4206 368.824 53.8867C367.984 54.7591 366.982 55.1953 365.816 55.1953C364.775 55.1953 363.919 54.9023 363.248 54.3164C362.584 53.724 362.252 52.9753 362.252 52.0703C362.252 50.9701 362.669 50.1172 363.502 49.5117C364.342 48.8997 365.52 48.5938 367.037 48.5938H368.795V47.7637C368.795 47.1322 368.606 46.6309 368.229 46.2598C367.851 45.8822 367.294 45.6934 366.559 45.6934C365.914 45.6934 365.374 45.8561 364.938 46.1816C364.501 46.5072 364.283 46.901 364.283 47.3633H362.467C362.467 46.8359 362.652 46.3281 363.023 45.8398C363.401 45.3451 363.909 44.9544 364.547 44.668C365.191 44.3815 365.898 44.2383 366.666 44.2383C367.883 44.2383 368.837 44.5443 369.527 45.1562C370.217 45.7617 370.576 46.5983 370.602 47.666V52.5293C370.602 53.4993 370.725 54.2708 370.973 54.8438V55H369.078ZM366.08 53.623C366.646 53.623 367.184 53.4766 367.691 53.1836C368.199 52.8906 368.567 52.5098 368.795 52.041V49.873H367.379C365.165 49.873 364.059 50.5208 364.059 51.8164C364.059 52.3828 364.247 52.8255 364.625 53.1445C365.003 53.4635 365.488 53.623 366.08 53.623Z" fill="white"/>
<path d="M378.541 46.0547C378.268 46.0091 377.971 45.9863 377.652 45.9863C376.467 45.9863 375.663 46.4909 375.24 47.5V55H373.434V44.4336H375.191L375.221 45.6543C375.813 44.7103 376.653 44.2383 377.74 44.2383C378.092 44.2383 378.359 44.2839 378.541 44.375V46.0547Z" fill="white"/>
<path d="M386.344 55C386.24 54.7917 386.155 54.4206 386.09 53.8867C385.25 54.7591 384.247 55.1953 383.082 55.1953C382.04 55.1953 381.184 54.9023 380.514 54.3164C379.85 53.724 379.518 52.9753 379.518 52.0703C379.518 50.9701 379.934 50.1172 380.768 49.5117C381.607 48.8997 382.786 48.5938 384.303 48.5938H386.061V47.7637C386.061 47.1322 385.872 46.6309 385.494 46.2598C385.117 45.8822 384.56 45.6934 383.824 45.6934C383.18 45.6934 382.639 45.8561 382.203 46.1816C381.767 46.5072 381.549 46.901 381.549 47.3633H379.732C379.732 46.8359 379.918 46.3281 380.289 45.8398C380.667 45.3451 381.174 44.9544 381.812 44.668C382.457 44.3815 383.163 44.2383 383.932 44.2383C385.149 44.2383 386.103 44.5443 386.793 45.1562C387.483 45.7617 387.841 46.5983 387.867 47.666V52.5293C387.867 53.4993 387.991 54.2708 388.238 54.8438V55H386.344ZM383.346 53.623C383.912 53.623 384.449 53.4766 384.957 53.1836C385.465 52.8906 385.833 52.5098 386.061 52.041V49.873H384.645C382.431 49.873 381.324 50.5208 381.324 51.8164C381.324 52.3828 381.513 52.8255 381.891 53.1445C382.268 53.4635 382.753 53.623 383.346 53.623Z" fill="white"/>
<path d="M393.15 41.875V44.4336H395.123V45.8301H393.15V52.3828C393.15 52.806 393.238 53.125 393.414 53.3398C393.59 53.5482 393.889 53.6523 394.312 53.6523C394.521 53.6523 394.807 53.6133 395.172 53.5352V55C394.697 55.1302 394.234 55.1953 393.785 55.1953C392.978 55.1953 392.369 54.9512 391.959 54.4629C391.549 53.9746 391.344 53.2812 391.344 52.3828V45.8301H389.42V44.4336H391.344V41.875H393.15Z" fill="white"/>
<path d="M399.205 55H397.398V44.4336H399.205V55ZM397.252 41.6309C397.252 41.3379 397.34 41.0905 397.516 40.8887C397.698 40.6868 397.965 40.5859 398.316 40.5859C398.668 40.5859 398.935 40.6868 399.117 40.8887C399.299 41.0905 399.391 41.3379 399.391 41.6309C399.391 41.9238 399.299 42.168 399.117 42.3633C398.935 42.5586 398.668 42.6562 398.316 42.6562C397.965 42.6562 397.698 42.5586 397.516 42.3633C397.34 42.168 397.252 41.9238 397.252 41.6309Z" fill="white"/>
<path d="M401.627 49.6191C401.627 48.584 401.829 47.653 402.232 46.8262C402.643 45.9993 403.209 45.3613 403.932 44.9121C404.661 44.4629 405.491 44.2383 406.422 44.2383C407.861 44.2383 409.023 44.7363 409.908 45.7324C410.8 46.7285 411.246 48.0534 411.246 49.707V49.834C411.246 50.8626 411.048 51.7871 410.65 52.6074C410.26 53.4212 409.697 54.056 408.961 54.5117C408.232 54.9674 407.392 55.1953 406.441 55.1953C405.009 55.1953 403.847 54.6973 402.955 53.7012C402.07 52.7051 401.627 51.3867 401.627 49.7461V49.6191ZM403.443 49.834C403.443 51.0059 403.714 51.9466 404.254 52.6562C404.801 53.3659 405.53 53.7207 406.441 53.7207C407.359 53.7207 408.089 53.3626 408.629 52.6465C409.169 51.9238 409.439 50.9147 409.439 49.6191C409.439 48.4603 409.163 47.5228 408.609 46.8066C408.062 46.084 407.333 45.7227 406.422 45.7227C405.53 45.7227 404.811 46.0775 404.264 46.7871C403.717 47.4967 403.443 48.5124 403.443 49.834Z" fill="white"/>
<path d="M415.221 44.4336L415.279 45.7617C416.087 44.7461 417.141 44.2383 418.443 44.2383C420.676 44.2383 421.803 45.498 421.822 48.0176V55H420.016V48.0078C420.009 47.2461 419.833 46.6829 419.488 46.3184C419.15 45.9538 418.619 45.7715 417.896 45.7715C417.311 45.7715 416.796 45.9277 416.354 46.2402C415.911 46.5527 415.566 46.9629 415.318 47.4707V55H413.512V44.4336H415.221Z" fill="white"/>
<path d="M25.3135 55.3335C25.3135 60.342 24.3724 64.1222 22.4902 66.6743C20.624 69.2104 17.7769 70.4785 13.9487 70.4785C10.1844 70.4785 7.34521 69.2424 5.43115 66.77C3.53304 64.2817 2.56006 60.6051 2.51221 55.7402V49.7109C2.51221 44.7025 3.44531 40.9461 5.31152 38.4419C7.19368 35.9377 10.0568 34.6855 13.9009 34.6855C17.7131 34.6855 20.5522 35.9058 22.4185 38.3462C24.3006 40.7866 25.2656 44.4393 25.3135 49.3042V55.3335ZM19.4995 48.8257C19.4995 45.5558 19.0529 43.1632 18.1597 41.6479C17.2664 40.1167 15.8468 39.3511 13.9009 39.3511C12.0028 39.3511 10.6071 40.0768 9.71387 41.5283C8.82064 42.9639 8.3501 45.2129 8.30225 48.2754V56.1709C8.30225 59.4248 8.75684 61.8493 9.66602 63.4443C10.5752 65.0394 12.0028 65.8369 13.9487 65.8369C15.8149 65.8369 17.1947 65.1032 18.0879 63.6357C18.9811 62.1523 19.4517 59.8395 19.4995 56.6973V48.8257ZM37.1807 49.9263H40.7217C42.5081 49.9103 43.9198 49.4478 44.9565 48.5386C46.0093 47.6294 46.5356 46.3135 46.5356 44.5908C46.5356 42.932 46.097 41.6479 45.2197 40.7388C44.3584 39.8136 43.0345 39.3511 41.248 39.3511C39.6849 39.3511 38.4009 39.8057 37.396 40.7148C36.3911 41.6081 35.8887 42.7804 35.8887 44.2319H30.0747C30.0747 42.4455 30.5452 40.8185 31.4863 39.3511C32.4434 37.8836 33.7673 36.7432 35.458 35.9297C37.1647 35.1003 39.0708 34.6855 41.1763 34.6855C44.6535 34.6855 47.381 35.5628 49.3589 37.3174C51.3527 39.056 52.3496 41.4805 52.3496 44.5908C52.3496 46.154 51.8472 47.6294 50.8423 49.0171C49.8534 50.3888 48.5693 51.4256 46.9902 52.1274C48.9043 52.7814 50.3558 53.8102 51.3447 55.2139C52.3496 56.6175 52.8521 58.2923 52.8521 60.2383C52.8521 63.3646 51.7754 65.8529 49.6221 67.7031C47.4847 69.5534 44.6694 70.4785 41.1763 70.4785C37.8267 70.4785 35.0832 69.5853 32.9458 67.7988C30.8084 66.0124 29.7397 63.6357 29.7397 60.6689H35.5537C35.5537 62.2002 36.0641 63.4443 37.085 64.4014C38.1217 65.3584 39.5094 65.8369 41.248 65.8369C43.0505 65.8369 44.4701 65.3584 45.5068 64.4014C46.5436 63.4443 47.062 62.0566 47.062 60.2383C47.062 58.404 46.5197 56.9924 45.4351 56.0034C44.3504 55.0145 42.7394 54.52 40.6021 54.52H37.1807V49.9263Z" fill="white"/>
<rect x="114" y="68" width="310" height="1" fill="white"/>
</svg>
