<?xml version="1.0" encoding="UTF-8"?>
<svg width="46px" height="58px" viewBox="0 0 46 58" version="1.1" xmlns="http://www.w3.org/2000/svg" xmlns:xlink="http://www.w3.org/1999/xlink">
    <!-- Generator: Sketch 41.2 (35397) - http://www.bohemiancoding.com/sketch -->
    <title>Shape</title>
    <desc>Created with Sketch.</desc>
    <defs></defs>
    <g id="Page-1" stroke="none" stroke-width="1" fill="none" fill-rule="evenodd">
        <g id="headway_ielts_toefl_desktop" transform="translate(-620.000000, -862.000000)" fill="#524D7A">
            <path d="M665.550856,877.79789 C665.543693,877.743297 665.534142,877.695824 665.519816,877.641231 C665.464897,877.441846 665.37655,877.25433 665.235673,877.109538 C665.235673,877.109538 665.235673,877.107165 665.233285,877.107165 C664.01553,875.896615 663.256224,873.496879 663.251449,870.840791 C663.244286,868.177582 664.003591,865.765978 665.233285,864.54356 C665.572346,864.204132 665.67502,863.693802 665.491162,863.249934 C665.307305,862.806066 664.870346,862.516484 664.38802,862.516484 L627.90552,862.516484 C623.808133,862.516484 620.214563,865.844308 620.214563,869.637363 L620.214563,872.010989 L620.214563,912.362637 C620.214563,916.488 622.948542,919.483516 626.711643,919.483516 L664.38802,919.483516 C665.04704,919.483516 665.581897,918.951824 665.581897,918.296703 L665.581897,877.945055 C665.581897,877.892835 665.55802,877.847736 665.550856,877.79789 Z M634.54109,872.010989 L646.479862,872.010989 L646.479862,896.442725 L641.353353,891.348923 C640.887741,890.886066 640.130823,890.886066 639.665211,891.348923 L634.54109,896.442725 L634.54109,872.010989 Z M648.867616,872.010989 L660.925776,872.010989 C661.05949,873.784088 661.465408,875.424264 662.124429,876.758242 L648.867616,876.758242 L648.867616,872.010989 Z M622.602317,869.637363 C622.602317,867.152176 625.130949,864.89011 627.90552,864.89011 L662.122041,864.89011 C661.460633,866.224088 661.054715,867.866637 660.923388,869.637363 L627.377826,869.637363 C626.718806,869.637363 626.183949,870.169055 626.183949,870.824176 C626.183949,871.479297 626.718806,872.010989 627.377826,872.010989 L632.153335,872.010989 L632.153335,876.758242 L627.90552,876.758242 C625.130949,876.758242 622.602317,874.496176 622.602317,872.010989 L622.602317,869.637363 Z M626.711643,917.10989 C623.872603,917.10989 622.602317,914.726769 622.602317,912.362637 L622.602317,877.054945 C624.006317,878.322462 625.892643,879.131868 627.90552,879.131868 L632.153335,879.131868 L632.153335,899.307692 C632.153335,899.787165 632.444641,900.221538 632.891151,900.404308 C633.335274,900.591824 633.851029,900.489758 634.192477,900.147956 L640.510476,893.867341 L646.828474,900.147956 C647.057698,900.373451 647.363331,900.494505 647.673739,900.494505 C647.826555,900.494505 647.984147,900.466022 648.1298,900.404308 C648.57631,900.221538 648.867616,899.787165 648.867616,899.307692 L648.867616,879.131868 L663.194143,879.131868 L663.194143,917.10989 L626.711643,917.10989 Z" id="Shape"></path>
        </g>
    </g>
</svg>