<?xml version="1.0" encoding="UTF-8"?>
<svg width="126px" height="119px" viewBox="0 0 126 119" version="1.1" xmlns="http://www.w3.org/2000/svg" xmlns:xlink="http://www.w3.org/1999/xlink">
    <!-- Generator: Sketch 41.2 (35397) - http://www.bohemiancoding.com/sketch -->
    <title>Group 19</title>
    <desc>Created with Sketch.</desc>
    <defs></defs>
    <g id="Page-1" stroke="none" stroke-width="1" fill="none" fill-rule="evenodd">
        <g id="Group-19">
            <g id="lock-user">
                <g id="Layer_1">
                    <g id="Group">
                        <path d="M47.684,8.67533333 C48.126,8.66666667 48.5636667,8.53233333 48.9233333,8.26366667 C53.7636667,4.80133333 58.955,4.33766667 63.3923333,4.33766667 C69.4806667,4.33766667 73.7836667,6.19233333 76.18,9.854 C79.0616667,14.2523333 77.818,16.5273333 76.4616667,17.9703333 L74.295,20.137 C73.9136667,20.5183333 73.6883333,21.0253333 73.6623333,21.5626667 L73.1336667,32.409 C73.1076667,32.9983333 73.32,33.5703333 73.723,33.9993333 C74.126,34.424 74.685,34.671 75.2743333,34.6796667 C75.9026667,34.6883333 76.4746667,34.9526667 76.8863333,35.4206667 C77.298,35.893 77.48,36.4866667 77.402,37.1063333 L76.3186667,45.773 C76.1843333,46.8563333 75.257,47.671 73.957,47.671 C72.904,47.671 72.0026667,48.4293333 71.8206667,49.4693333 C71.3916667,51.9523333 69.615,55.159 69.5976667,55.1936667 C69.017,56.2423333 69.394,57.5596667 70.4383333,58.1403333 C71.4913333,58.7296667 72.8043333,58.344 73.385,57.304 C73.4586667,57.1696667 74.9103333,54.5523333 75.712,51.818 C78.273,51.1896667 80.2793333,49.0316667 80.6173333,46.3146667 L81.7006667,37.648 C81.9303333,35.8106667 81.367,33.9646667 80.1536667,32.5736667 C79.443,31.7633333 78.546,31.1436667 77.5536667,30.771 L77.9523333,22.607 L79.573,20.9863333 C82.0126667,18.395 84.0363333,13.9403333 79.807,7.47933333 C76.557,2.51766667 71.0363333,0 63.3923333,0 C60.3806667,0 53.4343333,0 46.969,4.342 C28.509,4.732 25.9956667,13.3033333 25.9956667,21.6666667 C25.9956667,23.6123333 26.4723333,27.9933333 26.78,30.6323333 C25.6706667,30.992 24.6566667,31.642 23.868,32.5346667 C22.633,33.9343333 22.061,35.7933333 22.2906667,37.648 L23.374,46.3146667 C23.7293333,49.1356667 25.8786667,51.3543333 28.587,51.883 C29.484,57.8456667 32.37,63.6913333 36.556,68.016 L35.048,74.0566667 L18.447,78.208 C7.58333333,80.9206667 0,90.636 0,101.833333 C0,102.409667 0.225333333,102.964333 0.632666667,103.367333 C1.04,103.770333 1.59466667,104 2.16666667,104 L58.4913333,103.922 C59.6916667,103.922 60.658,102.947 60.658,101.751 C60.658,100.559333 59.6873333,99.5886667 58.4913333,99.5886667 L4.44166667,99.6666667 C5.33433333,91.403 11.271,84.474 19.4913333,82.42 L37.3533333,77.9523333 C38.1246667,77.7573333 38.7356667,77.155 38.9263333,76.375 L41.0496667,67.8773333 C41.2446667,67.119 41.002,66.3086667 40.43,65.7713333 C36.0533333,61.672 33.1586667,55.653 32.682,49.6773333 C32.591,48.5506667 31.6506667,47.684 30.5196667,47.684 L29.8133333,47.684 C28.7256667,47.684 27.7983333,46.8693333 27.664,45.786 L26.5806667,37.1193333 C26.5026667,36.491 26.689,35.8843333 27.1093333,35.412 C27.5296667,34.9396667 28.1016667,34.6796667 28.7343333,34.6796667 L29.185,34.6796667 C29.809,34.6796667 30.3983333,34.411 30.81,33.9473333 C31.2216667,33.4706667 31.4123333,32.8596667 31.3343333,32.24 C31.057,30.017 30.329,23.79 30.329,21.6753333 C30.329,14.9153333 31.655,8.83566667 47.684,8.67533333 Z" id="Shape" fill="#999999"></path>
                        <path d="M96,115.25 C81.5025,115.25 69.75,103.49375 69.75,89 C69.75,74.50625 81.5025,62.75 96,62.75 C110.4975,62.75 122.25,74.50625 122.25,89 C122.25,103.49375 110.4975,115.25 96,115.25 L96,115.25 Z M96,59 C79.430625,59 66,72.425 66,89 C66,105.575 79.430625,119 96,119 C112.569375,119 126,105.575 126,89 C126,72.425 112.569375,59 96,59 L96,59 Z M107.25,87.125 L97.875,87.125 L97.875,77.75 C97.875,76.71875 97.036875,75.875 96,75.875 C94.963125,75.875 94.125,76.71875 94.125,77.75 L94.125,87.125 L84.75,87.125 C83.713125,87.125 82.875,87.96875 82.875,89 C82.875,90.03125 83.713125,90.875 84.75,90.875 L94.125,90.875 L94.125,100.25 C94.125,101.28125 94.963125,102.125 96,102.125 C97.036875,102.125 97.875,101.28125 97.875,100.25 L97.875,90.875 L107.25,90.875 C108.286875,90.875 109.125,90.03125 109.125,89 C109.125,87.96875 108.286875,87.125 107.25,87.125 L107.25,87.125 Z" id="plus-circle" fill="#FFC100"></path>
                    </g>
                </g>
            </g>
        </g>
    </g>
</svg>