<?xml version="1.0" encoding="UTF-8"?>
<svg width="30px" height="30px" viewBox="0 0 30 30" version="1.1" xmlns="http://www.w3.org/2000/svg" xmlns:xlink="http://www.w3.org/1999/xlink">
    <!-- Generator: Sketch 41.2 (35397) - http://www.bohemiancoding.com/sketch -->
    <title>Stroke 2472 + Stroke 2473</title>
    <desc>Created with Sketch.</desc>
    <defs></defs>
    <g id="Page-1" stroke="none" stroke-width="1" fill="none" fill-rule="evenodd" stroke-linejoin="round">
        <g id="headway_ielts_toefl_desktop" transform="translate(-937.000000, -4083.000000)" stroke="#FFFFFF">
            <g id="Stroke-2472-+-Stroke-2473" transform="translate(937.000000, 4083.000000)">
                <path d="M12.4785,18.7827 C12.4785,18.7827 10.5865,18.1527 10.5865,14.9997 C9.5455,14.9997 9.5455,12.4787 10.5865,12.4787 C10.5865,12.0557 8.6955,7.4347 11.8475,8.0657 C12.4785,5.5437 19.4135,5.5437 20.0435,8.0657 C20.4805,9.8147 19.4135,12.1687 19.4135,12.4787 C20.4545,12.4787 20.4545,14.9997 19.4135,14.9997 C19.4135,18.1527 17.5215,18.7827 17.5215,18.7827 L17.5215,21.9347 C20.6455,23.1057 23.7375,24.0747 25.3205,25.1817 C27.9045,22.5637 29.5005,18.9687 29.5005,14.9997 C29.5005,6.9907 23.0075,0.4997 15.0005,0.4997 C6.9915,0.4997 0.5005,6.9907 0.5005,14.9997 C0.5005,18.9757 2.1015,22.5767 4.6925,25.1967 C6.3695,24.0367 9.6755,22.9937 12.4785,21.9347 L12.4785,18.7827 L12.4785,18.7827 Z" id="Stroke-2472"></path>
                <path d="M4.6924,25.1963 C7.3214,27.8533 10.9674,29.5003 15.0004,29.5003 C19.0394,29.5003 22.6914,27.8463 25.3204,25.1813" id="Stroke-2473"></path>
            </g>
        </g>
    </g>
</svg>