<?xml version="1.0" encoding="UTF-8"?>
<svg width="30px" height="27px" viewBox="0 0 30 27" version="1.1" xmlns="http://www.w3.org/2000/svg" xmlns:xlink="http://www.w3.org/1999/xlink">
    <!-- Generator: Sketch 41.2 (35397) - http://www.bohemiancoding.com/sketch -->
    <title>Stroke 2470 + Stroke 2471</title>
    <desc>Created with Sketch.</desc>
    <defs></defs>
    <g id="Page-1" stroke="none" stroke-width="1" fill="none" fill-rule="evenodd" stroke-linejoin="round">
        <g id="headway_ielts_toefl_desktop" transform="translate(-622.000000, -4085.000000)" stroke="#FFFFFF">
            <g id="Group-14-Copy-3" transform="translate(496.000000, 4053.000000)">
                <g id="Stroke-2470-+-Stroke-2471" transform="translate(126.000000, 33.000000)">
                    <path d="M11.8442,25.5 L23.1962,25.5 C23.1962,25.5 23.1962,21.297 22.5982,19.496 C22.0772,17.926 18.4462,16.987 14.5002,15.5 L14.5002,12.5 C14.5002,12.5 16.2612,11.48 16.2612,8.479 C17.2472,8.479 17.2472,5.957 16.2612,5.957 C16.2612,5.661 17.3062,3.84 16.8912,2.174 C16.2942,-0.228 9.2922,-0.228 8.6962,2.174 C5.7092,1.573 7.4342,5.554 7.4342,5.957 C6.4472,5.957 6.4472,8.479 7.4342,8.479 C7.4342,11.48 9.5002,12.5 9.5002,12.5 L9.5002,15.5 C5.9962,16.831 1.6172,17.926 1.0972,19.496 C0.5002,21.297 0.5002,25.5 0.5002,25.5 L11.8442,25.5 L11.8442,25.5 Z" id="Stroke-2470"></path>
                    <path d="M26.9785,25.5 L29.5005,25.5 C29.5005,25.5 29.5005,21.297 28.9025,19.496 C28.3815,17.926 24.4465,16.487 20.5005,15 L20.5005,13 C20.5005,13 22.5655,12.11 22.5655,9.108 C23.5515,9.108 23.5515,6.587 22.5655,6.587 C22.5655,6.292 23.6095,4.239 23.1955,2.572 C22.9165,1.449 20.6735,-0.348 18.7825,0.913" id="Stroke-2471" stroke-linecap="round"></path>
                </g>
            </g>
        </g>
    </g>
</svg>