<?xml version="1.0" encoding="UTF-8"?>
<svg width="76px" height="75px" viewBox="0 0 76 75" version="1.1" xmlns="http://www.w3.org/2000/svg" xmlns:xlink="http://www.w3.org/1999/xlink">
    <!-- Generator: Sketch 46.2 (44496) - http://www.bohemiancoding.com/sketch -->
    <title>Group</title>
    <desc>Created with Sketch.</desc>
    <defs></defs>
    <g id="Page-1" stroke="none" stroke-width="1" fill="none" fill-rule="evenodd">
        <g id="Artboard" transform="translate(-835.000000, -1338.000000)" stroke="#142A38" stroke-width="2" fill="#142A38" fill-rule="nonzero">
            <g id="Group-7-Copy" transform="translate(836.000000, 1279.000000)">
                <g id="Group" transform="translate(0.000000, 60.000000)">
                    <path d="M71.5224073,59.8454688 L39.10361,31.2420115 C39.10361,30.7831325 39.2572536,30.4772132 39.2572536,30.0183342 C39.2572536,28.1828182 38.6426793,26.5002619 37.5671741,25.1236249 C38.1817485,24.2058669 38.7963229,23.288109 39.2572536,22.370351 C40.0254716,22.82923 40.9473331,23.1351493 41.8691946,23.1351493 C43.0983433,23.1351493 44.3274921,22.6762703 45.09571,21.7585123 L45.4029972,21.452593 C46.3248587,20.534835 46.7857895,19.4641173 46.7857895,18.24044 C46.7857895,17.0167627 46.3248587,15.7930854 45.4029972,15.0282871 L31.5750742,1.26191723 C29.8849947,-0.420639078 26.8121229,-0.420639078 25.1220434,1.26191723 L24.8147563,1.56783656 C23.2783204,3.09743321 23.1246768,5.69774751 24.3538255,7.38030382 C21.2809537,9.06286014 18.2080819,11.3572551 15.4424974,14.1105291 C12.6769128,16.863803 10.3722589,19.9229963 8.52853585,22.9821896 C6.68481279,21.7585123 4.22651537,21.911472 2.69007948,23.4410686 L2.3827923,23.746988 C1.46093077,24.6647459 1,25.7354636 1,26.9591409 C1,28.1828182 1.46093077,29.4064955 2.3827923,30.1712939 L16.2107153,43.9376637 C17.1325768,44.8554217 18.2080819,45.3143007 19.4372307,45.3143007 C20.6663794,45.3143007 21.8955281,44.8554217 22.663746,43.9376637 L22.9710332,43.6317444 C23.8928947,42.7139864 24.3538255,41.6432687 24.3538255,40.4195914 C24.3538255,39.5018334 24.0465383,38.5840754 23.5856076,37.8192771 C24.5074691,37.3603981 25.4293306,36.7485595 26.3511922,36.1367208 C27.7339845,37.2074384 29.4240639,37.8192771 31.267787,37.8192771 C31.7287178,37.8192771 32.0360049,37.8192771 32.4969357,37.6663174 L60.9209996,70.3996857 C62.3037919,71.9292823 64.3011586,72.8470403 66.2985253,73 C66.2985253,73 66.4521688,73 66.4521688,73 C68.4495355,73 70.4469022,72.2352017 71.8296945,70.8585647 C73.3661303,69.328968 74.1343483,67.3404924 73.9807047,65.3520168 C74.1343483,63.2105815 73.2124868,61.2221058 71.5224073,59.8454688 Z M26.9657665,3.86223153 L27.2730537,3.55631221 C27.5803409,3.25039288 27.887628,3.09743321 28.3485588,3.09743321 C28.8094896,3.09743321 29.1167768,3.25039288 29.4240639,3.55631221 L43.2519869,17.322682 C43.5592741,17.6286014 43.7129177,17.9345207 43.7129177,18.3933997 C43.7129177,18.8522787 43.5592741,19.158198 43.2519869,19.4641173 L42.9446998,19.7700367 C42.3301254,20.3818753 41.4082639,20.3818753 40.7936895,19.7700367 L26.9657665,6.00366684 C26.3511922,5.39182818 26.3511922,4.47407019 26.9657665,3.86223153 Z M17.439864,16.5578837 C20.2054486,13.8046097 23.2783204,11.5102148 26.3511922,9.82765846 L31.5750742,15.0282871 L36.7989562,20.2289157 C35.2625203,23.288109 32.9578665,26.3473023 30.0386383,29.1005762 C27.2730537,31.8538502 24.2001819,34.1482452 20.9736665,35.8308015 L16.0570717,30.6301729 L10.8331897,25.4295443 C12.3696256,22.370351 14.6742794,19.3111577 17.439864,16.5578837 Z M20.6663794,41.9491881 L20.3590922,42.2551074 C19.7445178,42.866946 18.8226563,42.866946 18.2080819,42.2551074 L4.38015895,28.4887376 C4.07287178,28.1828182 3.91922819,27.8768989 3.91922819,27.4180199 C3.91922819,26.9591409 4.07287178,26.6532216 4.38015895,26.3473023 L4.68744613,26.0413829 C4.99473331,25.7354636 5.30202049,25.5825039 5.76295125,25.5825039 C6.22388202,25.5825039 6.5311692,25.7354636 6.83845638,26.0413829 L20.6663794,39.8077528 C20.9736665,40.1136721 21.1273101,40.4195914 21.1273101,40.8784704 C21.1273101,41.1843897 20.9736665,41.6432687 20.6663794,41.9491881 Z M28.8094896,34.6071241 C30.0386383,33.6893662 31.267787,32.6186485 32.3432921,31.3949712 C33.4187972,30.3242535 34.4943024,29.1005762 35.5698075,27.8768989 C35.8770947,28.6416972 36.1843818,29.4064955 36.1843818,30.1712939 C36.1843818,31.5479309 35.7234511,32.7716082 34.647946,33.6893662 C33.1115101,35.2189628 30.6532126,35.5248821 28.8094896,34.6071241 Z M69.6786842,68.5641697 C68.7568227,69.4819277 67.6813176,69.9408067 66.4521688,69.787847 C65.2230201,69.787847 63.9938714,69.1760084 63.2256535,68.2582504 L35.4161639,36.9015191 C35.8770947,36.5955998 36.491669,36.1367208 36.9525998,35.8308015 C37.4135306,35.3719225 37.7208177,34.9130435 38.0281049,34.3012048 L69.5250406,62.1398638 C70.4469022,62.9046621 71.0614765,64.1283394 71.0614765,65.3520168 C71.0614765,66.5756941 70.6005457,67.6464117 69.6786842,68.5641697 Z" id="Shape"></path>
                    <path d="M34.7878788,60 L6.36742424,60 C2.79545455,60 0,62.7529412 0,66.2705882 L0,71.4705882 C0,72.3882353 0.621212121,73 1.5530303,73 L39.4469697,73 C40.3787879,73 41,72.3882353 41,71.4705882 L41,66.2705882 C41,62.7529412 38.2045455,60 34.7878788,60 Z M37.8939394,69.9411765 L3.10606061,69.9411765 L3.10606061,66.2705882 C3.10606061,64.4352941 4.50378788,63.0588235 6.36742424,63.0588235 L34.7878788,63.0588235 C36.6515152,63.0588235 38.0492424,64.4352941 38.0492424,66.2705882 L38.0492424,69.9411765 L37.8939394,69.9411765 Z" id="Shape"></path>
                </g>
            </g>
        </g>
    </g>
</svg>