<?xml version="1.0" encoding="UTF-8"?>
<!DOCTYPE svg PUBLIC "-//W3C//DTD SVG 1.1//EN" "http://www.w3.org/Graphics/SVG/1.1/DTD/svg11.dtd">
<!-- Creator: CorelDRAW X8 -->
<svg xmlns="http://www.w3.org/2000/svg" xml:space="preserve" width="20px" height="20px" version="1.1" shape-rendering="geometricPrecision" text-rendering="geometricPrecision" image-rendering="optimizeQuality" fill-rule="evenodd" clip-rule="evenodd"
viewBox="0 0 1138 1138"
 xmlns:xlink="http://www.w3.org/1999/xlink">
 <g id="Слой_x0020_1">
  <metadata id="CorelCorpID_0Corel-Layer"/>
  <path fill="#66D4FF" fill-rule="nonzero" d="M42 0l1054 0c6,0 11,1 16,3l0 0c5,2 10,5 14,9 3,4 6,8 8,12l1 3c2,4 3,10 3,15l0 1054c0,5 -1,10 -2,14l-1 2c-2,5 -5,10 -9,14 -4,4 -9,7 -14,9 -5,2 -11,3 -16,3l-1054 0c-5,0 -11,-1 -15,-3l-1 0c-5,-2 -10,-5 -14,-9 -3,-3 -6,-7 -8,-11l-1 -3c-2,-5 -3,-10 -3,-16l0 -1054c0,-5 1,-11 3,-16 2,-5 5,-10 9,-14 4,-4 9,-7 14,-9 5,-2 11,-3 16,-3zm727 187l-82 0c-4,0 -9,-1 -13,-2l-3 -2c-3,-1 -7,-3 -10,-5l-4 -4c-3,-3 -6,-7 -8,-11l-1 -2c-2,-6 -3,-11 -3,-17 0,-5 1,-10 3,-15l0 -1c2,-5 6,-10 10,-14 3,-2 6,-5 9,-7l5 -2c4,-2 10,-3 15,-3l82 0c5,0 11,1 16,3 3,2 6,4 9,6l5 4c4,3 7,8 9,13l0 1c2,5 3,10 3,15 0,6 -1,11 -3,16l0 1c-2,3 -4,7 -6,10l-3 3c-4,4 -9,7 -14,9 -5,3 -11,4 -16,4zm209 0l-82 0c-4,0 -9,-1 -13,-2l-3 -2c-5,-2 -10,-5 -14,-9 -3,-3 -6,-7 -8,-11l-1 -2c-2,-5 -3,-11 -3,-17 0,-5 1,-10 3,-15l0 -1c2,-5 5,-10 9,-13 4,-4 9,-7 14,-10 5,-2 11,-3 16,-3l82 0c5,0 11,1 15,3 5,2 9,5 13,8l2 2c3,3 6,7 8,11l1 2c2,5 3,11 3,16 0,5 -1,10 -2,14l-1 2c-2,4 -4,7 -6,11l-3 3c-4,4 -9,7 -14,9 -5,3 -11,4 -16,4zm-538 177c40,-17 83,-26 129,-26 46,0 90,9 130,26 41,17 79,42 110,73 31,31 56,69 73,110 17,41 26,84 26,130 0,46 -9,90 -26,130 -17,41 -42,79 -73,110 -31,31 -69,56 -110,73 -40,17 -84,26 -130,26 -46,0 -89,-9 -129,-26 -42,-17 -79,-42 -111,-73 -31,-31 -56,-69 -73,-110 -17,-40 -26,-84 -26,-130 0,-46 9,-89 26,-130 17,-41 42,-79 73,-110 32,-31 69,-56 111,-73zm205 70c-24,-8 -49,-12 -76,-12 -26,0 -52,4 -76,12 -25,8 -48,19 -69,34 -22,15 -41,33 -56,54 -12,14 -21,30 -29,46 21,4 40,11 56,19 22,10 39,21 54,32l1 0c32,22 60,41 117,41 15,0 28,-1 38,-3 11,-2 21,-5 30,-9 17,-7 33,-18 49,-29 7,-5 15,-10 24,-16l2 -1c9,-6 19,-11 31,-17 11,-5 23,-9 37,-13 7,-2 14,-3 21,-4 -8,-17 -17,-32 -28,-47 -16,-20 -35,-38 -57,-53 -21,-15 -44,-26 -69,-34zm-173 478c30,13 63,20 97,20 35,0 68,-7 97,-20 31,-12 60,-31 83,-55 23,-23 42,-51 55,-81l1 -2c12,-30 19,-62 19,-97 0,-10 -1,-18 -2,-28 -6,1 -12,2 -18,3 -9,3 -18,6 -26,9 -7,3 -14,7 -21,11l-2 1c-8,6 -16,11 -23,16 -19,12 -38,26 -65,37 -27,11 -59,18 -100,18 -41,0 -73,-7 -100,-18 -27,-11 -46,-25 -65,-37l-23 -15c-7,-5 -14,-9 -22,-12 -8,-4 -16,-7 -25,-9 -5,-1 -11,-2 -16,-3 -1,10 -1,17 -2,27 0,35 7,67 20,97 12,31 31,58 54,81l1 2c24,24 52,43 83,55zm582 -700l0 -128 -970 0 0 128 970 0zm-970 84l0 758 970 0 0 -758 -970 0z"/>
 </g>
</svg>
