<?xml version="1.0" encoding="UTF-8"?>
<!DOCTYPE svg PUBLIC "-//W3C//DTD SVG 1.1//EN" "http://www.w3.org/Graphics/SVG/1.1/DTD/svg11.dtd">
<!-- Creator: CorelDRAW X8 -->
<svg xmlns="http://www.w3.org/2000/svg" xml:space="preserve" width="20px" height="20px" version="1.1" shape-rendering="geometricPrecision" text-rendering="geometricPrecision" image-rendering="optimizeQuality" fill-rule="evenodd" clip-rule="evenodd"
viewBox="0 0 1142 1142"
 xmlns:xlink="http://www.w3.org/1999/xlink">
 <g id="Слой_x0020_1">
  <metadata id="CorelCorpID_0Corel-Layer"/>
  <path fill="#66D4FF" fill-rule="nonzero" d="M1064 428l-103 0c-8,0 -14,-4 -17,-12 -3,-7 -2,-15 4,-20l73 -73c30,-31 30,-79 0,-109l-93 -93c-29,-30 -80,-30 -109,0l-73 73c-6,5 -13,7 -21,4 -7,-3 -11,-9 -11,-18l0 -103c0,-42 -35,-77 -78,-77l-131 0c-42,0 -77,35 -77,77l0 103c-1,9 -3,14 -11,18 -8,3 -15,2 -21,-4l-73 -73c-29,-30 -80,-30 -109,0l-93 93c-26,26 -30,67 -10,97 3,5 6,8 10,12l73 73c5,6 7,13 4,20 -4,9 -9,11 -18,12l-103 0c-42,0 -77,35 -77,77l0 131c0,43 35,78 77,78l103 0c9,1 14,3 18,11 3,9 1,14 -4,21l-73 73c-30,30 -30,79 0,109l93 93c29,29 79,29 109,0l73 -73c5,-6 13,-7 20,-4 8,3 12,9 12,17l0 103c0,43 35,78 77,78l131 0c43,0 78,-35 78,-78l0 -103c1,-8 2,-13 11,-17 7,-3 15,-1 21,4l73 73c29,29 80,29 109,0l93 -93c30,-30 30,-79 0,-109l-73 -73 -3 -4c-1,-2 -2,-4 -2,-5l0 -1c-1,-2 -1,-3 -1,-5 1,-2 1,-4 2,-6 1,-2 2,-3 3,-4 1,-2 2,-3 3,-4l1 0c1,-1 3,-2 5,-3l5 0 103 0c43,0 78,-35 78,-78l0 -131c0,-42 -35,-77 -78,-77zm-697 143c0,112 91,204 204,204 112,0 204,-92 204,-204 0,-113 -92,-204 -204,-204 -113,0 -204,91 -204,204zm82 0c0,-67 55,-122 122,-122 67,0 122,55 122,122 0,67 -55,122 -122,122 -67,0 -122,-55 -122,-122zm602 61l-90 0c-41,0 -77,24 -93,62 -16,38 -7,81 22,110l69 69 -86 86 -69 -69c-29,-29 -72,-38 -110,-22 -38,16 -62,52 -62,93l0 99 -122 0 0 -99c0,-41 -24,-77 -62,-93 -42,-12 -78,-11 -110,22l-70 69 -86 -86 70 -69c29,-29 37,-72 21,-110 -15,-38 -52,-62 -93,-62l-98 0 0 -122 98 0c42,0 78,-24 93,-62 16,-39 8,-81 -21,-110l-70 -70 86 -86 70 70c29,29 71,37 110,21 38,-15 62,-51 62,-93l0 -98 122 0 0 98c0,41 24,78 62,93 38,16 81,8 110,-21l69 -70 86 86 -69 70c-29,29 -38,71 -22,110 16,38 52,62 93,62l99 0 0 122 -9 0z"/>
 </g>
</svg>
