<?xml version="1.0" encoding="UTF-8"?>
<!DOCTYPE svg PUBLIC "-//W3C//DTD SVG 1.1//EN" "http://www.w3.org/Graphics/SVG/1.1/DTD/svg11.dtd">
<!-- Creator: CorelDRAW X8 -->
<svg xmlns="http://www.w3.org/2000/svg" xml:space="preserve" width="20px" height="20px" version="1.1" shape-rendering="geometricPrecision" text-rendering="geometricPrecision" image-rendering="optimizeQuality" fill-rule="evenodd" clip-rule="evenodd"
viewBox="0 0 1158 1186"
 xmlns:xlink="http://www.w3.org/1999/xlink">
 <g id="Слой_x0020_1">
  <metadata id="CorelCorpID_0Corel-Layer"/>
  <path fill="#66D4FF" fill-rule="nonzero" d="M936 1094c17,0 31,-14 31,-32 0,-17 -14,-31 -31,-31 -18,0 -32,14 -32,31 0,18 14,32 32,32zm-515 -342l644 0 0 -659 -170 0 0 221c0,20 -17,37 -37,37l-229 0c-21,0 -38,-17 -38,-37l0 -221 -170 0 0 659zm399 -659l-154 0 0 183 154 0 0 -183zm-446 -93l738 0c25,0 46,21 46,46l0 753c0,25 -21,46 -46,46l-738 0c-25,0 -46,-21 -46,-46l0 -753c0,-25 21,-46 46,-46zm-43 1094c17,0 31,-14 31,-32 0,-17 -14,-31 -31,-31 -17,0 -31,14 -31,31 0,18 14,32 31,32zm-112 -158l893 0c25,0 46,20 46,46 0,26 -21,46 -46,46l-57 0 2 11c8,41 -5,82 -34,111 -48,48 -127,48 -175,0 -29,-29 -42,-70 -34,-111l2 -11 -366 0 3 11c7,41 -5,82 -34,111 -49,48 -127,48 -176,0 -29,-29 -42,-70 -34,-111l3 -11 -39 0c-26,0 -47,-20 -47,-46l0 -716 -80 0c-25,0 -46,-21 -46,-46 0,-26 21,-47 46,-47l127 0c25,0 46,21 46,47l0 716z"/>
 </g>
</svg>
