<?xml version="1.0" encoding="UTF-8"?>
<!DOCTYPE svg PUBLIC "-//W3C//DTD SVG 1.1//EN" "http://www.w3.org/Graphics/SVG/1.1/DTD/svg11.dtd">
<!-- Creator: CorelDRAW X8 -->
<svg xmlns="http://www.w3.org/2000/svg" xml:space="preserve" width="75px" height="81px" version="1.1" shape-rendering="geometricPrecision" text-rendering="geometricPrecision" image-rendering="optimizeQuality" fill-rule="evenodd" clip-rule="evenodd"
viewBox="0 0 16614 17901"
 xmlns:xlink="http://www.w3.org/1999/xlink">
 <g id="Слой_x0020_1">
  <metadata id="CorelCorpID_0Corel-Layer"/>
  <path fill="#0E93C8" fill-rule="nonzero" d="M16461 0l-16308 0c-86,0 -153,67 -153,153l0 17595c0,85 67,153 153,153l16308 0c85,0 153,-69 153,-153l0 -17595c0,-86 -67,-153 -153,-153zm-6325 2527l1262 0c42,0 80,-17 108,-44 28,-27 45,-66 45,-108 0,-43 -17,-82 -45,-109 -28,-27 -66,-44 -108,-44l-1262 0c-43,0 -81,17 -109,44 -28,27 -44,66 -44,109 0,42 16,81 44,108 28,27 66,44 109,44zm3233 0l1262 0c42,0 81,-17 108,-44 28,-27 45,-66 45,-108 0,-43 -17,-82 -45,-109 -27,-27 -66,-44 -108,-44l-1262 0c-43,0 -81,17 -109,44 -27,27 -44,66 -44,109 0,42 17,80 45,108 27,27 66,44 108,44zm-5062 3342c-1309,0 -2496,532 -3355,1392 -860,860 -1393,2047 -1393,3356 0,1309 533,2496 1393,3355 859,860 2046,1392 3355,1392 1309,0 2496,-532 3356,-1392 859,-859 1392,-2046 1392,-3355 0,-1309 -533,-2496 -1392,-3356 -860,-860 -2047,-1392 -3356,-1392zm0 306c941,0 1815,294 2534,795 739,516 1315,1251 1633,2110l101 272 -290 23c-458,36 -816,143 -1117,280 -304,139 -560,314 -801,479 -276,189 -534,365 -860,499 -329,135 -715,221 -1233,221 -1042,0 -1529,-334 -2093,-720 -463,-317 -981,-672 -1857,-755l-284 -26 98 -268c317,-859 893,-1596 1633,-2112 720,-503 1595,-798 2536,-798zm0 8884c-1224,0 -2335,-499 -3139,-1303 -804,-804 -1303,-1915 -1303,-3139 0,-129 6,-258 18,-385 12,-131 28,-256 49,-375l33 -193 196 11c438,25 775,117 1068,248 289,129 526,291 778,464 529,362 1129,773 2267,773 1138,0 1737,-411 2266,-773 260,-178 503,-344 802,-475 303,-132 653,-222 1115,-240l192 -8 33 190c21,119 37,244 49,376 12,134 18,263 18,387 0,1224 -498,2335 -1302,3139 -805,804 -1915,1303 -3140,1303zm8001 -14533l0 3388 -16002 0 0 -3608 16002 0 0 220zm-16002 16849l0 -13155 16002 0 0 13375 -16002 0 0 -220z"/>
 </g>
</svg>
