<?xml version="1.0" encoding="UTF-8"?>
<!DOCTYPE svg PUBLIC "-//W3C//DTD SVG 1.1//EN" "http://www.w3.org/Graphics/SVG/1.1/DTD/svg11.dtd">
<!-- Creator: CorelDRAW X8 -->
<svg xmlns="http://www.w3.org/2000/svg" xml:space="preserve" width="69px" height="81px" version="1.1" shape-rendering="geometricPrecision" text-rendering="geometricPrecision" image-rendering="optimizeQuality" fill-rule="evenodd" clip-rule="evenodd"
viewBox="0 0 14127 16614"
 xmlns:xlink="http://www.w3.org/1999/xlink">
 <g id="Слой_x0020_1">
  <metadata id="CorelCorpID_0Corel-Layer"/>
  <path fill="#0E93C8" fill-rule="nonzero" d="M148 0l13831 0c82,0 148,66 148,148l0 15066c0,20 -4,40 -11,57 -7,18 -18,35 -32,48 -13,14 -30,25 -48,32 -18,7 -37,12 -57,12l-13831 0c-20,0 -39,-5 -57,-12 -18,-7 -34,-18 -48,-32 -13,-13 -24,-30 -32,-48 -7,-17 -11,-37 -11,-57l0 -15066c0,-83 65,-148 148,-148zm12065 16318l1766 0c82,0 148,67 148,148 0,83 -65,148 -148,148l-1766 0c-20,0 -40,-4 -57,-11 -55,-23 -91,-77 -91,-137 0,-81 66,-148 148,-148zm-12065 0l1767 0c82,0 148,67 148,148 0,83 -66,148 -148,148l-1767 0c-81,0 -148,-66 -148,-148 0,-82 66,-148 148,-148zm9537 -14058l-1071 0c-81,0 -148,-66 -148,-148 0,-82 66,-148 148,-148l1071 0c81,0 148,66 148,148 0,83 -66,148 -148,148zm2742 0l-1070 0c-82,0 -149,-66 -149,-148 0,-82 66,-148 149,-148l1070 0c83,0 148,65 148,148 0,82 -67,148 -148,148zm1404 1139l0 -3103 -13535 0 0 3103 13535 0zm-1766 7201l0 -6844 -10002 0 0 6844c0,286 57,559 160,808 108,259 265,493 460,689 196,195 429,353 688,460 249,103 522,160 809,160l5768 0c286,0 559,-57 808,-160 259,-107 492,-265 688,-460 195,-196 353,-429 460,-688 104,-249 161,-522 161,-809zm-11769 -6843l0 11309 13535 0 0 -11309 -1470 0 0 6843c0,327 -65,638 -183,922 -123,295 -302,561 -525,784 -222,222 -488,402 -783,524 -285,118 -596,184 -922,184l-5768 0c-326,0 -638,-66 -922,-184 -295,-122 -561,-302 -784,-524 -222,-223 -402,-489 -524,-784 -118,-284 -183,-595 -183,-922l0 -6843 -1471 0z"/>
 </g>
</svg>
