<?xml version="1.0" encoding="UTF-8"?>
<!DOCTYPE svg PUBLIC "-//W3C//DTD SVG 1.1//EN" "http://www.w3.org/Graphics/SVG/1.1/DTD/svg11.dtd">
<!-- Creator: CorelDRAW X8 -->
<svg xmlns="http://www.w3.org/2000/svg" xml:space="preserve" width="91px" height="81px" version="1.1" shape-rendering="geometricPrecision" text-rendering="geometricPrecision" image-rendering="optimizeQuality" fill-rule="evenodd" clip-rule="evenodd"
viewBox="0 0 24589 22057"
 xmlns:xlink="http://www.w3.org/1999/xlink">
 <g id="Слой_x0020_1">
  <metadata id="CorelCorpID_0Corel-Layer"/>
  <path fill="#0E93C8" fill-rule="nonzero" d="M4919 0l-4726 0c-106,0 -193,86 -193,193l0 21671c0,106 86,193 193,193l4726 0c107,0 193,-86 193,-193l0 -10992 14365 0 0 10992c0,106 85,193 193,193l4725 0c108,0 194,-86 194,-193l0 -21671c0,-107 -86,-193 -194,-193l-4725 0c-107,0 -193,86 -193,193l0 3215 -14365 0 0 -3215c0,-107 -86,-193 -193,-193zm11956 5500l-1018 1562c-58,89 -33,209 56,266 89,58 209,33 267,-56l1019 -1562c57,-89 32,-209 -57,-267 -89,-57 -209,-32 -267,57zm-4439 0l-1018 1562c-58,89 -32,209 57,266 89,58 208,33 266,-56l1019 -1562c58,-89 32,-209 -57,-267 -89,-57 -209,-32 -267,57zm-4651 0l-1019 1562c-57,89 -32,209 57,266 89,58 209,33 267,-56l1018 -1562c58,-89 33,-209 -56,-267 -89,-57 -209,-32 -267,57zm14837 15c-480,0 -870,390 -870,871 0,480 390,870 870,870 480,0 871,-391 871,-870 0,-480 -391,-871 -871,-871zm484 871c0,268 -216,483 -484,483 -268,0 -483,-217 -483,-483 0,-266 216,-484 483,-484 267,0 484,216 484,484zm1018 -1972l-3275 0c-106,0 -193,86 -193,193l0 3557c0,107 86,193 193,193l3353 0 0 13313 -4339 0 0 -21283c1446,-4 2893,0 4339,0l0 4027 -78 0zm-3003 387l3081 0 0 3170 -3159 0 0 -3170 78 0zm-16009 3170c-2,-1057 0,-2114 0,-3170 4786,-13 9578,-13 14365,0l0 3170 -14365 0zm78 386l14287 0 0 2128 -14365 0 0 -2128 78 0zm14208 -3943l-14286 0 0 -619 14365 0 0 619 -79 0zm-18933 -4027l4260 0 0 21283 -4338 0 0 -21283 78 0z"/>
 </g>
</svg>
