<?xml version="1.0" encoding="UTF-8"?>
<!DOCTYPE svg PUBLIC "-//W3C//DTD SVG 1.1//EN" "http://www.w3.org/Graphics/SVG/1.1/DTD/svg11.dtd">
<!-- Creator: CorelDRAW X8 -->
<svg xmlns="http://www.w3.org/2000/svg" xml:space="preserve" width="82px" height="81px" version="1.1" shape-rendering="geometricPrecision" text-rendering="geometricPrecision" image-rendering="optimizeQuality" fill-rule="evenodd" clip-rule="evenodd"
viewBox="0 0 20343 20092"
 xmlns:xlink="http://www.w3.org/1999/xlink">
 <g id="Слой_x0020_1">
  <metadata id="CorelCorpID_0Corel-Layer"/>
  <path fill="#0E93C8" fill-rule="nonzero" d="M16048 1363l2062 0c1228,0 2233,996 2233,2233l0 14263c0,1231 -1001,2233 -2233,2233l-14150 0c-1231,0 -2233,-1002 -2233,-2233l0 -8875c156,217 276,468 369,745l24 8130c0,1014 826,1840 1840,1840l6879 0 0 -14612 -2328 2687 -15 15c-110,92 -254,61 -316,-69l-2433 -5964 -1787 0c-1036,0 -1820,825 -1840,1840 0,956 93,1022 -393,1710l0 -1710c0,-1233 1001,-2233 2233,-2233l1858 0c1391,-875 3071,-1318 4708,-1360 1924,-48 3769,449 5469,1333l53 27zm-9943 8241l278 0 0 157c13,497 162,881 487,1258 229,239 447,387 757,507 226,75 393,104 631,110l156 0 0 314 -156 0c-239,6 -404,34 -630,109 -473,197 -765,432 -1024,885 -147,289 -213,548 -221,881l0 156 -314 0 0 -156c-9,-338 -68,-579 -221,-881 -225,-395 -505,-660 -938,-852 -254,-98 -444,-135 -716,-142l-156 0 0 -314 156 0c333,-9 583,-71 882,-221 389,-222 603,-463 814,-856 118,-265 172,-509 179,-798l0 -157 36 0zm544 1636c-164,-183 -281,-370 -423,-575 -183,265 -321,486 -558,710 -173,158 -377,285 -570,418 246,169 435,285 641,486 202,207 316,394 487,641 223,-323 385,-572 683,-816l444 -311c-316,-219 -452,-301 -704,-553zm6142 -1872l1453 0c109,0 197,88 197,197 0,109 -88,196 -197,196l-1453 0c-109,0 -196,-87 -196,-196 0,-94 65,-176 158,-193 12,-2 25,-4 38,-4zm0 2333l1453 0c126,0 216,113 193,235 -17,93 -99,158 -193,158l-1453 0c-13,0 -26,-2 -39,-4 -91,-17 -157,-100 -157,-193 0,-93 64,-176 157,-192 13,-3 26,-4 39,-4zm0 2333l1453 0c109,0 197,87 197,196 0,109 -88,196 -197,196l-1453 0c-13,0 -26,-1 -39,-3 -91,-17 -157,-101 -157,-193 0,-93 65,-176 158,-193 12,-2 25,-3 38,-3zm0 2332l1453 0c109,0 197,88 197,196 0,110 -87,197 -197,197l-1453 0c-13,0 -26,-2 -39,-4 -91,-17 -157,-100 -157,-193 0,-93 65,-175 158,-192 12,-3 25,-4 38,-4zm-9640 -12518l323 0 0 179c0,629 204,1242 579,1746 202,272 449,506 730,694 482,323 1046,496 1627,496l179 0 0 359 -179 0c-338,0 -667,59 -985,172 -683,242 -1262,747 -1604,1385 -227,425 -347,897 -347,1379l0 179 -359 0 0 -179c0,-482 -119,-954 -347,-1379 -319,-595 -843,-1074 -1468,-1333 -356,-148 -735,-224 -1121,-224l-179 0 0 -359 179 0c581,0 1146,-172 1628,-495 361,-243 666,-562 890,-935 273,-454 418,-975 418,-1506l0 -179 36 0zm354 1728l-210 -391 -211 391c-334,599 -754,1019 -1355,1356l-392 211 391 210c592,331 1016,747 1356,1354l211 393 210 -392c337,-602 752,-1019 1355,-1355l392 -210 -392 -211c-598,-335 -1012,-745 -1355,-1356zm2730 -4021l4705 3052 4674 -3032c-1741,-798 -3269,-1263 -5209,-1179 -1603,69 -2779,454 -4170,1159zm7222 5719l2124 -5208 -4248 2756 2124 2452zm-5034 0l2124 -2452 -4248 -2756 2124 5208zm11528 10585l0 -14263c0,-1018 -830,-1840 -1841,-1840l-1978 0 -2432 5964 -11 22c-72,112 -202,134 -306,47l-14 -15 -2137 -2466 0 14391 6878 0c1014,0 1841,-826 1841,-1840z"/>
 </g>
</svg>
