<?xml version="1.0" encoding="UTF-8"?>
<!DOCTYPE svg PUBLIC "-//W3C//DTD SVG 1.1//EN" "http://www.w3.org/Graphics/SVG/1.1/DTD/svg11.dtd">
<!-- Creator: CorelDRAW X8 -->
<svg xmlns="http://www.w3.org/2000/svg" xml:space="preserve" width="73px" height="81px" version="1.1" shape-rendering="geometricPrecision" text-rendering="geometricPrecision" image-rendering="optimizeQuality" fill-rule="evenodd" clip-rule="evenodd"
viewBox="0 0 16258 18053"
 xmlns:xlink="http://www.w3.org/1999/xlink">
 <g id="Слой_x0020_1">
  <metadata id="CorelCorpID_0Corel-Layer"/>
  <path fill="#0E93C8" fill-rule="nonzero" d="M13242 3321l0 -2953 -11552 0 0 2953 11552 0zm2649 6236l0 -9188 -2281 1 0 9187 2281 0zm367 -9373l0 9557c0,104 -80,184 -184,184l-2462 0 -4 7976c-15,90 -90,152 -181,152 -3973,-5 -7946,-13 -11918,-22 -96,0 -166,-63 -182,-152l-6 -14190 -1139 0c-243,0 -243,-368 0,-368l1141 0 0 -2953 -1141 0c-243,0 -243,-368 0,-368l15892 0c104,0 184,80 184,184zm-3016 14173l0 -10668 -11552 0 0 10668 11552 0zm0 3328l0 -2960 -11552 0 0 2960 11552 0z"/>
 </g>
</svg>
