<?xml version="1.0" encoding="UTF-8"?>
<!DOCTYPE svg PUBLIC "-//W3C//DTD SVG 1.1//EN" "http://www.w3.org/Graphics/SVG/1.1/DTD/svg11.dtd">
<!-- Creator: CorelDRAW X8 -->
<svg xmlns="http://www.w3.org/2000/svg" xml:space="preserve" width="57px" height="81px" version="1.1" shape-rendering="geometricPrecision" text-rendering="geometricPrecision" image-rendering="optimizeQuality" fill-rule="evenodd" clip-rule="evenodd"
viewBox="0 0 9904 14227"
 xmlns:xlink="http://www.w3.org/1999/xlink">
 <g id="Слой_x0020_1">
  <metadata id="CorelCorpID_0Corel-Layer"/>
  <path fill="#0E93C8" fill-rule="nonzero" d="M9605 11919c0,572 -512,1047 -1076,1047l-3426 0 0 -12666 3426 0c563,0 1076,529 1076,1089l0 10530zm-3372 -7519c-41,0 -79,17 -106,44 -27,27 -44,65 -44,106l0 1921c0,41 17,79 44,106 27,27 65,44 106,44 41,0 79,-17 106,-44l1 0c27,-27 43,-65 43,-106l0 -1921c0,-41 -17,-79 -44,-106 -27,-28 -65,-44 -106,-44zm-2561 2221c41,0 79,-17 106,-44l1 0c26,-27 43,-65 43,-106l0 -1921c0,-42 -17,-79 -43,-106l-1 -1c-27,-27 -65,-43 -106,-43 -41,0 -79,17 -106,44 -27,27 -44,65 -44,106l0 1921c0,41 17,79 44,106 27,27 65,44 106,44zm6232 5348l0 -10630c-27,-711 -659,-1339 -1375,-1339l-7143 0c-737,0 -1386,653 -1386,1389l0 10530c0,653 509,1206 1141,1322l140 26 0 810c0,198 300,197 300,0l0 -810 6743 0 0 810c0,40 16,78 44,106 95,94 256,27 256,-106l0 -811 141 -26c615,-109 1115,-639 1139,-1271zm-9604 -50l0 -10530c0,-563 522,-1089 1086,-1089l3416 0 0 12666 -3416 0c-558,0 -1086,-479 -1086,-1047z"/>
 </g>
</svg>
