<?xml version="1.0" encoding="UTF-8"?>
<!DOCTYPE svg PUBLIC "-//W3C//DTD SVG 1.1//EN" "http://www.w3.org/Graphics/SVG/1.1/DTD/svg11.dtd">
<!-- Creator: CorelDRAW X8 -->
<svg xmlns="http://www.w3.org/2000/svg" xml:space="preserve" width="54px" height="81px" version="1.1" shape-rendering="geometricPrecision" text-rendering="geometricPrecision" image-rendering="optimizeQuality" fill-rule="evenodd" clip-rule="evenodd"
viewBox="0 0 8996 13601"
 xmlns:xlink="http://www.w3.org/1999/xlink">
 <g id="Слой_x0020_1">
  <metadata id="CorelCorpID_0Corel-Layer"/>
  <path fill="#0E93C8" fill-rule="nonzero" d="M7942 13473l0 -681 356 0c384,0 695,-311 695,-695 0,-571 -39,-1830 3,-2385 -25,-305 -24,-884 -3,-1186 2,-27 3,-39 0,-68l0 -3943c0,-383 -312,-695 -695,-695l-1924 0 0 -2317c0,-383 -311,-695 -694,-695l-357 0 0 -680c0,-171 -258,-170 -258,0l0 680 -1080 0 0 -680c0,-170 -258,-171 -258,0l0 680 -1080 0 0 -680c0,-170 -258,-171 -258,0l0 680 -1080 0 0 -680c0,-170 -258,-170 -258,0l0 680 -356 0c-383,0 -695,312 -695,695l0 7582c0,370 292,678 661,695 653,-1 1305,0 1958,0l0 2317c0,384 311,695 694,695l357 0 0 681c0,170 257,170 257,0l0 -681 1081 0 0 681c0,170 257,170 257,0l0 -681 1081 0 0 681c0,170 258,170 258,0l0 -681 1080 0 0 681c0,169 258,171 258,0zm356 -939l-4961 -1c-252,8 -461,-181 -461,-436 0,-1515 -209,-6395 1,-7586 41,-239 163,-433 436,-433l4985 0c241,0 437,196 437,437l0 3827 -234 -58c-214,-52 -454,-64 -674,-61 -236,3 -496,25 -726,82 -225,56 -478,76 -710,77 -199,2 -455,-10 -645,-73 -208,-68 -467,-86 -685,-87 -260,-1 -550,20 -803,83 -102,23 -197,39 -302,53 -72,8 -121,72 -112,143 8,72 71,121 143,113 89,-10 173,-25 260,-41l74 -17c221,-55 474,-73 701,-74 197,-1 455,10 642,72 207,70 471,86 688,87 264,0 556,-22 812,-85 221,-55 473,-73 701,-74 197,-1 455,10 642,72 64,26 135,38 202,54l26 7 0 946 -233 -58c-214,-52 -455,-64 -675,-61 -237,3 -496,25 -726,82 -225,56 -479,76 -710,78 -199,1 -455,-11 -645,-74 -208,-68 -467,-85 -685,-86 -260,-2 -550,20 -802,82 -103,23 -198,39 -302,53 -52,6 -95,43 -109,93 -5,15 -6,33 -4,50 8,71 72,121 143,114 115,-16 221,-33 334,-59 222,-55 474,-73 701,-74 198,-1 454,11 642,73 208,69 470,85 688,86 263,1 556,-21 812,-85 221,-54 473,-73 701,-74 197,-1 454,11 642,73 69,25 156,42 228,60l0 2263c0,241 -197,437 -437,437zm-5868 -3011l-1546 0 1735 -4409 0 4409 -189 0zm-1735 -8457l4985 0c240,0 436,196 436,437l0 2317 -3178 0c-54,0 -101,32 -120,82 -747,1899 -1466,3718 -2211,5619 -219,-63 -349,-178 -349,-436l0 -7582c0,-240 196,-437 437,-437z"/>
 </g>
</svg>
