<?xml version="1.0" encoding="UTF-8"?>
<!DOCTYPE svg PUBLIC "-//W3C//DTD SVG 1.1//EN" "http://www.w3.org/Graphics/SVG/1.1/DTD/svg11.dtd">
<!-- Creator: CorelDRAW X8 -->
<svg xmlns="http://www.w3.org/2000/svg" xml:space="preserve" width="80px" height="81px" version="1.1" shape-rendering="geometricPrecision" text-rendering="geometricPrecision" image-rendering="optimizeQuality" fill-rule="evenodd" clip-rule="evenodd"
viewBox="0 0 19952 20324"
 xmlns:xlink="http://www.w3.org/1999/xlink">
 <g id="Слой_x0020_1">
  <metadata id="CorelCorpID_0Corel-Layer"/>
  <path fill="#0E93C8" fill-rule="nonzero" d="M8524 6096c480,-430 1113,-713 1733,-868 1477,-9 2949,-4 4425,-4l256 1174 266 1203 -7452 0c94,-625 272,-1058 772,-1505zm-3131 3307l386 0 0 -386 -386 0 0 386zm-2697 0l387 0 0 -386 -387 0 0 386zm1349 0l386 0 0 -386 -386 0 0 386zm-4045 -1685l386 0 0 -386 -386 0 0 386zm0 -4045l386 0 0 -386 -386 0 0 386zm0 2697l386 0 0 -387 -386 0 0 387zm0 -1349l386 0 0 -386 -386 0 0 386zm2696 -2224l387 0 0 -386 -387 0 0 386zm0 -2411l387 0 0 -386 -387 0 0 386zm0 1063l387 0 0 -387 -387 0 0 387zm0 2696l387 0 0 -386 -387 0 0 386zm-1348 -2494l386 0 0 -386 -386 0 0 386zm0 4045l386 0 0 -387 -386 0 0 387zm0 -2697l386 0 0 -386 -386 0 0 386zm0 1348l386 0 0 -386 -386 0 0 386zm4126 15591l-1717 0 0 -1861 1717 0c440,0 825,312 912,749 24,120 24,243 0,363 -79,400 -415,704 -821,744 -31,3 -61,5 -91,5zm14478 -6435l0 -7642c-2,-751 -626,-1361 -1373,-1361l-1874 0 -230 -1011 -7165 0c-599,0 -1196,39 -1789,125 -1700,247 -3349,894 -4605,2081 -465,439 -865,944 -1183,1498 -745,1295 -969,2630 -969,4098l17484 0 -1455 -6404 1786 0c543,0 986,443 986,986l0 7618c0,32 -1,64 -4,96 -51,504 -475,890 -982,890l-8004 0c-756,0 -1373,614 -1373,1373 0,756 613,1373 1373,1373l8190 0c463,0 824,400 781,861 -37,394 -376,708 -781,708l-11987 0c-164,-642 -612,-1101 -1304,-1101l-2103 0 0 427 -1349 0 0 386 1349 0 0 962 -1349 0 0 386 1349 0 0 472 2103 0c712,0 1161,-478 1311,-1146l11980 0c555,0 1040,-393 1148,-942 144,-724 -410,-1399 -1148,-1399l-8190 0c-507,0 -932,-387 -982,-890 -3,-33 -5,-65 -5,-97 0,-543 444,-986 987,-986l8004 0c699,0 1294,-531 1365,-1228 5,-44 7,-88 8,-133zm-18795 -2747c45,-1221 339,-2413 969,-3467 357,-597 810,-1127 1343,-1575 1166,-981 2625,-1510 4125,-1722 568,-80 1142,-117 1716,-117l6857 0 18 85c480,2135 980,4323 1479,6509 26,141 68,294 100,435l-16612 0 5 -148zm-415 1935l15281 0 0 -387 -15281 0 0 387zm9493 -7854c-638,155 -1239,398 -1764,801 -589,450 -989,1053 -1084,1796 -25,188 -23,365 -23,554l8321 0 -692 -3151 -4758 0z"/>
 </g>
</svg>
