<?xml version="1.0" encoding="UTF-8"?>
<!DOCTYPE svg PUBLIC "-//W3C//DTD SVG 1.1//EN" "http://www.w3.org/Graphics/SVG/1.1/DTD/svg11.dtd">
<!-- Creator: CorelDRAW X8 -->
<svg xmlns="http://www.w3.org/2000/svg" xml:space="preserve" width="19px" height="21px" version="1.1" shape-rendering="geometricPrecision" text-rendering="geometricPrecision" image-rendering="optimizeQuality" fill-rule="evenodd" clip-rule="evenodd"
viewBox="0 0 1066 1168"
 xmlns:xlink="http://www.w3.org/1999/xlink">
 <g id="Слой_x0020_1">
  <metadata id="CorelCorpID_0Corel-Layer"/>
  <path fill="#66D4FF" fill-rule="nonzero" d="M38 0l989 0c21,0 38,17 38,38l0 989c0,21 -17,38 -38,38l-989 0c-21,0 -38,-17 -38,-38l0 -989c0,-21 17,-38 38,-38zm863 1091l127 0c21,0 38,18 38,39 0,21 -17,38 -38,38l-127 0c-21,0 -38,-17 -38,-38 0,-21 17,-39 38,-39zm-862 0l126 0c21,0 38,18 38,39 0,21 -17,38 -38,38l-126 0c-21,0 -39,-17 -39,-38 0,-21 18,-39 39,-39zm681 -919l-76 0c-21,0 -39,-17 -39,-38 0,-21 18,-38 39,-38l76 0c21,0 38,17 38,38 0,21 -17,38 -38,38zm196 0l-76 0c-21,0 -39,-17 -39,-38 0,-21 18,-38 39,-38l76 0c21,0 38,17 38,38 0,21 -17,38 -38,38zm73 27l0 -123 -913 0 0 123 913 0zm-126 542l0 -462 -660 0 0 462c0,68 55,124 124,124l412 0c68,0 124,-56 124,-124zm-787 -466l0 714 913 0 0 -714 -50 0 0 466c0,110 -90,200 -200,200l-412 0c-111,0 -201,-90 -201,-200l0 -466 -50 0z"/>
 </g>
</svg>
