<?xml version="1.0" encoding="UTF-8"?>
<!DOCTYPE svg PUBLIC "-//W3C//DTD SVG 1.1//EN" "http://www.w3.org/Graphics/SVG/1.1/DTD/svg11.dtd">
<!-- Creator: CorelDRAW X8 -->
<svg xmlns="http://www.w3.org/2000/svg" xml:space="preserve" width="73px" height="81px" version="1.1" shape-rendering="geometricPrecision" text-rendering="geometricPrecision" image-rendering="optimizeQuality" fill-rule="evenodd" clip-rule="evenodd"
viewBox="0 0 16725 18706"
 xmlns:xlink="http://www.w3.org/1999/xlink">
 <g id="Слой_x0020_1">
  <metadata id="CorelCorpID_0Corel-Layer"/>
  <path fill="#0E93C8" fill-rule="nonzero" d="M16725 13522l0 -8988 -14854 0 0 -4372c0,-90 -72,-162 -162,-162l-1547 0c-90,0 -162,72 -162,162 0,90 72,161 162,161l1385 0 0 15512c0,91 71,162 162,162l2622 0c-528,153 -926,622 -926,1310 0,773 626,1399 1399,1399 771,0 1399,-627 1399,-1399 0,-687 -492,-1178 -926,-1310l6482 0c-507,161 -927,622 -927,1310 0,773 626,1399 1399,1399 768,0 1399,-622 1399,-1399 0,-688 -456,-1171 -926,-1310l2312 0c213,0 214,-322 0,-322l-13145 0 0 -2153 14854 0zm-11921 4863c-593,0 -1078,-485 -1078,-1078 0,-592 486,-1076 1078,-1076 592,0 1076,484 1076,1076 0,593 -483,1078 -1076,1078zm7427 0c-593,0 -1076,-485 -1076,-1078 0,-596 487,-1076 1076,-1076 589,0 1076,481 1076,1076 0,593 -483,1078 -1076,1078zm-10212 -13530l2004 0 0 8343 -2152 0 0 -8343 148 0zm9284 8343l-2005 0 0 -8343 2153 0 0 8343 -148 0zm618 -8343l2005 0 0 8343 -2153 0 0 -8343 148 0zm-3095 8343l-2005 0 0 -8343 2153 0 0 8343 -148 0zm-2475 0l-2004 0 -1 -115c-4,-1482 -6,-2837 -6,-4056 0,-1220 2,-2575 6,-4057l1 -115 2152 0 0 8343 -148 0zm9902 0l-2003 0 0 -8343 2152 0 0 8343 -149 0z"/>
 </g>
</svg>
