<?xml version="1.0" encoding="UTF-8"?>
<!DOCTYPE svg PUBLIC "-//W3C//DTD SVG 1.1//EN" "http://www.w3.org/Graphics/SVG/1.1/DTD/svg11.dtd">
<!-- Creator: CorelDRAW X8 -->
<svg xmlns="http://www.w3.org/2000/svg" xml:space="preserve" width="17px" height="17px" version="1.1" shape-rendering="geometricPrecision" text-rendering="geometricPrecision" image-rendering="optimizeQuality" fill-rule="evenodd" clip-rule="evenodd"
viewBox="0 0 831 831"
 xmlns:xlink="http://www.w3.org/1999/xlink">
 <g id="Слой_x0020_1">
  <metadata id="CorelCorpID_0Corel-Layer"/>
  <path fill="#B3B3B3" fill-rule="nonzero" d="M166 360c65,130 176,236 305,305l102 -101c14,-14 32,-19 46,-10 51,19 106,28 166,28 28,0 46,18 46,46l0 157c0,28 -18,46 -46,46 -434,0 -785,-351 -785,-785 0,-28 18,-46 46,-46l162 0c27,0 46,18 46,46 0,56 9,111 28,166 4,14 0,33 -10,47l-106 101z"/>
 </g>
</svg>
