<?xml version="1.0" encoding="UTF-8"?>
<!DOCTYPE svg PUBLIC "-//W3C//DTD SVG 1.1//EN" "http://www.w3.org/Graphics/SVG/1.1/DTD/svg11.dtd">
<!-- Creator: CorelDRAW X8 -->
<svg xmlns="http://www.w3.org/2000/svg" xml:space="preserve" width="17px" height="12px" version="1.1" shape-rendering="geometricPrecision" text-rendering="geometricPrecision" image-rendering="optimizeQuality" fill-rule="evenodd" clip-rule="evenodd"
viewBox="0 0 874 624"
 xmlns:xlink="http://www.w3.org/1999/xlink">
 <g id="Слой_x0020_1">
  <metadata id="CorelCorpID_0Corel-Layer"/>
  <path fill="#B3B3B3" fill-rule="nonzero" d="M437 437l-108 -95 -309 265c11,11 26,17 43,17l748 0c17,0 32,-6 43,-17l-309 -265 -108 95zm135 -120l302 257 0 -519 -302 262zm-572 -262l0 519 302 -257 -302 -262zm854 -38c-11,-11 -26,-17 -43,-17l-748 0c-17,0 -32,6 -43,17l417 358 417 -358z"/>
 </g>
</svg>
