<?xml version="1.0" encoding="UTF-8"?>
<!DOCTYPE svg PUBLIC "-//W3C//DTD SVG 1.1//EN" "http://www.w3.org/Graphics/SVG/1.1/DTD/svg11.dtd">
<!-- Creator: CorelDRAW X8 -->
<svg xmlns="http://www.w3.org/2000/svg" xml:space="preserve" width="16px" height="16px" version="1.1" shape-rendering="geometricPrecision" text-rendering="geometricPrecision" image-rendering="optimizeQuality" fill-rule="evenodd" clip-rule="evenodd"
viewBox="0 0 770 764"
 xmlns:xlink="http://www.w3.org/1999/xlink">
 <g id="Слой_x0020_1">
  <metadata id="CorelCorpID_0Corel-Layer"/>
  <path fill="#B3B3B3" fill-rule="nonzero" d="M331 0c183,0 332,148 332,331 0,73 -24,141 -64,195l171 171 -67 67 -170 -170c-56,43 -126,69 -202,69 -183,0 -331,-149 -331,-332 0,-183 148,-331 331,-331zm0 95c-130,0 -236,106 -236,236 0,131 106,237 236,237 131,0 237,-106 237,-237 0,-130 -106,-236 -237,-236z"/>
 </g>
</svg>
