<?xml version="1.0" encoding="UTF-8"?>
<!DOCTYPE svg PUBLIC "-//W3C//DTD SVG 1.1//EN" "http://www.w3.org/Graphics/SVG/1.1/DTD/svg11.dtd">
<!-- Creator: CorelDRAW X8 -->
<svg xmlns="http://www.w3.org/2000/svg" xml:space="preserve" width="11px" height="9px" version="1.1" shape-rendering="geometricPrecision" text-rendering="geometricPrecision" image-rendering="optimizeQuality" fill-rule="evenodd" clip-rule="evenodd"
viewBox="0 0 356 303"
 xmlns:xlink="http://www.w3.org/1999/xlink">
 <g id="Слой_x0020_1">
  <metadata id="CorelCorpID_0Corel-Layer"/>
  <path fill="#B3B3B3" fill-rule="nonzero" d="M73 0c27,0 46,6 56,19 11,13 17,35 17,68 0,32 -6,55 -17,68 -10,12 -29,19 -56,19 -27,0 -46,-7 -57,-19 -11,-13 -16,-36 -16,-68 0,-33 5,-55 16,-68 11,-13 30,-19 57,-19zm37 298l-40 0 175 -292 40 0 -175 292zm-38 -263c-10,0 -17,3 -20,10 -4,7 -6,21 -6,42 0,21 2,35 6,42 3,7 10,10 20,10 11,0 18,-3 22,-10 3,-7 5,-21 5,-42 0,-21 -2,-35 -5,-42 -4,-7 -11,-10 -22,-10zm211 94c27,0 46,6 57,19 11,13 16,36 16,68 0,32 -5,55 -16,68 -11,13 -30,19 -57,19 -27,0 -46,-6 -56,-19 -11,-13 -16,-36 -16,-68 0,-32 5,-55 16,-68 10,-13 29,-19 56,-19zm21 45c-4,-6 -11,-10 -21,-10 -11,0 -18,3 -21,10 -4,7 -5,21 -5,42 0,21 1,35 5,42 3,7 10,10 21,10 10,0 17,-3 21,-10 3,-7 5,-21 5,-42 0,-21 -2,-35 -5,-42z"/>
 </g>
</svg>
