<?xml version="1.0" encoding="UTF-8"?>
<!DOCTYPE svg PUBLIC "-//W3C//DTD SVG 1.1//EN" "http://www.w3.org/Graphics/SVG/1.1/DTD/svg11.dtd">
<!-- Creator: CorelDRAW X8 -->
<svg xmlns="http://www.w3.org/2000/svg" xml:space="preserve" width="14px" height="13px" version="1.1" shape-rendering="geometricPrecision" text-rendering="geometricPrecision" image-rendering="optimizeQuality" fill-rule="evenodd" clip-rule="evenodd"
viewBox="0 0 568 533"
 xmlns:xlink="http://www.w3.org/1999/xlink">
 <g id="Слой_x0020_1">
  <metadata id="CorelCorpID_0Corel-Layer"/>
  <path fill="#B3B3B3" fill-rule="nonzero" d="M142 426l0 107 284 0 0 -178 -284 0 0 71zm355 -320l-35 0 0 107 -356 0 0 -107 -35 0c-35,0 -71,36 -71,72l0 177c0,36 36,71 71,71l35 0 0 -106 356 0 0 106 35 0c36,0 71,-35 71,-71l0 -177c0,-36 -35,-72 -71,-72zm-71 0l0 -106 -284 0 0 178 284 0 0 -72zm-248 285l213 0 0 35 -213 0 0 -35zm0 71l213 0 0 35 -213 0 0 -35z"/>
 </g>
</svg>
