<?xml version="1.0" encoding="UTF-8"?>
<!DOCTYPE svg PUBLIC "-//W3C//DTD SVG 1.1//EN" "http://www.w3.org/Graphics/SVG/1.1/DTD/svg11.dtd">
<!-- Creator: CorelDRAW X8 -->
<svg xmlns="http://www.w3.org/2000/svg" xml:space="preserve" width="16px" height="16px" version="1.1" shape-rendering="geometricPrecision" text-rendering="geometricPrecision" image-rendering="optimizeQuality" fill-rule="evenodd" clip-rule="evenodd"
viewBox="0 0 763 763"
 xmlns:xlink="http://www.w3.org/1999/xlink">
 <g id="Слой_x0020_1">
  <metadata id="CorelCorpID_0Corel-Layer"/>
  <path fill="#B3B3B3" fill-rule="nonzero" d="M381 0c211,0 382,171 382,381 0,211 -171,382 -382,382 -210,0 -381,-171 -381,-382 0,-210 171,-381 381,-381zm-123 266l-3 -58c51,-9 87,-14 139,-14 42,0 73,7 94,22 20,15 30,37 30,68 0,66 -62,92 -91,146 -7,15 -12,31 -13,49l-69 0c-1,-23 3,-44 11,-64 16,-39 69,-86 71,-114 2,-13 -2,-23 -11,-29 -8,-6 -22,-8 -42,-8 -34,0 -72,0 -116,2zm111 252l20 0c22,0 30,8 30,30l0 28c0,22 -8,30 -30,30 -27,0 -50,5 -50,-30l0 -28c0,-22 8,-30 30,-30zm12 -470c-184,0 -333,149 -333,333 0,185 149,334 333,334 185,0 334,-149 334,-334 0,-184 -149,-333 -334,-333z"/>
 </g>
</svg>
