<?xml version="1.0" encoding="UTF-8"?>
<!DOCTYPE svg PUBLIC "-//W3C//DTD SVG 1.1//EN" "http://www.w3.org/Graphics/SVG/1.1/DTD/svg11.dtd">
<!-- Creator: CorelDRAW X8 -->
<svg xmlns="http://www.w3.org/2000/svg" xml:space="preserve" width="25px" height="16px" version="1.1" shape-rendering="geometricPrecision" text-rendering="geometricPrecision" image-rendering="optimizeQuality" fill-rule="evenodd" clip-rule="evenodd"
viewBox="0 0 1790 1197"
 xmlns:xlink="http://www.w3.org/1999/xlink">
 <g id="Слой_x0020_1">
  <metadata id="CorelCorpID_0Corel-Layer"/>
  <path fill="#66D4FF" fill-rule="nonzero" d="M45 0l332 0c25,0 45,20 45,45l0 63 946 0 0 -63c0,-25 21,-45 45,-45l332 0c25,0 45,20 45,45l0 1107c0,25 -20,45 -45,45l-332 0c-24,0 -45,-20 -45,-45l0 -457 -946 0 0 457c0,25 -21,45 -45,45l-332 0c-25,0 -45,-20 -45,-45l0 -1107c0,-23 15,-38 36,-44 3,-1 6,-1 9,-1zm1074 379l72 -109c16,-19 45,-23 69,-8 15,19 17,34 6,56l-72 111 174 0 0 -226 -473 -1 -473 1 0 226 59 0 -2 -4c-7,-15 -5,-27 0,-43l76 -117c16,-16 39,-22 59,-9 18,12 25,35 17,55l-75 118 252 0c-10,-17 -11,-33 -1,-50l72 -109c17,-21 45,-25 69,-8 15,15 18,37 7,55 -24,36 -51,75 -73,112l238 0c-9,-12 -10,-28 -5,-42 1,-3 3,-5 4,-8zm423 -200l158 0 0 -89 -242 0 0 1017 242 0 0 -588 -158 0c-24,0 -45,-21 -45,-45l0 -250c0,-3 0,-6 1,-9 3,-17 18,-32 35,-35 3,-1 6,-1 9,-1zm158 90l-113 0 0 160 113 0 0 -160zm-332 250l-946 0 0 86 946 0 0 -86zm-1036 -429l-242 0 0 1017 242 0 0 -1017z"/>
 </g>
</svg>
