<?xml version="1.0" encoding="UTF-8"?>
<!DOCTYPE svg PUBLIC "-//W3C//DTD SVG 1.1//EN" "http://www.w3.org/Graphics/SVG/1.1/DTD/svg11.dtd">
<!-- Creator: CorelDRAW X8 -->
<svg xmlns="http://www.w3.org/2000/svg" xml:space="preserve" width="14px" height="14px" version="1.1" shape-rendering="geometricPrecision" text-rendering="geometricPrecision" image-rendering="optimizeQuality" fill-rule="evenodd" clip-rule="evenodd"
viewBox="0 0 572 573"
 xmlns:xlink="http://www.w3.org/1999/xlink">
 <g id="Слой_x0020_1">
  <metadata id="CorelCorpID_0Corel-Layer"/>
  <path fill="#B3B3B3" fill-rule="nonzero" d="M12 72c-16,-16 -16,-43 0,-60 17,-16 44,-16 60,0l214 214 214 -214c17,-16 44,-16 60,0 17,17 17,44 0,60l-214 214 214 214c17,17 17,44 0,60 -16,17 -43,17 -60,0l-214 -214 -214 214c-16,17 -43,17 -60,0 -16,-16 -16,-43 0,-60l214 -214 -214 -214z"/>
 </g>
</svg>
