<?xml version="1.0" encoding="UTF-8"?>
<!DOCTYPE svg PUBLIC "-//W3C//DTD SVG 1.1//EN" "http://www.w3.org/Graphics/SVG/1.1/DTD/svg11.dtd">
<!-- Creator: CorelDRAW X8 -->
<svg xmlns="http://www.w3.org/2000/svg" xml:space="preserve" width="90px" height="22px" version="1.1" shape-rendering="geometricPrecision" text-rendering="geometricPrecision" image-rendering="optimizeQuality" fill-rule="evenodd" clip-rule="evenodd"
viewBox="0 0 23749 5743"
 xmlns:xlink="http://www.w3.org/1999/xlink">
 <g id="Слой_x0020_1">
  <metadata id="CorelCorpID_0Corel-Layer"/>
  <g id="Webest_logo_RGB.cdr">
   <path fill="#3F70AB" fill-rule="nonzero" d="M2791 1454c391,0 746,159 1002,415 257,257 415,611 415,1002 0,392 -158,746 -415,1003 -256,256 -611,415 -1002,415 -391,0 -746,-159 -1002,-415 -257,-257 -415,-611 -415,-1003 0,-391 158,-745 415,-1002 256,-256 611,-415 1002,-415zm489 928c-125,-125 -298,-202 -489,-202 -191,0 -364,77 -489,202 -125,125 -203,298 -203,489 0,192 78,365 203,490 125,125 298,202 489,202 191,0 364,-77 489,-202 125,-125 203,-298 203,-490 0,-191 -78,-364 -203,-489z"/>
   <path fill="#37AADE" fill-rule="nonzero" d="M0 2204c155,-646 521,-1197 1013,-1585 495,-391 1116,-619 1778,-619 793,0 1511,321 2030,841 520,520 842,1238 842,2030 0,296 -46,589 -135,868 -88,278 -219,543 -390,786l-718 -504c118,-168 209,-352 271,-547 61,-193 93,-396 93,-603 0,-550 -223,-1048 -584,-1409 -360,-360 -859,-584 -1409,-584 -463,0 -894,158 -1235,427 -343,270 -597,653 -705,1101l-851 -202zm11221 -160l-547 1945c-45,157 -104,270 -176,339 -103,94 -255,141 -457,141 -341,0 -546,-117 -616,-349l-316 -1045c-15,-48 -27,-72 -37,-72 -9,0 -21,24 -36,72l-316 1045c-70,232 -275,349 -616,349 -202,0 -354,-47 -457,-141 -72,-69 -131,-182 -176,-339l-547 -1945 841 0 362 1379c12,49 27,73 45,73 12,0 26,-23 41,-68l353 -1158c51,-169 220,-254 506,-254 287,0 456,85 507,254l353 1158c15,45 29,68 41,68 18,0 33,-24 45,-73l362 -1379 841 0zm2548 941c0,214 -49,360 -145,438 -58,46 -136,68 -235,68l-1308 0c-6,79 8,144 41,197 33,53 89,87 167,102 39,6 116,9 231,9l1163 0 0 642 -1516 0c-229,0 -392,-13 -489,-40 -156,-43 -276,-132 -359,-267 -83,-136 -125,-424 -125,-864 0,-311 5,-509 14,-593 24,-187 85,-330 183,-430 98,-99 257,-166 477,-199 142,-21 359,-32 652,-32 283,0 486,8 606,23 169,24 297,71 385,140 172,139 258,407 258,806zm-887 -181c0,-106 -91,-165 -272,-177 -45,-3 -87,-4 -126,-4 -184,0 -300,22 -346,68 -47,45 -66,125 -57,239l656 0c97,0 145,-42 145,-126zm3651 434c0,359 -53,627 -159,805 -156,266 -438,398 -846,398l-1054 0c-169,0 -297,-46 -384,-140 -70,-75 -104,-173 -104,-294l0 -2733 886 0 0 770 643 0c410,0 695,129 855,389 109,178 163,446 163,805zm-905 -9c0,-163 -20,-288 -59,-376 -54,-123 -152,-185 -294,-185l-403 0 0 914c0,87 15,145 43,174 29,29 83,43 161,43l181 0c154,0 256,-54 308,-163 42,-87 63,-223 63,-407zm3642 -244c0,214 -48,360 -145,438 -57,46 -136,68 -235,68l-1308 0c-6,79 8,144 41,197 33,53 89,87 167,102 40,6 117,9 231,9l1163 0 0 642 -1516 0c-229,0 -392,-13 -488,-40 -157,-43 -277,-132 -360,-267 -83,-136 -124,-424 -124,-864 0,-311 4,-509 13,-593 24,-187 85,-330 183,-430 99,-99 258,-166 478,-199 142,-21 359,-32 651,-32 284,0 486,8 607,23 168,24 297,71 384,140 172,139 258,407 258,806zm-887 -181c0,-106 -90,-165 -271,-177 -45,-3 -88,-4 -127,-4 -184,0 -299,22 -346,68 -47,45 -66,125 -57,239l656 0c97,0 145,-42 145,-126zm3384 1013c0,235 -66,406 -199,511 -93,76 -225,113 -393,113l-1715 0 0 -642 1307 0c19,0 36,-5 52,-16 17,-10 25,-26 25,-47 0,-21 -12,-39 -36,-52 -24,-14 -116,-46 -276,-98l-516 -167c-250,-81 -414,-187 -493,-317 -60,-99 -90,-233 -90,-402 0,-175 37,-319 113,-430 102,-151 288,-226 556,-226l1602 0 0 615 -1303 0c-57,0 -92,1 -104,4 -27,6 -41,20 -41,41 0,24 17,42 50,54 24,12 84,35 181,68l606 204c284,96 467,204 550,323 83,119 124,274 124,464zm1982 -1158l-683 0 0 547c0,229 51,389 153,480 85,75 215,113 390,113l131 0 0 642 -516 0c-335,0 -582,-54 -742,-162 -202,-136 -303,-332 -303,-589l0 -1031 -339 0 0 -615 339 0 0 -770 887 0 0 770 683 0 0 615zm-19098 2397c-262,223 -556,395 -869,510 -316,116 -651,177 -991,177 -124,0 -254,-9 -389,-28 -129,-17 -257,-44 -382,-79l233 -844c88,24 177,43 266,55 84,12 175,18 272,18 238,0 471,-43 689,-123 222,-81 427,-200 605,-352l566 666zm-3367 258c-137,-85 -267,-180 -386,-285 -121,-107 -233,-223 -334,-347l679 -553c71,87 148,168 231,241 85,74 175,141 270,199l-460 745z"/>
  </g>
 </g>
</svg>
