<?xml version="1.0" encoding="UTF-8"?>
<!DOCTYPE svg PUBLIC "-//W3C//DTD SVG 1.1//EN" "http://www.w3.org/Graphics/SVG/1.1/DTD/svg11.dtd">
<!-- Creator: CorelDRAW X8 -->
<svg xmlns="http://www.w3.org/2000/svg" xml:space="preserve" width="59px" height="61px" version="1.1" shape-rendering="geometricPrecision" text-rendering="geometricPrecision" image-rendering="optimizeQuality" fill-rule="evenodd" clip-rule="evenodd"
viewBox="0 0 10670 11051"
 xmlns:xlink="http://www.w3.org/1999/xlink">
 <g id="Слой_x0020_1">
  <metadata id="CorelCorpID_0Corel-Layer"/>
  <path fill="#434E66" fill-rule="nonzero" d="M9345 0l-8020 0c-731,0 -1325,594 -1325,1325l0 8402c0,730 594,1324 1325,1324l8020 0c730,0 1325,-594 1325,-1324l0 -8402c0,-731 -595,-1325 -1325,-1325zm-6557 8263c-70,-70 -183,-70 -253,0l-256 256 -255 -256c-70,-70 -183,-70 -253,0 -70,70 -70,184 0,253l255 256 -255 255c-70,70 -70,183 0,253 35,35 81,53 127,53 45,0 91,-18 126,-53l255 -255 256 255c35,35 81,53 126,53 46,0 92,-18 127,-53 70,-70 70,-183 0,-253l-255 -255 255 -256c70,-69 70,-183 0,-253zm5984 -1580l-764 0c-99,0 -179,81 -179,179 0,99 80,179 179,179l764 0c99,0 179,-80 179,-179 0,-98 -80,-179 -179,-179zm0 764l-764 0c-99,0 -179,80 -179,179 0,99 80,179 179,179l764 0c99,0 179,-80 179,-179 0,-99 -80,-179 -179,-179zm-3437 1719c-47,0 -94,19 -127,52 -33,33 -52,80 -52,127 0,47 19,93 52,126 33,34 80,53 127,53 47,0 93,-19 126,-53 34,-33 53,-79 53,-126 0,-47 -19,-94 -53,-127 -33,-33 -79,-52 -126,-52zm0 -788c47,0 93,-19 126,-53 34,-33 53,-79 53,-126 0,-47 -19,-93 -53,-127 -33,-33 -79,-52 -126,-52 -47,0 -94,19 -127,52 -33,34 -52,80 -52,127 0,47 19,93 52,126 33,34 80,53 127,53zm382 215l-764 0c-99,0 -179,80 -179,179 0,99 80,179 179,179l764 0c99,0 179,-80 179,-179 0,-99 -80,-179 -179,-179zm0 -3055l-764 0c-99,0 -179,80 -179,179 0,99 80,179 179,179l764 0c99,0 179,-80 179,-179 0,-99 -80,-179 -179,-179zm-3056 0l-203 0 0 -203c0,-99 -80,-179 -179,-179 -98,0 -179,80 -179,179l0 203 -202 0c-99,0 -179,80 -179,179 0,99 80,179 179,179l202 0 0 202c0,99 81,179 179,179 99,0 179,-80 179,-179l0 -202 203 0c99,0 179,-80 179,-179 0,-99 -80,-179 -179,-179zm6493 -4583l-7638 0c-310,0 -561,251 -561,561l0 1909c0,310 251,561 561,561l7638 0c309,0 561,-251 561,-561l0 -1909c0,-310 -252,-561 -561,-561zm203 2470c0,112 -91,203 -203,203l-7638 0c-112,0 -203,-91 -203,-203l0 -1909c0,-112 91,-203 203,-203l7638 0c112,0 203,91 203,203l0 1909zm-203 967l-1528 0c-309,0 -561,251 -561,561l0 4583c0,309 252,561 561,561l1528 0c309,0 561,-252 561,-561l0 -4583c0,-310 -252,-561 -561,-561zm203 5144c0,111 -91,202 -203,202l-1528 0c-112,0 -203,-91 -203,-202l0 -4583c0,-112 91,-203 203,-203l1528 0c112,0 203,91 203,203l0 4583zm-3258 -5144l-1528 0c-309,0 -561,251 -561,561l0 1527c0,310 252,561 561,561l1528 0c309,0 560,-251 560,-561l0 -1527c0,-310 -251,-561 -560,-561zm202 2088c0,112 -91,203 -202,203l-1528 0c-112,0 -203,-91 -203,-203l0 -1527c0,-112 91,-203 203,-203l1528 0c111,0 202,91 202,203l0 1527zm-202 967l-1528 0c-309,0 -561,252 -561,561l0 1528c0,309 252,561 561,561l1528 0c309,0 560,-252 560,-561l0 -1528c0,-309 -251,-561 -560,-561zm202 2089c0,111 -91,202 -202,202l-1528 0c-112,0 -203,-91 -203,-202l0 -1528c0,-112 91,-203 203,-203l1528 0c111,0 202,91 202,203l0 1528zm-3258 -5144l-1527 0c-310,0 -561,251 -561,561l0 1527c0,310 251,561 561,561l1527 0c310,0 561,-251 561,-561l0 -1527c0,-310 -251,-561 -561,-561zm203 2088c0,112 -91,203 -203,203l-1527 0c-112,0 -203,-91 -203,-203l0 -1527c0,-112 91,-203 203,-203l1527 0c112,0 203,91 203,203l0 1527zm-203 967l-1527 0c-310,0 -561,252 -561,561l0 1528c0,309 251,561 561,561l1527 0c310,0 561,-252 561,-561l0 -1528c0,-309 -251,-561 -561,-561zm203 2089c0,111 -91,202 -203,202l-1527 0c-112,0 -203,-91 -203,-202l0 -1528c0,-112 91,-203 203,-203l1527 0c112,0 203,91 203,203l0 1528zm7065 191c0,533 -433,966 -966,966l-8020 0c-533,0 -967,-433 -967,-966l0 -8402c0,-533 434,-967 967,-967l8020 0c533,0 966,434 966,967l0 8402z"/>
 </g>
</svg>
