<?xml version="1.0" encoding="UTF-8"?>
<!DOCTYPE svg PUBLIC "-//W3C//DTD SVG 1.1//EN" "http://www.w3.org/Graphics/SVG/1.1/DTD/svg11.dtd">
<!-- Creator: CorelDRAW X8 -->
<svg xmlns="http://www.w3.org/2000/svg" xml:space="preserve" width="25px" height="22px" version="1.1" shape-rendering="geometricPrecision" text-rendering="geometricPrecision" image-rendering="optimizeQuality" fill-rule="evenodd" clip-rule="evenodd"
viewBox="0 0 1846 1575"
 xmlns:xlink="http://www.w3.org/1999/xlink">
 <g id="Слой_x0020_1">
  <metadata id="CorelCorpID_0Corel-Layer"/>
  <path fill="#66D4FF" fill-rule="nonzero" d="M1466 111l158 0c123,0 222,100 222,222l0 1020c0,122 -99,222 -222,222l-1152 0c-123,0 -222,-100 -222,-222l0 -332 114 0c1,109 -1,224 -1,332 0,60 48,109 109,109l520 0 0 -899 -119 137c-27,31 -79,23 -95,-16l-188 -460 -118 0c-32,0 -81,17 -90,50l-124 0c26,-96 114,-163 214,-163l140 0c113,-70 262,-107 394,-111 161,-4 317,37 460,111zm-785 712l54 0 0 53c3,68 48,109 112,112l53 0 0 107 -53 0c-65,3 -109,47 -112,112l0 53 -107 0 0 -53c-3,-65 -47,-109 -112,-112l-53 0 0 -107 53 0c65,-3 109,-47 112,-112l0 -53 53 0zm11 207l-11 -12 -23 24c9,7 16,14 23,23 9,-9 14,-15 23,-23l-12 -12zm535 -267l119 0c31,0 56,25 56,56 0,31 -25,57 -56,57l-119 0c-31,0 -56,-26 -56,-57 0,-31 25,-56 56,-56zm0 226l119 0c31,0 56,25 56,56 0,31 -25,57 -56,57l-119 0c-31,0 -56,-25 -56,-57 0,-31 25,-56 56,-56zm0 226l119 0c31,0 56,26 56,57 0,31 -25,56 -56,56l-119 0c-31,0 -56,-25 -56,-56 0,-31 25,-57 56,-57zm-918 -879l55 0 0 55c0,108 87,199 198,199l55 0 0 110 -55 0c-109,0 -198,89 -198,198l0 55 -110 0 0 -55c0,-109 -90,-198 -199,-198l-55 0 0 -110 55 0c111,0 199,-91 199,-199l0 -55 55 0zm35 273c-13,-14 -25,-27 -35,-43 -20,30 -49,59 -79,79 30,20 59,48 79,78 22,-31 46,-57 78,-78 -16,-11 -29,-23 -43,-36zm654 -496c-97,4 -171,24 -259,59l301 196 297 -193c-108,-44 -222,-67 -339,-62zm235 444l99 -245 -199 130 100 115zm-385 0l99 -115 -199 -130 100 245zm886 796l0 -1020c0,-60 -49,-109 -110,-109l-134 0 -188 460c-16,39 -67,48 -94,16l-104 -119 0 881 520 0c61,0 110,-49 110,-109z"/>
 </g>
</svg>
