<?xml version="1.0" encoding="UTF-8"?>
<!DOCTYPE svg PUBLIC "-//W3C//DTD SVG 1.1//EN" "http://www.w3.org/Graphics/SVG/1.1/DTD/svg11.dtd">
<!-- Creator: CorelDRAW X8 -->
<svg xmlns="http://www.w3.org/2000/svg" xml:space="preserve" width="65px" height="65px" version="1.1" shape-rendering="geometricPrecision" text-rendering="geometricPrecision" image-rendering="optimizeQuality" fill-rule="evenodd" clip-rule="evenodd"
viewBox="0 0 13139 13139"
 xmlns:xlink="http://www.w3.org/1999/xlink">
 <g id="Слой_x0020_1">
  <metadata id="CorelCorpID_0Corel-Layer"/>
  <path fill="#434E66" fill-rule="nonzero" d="M12044 1314l-8759 0c-121,0 -219,98 -219,219 0,121 98,219 219,219l8759 0c356,0 657,301 657,657l0 9635c0,369 -288,657 -657,657l-10730 0c-483,0 -876,-393 -876,-876 0,-483 393,-876 876,-876 483,0 876,393 876,876 0,121 98,219 219,219 121,0 219,-98 219,-219l0 -10511c0,-725 -589,-1314 -1314,-1314 -725,0 -1314,589 -1314,1314l0 10511c0,725 589,1314 1314,1314l10730 0c614,0 1095,-481 1095,-1095l0 -9635c0,-604 -491,-1095 -1095,-1095zm-3065 10073c-122,0 -219,98 -219,219 0,121 97,219 219,219l2627 0c121,0 219,-98 219,-219l0 -8759c0,-121 -98,-219 -219,-219l-7883 0c-121,0 -219,98 -219,219l0 8759c0,121 98,219 219,219l4380 0c121,0 219,-98 219,-219 0,-1013 767,-1849 1751,-1959l0 1083c0,121 98,219 219,219 122,0 219,-98 219,-219l0 -1313c0,-121 -97,-220 -219,-220 -1254,0 -2286,964 -2397,2190l-3953 0 0 -3503 4161 0c121,0 219,-99 219,-219l0 -876c0,-121 -98,-219 -219,-219 -122,0 -219,98 -219,219l0 657 -3942 0 0 -4380 3942 0 0 1533c0,121 97,219 219,219 121,0 219,-98 219,-219l0 -1533 3065 0 0 4380 -1095 0c-121,0 -219,98 -219,219 0,120 98,219 219,219l1095 0 0 3503 -2408 0zm-8541 -10073c0,-483 393,-876 876,-876 483,0 876,393 876,876l0 9535c-233,-209 -539,-338 -876,-338 -337,0 -643,129 -876,338l0 -9535z"/>
 </g>
</svg>
