<?xml version="1.0" encoding="UTF-8"?>
<!DOCTYPE svg PUBLIC "-//W3C//DTD SVG 1.1//EN" "http://www.w3.org/Graphics/SVG/1.1/DTD/svg11.dtd">
<!-- Creator: CorelDRAW X8 -->
<svg xmlns="http://www.w3.org/2000/svg" xml:space="preserve" width="57px" height="64px" version="1.1" shape-rendering="geometricPrecision" text-rendering="geometricPrecision" image-rendering="optimizeQuality" fill-rule="evenodd" clip-rule="evenodd"
viewBox="0 0 9953 11211"
 xmlns:xlink="http://www.w3.org/1999/xlink">
 <g id="Слой_x0020_1">
  <metadata id="CorelCorpID_0Corel-Layer"/>
  <path fill="#434E66" fill-rule="nonzero" d="M9737 6864c-59,0 -113,24 -152,63 -39,39 -63,93 -63,152l0 3013 -2037 0 0 -4203 2252 0c60,0 114,-24 153,-63 39,-39 63,-93 63,-152 0,-60 -24,-114 -63,-153 -39,-38 -93,-63 -153,-63l-2467 0c-59,0 -113,25 -152,64 -39,38 -63,92 -63,152l0 183 -1576 -1576c-111,-111 -248,-182 -391,-213 -148,-32 -304,-22 -447,31l-115 43 88 -84c249,-238 443,-520 575,-828 131,-307 200,-642 200,-988 0,-462 -126,-906 -353,-1288 -228,-383 -557,-706 -963,-928 -33,-18 -70,-26 -107,-26 -37,1 -73,11 -106,30 -33,20 -59,47 -77,79 -18,32 -28,68 -28,106l0 2168 -1775 0 0 -2168c0,-38 -10,-74 -28,-106 -18,-32 -45,-60 -77,-79 -16,-9 -34,-17 -51,-22 -18,-5 -36,-7 -54,-8l-11 0c-17,1 -34,3 -50,7 -16,5 -33,11 -48,19 -406,222 -735,545 -962,928 -228,382 -354,826 -354,1288 0,374 82,736 234,1063 153,328 378,623 665,864l9 8 0 664 -460 0c-219,0 -417,89 -560,232 -144,144 -233,342 -233,560l0 12c0,107 21,210 60,303 40,97 99,184 172,257l18 18 -18 18c-73,73 -132,160 -172,257 -39,93 -60,196 -60,303l0 11c0,108 21,210 60,303 40,97 99,184 172,257l18 18 -18 18c-73,73 -132,160 -172,257 -39,93 -60,196 -60,303l0 12c0,107 21,209 60,302 40,97 99,184 172,257l18 18 -18 18c-73,73 -132,161 -172,257 -39,94 -60,196 -60,303l0 12c0,218 89,417 233,560 143,144 341,233 560,233l494 0 4 20c81,362 285,676 562,899 276,221 625,352 1000,352l28 0c378,0 725,-132 999,-351 279,-224 482,-539 563,-900l4 -20 1941 0c60,0 113,-24 152,-63 39,-39 63,-93 63,-152 0,-60 -24,-114 -63,-153 -39,-39 -92,-63 -152,-63l-1907 0 0 -2011c0,-59 -24,-113 -63,-152 -39,-39 -92,-63 -152,-63 -59,0 -113,24 -152,63 -39,39 -63,93 -63,152l0 2112c0,323 -131,615 -343,827 -212,212 -504,343 -827,343l-28 0c-254,0 -492,-83 -686,-223 -197,-143 -349,-346 -426,-584l-11 -33 414 0c219,0 417,-89 560,-233 144,-143 233,-342 233,-560l0 -12c0,-107 -21,-209 -60,-302 -40,-97 -99,-185 -172,-258l-18 -18 18 -18c73,-73 132,-160 172,-257 39,-93 60,-195 60,-302l0 -12c0,-107 -21,-210 -60,-303 -40,-97 -99,-184 -172,-257l-18 -18 18 -18c73,-73 132,-160 172,-257 39,-93 60,-195 60,-303l0 -11c0,-107 -21,-210 -60,-303 -40,-97 -99,-184 -172,-257l-18 -18 18 -18c73,-73 132,-160 172,-257 39,-93 60,-196 60,-303l0 -12c0,-218 -89,-416 -233,-560 -143,-143 -341,-232 -560,-232l-460 0 0 -768c0,-34 -8,-66 -23,-95 -14,-30 -35,-56 -62,-76 -261,-200 -467,-452 -608,-735 -140,-283 -215,-598 -215,-925 0,-308 67,-605 191,-875 126,-272 310,-517 541,-714l41 -36 0 1981c0,59 24,113 63,152 39,39 93,63 153,63l2205 0c59,0 113,-24 152,-63 39,-39 63,-93 63,-152l0 -1981 42 36c231,197 415,442 540,715 124,269 192,567 192,874 0,327 -75,642 -216,925 -140,283 -346,535 -608,735 -26,20 -48,46 -62,76 -14,29 -22,61 -22,95l0 515 -648 648c-75,75 -134,163 -173,257 -39,95 -60,198 -60,304 0,106 21,209 60,304 39,95 98,182 173,257l8 8c76,76 163,133 256,172 97,40 201,60 305,60 103,0 207,-20 304,-60 93,-39 180,-96 256,-172l479 -479c42,-42 63,-97 63,-152 0,-55 -21,-110 -63,-152 -42,-42 -97,-63 -152,-63 -55,0 -110,21 -152,63l-479 479c-71,70 -164,106 -256,106 -93,0 -186,-36 -256,-106l-9 -9c-34,-34 -61,-74 -79,-117 -18,-44 -27,-91 -27,-139 0,-48 9,-95 27,-138 18,-44 45,-84 79,-118l955 -955c71,-71 164,-106 256,-106 93,0 185,35 256,105 590,506 1313,1309 1881,1881l0 3841c0,60 24,113 63,152 39,39 93,63 152,63l2467 0c60,0 114,-24 153,-63 39,-38 63,-92 63,-152l0 -3228c0,-60 -24,-113 -63,-152 -39,-39 -93,-63 -153,-63zm-7231 -63l0 11c0,100 -40,191 -106,256 -66,66 -156,107 -256,107l-1351 0c-100,0 -191,-41 -256,-107 -66,-65 -106,-156 -106,-256l0 -11c0,-100 40,-191 106,-256 65,-66 156,-107 256,-107l1351 0c100,0 190,41 256,107 66,65 106,156 106,256zm0 1167l0 12c0,99 -40,190 -106,256 -66,65 -156,106 -256,106l-1351 0c-100,0 -191,-41 -256,-106 -66,-66 -106,-157 -106,-256l0 -12c0,-100 40,-191 106,-256 66,-66 156,-107 256,-107l1351 0c100,0 190,41 256,107 66,65 106,156 106,256zm0 1179c0,100 -40,190 -106,256 -66,65 -156,106 -256,106l-1351 0c-100,0 -190,-41 -256,-106 -66,-66 -106,-156 -106,-256l0 -12c0,-100 40,-191 106,-256 65,-66 156,-106 256,-106l1351 0c100,0 190,40 256,106 66,66 106,156 106,256l0 12zm0 -3514l0 12c0,100 -40,191 -106,256 -66,66 -156,107 -256,107l-1351 0c-100,0 -190,-41 -256,-107 -66,-65 -106,-156 -106,-256l0 -12c0,-99 40,-190 106,-256 65,-65 156,-106 256,-106l1351 0c100,0 190,41 256,106 66,66 106,157 106,256z"/>
 </g>
</svg>
