<?xml version="1.0" encoding="UTF-8"?>
<!DOCTYPE svg PUBLIC "-//W3C//DTD SVG 1.1//EN" "http://www.w3.org/Graphics/SVG/1.1/DTD/svg11.dtd">
<!-- Creator: CorelDRAW X8 -->
<svg xmlns="http://www.w3.org/2000/svg" xml:space="preserve" width="58px" height="58px" version="1.1" shape-rendering="geometricPrecision" text-rendering="geometricPrecision" image-rendering="optimizeQuality" fill-rule="evenodd" clip-rule="evenodd"
viewBox="0 0 10386 10386"
 xmlns:xlink="http://www.w3.org/1999/xlink">
 <g id="Слой_x0020_1">
  <metadata id="CorelCorpID_0Corel-Layer"/>
  <path fill="#434E66" fill-rule="nonzero" d="M9851 4039l-972 0c-156,0 -284,-86 -344,-230 -60,-145 -29,-297 80,-407l688 -687c100,-100 156,-235 156,-377 0,-143 -56,-278 -156,-379l-876 -876c-202,-202 -554,-202 -756,0l-688 687c-110,110 -262,141 -406,81 -144,-60 -231,-189 -231,-345l0 -972c0,-295 -239,-534 -534,-534l-1239 0c-294,0 -534,239 -534,534l0 972c0,156 -86,285 -230,345 -145,60 -297,29 -407,-81l-687 -687c-202,-202 -554,-202 -756,0l-876 876c-101,100 -156,236 -156,379 0,142 55,277 156,377l687 687c110,110 140,262 81,407 -59,144 -189,230 -345,230l-972 0c-295,0 -534,240 -534,534l0 1239c0,295 239,534 534,534l972 0c156,0 285,87 345,231 60,144 29,296 -81,406l-687 688c-101,100 -156,235 -156,377 0,144 55,278 156,379l876 876c202,202 554,202 756,0l687 -688c110,-109 262,-140 407,-80 144,60 230,188 230,344l0 972c0,295 240,535 534,535l1239 0c295,0 534,-240 534,-535l0 -972c0,-156 87,-284 231,-344 144,-60 296,-29 406,80l688 688c202,202 554,202 756,0l876 -876c100,-101 156,-235 156,-379 0,-142 -56,-276 -156,-377l-688 -688c-109,-110 -140,-262 -80,-406 59,-144 188,-231 344,-231l972 0c295,0 535,-239 535,-534l0 -1239c0,-294 -240,-534 -535,-534zm-4658 -578c-955,0 -1732,777 -1732,1732 0,954 777,1731 1732,1731 954,0 1731,-777 1731,-1731 0,-955 -777,-1732 -1731,-1732zm0 3078c-742,0 -1346,-604 -1346,-1346 0,-742 604,-1346 1346,-1346 742,0 1346,604 1346,1346 0,742 -604,1346 -1346,1346zm4809 -727c0,83 -68,150 -151,150l-972 0c-311,0 -580,180 -699,468 -121,288 -58,605 164,826l686 687c60,58 60,153 0,212l-875 875c-59,59 -154,60 -212,0l-687 -686c-221,-222 -538,-284 -826,-164 -288,119 -468,388 -468,699l0 972c0,83 -67,151 -150,151l-1239 0c-82,0 -150,-68 -150,-151l0 -972c0,-311 -178,-580 -467,-699 -97,-41 -197,-61 -295,-61 -195,0 -384,78 -531,224l-686 687c-60,60 -155,59 -214,0l-875 -875c-58,-59 -58,-154 0,-213l688 -686c220,-221 283,-538 163,-826 -119,-288 -387,-468 -700,-468l-972 0c-82,0 -149,-67 -149,-150l0 -1239c0,-82 67,-150 149,-150l972 0c313,0 581,-178 700,-467 120,-289 57,-605 -163,-826l-688 -686c-58,-60 -58,-155 0,-214l875 -875c59,-58 154,-58 214,0l686 687c221,220 537,284 826,164 289,-119 467,-387 467,-700l0 -972c0,-82 68,-149 150,-149l1239 0c83,0 150,67 150,149l0 972c0,313 180,581 468,700 288,120 605,57 826,-163l687 -688c58,-58 154,-58 212,0l875 876c60,58 60,154 0,213l-686 686c-221,221 -285,537 -164,826 119,289 388,468 699,468l972 0c83,-1 151,67 151,149l0 1239z"/>
 </g>
</svg>
