<?xml version="1.0" encoding="UTF-8"?>
<!DOCTYPE svg PUBLIC "-//W3C//DTD SVG 1.1//EN" "http://www.w3.org/Graphics/SVG/1.1/DTD/svg11.dtd">
<!-- Creator: CorelDRAW X8 -->
<svg xmlns="http://www.w3.org/2000/svg" xml:space="preserve" width="24px" height="30px" version="1.1" shape-rendering="geometricPrecision" text-rendering="geometricPrecision" image-rendering="optimizeQuality" fill-rule="evenodd" clip-rule="evenodd"
viewBox="0 0 1812 2321"
 xmlns:xlink="http://www.w3.org/1999/xlink">
 <g id="Слой_x0020_1">
  <metadata id="CorelCorpID_0Corel-Layer"/>
  <path fill="#B8BAC2" fill-rule="nonzero" d="M1705 1896c0,23 -18,42 -41,42l-128 0 0 -1140c0,0 0,0 0,-1 0,-13 -5,-27 -15,-37l-469 -468c0,0 0,0 0,0 -10,-10 -23,-16 -38,-16l-631 0 0 -127c0,-23 19,-42 42,-42l1239 0c23,0 41,19 41,42l0 1747 0 0zm107 2l0 -1751c0,-81 -67,-147 -148,-147l-1239 0c-82,0 -149,67 -149,149l0 127 -170 0c-58,0 -106,48 -106,106l0 1833c0,58 48,106 106,106l1324 0c59,0 106,-48 106,-106l0 -170 128 0c81,0 148,-66 148,-147zm-744 -1439l286 286 -272 0c-8,0 -14,-7 -14,-14l0 -272zm-961 1755l0 -1831 853 0 0 348c0,67 55,121 122,121l347 0 0 1362 -1322 0z"/>
 </g>
</svg>
