<?xml version="1.0" encoding="UTF-8"?>
<!DOCTYPE svg PUBLIC "-//W3C//DTD SVG 1.1//EN" "http://www.w3.org/Graphics/SVG/1.1/DTD/svg11.dtd">
<!-- Creator: CorelDRAW X8 -->
<svg xmlns="http://www.w3.org/2000/svg" xml:space="preserve" width="47px" height="81px" version="1.1" shape-rendering="geometricPrecision" text-rendering="geometricPrecision" image-rendering="optimizeQuality" fill-rule="evenodd" clip-rule="evenodd"
viewBox="0 0 7090 12174"
 xmlns:xlink="http://www.w3.org/1999/xlink">
 <g id="Слой_x0020_1">
  <metadata id="CorelCorpID_0Corel-Layer"/>
  <path fill="#0E93C8" fill-rule="nonzero" d="M6859 5982l-6648 0 0 -4570 6668 0 0 4570 -20 0zm125 -5982l-6879 0c-6,0 -13,1 -20,2 -7,1 -13,3 -20,6 -6,3 -12,6 -18,9 -6,4 -12,9 -16,14 -5,5 -10,10 -13,16 -4,6 -8,12 -10,18 -3,7 -5,13 -6,20 -1,7 -2,14 -2,20l0 11964c0,7 1,13 2,20 1,6 4,13 6,20 3,7 6,13 10,18 4,6 8,11 12,16l1 0c5,5 10,9 16,13 6,4 12,7 19,10 6,3 13,5 20,6 6,1 13,2 19,2l6879 0c7,0 14,-1 20,-2 7,-1 14,-4 21,-6 13,-5 24,-13 34,-23 10,-9 17,-21 23,-34 5,-12 8,-26 8,-40l0 -11964c0,-7 -1,-13 -2,-20 -2,-6 -4,-13 -6,-20 -3,-6 -6,-13 -10,-18 -4,-6 -8,-11 -13,-16l-1 -1c-4,-4 -10,-9 -15,-12 -6,-4 -12,-7 -19,-10 -6,-3 -13,-5 -19,-6 -7,-1 -14,-2 -21,-2zm-2768 791l463 0c6,0 13,-1 19,-2 7,-1 14,-4 21,-6 6,-3 12,-6 18,-10 6,-4 11,-8 16,-13 5,-5 9,-10 13,-16 4,-6 7,-12 10,-18 3,-7 5,-13 6,-20 1,-7 2,-14 2,-20 0,-7 -1,-14 -2,-21 -1,-6 -3,-13 -6,-20 -5,-12 -12,-23 -21,-32l-2 -2c-5,-5 -10,-9 -16,-13 -6,-4 -12,-7 -19,-10 -6,-3 -13,-5 -19,-6 -7,-1 -14,-2 -20,-2l-463 0c-7,0 -14,1 -20,2 -8,2 -14,4 -21,6 -6,3 -12,6 -17,10 -6,4 -11,8 -16,12l-1 1c-5,5 -9,10 -13,16 -4,6 -7,12 -10,18 -2,7 -4,13 -6,20 -1,7 -2,13 -2,21 0,6 1,13 2,20 1,6 3,13 6,19 5,13 13,25 22,34l2 2c4,4 10,8 15,12 6,4 12,7 18,10 7,2 14,5 21,6 6,1 13,2 20,2zm1186 0l462 0c7,0 14,-1 20,-2 8,-1 14,-4 21,-6 6,-3 12,-6 18,-10 6,-4 11,-8 16,-13 5,-5 9,-10 13,-16 4,-6 7,-12 10,-18 2,-6 4,-13 6,-20 1,-7 2,-13 2,-20 0,-7 -1,-14 -2,-21 -1,-6 -4,-13 -6,-20 -6,-12 -13,-24 -21,-33l-2 -1c-5,-5 -10,-9 -16,-13 -6,-4 -12,-7 -19,-10 -6,-3 -13,-5 -19,-6 -7,-1 -14,-2 -21,-2l-462 0c-7,0 -14,1 -21,2 -7,2 -13,4 -20,6 -13,6 -25,14 -34,23 -5,5 -9,10 -13,16 -4,6 -7,12 -10,18 -2,7 -4,14 -6,21 -1,6 -2,13 -2,20 0,7 1,13 2,20 2,7 4,14 6,20 3,6 6,12 10,18 4,6 8,12 13,16 10,10 21,18 34,23 12,5 26,8 41,8zm-2206 1161c-116,23 -228,58 -335,102 -109,45 -212,101 -309,166 -98,65 -190,140 -273,223 -83,83 -158,174 -223,272 -65,97 -121,201 -166,310 -44,106 -78,219 -101,335 -23,113 -35,229 -35,349 0,119 12,236 35,349 23,116 57,228 101,335 46,109 101,213 166,310 66,97 141,189 224,271 83,83 174,158 272,224 96,65 200,120 309,165 107,45 219,79 335,102 113,23 230,34 349,34 119,0 236,-11 349,-34 116,-23 228,-57 335,-102 109,-45 212,-100 309,-165 98,-66 190,-141 273,-224 165,-165 298,-362 389,-581 87,-211 136,-442 136,-684 0,-120 -12,-236 -34,-349 -23,-116 -58,-229 -102,-335 -45,-109 -101,-213 -166,-310 -65,-98 -140,-189 -223,-272 -83,-83 -175,-158 -273,-224 -97,-64 -200,-120 -309,-165 -107,-44 -219,-79 -335,-102 -113,-22 -230,-34 -349,-34 -119,0 -236,12 -349,34zm589 195c79,12 157,30 232,54 77,24 151,54 222,89 73,35 142,76 207,122 66,46 129,97 187,152 58,55 112,115 161,179 49,63 94,130 133,201 39,69 72,142 100,218l15 39 -42 3c-43,3 -84,9 -123,15 -39,7 -77,15 -112,24 -35,9 -69,20 -100,31 -32,12 -62,24 -91,37 -29,13 -56,27 -83,42 -27,14 -53,30 -78,45 -25,16 -49,32 -73,47l-141 96c-24,16 -48,31 -75,47 -24,15 -50,30 -76,43 -26,14 -53,27 -82,38 -28,12 -58,23 -90,32 -31,9 -65,18 -100,24 -36,7 -74,12 -114,16 -40,3 -83,5 -129,5 -367,0 -540,-118 -740,-255l-1 -1c-44,-30 -88,-60 -135,-89 -47,-29 -98,-58 -155,-84 -56,-27 -118,-51 -186,-70 -69,-19 -144,-33 -228,-41l-40 -4 14 -38c28,-75 61,-148 100,-218 39,-71 84,-138 132,-202 50,-63 104,-123 162,-179 58,-55 121,-107 187,-153 65,-45 135,-86 207,-122 71,-35 146,-65 222,-89 76,-24 154,-42 234,-54 78,-12 158,-18 239,-18 82,0 162,6 240,18zm-548 3111c-102,-20 -201,-50 -295,-89 -96,-40 -188,-89 -273,-146 -87,-58 -167,-125 -241,-198 -73,-73 -139,-154 -197,-240 -57,-86 -106,-177 -146,-273 -39,-94 -69,-193 -90,-295 -19,-100 -30,-203 -30,-308l2 -70 4 -67c6,-56 14,-106 22,-161l29 1c38,2 75,6 109,11 34,5 66,11 97,19 31,7 61,16 88,25 28,10 54,21 80,32 100,45 185,103 275,164l3 2c99,68 204,140 341,196 68,29 143,52 229,69 86,17 181,27 289,27 108,0 203,-10 289,-27 85,-17 161,-40 229,-69 136,-56 241,-128 340,-195l71 -48c23,-16 46,-31 69,-45 23,-14 47,-28 71,-41 24,-13 50,-25 76,-36 26,-12 54,-23 83,-32 28,-10 58,-18 91,-26 32,-7 66,-13 102,-18 36,-4 74,-7 115,-9l28 -1c12,83 21,148 26,231l2 67c0,106 -11,209 -30,309 -21,102 -51,201 -90,295 -40,96 -89,188 -146,273 -58,86 -124,167 -197,240 -74,74 -154,140 -240,198 -86,57 -178,106 -273,146 -95,39 -194,69 -296,89 -99,20 -202,30 -308,30 -105,0 -209,-10 -308,-30zm3642 -5027l0 970 -6668 0 0 -990 6668 0 0 20zm-2663 6542l463 0c7,0 13,-1 20,-2 7,-2 14,-4 20,-6 6,-3 13,-7 18,-10 6,-4 11,-8 16,-13 5,-5 9,-11 13,-16 4,-6 7,-12 10,-18 3,-7 5,-14 6,-20 1,-7 2,-14 2,-21 0,-7 -1,-13 -2,-20 -1,-7 -3,-14 -6,-20 -3,-7 -6,-13 -10,-19 -3,-5 -7,-10 -11,-14l-2 -2c-5,-4 -10,-9 -16,-13 -6,-3 -12,-7 -19,-9 -6,-3 -13,-5 -19,-6 -7,-2 -14,-2 -20,-2l-463 0c-7,0 -14,0 -20,2 -8,1 -14,3 -20,6 -7,2 -13,6 -18,9 -6,4 -11,8 -16,13 -5,5 -10,10 -14,16 -4,6 -7,12 -10,19 -2,6 -4,13 -6,20 -1,6 -2,13 -2,20 0,7 1,14 2,20 1,7 3,14 6,20 3,7 6,13 10,18 4,6 8,12 13,17l1 1c4,4 10,8 15,12 6,3 12,7 18,9 7,3 14,5 21,7 6,1 13,2 20,2zm1186 0l462 0c7,0 14,-1 20,-2 7,-2 14,-4 20,-7 7,-2 14,-6 19,-9 6,-4 11,-9 16,-13 5,-5 9,-10 13,-16 4,-6 7,-12 10,-18 2,-7 4,-14 6,-21 1,-6 2,-13 2,-20 0,-7 -1,-13 -2,-20 -2,-7 -4,-14 -6,-20 -3,-7 -6,-13 -10,-19 -3,-5 -7,-10 -11,-14l-2 -2c-5,-5 -11,-9 -16,-12 -6,-4 -12,-8 -19,-10 -6,-3 -13,-5 -19,-6 -7,-2 -14,-2 -21,-2l-462 0c-7,0 -14,0 -21,2 -7,1 -13,3 -20,6 -13,5 -25,13 -34,22 -5,5 -9,11 -13,16 -4,6 -7,12 -10,20 -2,6 -4,12 -6,19 -1,7 -2,13 -2,20 0,7 1,14 2,20 2,7 4,14 6,20 3,7 6,13 10,19 4,5 8,11 13,16 10,9 21,17 34,23 12,5 26,8 41,8zm-2206 1161c-116,23 -228,57 -335,101 -109,46 -213,101 -310,166 -97,66 -189,141 -272,224 -83,83 -158,174 -223,272 -65,96 -121,200 -166,309 -44,107 -78,219 -101,335 -23,113 -35,230 -35,349 0,120 12,236 35,349 23,116 57,229 101,335 45,109 101,213 166,310 65,97 140,189 223,272 83,83 175,158 272,223 97,65 201,121 310,166 107,44 219,79 335,102 113,22 230,34 349,34 119,0 236,-12 349,-34 116,-23 228,-58 335,-102 109,-45 213,-101 310,-166 98,-65 189,-140 272,-223 83,-83 158,-175 223,-272 65,-97 121,-201 166,-310 44,-106 79,-219 102,-335 22,-113 34,-229 34,-349 0,-119 -12,-236 -34,-349 -23,-116 -58,-228 -102,-335 -45,-109 -101,-213 -166,-310 -66,-97 -141,-189 -223,-271 -83,-83 -175,-158 -273,-224 -96,-65 -200,-120 -309,-166 -107,-44 -219,-78 -335,-101 -113,-23 -230,-34 -349,-34 -119,0 -236,11 -349,34zm588 194c80,13 158,31 233,54 77,24 151,54 222,89 73,36 142,77 207,122 66,46 129,97 187,153 58,55 112,115 161,178 49,64 94,131 133,201 39,70 72,143 100,218l15 39 -42 4c-43,3 -85,8 -124,15 -38,6 -76,15 -111,24 -36,9 -69,20 -101,31 -31,11 -61,24 -90,37 -29,13 -56,27 -83,41 -27,15 -53,30 -78,46 -24,15 -49,31 -73,47l-141 96c-24,15 -48,31 -75,47 -24,15 -50,29 -76,43 -26,13 -53,26 -82,38 -29,12 -59,22 -90,32 -31,9 -65,17 -100,24 -36,7 -74,12 -114,15 -40,4 -83,6 -129,6 -183,0 -318,-30 -433,-77 -115,-47 -207,-110 -307,-178 -43,-30 -88,-61 -136,-90 -47,-30 -98,-58 -155,-85 -56,-26 -118,-50 -186,-69 -69,-19 -144,-34 -228,-41l-40 -4 14 -38c28,-76 62,-149 100,-219 39,-70 84,-138 132,-201 50,-64 104,-124 162,-179 58,-56 121,-107 187,-153 66,-46 135,-87 207,-122 71,-35 146,-65 222,-89 76,-24 154,-42 234,-55 77,-11 158,-18 239,-18 82,0 162,7 239,18zm-547 3112c-102,-20 -201,-51 -295,-90 -96,-39 -188,-89 -273,-146 -87,-58 -167,-124 -241,-197 -73,-73 -139,-154 -197,-240 -57,-86 -106,-177 -146,-273 -39,-94 -69,-193 -90,-296 -19,-99 -30,-202 -30,-308l2 -70c1,-22 2,-44 4,-66 6,-56 14,-106 22,-162l29 2c38,2 75,6 109,11 34,5 66,11 97,19 31,7 61,16 88,25 28,10 54,20 80,32 50,22 97,48 143,76 46,29 89,58 134,89l2 2c200,136 427,291 858,291 108,0 203,-10 289,-27 85,-17 161,-41 229,-69 68,-28 128,-60 184,-94 56,-33 107,-68 157,-102l1 -1c93,-63 180,-123 285,-169 26,-11 54,-22 83,-32 28,-9 58,-18 91,-25 32,-7 66,-13 102,-18 36,-5 74,-8 115,-9l28 -2c12,83 21,149 26,232l2 67c0,106 -10,209 -30,308 -20,103 -51,201 -90,296 -40,96 -89,187 -146,273 -58,86 -124,167 -197,240 -74,73 -154,139 -240,197 -86,57 -178,107 -273,146 -95,39 -194,70 -296,90 -99,20 -202,30 -308,30 -105,0 -209,-10 -308,-30zm3642 -5028l0 971 -6668 0 0 -991 6668 0 0 20zm-6668 5731l0 -4550 6668 0 0 4570 -6668 0 0 -20z"/>
 </g>
</svg>
