<?xml version="1.0" encoding="UTF-8"?>
<!DOCTYPE svg PUBLIC "-//W3C//DTD SVG 1.1//EN" "http://www.w3.org/Graphics/SVG/1.1/DTD/svg11.dtd">
<!-- Creator: CorelDRAW X8 -->
<svg xmlns="http://www.w3.org/2000/svg" xml:space="preserve" width="13px" height="21px" version="1.1" shape-rendering="geometricPrecision" text-rendering="geometricPrecision" image-rendering="optimizeQuality" fill-rule="evenodd" clip-rule="evenodd"
viewBox="0 0 502 778"
 xmlns:xlink="http://www.w3.org/1999/xlink">
 <g id="Слой_x0020_1">
  <metadata id="CorelCorpID_0Corel-Layer"/>
  <path fill="#66D4FF" fill-rule="nonzero" d="M53 369l398 0c0,-106 -1,-212 -2,-317l-397 0c0,105 1,211 1,317zm-27 -369l449 0c14,0 26,12 26,26l1 726c0,14 -11,26 -25,26l-450 0c-14,0 -26,-12 -26,-26l-1 -726c0,-14 12,-26 26,-26zm385 119l-30 0c-34,0 -34,-52 0,-52l30 0c34,0 34,52 0,52zm-293 71c13,-63 69,-109 134,-109 64,0 121,46 133,109 17,84 -48,163 -133,163 -86,0 -150,-79 -134,-163zm194 -17c3,-1 7,-2 10,-3 -6,-9 -14,-17 -22,-22 -14,-10 -30,-15 -48,-15 -19,0 -35,5 -49,15 -8,6 -15,13 -21,22 11,4 21,11 31,17 11,7 20,13 38,13 28,0 37,-16 61,-27zm-130 92c16,23 42,36 70,36 46,0 82,-36 84,-82l-4 2c-4,2 -9,5 -14,9 -11,7 -20,12 -31,16 -11,4 -22,6 -36,6 -14,0 -25,-2 -36,-6 -11,-4 -20,-9 -31,-17 -6,-4 -11,-7 -16,-9 1,17 6,32 14,45zm70 178c75,0 136,61 136,136 0,74 -61,135 -136,135 -80,0 -143,-69 -135,-149 6,-69 65,-122 135,-122zm67 89l3 -1c-6,-8 -14,-16 -22,-22 -14,-9 -31,-15 -48,-15 -18,0 -35,6 -49,16 -8,5 -15,13 -21,22 11,4 19,9 28,15 14,10 23,15 41,15 19,0 27,-6 42,-16 5,-5 20,-12 26,-14zm-65 131c39,0 73,-30 81,-68 0,-5 1,-9 1,-14 -8,3 -12,5 -18,10 -11,8 -20,13 -31,17 -11,4 -22,6 -36,6 -32,0 -46,-9 -65,-22 -6,-4 -12,-8 -18,-11l1 14c8,42 43,68 85,68zm-201 63l398 0 0 -305 -398 0 0 305z"/>
 </g>
</svg>
