<svg id="Слой_1" data-name="Слой 1" xmlns="http://www.w3.org/2000/svg" viewBox="0 0 73 81"><defs><style>.cls-1{fill:#0e93c8;}</style></defs><title>47</title><path class="cls-1" d="M8.39.7a.7.7,0,0,0-.7-.7H1A.7.7,0,1,0,1,1.4H7V68.57a.69.69,0,0,0,.7.7H19a5.61,5.61,0,0,0-4,5.67,6.06,6.06,0,1,0,8.11-5.67H51.21a5.74,5.74,0,0,0-4,5.67,6.06,6.06,0,0,0,12.12,0,5.84,5.84,0,0,0-4-5.67h10a.7.7,0,0,0,0-1.39H8.39"/><path class="cls-1" d="M21.09,79.61a4.66,4.66,0,1,1,4.66-4.67A4.68,4.68,0,0,1,21.09,79.61Z"/><path class="cls-1" d="M53.25,79.61a4.66,4.66,0,1,1,4.66-4.67A4.67,4.67,0,0,1,53.25,79.61Z"/><path class="cls-1" d="M10.9,5.92H65.77a.59.59,0,0,1,.59.59V66.28a.6.6,0,0,1,0,.23.58.58,0,0,1-.32.32.62.62,0,0,1-.23,0H10.9a.62.62,0,0,1-.23,0,.55.55,0,0,1-.19-.13.64.64,0,0,1-.13-.19.6.6,0,0,1,0-.23V6.5A.58.58,0,0,1,10.9,5.92Zm37.84,9H44.49a.59.59,0,1,1,0-1.17h4.25a.59.59,0,1,1,0,1.17Zm10.88,0H55.37a.59.59,0,1,1,0-1.17h4.25a.58.58,0,0,1,.59.59A.59.59,0,0,1,59.62,14.88Zm5.57,4.52V7.09H11.49V19.4ZM58.18,48V20.82H18.5V48a8.37,8.37,0,0,0,.63,3.21,8.42,8.42,0,0,0,4.55,4.56,8.37,8.37,0,0,0,3.21.63H49.78A8.37,8.37,0,0,0,53,55.74a8.43,8.43,0,0,0,4.55-4.55A8.3,8.3,0,0,0,58.18,48ZM11.49,20.82V65.69h53.7V20.82H59.36V48a9.51,9.51,0,0,1-.73,3.66,9.63,9.63,0,0,1-5.19,5.19,9.54,9.54,0,0,1-3.66.73H26.9a9.52,9.52,0,0,1-3.66-.73A9.6,9.6,0,0,1,18,51.63,9.51,9.51,0,0,1,17.32,48V20.82Z"/></svg>