<?xml version="1.0" encoding="UTF-8"?>
<!DOCTYPE svg PUBLIC "-//W3C//DTD SVG 1.1//EN" "http://www.w3.org/Graphics/SVG/1.1/DTD/svg11.dtd">
<!-- Creator: CorelDRAW X8 -->
<svg xmlns="http://www.w3.org/2000/svg" xml:space="preserve" width="21px" height="21px" version="1.1" shape-rendering="geometricPrecision" text-rendering="geometricPrecision" image-rendering="optimizeQuality" fill-rule="evenodd" clip-rule="evenodd"
viewBox="0 0 1261 1294"
 xmlns:xlink="http://www.w3.org/1999/xlink">
 <g id="Слой_x0020_1">
  <metadata id="CorelCorpID_0Corel-Layer"/>
  <path fill="#66D4FF" fill-rule="nonzero" d="M970 194l0 -97c-26,0 -736,0 -776,0l0 97 776 0zm194 457l0 -554c-32,0 -64,0 -97,0 0,65 0,489 0,554l97 0zm49 -651c27,0 48,22 48,49l0 651c0,26 -21,48 -48,48l-146 0 0 497c0,27 -21,49 -48,49 -48,0 -846,-2 -873,-2 -27,0 -49,-22 -49,-48l0 -953 -48 0c-27,0 -49,-22 -49,-48 0,-27 22,-49 49,-49l48 0 0 -97 -48 0c-27,0 -49,-22 -49,-48 0,-27 22,-49 49,-49 524,0 759,0 1164,0zm-243 1003l0 -712 -776 0 0 712 776 0zm0 194l0 -97 -776 0 0 97 776 0z"/>
 </g>
</svg>
