<?xml version="1.0" encoding="UTF-8"?>
<!DOCTYPE svg PUBLIC "-//W3C//DTD SVG 1.1//EN" "http://www.w3.org/Graphics/SVG/1.1/DTD/svg11.dtd">
<!-- Creator: CorelDRAW X8 -->
<svg xmlns="http://www.w3.org/2000/svg" xml:space="preserve" width="17px" height="22px" version="1.1" shape-rendering="geometricPrecision" text-rendering="geometricPrecision" image-rendering="optimizeQuality" fill-rule="evenodd" clip-rule="evenodd"
viewBox="0 0 843 1098"
 xmlns:xlink="http://www.w3.org/1999/xlink">
 <g id="Слой_x0020_1">
  <metadata id="CorelCorpID_0Corel-Layer"/>
  <path fill="#66D4FF" fill-rule="nonzero" d="M764 887l0 -749c0,-29 -28,-59 -58,-59l-245 0 0 863 245 0c30,0 58,-25 58,-55zm-216 -581c22,0 40,18 40,40l0 152c0,22 -18,40 -40,40 -22,0 -40,-18 -40,-40l0 -152c0,-22 18,-40 40,-40zm-253 232c-22,0 -40,-18 -40,-40l0 -152c0,-22 18,-40 40,-40 22,0 40,18 40,40l0 152c0,22 -18,40 -40,40zm548 -404l0 757c-2,60 -45,110 -102,126l0 41c0,22 -18,40 -39,40 -22,0 -40,-18 -40,-40l0 -36 -481 0 0 36c0,22 -18,40 -39,40 -22,0 -40,-18 -40,-40l0 -41c-58,-16 -102,-69 -102,-130l0 -749c0,-73 64,-138 138,-138l568 0c72,0 134,62 137,133l0 1zm-764 4l0 749c0,30 30,55 59,55l244 0 0 -863 -244 0c-30,0 -59,30 -59,59z"/>
 </g>
</svg>
