<?xml version="1.0" encoding="UTF-8"?>
<!DOCTYPE svg PUBLIC "-//W3C//DTD SVG 1.1//EN" "http://www.w3.org/Graphics/SVG/1.1/DTD/svg11.dtd">
<!-- Creator: CorelDRAW X8 -->
<svg xmlns="http://www.w3.org/2000/svg" xml:space="preserve" width="18px" height="25px" version="1.1" shape-rendering="geometricPrecision" text-rendering="geometricPrecision" image-rendering="optimizeQuality" fill-rule="evenodd" clip-rule="evenodd"
viewBox="0 0 953 1308"
 xmlns:xlink="http://www.w3.org/1999/xlink">
 <g id="Слой_x0020_1">
  <metadata id="CorelCorpID_0Corel-Layer"/>
  <path fill="#66D4FF" fill-rule="nonzero" d="M814 1308c-18,0 -33,-14 -33,-32l0 -50 -71 0 0 50c0,18 -14,32 -32,32 -18,0 -33,-14 -33,-32l0 -50 -71 0 0 50c0,18 -15,32 -32,32 -18,0 -33,-14 -33,-32l0 -50 -71 0 0 50c0,18 -15,32 -32,32 -18,0 -33,-14 -33,-32l0 -50 -17 0c-49,0 -90,-40 -90,-90l0 -160 -175 0c-50,2 -91,-41 -91,-89l0 -715c0,-49 40,-90 90,-90l17 0 0 -50c0,-18 14,-32 32,-32 18,0 33,14 33,32l0 50 71 0 0 -50c0,-18 14,-32 32,-32 18,0 33,14 33,32l0 50 71 0 0 -50c0,-18 15,-32 32,-32 18,0 33,14 33,32l0 50 71 0 0 -50c0,-18 15,-32 32,-32 18,0 33,14 33,32l0 50 17 0c49,0 90,41 90,90l0 160 176 0c50,0 90,40 90,90 0,238 0,476 0,714 0,50 -40,90 -90,90l-17 0 0 50c0,18 -14,32 -32,32zm49 -147c14,0 25,-11 25,-25l0 -158c-3,-1 -7,-2 -10,-3 -26,-9 -89,-9 -126,0 -44,11 -120,14 -163,0 -26,-9 -89,-9 -126,0 -10,3 -23,5 -36,7 -18,2 -34,-11 -36,-29 -2,-17 11,-33 28,-36 11,-1 21,-2 29,-4 44,-11 119,-14 162,0 27,9 89,9 127,0 40,-11 108,-13 151,-3l0 -56c-3,-1 -6,-2 -10,-3 -26,-9 -89,-9 -126,0 -44,11 -120,14 -163,0 -26,-9 -89,-9 -126,0 -10,3 -23,5 -36,7 -18,2 -34,-11 -36,-29 -2,-17 11,-33 28,-36 11,-1 21,-2 29,-4 44,-11 119,-14 162,0 27,9 89,9 127,0 40,-11 108,-13 151,-3l0 -364c0,-14 -11,-25 -25,-25l-507 0c-14,0 -25,12 -25,25l0 714c0,14 11,25 25,25 152,0 356,0 507,0zm-726 -249l129 0 0 -328 -129 328zm-47 -765c-14,0 -25,11 -25,25l0 715c0,6 2,12 6,16 72,-183 145,-367 217,-551 5,-12 17,-20 30,-20l304 0 0 -160c0,-14 -11,-25 -25,-25 -152,0 -356,0 -507,0z"/>
 </g>
</svg>
