<?xml version="1.0" encoding="UTF-8"?>
<!DOCTYPE svg PUBLIC "-//W3C//DTD SVG 1.1//EN" "http://www.w3.org/Graphics/SVG/1.1/DTD/svg11.dtd">
<!-- Creator: CorelDRAW X8 -->
<svg xmlns="http://www.w3.org/2000/svg" xml:space="preserve" width="25px" height="19px" version="1.1" shape-rendering="geometricPrecision" text-rendering="geometricPrecision" image-rendering="optimizeQuality" fill-rule="evenodd" clip-rule="evenodd"
viewBox="0 0 1816 1365"
 xmlns:xlink="http://www.w3.org/1999/xlink">
 <g id="Слой_x0020_1">
  <metadata id="CorelCorpID_0Corel-Layer"/>
  <path fill="#66D4FF" fill-rule="nonzero" d="M822 746c-3,7 -5,14 -7,21l624 0 -35 -158 -387 0c-75,18 -163,65 -195,137zm-227 240l-73 0c-6,0 -10,-4 -10,-10l0 -83c0,-6 4,-10 10,-10l83 0c6,0 10,4 10,10l0 83c0,6 -4,10 -10,10l-10 0zm-255 0l-74 0c-6,0 -10,-4 -10,-10l0 -83c0,-6 4,-10 10,-10l84 0c5,0 10,4 10,10l0 83c0,6 -5,10 -10,10l-10 0zm128 0l-74 0c-6,0 -10,-4 -10,-10l0 -83c0,-6 4,-10 10,-10l84 0c5,0 10,4 10,10l0 83c0,6 -5,10 -10,10l-10 0zm-384 -160l-74 0c-6,0 -10,-4 -10,-9l0 -84c0,-6 4,-10 10,-10l84 0c5,0 10,4 10,10l0 84c0,5 -5,9 -10,9l-10 0zm0 -383l-74 0c-6,0 -10,-5 -10,-10l0 -84c0,-6 4,-10 10,-10l84 0c5,0 10,4 10,10l0 84c0,5 -5,10 -10,10l-10 0zm0 256l-74 0c-6,0 -10,-5 -10,-10l0 -84c0,-6 4,-10 10,-10l84 0c5,0 10,4 10,10l0 84c0,5 -5,10 -10,10l-10 0zm0 -128l-74 0c-6,0 -10,-5 -10,-10l0 -84c0,-6 4,-10 10,-10l84 0c5,0 10,4 10,10l0 84c0,5 -5,10 -10,10l-10 0zm328 -211l-74 0c-5,0 -10,-5 -10,-10l0 -84c0,-6 5,-10 10,-10l84 0c6,0 10,4 10,10l0 84c0,5 -4,10 -10,10l-10 0zm0 -256l-74 0c-5,0 -10,-5 -10,-10l0 -84c0,-6 5,-10 10,-10l84 0c6,0 10,4 10,10l0 84c0,5 -4,10 -10,10l-10 0zm0 128l-74 0c-5,0 -10,-5 -10,-10l0 -84c0,-6 5,-10 10,-10l84 0c6,0 10,4 10,10l0 84c0,5 -4,10 -10,10l-10 0zm0 256l-74 0c-5,0 -10,-5 -10,-10l0 -84c0,-6 5,-10 10,-10l84 0c6,0 10,4 10,10l0 84c0,5 -4,10 -10,10l-10 0zm-164 -237l-74 0c-5,0 -10,-5 -10,-10l0 -84c0,-5 5,-10 10,-10l84 0c6,0 10,5 10,10l0 84c0,5 -4,10 -10,10l-10 0zm0 384l-74 0c-5,0 -10,-5 -10,-10l0 -84c0,-6 5,-10 10,-10l84 0c6,0 10,4 10,10l0 84c0,5 -4,10 -10,10l-10 0zm0 -256l-74 0c-5,0 -10,-5 -10,-10l0 -84c0,-6 5,-10 10,-10l84 0c6,0 10,4 10,10l0 84c0,5 -4,10 -10,10l-10 0zm0 128l-74 0c-5,0 -10,-5 -10,-10l0 -84c0,-6 5,-10 10,-10l84 0c6,0 10,4 10,10l0 84c0,5 -4,10 -10,10l-10 0zm1397 -53l161 0c6,0 10,5 10,10l0 84c0,5 -4,10 -10,10l-137 0 135 595c1,6 -2,11 -8,12l-1714 0c-5,0 -10,-4 -10,-10l0 -41 1 -3c31,-195 130,-350 264,-469 160,-143 371,-235 578,-284l700 0c5,0 9,4 10,9l20 87zm-1465 608l1497 0 -137 -600 -622 0c-177,49 -359,125 -502,243 -111,92 -197,209 -236,357zm1339 303l-1429 0c-6,0 -10,-4 -10,-10l0 -84c0,-5 4,-10 10,-10l1439 0c6,0 10,5 10,10l0 84c0,6 -4,10 -10,10l-10 0zm-518 -859c58,-11 228,-7 356,-3 50,1 94,2 123,2 5,0 9,4 10,8l76 346c1,5 -3,11 -8,12l-844 0c-6,0 -10,-5 -10,-10l0 -42c0,-167 144,-283 297,-313z"/>
 </g>
</svg>
