<?xml version="1.0" encoding="UTF-8"?>
<!DOCTYPE svg PUBLIC "-//W3C//DTD SVG 1.1//EN" "http://www.w3.org/Graphics/SVG/1.1/DTD/svg11.dtd">
<!-- Creator: CorelDRAW X8 -->
<svg xmlns="http://www.w3.org/2000/svg" xml:space="preserve" width="20px" height="21px" version="1.1" shape-rendering="geometricPrecision" text-rendering="geometricPrecision" image-rendering="optimizeQuality" fill-rule="evenodd" clip-rule="evenodd"
viewBox="0 0 1172 1234"
 xmlns:xlink="http://www.w3.org/1999/xlink">
 <g id="Слой_x0020_1">
  <metadata id="CorelCorpID_0Corel-Layer"/>
  <path fill="#66D4FF" fill-rule="nonzero" d="M1172 246l0 637 -990 0 0 86 847 0c22,0 40,18 40,40 0,22 -18,39 -40,39l-81 0c11,21 18,39 18,64 0,67 -55,122 -122,122 -67,0 -122,-55 -122,-122 0,-25 6,-43 18,-64l-287 0c12,21 18,39 18,64 0,67 -55,122 -122,122 -67,0 -122,-55 -122,-122 0,-25 6,-43 18,-64l-102 0c-22,0 -40,-17 -40,-39l0 -930 -63 0c-22,0 -40,-18 -40,-39 0,-22 18,-40 40,-40l103 0c21,0 39,18 39,40l0 187 990 0 0 19zm-823 909c24,0 43,-19 43,-43 0,-24 -19,-43 -43,-43 -24,0 -43,19 -43,43 0,24 19,43 43,43zm495 0c24,0 43,-19 43,-43 0,-24 -20,-43 -43,-43 -24,0 -43,19 -43,43 0,24 19,43 43,43zm-576 -849l-86 0 0 498 86 0 0 -498zm409 498l86 0 0 -498 -86 0 0 498zm251 -498l-86 0 0 498 86 0 0 -498zm-416 498l86 0 0 -498 -86 0 0 498zm-165 0l86 0 0 -498 -86 0 0 498zm660 0l86 0 0 -498 -86 0 0 498z"/>
 </g>
</svg>
