<svg id="Layer_1" data-name="Layer 1" xmlns="http://www.w3.org/2000/svg" viewBox="0 0 24 30"><defs><style>.cls-1{fill:#b8bac2;}</style></defs><title>file-pdf</title><path class="cls-1" d="M21.8,0h-16A1.93,1.93,0,0,0,3.86,1.93V3.57H1.66A1.38,1.38,0,0,0,.29,4.94V28.63A1.38,1.38,0,0,0,1.66,30H18.77a1.37,1.37,0,0,0,1.37-1.37v-2.2H21.8a1.91,1.91,0,0,0,1.91-1.9V1.9A1.91,1.91,0,0,0,21.8,0Zm-3,28.62H1.67V5h11v4.5A1.57,1.57,0,0,0,14.27,11h4.49ZM14.09,9.45V5.93l3.7,3.7H14.27A.18.18,0,0,1,14.09,9.45Zm8.23,15.06a.54.54,0,0,1-.53.54H20.14V10.31h0a.69.69,0,0,0-.19-.48l-6.06-6a.68.68,0,0,0-.49-.21H5.24V1.93a.55.55,0,0,1,.54-.54h16a.54.54,0,0,1,.53.54Z"/><path class="cls-1" d="M12.1,17.31a6.54,6.54,0,0,1-1.89-3.08,16.83,16.83,0,0,0,.18-2.48v-.39a.37.37,0,0,0,0-.1.28.28,0,0,0,.05-.1,1,1,0,0,0-.12-.88.54.54,0,0,0-.45-.19H9.58c-.27,0-.45.17-.54.52a5,5,0,0,0-.08,1.65,10.32,10.32,0,0,0,.39,2.06A19.67,19.67,0,0,1,8,17.7q-.71,1.45-1.38,2.55a.08.08,0,0,0,0-.05.19.19,0,0,0-.3-.08,6.22,6.22,0,0,0-1.71,1.25,2.81,2.81,0,0,0-.72,1.18.54.54,0,0,0,.08.46l.08.07.31.15a.75.75,0,0,0,.36.09q1.15,0,3.13-3.39a23.33,23.33,0,0,1,5.07-1.07,9.34,9.34,0,0,0,1.68.69,5.32,5.32,0,0,0,1.49.26q.84,0,.92-.49h0l0,0v0a.63.63,0,0,0,0-.67q-.39-.63-2.29-.63a13,13,0,0,0-1.51.09A9.74,9.74,0,0,1,12.1,17.31ZM4.65,22.63a4.26,4.26,0,0,1,.64-1,7.38,7.38,0,0,1,1.13-1.09A5.71,5.71,0,0,1,4.65,22.63ZM9.79,10.73v-.05a.75.75,0,0,1,.17.47v.06a.3.3,0,0,0-.05.1q-.09.52-.09.56c-.05.32-.08.51-.09.57A3.85,3.85,0,0,1,9.79,10.73Zm-1.6,8.54.58-1.07a17.24,17.24,0,0,0,1.07-2.55,6.85,6.85,0,0,0,1.64,2.27l.21.17.17.12A19,19,0,0,0,8.19,19.28Zm8.35-.21,0,0h-.23a4.88,4.88,0,0,1-1.6-.36A3.09,3.09,0,0,1,16.54,19.07Z"/></svg>