<svg id="Layer_1" data-name="Layer 1" xmlns="http://www.w3.org/2000/svg" viewBox="0 0 24 30"><defs><style>.cls-1{fill:#b8bac2;}</style></defs><title>file-xls</title><path class="cls-1" d="M21.8,0h-16A1.93,1.93,0,0,0,3.86,1.93V3.57H1.66A1.38,1.38,0,0,0,.29,4.94V28.63A1.38,1.38,0,0,0,1.66,30H18.77a1.37,1.37,0,0,0,1.37-1.37v-2.2H21.8a1.91,1.91,0,0,0,1.91-1.9V1.9A1.91,1.91,0,0,0,21.8,0Zm-3,28.62H1.67V5h11v4.5A1.57,1.57,0,0,0,14.27,11h4.49ZM14.09,9.45V5.93l3.7,3.7H14.27A.18.18,0,0,1,14.09,9.45Zm8.23,15.06a.54.54,0,0,1-.53.54H20.14V10.31h0a.69.69,0,0,0-.19-.48l-6.06-6a.68.68,0,0,0-.49-.21H5.24V1.93a.55.55,0,0,1,.54-.54h16a.54.54,0,0,1,.53.54Z"/><path class="cls-1" d="M11,15.63H12l-1.48,2.28-.14.24-.13.19,0,0h0a.51.51,0,0,0-.07-.14,1.74,1.74,0,0,0-.24-.33L8.37,15.63H9.46V14.09H5.29v1.54h1L9,19.53,6.2,23.6h-1v1.52h4V23.6H8.18l1.48-2.31A2,2,0,0,0,9.8,21l.11-.19s0-.06.05-.06h0a.47.47,0,0,0,.07.14l.06.11.09.12.09.12,1.54,2.31H10.75v1.52h4.18V23.6H14L11.2,19.68l2.8-4h1V14.09H11Z"/></svg>