<?xml version="1.0" encoding="UTF-8"?>
<!DOCTYPE svg PUBLIC "-//W3C//DTD SVG 1.1//EN" "http://www.w3.org/Graphics/SVG/1.1/DTD/svg11.dtd">
<!-- Creator: CorelDRAW X8 -->
<svg xmlns="http://www.w3.org/2000/svg" xml:space="preserve" width="28px" height="18px" version="1.1" shape-rendering="geometricPrecision" text-rendering="geometricPrecision" image-rendering="optimizeQuality" fill-rule="evenodd" clip-rule="evenodd"
viewBox="0 0 10275 6527"
 xmlns:xlink="http://www.w3.org/1999/xlink">
 <g id="Слой_x0020_1">
  <metadata id="CorelCorpID_0Corel-Layer"/>
  <path fill="#333333" d="M3264 2797c-2,370 0,741 1,1112 622,20 1245,11 1866,20 -274,1379 -2149,1826 -3142,926 -1020,-790 -972,-2523 89,-3257 741,-592 1796,-445 2538,68 291,-270 564,-559 827,-858 -617,-492 -1374,-842 -2179,-805 -1682,-56 -3227,1416 -3255,3097 -108,1375 796,2722 2072,3208 1271,489 2901,156 3713,-986 536,-721 651,-1650 589,-2523 -1041,-7 -2080,-6 -3119,-2zm6079 -5c-3,-310 -5,-622 -6,-932 -310,0 -619,0 -927,0 -4,310 -7,620 -8,932 -312,1 -622,3 -932,6 0,310 0,619 0,927 310,3 622,7 932,9 3,311 3,621 6,931 310,0 619,0 929,0 1,-310 3,-620 6,-932 312,-3 622,-5 932,-8 0,-308 0,-618 0,-927 -310,-3 -622,-3 -932,-6z"/>
 </g>
</svg>
