<?xml version="1.0" encoding="UTF-8"?>
<!DOCTYPE svg PUBLIC "-//W3C//DTD SVG 1.1//EN" "http://www.w3.org/Graphics/SVG/1.1/DTD/svg11.dtd">
<!-- Creator: CorelDRAW X8 -->
<svg xmlns="http://www.w3.org/2000/svg" xml:space="preserve" width="20px" height="20px" version="1.1" shape-rendering="geometricPrecision" text-rendering="geometricPrecision" image-rendering="optimizeQuality" fill-rule="evenodd" clip-rule="evenodd"
viewBox="0 0 5124 5124"
 xmlns:xlink="http://www.w3.org/1999/xlink">
 <g id="Слой_x0020_1">
  <metadata id="CorelCorpID_0Corel-Layer"/>
  <path fill="#333333" d="M4231 1199c0,170 -137,307 -306,307 -169,0 -306,-137 -306,-307 0,-169 137,-306 306,-306 169,0 306,137 306,306zm-1669 2215c-470,0 -851,-382 -851,-852 0,-470 381,-851 851,-851 470,0 851,381 851,851 0,470 -381,852 -851,852zm0 -2163c-724,0 -1311,587 -1311,1311 0,724 587,1312 1311,1312 724,-1 1311,-588 1311,-1312 0,-724 -587,-1311 -1311,-1311zm-1053 -1227c-272,13 -457,56 -620,119 -168,65 -310,153 -452,294 -142,142 -229,285 -294,453 -64,162 -107,348 -119,619 -32,699 -32,1408 0,2106 12,272 55,457 119,620 65,168 152,310 294,452 142,142 284,229 452,295 163,63 348,106 620,118 698,32 1408,32 2106,0 272,-12 457,-55 620,-118 167,-66 310,-153 452,-295 142,-142 229,-284 294,-452 63,-163 107,-348 119,-620 32,-698 32,-1407 0,-2106 -12,-271 -56,-457 -119,-619 -65,-168 -152,-311 -294,-453 -142,-141 -285,-229 -452,-294 -163,-63 -348,-106 -620,-119 -698,-32 -1408,-32 -2106,0zm2085 460c249,11 384,53 474,88 119,46 204,101 293,191 90,89 145,174 192,293 35,90 76,226 87,475 32,683 32,1379 0,2063 -11,249 -52,384 -87,474 -47,119 -102,205 -192,294 -89,89 -174,145 -293,191 -90,35 -225,76 -474,88 -684,31 -1380,31 -2064,0 -249,-12 -384,-53 -474,-88 -119,-46 -204,-102 -294,-191 -89,-89 -144,-174 -191,-294 -35,-90 -76,-225 -88,-474 -30,-684 -30,-1379 0,-2063 12,-249 53,-385 88,-475 47,-119 102,-204 191,-293 90,-90 175,-145 294,-191 90,-35 225,-77 474,-88 684,-31 1380,-31 2064,0z"/>
 </g>
</svg>
