<?xml version="1.0" encoding="UTF-8"?>
<!DOCTYPE svg PUBLIC "-//W3C//DTD SVG 1.1//EN" "http://www.w3.org/Graphics/SVG/1.1/DTD/svg11.dtd">
<!-- Creator: CorelDRAW X8 -->
<svg xmlns="http://www.w3.org/2000/svg" xml:space="preserve" width="24px" height="14px" version="1.1" shape-rendering="geometricPrecision" text-rendering="geometricPrecision" image-rendering="optimizeQuality" fill-rule="evenodd" clip-rule="evenodd"
viewBox="0 0 7201 4216"
 xmlns:xlink="http://www.w3.org/1999/xlink">
 <g id="Слой_x0020_1">
  <metadata id="CorelCorpID_0Corel-Layer"/>
  <path fill="#333333" fill-rule="nonzero" d="M5982 2067c0,0 949,-1338 1043,-1778 32,-157 -37,-245 -201,-245 0,0 -546,0 -823,0 -188,0 -258,82 -314,201 0,0 -445,948 -987,1546 -173,193 -262,251 -358,251 -77,0 -113,-64 -113,-239l0 -1527c0,-213 -25,-276 -201,-276l-1320 0c-100,0 -163,58 -163,138 0,201 308,247 308,792l0 1125c0,226 -13,314 -120,314 -282,0 -955,-974 -1332,-2080 -75,-226 -157,-289 -371,-289l-823 0c-119,0 -207,82 -207,201 0,220 258,1238 1269,2602 679,917 1571,1413 2376,1413 490,0 609,-81 609,-289l0 -703c0,-176 69,-252 170,-252 113,0 313,37 779,497 553,528 591,747 892,747l924 0c94,0 182,-44 182,-201 0,-207 -270,-578 -685,-1018 -169,-226 -446,-471 -534,-584 -125,-132 -88,-207 0,-346z"/>
 </g>
</svg>
