<svg width="28px" height="28px" viewBox="0 0 28 28" fill="none" xmlns="http://www.w3.org/2000/svg">
	<g id="Слой_x0020_1">
<path fill-rule="evenodd" clip-rule="evenodd" d="M7.93508 19.5137C7.80373 19.9029 7.67251 20.2916 7.5422 20.6804C8.01158 20.5281 8.4822 20.3746 8.95283 20.221C9.42345 20.0675 9.89407 19.9139 10.3634 19.7617C11.4869 20.5156 13.1697 21 14.4979 21C18.6374 21 21.9979 17.6445 21.9979 13.5C21.9979 9.36052 18.6424 6 14.4979 6C10.4433 6 7.13275 9.21571 7.00292 13.2653C6.95299 14.8282 7.5472 16.6858 8.46098 17.9491C8.28669 18.4719 8.11077 18.9932 7.93508 19.5137ZM11.462 9.46021C11.3372 9.46021 11.0975 9.615 11.0975 9.615C10.3734 10.0744 10.2536 11.1579 10.2286 11.3876C10.2087 11.6223 10.1887 12.1167 10.5682 12.9506C10.9527 13.7844 11.8814 14.9129 13.0349 15.9865C14.1488 17.0233 15.8309 17.4919 16.4261 17.6577C16.4472 17.6636 16.467 17.6691 16.4853 17.6743C17.0196 17.8241 18.1481 17.5594 18.6774 16.9852C19.1518 16.4704 19.1047 15.9396 19.0826 15.6913C19.0801 15.6626 19.0779 15.6377 19.0768 15.617C19.0668 15.4173 18.8871 15.3873 18.8871 15.3873C18.8871 15.3873 17.424 14.6782 17.1244 14.5434C16.8198 14.4036 16.67 14.6283 16.67 14.6283C16.67 14.6283 16.2256 15.1926 16.0808 15.3723C16.0694 15.3874 16.0584 15.4024 16.0476 15.4171C15.926 15.5821 15.8305 15.7117 15.4866 15.597C15.1121 15.4772 14.3681 15.0727 13.7589 14.5284C13.1497 13.9792 12.6804 13.2601 12.5505 13.0404C12.4157 12.8207 12.5705 12.6809 12.5705 12.6809C12.5705 12.6809 12.955 12.2365 13.1397 11.9968C13.3245 11.7621 13.2097 11.4925 13.1647 11.3876C13.1248 11.2778 12.5306 9.88464 12.4407 9.6899C12.3558 9.49516 12.166 9.46021 12.166 9.46021H11.462Z" fill="#333333"/>
</g>
</svg>
