<svg width="23" height="16" fill="none" xmlns="http://www.w3.org/2000/svg"><path d="M22.195 3.397s-.219-1.543-.891-2.222C20.452.283 19.496.28 19.058.227 15.92 0 11.215 0 11.215 0h-.01S6.499 0 3.36.227c-.438.052-1.393.056-2.246.948-.672.68-.89 2.222-.89 2.222S0 5.208 0 7.019v1.698c0 1.812.225 3.623.225 3.623s.218 1.542.89 2.222c.853.891 1.973.863 2.472.956 1.794.172 7.622.225 7.622.225s4.712-.007 7.849-.233c.438-.052 1.394-.057 2.246-.948.672-.68.891-2.222.891-2.222s.224-1.811.224-3.623V7.02c0-1.81-.224-3.622-.224-3.622zm-13.3 7.378V4.486l6.057 3.155-6.057 3.134z" fill="#333"/></svg>