<?xml version="1.0" encoding="UTF-8"?>
<!DOCTYPE svg PUBLIC "-//W3C//DTD SVG 1.1//EN" "http://www.w3.org/Graphics/SVG/1.1/DTD/svg11.dtd">
<!-- Creator: CorelDRAW X8 -->
<svg xmlns="http://www.w3.org/2000/svg" xml:space="preserve" width="90px" height="59px" version="1.1" shape-rendering="geometricPrecision" text-rendering="geometricPrecision" image-rendering="optimizeQuality" fill-rule="evenodd" clip-rule="evenodd"
viewBox="0 0 59275 38811"
 xmlns:xlink="http://www.w3.org/1999/xlink">
 <g id="Слой_x0020_1">
  <metadata id="CorelCorpID_0Corel-Layer"/>
  <path fill="#434E66" d="M58933 19094l-4141 -2404 -2289 -9782c-129,-551 -346,-1062 -633,-1517 -295,-466 -666,-877 -1093,-1216 -427,-338 -911,-606 -1432,-786 -506,-175 -1053,-269 -1622,-269l-11848 0 0 -2433c0,-95 -18,-184 -51,-263 -35,-83 -86,-159 -150,-223 -64,-64 -140,-115 -223,-150 -79,-33 -168,-51 -263,-51l-34501 0c-95,0 -184,18 -263,50 -83,36 -159,87 -223,151 -64,64 -115,140 -150,223 -33,79 -51,168 -51,263l0 32048c0,95 18,184 50,263 36,83 87,159 151,223 64,64 140,115 223,150 79,33 168,51 263,51l4856 0 107 527c141,692 400,1342 753,1926 362,596 825,1128 1364,1568 533,435 1142,782 1802,1017 635,227 1322,351 2037,351 715,0 1402,-124 2037,-351 661,-235 1269,-582 1802,-1017 539,-440 1002,-972 1364,-1568 353,-584 612,-1234 753,-1926l107 -527 21383 0 107 527c141,692 400,1342 753,1926 362,597 825,1128 1364,1569 533,434 1141,782 1802,1017 635,226 1322,350 2037,350 714,0 1400,-124 2036,-351 661,-235 1270,-582 1802,-1017 540,-440 1003,-971 1364,-1568 354,-584 613,-1234 754,-1926l107 -527 7408 0c95,0 184,-18 263,-51 83,-34 159,-86 223,-150 65,-64 117,-140 150,-222 33,-79 51,-168 51,-263l2 -13049c0,-59 -8,-119 -23,-176 -16,-60 -39,-116 -68,-167 -28,-48 -65,-95 -109,-140 -43,-43 -91,-81 -142,-110zm-47327 18343c-634,0 -1240,-127 -1795,-357 -574,-238 -1092,-588 -1526,-1021 -434,-434 -784,-952 -1023,-1528 -230,-555 -358,-1162 -358,-1795 0,-635 128,-1242 357,-1797 239,-575 589,-1094 1022,-1527 432,-432 951,-782 1527,-1021 555,-230 1162,-357 1796,-357 634,0 1241,127 1795,357 574,238 1092,588 1526,1021 434,434 784,953 1023,1528 231,555 358,1162 358,1796 0,633 -127,1240 -358,1795 -239,576 -589,1094 -1022,1527 -434,433 -951,783 -1525,1022 -555,230 -1163,357 -1797,357zm22238 -5388l-16175 0 -107 -527c-141,-692 -400,-1342 -753,-1926 -362,-597 -825,-1128 -1364,-1569 -533,-435 -1141,-781 -1802,-1017 -635,-226 -1322,-350 -2037,-350 -715,0 -1402,124 -2037,350 -660,235 -1269,582 -1802,1017 -539,441 -1002,972 -1364,1569 -353,584 -612,1234 -753,1926l-107 527 -4170 0 0 -8270 33128 0 0 8270 -657 0zm657 -28242l0 18599 -33128 0 0 -21033 33128 0 0 2434zm9831 687l3392 0c402,0 794,68 1163,196 377,131 726,324 1034,568 308,245 575,541 787,876 208,328 364,694 456,1089l2159 9227 -9649 0 0 -11956 658 0zm783 32943c-607,0 -1189,-116 -1722,-327 -552,-219 -1055,-541 -1485,-944 -431,-403 -786,-885 -1041,-1422 -247,-520 -401,-1093 -441,-1696l-6 -80 28 -167 0 -130 -28 -165 6 -82c40,-604 194,-1177 441,-1697 255,-537 610,-1019 1041,-1422 430,-403 933,-725 1485,-944 533,-211 1115,-327 1722,-327 634,0 1240,127 1795,357 574,238 1092,588 1526,1021 434,434 784,953 1023,1528 230,555 358,1162 358,1796 0,633 -128,1240 -358,1795 -239,576 -589,1094 -1022,1527 -434,433 -951,783 -1525,1022 -555,230 -1163,357 -1797,357zm12127 -11769l-3215 0 0 -2740 3873 0 0 2740 -658 0zm0 -4113l-3902 0c-95,0 -185,18 -263,51 -83,35 -159,86 -223,150 -64,64 -116,140 -150,223 -33,79 -51,168 -51,263l0 4112c0,96 18,185 50,264 34,82 85,158 149,222 64,64 140,115 224,150 79,32 168,51 264,51l4560 0 0 5008 -6722 0 -107 -527c-141,-692 -400,-1342 -754,-1926 -361,-597 -824,-1128 -1364,-1569 -532,-435 -1141,-782 -1801,-1017 -635,-226 -1322,-350 -2037,-350 -715,0 -1402,124 -2037,350 -661,235 -1269,582 -1802,1017 -539,441 -1002,972 -1364,1569 -353,584 -612,1234 -753,1926l-107 527 -3177 0 0 -27554 6426 1 0 12640c0,96 18,186 51,265 34,83 85,158 148,222 64,64 141,115 224,149 79,33 168,51 263,51l11015 0 3898 2264 0 1468 -658 0z"/>
 </g>
</svg>
