<svg xmlns="http://www.w3.org/2000/svg" width="55" height="54" viewBox="0 0 55 54">
  <metadata><?xpacket begin="﻿" id="W5M0MpCehiHzreSzNTczkc9d"?>
<x:xmpmeta xmlns:x="adobe:ns:meta/" x:xmptk="Adobe XMP Core 5.6-c138 79.159824, 2016/09/14-01:09:01        ">
   <rdf:RDF xmlns:rdf="http://www.w3.org/1999/02/22-rdf-syntax-ns#">
      <rdf:Description rdf:about=""/>
   </rdf:RDF>
</x:xmpmeta>
                                                                                                    
                                                                                                    
                                                                                                    
                                                                                                    
                                                                                                    
                                                                                                    
                                                                                                    
                                                                                                    
                                                                                                    
                                                                                                    
                                                                                                    
                                                                                                    
                                                                                                    
                                                                                                    
                                                                                                    
                                                                                                    
                                                                                                    
                                                                                                    
                                                                                                    
                                                                                                    
                           
<?xpacket end="w"?></metadata>
<defs>
    <style>
      .cls-1 {
        fill: #434e66;
        fill-rule: evenodd;
      }
    </style>
  </defs>
  <path class="cls-1" d="M777.268,1272.33a10.85,10.85,0,1,0,15.379,0A10.923,10.923,0,0,0,777.268,1272.33Zm15.86,12.45v-9.58A9.443,9.443,0,0,1,793.128,1284.78Zm-1.394-11.39v13.2c-0.025.02-.048,0.05-0.073,0.07a9.521,9.521,0,0,1-13.407,0,9.646,9.646,0,0,1-1.4-1.78h0.8a0.7,0.7,0,1,0,0-1.39h-1.5a9.423,9.423,0,0,1-.638-4.29H781a0.7,0.7,0,1,0,0-1.39h-5.262a9.3,9.3,0,0,1,2.323-4.29h8.934a0.7,0.7,0,0,0,.7-0.7,0.694,0.694,0,0,0-.7-0.69h-7.287a9.518,9.518,0,0,1,11.954,1.18C791.686,1273.34,791.709,1273.36,791.734,1273.39Zm14.531,24.28-10.1-10.06a13.471,13.471,0,0,0-1.611-17.18,13.508,13.508,0,0,0-3.517-2.52v-6.22a0.694,0.694,0,0,0-.7-0.69H759.764a0.7,0.7,0,0,0-.493.2l-7.067,7.04a0.7,0.7,0,0,0-.2.49v45.58a0.694,0.694,0,0,0,.7.69H790.34a0.694,0.694,0,0,0,.7-0.69v-22.24a13.123,13.123,0,0,0,1.576-.93l10.1,10.06A2.5,2.5,0,1,0,806.265,1297.67Zm-9.13-17.68a12,12,0,0,1-3.567,8.57,12.225,12.225,0,0,1-17.222,0,12.091,12.091,0,0,1,0-17.15,12.244,12.244,0,0,1,17.223,0A12.031,12.031,0,0,1,797.135,1279.99Zm-38.068-16.62v4.67H754.38Zm30.576,50.24H753.394v-44.19h6.37a0.694,0.694,0,0,0,.7-0.69v-6.34h29.182v4.92a13.614,13.614,0,0,0-14.282,3.12,13.776,13.776,0,0,0-2.179,2.83h-6.543a0.694,0.694,0,0,0-.7.69,0.7,0.7,0,0,0,.7.7h5.845a13.269,13.269,0,0,0-.868,2.84H758.762a0.7,0.7,0,1,0,0,1.39h12.669c-0.03.37-.046,0.74-0.046,1.11a13.923,13.923,0,0,0,.111,1.74h-6.53a0.69,0.69,0,1,0,0,1.38h6.783a13.379,13.379,0,0,0,1.027,2.85H758.762a0.7,0.7,0,1,0,0,1.39h14.809a13.489,13.489,0,0,0,1.789,2.19c0.229,0.23.467,0.45,0.707,0.65h-2.388a0.7,0.7,0,1,0,0,1.39h4.307a13.724,13.724,0,0,0,11.657,1.09v20.94Zm4.911-24.07q0.4-.39.757-0.81l7.148,7.11-1.577,1.57-7.151-7.12A10.424,10.424,0,0,0,794.554,1289.54Zm10.725,10.68a1.125,1.125,0,0,1-1.577,0l-1.834-1.82,1.577-1.58,1.834,1.83A1.106,1.106,0,0,1,805.279,1300.22Zm-46.517-25.57h5.577a0.7,0.7,0,0,0,.7-0.7,0.694,0.694,0,0,0-.7-0.69h-5.577a0.694,0.694,0,0,0-.7.69A0.7,0.7,0,0,0,758.762,1274.65Zm0,8.46H762.6a0.69,0.69,0,1,0,0-1.38h-3.834A0.69,0.69,0,1,0,758.762,1283.11Zm0,8.47H771.63a0.7,0.7,0,1,0,0-1.39H758.762A0.7,0.7,0,1,0,758.762,1291.58Zm25.513,2.85H764.06a0.694,0.694,0,0,0-.7.69,0.7,0.7,0,0,0,.7.7h20.215a0.7,0.7,0,0,0,.7-0.7A0.694,0.694,0,0,0,784.275,1294.43Zm-25.513,1.39h3.067a0.7,0.7,0,0,0,.7-0.7,0.694,0.694,0,0,0-.7-0.69h-3.067a0.694,0.694,0,0,0-.7.69A0.7,0.7,0,0,0,758.762,1295.82Zm25.513,7.08H771.1a0.69,0.69,0,1,0,0,1.38h13.175A0.69,0.69,0,1,0,784.275,1302.9Zm-25.513,1.38h10.149a0.69,0.69,0,1,0,0-1.38H758.762A0.69,0.69,0,1,0,758.762,1304.28Zm25.513,2.85h-7.459a0.7,0.7,0,1,0,0,1.39h7.459A0.7,0.7,0,1,0,784.275,1307.13Zm-9.536,0H762.261a0.7,0.7,0,1,0,0,1.39h12.478A0.7,0.7,0,1,0,774.739,1307.13Zm-14.583,0h-1.394a0.7,0.7,0,1,0,0,1.39h1.394A0.7,0.7,0,1,0,760.156,1307.13Zm24.119-8.47h-4.252a0.7,0.7,0,1,0,0,1.39h4.252A0.7,0.7,0,1,0,784.275,1298.66Zm-25.513,1.39h18.821a0.7,0.7,0,1,0,0-1.39H758.762A0.7,0.7,0,1,0,758.762,1300.05Zm28.232-22.24h-2.44a0.7,0.7,0,1,0,0,1.39h2.44A0.7,0.7,0,1,0,786.994,1277.81Zm0,5.68h-6.413a0.7,0.7,0,1,0,0,1.39h6.413A0.7,0.7,0,1,0,786.994,1283.49Z" transform="translate(-752 -1261)"/>
</svg>
