<svg width="20" height="15" viewBox="0 0 20 15" fill="none" xmlns="http://www.w3.org/2000/svg">
<path d="M10.002 7.5L0.0117188 2.44141V1.25C0.0117188 0.898438 0.135296 0.602214 0.382451 0.361328C0.629605 0.120443 0.922288 0 1.2605 0H18.7434C19.0816 0 19.3743 0.120443 19.6215 0.361328C19.8686 0.602214 19.9922 0.898438 19.9922 1.25V2.44141L10.002 7.5ZM9.37757 8.75H10.6264L19.9922 3.88672V13.75C19.9922 14.0885 19.8686 14.3815 19.6215 14.6289C19.3743 14.8763 19.0816 15 18.7434 15H1.2605C0.922288 15 0.629605 14.8763 0.382451 14.6289C0.135296 14.3815 0.0117188 14.0885 0.0117188 13.75V3.88672L9.37757 8.75Z" fill="#AD8BD7"/>
</svg>
