<?xml version="1.0" encoding="utf-8"?><svg xmlns="http://www.w3.org/2000/svg" xmlns:xlink="http://www.w3.org/1999/xlink"><symbol shape-rendering="geometricPrecision" text-rendering="geometricPrecision" image-rendering="optimizeQuality" fill-rule="evenodd" clip-rule="evenodd" viewBox="0 0 1138 1138" id="1" xmlns="http://www.w3.org/2000/svg"><path fill-rule="nonzero" d="M42 0h1054c6 0 11 1 16 3s10 5 14 9c3 4 6 8 8 12l1 3c2 4 3 10 3 15v1054c0 5-1 10-2 14l-1 2c-2 5-5 10-9 14s-9 7-14 9-11 3-16 3H42c-5 0-11-1-15-3h-1c-5-2-10-5-14-9-3-3-6-7-8-11l-1-3c-2-5-3-10-3-16V42c0-5 1-11 3-16s5-10 9-14 9-7 14-9 11-3 16-3zm727 187h-82c-4 0-9-1-13-2l-3-2c-3-1-7-3-10-5l-4-4c-3-3-6-7-8-11l-1-2c-2-6-3-11-3-17 0-5 1-10 3-15v-1c2-5 6-10 10-14 3-2 6-5 9-7l5-2c4-2 10-3 15-3h82c5 0 11 1 16 3l9 6 5 4c4 3 7 8 9 13v1c2 5 3 10 3 15 0 6-1 11-3 16v1c-2 3-4 7-6 10l-3 3c-4 4-9 7-14 9-5 3-11 4-16 4zm209 0h-82c-4 0-9-1-13-2l-3-2c-5-2-10-5-14-9-3-3-6-7-8-11l-1-2c-2-5-3-11-3-17 0-5 1-10 3-15v-1c2-5 5-10 9-13 4-4 9-7 14-10 5-2 11-3 16-3h82c5 0 11 1 15 3 5 2 9 5 13 8l2 2c3 3 6 7 8 11l1 2c2 5 3 11 3 16s-1 10-2 14l-1 2c-2 4-4 7-6 11l-3 3c-4 4-9 7-14 9-5 3-11 4-16 4zM440 364c40-17 83-26 129-26s90 9 130 26c41 17 79 42 110 73s56 69 73 110 26 84 26 130-9 90-26 130c-17 41-42 79-73 110s-69 56-110 73c-40 17-84 26-130 26s-89-9-129-26c-42-17-79-42-111-73-31-31-56-69-73-110-17-40-26-84-26-130s9-89 26-130 42-79 73-110c32-31 69-56 111-73zm205 70c-24-8-49-12-76-12-26 0-52 4-76 12-25 8-48 19-69 34-22 15-41 33-56 54-12 14-21 30-29 46 21 4 40 11 56 19 22 10 39 21 54 32h1c32 22 60 41 117 41 15 0 28-1 38-3 11-2 21-5 30-9 17-7 33-18 49-29 7-5 15-10 24-16l2-1c9-6 19-11 31-17 11-5 23-9 37-13 7-2 14-3 21-4-8-17-17-32-28-47-16-20-35-38-57-53-21-15-44-26-69-34zM472 912c30 13 63 20 97 20 35 0 68-7 97-20 31-12 60-31 83-55 23-23 42-51 55-81l1-2c12-30 19-62 19-97 0-10-1-18-2-28l-18 3c-9 3-18 6-26 9-7 3-14 7-21 11l-2 1c-8 6-16 11-23 16-19 12-38 26-65 37s-59 18-100 18-73-7-100-18-46-25-65-37l-23-15c-7-5-14-9-22-12-8-4-16-7-25-9-5-1-11-2-16-3-1 10-1 17-2 27 0 35 7 67 20 97 12 31 31 58 54 81l1 2c24 24 52 43 83 55zm582-700V84H84v128h970zM84 296v758h970V296H84z"/></symbol><symbol shape-rendering="geometricPrecision" text-rendering="geometricPrecision" image-rendering="optimizeQuality" fill-rule="evenodd" clip-rule="evenodd" viewBox="0 0 1142 1142" id="10" xmlns="http://www.w3.org/2000/svg"><path fill-rule="nonzero" d="M1064 428H961c-8 0-14-4-17-12-3-7-2-15 4-20l73-73c30-31 30-79 0-109l-93-93c-29-30-80-30-109 0l-73 73c-6 5-13 7-21 4-7-3-11-9-11-18V77c0-42-35-77-78-77H505c-42 0-77 35-77 77v103c-1 9-3 14-11 18-8 3-15 2-21-4l-73-73c-29-30-80-30-109 0l-93 93c-26 26-30 67-10 97 3 5 6 8 10 12l73 73c5 6 7 13 4 20-4 9-9 11-18 12H77c-42 0-77 35-77 77v131c0 43 35 78 77 78h103c9 1 14 3 18 11 3 9 1 14-4 21l-73 73c-30 30-30 79 0 109l93 93c29 29 79 29 109 0l73-73c5-6 13-7 20-4 8 3 12 9 12 17v103c0 43 35 78 77 78h131c43 0 78-35 78-78V961c1-8 2-13 11-17 7-3 15-1 21 4l73 73c29 29 80 29 109 0l93-93c30-30 30-79 0-109l-73-73-3-4c-1-2-2-4-2-5v-1c-1-2-1-3-1-5 1-2 1-4 2-6s2-3 3-4c1-2 2-3 3-4h1c1-1 3-2 5-3h108c43 0 78-35 78-78V505c0-42-35-77-78-77zM367 571c0 112 91 204 204 204 112 0 204-92 204-204 0-113-92-204-204-204-113 0-204 91-204 204zm82 0c0-67 55-122 122-122s122 55 122 122-55 122-122 122-122-55-122-122zm602 61h-90c-41 0-77 24-93 62s-7 81 22 110l69 69-86 86-69-69c-29-29-72-38-110-22s-62 52-62 93v99H510v-99c0-41-24-77-62-93-42-12-78-11-110 22l-70 69-86-86 70-69c29-29 37-72 21-110-15-38-52-62-93-62H82V510h98c42 0 78-24 93-62 16-39 8-81-21-110l-70-70 86-86 70 70c29 29 71 37 110 21 38-15 62-51 62-93V82h122v98c0 41 24 78 62 93 38 16 81 8 110-21l69-70 86 86-69 70c-29 29-38 71-22 110 16 38 52 62 93 62h99v122h-9z"/></symbol><symbol shape-rendering="geometricPrecision" text-rendering="geometricPrecision" image-rendering="optimizeQuality" fill-rule="evenodd" clip-rule="evenodd" viewBox="0 0 1158 1186" id="11" xmlns="http://www.w3.org/2000/svg"><path fill-rule="nonzero" d="M936 1094c17 0 31-14 31-32 0-17-14-31-31-31-18 0-32 14-32 31 0 18 14 32 32 32zM421 752h644V93H895v221c0 20-17 37-37 37H629c-21 0-38-17-38-37V93H421v659zM820 93H666v183h154V93zM374 0h738c25 0 46 21 46 46v753c0 25-21 46-46 46H374c-25 0-46-21-46-46V46c0-25 21-46 46-46zm-43 1094c17 0 31-14 31-32 0-17-14-31-31-31s-31 14-31 31c0 18 14 32 31 32zM219 936h893c25 0 46 20 46 46s-21 46-46 46h-57l2 11c8 41-5 82-34 111-48 48-127 48-175 0-29-29-42-70-34-111l2-11H450l3 11c7 41-5 82-34 111-49 48-127 48-176 0-29-29-42-70-34-111l3-11h-39c-26 0-47-20-47-46V266H46c-25 0-46-21-46-46 0-26 21-47 46-47h127c25 0 46 21 46 47v716z"/></symbol><symbol shape-rendering="geometricPrecision" text-rendering="geometricPrecision" image-rendering="optimizeQuality" fill-rule="evenodd" clip-rule="evenodd" viewBox="0 0 16614 17901" id="12" xmlns="http://www.w3.org/2000/svg"><path fill-rule="nonzero" d="M16461 0H153C67 0 0 67 0 153v17595c0 85 67 153 153 153h16308c85 0 153-69 153-153V153c0-86-67-153-153-153zm-6325 2527h1262c42 0 80-17 108-44s45-66 45-108c0-43-17-82-45-109s-66-44-108-44h-1262c-43 0-81 17-109 44s-44 66-44 109c0 42 16 81 44 108s66 44 109 44zm3233 0h1262c42 0 81-17 108-44 28-27 45-66 45-108 0-43-17-82-45-109-27-27-66-44-108-44h-1262c-43 0-81 17-109 44-27 27-44 66-44 109 0 42 17 80 45 108 27 27 66 44 108 44zM8307 5869c-1309 0-2496 532-3355 1392-860 860-1393 2047-1393 3356s533 2496 1393 3355c859 860 2046 1392 3355 1392s2496-532 3356-1392c859-859 1392-2046 1392-3355s-533-2496-1392-3356c-860-860-2047-1392-3356-1392zm0 306c941 0 1815 294 2534 795 739 516 1315 1251 1633 2110l101 272-290 23c-458 36-816 143-1117 280-304 139-560 314-801 479-276 189-534 365-860 499-329 135-715 221-1233 221-1042 0-1529-334-2093-720-463-317-981-672-1857-755l-284-26 98-268c317-859 893-1596 1633-2112 720-503 1595-798 2536-798zm0 8884c-1224 0-2335-499-3139-1303s-1303-1915-1303-3139c0-129 6-258 18-385 12-131 28-256 49-375l33-193 196 11c438 25 775 117 1068 248 289 129 526 291 778 464 529 362 1129 773 2267 773s1737-411 2266-773c260-178 503-344 802-475 303-132 653-222 1115-240l192-8 33 190c21 119 37 244 49 376 12 134 18 263 18 387 0 1224-498 2335-1302 3139-805 804-1915 1303-3140 1303zM16308 526v3388H306V306h16002v220zM306 17375V4220h16002v13375H306v-220z"/></symbol><symbol shape-rendering="geometricPrecision" text-rendering="geometricPrecision" image-rendering="optimizeQuality" fill-rule="evenodd" clip-rule="evenodd" viewBox="0 0 14127 16614" id="13" xmlns="http://www.w3.org/2000/svg"><path fill-rule="nonzero" d="M148 0h13831c82 0 148 66 148 148v15066c0 20-4 40-11 57-7 18-18 35-32 48-13 14-30 25-48 32s-37 12-57 12H148c-20 0-39-5-57-12s-34-18-48-32c-13-13-24-30-32-48-7-17-11-37-11-57V148C0 65 65 0 148 0zm12065 16318h1766c82 0 148 67 148 148 0 83-65 148-148 148h-1766c-20 0-40-4-57-11-55-23-91-77-91-137 0-81 66-148 148-148zm-12065 0h1767c82 0 148 67 148 148 0 83-66 148-148 148H148c-81 0-148-66-148-148s66-148 148-148zM9685 2260H8614c-81 0-148-66-148-148s66-148 148-148h1071c81 0 148 66 148 148 0 83-66 148-148 148zm2742 0h-1070c-82 0-149-66-149-148s66-148 149-148h1070c83 0 148 65 148 148 0 82-67 148-148 148zm1404 1139V296H296v3103h13535zm-1766 7201V3756H2063v6844c0 286 57 559 160 808 108 259 265 493 460 689 196 195 429 353 688 460 249 103 522 160 809 160h5768c286 0 559-57 808-160 259-107 492-265 688-460 195-196 353-429 460-688 104-249 161-522 161-809zM296 3757v11309h13535V3757h-1470v6843c0 327-65 638-183 922-123 295-302 561-525 784-222 222-488 402-783 524-285 118-596 184-922 184H4180c-326 0-638-66-922-184-295-122-561-302-784-524-222-223-402-489-524-784-118-284-183-595-183-922V3757H296z"/></symbol><symbol shape-rendering="geometricPrecision" text-rendering="geometricPrecision" image-rendering="optimizeQuality" fill-rule="evenodd" clip-rule="evenodd" viewBox="0 0 24589 22057" id="14" xmlns="http://www.w3.org/2000/svg"><path fill-rule="nonzero" d="M4919 0H193C87 0 0 86 0 193v21671c0 106 86 193 193 193h4726c107 0 193-86 193-193V10872h14365v10992c0 106 85 193 193 193h4725c108 0 194-86 194-193V193c0-107-86-193-194-193h-4725c-107 0-193 86-193 193v3215H5112V193c0-107-86-193-193-193zm11956 5500l-1018 1562c-58 89-33 209 56 266 89 58 209 33 267-56l1019-1562c57-89 32-209-57-267-89-57-209-32-267 57zm-4439 0l-1018 1562c-58 89-32 209 57 266 89 58 208 33 266-56l1019-1562c58-89 32-209-57-267-89-57-209-32-267 57zm-4651 0L6766 7062c-57 89-32 209 57 266 89 58 209 33 267-56l1018-1562c58-89 33-209-56-267-89-57-209-32-267 57zm14837 15c-480 0-870 390-870 871 0 480 390 870 870 870s871-391 871-870c0-480-391-871-871-871zm484 871c0 268-216 483-484 483s-483-217-483-483 216-484 483-484 484 216 484 484zm1018-1972h-3275c-106 0-193 86-193 193v3557c0 107 86 193 193 193h3353v13313h-4339V387c1446-4 2893 0 4339 0v4027h-78zm-3003 387h3081v3170h-3159V4801h78zM5112 7971c-2-1057 0-2114 0-3170 4786-13 9578-13 14365 0v3170H5112zm78 386h14287v2128H5112V8357h78zm14208-3943H5112v-619h14365v619h-79zM465 387h4260v21283H387V387h78z"/></symbol><symbol shape-rendering="geometricPrecision" text-rendering="geometricPrecision" image-rendering="optimizeQuality" fill-rule="evenodd" clip-rule="evenodd" viewBox="0 0 20343 20092" id="15" xmlns="http://www.w3.org/2000/svg"><path fill-rule="nonzero" d="M16048 1363h2062c1228 0 2233 996 2233 2233v14263c0 1231-1001 2233-2233 2233H3960c-1231 0-2233-1002-2233-2233V8984c156 217 276 468 369 745l24 8130c0 1014 826 1840 1840 1840h6879V5087L8511 7774l-15 15c-110 92-254 61-316-69L5747 1756H3960c-1036 0-1820 825-1840 1840 0 956 93 1022-393 1710V3596c0-1233 1001-2233 2233-2233h1858C7209 488 8889 45 10526 3c1924-48 3769 449 5469 1333l53 27zM6105 9604h278v157c13 497 162 881 487 1258 229 239 447 387 757 507 226 75 393 104 631 110h156v314h-156c-239 6-404 34-630 109-473 197-765 432-1024 885-147 289-213 548-221 881v156h-314v-156c-9-338-68-579-221-881-225-395-505-660-938-852-254-98-444-135-716-142h-156v-314h156c333-9 583-71 882-221 389-222 603-463 814-856 118-265 172-509 179-798v-157h36zm544 1636c-164-183-281-370-423-575-183 265-321 486-558 710-173 158-377 285-570 418 246 169 435 285 641 486 202 207 316 394 487 641 223-323 385-572 683-816l444-311c-316-219-452-301-704-553zm6142-1872h1453c109 0 197 88 197 197s-88 196-197 196h-1453c-109 0-196-87-196-196 0-94 65-176 158-193 12-2 25-4 38-4zm0 2333h1453c126 0 216 113 193 235-17 93-99 158-193 158h-1453c-13 0-26-2-39-4-91-17-157-100-157-193s64-176 157-192c13-3 26-4 39-4zm0 2333h1453c109 0 197 87 197 196s-88 196-197 196h-1453c-13 0-26-1-39-3-91-17-157-101-157-193 0-93 65-176 158-193 12-2 25-3 38-3zm0 2332h1453c109 0 197 88 197 196 0 110-87 197-197 197h-1453c-13 0-26-2-39-4-91-17-157-100-157-193s65-175 158-192c12-3 25-4 38-4zM3151 3848h323v179c0 629 204 1242 579 1746 202 272 449 506 730 694 482 323 1046 496 1627 496h179v359h-179c-338 0-667 59-985 172-683 242-1262 747-1604 1385-227 425-347 897-347 1379v179h-359v-179c0-482-119-954-347-1379-319-595-843-1074-1468-1333-356-148-735-224-1121-224H0v-359h179c581 0 1146-172 1628-495 361-243 666-562 890-935 273-454 418-975 418-1506v-179h36zm354 1728l-210-391-211 391c-334 599-754 1019-1355 1356l-392 211 391 210c592 331 1016 747 1356 1354l211 393 210-392c337-602 752-1019 1355-1355l392-210-392-211c-598-335-1012-745-1355-1356zm2730-4021l4705 3052 4674-3032c-1741-798-3269-1263-5209-1179-1603 69-2779 454-4170 1159zm7222 5719l2124-5208-4248 2756 2124 2452zm-5034 0l2124-2452-4248-2756 2124 5208zm11528 10585V3596c0-1018-830-1840-1841-1840h-1978l-2432 5964-11 22c-72 112-202 134-306 47l-14-15-2137-2466v14391h6878c1014 0 1841-826 1841-1840z"/></symbol><symbol shape-rendering="geometricPrecision" text-rendering="geometricPrecision" image-rendering="optimizeQuality" fill-rule="evenodd" clip-rule="evenodd" viewBox="0 0 16258 18053" id="16" xmlns="http://www.w3.org/2000/svg"><path fill-rule="nonzero" d="M13242 3321V368H1690v2953h11552zm2649 6236V369l-2281 1v9187h2281zm367-9373v9557c0 104-80 184-184 184h-2462l-4 7976c-15 90-90 152-181 152-3973-5-7946-13-11918-22-96 0-166-63-182-152l-6-14190H182c-243 0-243-368 0-368h1141V368H182C-61 368-61 0 182 0h15892c104 0 184 80 184 184zm-3016 14173V3689H1690v10668h11552zm0 3328v-2960H1690v2960h11552z"/></symbol><symbol shape-rendering="geometricPrecision" text-rendering="geometricPrecision" image-rendering="optimizeQuality" fill-rule="evenodd" clip-rule="evenodd" viewBox="0 0 9904 14227" id="17" xmlns="http://www.w3.org/2000/svg"><path fill-rule="nonzero" d="M9605 11919c0 572-512 1047-1076 1047H5103V300h3426c563 0 1076 529 1076 1089v10530zM6233 4400c-41 0-79 17-106 44s-44 65-44 106v1921c0 41 17 79 44 106s65 44 106 44 79-17 106-44h1c27-27 43-65 43-106V4550c0-41-17-79-44-106-27-28-65-44-106-44zM3672 6621c41 0 79-17 106-44h1c26-27 43-65 43-106V4550c0-42-17-79-43-106l-1-1c-27-27-65-43-106-43s-79 17-106 44-44 65-44 106v1921c0 41 17 79 44 106s65 44 106 44zm6232 5348V1339C9877 628 9245 0 8529 0H1386C649 0 0 653 0 1389v10530c0 653 509 1206 1141 1322l140 26v810c0 198 300 197 300 0v-810h6743v810c0 40 16 78 44 106 95 94 256 27 256-106v-811l141-26c615-109 1115-639 1139-1271zm-9604-50V1389c0-563 522-1089 1086-1089h3416v12666H1386c-558 0-1086-479-1086-1047z"/></symbol><symbol shape-rendering="geometricPrecision" text-rendering="geometricPrecision" image-rendering="optimizeQuality" fill-rule="evenodd" clip-rule="evenodd" viewBox="0 0 8996 13601" id="18" xmlns="http://www.w3.org/2000/svg"><path fill-rule="nonzero" d="M7942 13473v-681h356c384 0 695-311 695-695 0-571-39-1830 3-2385-25-305-24-884-3-1186 2-27 3-39 0-68V4515c0-383-312-695-695-695H6374V1503c0-383-311-695-694-695h-357V128c0-171-258-170-258 0v680H3985V128c0-170-258-171-258 0v680H2647V128c0-170-258-171-258 0v680H1309V128c0-170-258-170-258 0v680H695C312 808 0 1120 0 1503v7582c0 370 292 678 661 695 653-1 1305 0 1958 0v2317c0 384 311 695 694 695h357v681c0 170 257 170 257 0v-681h1081v681c0 170 257 170 257 0v-681h1081v681c0 170 258 170 258 0v-681h1080v681c0 169 258 171 258 0zm356-939l-4961-1c-252 8-461-181-461-436 0-1515-209-6395 1-7586 41-239 163-433 436-433h4985c241 0 437 196 437 437v3827l-234-58c-214-52-454-64-674-61-236 3-496 25-726 82-225 56-478 76-710 77-199 2-455-10-645-73-208-68-467-86-685-87-260-1-550 20-803 83-102 23-197 39-302 53-72 8-121 72-112 143 8 72 71 121 143 113 89-10 173-25 260-41l74-17c221-55 474-73 701-74 197-1 455 10 642 72 207 70 471 86 688 87 264 0 556-22 812-85 221-55 473-73 701-74 197-1 455 10 642 72 64 26 135 38 202 54l26 7v946l-233-58c-214-52-455-64-675-61-237 3-496 25-726 82-225 56-479 76-710 78-199 1-455-11-645-74-208-68-467-85-685-86-260-2-550 20-802 82-103 23-198 39-302 53-52 6-95 43-109 93-5 15-6 33-4 50 8 71 72 121 143 114 115-16 221-33 334-59 222-55 474-73 701-74 198-1 454 11 642 73 208 69 470 85 688 86 263 1 556-21 812-85 221-54 473-73 701-74 197-1 454 11 642 73 69 25 156 42 228 60v2263c0 241-197 437-437 437zM2430 9523H884l1735-4409v4409h-189zM695 1066h4985c240 0 436 196 436 437v2317H2938c-54 0-101 32-120 82-747 1899-1466 3718-2211 5619-219-63-349-178-349-436V1503c0-240 196-437 437-437z"/></symbol><symbol shape-rendering="geometricPrecision" text-rendering="geometricPrecision" image-rendering="optimizeQuality" fill-rule="evenodd" clip-rule="evenodd" viewBox="0 0 19952 20324" id="19" xmlns="http://www.w3.org/2000/svg"><path fill-rule="nonzero" d="M8524 6096c480-430 1113-713 1733-868 1477-9 2949-4 4425-4l256 1174 266 1203H7752c94-625 272-1058 772-1505zM5393 9403h386v-386h-386v386zm-2697 0h387v-386h-387v386zm1349 0h386v-386h-386v386zM0 7718h386v-386H0v386zm0-4045h386v-386H0v386zm0 2697h386v-387H0v387zm0-1349h386v-386H0v386zm2696-2224h387v-386h-387v386zm0-2411h387V0h-387v386zm0 1063h387v-387h-387v387zm0 2696h387v-386h-387v386zM1348 1651h386v-386h-386v386zm0 4045h386v-387h-386v387zm0-2697h386v-386h-386v386zm0 1348h386v-386h-386v386zm4126 15591H3757v-1861h1717c440 0 825 312 912 749 24 120 24 243 0 363-79 400-415 704-821 744-31 3-61 5-91 5zm14478-6435V5861c-2-751-626-1361-1373-1361h-1874l-230-1011H9310c-599 0-1196 39-1789 125-1700 247-3349 894-4605 2081-465 439-865 944-1183 1498-745 1295-969 2630-969 4098h17484l-1455-6404h1786c543 0 986 443 986 986v7618c0 32-1 64-4 96-51 504-475 890-982 890h-8004c-756 0-1373 614-1373 1373 0 756 613 1373 1373 1373h8190c463 0 824 400 781 861-37 394-376 708-781 708H6778c-164-642-612-1101-1304-1101H3371v427H2022v386h1349v962H2022v386h1349v472h2103c712 0 1161-478 1311-1146h11980c555 0 1040-393 1148-942 144-724-410-1399-1148-1399h-8190c-507 0-932-387-982-890-3-33-5-65-5-97 0-543 444-986 987-986h8004c699 0 1294-531 1365-1228 5-44 7-88 8-133zM1157 10756c45-1221 339-2413 969-3467 357-597 810-1127 1343-1575 1166-981 2625-1510 4125-1722 568-80 1142-117 1716-117h6857l18 85c480 2135 980 4323 1479 6509 26 141 68 294 100 435H1152l5-148zm-415 1935h15281v-387H742v387zm9493-7854c-638 155-1239 398-1764 801-589 450-989 1053-1084 1796-25 188-23 365-23 554h8321l-692-3151h-4758z"/></symbol><symbol shape-rendering="geometricPrecision" text-rendering="geometricPrecision" image-rendering="optimizeQuality" fill-rule="evenodd" clip-rule="evenodd" viewBox="0 0 1066 1168" id="2" xmlns="http://www.w3.org/2000/svg"><path fill-rule="nonzero" d="M38 0h989c21 0 38 17 38 38v989c0 21-17 38-38 38H38c-21 0-38-17-38-38V38C0 17 17 0 38 0zm863 1091h127c21 0 38 18 38 39s-17 38-38 38H901c-21 0-38-17-38-38s17-39 38-39zm-862 0h126c21 0 38 18 38 39s-17 38-38 38H39c-21 0-39-17-39-38s18-39 39-39zm681-919h-76c-21 0-39-17-39-38s18-38 39-38h76c21 0 38 17 38 38s-17 38-38 38zm196 0h-76c-21 0-39-17-39-38s18-38 39-38h76c21 0 38 17 38 38s-17 38-38 38zm73 27V76H76v123h913zM863 741V279H203v462c0 68 55 124 124 124h412c68 0 124-56 124-124zM76 275v714h913V275h-50v466c0 110-90 200-200 200H327c-111 0-201-90-201-200V275H76z"/></symbol><symbol shape-rendering="geometricPrecision" text-rendering="geometricPrecision" image-rendering="optimizeQuality" fill-rule="evenodd" clip-rule="evenodd" viewBox="0 0 16725 18706" id="20" xmlns="http://www.w3.org/2000/svg"><path fill-rule="nonzero" d="M16725 13522V4534H1871V162c0-90-72-162-162-162H162C72 0 0 72 0 162s72 161 162 161h1385v15512c0 91 71 162 162 162h2622c-528 153-926 622-926 1310 0 773 626 1399 1399 1399 771 0 1399-627 1399-1399 0-687-492-1178-926-1310h6482c-507 161-927 622-927 1310 0 773 626 1399 1399 1399 768 0 1399-622 1399-1399 0-688-456-1171-926-1310h2312c213 0 214-322 0-322H1871v-2153h14854zM4804 18385c-593 0-1078-485-1078-1078 0-592 486-1076 1078-1076s1076 484 1076 1076c0 593-483 1078-1076 1078zm7427 0c-593 0-1076-485-1076-1078 0-596 487-1076 1076-1076s1076 481 1076 1076c0 593-483 1078-1076 1078zM2019 4855h2004v8343H1871V4855h148zm9284 8343H9298V4855h2153v8343h-148zm618-8343h2005v8343h-2153V4855h148zm-3095 8343H6821V4855h2153v8343h-148zm-2475 0H4347l-1-115c-4-1482-6-2837-6-4056 0-1220 2-2575 6-4057l1-115h2152v8343h-148zm9902 0h-2003V4855h2152v8343h-149z"/></symbol><symbol shape-rendering="geometricPrecision" text-rendering="geometricPrecision" image-rendering="optimizeQuality" fill-rule="evenodd" clip-rule="evenodd" viewBox="0 0 586 698" id="21" xmlns="http://www.w3.org/2000/svg"><path fill-rule="nonzero" d="M455 162c0 89-73 161-162 161s-162-72-162-161C131 72 204 0 293 0s162 72 162 162zM293 404C131 404 0 536 0 698h586c0-162-131-294-293-294z"/></symbol><symbol shape-rendering="geometricPrecision" text-rendering="geometricPrecision" image-rendering="optimizeQuality" fill-rule="evenodd" clip-rule="evenodd" viewBox="0 0 831 831" id="22" xmlns="http://www.w3.org/2000/svg"><path fill-rule="nonzero" d="M166 360c65 130 176 236 305 305l102-101c14-14 32-19 46-10 51 19 106 28 166 28 28 0 46 18 46 46v157c0 28-18 46-46 46C351 831 0 480 0 46 0 18 18 0 46 0h162c27 0 46 18 46 46 0 56 9 111 28 166 4 14 0 33-10 47L166 360z"/></symbol><symbol shape-rendering="geometricPrecision" text-rendering="geometricPrecision" image-rendering="optimizeQuality" fill-rule="evenodd" clip-rule="evenodd" viewBox="0 0 874 624" id="23" xmlns="http://www.w3.org/2000/svg"><path fill-rule="nonzero" d="M437 437l-108-95L20 607c11 11 26 17 43 17h748c17 0 32-6 43-17L545 342l-108 95zm135-120l302 257V55L572 317zM0 55v519l302-257L0 55zm854-38C843 6 828 0 811 0H63C46 0 31 6 20 17l417 358L854 17z"/></symbol><symbol shape-rendering="geometricPrecision" text-rendering="geometricPrecision" image-rendering="optimizeQuality" fill-rule="evenodd" clip-rule="evenodd" viewBox="0 0 756 567" id="24" xmlns="http://www.w3.org/2000/svg"><path fill-rule="nonzero" d="M0 0h756v94H0V0zm0 472h519v95H0v-95zm0-236h756v95H0v-95z"/></symbol><symbol shape-rendering="geometricPrecision" text-rendering="geometricPrecision" image-rendering="optimizeQuality" fill-rule="evenodd" clip-rule="evenodd" viewBox="0 0 770 764" id="25" xmlns="http://www.w3.org/2000/svg"><path fill-rule="nonzero" d="M331 0c183 0 332 148 332 331 0 73-24 141-64 195l171 171-67 67-170-170c-56 43-126 69-202 69C148 663 0 514 0 331S148 0 331 0zm0 95C201 95 95 201 95 331c0 131 106 237 236 237 131 0 237-106 237-237 0-130-106-236-237-236z"/></symbol><symbol shape-rendering="geometricPrecision" text-rendering="geometricPrecision" image-rendering="optimizeQuality" fill-rule="evenodd" clip-rule="evenodd" viewBox="0 0 356 303" id="26" xmlns="http://www.w3.org/2000/svg"><path fill-rule="nonzero" d="M73 0c27 0 46 6 56 19 11 13 17 35 17 68 0 32-6 55-17 68-10 12-29 19-56 19s-46-7-57-19C5 142 0 119 0 87c0-33 5-55 16-68S46 0 73 0zm37 298H70L245 6h40L110 298zM72 35c-10 0-17 3-20 10-4 7-6 21-6 42s2 35 6 42c3 7 10 10 20 10 11 0 18-3 22-10 3-7 5-21 5-42s-2-35-5-42c-4-7-11-10-22-10zm211 94c27 0 46 6 57 19s16 36 16 68-5 55-16 68-30 19-57 19-46-6-56-19c-11-13-16-36-16-68s5-55 16-68c10-13 29-19 56-19zm21 45c-4-6-11-10-21-10-11 0-18 3-21 10-4 7-5 21-5 42s1 35 5 42c3 7 10 10 21 10 10 0 17-3 21-10 3-7 5-21 5-42s-2-35-5-42z"/></symbol><symbol shape-rendering="geometricPrecision" text-rendering="geometricPrecision" image-rendering="optimizeQuality" fill-rule="evenodd" clip-rule="evenodd" viewBox="0 0 568 533" id="27" xmlns="http://www.w3.org/2000/svg"><path fill-rule="nonzero" d="M142 426v107h284V355H142v71zm355-320h-35v107H106V106H71c-35 0-71 36-71 72v177c0 36 36 71 71 71h35V320h356v106h35c36 0 71-35 71-71V178c0-36-35-72-71-72zm-71 0V0H142v178h284v-72zM178 391h213v35H178v-35zm0 71h213v35H178v-35z"/></symbol><symbol shape-rendering="geometricPrecision" text-rendering="geometricPrecision" image-rendering="optimizeQuality" fill-rule="evenodd" clip-rule="evenodd" viewBox="0 0 763 763" id="28" xmlns="http://www.w3.org/2000/svg"><path fill-rule="nonzero" d="M381 0c211 0 382 171 382 381 0 211-171 382-382 382C171 763 0 592 0 381 0 171 171 0 381 0zM258 266l-3-58c51-9 87-14 139-14 42 0 73 7 94 22 20 15 30 37 30 68 0 66-62 92-91 146-7 15-12 31-13 49h-69c-1-23 3-44 11-64 16-39 69-86 71-114 2-13-2-23-11-29-8-6-22-8-42-8-34 0-72 0-116 2zm111 252h20c22 0 30 8 30 30v28c0 22-8 30-30 30-27 0-50 5-50-30v-28c0-22 8-30 30-30zm12-470C197 48 48 197 48 381c0 185 149 334 333 334 185 0 334-149 334-334 0-184-149-333-334-333z"/></symbol><symbol shape-rendering="geometricPrecision" text-rendering="geometricPrecision" image-rendering="optimizeQuality" fill-rule="evenodd" clip-rule="evenodd" viewBox="0 0 181 293" id="29" xmlns="http://www.w3.org/2000/svg"><path fill-rule="nonzero" d="M147 293L0 147 147 0l34 34L68 147l113 113z"/></symbol><symbol shape-rendering="geometricPrecision" text-rendering="geometricPrecision" image-rendering="optimizeQuality" fill-rule="evenodd" clip-rule="evenodd" viewBox="0 0 1790 1197" id="3" xmlns="http://www.w3.org/2000/svg"><path fill-rule="nonzero" d="M45 0h332c25 0 45 20 45 45v63h946V45c0-25 21-45 45-45h332c25 0 45 20 45 45v1107c0 25-20 45-45 45h-332c-24 0-45-20-45-45V695H422v457c0 25-21 45-45 45H45c-25 0-45-20-45-45V45C0 22 15 7 36 1c3-1 6-1 9-1zm1074 379l72-109c16-19 45-23 69-8 15 19 17 34 6 56l-72 111h174V203l-473-1-473 1v226h59l-2-4c-7-15-5-27 0-43l76-117c16-16 39-22 59-9 18 12 25 35 17 55l-75 118h252c-10-17-11-33-1-50l72-109c17-21 45-25 69-8 15 15 18 37 7 55-24 36-51 75-73 112h238c-9-12-10-28-5-42 1-3 3-5 4-8zm423-200h158V90h-242v1017h242V519h-158c-24 0-45-21-45-45V224c0-3 0-6 1-9 3-17 18-32 35-35 3-1 6-1 9-1zm158 90h-113v160h113V269zm-332 250H422v86h946v-86zM332 90H90v1017h242V90z"/></symbol><symbol shape-rendering="geometricPrecision" text-rendering="geometricPrecision" image-rendering="optimizeQuality" fill-rule="evenodd" clip-rule="evenodd" viewBox="0 0 181 294" id="30" xmlns="http://www.w3.org/2000/svg"><path fill-rule="nonzero" d="M0 260l113-113L0 34 34 0l147 147L34 294z"/></symbol><symbol shape-rendering="geometricPrecision" text-rendering="geometricPrecision" image-rendering="optimizeQuality" fill-rule="evenodd" clip-rule="evenodd" viewBox="0 0 112 174" id="31" xmlns="http://www.w3.org/2000/svg"><path fill-rule="nonzero" d="M87 174L0 87 87 0l25 25-61 62 61 62z"/></symbol><symbol shape-rendering="geometricPrecision" text-rendering="geometricPrecision" image-rendering="optimizeQuality" fill-rule="evenodd" clip-rule="evenodd" viewBox="0 0 113 174" id="32" xmlns="http://www.w3.org/2000/svg"><path fill-rule="nonzero" d="M0 149l62-62L0 25 25 0l88 87-88 87z"/></symbol><symbol shape-rendering="geometricPrecision" text-rendering="geometricPrecision" image-rendering="optimizeQuality" fill-rule="evenodd" clip-rule="evenodd" viewBox="0 0 443 273" id="33" xmlns="http://www.w3.org/2000/svg"><path fill-rule="nonzero" d="M51 0l171 171L392 0l51 51-221 222L0 51z"/></symbol><symbol shape-rendering="geometricPrecision" text-rendering="geometricPrecision" image-rendering="optimizeQuality" fill-rule="evenodd" clip-rule="evenodd" viewBox="0 0 444 273" id="34" xmlns="http://www.w3.org/2000/svg"><path fill-rule="nonzero" d="M0 222L222 0l222 222-51 51-171-171L51 273z"/></symbol><symbol shape-rendering="geometricPrecision" text-rendering="geometricPrecision" image-rendering="optimizeQuality" fill-rule="evenodd" clip-rule="evenodd" viewBox="0 0 427 309" id="35" xmlns="http://www.w3.org/2000/svg"><path fill-rule="nonzero" d="M366 11c14-15 37-15 51 0 14 14 14 37 0 51L180 298c-14 15-37 15-51 0L11 180c-15-14-15-37 0-51 14-14 37-14 51 0l93 93L366 11z"/></symbol><symbol shape-rendering="geometricPrecision" text-rendering="geometricPrecision" image-rendering="optimizeQuality" fill-rule="evenodd" clip-rule="evenodd" viewBox="0 0 572 573" id="36" xmlns="http://www.w3.org/2000/svg"><path fill-rule="nonzero" d="M12 72C-4 56-4 29 12 12 29-4 56-4 72 12l214 214L500 12c17-16 44-16 60 0 17 17 17 44 0 60L346 286l214 214c17 17 17 44 0 60-16 17-43 17-60 0L286 346 72 560c-16 17-43 17-60 0-16-16-16-43 0-60l214-214L12 72z"/></symbol><symbol shape-rendering="geometricPrecision" text-rendering="geometricPrecision" image-rendering="optimizeQuality" fill-rule="evenodd" clip-rule="evenodd" viewBox="0 0 699 699" id="37" xmlns="http://www.w3.org/2000/svg"><path fill-rule="nonzero" d="M304 699V395H0v-91h304V0h91v304h304v91H395v304z"/></symbol><symbol shape-rendering="geometricPrecision" text-rendering="geometricPrecision" image-rendering="optimizeQuality" fill-rule="evenodd" clip-rule="evenodd" viewBox="0 0 23749 5743" id="38" xmlns="http://www.w3.org/2000/svg"><g fill-rule="nonzero"><path d="M2791 1454c391 0 746 159 1002 415 257 257 415 611 415 1002 0 392-158 746-415 1003-256 256-611 415-1002 415s-746-159-1002-415c-257-257-415-611-415-1003 0-391 158-745 415-1002 256-256 611-415 1002-415zm489 928c-125-125-298-202-489-202s-364 77-489 202-203 298-203 489c0 192 78 365 203 490s298 202 489 202 364-77 489-202 203-298 203-490c0-191-78-364-203-489z"/><path d="M0 2204c155-646 521-1197 1013-1585C1508 228 2129 0 2791 0c793 0 1511 321 2030 841 520 520 842 1238 842 2030 0 296-46 589-135 868-88 278-219 543-390 786l-718-504c118-168 209-352 271-547 61-193 93-396 93-603 0-550-223-1048-584-1409-360-360-859-584-1409-584-463 0-894 158-1235 427-343 270-597 653-705 1101L0 2204zm11221-160l-547 1945c-45 157-104 270-176 339-103 94-255 141-457 141-341 0-546-117-616-349l-316-1045c-15-48-27-72-37-72-9 0-21 24-36 72l-316 1045c-70 232-275 349-616 349-202 0-354-47-457-141-72-69-131-182-176-339l-547-1945h841l362 1379c12 49 27 73 45 73 12 0 26-23 41-68l353-1158c51-169 220-254 506-254 287 0 456 85 507 254l353 1158c15 45 29 68 41 68 18 0 33-24 45-73l362-1379h841zm2548 941c0 214-49 360-145 438-58 46-136 68-235 68h-1308c-6 79 8 144 41 197s89 87 167 102c39 6 116 9 231 9h1163v642h-1516c-229 0-392-13-489-40-156-43-276-132-359-267-83-136-125-424-125-864 0-311 5-509 14-593 24-187 85-330 183-430 98-99 257-166 477-199 142-21 359-32 652-32 283 0 486 8 606 23 169 24 297 71 385 140 172 139 258 407 258 806zm-887-181c0-106-91-165-272-177-45-3-87-4-126-4-184 0-300 22-346 68-47 45-66 125-57 239h656c97 0 145-42 145-126zm3651 434c0 359-53 627-159 805-156 266-438 398-846 398h-1054c-169 0-297-46-384-140-70-75-104-173-104-294V1274h886v770h643c410 0 695 129 855 389 109 178 163 446 163 805zm-905-9c0-163-20-288-59-376-54-123-152-185-294-185h-403v914c0 87 15 145 43 174 29 29 83 43 161 43h181c154 0 256-54 308-163 42-87 63-223 63-407zm3642-244c0 214-48 360-145 438-57 46-136 68-235 68h-1308c-6 79 8 144 41 197s89 87 167 102c40 6 117 9 231 9h1163v642h-1516c-229 0-392-13-488-40-157-43-277-132-360-267-83-136-124-424-124-864 0-311 4-509 13-593 24-187 85-330 183-430 99-99 258-166 478-199 142-21 359-32 651-32 284 0 486 8 607 23 168 24 297 71 384 140 172 139 258 407 258 806zm-887-181c0-106-90-165-271-177-45-3-88-4-127-4-184 0-299 22-346 68-47 45-66 125-57 239h656c97 0 145-42 145-126zm3384 1013c0 235-66 406-199 511-93 76-225 113-393 113h-1715v-642h1307c19 0 36-5 52-16 17-10 25-26 25-47s-12-39-36-52c-24-14-116-46-276-98l-516-167c-250-81-414-187-493-317-60-99-90-233-90-402 0-175 37-319 113-430 102-151 288-226 556-226h1602v615h-1303c-57 0-92 1-104 4-27 6-41 20-41 41 0 24 17 42 50 54 24 12 84 35 181 68l606 204c284 96 467 204 550 323s124 274 124 464zm1982-1158h-683v547c0 229 51 389 153 480 85 75 215 113 390 113h131v642h-516c-335 0-582-54-742-162-202-136-303-332-303-589V2659h-339v-615h339v-770h887v770h683v615zM4651 5056c-262 223-556 395-869 510-316 116-651 177-991 177-124 0-254-9-389-28-129-17-257-44-382-79l233-844c88 24 177 43 266 55 84 12 175 18 272 18 238 0 471-43 689-123 222-81 427-200 605-352l566 666zm-3367 258c-137-85-267-180-386-285-121-107-233-223-334-347l679-553c71 87 148 168 231 241 85 74 175 141 270 199l-460 745z"/></g></symbol><symbol shape-rendering="geometricPrecision" text-rendering="geometricPrecision" image-rendering="optimizeQuality" fill-rule="evenodd" clip-rule="evenodd" viewBox="0 0 10670 11051" id="39" xmlns="http://www.w3.org/2000/svg"><path fill-rule="nonzero" d="M9345 0H1325C594 0 0 594 0 1325v8402c0 730 594 1324 1325 1324h8020c730 0 1325-594 1325-1324V1325c0-731-595-1325-1325-1325zM2788 8263c-70-70-183-70-253 0l-256 256-255-256c-70-70-183-70-253 0s-70 184 0 253l255 256-255 255c-70 70-70 183 0 253 35 35 81 53 127 53 45 0 91-18 126-53l255-255 256 255c35 35 81 53 126 53 46 0 92-18 127-53 70-70 70-183 0-253l-255-255 255-256c70-69 70-183 0-253zm5984-1580h-764c-99 0-179 81-179 179 0 99 80 179 179 179h764c99 0 179-80 179-179 0-98-80-179-179-179zm0 764h-764c-99 0-179 80-179 179s80 179 179 179h764c99 0 179-80 179-179s-80-179-179-179zM5335 9166c-47 0-94 19-127 52s-52 80-52 127 19 93 52 126c33 34 80 53 127 53s93-19 126-53c34-33 53-79 53-126s-19-94-53-127c-33-33-79-52-126-52zm0-788c47 0 93-19 126-53 34-33 53-79 53-126s-19-93-53-127c-33-33-79-52-126-52s-94 19-127 52c-33 34-52 80-52 127s19 93 52 126c33 34 80 53 127 53zm382 215h-764c-99 0-179 80-179 179s80 179 179 179h764c99 0 179-80 179-179s-80-179-179-179zm0-3055h-764c-99 0-179 80-179 179s80 179 179 179h764c99 0 179-80 179-179s-80-179-179-179zm-3056 0h-203v-203c0-99-80-179-179-179-98 0-179 80-179 179v203h-202c-99 0-179 80-179 179s80 179 179 179h202v202c0 99 81 179 179 179 99 0 179-80 179-179v-202h203c99 0 179-80 179-179s-80-179-179-179zM9154 955H1516c-310 0-561 251-561 561v1909c0 310 251 561 561 561h7638c309 0 561-251 561-561V1516c0-310-252-561-561-561zm203 2470c0 112-91 203-203 203H1516c-112 0-203-91-203-203V1516c0-112 91-203 203-203h7638c112 0 203 91 203 203v1909zm-203 967H7626c-309 0-561 251-561 561v4583c0 309 252 561 561 561h1528c309 0 561-252 561-561V4953c0-310-252-561-561-561zm203 5144c0 111-91 202-203 202H7626c-112 0-203-91-203-202V4953c0-112 91-203 203-203h1528c112 0 203 91 203 203v4583zM6099 4392H4571c-309 0-561 251-561 561v1527c0 310 252 561 561 561h1528c309 0 560-251 560-561V4953c0-310-251-561-560-561zm202 2088c0 112-91 203-202 203H4571c-112 0-203-91-203-203V4953c0-112 91-203 203-203h1528c111 0 202 91 202 203v1527zm-202 967H4571c-309 0-561 252-561 561v1528c0 309 252 561 561 561h1528c309 0 560-252 560-561V8008c0-309-251-561-560-561zm202 2089c0 111-91 202-202 202H4571c-112 0-203-91-203-202V8008c0-112 91-203 203-203h1528c111 0 202 91 202 203v1528zM3043 4392H1516c-310 0-561 251-561 561v1527c0 310 251 561 561 561h1527c310 0 561-251 561-561V4953c0-310-251-561-561-561zm203 2088c0 112-91 203-203 203H1516c-112 0-203-91-203-203V4953c0-112 91-203 203-203h1527c112 0 203 91 203 203v1527zm-203 967H1516c-310 0-561 252-561 561v1528c0 309 251 561 561 561h1527c310 0 561-252 561-561V8008c0-309-251-561-561-561zm203 2089c0 111-91 202-203 202H1516c-112 0-203-91-203-202V8008c0-112 91-203 203-203h1527c112 0 203 91 203 203v1528zm7065 191c0 533-433 966-966 966H1325c-533 0-967-433-967-966V1325c0-533 434-967 967-967h8020c533 0 966 434 966 967v8402z"/></symbol><symbol shape-rendering="geometricPrecision" text-rendering="geometricPrecision" image-rendering="optimizeQuality" fill-rule="evenodd" clip-rule="evenodd" viewBox="0 0 1846 1575" id="4" xmlns="http://www.w3.org/2000/svg"><path fill-rule="nonzero" d="M1466 111h158c123 0 222 100 222 222v1020c0 122-99 222-222 222H472c-123 0-222-100-222-222v-332h114c1 109-1 224-1 332 0 60 48 109 109 109h520V563L873 700c-27 31-79 23-95-16L590 224H472c-32 0-81 17-90 50H258c26-96 114-163 214-163h140C725 41 874 4 1006 0c161-4 317 37 460 111zM681 823h54v53c3 68 48 109 112 112h53v107h-53c-65 3-109 47-112 112v53H628v-53c-3-65-47-109-112-112h-53V988h53c65-3 109-47 112-112v-53h53zm11 207l-11-12-23 24c9 7 16 14 23 23 9-9 14-15 23-23l-12-12zm535-267h119c31 0 56 25 56 56s-25 57-56 57h-119c-31 0-56-26-56-57s25-56 56-56zm0 226h119c31 0 56 25 56 56s-25 57-56 57h-119c-31 0-56-25-56-57 0-31 25-56 56-56zm0 226h119c31 0 56 26 56 57s-25 56-56 56h-119c-31 0-56-25-56-56s25-57 56-57zM309 336h55v55c0 108 87 199 198 199h55v110h-55c-109 0-198 89-198 198v55H254v-55c0-109-90-198-199-198H0V590h55c111 0 199-91 199-199v-55h55zm35 273c-13-14-25-27-35-43-20 30-49 59-79 79 30 20 59 48 79 78 22-31 46-57 78-78-16-11-29-23-43-36zm654-496c-97 4-171 24-259 59l301 196 297-193c-108-44-222-67-339-62zm235 444l99-245-199 130 100 115zm-385 0l99-115-199-130 100 245zm886 796V333c0-60-49-109-110-109h-134l-188 460c-16 39-67 48-94 16l-104-119v881h520c61 0 110-49 110-109z"/></symbol><symbol shape-rendering="geometricPrecision" text-rendering="geometricPrecision" image-rendering="optimizeQuality" fill-rule="evenodd" clip-rule="evenodd" viewBox="0 0 13139 13139" id="40" xmlns="http://www.w3.org/2000/svg"><path fill-rule="nonzero" d="M12044 1314H3285c-121 0-219 98-219 219s98 219 219 219h8759c356 0 657 301 657 657v9635c0 369-288 657-657 657H1314c-483 0-876-393-876-876s393-876 876-876 876 393 876 876c0 121 98 219 219 219s219-98 219-219V1314C2628 589 2039 0 1314 0S0 589 0 1314v10511c0 725 589 1314 1314 1314h10730c614 0 1095-481 1095-1095V2409c0-604-491-1095-1095-1095zM8979 11387c-122 0-219 98-219 219s97 219 219 219h2627c121 0 219-98 219-219V2847c0-121-98-219-219-219H3723c-121 0-219 98-219 219v8759c0 121 98 219 219 219h4380c121 0 219-98 219-219 0-1013 767-1849 1751-1959v1083c0 121 98 219 219 219 122 0 219-98 219-219V9417c0-121-97-220-219-220-1254 0-2286 964-2397 2190H3942V7884h4161c121 0 219-99 219-219v-876c0-121-98-219-219-219-122 0-219 98-219 219v657H3942V3066h3942v1533c0 121 97 219 219 219 121 0 219-98 219-219V3066h3065v4380h-1095c-121 0-219 98-219 219 0 120 98 219 219 219h1095v3503H8979zM438 1314c0-483 393-876 876-876s876 393 876 876v9535c-233-209-539-338-876-338s-643 129-876 338V1314z"/></symbol><symbol shape-rendering="geometricPrecision" text-rendering="geometricPrecision" image-rendering="optimizeQuality" fill-rule="evenodd" clip-rule="evenodd" viewBox="0 0 9953 11211" id="41" xmlns="http://www.w3.org/2000/svg"><path fill-rule="nonzero" d="M9737 6864c-59 0-113 24-152 63s-63 93-63 152v3013H7485V5889h2252c60 0 114-24 153-63s63-93 63-152c0-60-24-114-63-153-39-38-93-63-153-63H7270c-59 0-113 25-152 64-39 38-63 92-63 152v183L5479 4281c-111-111-248-182-391-213-148-32-304-22-447 31l-115 43 88-84c249-238 443-520 575-828 131-307 200-642 200-988 0-462-126-906-353-1288-228-383-557-706-963-928-33-18-70-26-107-26-37 1-73 11-106 30-33 20-59 47-77 79s-28 68-28 106v2168H1980V215c0-38-10-74-28-106s-45-60-77-79c-16-9-34-17-51-22-18-5-36-7-54-8h-11c-17 1-34 3-50 7-16 5-33 11-48 19-406 222-735 545-962 928-228 382-354 826-354 1288 0 374 82 736 234 1063 153 328 378 623 665 864l9 8v664H793c-219 0-417 89-560 232C89 5217 0 5415 0 5633v12c0 107 21 210 60 303 40 97 99 184 172 257l18 18-18 18c-73 73-132 160-172 257-39 93-60 196-60 303v11c0 108 21 210 60 303 40 97 99 184 172 257l18 18-18 18c-73 73-132 160-172 257-39 93-60 196-60 303v12c0 107 21 209 60 302 40 97 99 184 172 257l18 18-18 18c-73 73-132 161-172 257-39 94-60 196-60 303v12c0 218 89 417 233 560 143 144 341 233 560 233h494l4 20c81 362 285 676 562 899 276 221 625 352 1000 352h28c378 0 725-132 999-351 279-224 482-539 563-900l4-20h1941c60 0 113-24 152-63s63-93 63-152c0-60-24-114-63-153s-92-63-152-63H4481V7498c0-59-24-113-63-152s-92-63-152-63c-59 0-113 24-152 63s-63 93-63 152v2112c0 323-131 615-343 827s-504 343-827 343h-28c-254 0-492-83-686-223-197-143-349-346-426-584l-11-33h414c219 0 417-89 560-233 144-143 233-342 233-560v-12c0-107-21-209-60-302-40-97-99-185-172-258l-18-18 18-18c73-73 132-160 172-257 39-93 60-195 60-302v-12c0-107-21-210-60-303-40-97-99-184-172-257l-18-18 18-18c73-73 132-160 172-257 39-93 60-195 60-303v-11c0-107-21-210-60-303-40-97-99-184-172-257l-18-18 18-18c73-73 132-160 172-257 39-93 60-196 60-303v-12c0-218-89-416-233-560-143-143-341-232-560-232h-460v-768c0-34-8-66-23-95-14-30-35-56-62-76-261-200-467-452-608-735-140-283-215-598-215-925 0-308 67-605 191-875 126-272 310-517 541-714l41-36v1981c0 59 24 113 63 152s93 63 153 63h2205c59 0 113-24 152-63s63-93 63-152V617l42 36c231 197 415 442 540 715 124 269 192 567 192 874 0 327-75 642-216 925-140 283-346 535-608 735-26 20-48 46-62 76-14 29-22 61-22 95v515l-648 648c-75 75-134 163-173 257-39 95-60 198-60 304s21 209 60 304 98 182 173 257l8 8c76 76 163 133 256 172 97 40 201 60 305 60 103 0 207-20 304-60 93-39 180-96 256-172l479-479c42-42 63-97 63-152s-21-110-63-152-97-63-152-63-110 21-152 63l-479 479c-71 70-164 106-256 106-93 0-186-36-256-106l-9-9c-34-34-61-74-79-117-18-44-27-91-27-139s9-95 27-138c18-44 45-84 79-118l955-955c71-71 164-106 256-106 93 0 185 35 256 105 590 506 1313 1309 1881 1881v3841c0 60 24 113 63 152s93 63 152 63h2467c60 0 114-24 153-63 39-38 63-92 63-152V7079c0-60-24-113-63-152s-93-63-153-63zm-7231-63v11c0 100-40 191-106 256-66 66-156 107-256 107H793c-100 0-191-41-256-107-66-65-106-156-106-256v-11c0-100 40-191 106-256 65-66 156-107 256-107h1351c100 0 190 41 256 107 66 65 106 156 106 256zm0 1167v12c0 99-40 190-106 256-66 65-156 106-256 106H793c-100 0-191-41-256-106-66-66-106-157-106-256v-12c0-100 40-191 106-256 66-66 156-107 256-107h1351c100 0 190 41 256 107 66 65 106 156 106 256zm0 1179c0 100-40 190-106 256-66 65-156 106-256 106H793c-100 0-190-41-256-106-66-66-106-156-106-256v-12c0-100 40-191 106-256 65-66 156-106 256-106h1351c100 0 190 40 256 106s106 156 106 256v12zm0-3514v12c0 100-40 191-106 256-66 66-156 107-256 107H793c-100 0-190-41-256-107-66-65-106-156-106-256v-12c0-99 40-190 106-256 65-65 156-106 256-106h1351c100 0 190 41 256 106 66 66 106 157 106 256z"/></symbol><symbol shape-rendering="geometricPrecision" text-rendering="geometricPrecision" image-rendering="optimizeQuality" fill-rule="evenodd" clip-rule="evenodd" viewBox="0 0 10386 10386" id="42" xmlns="http://www.w3.org/2000/svg"><path fill-rule="nonzero" d="M9851 4039h-972c-156 0-284-86-344-230-60-145-29-297 80-407l688-687c100-100 156-235 156-377 0-143-56-278-156-379l-876-876c-202-202-554-202-756 0l-688 687c-110 110-262 141-406 81s-231-189-231-345V534c0-295-239-534-534-534H4573c-294 0-534 239-534 534v972c0 156-86 285-230 345-145 60-297 29-407-81l-687-687c-202-202-554-202-756 0l-876 876c-101 100-156 236-156 379 0 142 55 277 156 377l687 687c110 110 140 262 81 407-59 144-189 230-345 230H534c-295 0-534 240-534 534v1239c0 295 239 534 534 534h972c156 0 285 87 345 231s29 296-81 406l-687 688c-101 100-156 235-156 377 0 144 55 278 156 379l876 876c202 202 554 202 756 0l687-688c110-109 262-140 407-80 144 60 230 188 230 344v972c0 295 240 535 534 535h1239c295 0 534-240 534-535v-972c0-156 87-284 231-344s296-29 406 80l688 688c202 202 554 202 756 0l876-876c100-101 156-235 156-379 0-142-56-276-156-377l-688-688c-109-110-140-262-80-406 59-144 188-231 344-231h972c295 0 535-239 535-534V4573c0-294-240-534-535-534zm-4658-578c-955 0-1732 777-1732 1732 0 954 777 1731 1732 1731 954 0 1731-777 1731-1731 0-955-777-1732-1731-1732zm0 3078c-742 0-1346-604-1346-1346s604-1346 1346-1346 1346 604 1346 1346-604 1346-1346 1346zm4809-727c0 83-68 150-151 150h-972c-311 0-580 180-699 468-121 288-58 605 164 826l686 687c60 58 60 153 0 212l-875 875c-59 59-154 60-212 0l-687-686c-221-222-538-284-826-164-288 119-468 388-468 699v972c0 83-67 151-150 151H4573c-82 0-150-68-150-151v-972c0-311-178-580-467-699-97-41-197-61-295-61-195 0-384 78-531 224l-686 687c-60 60-155 59-214 0l-875-875c-58-59-58-154 0-213l688-686c220-221 283-538 163-826-119-288-387-468-700-468H534c-82 0-149-67-149-150V4573c0-82 67-150 149-150h972c313 0 581-178 700-467 120-289 57-605-163-826l-688-686c-58-60-58-155 0-214l875-875c59-58 154-58 214 0l686 687c221 220 537 284 826 164 289-119 467-387 467-700V534c0-82 68-149 150-149h1239c83 0 150 67 150 149v972c0 313 180 581 468 700 288 120 605 57 826-163l687-688c58-58 154-58 212 0l875 876c60 58 60 154 0 213l-686 686c-221 221-285 537-164 826 119 289 388 468 699 468h972c83-1 151 67 151 149v1239z"/></symbol><symbol shape-rendering="geometricPrecision" text-rendering="geometricPrecision" image-rendering="optimizeQuality" fill-rule="evenodd" clip-rule="evenodd" viewBox="0 0 1812 2321" id="43" xmlns="http://www.w3.org/2000/svg"><path fill-rule="nonzero" d="M1705 1896c0 23-18 42-41 42h-128V797c0-13-5-27-15-37l-469-468c-10-10-23-16-38-16H383V149c0-23 19-42 42-42h1239c23 0 41 19 41 42v1747zm107 2V147c0-81-67-147-148-147H425c-82 0-149 67-149 149v127H106C48 276 0 324 0 382v1833c0 58 48 106 106 106h1324c59 0 106-48 106-106v-170h128c81 0 148-66 148-147zM1068 459l286 286h-272c-8 0-14-7-14-14V459zM107 2214V383h853v348c0 67 55 121 122 121h347v1362H107z"/></symbol><symbol shape-rendering="geometricPrecision" text-rendering="geometricPrecision" image-rendering="optimizeQuality" fill-rule="evenodd" clip-rule="evenodd" viewBox="0 0 7090 12174" id="44" xmlns="http://www.w3.org/2000/svg"><path fill-rule="nonzero" d="M6859 5982H211V1412h6668v4570h-20zM6984 0H105c-6 0-13 1-20 2S72 5 65 8l-18 9c-6 4-12 9-16 14-5 5-10 10-13 16-4 6-8 12-10 18-3 7-5 13-6 20s-2 14-2 20v11964c0 7 1 13 2 20 1 6 4 13 6 20 3 7 6 13 10 18 4 6 8 11 12 16h1c5 5 10 9 16 13s12 7 19 10c6 3 13 5 20 6 6 1 13 2 19 2h6879c7 0 14-1 20-2 7-1 14-4 21-6 13-5 24-13 34-23 10-9 17-21 23-34 5-12 8-26 8-40V105c0-7-1-13-2-20-2-6-4-13-6-20-3-6-6-13-10-18-4-6-8-11-13-16l-1-1c-4-4-10-9-15-12-6-4-12-7-19-10-6-3-13-5-19-6-7-1-14-2-21-2zM4216 791h463c6 0 13-1 19-2 7-1 14-4 21-6 6-3 12-6 18-10s11-8 16-13 9-10 13-16 7-12 10-18c3-7 5-13 6-20s2-14 2-20c0-7-1-14-2-21-1-6-3-13-6-20-5-12-12-23-21-32l-2-2c-5-5-10-9-16-13s-12-7-19-10c-6-3-13-5-19-6-7-1-14-2-20-2h-463c-7 0-14 1-20 2-8 2-14 4-21 6-6 3-12 6-17 10-6 4-11 8-16 12l-1 1c-5 5-9 10-13 16s-7 12-10 18c-2 7-4 13-6 20-1 7-2 13-2 21 0 6 1 13 2 20 1 6 3 13 6 19 5 13 13 25 22 34l2 2c4 4 10 8 15 12 6 4 12 7 18 10 7 2 14 5 21 6 6 1 13 2 20 2zm1186 0h462c7 0 14-1 20-2 8-1 14-4 21-6 6-3 12-6 18-10s11-8 16-13 9-10 13-16 7-12 10-18c2-6 4-13 6-20 1-7 2-13 2-20s-1-14-2-21c-1-6-4-13-6-20-6-12-13-24-21-33l-2-1c-5-5-10-9-16-13s-12-7-19-10c-6-3-13-5-19-6-7-1-14-2-21-2h-462c-7 0-14 1-21 2-7 2-13 4-20 6-13 6-25 14-34 23-5 5-9 10-13 16s-7 12-10 18l-6 21c-1 6-2 13-2 20s1 13 2 20c2 7 4 14 6 20 3 6 6 12 10 18s8 12 13 16c10 10 21 18 34 23 12 5 26 8 41 8zM3196 1952c-116 23-228 58-335 102-109 45-212 101-309 166-98 65-190 140-273 223s-158 174-223 272c-65 97-121 201-166 310-44 106-78 219-101 335-23 113-35 229-35 349 0 119 12 236 35 349 23 116 57 228 101 335 46 109 101 213 166 310 66 97 141 189 224 271 83 83 174 158 272 224 96 65 200 120 309 165 107 45 219 79 335 102 113 23 230 34 349 34s236-11 349-34c116-23 228-57 335-102 109-45 212-100 309-165 98-66 190-141 273-224 165-165 298-362 389-581 87-211 136-442 136-684 0-120-12-236-34-349-23-116-58-229-102-335-45-109-101-213-166-310-65-98-140-189-223-272s-175-158-273-224c-97-64-200-120-309-165-107-44-219-79-335-102-113-22-230-34-349-34s-236 12-349 34zm589 195c79 12 157 30 232 54 77 24 151 54 222 89 73 35 142 76 207 122 66 46 129 97 187 152s112 115 161 179c49 63 94 130 133 201 39 69 72 142 100 218l15 39-42 3c-43 3-84 9-123 15-39 7-77 15-112 24s-69 20-100 31c-32 12-62 24-91 37s-56 27-83 42c-27 14-53 30-78 45-25 16-49 32-73 47l-141 96c-24 16-48 31-75 47-24 15-50 30-76 43-26 14-53 27-82 38-28 12-58 23-90 32-31 9-65 18-100 24-36 7-74 12-114 16-40 3-83 5-129 5-367 0-540-118-740-255l-1-1c-44-30-88-60-135-89s-98-58-155-84c-56-27-118-51-186-70-69-19-144-33-228-41l-40-4 14-38c28-75 61-148 100-218 39-71 84-138 132-202 50-63 104-123 162-179 58-55 121-107 187-153 65-45 135-86 207-122 71-35 146-65 222-89s154-42 234-54c78-12 158-18 239-18 82 0 162 6 240 18zm-548 3111c-102-20-201-50-295-89-96-40-188-89-273-146-87-58-167-125-241-198-73-73-139-154-197-240-57-86-106-177-146-273-39-94-69-193-90-295-19-100-30-203-30-308l2-70 4-67c6-56 14-106 22-161l29 1c38 2 75 6 109 11s66 11 97 19c31 7 61 16 88 25 28 10 54 21 80 32 100 45 185 103 275 164l3 2c99 68 204 140 341 196 68 29 143 52 229 69s181 27 289 27 203-10 289-27c85-17 161-40 229-69 136-56 241-128 340-195l71-48c23-16 46-31 69-45s47-28 71-41 50-25 76-36c26-12 54-23 83-32 28-10 58-18 91-26 32-7 66-13 102-18 36-4 74-7 115-9l28-1c12 83 21 148 26 231l2 67c0 106-11 209-30 309-21 102-51 201-90 295-40 96-89 188-146 273-58 86-124 167-197 240-74 74-154 140-240 198-86 57-178 106-273 146-95 39-194 69-296 89-99 20-202 30-308 30-105 0-209-10-308-30zM6879 231v970H211V211h6668v20zM4216 6773h463c7 0 13-1 20-2 7-2 14-4 20-6 6-3 13-7 18-10 6-4 11-8 16-13s9-11 13-16c4-6 7-12 10-18 3-7 5-14 6-20 1-7 2-14 2-21s-1-13-2-20-3-14-6-20c-3-7-6-13-10-19-3-5-7-10-11-14l-2-2c-5-4-10-9-16-13-6-3-12-7-19-9-6-3-13-5-19-6-7-2-14-2-20-2h-463c-7 0-14 0-20 2-8 1-14 3-20 6-7 2-13 6-18 9-6 4-11 8-16 13s-10 10-14 16-7 12-10 19c-2 6-4 13-6 20-1 6-2 13-2 20s1 14 2 20c1 7 3 14 6 20 3 7 6 13 10 18 4 6 8 12 13 17l1 1c4 4 10 8 15 12 6 3 12 7 18 9 7 3 14 5 21 7 6 1 13 2 20 2zm1186 0h462c7 0 14-1 20-2 7-2 14-4 20-7 7-2 14-6 19-9 6-4 11-9 16-13 5-5 9-10 13-16s7-12 10-18l6-21c1-6 2-13 2-20s-1-13-2-20c-2-7-4-14-6-20-3-7-6-13-10-19-3-5-7-10-11-14l-2-2c-5-5-11-9-16-12-6-4-12-8-19-10-6-3-13-5-19-6-7-2-14-2-21-2h-462c-7 0-14 0-21 2-7 1-13 3-20 6-13 5-25 13-34 22-5 5-9 11-13 16-4 6-7 12-10 20-2 6-4 12-6 19-1 7-2 13-2 20s1 14 2 20c2 7 4 14 6 20 3 7 6 13 10 19 4 5 8 11 13 16 10 9 21 17 34 23 12 5 26 8 41 8zM3196 7934c-116 23-228 57-335 101-109 46-213 101-310 166-97 66-189 141-272 224s-158 174-223 272c-65 96-121 200-166 309-44 107-78 219-101 335-23 113-35 230-35 349 0 120 12 236 35 349 23 116 57 229 101 335 45 109 101 213 166 310s140 189 223 272 175 158 272 223 201 121 310 166c107 44 219 79 335 102 113 22 230 34 349 34s236-12 349-34c116-23 228-58 335-102 109-45 213-101 310-166 98-65 189-140 272-223s158-175 223-272 121-201 166-310c44-106 79-219 102-335 22-113 34-229 34-349 0-119-12-236-34-349-23-116-58-228-102-335-45-109-101-213-166-310-66-97-141-189-223-271-83-83-175-158-273-224-96-65-200-120-309-166-107-44-219-78-335-101-113-23-230-34-349-34s-236 11-349 34zm588 194c80 13 158 31 233 54 77 24 151 54 222 89 73 36 142 77 207 122 66 46 129 97 187 153 58 55 112 115 161 178 49 64 94 131 133 201s72 143 100 218l15 39-42 4c-43 3-85 8-124 15-38 6-76 15-111 24-36 9-69 20-101 31-31 11-61 24-90 37s-56 27-83 41c-27 15-53 30-78 46-24 15-49 31-73 47l-141 96c-24 15-48 31-75 47-24 15-50 29-76 43-26 13-53 26-82 38s-59 22-90 32c-31 9-65 17-100 24-36 7-74 12-114 15-40 4-83 6-129 6-183 0-318-30-433-77s-207-110-307-178c-43-30-88-61-136-90-47-30-98-58-155-85-56-26-118-50-186-69-69-19-144-34-228-41l-40-4 14-38c28-76 62-149 100-219 39-70 84-138 132-201 50-64 104-124 162-179 58-56 121-107 187-153s135-87 207-122c71-35 146-65 222-89s154-42 234-55c77-11 158-18 239-18 82 0 162 7 239 18zm-547 3112c-102-20-201-51-295-90-96-39-188-89-273-146-87-58-167-124-241-197-73-73-139-154-197-240-57-86-106-177-146-273-39-94-69-193-90-296-19-99-30-202-30-308l2-70c1-22 2-44 4-66 6-56 14-106 22-162l29 2c38 2 75 6 109 11s66 11 97 19c31 7 61 16 88 25 28 10 54 20 80 32 50 22 97 48 143 76 46 29 89 58 134 89l2 2c200 136 427 291 858 291 108 0 203-10 289-27 85-17 161-41 229-69s128-60 184-94c56-33 107-68 157-102l1-1c93-63 180-123 285-169 26-11 54-22 83-32 28-9 58-18 91-25 32-7 66-13 102-18s74-8 115-9l28-2c12 83 21 149 26 232l2 67c0 106-10 209-30 308-20 103-51 201-90 296-40 96-89 187-146 273-58 86-124 167-197 240-74 73-154 139-240 197-86 57-178 107-273 146s-194 70-296 90c-99 20-202 30-308 30-105 0-209-10-308-30zm3642-5028v971H211v-991h6668v20zM211 11943V7393h6668v4570H211v-20z"/></symbol><symbol shape-rendering="geometricPrecision" text-rendering="geometricPrecision" image-rendering="optimizeQuality" fill-rule="evenodd" clip-rule="evenodd" viewBox="0 0 502 778" id="45" xmlns="http://www.w3.org/2000/svg"><path fill-rule="nonzero" d="M53 369h398c0-106-1-212-2-317H52c0 105 1 211 1 317zM26 0h449c14 0 26 12 26 26l1 726c0 14-11 26-25 26H27c-14 0-26-12-26-26L0 26C0 12 12 0 26 0zm385 119h-30c-34 0-34-52 0-52h30c34 0 34 52 0 52zm-293 71c13-63 69-109 134-109 64 0 121 46 133 109 17 84-48 163-133 163-86 0-150-79-134-163zm194-17c3-1 7-2 10-3-6-9-14-17-22-22-14-10-30-15-48-15-19 0-35 5-49 15-8 6-15 13-21 22 11 4 21 11 31 17 11 7 20 13 38 13 28 0 37-16 61-27zm-130 92c16 23 42 36 70 36 46 0 82-36 84-82l-4 2c-4 2-9 5-14 9-11 7-20 12-31 16s-22 6-36 6-25-2-36-6-20-9-31-17c-6-4-11-7-16-9 1 17 6 32 14 45zm70 178c75 0 136 61 136 136 0 74-61 135-136 135-80 0-143-69-135-149 6-69 65-122 135-122zm67 89l3-1c-6-8-14-16-22-22-14-9-31-15-48-15-18 0-35 6-49 16-8 5-15 13-21 22 11 4 19 9 28 15 14 10 23 15 41 15 19 0 27-6 42-16 5-5 20-12 26-14zm-65 131c39 0 73-30 81-68 0-5 1-9 1-14-8 3-12 5-18 10-11 8-20 13-31 17s-22 6-36 6c-32 0-46-9-65-22-6-4-12-8-18-11l1 14c8 42 43 68 85 68zM53 726h398V421H53v305z"/></symbol><symbol id="47" viewBox="0 0 73 81" xmlns="http://www.w3.org/2000/svg"><defs><style>.bocls-1{fill:#0e93c8}</style></defs><path class="bocls-1" d="M8.39.7a.7.7 0 00-.7-.7H1a.7.7 0 100 1.4h6v67.17a.69.69 0 00.7.7H19a5.61 5.61 0 00-4 5.67 6.06 6.06 0 108.11-5.67h28.1a5.74 5.74 0 00-4 5.67 6.06 6.06 0 0012.12 0 5.84 5.84 0 00-4-5.67h10a.7.7 0 000-1.39H8.39"/><path class="bocls-1" d="M21.09 79.61a4.66 4.66 0 114.66-4.67 4.68 4.68 0 01-4.66 4.67zm32.16 0a4.66 4.66 0 114.66-4.67 4.67 4.67 0 01-4.66 4.67zM10.9 5.92h54.87a.59.59 0 01.59.59v59.77a.6.6 0 010 .23.58.58 0 01-.32.32.62.62 0 01-.23 0H10.9a.62.62 0 01-.23 0 .55.55 0 01-.19-.13.64.64 0 01-.13-.19.6.6 0 010-.23V6.5a.58.58 0 01.55-.58zm37.84 9h-4.25a.59.59 0 110-1.17h4.25a.59.59 0 110 1.17zm10.88 0h-4.25a.59.59 0 110-1.17h4.25a.58.58 0 01.59.59.59.59 0 01-.59.54zm5.57 4.52V7.09h-53.7V19.4zM58.18 48V20.82H18.5V48a8.37 8.37 0 00.63 3.21 8.42 8.42 0 004.55 4.56 8.37 8.37 0 003.21.63h22.89a8.37 8.37 0 003.22-.66 8.43 8.43 0 004.55-4.55 8.3 8.3 0 00.63-3.19zM11.49 20.82v44.87h53.7V20.82h-5.83V48a9.51 9.51 0 01-.73 3.66 9.63 9.63 0 01-5.19 5.19 9.54 9.54 0 01-3.66.73H26.9a9.52 9.52 0 01-3.66-.73A9.6 9.6 0 0118 51.63a9.51 9.51 0 01-.68-3.63V20.82z"/></symbol><symbol shape-rendering="geometricPrecision" text-rendering="geometricPrecision" image-rendering="optimizeQuality" fill-rule="evenodd" clip-rule="evenodd" viewBox="0 0 1261 1294" id="5" xmlns="http://www.w3.org/2000/svg"><path fill-rule="nonzero" d="M970 194V97H194v97h776zm194 457V97h-97v554h97zm49-651c27 0 48 22 48 49v651c0 26-21 48-48 48h-146v497c0 27-21 49-48 49-48 0-846-2-873-2s-49-22-49-48V291H49c-27 0-49-22-49-48 0-27 22-49 49-49h48V97H49C22 97 0 75 0 49 0 22 22 0 49 0h1164zM970 1003V291H194v712h776zm0 194v-97H194v97h776z"/></symbol><symbol shape-rendering="geometricPrecision" text-rendering="geometricPrecision" image-rendering="optimizeQuality" fill-rule="evenodd" clip-rule="evenodd" viewBox="0 0 843 1098" id="6" xmlns="http://www.w3.org/2000/svg"><path fill-rule="nonzero" d="M764 887V138c0-29-28-59-58-59H461v863h245c30 0 58-25 58-55zM548 306c22 0 40 18 40 40v152c0 22-18 40-40 40s-40-18-40-40V346c0-22 18-40 40-40zM295 538c-22 0-40-18-40-40V346c0-22 18-40 40-40s40 18 40 40v152c0 22-18 40-40 40zm548-404v757c-2 60-45 110-102 126v41c0 22-18 40-39 40-22 0-40-18-40-40v-36H181v36c0 22-18 40-39 40-22 0-40-18-40-40v-41C44 1001 0 948 0 887V138C0 65 64 0 138 0h568c72 0 134 62 137 133v1zm-764 4v749c0 30 30 55 59 55h244V79H138c-30 0-59 30-59 59z"/></symbol><symbol shape-rendering="geometricPrecision" text-rendering="geometricPrecision" image-rendering="optimizeQuality" fill-rule="evenodd" clip-rule="evenodd" viewBox="0 0 953 1308" id="7" xmlns="http://www.w3.org/2000/svg"><path fill-rule="nonzero" d="M814 1308c-18 0-33-14-33-32v-50h-71v50c0 18-14 32-32 32s-33-14-33-32v-50h-71v50c0 18-15 32-32 32-18 0-33-14-33-32v-50h-71v50c0 18-15 32-32 32-18 0-33-14-33-32v-50h-17c-49 0-90-40-90-90V976H91c-50 2-91-41-91-89V172c0-49 40-90 90-90h17V32c0-18 14-32 32-32s33 14 33 32v50h71V32c0-18 14-32 32-32s33 14 33 32v50h71V32c0-18 15-32 32-32 18 0 33 14 33 32v50h71V32c0-18 15-32 32-32 18 0 33 14 33 32v50h17c49 0 90 41 90 90v160h176c50 0 90 40 90 90v714c0 50-40 90-90 90h-17v50c0 18-14 32-32 32zm49-147c14 0 25-11 25-25V978c-3-1-7-2-10-3-26-9-89-9-126 0-44 11-120 14-163 0-26-9-89-9-126 0-10 3-23 5-36 7-18 2-34-11-36-29-2-17 11-33 28-36 11-1 21-2 29-4 44-11 119-14 162 0 27 9 89 9 127 0 40-11 108-13 151-3v-56c-3-1-6-2-10-3-26-9-89-9-126 0-44 11-120 14-163 0-26-9-89-9-126 0-10 3-23 5-36 7-18 2-34-11-36-29-2-17 11-33 28-36 11-1 21-2 29-4 44-11 119-14 162 0 27 9 89 9 127 0 40-11 108-13 151-3V422c0-14-11-25-25-25H356c-14 0-25 12-25 25v714c0 14 11 25 25 25h507zM137 912h129V584L137 912zM90 147c-14 0-25 11-25 25v715c0 6 2 12 6 16 72-183 145-367 217-551 5-12 17-20 30-20h304V172c0-14-11-25-25-25H90z"/></symbol><symbol shape-rendering="geometricPrecision" text-rendering="geometricPrecision" image-rendering="optimizeQuality" fill-rule="evenodd" clip-rule="evenodd" viewBox="0 0 1816 1365" id="8" xmlns="http://www.w3.org/2000/svg"><path fill-rule="nonzero" d="M822 746c-3 7-5 14-7 21h624l-35-158h-387c-75 18-163 65-195 137zM595 986h-73c-6 0-10-4-10-10v-83c0-6 4-10 10-10h83c6 0 10 4 10 10v83c0 6-4 10-10 10h-10zm-255 0h-74c-6 0-10-4-10-10v-83c0-6 4-10 10-10h84c5 0 10 4 10 10v83c0 6-5 10-10 10h-10zm128 0h-74c-6 0-10-4-10-10v-83c0-6 4-10 10-10h84c5 0 10 4 10 10v83c0 6-5 10-10 10h-10zM84 826H10c-6 0-10-4-10-9v-84c0-6 4-10 10-10h84c5 0 10 4 10 10v84c0 5-5 9-10 9H84zm0-383H10c-6 0-10-5-10-10v-84c0-6 4-10 10-10h84c5 0 10 4 10 10v84c0 5-5 10-10 10H84zm0 256H10c-6 0-10-5-10-10v-84c0-6 4-10 10-10h84c5 0 10 4 10 10v84c0 5-5 10-10 10H84zm0-128H10c-6 0-10-5-10-10v-84c0-6 4-10 10-10h84c5 0 10 4 10 10v84c0 5-5 10-10 10H84zm328-211h-74c-5 0-10-5-10-10v-84c0-6 5-10 10-10h84c6 0 10 4 10 10v84c0 5-4 10-10 10h-10zm0-256h-74c-5 0-10-5-10-10V10c0-6 5-10 10-10h84c6 0 10 4 10 10v84c0 5-4 10-10 10h-10zm0 128h-74c-5 0-10-5-10-10v-84c0-6 5-10 10-10h84c6 0 10 4 10 10v84c0 5-4 10-10 10h-10zm0 256h-74c-5 0-10-5-10-10v-84c0-6 5-10 10-10h84c6 0 10 4 10 10v84c0 5-4 10-10 10h-10zM248 251h-74c-5 0-10-5-10-10v-84c0-5 5-10 10-10h84c6 0 10 5 10 10v84c0 5-4 10-10 10h-10zm0 384h-74c-5 0-10-5-10-10v-84c0-6 5-10 10-10h84c6 0 10 4 10 10v84c0 5-4 10-10 10h-10zm0-256h-74c-5 0-10-5-10-10v-84c0-6 5-10 10-10h84c6 0 10 4 10 10v84c0 5-4 10-10 10h-10zm0 128h-74c-5 0-10-5-10-10v-84c0-6 5-10 10-10h84c6 0 10 4 10 10v84c0 5-4 10-10 10h-10zm1397-53h161c6 0 10 5 10 10v84c0 5-4 10-10 10h-137l135 595c1 6-2 11-8 12H82c-5 0-10-4-10-10v-41l1-3c31-195 130-350 264-469 160-143 371-235 578-284h700c5 0 9 4 10 9l20 87zM180 1062h1497l-137-600H918c-177 49-359 125-502 243-111 92-197 209-236 357zm1339 303H90c-6 0-10-4-10-10v-84c0-5 4-10 10-10h1439c6 0 10 5 10 10v84c0 6-4 10-10 10h-10zm-518-859c58-11 228-7 356-3 50 1 94 2 123 2 5 0 9 4 10 8l76 346c1 5-3 11-8 12H714c-6 0-10-5-10-10v-42c0-167 144-283 297-313z"/></symbol><symbol shape-rendering="geometricPrecision" text-rendering="geometricPrecision" image-rendering="optimizeQuality" fill-rule="evenodd" clip-rule="evenodd" viewBox="0 0 1172 1234" id="9" xmlns="http://www.w3.org/2000/svg"><path fill-rule="nonzero" d="M1172 246v637H182v86h847c22 0 40 18 40 40s-18 39-40 39h-81c11 21 18 39 18 64 0 67-55 122-122 122s-122-55-122-122c0-25 6-43 18-64H453c12 21 18 39 18 64 0 67-55 122-122 122s-122-55-122-122c0-25 6-43 18-64H143c-22 0-40-17-40-39V79H40C18 79 0 61 0 40 0 18 18 0 40 0h103c21 0 39 18 39 40v187h990v19zm-823 909c24 0 43-19 43-43s-19-43-43-43-43 19-43 43 19 43 43 43zm495 0c24 0 43-19 43-43s-20-43-43-43c-24 0-43 19-43 43s19 43 43 43zM268 306h-86v498h86V306zm409 498h86V306h-86v498zm251-498h-86v498h86V306zM512 804h86V306h-86v498zm-165 0h86V306h-86v498zm660 0h86V306h-86v498z"/></symbol><symbol viewBox="0 0 512.003 512.003" id="discount" xmlns="http://www.w3.org/2000/svg"><path d="M477.958 262.633a15.004 15.004 0 010-13.263l19.096-39.065c10.632-21.751 2.208-47.676-19.178-59.023l-38.41-20.38a15.005 15.005 0 01-7.796-10.729l-7.512-42.829c-4.183-23.846-26.241-39.87-50.208-36.479l-43.053 6.09a15.004 15.004 0 01-12.613-4.099l-31.251-30.232c-17.401-16.834-44.661-16.835-62.061 0L193.72 42.859a15.01 15.01 0 01-12.613 4.099l-43.053-6.09c-23.975-3.393-46.025 12.633-50.208 36.479l-7.512 42.827a15.008 15.008 0 01-7.795 10.73l-38.41 20.38c-21.386 11.346-29.81 37.273-19.178 59.024l19.095 39.064a15.004 15.004 0 010 13.263L14.95 301.699c-10.632 21.751-2.208 47.676 19.178 59.023l38.41 20.38a15.005 15.005 0 017.796 10.729l7.512 42.829c3.808 21.708 22.422 36.932 43.815 36.93 2.107 0 4.245-.148 6.394-.452l43.053-6.09a15 15 0 0112.613 4.099l31.251 30.232c8.702 8.418 19.864 12.626 31.03 12.625 11.163-.001 22.332-4.209 31.03-12.625l31.252-30.232c3.372-3.261 7.968-4.751 12.613-4.099l43.053 6.09c23.978 3.392 46.025-12.633 50.208-36.479l7.513-42.827a15.008 15.008 0 017.795-10.73l38.41-20.38c21.386-11.346 29.81-37.273 19.178-59.024l-19.096-39.065zm-13.923 72.002l-38.41 20.38c-12.246 6.499-20.645 18.057-23.04 31.713l-7.512 42.828a15.038 15.038 0 01-16.987 12.342l-43.053-6.09c-13.73-1.945-27.316 2.474-37.281 12.113L266.5 478.152a15.04 15.04 0 01-20.997 0l-31.251-30.232c-8.422-8.147-19.432-12.562-30.926-12.562-2.106 0-4.229.148-6.355.449l-43.053 6.09a15.042 15.042 0 01-16.987-12.342l-7.513-42.829c-2.396-13.656-10.794-25.215-23.041-31.712l-38.41-20.38a15.037 15.037 0 01-6.489-19.969L60.574 275.6c6.088-12.456 6.088-26.742 0-39.198l-19.096-39.065a15.037 15.037 0 016.489-19.969l38.41-20.38c12.246-6.499 20.645-18.057 23.04-31.713l7.512-42.828a15.038 15.038 0 0116.987-12.342l43.053 6.09c13.725 1.943 27.316-2.474 37.281-12.113l31.252-30.232a15.04 15.04 0 0120.997 0l31.251 30.232c9.965 9.64 23.554 14.056 37.281 12.113l43.053-6.09a15.04 15.04 0 0116.987 12.342l7.512 42.829c2.396 13.656 10.794 25.215 23.041 31.712l38.41 20.38a15.037 15.037 0 016.489 19.969l-19.096 39.064c-6.088 12.455-6.088 26.743 0 39.198l19.096 39.064a15.039 15.039 0 01-6.488 19.972z"/><path d="M363.886 148.116c-5.765-5.766-15.115-5.766-20.881 0l-194.889 194.89c-5.766 5.766-5.766 15.115 0 20.881a14.72 14.72 0 0010.44 4.325c3.778 0 7.558-1.441 10.44-4.325l194.889-194.889c5.768-5.767 5.768-15.115.001-20.882zm-166.945-25c-29.852 0-54.139 24.287-54.139 54.139s24.287 54.139 54.139 54.139 54.139-24.287 54.139-54.139-24.287-54.139-54.139-54.139zm0 78.747c-13.569 0-24.608-11.039-24.608-24.609 0-13.569 11.039-24.608 24.608-24.608s24.609 11.039 24.609 24.608c-.001 13.57-11.04 24.609-24.609 24.609zm118.12 78.747c-29.852 0-54.139 24.287-54.139 54.139s24.287 54.139 54.139 54.139c29.852 0 54.139-24.287 54.139-54.139s-24.287-54.139-54.139-54.139zm0 78.747c-13.569 0-24.609-11.039-24.609-24.608s11.039-24.608 24.609-24.608c13.569 0 24.608 11.039 24.608 24.608s-11.039 24.608-24.608 24.608z"/></symbol><symbol id="file-pdf" viewBox="0 0 24 30" xmlns="http://www.w3.org/2000/svg"><defs><style>.bvcls-1{fill:#b8bac2}</style></defs><path class="bvcls-1" d="M21.8 0h-16a1.93 1.93 0 00-1.94 1.93v1.64h-2.2A1.38 1.38 0 00.29 4.94v23.69A1.38 1.38 0 001.66 30h17.11a1.37 1.37 0 001.37-1.37v-2.2h1.66a1.91 1.91 0 001.91-1.9V1.9A1.91 1.91 0 0021.8 0zm-3 28.62H1.67V5h11v4.5a1.57 1.57 0 001.6 1.5h4.49zM14.09 9.45V5.93l3.7 3.7h-3.52a.18.18 0 01-.18-.18zm8.23 15.06a.54.54 0 01-.53.54h-1.65V10.31a.69.69 0 00-.19-.48l-6.06-6a.68.68 0 00-.49-.21H5.24V1.93a.55.55 0 01.54-.54h16a.54.54 0 01.53.54z"/><path class="bvcls-1" d="M12.1 17.31a6.54 6.54 0 01-1.89-3.08 16.83 16.83 0 00.18-2.48v-.39a.37.37 0 000-.1.28.28 0 00.05-.1 1 1 0 00-.12-.88.54.54 0 00-.45-.19h-.29c-.27 0-.45.17-.54.52a5 5 0 00-.08 1.65 10.32 10.32 0 00.39 2.06A19.67 19.67 0 018 17.7q-.71 1.45-1.38 2.55a.08.08 0 000-.05.19.19 0 00-.3-.08 6.22 6.22 0 00-1.71 1.25 2.81 2.81 0 00-.72 1.18.54.54 0 00.08.46l.08.07.31.15a.75.75 0 00.36.09q1.15 0 3.13-3.39a23.33 23.33 0 015.07-1.07 9.34 9.34 0 001.68.69 5.32 5.32 0 001.49.26q.84 0 .92-.49a.63.63 0 000-.67q-.39-.63-2.29-.63a13 13 0 00-1.51.09 9.74 9.74 0 01-1.11-.8zm-7.45 5.32a4.26 4.26 0 01.64-1 7.38 7.38 0 011.13-1.09 5.71 5.71 0 01-1.77 2.09zm5.14-11.9v-.05a.75.75 0 01.17.47v.06a.3.3 0 00-.05.1q-.09.52-.09.56l-.09.57a3.85 3.85 0 01.06-1.71zm-1.6 8.54l.58-1.07a17.24 17.24 0 001.07-2.55 6.85 6.85 0 001.64 2.27l.21.17.17.12a19 19 0 00-3.67 1.07zm8.35-.21h-.23a4.88 4.88 0 01-1.6-.36 3.09 3.09 0 011.83.37z"/></symbol><symbol id="file-xls" viewBox="0 0 24 30" xmlns="http://www.w3.org/2000/svg"><defs><style>.bwcls-1{fill:#b8bac2}</style></defs><path class="bwcls-1" d="M21.8 0h-16a1.93 1.93 0 00-1.94 1.93v1.64h-2.2A1.38 1.38 0 00.29 4.94v23.69A1.38 1.38 0 001.66 30h17.11a1.37 1.37 0 001.37-1.37v-2.2h1.66a1.91 1.91 0 001.91-1.9V1.9A1.91 1.91 0 0021.8 0zm-3 28.62H1.67V5h11v4.5a1.57 1.57 0 001.6 1.5h4.49zM14.09 9.45V5.93l3.7 3.7h-3.52a.18.18 0 01-.18-.18zm8.23 15.06a.54.54 0 01-.53.54h-1.65V10.31a.69.69 0 00-.19-.48l-6.06-6a.68.68 0 00-.49-.21H5.24V1.93a.55.55 0 01.54-.54h16a.54.54 0 01.53.54z"/><path class="bwcls-1" d="M11 15.63h1l-1.48 2.28-.14.24-.13.19a.51.51 0 00-.07-.14 1.74 1.74 0 00-.24-.33l-1.57-2.24h1.09v-1.54H5.29v1.54h1L9 19.53 6.2 23.6h-1v1.52h4V23.6H8.18l1.48-2.31A2 2 0 009.8 21l.11-.19s0-.06.05-.06a.47.47 0 00.07.14l.06.11.09.12.09.12 1.54 2.31h-1.06v1.52h4.18V23.6H14l-2.8-3.92 2.8-4h1v-1.59h-4z"/></symbol><symbol shape-rendering="geometricPrecision" text-rendering="geometricPrecision" image-rendering="optimizeQuality" fill-rule="evenodd" clip-rule="evenodd" viewBox="0 0 1319 2540" id="wb-facebook" xmlns="http://www.w3.org/2000/svg"><path fill-rule="nonzero" d="M856 2540V1381h389l58-451H856V642c0-131 36-220 224-220h239V18c-41-6-183-18-348-18-345 0-581 210-581 597v333H0v451h390v1159h466z"/></symbol><symbol shape-rendering="geometricPrecision" text-rendering="geometricPrecision" image-rendering="optimizeQuality" fill-rule="evenodd" clip-rule="evenodd" viewBox="0 0 10275 6527" id="wb-google+" xmlns="http://www.w3.org/2000/svg"><path d="M3264 2797c-2 370 0 741 1 1112 622 20 1245 11 1866 20-274 1379-2149 1826-3142 926-1020-790-972-2523 89-3257 741-592 1796-445 2538 68 291-270 564-559 827-858C4826 316 4069-34 3264 3 1582-53 37 1419 9 3100-99 4475 805 5822 2081 6308c1271 489 2901 156 3713-986 536-721 651-1650 589-2523-1041-7-2080-6-3119-2zm6079-5c-3-310-5-622-6-932h-927c-4 310-7 620-8 932-312 1-622 3-932 6v927c310 3 622 7 932 9 3 311 3 621 6 931h929c1-310 3-620 6-932 312-3 622-5 932-8v-927c-310-3-622-3-932-6z"/></symbol><symbol shape-rendering="geometricPrecision" text-rendering="geometricPrecision" image-rendering="optimizeQuality" fill-rule="evenodd" clip-rule="evenodd" viewBox="0 0 5124 5124" id="wb-instagram" xmlns="http://www.w3.org/2000/svg"><path d="M4231 1199c0 170-137 307-306 307s-306-137-306-307c0-169 137-306 306-306s306 137 306 306zM2562 3414c-470 0-851-382-851-852s381-851 851-851 851 381 851 851-381 852-851 852zm0-2163c-724 0-1311 587-1311 1311s587 1312 1311 1312c724-1 1311-588 1311-1312s-587-1311-1311-1311zM1509 24c-272 13-457 56-620 119-168 65-310 153-452 294-142 142-229 285-294 453-64 162-107 348-119 619-32 699-32 1408 0 2106 12 272 55 457 119 620 65 168 152 310 294 452s284 229 452 295c163 63 348 106 620 118 698 32 1408 32 2106 0 272-12 457-55 620-118 167-66 310-153 452-295s229-284 294-452c63-163 107-348 119-620 32-698 32-1407 0-2106-12-271-56-457-119-619-65-168-152-311-294-453-142-141-285-229-452-294-163-63-348-106-620-119-698-32-1408-32-2106 0zm2085 460c249 11 384 53 474 88 119 46 204 101 293 191 90 89 145 174 192 293 35 90 76 226 87 475 32 683 32 1379 0 2063-11 249-52 384-87 474-47 119-102 205-192 294-89 89-174 145-293 191-90 35-225 76-474 88-684 31-1380 31-2064 0-249-12-384-53-474-88-119-46-204-102-294-191-89-89-144-174-191-294-35-90-76-225-88-474-30-684-30-1379 0-2063 12-249 53-385 88-475 47-119 102-204 191-293 90-90 175-145 294-191 90-35 225-77 474-88 684-31 1380-31 2064 0z"/></symbol><symbol shape-rendering="geometricPrecision" text-rendering="geometricPrecision" image-rendering="optimizeQuality" fill-rule="evenodd" clip-rule="evenodd" viewBox="0 0 7201 4216" id="wb-vk" xmlns="http://www.w3.org/2000/svg"><path fill-rule="nonzero" d="M5982 2067S6931 729 7025 289c32-157-37-245-201-245h-823c-188 0-258 82-314 201 0 0-445 948-987 1546-173 193-262 251-358 251-77 0-113-64-113-239V276c0-213-25-276-201-276H2708c-100 0-163 58-163 138 0 201 308 247 308 792v1125c0 226-13 314-120 314-282 0-955-974-1332-2080C1326 63 1244 0 1030 0H207C88 0 0 82 0 201c0 220 258 1238 1269 2602 679 917 1571 1413 2376 1413 490 0 609-81 609-289v-703c0-176 69-252 170-252 113 0 313 37 779 497 553 528 591 747 892 747h924c94 0 182-44 182-201 0-207-270-578-685-1018-169-226-446-471-534-584-125-132-88-207 0-346z"/></symbol><symbol viewBox="0 0 28 28" id="wb-whats-app" xmlns="http://www.w3.org/2000/svg"><path fill-rule="evenodd" clip-rule="evenodd" d="M7.935 19.514l-.393 1.166 1.41-.459 1.411-.46C11.487 20.517 13.17 21 14.498 21a7.5 7.5 0 10-7.495-7.735c-.05 1.563.544 3.42 1.458 4.684a440.9 440.9 0 01-.526 1.565zM11.462 9.46c-.125 0-.364.155-.364.155-.725.46-.844 1.543-.87 1.773-.02.234-.04.729.34 1.563.385.833 1.313 1.962 2.467 3.035 1.114 1.037 2.796 1.506 3.391 1.672l.06.016c.534.15 1.662-.115 2.191-.689.475-.515.428-1.045.406-1.294l-.006-.074a.237.237 0 00-.19-.23s-1.463-.709-1.763-.844c-.304-.14-.454.085-.454.085s-.444.565-.59.744l-.032.045c-.122.165-.217.295-.561.18-.375-.12-1.119-.524-1.728-1.069-.61-.549-1.079-1.268-1.209-1.488-.134-.22.02-.36.02-.36s.385-.444.57-.683c.184-.235.07-.505.025-.61-.04-.11-.634-1.502-.724-1.697-.085-.195-.275-.23-.275-.23h-.704z"/></symbol><symbol viewBox="0 0 23 16" id="wb-youtube" xmlns="http://www.w3.org/2000/svg"><path d="M22.195 3.397s-.219-1.543-.891-2.222C20.452.283 19.496.28 19.058.227 15.92 0 11.215 0 11.215 0h-.01S6.499 0 3.36.227c-.438.052-1.393.056-2.246.948-.672.68-.89 2.222-.89 2.222S0 5.208 0 7.019v1.698c0 1.812.225 3.623.225 3.623s.218 1.542.89 2.222c.853.891 1.973.863 2.472.956 1.794.172 7.622.225 7.622.225s4.712-.007 7.849-.233c.438-.052 1.394-.057 2.246-.948.672-.68.891-2.222.891-2.222s.224-1.811.224-3.623V7.02c0-1.81-.224-3.622-.224-3.622zm-13.3 7.378V4.486l6.057 3.155-6.057 3.134z"/></symbol></svg>